<?xml version="1.0" encoding="iso-8859-1"?>
<!-- Generator: Adobe Illustrator 19.0.0, SVG Export Plug-In . SVG Version: 6.00 Build 0)  -->
<svg version="1.1" id="Capa_1" xmlns="http://www.w3.org/2000/svg" xmlns:xlink="http://www.w3.org/1999/xlink" x="0px" y="0px"
	 viewBox="0 0 512 512" style="enable-background:new 0 0 512 512;" xml:space="preserve">
<path style="fill:#4A5058;" d="M426.79,227.388l-10.217,83.071c-2.735,22.241,14.995,41.688,37.393,41.013l0,0
	c10.694-0.322,16.255,12.618,8.661,20.155l0,0c-38.265,37.98-89.992,59.293-143.905,59.293H256h-62.723
	c-53.913,0-105.64-21.313-143.905-59.293l0,0c-7.593-7.537-2.032-20.477,8.661-20.155l0,0c22.398,0.675,40.129-18.772,37.394-41.013
	L85.21,227.388H426.79z"/>
<path style="fill:#F0B0B7;" d="M138.329,512h-28.583c-4.854,0-8.788-3.935-8.788-8.788v-6.755c0-35.715,17.256-69.228,46.327-89.974
	l1.779-1.269l21.705,30.422L169,436.898c-19.246,13.731-30.671,35.917-30.671,59.559V512z"/>
<path style="opacity:0.15;enable-background:new    ;" d="M138.329,512h-28.583c-4.854,0-8.788-3.935-8.788-8.788v-6.755
	c0-35.715,17.256-69.228,46.327-89.974l1.779-1.269l21.705,30.422L169,436.898c-19.246,13.731-30.671,35.917-30.671,59.559V512z"/>
<path style="fill:#F0B0B7;" d="M373.67,512h28.583c4.853,0,8.788-3.935,8.788-8.788v-6.755c0-35.715-17.256-69.228-46.327-89.974
	l-1.779-1.269l-21.704,30.422l1.769,1.262c19.246,13.731,30.671,35.917,30.671,59.559V512H373.67z"/>
<path style="opacity:0.15;enable-background:new    ;" d="M373.67,512h28.583c4.853,0,8.788-3.935,8.788-8.788v-6.755
	c0-35.715-17.256-69.228-46.327-89.974l-1.779-1.269l-21.704,30.422l1.769,1.262c19.246,13.731,30.671,35.917,30.671,59.559V512
	H373.67z"/>
<path style="fill:#F0B0B7;" d="M256,325.284L256,325.284c-66.859,0-121.059,54.2-121.059,121.059V512h242.118v-65.657
	C377.059,379.484,322.859,325.284,256,325.284z"/>
<circle style="opacity:0.15;enable-background:new    ;" cx="256" cy="368.32" r="76.31"/>
<circle style="fill:#FFD4B8;" cx="256" cy="368.32" r="51.793"/>
<path style="opacity:0.1;enable-background:new    ;" d="M256,325.284L256,325.284c-34.694,0-65.975,14.598-88.047,37.982
	c26.004,14.704,56.042,23.105,88.047,23.105s62.043-8.402,88.047-23.105C321.975,339.882,290.694,325.284,256,325.284z"/>
<circle style="fill:#FFD4B8;" cx="256" cy="189.17" r="179.15"/>
<path style="opacity:0.1;fill:#513130;enable-background:new    ;" d="M282.55,345.709c-98.943,0-179.152-80.209-179.152-179.152
	c0-48.359,19.168-92.236,50.313-124.468c-46.455,32.368-76.862,86.171-76.862,147.083c0,98.943,80.209,179.152,179.152,179.152
	c50.583,0,96.263-20.971,128.839-54.684C355.835,333.849,320.58,345.709,282.55,345.709z"/>
<g>
	<path style="fill:#4A5058;" d="M161.146,211.262c-4.143,0-7.5-3.357-7.5-7.5v-18.43c0-4.143,3.357-7.5,7.5-7.5s7.5,3.357,7.5,7.5
		v18.43C168.646,207.904,165.289,211.262,161.146,211.262z"/>
	<path style="fill:#4A5058;" d="M348.753,211.262c-4.143,0-7.5-3.357-7.5-7.5v-18.43c0-4.143,3.357-7.5,7.5-7.5s7.5,3.357,7.5,7.5
		v18.43C356.253,207.904,352.895,211.262,348.753,211.262z"/>
	<path style="fill:#4A5058;" d="M223.879,229.038c-2.791,0-4.94,2.474-4.549,5.237c2.544,17.975,17.993,31.8,36.67,31.8
		s34.126-13.825,36.67-31.8c0.391-2.764-1.758-5.237-4.549-5.237L223.879,229.038L223.879,229.038z"/>
	<path style="fill:#4A5058;" d="M115.421,245.634c0,29.263-23.723,52.986-52.986,52.986c-24.664,0-45.392-16.852-51.298-39.669
		c-1.703-6.581,3.621-12.873,10.396-12.306l0,0c19.019,1.591,34.964-14.178,33.583-33.214l-6.375-87.912
		c-3.549-48.947,23.697-94.944,68.329-115.35l0,0c17.122-7.829,35.938-11.227,54.718-9.882l82.872,5.935
		c0.892,0.064,1.788,0.064,2.68,0l82.872-5.935c18.779-1.345,37.595,2.053,54.718,9.882l0,0
		c44.632,20.406,71.878,66.403,68.329,115.35l-6.375,87.912c-1.38,19.035,14.565,34.805,33.583,33.214l0,0
		c6.774-0.567,12.099,5.725,10.396,12.306c-5.906,22.817-26.634,39.669-51.298,39.669c-29.263,0-52.986-23.723-52.986-52.986
		l-1.603-71.787c0-41.176-33.38-74.556-74.557-74.556c-14.972,0-28.909,4.417-40.585,12.017c-14.48,9.424-33.189,9.424-47.668,0
		c-11.676-7.6-25.613-12.017-40.585-12.017c-41.176,0-74.557,33.38-74.557,74.556L115.421,245.634z"/>
</g>
<path style="opacity:0.1;enable-background:new    ;" d="M186.148,399.046c2.053,4.66,4.558,9.072,7.459,13.187l21.507-12.134
	c-3.093-3.975-5.619-8.409-7.458-13.188L186.148,399.046z M248.443,419.563v24.695c2.487,0.244,5.007,0.375,7.557,0.375
	c2.563,0,5.095-0.131,7.593-0.378v-24.697c-2.479,0.364-5.013,0.56-7.593,0.56C253.432,420.118,250.91,419.924,248.443,419.563z
	 M304.349,386.896c-1.837,4.78-4.361,9.215-7.453,13.191l21.506,12.133c2.901-4.116,5.405-8.529,7.457-13.189L304.349,386.896z"/>
<g>
</g>
<g>
</g>
<g>
</g>
<g>
</g>
<g>
</g>
<g>
</g>
<g>
</g>
<g>
</g>
<g>
</g>
<g>
</g>
<g>
</g>
<g>
</g>
<g>
</g>
<g>
</g>
<g>
</g>
</svg>
