<?xml version="1.0" encoding="iso-8859-1"?>
<!-- Generator: Adobe Illustrator 19.0.0, SVG Export Plug-In . SVG Version: 6.00 Build 0)  -->
<svg version="1.1" id="Capa_1" xmlns="http://www.w3.org/2000/svg" xmlns:xlink="http://www.w3.org/1999/xlink" x="0px" y="0px"
	 viewBox="0 0 512 512" style="enable-background:new 0 0 512 512;" xml:space="preserve">
<path style="fill:#422017;" d="M448.8,241h-32.134c-8.284,0-15,6.716-15,15c0,8.242,6.649,14.927,14.876,14.994l-0.547,66.406
	h-0.124c-8.284,0-15,6.716-15,15s6.716,15,15,15H448.8c34.849,0,63.2-28.352,63.2-63.201C512,269.351,483.648,241,448.8,241z"/>
<path style="fill:#5B3227;" d="M96.131,337.4h-0.124l-0.55-66.406c8.227-0.068,14.876-6.752,14.876-14.994c0-8.284-6.716-15-15-15
	H63.199C28.351,241,0,269.351,0,304.199c0,34.85,28.351,63.201,63.199,63.201h32.932c8.284,0,15-6.716,15-15
	S104.415,337.4,96.131,337.4z"/>
<path style="fill:#794334;" d="M426.67,212.69c-21.361-19.119-45.556-34.406-71.912-45.438c-4.78-2.001-10.254-1.392-14.48,1.609
	c-24.711,17.56-53.853,26.841-84.278,26.841c-30.424,0-59.566-9.281-84.277-26.841c-4.225-3.002-9.698-3.608-14.48-1.609
	c-26.351,11.027-50.546,26.314-71.913,45.437c-3.18,2.846-4.997,6.911-4.997,11.178v112.467C80.333,433.196,159.137,512,256,512
	c96.862,0,175.666-78.804,175.666-175.666V223.867C431.666,219.601,429.849,215.536,426.67,212.69z"/>
<g>
	<path style="fill:#5B3227;" d="M426.67,212.69c-21.361-19.119-45.556-34.406-71.912-45.438c-4.78-2.001-10.254-1.392-14.48,1.609
		c-24.711,17.56-53.853,26.841-84.278,26.841V512c96.862,0,175.666-78.804,175.666-175.666V223.867
		C431.666,219.601,429.849,215.536,426.67,212.69z"/>
	<path style="fill:#5B3227;" d="M256,415.6c-22.485,0-43.456-12.098-54.727-31.572c-4.15-7.17-1.701-16.346,5.469-20.496
		s16.346-1.702,20.496,5.469c5.926,10.239,16.947,16.6,28.763,16.6s22.839-6.364,28.77-16.608c4.15-7.17,13.327-9.616,20.496-5.467
		c7.17,4.149,9.617,13.326,5.467,20.496C299.457,403.499,278.485,415.6,256,415.6z"/>
</g>
<path style="fill:#3B211A;" d="M191.735,295.107c-3.949,0-7.819-1.601-10.609-4.39c-2.79-2.801-4.391-6.66-4.391-10.61
	c0-3.95,1.601-7.81,4.391-10.61c2.79-2.79,6.66-4.39,10.609-4.39c3.95,0,7.811,1.6,10.601,4.39c2.8,2.8,4.399,6.66,4.399,10.61
	c0,3.95-1.6,7.81-4.399,10.61C199.546,293.507,195.676,295.107,191.735,295.107z"/>
<path style="fill:#0F0301;" d="M320.266,295.107c-3.95,0-7.81-1.601-10.61-4.39c-2.789-2.79-4.39-6.66-4.39-10.61
	c0-3.95,1.601-7.82,4.39-10.61c2.801-2.79,6.66-4.39,10.61-4.39s7.811,1.6,10.61,4.39c2.79,2.79,4.39,6.66,4.39,10.61
	c0,3.95-1.6,7.82-4.39,10.61C328.076,293.507,324.216,295.107,320.266,295.107z"/>
<path style="fill:#3B211A;" d="M408.616,63.216C367.851,22.45,313.65,0,256,0S144.148,22.45,103.383,63.216
	s-63.217,94.967-63.217,152.618c0,14.575,1.464,29.151,4.351,43.322c1.424,6.986,7.568,12.006,14.698,12.006h36.118
	c8.284,0,15-6.716,15-15v-25.461c15.571-13.145,32.731-24.063,51.168-32.556c28.217,18.056,60.707,27.558,94.499,27.558
	c33.793,0,66.283-9.502,94.5-27.558c18.439,8.495,35.599,19.412,51.166,32.555v25.462c0,8.284,6.716,15,15,15h36.113
	c7.129,0,13.273-5.018,14.697-12.004c2.891-14.179,4.356-28.755,4.356-43.324C471.833,158.183,449.382,103.981,408.616,63.216z"/>
<path style="fill:#422017;" d="M305.266,363.524c-7.17-4.15-16.347-1.701-20.496,5.469c-5.93,10.243-16.951,16.606-28.766,16.607v30
	c22.484-0.001,43.456-12.102,54.73-31.58C314.884,376.851,312.435,367.675,305.266,363.524z"/>
<path style="fill:#0F0301;" d="M408.616,63.216C367.851,22.45,313.65,0,256,0v225.703c33.793,0,66.283-9.502,94.5-27.558
	c18.439,8.495,35.599,19.412,51.166,32.555v25.462c0,8.284,6.716,15,15,15h36.113c7.129,0,13.273-5.018,14.697-12.004
	c2.891-14.179,4.356-28.755,4.356-43.324C471.833,158.183,449.382,103.981,408.616,63.216z"/>
<g>
</g>
<g>
</g>
<g>
</g>
<g>
</g>
<g>
</g>
<g>
</g>
<g>
</g>
<g>
</g>
<g>
</g>
<g>
</g>
<g>
</g>
<g>
</g>
<g>
</g>
<g>
</g>
<g>
</g>
</svg>
