<?xml version="1.0" encoding="iso-8859-1"?>
<!-- Generator: Adobe Illustrator 19.0.0, SVG Export Plug-In . SVG Version: 6.00 Build 0)  -->
<svg version="1.1" id="Capa_1" xmlns="http://www.w3.org/2000/svg" xmlns:xlink="http://www.w3.org/1999/xlink" x="0px" y="0px"
	 viewBox="0 0 512 512" style="enable-background:new 0 0 512 512;" xml:space="preserve">
<path style="fill:#EF5050;" d="M372.498,261.2H354.52c-13.196,41.848-52.37,72.277-98.52,72.277s-85.323-30.429-98.52-72.277
	h-17.978c-5.67,0-10.874-2.032-14.924-5.404v143.399c0,7.679,5.683,14.078,13.047,15.245v-19.366
	c0-16.49,13.415-29.905,29.905-29.905h176.938c16.49,0,29.905,13.416,29.905,29.905v19.366c7.364-1.167,13.047-7.566,13.047-15.245
	V255.796C383.371,259.168,378.168,261.2,372.498,261.2z"/>
<g style="opacity:0.15;">
	<path style="fill:#440075;" d="M139.503,261.2c-5.67,0-10.874-2.032-14.924-5.404v143.399c0,7.679,5.683,14.078,13.047,15.245
		v-19.366c0-11.976,7.08-22.326,17.271-27.097V261.2H139.503z"/>
</g>
<g>
	<path style="fill:#B2762F;" d="M152.726,230.202V191h-26.553c-6.636,4.351-11.029,11.837-11.029,20.365v26.477
		c0,13.453,10.905,24.358,24.359,24.358h18.304C154.514,252.121,152.726,241.367,152.726,230.202z"/>
	<path style="fill:#B2762F;" d="M385.828,191h-26.554v39.202c0,11.165-1.788,21.919-5.081,31.998h18.305
		c13.453,0,24.358-10.906,24.358-24.358v-26.477C396.856,202.837,392.463,195.351,385.828,191z"/>
</g>
<g>
	<path style="fill:#775436;" d="M152.726,228.079v-8.538h-14.177c-4.143,0-7.5,3.358-7.5,7.5s3.357,7.5,7.5,7.5h14.385
		C152.801,232.403,152.726,230.25,152.726,228.079z"/>
	<path style="fill:#775436;" d="M373.451,216.542h-14.177v8.538c0,2.171-0.075,4.324-0.208,6.462h14.385c4.143,0,7.5-3.358,7.5-7.5
		C380.951,219.899,377.594,216.542,373.451,216.542z"/>
</g>
<path style="fill:#B2762F;" d="M344.469,364.169h-60.41v-34.567c-8.926,2.523-18.337,3.876-28.059,3.876
	c-9.722,0-19.133-1.352-28.058-3.875v34.567h-60.411c-17.04,0-30.905,13.864-30.905,30.905v43c6.266-3.849,13.63-6.074,21.507-6.074
	h59.75c13.505,0,26.172,6.642,33.884,17.767c0.963,1.388,2.544,2.216,4.233,2.216c1.69,0,3.271-0.828,4.233-2.216
	c7.712-11.125,20.38-17.767,33.884-17.767h59.75c7.877,0,15.241,2.225,21.507,6.074v-43
	C375.374,378.033,361.509,364.169,344.469,364.169z"/>
<path style="fill:#693FBA;" d="M353.867,430.101h-59.75c-13.504,0-26.172,6.642-33.884,17.767c-0.963,1.388-2.544,2.216-4.233,2.216
	c-1.689,0-3.27-0.828-4.233-2.216c-7.712-11.124-20.379-17.767-33.884-17.767h-59.75c-7.877,0-15.241,2.225-21.507,6.074v70.674
	c0,2.845,2.306,5.151,5.15,5.151h228.447c2.845,0,5.15-2.306,5.15-5.151v-70.674C369.108,432.326,361.744,430.101,353.867,430.101z"
	/>
<g style="opacity:0.15;">
	<path style="fill:#440075;" d="M166.628,506.849V395.074c0-17.041,13.865-30.905,30.905-30.905h-30.002
		c-17.04,0-30.905,13.864-30.905,30.905v111.775c0,2.845,2.306,5.151,5.15,5.151h30.002
		C168.934,512,166.628,509.694,166.628,506.849z"/>
</g>
<g>
	<path style="fill:#775436;" d="M239.601,390.07c-6.928-2.757-11.844-9.516-11.844-17.414v-8.487h-15v8.487
		c0,13.991,8.56,26.019,20.715,31.128C233.896,398.492,236.149,393.71,239.601,390.07z"/>
	<path style="fill:#775436;" d="M284.244,364.169v8.487c0,7.899-4.917,14.658-11.844,17.415c3.45,3.64,5.703,8.421,6.128,13.713
		c12.156-5.108,20.716-17.136,20.716-31.128v-8.487L284.244,364.169L284.244,364.169z"/>
</g>
<g>
	<path style="fill:#FFC502;" d="M171.177,289.042c-1.02,6.298-6.479,11.127-13.06,11.127c-7.305,0-13.247-5.941-13.247-13.246
		c0-7.304,5.942-13.246,13.247-13.246c1.625,0,3.175,0.308,4.614,0.846c-3.233-6.778-5.75-13.961-7.45-21.452
		c-17.439,1.442-31.145,16.04-31.145,33.852c0,18.767,15.213,33.979,33.98,33.979c11.619,0,21.872-5.836,27.999-14.733
		C180.535,301.03,175.521,295.286,171.177,289.042z"/>
	<path style="fill:#FFC502;" d="M356.719,253.07c-1.7,7.491-4.217,14.674-7.451,21.453c1.44-0.538,2.992-0.847,4.617-0.847
		c7.304,0,13.245,5.941,13.245,13.246s-5.941,13.246-13.245,13.246c-6.582,0-12.042-4.829-13.062-11.127
		c-4.345,6.244-9.358,11.988-14.939,17.127c6.128,8.897,16.38,14.733,28.001,14.733c18.766,0,33.979-15.212,33.979-33.979
		C387.863,269.111,374.156,254.512,356.719,253.07z"/>
</g>
<path style="fill:#D19546;" d="M151.726,230.202c0,57.59,46.686,104.275,104.274,104.275s104.274-46.685,104.274-104.275V191
	H151.726V230.202z"/>
<g style="opacity:0.15;">
	<path style="fill:#440075;" d="M181.374,230.202V191h-29.648v39.202c0,57.59,46.686,104.275,104.274,104.275
		c5.033,0,9.982-0.364,14.825-1.054C220.259,326.225,181.374,282.758,181.374,230.202z"/>
</g>
<g>
	<path style="fill:#775436;" d="M265.147,273.716h-9c-9.097,0-16.498-7.986-16.498-17.802v-25.669c0-4.142,3.357-7.5,7.5-7.5
		s7.5,3.358,7.5,7.5v25.669c0,1.743,1.04,2.802,1.498,2.802h9c4.143,0,7.5,3.358,7.5,7.5S269.289,273.716,265.147,273.716z"/>
	<path style="fill:#775436;" d="M198.85,252.168c-11.791,0-21.384-9.617-21.384-21.437s9.593-21.437,21.384-21.437
		c11.79,0,21.383,9.617,21.383,21.437C220.232,242.551,210.64,252.168,198.85,252.168z"/>
	<path style="fill:#775436;" d="M275.356,303.677h-36.355c-4.143,0-7.5-3.358-7.5-7.5s3.357-7.5,7.5-7.5h36.355
		c4.143,0,7.5,3.358,7.5,7.5S279.499,303.677,275.356,303.677z"/>
</g>
<g>
	<path style="fill:#135693;" d="M265.785,221.75v-2.321c0-3.713,3.021-6.735,6.735-6.735h8.072L224.003,191h-41.904l83.721,32.094
		C265.804,222.647,265.785,222.201,265.785,221.75z"/>
	<path style="fill:#135693;" d="M340.124,235.515c-1.867,4.851-4.689,9.229-8.237,12.906l24.668,9.456
		c1.331-4.847,2.322-9.834,2.943-14.935L340.124,235.515z"/>
</g>
<rect x="124.58" y="149" style="fill:#046699;" width="262.84" height="43.13"/>
<rect x="124.58" y="149" style="opacity:0.15;fill:#440075;enable-background:new    ;" width="45.771" height="43.13"/>
<path style="fill:#203A74;" d="M75.742,150.755c-2.845,0-5.15-2.306-5.15-5.151V123.29c0-2.752,2.164-5.018,4.912-5.145
	c43.09-1.994,65.813-30.98,87.788-59.012C186.084,30.059,209.648,0,256,0s69.916,30.059,92.704,59.128
	c21.979,28.037,44.702,57.023,87.792,59.017c2.748,0.127,4.912,2.393,4.912,5.145v22.314c0,2.845-2.306,5.151-5.15,5.151
	L75.742,150.755L75.742,150.755z"/>
<g>
	<path style="fill:#C5CCD3;" d="M281.691,72.533c2.004,3.731,3.145,7.992,3.145,12.516v2.569l18.744-8.74
		c-2.453-1.132-4.494-3.103-5.673-5.63c-1.176-2.52-1.399-5.313-0.669-7.964L281.691,72.533z"/>
	<path style="fill:#C5CCD3;" d="M227.164,85.049c0-4.523,1.141-8.784,3.144-12.516l-15.552-7.252
		c0.705,2.562,0.547,5.375-0.662,7.966c-1.179,2.528-3.22,4.5-5.673,5.631l18.743,8.74L227.164,85.049L227.164,85.049z"/>
	<path style="fill:#C5CCD3;" d="M275.258,110.044l21.98,10.249c-0.73-2.651-0.508-5.445,0.666-7.964
		c1.18-2.528,3.221-4.499,5.675-5.63l-19.901-9.28C282.184,102.341,279.284,106.716,275.258,110.044z"/>
	<path style="fill:#C5CCD3;" d="M236.742,110.044c-4.026-3.329-6.926-7.703-8.42-12.625l-19.901,9.28
		c2.454,1.131,4.495,3.102,5.674,5.63c1.208,2.592,1.366,5.405,0.661,7.967L236.742,110.044z"/>
</g>
<g style="opacity:0.15;">
	<path style="fill:#030005;" d="M101.473,138.229c0-2.752,2.164-5.018,4.913-5.146c43.089-1.994,65.813-30.98,87.787-59.012
		c22.793-29.075,46.356-59.134,92.708-59.134c8.381,0,16.007,0.995,23.027,2.776C295.628,7.097,278.504,0,256,0
		c-46.352,0-69.916,30.059-92.708,59.134c-21.976,28.032-44.698,57.018-87.788,59.012c-2.748,0.127-4.912,2.393-4.912,5.145v22.314
		c0,2.845,2.306,5.151,5.15,5.151h25.73v-12.527H101.473z"/>
</g>
<path style="fill:#203A74;" d="M304.233,261.198c-21.752,0-39.448-17.697-39.448-39.448v-2.321c0-4.272,3.463-7.735,7.735-7.735
	h63.427c4.272,0,7.734,3.463,7.734,7.735v2.321C343.682,243.501,325.985,261.198,304.233,261.198z"/>
<g style="opacity:0.15;">
	<path style="fill:#030005;" d="M292.648,221.75v-2.321c0-4.272,3.462-7.735,7.734-7.735H272.52c-4.273,0-7.735,3.463-7.735,7.735
		v2.321c0,21.751,17.696,39.448,39.448,39.448c4.903,0,9.597-0.906,13.931-2.549C303.27,253.006,292.648,238.599,292.648,221.75z"/>
</g>
<path style="fill:#42238E;" d="M275.585,482.321c0.847,0.308,1.712,0.454,2.563,0.454c3.064,0,5.941-1.893,7.05-4.939
	c1.415-3.892-0.593-8.196-4.485-9.611l-2.767-1.006l2.767-1.006c3.893-1.415,5.9-5.719,4.485-9.611
	c-1.417-3.893-5.717-5.901-9.612-4.485L263.5,456.51v-12.759c-1.166,1.294-2.261,2.664-3.267,4.116
	c-0.963,1.388-2.544,2.216-4.233,2.216c-1.689,0-3.27-0.828-4.233-2.216c-1.006-1.452-2.101-2.822-3.267-4.116v12.759l-12.085-4.395
	c-3.896-1.414-8.196,0.594-9.612,4.485c-1.415,3.893,0.593,8.196,4.485,9.611l2.767,1.006l-2.767,1.006
	c-3.893,1.415-5.9,5.719-4.485,9.611c1.108,3.047,3.985,4.939,7.05,4.939c0.851,0,1.716-0.146,2.563-0.454l12.085-4.395v16.56
	l-12.085-4.395c-3.896-1.415-8.196,0.594-9.612,4.485c-1.415,3.893,0.593,8.196,4.485,9.611l2.767,1.006l-2.767,1.006
	c-2.627,0.956-4.391,3.228-4.827,5.8h22.424h14.23h22.424c-0.437-2.572-2.2-4.844-4.827-5.8l-2.767-1.006l2.767-1.006
	c3.893-1.415,5.9-5.719,4.485-9.611c-1.417-3.893-5.717-5.902-9.612-4.485l-12.085,4.395v-16.56L275.585,482.321z"/>
<g>
	<path style="fill:#FFFFFF;" d="M319.834,63.023c2.942,6.306,0.213,13.801-6.092,16.741c-6.306,2.941-13.802,0.212-16.741-6.093
		c-2.942-6.306-0.215-13.801,6.091-16.741C309.4,53.988,316.895,56.716,319.834,63.023z"/>
	<circle style="fill:#FFFFFF;" cx="203.58" cy="117.23" r="12.598"/>
	<path style="fill:#FFFFFF;" d="M192.166,63.023c-2.942,6.306-0.213,13.801,6.092,16.741c6.307,2.941,13.802,0.212,16.742-6.093
		c2.94-6.306,0.214-13.801-6.092-16.741C202.6,53.988,195.105,56.716,192.166,63.023z"/>
	<path style="fill:#FFFFFF;" d="M296.998,111.907c-2.939,6.306-0.21,13.802,6.096,16.741c6.307,2.941,13.801,0.213,16.74-6.093
		c2.942-6.306,0.213-13.801-6.092-16.741C307.436,102.873,299.94,105.602,296.998,111.907z"/>
	<path style="fill:#FFFFFF;" d="M258.295,57.508h-4.59c-15.21,0-27.541,12.331-27.541,27.541v4.59
		c0,10.038,5.372,18.819,13.396,23.632c0.213,8.206,6.915,14.797,15.175,14.797h2.531c8.258,0,14.962-6.591,15.175-14.797
		c8.023-4.814,13.396-13.594,13.396-23.632v-4.59C285.836,69.838,273.505,57.508,258.295,57.508z"/>
</g>
<g>
	<path style="fill:#135693;" d="M245.5,97.494c-4.143,0-7.5-3.358-7.5-7.5V82.19c0-4.142,3.357-7.5,7.5-7.5s7.5,3.358,7.5,7.5v7.804
		C253,94.136,249.643,97.494,245.5,97.494z"/>
	<path style="fill:#135693;" d="M266.5,97.494c-4.143,0-7.5-3.358-7.5-7.5V82.19c0-4.142,3.357-7.5,7.5-7.5s7.5,3.358,7.5,7.5v7.804
		C274,94.136,270.643,97.494,266.5,97.494z"/>
</g>
<path style="fill:#FFC502;" d="M256,429.216c-13.018,0-23.608-10.59-23.608-23.608S242.982,382,256,382
	c13.018,0,23.608,10.591,23.608,23.608S269.018,429.216,256,429.216z"/>
<g>
</g>
<g>
</g>
<g>
</g>
<g>
</g>
<g>
</g>
<g>
</g>
<g>
</g>
<g>
</g>
<g>
</g>
<g>
</g>
<g>
</g>
<g>
</g>
<g>
</g>
<g>
</g>
<g>
</g>
</svg>
