<?xml version="1.0" encoding="iso-8859-1"?>
<!-- Generator: Adobe Illustrator 19.0.0, SVG Export Plug-In . SVG Version: 6.00 Build 0)  -->
<svg version="1.1" id="Capa_1" xmlns="http://www.w3.org/2000/svg" xmlns:xlink="http://www.w3.org/1999/xlink" x="0px" y="0px"
	 viewBox="0 0 512 512" style="enable-background:new 0 0 512 512;" xml:space="preserve">
<path style="fill:#703422;" d="M448.801,192.8h-32.134c-8.284,0-15,6.716-15,15c0,8.242,6.649,14.927,14.876,14.993l-0.548,66.407
	h-0.124c-8.284,0-15,6.716-15,15s6.716,15,15,15h32.93C483.648,319.2,512,290.849,512,256S483.648,192.8,448.801,192.8z"/>
<path style="fill:#8F5240;" d="M96.131,289.2h-0.124l-0.549-66.407c8.227-0.066,14.876-6.751,14.876-14.993c0-8.284-6.716-15-15-15
	H63.2C28.352,192.8,0,221.151,0,256s28.352,63.2,63.2,63.2h32.931c8.284,0,15-6.716,15-15S104.415,289.2,96.131,289.2z"/>
<path style="fill:#A46343;" d="M426.721,180.601L304.055,69.828c-2.176-1.965-4.879-3.249-7.776-3.693l-79.747-12.244
	c-4.81-0.739-9.679,0.902-13.061,4.4L84.549,181.308c-2.703,2.797-4.215,6.535-4.215,10.426v96.4
	c0,38.146,12.021,74.429,34.766,104.926c21.978,29.469,53.305,51.736,88.209,62.698c1.455,0.457,2.971,0.689,4.496,0.689
	l96.403-0.005c1.524,0,3.04-0.232,4.495-0.69c35.408-11.123,65.908-32.804,88.202-62.699c22.741-30.495,34.762-66.776,34.762-104.92
	v-96.4C431.667,187.49,429.869,183.445,426.721,180.601z"/>
<path style="fill:#8F5240;" d="M426.721,180.601L304.055,69.828c-2.176-1.965-4.879-3.249-7.776-3.693L256,59.951v396.494
	l48.208-0.003c1.524,0,3.04-0.232,4.495-0.69c35.408-11.123,65.908-32.804,88.202-62.699c22.741-30.495,34.762-66.776,34.762-104.92
	v-96.4C431.667,187.49,429.869,183.445,426.721,180.601z"/>
<path style="fill:#3B211A;" d="M256,16.066c-11.999,0-24,1.222-35.666,3.631c-12.963,2.674-25.649,6.845-37.705,12.395
	c-30.098,13.854-55.609,35.869-73.777,63.668c-18.656,28.546-28.518,61.733-28.518,95.974v12.851c0,4.501,2.021,8.765,5.507,11.613
	c3.485,2.85,8.065,3.983,12.478,3.087c51.804-10.516,95.955-44.157,120.313-90.248c48.416,59.149,120.656,93.764,198.036,93.764
	c8.284,0,15-6.716,15-15v-16.066C431.667,94.87,352.863,16.066,256,16.066z"/>
<path style="fill:#8F5240;" d="M256,367.4c-22.487,0-43.458-12.1-54.729-31.576c-4.148-7.171-1.699-16.347,5.471-20.496
	c7.172-4.148,16.347-1.699,20.496,5.471c5.926,10.24,16.946,16.602,28.762,16.602s22.838-6.364,28.768-16.608
	c4.148-7.169,13.325-9.618,20.496-5.469c7.17,4.149,9.619,13.326,5.469,20.496C299.459,355.299,278.486,367.4,256,367.4z"/>
<path style="fill:#3B211A;" d="M191.736,246.907c-3.951,0-7.82-1.6-10.61-4.39c-2.79-2.8-4.39-6.66-4.39-10.61s1.6-7.82,4.39-10.61
	s6.659-4.39,10.61-4.39c3.949,0,7.81,1.6,10.6,4.39c2.8,2.79,4.4,6.66,4.4,10.61s-1.601,7.811-4.4,10.61
	C199.546,245.308,195.686,246.907,191.736,246.907z"/>
<path style="fill:#0F0301;" d="M320.266,246.907c-3.949,0-7.81-1.6-10.609-4.39c-2.791-2.8-4.391-6.66-4.391-10.61
	s1.6-7.809,4.391-10.61c2.799-2.79,6.66-4.39,10.609-4.39c3.95,0,7.811,1.6,10.61,4.39c2.79,2.801,4.39,6.66,4.39,10.61
	s-1.6,7.811-4.39,10.61C328.076,245.308,324.216,246.907,320.266,246.907z"/>
<path style="fill:#3B211A;" d="M313.076,413.28c-3.852-2.825-8.816-3.647-13.373-2.218c-14.086,4.427-28.789,6.671-43.703,6.671
	c-14.913,0-29.617-2.244-43.703-6.671c-4.555-1.432-9.521-0.607-13.371,2.218c-3.851,2.826-6.125,7.316-6.125,12.093v48.2
	c0,6.552,4.252,12.346,10.504,14.311c16.999,5.341,34.729,8.05,52.695,8.05c17.968,0,35.697-2.709,52.697-8.05
	c6.25-1.965,10.503-7.759,10.503-14.311v-48.2C319.2,420.597,316.926,416.106,313.076,413.28z"/>
<path style="fill:#703422;" d="M305.264,315.323c-7.17-4.15-16.347-1.701-20.496,5.469c-5.93,10.243-16.951,16.606-28.766,16.607v30
	c22.484-0.001,43.456-12.102,54.73-31.58C314.882,328.649,312.434,319.474,305.264,315.323z"/>
<g>
	<path style="fill:#0F0301;" d="M256,16.066v150.066c44.895,36.245,101.259,56.667,160.667,56.667c8.284,0,15-6.716,15-15v-16.066
		C431.667,94.87,352.863,16.066,256,16.066z"/>
	<path style="fill:#0F0301;" d="M308.697,487.884c6.25-1.965,10.503-7.759,10.503-14.311v-48.2c0-4.776-2.274-9.267-6.124-12.093
		c-3.852-2.825-8.816-3.647-13.373-2.218c-14.086,4.427-28.789,6.671-43.703,6.671v78.2
		C273.969,495.934,291.697,493.225,308.697,487.884z"/>
</g>
<g>
</g>
<g>
</g>
<g>
</g>
<g>
</g>
<g>
</g>
<g>
</g>
<g>
</g>
<g>
</g>
<g>
</g>
<g>
</g>
<g>
</g>
<g>
</g>
<g>
</g>
<g>
</g>
<g>
</g>
</svg>
