<?xml version="1.0" encoding="iso-8859-1"?>
<!-- Generator: Adobe Illustrator 19.0.0, SVG Export Plug-In . SVG Version: 6.00 Build 0)  -->
<svg version="1.1" id="Capa_1" xmlns="http://www.w3.org/2000/svg" xmlns:xlink="http://www.w3.org/1999/xlink" x="0px" y="0px"
	 viewBox="0 0 512 512" style="enable-background:new 0 0 512 512;" xml:space="preserve">
<path style="fill:#312F56;" d="M404.715,358.245h-33.313c-1.895,0-3.636-1.039-4.534-2.707c-0.898-1.667-0.81-3.693,0.231-5.274
	c2.801-4.258,4.281-9.246,4.281-14.425c0-14.485-11.784-26.27-26.27-26.27h-5.837c-18.813,25.61-49.132,42.268-83.273,42.268
	s-64.461-16.657-83.273-42.268h-5.837c-14.485,0-26.27,11.784-26.27,26.27c0,5.179,1.48,10.167,4.281,14.425
	c1.041,1.581,1.13,3.607,0.231,5.274c-0.898,1.668-2.64,2.707-4.534,2.707h-33.313c-8.521,0-15.452,6.932-15.452,15.453v128
	c0,5.68,4.622,10.302,10.302,10.302h307.73c5.68,0,10.302-4.622,10.302-10.302v-128
	C420.168,365.177,413.236,358.245,404.715,358.245z"/>
<g style="opacity:0.15;">
	<path style="fill:#030005;" d="M121.341,501.698v-128c0-8.521,6.932-15.453,15.453-15.453h-29.508
		c-8.521,0-15.452,6.932-15.452,15.453v128c0,5.68,4.622,10.302,10.302,10.302h29.507C125.963,512,121.341,507.378,121.341,501.698z
		"/>
</g>
<path style="fill:#135693;" d="M256.001,386.863c-4.558,0-8.803-1.355-12.362-3.678V512h24.725V383.185
	C264.804,385.508,260.559,386.863,256.001,386.863z"/>
<path style="fill:#9EA7AF;" d="M256.001,351.837c-6.505,0-12.868-0.611-19.043-1.767c-2.922,3.939-4.651,8.816-4.651,14.099
	c0,13.087,10.608,23.694,23.694,23.694c13.086,0,23.694-10.607,23.694-23.694c0-5.282-1.729-10.159-4.651-14.099
	C268.869,351.226,262.506,351.837,256.001,351.837z"/>
<g>
	<path style="fill:#FFB98A;" d="M152.727,224.021V168h-22.14c-7.301,4.066-12.241,11.857-12.241,20.807v25.875
		c0,13.148,10.658,23.805,23.806,23.805h11.593C153.079,233.758,152.727,228.931,152.727,224.021z"/>
	<path style="fill:#FFB98A;" d="M381.415,168h-22.141v56.021c0,4.909-0.353,9.736-1.018,14.465h11.594
		c13.147,0,23.805-10.657,23.805-23.805v-25.875C393.655,179.857,388.715,172.066,381.415,168z"/>
</g>
<g>
	<path style="fill:#D19546;" d="M373.452,193.684h-14.178v15h14.178c4.143,0,7.5-3.357,7.5-7.5S377.595,193.684,373.452,193.684z"/>
	<path style="fill:#D19546;" d="M152.727,193.684h-14.178c-4.143,0-7.5,3.357-7.5,7.5s3.357,7.5,7.5,7.5h14.178V193.684z"/>
</g>
<path style="fill:#FFC7A9;" d="M151.727,168v56.021c0,57.589,46.686,104.274,104.274,104.274s104.273-46.685,104.273-104.274V168
	H151.727z"/>
<path style="opacity:0.15;fill:#440075;enable-background:new    ;" d="M153.118,233.621c5.42,33.05,26.367,60.874,55.117,75.717
	c-0.422-2.498-0.653-5.061-0.653-7.678c0-2.653,0.232-5.251,0.665-7.781c-16.699-18.486-26.871-42.982-26.871-69.857V168h-29.649
	v56.021c0,1.288,0.031,2.568,0.078,3.846C151.968,229.877,152.419,231.809,153.118,233.621z"/>
<path style="fill:#D2957D;" d="M303.767,309.338c0.422-2.498,0.652-5.061,0.652-7.678c0-19.361-12.009-35.908-28.979-42.628
	c-0.836,6.171-7.742,10.679-16.716,10.679h-5.153c-7.278,0-13.474-4.661-15.802-11.148c-17.608,6.399-30.186,23.279-30.186,43.098
	c0,2.617,0.231,5.18,0.653,7.678c-28.75-14.843-49.697-42.667-55.117-75.717c-0.885-2.293-1.392-4.77-1.392-7.365v22.307
	c0,57.59,46.686,104.274,104.274,104.274s104.273-46.685,104.273-104.274v-22.307c0,2.596-0.506,5.072-1.393,7.365
	C353.464,266.672,332.517,294.495,303.767,309.338z"/>
<path style="fill:#B2762F;" d="M269.025,244.816c-4.143,0-7.5,3.357-7.5,7.5v3.033c-0.664,0.19-1.605,0.361-2.802,0.361h-5.153
	c-1.519,0-2.802-1.283-2.802-2.802V211.46c-4.365,0.64-8.516,2.074-11.893,4.334l-3.107,2.078v35.036
	c0,9.816,7.985,17.802,17.802,17.802h5.153c10.148,0,17.802-5.566,17.802-12.947v-5.447
	C276.525,248.174,273.168,244.816,269.025,244.816z"/>
<g>
	<path style="fill:#312F56;" d="M151.727,168v58.256c0,11.332,9.271,20.604,20.604,20.604h2.286
		c11.332,0,28.311-5.155,37.729-11.457l26.531-17.748c9.419-6.303,24.831-6.303,34.25,0l26.53,17.748
		c9.418,6.302,26.396,11.457,37.728,11.457h2.287c11.332,0,20.604-9.271,20.604-20.604V168H151.727z"/>
	<path style="fill:#312F56;" d="M279.623,15c0.007-0.189,0.028-0.375,0.028-0.565c0-7.972-6.46-14.435-14.433-14.435h-18.434
		c-7.972,0-14.432,6.463-14.432,14.435c0,0.19,0.021,0.376,0.028,0.565H279.623z"/>
	<path style="fill:#312F56;" d="M373.979,130v-21.168c0-48.514-39.33-87.844-87.844-87.844h-60.268
		c-48.515,0-87.844,39.33-87.844,87.844V130H373.979z"/>
</g>
<path style="opacity:0.15;fill:#030005;enable-background:new    ;" d="M168.392,130v-21.168c0-48.514,39.33-87.844,87.844-87.844
	h-30.368c-48.515,0-87.844,39.33-87.844,87.844V130H168.392z"/>
<g>
	<path style="fill:#135693;" d="M381.479,130v-21.168c0-52.572-42.771-95.344-95.344-95.344h-60.268
		c-52.572,0-95.344,42.771-95.344,95.344V130H381.479z M366.479,108.832v14.866h-20.257v-14.866c0-24.99-6.89-48.578-19.399-66.42
		c-1.186-1.691-2.415-3.303-3.673-4.854C348.868,50.969,366.479,77.875,366.479,108.832z M331.222,108.832v14.866h-34.441v-14.866
		c0-24.133-2.678-46.915-7.539-64.15c-1.722-6.102-3.661-11.31-5.809-15.63C310.299,33.707,331.222,67.699,331.222,108.832z
		 M230.222,108.832c0-21.904,2.314-42.645,6.516-58.402c4.612-17.296,9.705-21.71,10.764-21.941h16.96
		c1.136,0.264,6.208,4.707,10.804,21.943c4.201,15.758,6.516,36.498,6.516,58.4v14.866h-51.559L230.222,108.832L230.222,108.832z
		 M228.569,29.052c-2.148,4.319-4.088,9.527-5.809,15.63c-4.861,17.234-7.539,40.018-7.539,64.15v14.866H180.78v-14.866
		C180.78,67.699,201.703,33.707,228.569,29.052z M145.524,108.832c0-30.957,17.61-57.863,43.329-71.273
		c-1.258,1.551-2.487,3.162-3.673,4.854c-12.51,17.842-19.399,41.43-19.399,66.42v14.866h-20.257L145.524,108.832L145.524,108.832z"
		/>
	<path style="fill:#135693;" d="M400.065,163.947c0,2.833-2.318,5.151-5.151,5.151H117.089c-2.833,0-5.151-2.318-5.151-5.151
		v-30.556c0-2.833,2.318-5.151,5.151-5.151h277.824c2.833,0,5.151,2.318,5.151,5.151v30.556H400.065z"/>
</g>
<g style="opacity:0.15;">
	<path style="fill:#030005;" d="M141.975,163.947v-30.556c0-2.833,2.318-5.151,5.151-5.151h-30.037
		c-2.833,0-5.151,2.318-5.151,5.151v30.556c0,2.833,2.318,5.151,5.151,5.151h30.037C144.293,169.099,141.975,166.78,141.975,163.947
		z"/>
</g>
<g>
	<path style="fill:#9EA7AF;" d="M172.409,198.412c-3.322-4.59-1.405-8.344,4.261-8.344h54.977c5.666,0,6.393,2.492,1.615,5.537
		l-34.339,21.892c-4.778,3.045-11.406,1.782-14.729-2.807L172.409,198.412z"/>
	<path style="fill:#9EA7AF;" d="M340.993,198.412c3.322-4.59,1.405-8.344-4.261-8.344h-54.977c-5.666,0-6.393,2.492-1.615,5.537
		l34.339,21.892c4.778,3.045,11.406,1.782,14.729-2.807L340.993,198.412z"/>
</g>
<path style="fill:#B2762F;" d="M272.483,300.586h-32.965c-4.143,0-7.5-3.357-7.5-7.5s3.357-7.5,7.5-7.5h32.965
	c4.143,0,7.5,3.357,7.5,7.5C279.983,297.228,276.626,300.586,272.483,300.586z"/>
<g>
	<path style="fill:#135693;" d="M386.834,464.097c0,2.833-2.318,5.15-5.151,5.15H303.39c-2.833,0-5.151-2.317-5.151-5.15v-11.332
		c0-2.833,2.318-5.151,5.151-5.151h78.293c2.833,0,5.151,2.318,5.151,5.151V464.097z"/>
	<path style="fill:#135693;" d="M216.855,464.097c0,2.833-2.318,5.15-5.151,5.15H133.41c-2.833,0-5.15-2.317-5.15-5.15v-11.332
		c0-2.833,2.317-5.151,5.15-5.151h78.294c2.833,0,5.151,2.318,5.151,5.151V464.097z"/>
</g>
<g>
</g>
<g>
</g>
<g>
</g>
<g>
</g>
<g>
</g>
<g>
</g>
<g>
</g>
<g>
</g>
<g>
</g>
<g>
</g>
<g>
</g>
<g>
</g>
<g>
</g>
<g>
</g>
<g>
</g>
</svg>
