<?xml version="1.0" encoding="iso-8859-1"?>
<!-- Generator: Adobe Illustrator 19.0.0, SVG Export Plug-In . SVG Version: 6.00 Build 0)  -->
<svg version="1.1" id="Capa_1" xmlns="http://www.w3.org/2000/svg" xmlns:xlink="http://www.w3.org/1999/xlink" x="0px" y="0px"
	 viewBox="0 0 512 512" style="enable-background:new 0 0 512 512;" xml:space="preserve">
<path style="fill:#F58964;" d="M400.501,36.642C376.895,13.014,345.422,0,311.878,0H200.123c-33.544,0-65.018,13.014-88.624,36.642
	c-23.596,23.62-36.59,55.105-36.59,88.653v218.12c0,38.992,19.242,75.134,51.467,96.678l88.859,59.47
	C227.637,507.854,241.85,512,256.067,512c14.219,0,28.441-4.148,40.853-12.445l88.723-59.458
	c32.216-21.538,51.45-57.68,51.45-96.682v-218.12C437.092,91.747,424.097,60.262,400.501,36.642z"/>
<path style="fill:#F9AA62;" d="M256.001,0h-55.877c-33.544,0-65.018,13.014-88.624,36.642c-23.596,23.62-36.59,55.105-36.59,88.653
	v218.12c0,38.992,19.242,75.134,51.467,96.678l88.859,59.47C227.637,507.854,241.85,512,256.067,512L256.001,0z"/>
<path style="fill:#DEBA84;" d="M387.937,161.356c-21.187-9.962-34.877-31.518-34.877-54.917c0-3.165,1.033-10.454,1.766-14.616
	c1.065-6.034-1.646-12.11-6.848-15.35c-29.082-18.104-51.567-6.462-71.405,3.809c-24.752,12.819-48.133,24.924-96.978-3.982
	c-5.043-2.986-11.362-2.76-16.183,0.575c-4.819,3.335-7.257,9.173-6.24,14.946c0.733,4.165,1.767,11.455,1.767,14.619
	c0,23.397-13.689,44.952-34.873,54.914c-5.263,2.475-8.621,7.766-8.621,13.581l-0.002,149.784c0,44.846,36.485,81.331,81.331,81.331
	c11.435,0,22.783-2.427,33.168-7.059c17.028,3.898,35.088,3.898,52.117,0c10.384,4.631,21.734,7.059,33.168,7.059
	c44.846,0,81.331-36.485,81.331-81.331l0.003-149.781C396.559,169.122,393.201,163.831,387.937,161.356z"/>
<path style="fill:#FFE8A6;" d="M256.004,89.822c-18.892,6.833-40.935,7.472-76.408-13.522c-5.043-2.986-11.362-2.76-16.183,0.575
	c-4.819,3.335-7.257,9.173-6.24,14.946c0.733,4.165,1.767,11.455,1.767,14.619c0,23.397-13.689,44.952-34.873,54.914
	c-5.263,2.475-8.621,7.766-8.621,13.581l-0.002,149.784c0,44.846,36.485,81.331,81.331,81.331c11.435,0,22.783-2.427,33.168-7.059
	c8.535,1.954,17.33,2.923,26.124,2.915L256.004,89.822z"/>
<circle style="fill:#CFA57B;" cx="197.32" cy="200.361" r="16.921"/>
<circle style="fill:#A68563;" cx="315.479" cy="200.361" r="16.921"/>
<path style="fill:#CFA57B;" d="M256.186,358.604c-29.564,0-55.491-19.941-63.05-48.491c-2.05-7.745,2.566-15.687,10.312-17.738
	c7.744-2.05,15.687,2.565,17.738,10.312c4.192,15.84,18.585,26.903,35,26.903c16.557,0,30.982-11.183,35.077-27.195
	c1.985-7.763,9.888-12.445,17.65-10.46c7.763,1.985,12.445,9.887,10.46,17.65C311.99,338.446,286.007,358.604,256.186,358.604z"/>
<path style="fill:#A68563;" d="M308.911,291.934c-7.762-1.985-15.664,2.697-17.65,10.46c-4.095,16.012-18.519,27.195-35.077,27.195
	c-0.028,0-0.056-0.001-0.083-0.002v29.015c0.028,0,0.056,0.002,0.083,0.002c29.822,0,55.804-20.157,63.186-49.02
	C321.356,301.821,316.674,293.919,308.911,291.934z"/>
<path style="fill:#DB7A5A;" d="M340.684,259.401h-0.425c-17.315,0-31.952,13.576-32.426,30.885
	c-0.492,17.958,13.918,32.67,31.765,32.67h1.086h26.563c40.07,0,77.594-18.26,102.321-48.991c4.714-5.859,0.595-14.564-6.924-14.564
	L340.684,259.401z"/>
<path style="fill:#F58964;" d="M171.742,259.401h-0.425H49.357c-7.52,0-11.639,8.705-6.924,14.564
	c24.726,30.73,62.25,48.991,102.321,48.991h26.563h1.086c17.847,0,32.258-14.712,31.765-32.67
	C203.694,272.977,189.057,259.401,171.742,259.401z"/>
<g>
</g>
<g>
</g>
<g>
</g>
<g>
</g>
<g>
</g>
<g>
</g>
<g>
</g>
<g>
</g>
<g>
</g>
<g>
</g>
<g>
</g>
<g>
</g>
<g>
</g>
<g>
</g>
<g>
</g>
</svg>
