<?xml version="1.0" encoding="iso-8859-1"?>
<!-- Generator: Adobe Illustrator 19.0.0, SVG Export Plug-In . SVG Version: 6.00 Build 0)  -->
<svg version="1.1" id="Capa_1" xmlns="http://www.w3.org/2000/svg" xmlns:xlink="http://www.w3.org/1999/xlink" x="0px" y="0px"
	 viewBox="0 0 512 512" style="enable-background:new 0 0 512 512;" xml:space="preserve">
<path style="fill:#FCC892;" d="M75,447.732c-41.356,0-75-33.645-75-74.999c0-16.6,5.314-32.332,15.371-45.496
	c5.027-6.584,14.442-7.845,21.025-2.814c6.584,5.028,7.844,14.442,2.814,21.025c-6.025,7.889-9.21,17.324-9.21,27.285
	c0,24.813,20.187,44.999,45,44.999c11.654,0,22.703-4.435,31.115-12.49c5.984-5.728,15.479-5.523,21.208,0.46
	s5.524,15.479-0.46,21.208C112.842,440.338,94.422,447.732,75,447.732z"/>
<path style="fill:#FCA953;" d="M437,447.732c-19.425,0-37.846-7.396-51.869-20.827c-5.983-5.729-6.188-15.225-0.459-21.208
	c5.73-5.983,15.227-6.189,21.209-0.458c8.412,8.057,19.464,12.493,31.119,12.493c24.813,0,45-20.186,45-44.999
	c0-9.961-3.185-19.396-9.21-27.284c-5.029-6.584-3.769-15.997,2.814-21.025c6.584-5.03,15.998-3.768,21.025,2.815
	c10.056,13.164,15.37,28.895,15.37,45.495C512,414.088,478.355,447.732,437,447.732z"/>
<path style="fill:#FDB8A4;" d="M448.8,241h-32.133c-8.284,0-15,6.716-15,15c0,8.242,6.649,14.927,14.876,14.994l-0.548,66.404
	h-0.124c-8.284,0-15,6.716-15,15s6.716,15,15,15H448.8c34.849,0,63.2-28.35,63.2-63.198S483.648,241,448.8,241z"/>
<path style="fill:#FDCDBF;" d="M96.131,337.398h-0.124l-0.55-66.404c8.227-0.068,14.876-6.752,14.876-14.994c0-8.284-6.716-15-15-15
	H63.2C28.352,241,0,269.352,0,304.2s28.352,63.198,63.2,63.198h32.931c8.284,0,15-6.716,15-15S104.415,337.398,96.131,337.398z"/>
<path style="fill:#FEDFD5;" d="M416.667,160.666c-8.284,0-15,6.716-15,15H110.333c0-8.284-6.716-15-15-15s-15,6.716-15,15v160.668
	C80.333,433.196,159.137,512,256,512s175.667-78.804,175.667-175.666V175.666C431.667,167.382,424.951,160.666,416.667,160.666z"/>
<path style="fill:#FDCDBF;" d="M416.667,160.666c-8.284,0-15,6.716-15,15H256V512c96.863,0,175.667-78.804,175.667-175.666V175.666
	C431.667,167.382,424.951,160.666,416.667,160.666z"/>
<g>
	<path style="fill:#FD413C;" d="M497,160.666h-65.981C423.383,70.799,347.81,0,256,0C159.137,0,80.333,78.804,80.333,175.666
		c0,8.284,6.716,15,15,15h80.334h241H497c8.284,0,15-6.716,15-15S505.284,160.666,497,160.666z"/>
	<path style="fill:#FD413C;" d="M256,415.6c-22.486,0-43.456-12.099-54.728-31.573c-4.149-7.17-1.701-16.347,5.469-20.496
		c7.171-4.15,16.347-1.7,20.496,5.469c5.927,10.238,16.948,16.6,28.763,16.6s22.838-6.364,28.768-16.609
		c4.148-7.169,13.325-9.619,20.496-5.469c7.17,4.149,9.619,13.325,5.469,20.496C299.459,403.498,278.486,415.6,256,415.6z"/>
</g>
<path style="fill:#3B211A;" d="M191.736,295.107c-3.951,0-7.82-1.601-10.61-4.4c-2.79-2.79-4.39-6.649-4.39-10.6
	s1.6-7.81,4.39-10.61c2.79-2.79,6.659-4.39,10.61-4.39c3.949,0,7.81,1.6,10.6,4.39c2.8,2.79,4.4,6.66,4.4,10.61
	s-1.601,7.81-4.4,10.6C199.546,293.507,195.676,295.107,191.736,295.107z"/>
<path style="fill:#0F0301;" d="M320.266,295.107c-3.949,0-7.811-1.601-10.609-4.4c-2.791-2.79-4.391-6.649-4.391-10.6
	s1.6-7.81,4.391-10.61c2.789-2.79,6.66-4.39,10.609-4.39c3.95,0,7.811,1.6,10.61,4.39c2.79,2.79,4.39,6.66,4.39,10.61
	s-1.6,7.81-4.39,10.6C328.076,293.507,324.216,295.107,320.266,295.107z"/>
<g>
	<path style="fill:#DA0806;" d="M497,160.666h-65.981C423.383,70.799,347.81,0,256,0v190.666h160.667H497c8.284,0,15-6.716,15-15
		S505.284,160.666,497,160.666z"/>
	<path style="fill:#DA0806;" d="M305.264,363.522c-7.171-4.15-16.348-1.701-20.497,5.469c-5.929,10.243-16.95,16.607-28.765,16.607
		v30c22.484-0.001,43.455-12.102,54.729-31.58C314.881,376.848,312.434,367.672,305.264,363.522z"/>
</g>
<g>
</g>
<g>
</g>
<g>
</g>
<g>
</g>
<g>
</g>
<g>
</g>
<g>
</g>
<g>
</g>
<g>
</g>
<g>
</g>
<g>
</g>
<g>
</g>
<g>
</g>
<g>
</g>
<g>
</g>
</svg>
