<?xml version="1.0" encoding="iso-8859-1"?>
<!-- Generator: Adobe Illustrator 19.0.0, SVG Export Plug-In . SVG Version: 6.00 Build 0)  -->
<svg version="1.1" id="Capa_1" xmlns="http://www.w3.org/2000/svg" xmlns:xlink="http://www.w3.org/1999/xlink" x="0px" y="0px"
	 viewBox="0 0 512 512" style="enable-background:new 0 0 512 512;" xml:space="preserve">
<path style="fill:#E37C5D;" d="M448.801,208.867h-32.134c-8.284,0-15,6.716-15,15c0,8.242,6.649,14.927,14.876,14.994l-0.548,66.406
	h-0.124c-8.284,0-15,6.716-15,15s6.716,15,15,15h32.93c34.848,0,63.199-28.352,63.199-63.201
	C512,237.218,483.648,208.867,448.801,208.867z"/>
<path style="fill:#ED9A81;" d="M96.131,305.268h-0.124l-0.549-66.406c8.227-0.068,14.876-6.752,14.876-14.994
	c0-8.284-6.716-15-15-15H63.2c-34.849,0-63.2,28.351-63.2,63.199c0,34.85,28.352,63.201,63.2,63.201h32.931c8.284,0,15-6.716,15-15
	C111.131,311.983,104.415,305.268,96.131,305.268z"/>
<path style="fill:#F7AF99;" d="M256,32.133c-96.863,0-175.666,78.805-175.666,175.668v96.4c0,96.862,78.803,175.666,175.666,175.666
	s175.667-78.804,175.667-175.666v-96.4C431.667,110.938,352.863,32.133,256,32.133z"/>
<g>
	<path style="fill:#ED9A81;" d="M256.002,32.133v447.734c96.863-0.002,175.665-78.805,175.665-175.666v-96.4
		C431.667,110.938,352.865,32.135,256.002,32.133z"/>
	<path style="fill:#ED9A81;" d="M256,383.467c-22.488,0-43.459-12.099-54.729-31.575c-4.148-7.171-1.699-16.347,5.471-20.496
		c7.172-4.148,16.347-1.699,20.496,5.471c5.925,10.239,16.945,16.601,28.762,16.601c11.815,0,22.838-6.363,28.768-16.607
		c4.15-7.17,13.326-9.619,20.496-5.469s9.619,13.326,5.469,20.496C299.458,371.366,278.486,383.467,256,383.467z"/>
</g>
<path style="fill:#3B211A;" d="M191.736,262.978c-3.951,0-7.82-1.61-10.61-4.4c-2.79-2.79-4.39-6.649-4.39-10.6
	c0-3.96,1.6-7.82,4.39-10.61s6.659-4.39,10.61-4.39c3.949,0,7.81,1.6,10.6,4.39c2.8,2.79,4.4,6.66,4.4,10.61s-1.601,7.81-4.4,10.6
	C199.556,261.367,195.686,262.978,191.736,262.978z"/>
<path style="fill:#0F0301;" d="M320.266,262.978c-3.949,0-7.82-1.61-10.609-4.4c-2.791-2.79-4.391-6.649-4.391-10.6
	c0-3.95,1.6-7.82,4.391-10.61c2.799-2.79,6.66-4.39,10.609-4.39c3.95,0,7.811,1.6,10.61,4.39c2.79,2.79,4.39,6.65,4.39,10.61
	c0,3.95-1.6,7.81-4.39,10.6C328.086,261.367,324.216,262.978,320.266,262.978z"/>
<path style="fill:#E37C5D;" d="M305.264,331.391c-7.17-4.15-16.346-1.701-20.496,5.469c-5.929,10.243-16.951,16.606-28.766,16.607
	v30c22.485-0.001,43.457-12.102,54.73-31.58C314.883,344.717,312.434,335.541,305.264,331.391z"/>
<g>
</g>
<g>
</g>
<g>
</g>
<g>
</g>
<g>
</g>
<g>
</g>
<g>
</g>
<g>
</g>
<g>
</g>
<g>
</g>
<g>
</g>
<g>
</g>
<g>
</g>
<g>
</g>
<g>
</g>
</svg>
