<?xml version="1.0" encoding="iso-8859-1"?>
<!-- Generator: Adobe Illustrator 19.0.0, SVG Export Plug-In . SVG Version: 6.00 Build 0)  -->
<svg version="1.1" id="Capa_1" xmlns="http://www.w3.org/2000/svg" xmlns:xlink="http://www.w3.org/1999/xlink" x="0px" y="0px"
	 viewBox="0 0 512.001 512.001" style="enable-background:new 0 0 512.001 512.001;" xml:space="preserve">
<path style="fill:#C0272D;" d="M221.82,51.278h68.362c8.377,0,16.495,1.109,24.219,3.178V42.752C314.401,19.141,295.26,0,271.648,0
	h-31.294c-23.612,0-42.753,19.141-42.753,42.752v11.704C205.326,52.388,213.443,51.278,221.82,51.278z"/>
<path style="opacity:0.15;fill:#440075;enable-background:new    ;" d="M217.884,51.367v-8.615C217.884,19.141,237.025,0,260.637,0
	h-20.283c-23.612,0-42.753,19.141-42.753,42.752v11.704C204.109,52.713,210.897,51.656,217.884,51.367z"/>
<path style="fill:#960B15;" d="M272.625,51.278c4.92-5.864,7.965-14.368,7.965-23.979c0-4.143-3.358-7.5-7.5-7.5s-7.5,3.357-7.5,7.5
	c0,9.889-5.063,17.278-9.589,17.278c-4.526,0-9.589-7.39-9.589-17.278c0-4.143-3.358-7.5-7.5-7.5s-7.5,3.357-7.5,7.5
	c0,9.61,3.045,18.114,7.965,23.979H272.625z"/>
<path style="fill:#EF5050;" d="M290.182,50.256H221.82c-51.581,0-93.395,41.814-93.395,93.395v53.822
	c3.325-1.701,7.088-2.668,11.08-2.668h13.223v-22.249c0-2.289,1.862-4.151,4.151-4.151h82.125c8.454,0,16.591-3.1,22.914-8.727
	c0.76-0.677,1.741-1.05,2.76-1.05c0.835,0,1.642,0.249,2.334,0.719c5.736,3.904,12.438,5.968,19.379,5.968h68.732
	c2.289,0,4.151,1.862,4.151,4.15v25.34h13.224c3.991,0,7.754,0.966,11.079,2.668V143.65
	C383.578,92.07,341.763,50.256,290.182,50.256z"/>
<path style="opacity:0.15;fill:#440075;enable-background:new    ;" d="M221.82,50.256c-51.581,0-93.395,41.814-93.395,93.395
	v53.822c3.325-1.701,7.088-2.668,11.08-2.668h13.223v-22.249c0-2.289,1.862-4.151,4.151-4.151h1.588V143.65
	c0-51.58,41.814-93.395,93.396-93.395H221.82V50.256z"/>
<g>
	<path style="fill:#135693;" d="M206.927,321.053c-22.083-11.978-38.624-31.239-47.317-53.857h-20.105
		c-7.836,0-14.803-3.705-19.259-9.453c-17.983,5.249-31.124,21.847-31.124,41.525v6.182c0,23.895,19.37,43.266,43.265,43.266h16.084
		c1.814-14.514,14.221-25.783,29.218-25.783h28.762c0.458,0,0.857-0.311,0.969-0.754
		C207.532,321.734,207.329,321.271,206.927,321.053z"/>
	<path style="fill:#135693;" d="M391.757,257.742c-4.455,5.748-11.422,9.453-19.258,9.453h-20.106
		c-8.693,22.618-25.234,41.88-47.317,53.857c-0.402,0.218-0.605,0.682-0.493,1.125s0.512,0.754,0.969,0.754h28.762
		c14.997,0,27.404,11.27,29.218,25.783h16.084c23.895,0,43.265-19.371,43.265-43.266v-6.182
		C422.881,279.589,409.74,262.991,391.757,257.742z"/>
</g>
<path style="opacity:0.15;fill:#440075;enable-background:new    ;" d="M148.88,346.25c-16.813-5.935-28.863-21.957-28.863-40.801
	v-6.182c0-12.911,5.662-24.492,14.631-32.416c-5.764-1.225-10.745-4.58-14.084-9.2c-18.146,5.145-31.444,21.821-31.444,41.616v6.182
	c0,23.895,19.37,43.266,43.265,43.266h16.084C148.574,347.883,148.708,347.06,148.88,346.25z"/>
<g>
	<path style="fill:#FFC502;" d="M177.688,321.932c-16.82,0-30.455,13.635-30.455,30.455v20.753
		c5.21-4.825,12.135-7.818,19.748-7.958v-2.043c0-2.289,1.862-4.152,4.151-4.154l31.512,0.004c2.289,0,4.151,1.862,4.151,4.15v2.03
		h22.149V329.87c-7.116-1.935-13.932-4.606-20.353-7.938H177.688z"/>
	<path style="fill:#FFC502;" d="M334.314,321.932h-30.902c-6.421,3.332-13.237,6.004-20.354,7.938v35.299h22.149v-2.03
		c0-2.289,1.862-4.152,4.151-4.154l31.512,0.004c2.289,0,4.151,1.862,4.151,4.15v2.043c7.612,0.14,14.537,3.133,19.748,7.958
		v-20.753C364.769,335.566,351.134,321.932,334.314,321.932z"/>
</g>
<path style="fill:#98E8F9;" d="M345.022,364.183v41.193c0,2.289-1.862,4.151-4.151,4.151h-31.512c-2.289,0-4.151-1.862-4.151-4.151
	v-41.207h-22.149v6.743c0,10.81-8.794,19.603-19.603,19.603h-14.907c-10.81,0-19.604-8.794-19.604-19.603v-6.743h-22.149v41.207
	c0,2.289-1.862,4.151-4.151,4.151h-31.514c-2.289,0-4.151-1.862-4.151-4.151v-41.193c-16.786,0.297-30.354,14.036-30.354,30.892
	V506.85c0,2.845,2.306,5.15,5.151,5.15h228.446c2.845,0,5.151-2.306,5.151-5.15V395.074
	C375.375,378.219,361.807,364.479,345.022,364.183z"/>
<g>
	<path style="fill:#6BC1DD;" d="M197.736,468.499h116.529c-4.892-9.908-8.154-20.763-9.438-32.218h-97.654
		C205.891,447.736,202.628,458.591,197.736,468.499z"/>
	<path style="fill:#6BC1DD;" d="M165.36,436.281h-28.733v32.218h19.289C160.813,458.593,164.075,447.737,165.36,436.281z"/>
</g>
<g>
	<path style="fill:#FFB98A;" d="M256.001,333.477c-9.721,0-19.132-1.352-28.057-3.875v41.311c0,11.332,9.271,20.603,20.604,20.603
		h14.907c11.332,0,20.603-9.271,20.603-20.603v-41.311C275.133,332.125,265.722,333.477,256.001,333.477z"/>
	<path style="fill:#FFB98A;" d="M152.727,230.202v-37.035h-13.223c-13.453,0-24.359,10.906-24.359,24.359v26.477
		c0,13.453,10.906,24.359,24.359,24.359h20.533C155.324,256.551,152.727,243.675,152.727,230.202z"/>
	<path style="fill:#FFB98A;" d="M372.499,193.167h-13.224v37.035c0,13.473-2.597,26.349-7.31,38.16h20.534
		c13.453,0,24.358-10.906,24.358-24.359v-26.477C396.857,204.073,385.952,193.167,372.499,193.167z"/>
</g>
<g>
	<path style="fill:#D19546;" d="M152.727,230.202v-7.499H138.55c-4.142,0-7.5,3.357-7.5,7.5s3.358,7.5,7.5,7.5h14.451
		C152.822,235.226,152.727,232.725,152.727,230.202z"/>
	<path style="fill:#D19546;" d="M373.452,222.703h-14.177v7.499c0,2.522-0.096,5.023-0.274,7.501h14.451c4.142,0,7.5-3.357,7.5-7.5
		C380.952,226.061,377.594,222.703,373.452,222.703z"/>
</g>
<path style="fill:#FFC7A9;" d="M256.001,334.477c-57.497,0-104.274-46.777-104.274-104.274v-57.646c0-2.846,2.306-5.151,5.151-5.151
	h82.125c8.207,0,16.109-3.009,22.249-8.474c0.97-0.863,2.195-1.303,3.425-1.303c1.007,0,2.018,0.295,2.897,0.892
	c5.57,3.791,12.077,5.795,18.817,5.795h68.732c2.845,0,5.151,2.305,5.151,5.15l0.001,60.737
	C360.275,287.699,313.498,334.477,256.001,334.477z"/>
<g style="opacity:0.15;">
	<path style="fill:#440075;" d="M181.377,230.202v-57.646c0-2.846,2.306-5.151,5.151-5.151h-29.649
		c-2.845,0-5.151,2.306-5.151,5.151v57.646c0,57.497,46.777,104.274,104.274,104.274c5.033,0,9.98-0.366,14.825-1.059
		C220.326,326.198,181.377,282.666,181.377,230.202z"/>
</g>
<path style="fill:#D2957D;" d="M265.147,271.263h-8.999c-9.097,0-16.499-7.986-16.499-17.802v-25.563c0-4.143,3.358-7.5,7.5-7.5
	s7.5,3.357,7.5,7.5v25.563c0,1.743,1.041,2.802,1.499,2.802h8.999c4.142,0,7.5,3.357,7.5,7.5S269.289,271.263,265.147,271.263z"/>
<g>
	<path style="fill:#EF5050;" d="M226.805,204.32c-1.919,0-3.839-0.732-5.303-2.196c-4.547-4.548-10.587-7.052-17.006-7.052
		c-6.419,0-12.458,2.504-17.005,7.051c-2.93,2.93-7.677,2.929-10.607,0.001c-2.929-2.929-2.929-7.678-0.001-10.606
		c7.38-7.381,17.187-11.445,27.612-11.445c10.425,0,20.232,4.064,27.612,11.444c2.929,2.93,2.929,7.678,0,10.607
		C230.644,203.588,228.725,204.32,226.805,204.32z"/>
	<path style="fill:#EF5050;" d="M329.815,204.32c-1.919,0-3.839-0.732-5.303-2.196c-4.547-4.548-10.587-7.052-17.007-7.052
		c-6.419,0-12.459,2.504-17.005,7.051c-2.93,2.93-7.677,2.929-10.607,0.001c-2.929-2.929-2.929-7.678-0.001-10.606
		c7.38-7.381,17.186-11.445,27.613-11.445s20.233,4.064,27.613,11.444c2.929,2.93,2.929,7.678,0,10.607
		C333.653,203.588,331.734,204.32,329.815,204.32z"/>
</g>
<g>
	<path style="fill:#B2762F;" d="M204.498,245.986c-11.792,0-21.384-9.617-21.384-21.438s9.593-21.438,21.384-21.438
		c11.79,0,21.382,9.617,21.382,21.438S216.288,245.986,204.498,245.986z"/>
	<path style="fill:#B2762F;" d="M307.505,245.986c-11.791,0-21.383-9.617-21.383-21.438s9.592-21.438,21.383-21.438
		s21.383,9.617,21.383,21.438S319.296,245.986,307.505,245.986z"/>
</g>
<path style="fill:#D2957D;" d="M256.002,306.732c-12.9,0-25.801-4.91-35.624-14.73c-2.929-2.929-2.93-7.678-0.001-10.607
	c2.929-2.93,7.678-2.929,10.606-0.001c13.796,13.793,36.241,13.792,50.032,0.001c2.93-2.93,7.678-2.929,10.607-0.001
	c2.929,2.929,2.929,7.678,0,10.607C281.804,301.822,268.903,306.732,256.002,306.732z"/>
<g>
	<path style="fill:#FFC502;" d="M346.022,425.278v-21.43c0,2.833-2.318,5.151-5.151,5.151h-31.512c-2.833,0-5.151-2.318-5.151-5.151
		v21.43c0,37.695,21.336,70.403,52.586,86.722h13.431c2.845,0,5.151-2.306,5.151-5.15v-11.756
		C357.269,477.35,346.022,452.634,346.022,425.278z"/>
	<path style="fill:#FFC502;" d="M202.644,409h-31.513c-2.833,0-5.151-2.318-5.151-5.151v21.43c0,27.355-11.247,52.071-29.354,69.816
		v11.756c0,2.845,2.306,5.15,5.151,5.15h13.431c31.25-16.318,52.585-49.026,52.585-86.722v-21.43
		C207.795,406.682,205.477,409,202.644,409z"/>
</g>
<g>
	<path style="fill:#C5CCD3;" d="M171.131,357.984c-2.833,0.002-5.151,2.321-5.151,5.154v42.237c0,2.833,2.318,5.151,5.151,5.151
		h31.512c2.833,0,5.151-2.318,5.151-5.151v-42.237c0-2.833-2.318-5.15-5.151-5.15L171.131,357.984z"/>
	<path style="fill:#C5CCD3;" d="M309.358,357.984c-2.833,0.002-5.151,2.321-5.151,5.154v42.237c0,2.833,2.318,5.151,5.151,5.151
		h31.512c2.833,0,5.151-2.318,5.151-5.151v-42.237c0-2.833-2.318-5.15-5.151-5.15L309.358,357.984z"/>
</g>
<path style="fill:#6BC1DD;" d="M346.642,436.281c1.285,11.456,4.548,22.311,9.444,32.218h19.29v-32.218H346.642z"/>
<g>
</g>
<g>
</g>
<g>
</g>
<g>
</g>
<g>
</g>
<g>
</g>
<g>
</g>
<g>
</g>
<g>
</g>
<g>
</g>
<g>
</g>
<g>
</g>
<g>
</g>
<g>
</g>
<g>
</g>
</svg>
