<?xml version="1.0" encoding="iso-8859-1"?>
<!-- Generator: Adobe Illustrator 19.0.0, SVG Export Plug-In . SVG Version: 6.00 Build 0)  -->
<svg version="1.1" id="Capa_1" xmlns="http://www.w3.org/2000/svg" xmlns:xlink="http://www.w3.org/1999/xlink" x="0px" y="0px"
	 viewBox="0 0 512 512" style="enable-background:new 0 0 512 512;" xml:space="preserve">
<g>
	<path style="fill:#F7931E;" d="M360.274,165v22.986h12.224c6.547,0,12.47,2.711,16.715,7.066c0.072-1.712,0.121-3.429,0.121-5.157
		c0-8.523-0.905-16.844-2.599-24.895L360.274,165L360.274,165z"/>
	<path style="fill:#F7931E;" d="M125.265,165c-1.693,8.051-2.599,16.371-2.599,24.895c0,1.729,0.049,3.445,0.121,5.157
		c4.245-4.355,10.168-7.066,16.716-7.066h12.223V165H125.265z"/>
</g>
<path style="fill:#D5E962;" d="M344.469,364.169h-33.096l2.096,7.988c0.632,2.408-0.279,5.974-1.99,7.787l-27.328,28.949
	c-0.692,0.734-1.575,1.139-2.486,1.139c-1.028,0-1.977-0.497-2.67-1.398l-19.061-24.772c-1.029-1.338-2.426-2.074-3.934-2.074
	c-1.508,0-2.904,0.736-3.934,2.074l-19.06,24.772c-0.693,0.901-1.642,1.398-2.67,1.398c-0.911,0-1.794-0.404-2.486-1.139
	l-27.329-28.949c-1.715-1.817-2.664-5.402-2.073-7.828l1.936-7.947h-32.853c-17.04,0-30.905,13.864-30.905,30.905V506.85
	c0,2.845,2.306,5.15,5.15,5.15h228.447c2.845,0,5.15-2.306,5.15-5.15V395.074C375.374,378.033,361.509,364.169,344.469,364.169z"/>
<path style="fill:#368C0E;" d="M265.787,453.388v-61.919l-5.854-7.608c-1.029-1.338-2.426-2.074-3.934-2.074
	c-1.508,0-2.904,0.736-3.934,2.074l-5.854,7.608v61.918h19.576V453.388z"/>
<path style="fill:#64CBFF;" d="M311.373,364.169l2.096,7.988c0.632,2.408-0.279,5.974-1.99,7.787l-1.225,1.297v65.046
	c0,2.898-2.371,5.27-5.27,5.27h-97.969c-2.898,0-5.27-2.371-5.27-5.27v-65.046l-1.225-1.297c-1.715-1.817-2.664-5.402-2.073-7.828
	l1.936-7.947h-27.828V512h166.889V364.169H311.373z"/>
<g>
	<rect x="310.25" y="404.65" style="fill:#046699;" width="29.19" height="23.09"/>
	<path style="fill:#046699;" d="M304.31,512v-30.391c0-2.832-2.317-5.15-5.15-5.15h-86.318c-2.833,0-5.15,2.318-5.15,5.15V512
		H304.31z"/>
</g>
<g style="opacity:0.15;">
	<path style="fill:#440075;" d="M242.825,476.459h-29.984c-2.833,0-5.15,2.318-5.15,5.15V512h29.983v-30.391
		C237.674,478.777,239.992,476.459,242.825,476.459z"/>
</g>
<path style="fill:#F7931E;" d="M374.964,424h-32.92c-7.684,7.71-12.286,18.297-12.286,29.618c0,17.615,11.131,33.465,27.698,39.439
	c0.339,0.123,0.693,0.184,1.048,0.184s0.71-0.061,1.048-0.184c16.568-5.975,27.699-21.824,27.699-39.439
	C387.25,442.297,382.647,431.71,374.964,424z"/>
<path style="opacity:0.15;fill:#440075;enable-background:new    ;" d="M353.671,453.618c0-11.327,4.618-21.908,12.31-29.618
	h-23.936c-7.684,7.71-12.286,18.297-12.286,29.618c0,17.615,11.131,33.465,27.698,39.439c0.339,0.123,0.693,0.184,1.048,0.184
	s0.71-0.061,1.048-0.184c3.977-1.434,7.638-3.441,10.909-5.902C360.103,479.366,353.671,467.005,353.671,453.618z"/>
<rect x="172.56" y="404.65" style="fill:#046699;" width="29.19" height="23.09"/>
<path style="fill:#5DC647;" d="M302.635,326.913c-0.349-1.329-1.219-2.535-2.34-3.431c-13.431,6.403-28.451,9.994-44.295,9.994
	c-16.08,0-31.314-3.696-44.896-10.28c-1.299,0.919-2.317,2.248-2.681,3.74l-10.946,44.943c-0.671,2.753,0.373,6.69,2.317,8.751
	l27.329,28.949c1.944,2.06,4.949,1.909,6.677-0.337l19.06-24.772c1.727-2.245,4.555-2.245,6.281,0l19.061,24.772
	c1.728,2.246,4.732,2.397,6.677,0.337l27.328-28.949c1.944-2.061,2.949-5.988,2.229-8.728L302.635,326.913z"/>
<path style="fill:#B2762F;" d="M256,333.477c-10.787,0-21.192-1.666-30.976-4.748v27.322c0,2.834,1.819,6.586,4.045,8.341
	l22.886,18.043c2.225,1.755,5.865,1.755,8.09,0l22.886-18.043c2.226-1.755,4.045-5.507,4.045-8.341v-27.322
	C277.192,331.81,266.787,333.477,256,333.477z"/>
<path style="opacity:0.15;fill:#440075;enable-background:new    ;" d="M249.678,356.051v-22.773
	c-8.536-0.518-16.796-2.073-24.653-4.549v27.322c0,2.834,1.819,6.586,4.045,8.341l22.886,18.043c2.225,1.755,5.865,1.755,8.09,0
	l8.282-6.529l-14.603-11.514C251.498,362.637,249.678,358.885,249.678,356.051z"/>
<path style="fill:#F7931E;" d="M169.957,424h-32.921c-7.684,7.71-12.286,18.297-12.286,29.618c0,17.615,11.131,33.465,27.699,39.439
	c0.339,0.123,0.692,0.184,1.048,0.184c0.355,0,0.709-0.061,1.048-0.184c16.567-5.975,27.698-21.824,27.698-39.439
	C182.243,442.297,177.641,431.71,169.957,424z"/>
<path style="opacity:0.15;fill:#440075;enable-background:new    ;" d="M148.664,453.618c0-11.327,4.617-21.908,12.309-29.618
	h-23.937c-7.684,7.71-12.286,18.297-12.286,29.618c0,17.615,11.131,33.465,27.699,39.439c0.339,0.123,0.692,0.184,1.048,0.184
	c0.355,0,0.709-0.061,1.048-0.184c3.978-1.434,7.637-3.441,10.909-5.902C155.097,479.366,148.664,467.004,148.664,453.618z"/>
<path style="fill:#FFC502;" d="M153.497,404.624c-6.636,0-12.733-2.371-17.513-6.315v26.764h35.025v-26.764
	C166.23,402.253,160.133,404.624,153.497,404.624z"/>
<path style="fill:#F7931E;" d="M169.881,352.685c-0.927-0.65-1.48-1.721-1.48-2.862c0-1.143,0.553-2.212,1.48-2.863
	c7.742-5.44,12.362-14.366,12.362-23.874c0-9.509-4.62-18.434-12.362-23.875c-0.927-0.651-1.48-1.721-1.48-2.863
	s0.553-2.212,1.48-2.863c1.001-0.703,1.947-1.468,2.841-2.281c-6.655-9.061-11.87-19.242-15.303-30.203h-17.916
	c-4.456,0-8.628-1.202-12.222-3.291c-1.621,3.635-2.531,7.661-2.531,11.901c0,9.507,4.621,18.433,12.362,23.874
	c0.928,0.651,1.48,1.722,1.48,2.863c0,1.143-0.553,2.212-1.48,2.863c-7.741,5.441-12.362,14.366-12.362,23.875
	c0,9.508,4.621,18.434,12.362,23.874c0.928,0.651,1.48,1.721,1.48,2.863s-0.553,2.212-1.48,2.862
	c-7.741,5.442-12.362,14.367-12.362,23.876c0,16.025,12.895,29.063,28.747,29.063c15.851,0,28.746-13.037,28.746-29.063
	C182.243,367.053,177.623,358.128,169.881,352.685z"/>
<g style="opacity:0.15;">
	<path style="fill:#440075;" d="M142.57,376.561c0-9.509,4.621-18.434,12.362-23.876c0.928-0.65,1.479-1.721,1.479-2.862
		c0-1.143-0.552-2.212-1.479-2.863c-7.741-5.44-12.362-14.366-12.362-23.874c0-9.509,4.621-18.434,12.362-23.875
		c0.928-0.651,1.479-1.721,1.479-2.863s-0.552-2.212-1.479-2.863c-7.741-5.441-12.362-14.367-12.362-23.874
		c0-2.932,0.435-5.762,1.238-8.43h-4.306c-4.479,0-8.666-1.27-12.225-3.464c-1.619,3.633-2.528,7.656-2.528,11.894
		c0,9.507,4.621,18.433,12.362,23.874c0.928,0.651,1.48,1.722,1.48,2.863c0,1.143-0.553,2.212-1.48,2.863
		c-7.741,5.441-12.362,14.366-12.362,23.875c0,9.508,4.621,18.434,12.362,23.874c0.928,0.651,1.48,1.721,1.48,2.863
		s-0.553,2.212-1.48,2.862c-7.741,5.442-12.362,14.367-12.362,23.876c0,16.025,12.895,29.063,28.747,29.063
		c3.109,0,6.102-0.508,8.908-1.436C150.904,400.387,142.57,389.442,142.57,376.561z"/>
</g>
<path style="fill:#FFC502;" d="M358.503,404.624c-6.636,0-12.733-2.371-17.513-6.315v26.764h35.025v-26.764
	C371.236,402.253,365.139,404.624,358.503,404.624z"/>
<path style="fill:#F7931E;" d="M374.888,293.484c7.741-5.441,12.362-14.367,12.362-23.874c0-4.24-0.91-8.267-2.531-11.901
	c-3.593,2.089-7.766,3.291-12.221,3.291h-17.916c-3.434,10.961-8.648,21.142-15.304,30.203c0.894,0.814,1.84,1.578,2.841,2.281
	c0.928,0.651,1.479,1.722,1.479,2.863c0,1.143-0.552,2.212-1.479,2.863c-7.742,5.441-12.362,14.366-12.362,23.875
	c0,9.508,4.62,18.434,12.362,23.874c0.928,0.651,1.479,1.721,1.479,2.863s-0.552,2.212-1.479,2.862
	c-7.742,5.442-12.362,14.367-12.362,23.876c0,16.025,12.896,29.063,28.746,29.063c15.852,0,28.747-13.037,28.747-29.063
	c0-9.509-4.621-18.434-12.362-23.876c-0.928-0.65-1.48-1.721-1.48-2.862c0-1.143,0.553-2.212,1.48-2.863
	c7.741-5.44,12.362-14.366,12.362-23.874c0-9.509-4.621-18.434-12.362-23.875c-0.928-0.651-1.48-1.721-1.48-2.863
	C373.408,295.206,373.96,294.136,374.888,293.484z"/>
<g style="opacity:0.15;">
	<path style="fill:#440075;" d="M347.576,376.561c0-9.509,4.621-18.434,12.362-23.876c0.928-0.65,1.479-1.721,1.479-2.862
		c0-1.143-0.552-2.212-1.479-2.863c-7.741-5.44-12.362-14.366-12.362-23.874c0-9.509,4.621-18.434,12.362-23.875
		c0.928-0.651,1.479-1.721,1.479-2.863s-0.552-2.212-1.479-2.863c-5.872-4.127-9.942-10.262-11.569-17.131
		c-2.617,5.217-5.662,10.182-9.091,14.85c0.894,0.814,1.84,1.578,2.841,2.281c0.928,0.651,1.479,1.722,1.479,2.863
		c0,1.143-0.552,2.212-1.479,2.863c-7.742,5.441-12.362,14.366-12.362,23.875c0,9.508,4.62,18.434,12.362,23.874
		c0.928,0.651,1.479,1.721,1.479,2.863s-0.552,2.212-1.479,2.862c-7.742,5.442-12.362,14.367-12.362,23.876
		c0,16.025,12.896,29.063,28.746,29.063c3.11,0,6.103-0.508,8.908-1.436C355.91,400.387,347.576,389.442,347.576,376.561z"/>
</g>
<g>
	<path style="fill:#B2762F;" d="M152.726,230.202v-43.216h-13.223c-13.454,0-24.359,10.906-24.359,24.358v26.478
		c0,13.452,10.905,24.358,24.359,24.358H157.8C154.512,252.106,152.726,241.359,152.726,230.202z"/>
	<path style="fill:#B2762F;" d="M372.498,186.986h-13.224v43.216c0,11.157-1.786,21.904-5.074,31.979h18.298
		c13.453,0,24.358-10.906,24.358-24.358v-26.478C396.856,197.893,385.951,186.986,372.498,186.986z"/>
</g>
<g>
	<path style="fill:#775436;" d="M152.726,230.202v-13.68h-17.771c-4.143,0-7.5,3.357-7.5,7.5c0,4.142,3.357,7.5,7.5,7.5h17.788
		C152.736,231.082,152.726,230.644,152.726,230.202z"/>
	<path style="fill:#775436;" d="M377.047,216.523h-17.772v13.68c0,0.441-0.011,0.88-0.017,1.32h17.789c4.143,0,7.5-3.358,7.5-7.5
		C384.547,219.88,381.19,216.523,377.047,216.523z"/>
</g>
<path style="fill:#D19546;" d="M151.726,165v65.202c0,57.59,46.686,104.274,104.274,104.274s104.274-46.685,104.274-104.274V165
	H151.726z"/>
<path style="fill:#FB8276;" d="M172.556,263.211c-5.153,0-9.981,1.383-14.145,3.788c6.801,18.027,18.448,33.677,33.36,45.353
	c5.602-5.177,9.114-12.582,9.114-20.811C200.886,275.896,188.201,263.211,172.556,263.211z"/>
<path style="opacity:0.15;fill:#440075;enable-background:new    ;" d="M181.374,230.202V165h-29.648v65.202
	c0,57.59,46.686,104.274,104.274,104.274c5.033,0,9.982-0.364,14.825-1.054C220.259,326.226,181.374,282.759,181.374,230.202z"/>
<path style="fill:#FB8276;" d="M339.444,263.211c-15.646,0-28.329,12.685-28.329,28.33c0,8.229,3.511,15.634,9.113,20.811
	c14.912-11.676,26.56-27.325,33.36-45.353C349.426,264.594,344.598,263.211,339.444,263.211z"/>
<path style="fill:#B2762F;" d="M264.999,268.352H256c-9.098,0-16.499-7.986-16.499-17.803v-23.86c0-4.143,3.357-7.5,7.5-7.5
	s7.5,3.357,7.5,7.5v23.86c0,1.744,1.041,2.803,1.499,2.803h8.999c4.143,0,7.5,3.357,7.5,7.5
	C272.499,264.994,269.142,268.352,264.999,268.352z"/>
<g>
	<path style="fill:#775436;" d="M222.058,191.388c-1.919,0-3.839-0.732-5.304-2.196c-4.547-4.548-10.587-7.052-17.006-7.052
		c-6.42,0-12.459,2.504-17.006,7.051c-2.93,2.93-7.679,2.929-10.607,0.001c-2.93-2.929-2.93-7.678-0.001-10.606
		c7.38-7.381,17.187-11.445,27.613-11.445c10.426,0,20.232,4.064,27.613,11.444c2.929,2.93,2.929,7.678,0,10.607
		C225.896,190.655,223.977,191.388,222.058,191.388z"/>
	<path style="fill:#775436;" d="M334.561,191.388c-1.92,0-3.839-0.732-5.304-2.197c-4.547-4.547-10.586-7.051-17.006-7.051
		c-6.419,0-12.459,2.504-17.006,7.052c-2.93,2.928-7.678,2.928-10.607,0c-2.929-2.93-2.929-7.678,0-10.607
		c7.381-7.38,17.188-11.444,27.613-11.444c10.427,0,20.233,4.064,27.613,11.445c2.929,2.929,2.929,7.678-0.001,10.606
		C338.4,190.655,336.48,191.388,334.561,191.388z"/>
</g>
<g>
	<path style="fill:#135693;" d="M205.007,235.686c-11.791,0-21.384-9.617-21.384-21.438c0-11.82,9.593-21.438,21.384-21.438
		c11.79,0,21.383,9.617,21.383,21.438C226.39,226.068,216.797,235.686,205.007,235.686z"/>
	<path style="fill:#135693;" d="M306.994,235.686c-11.791,0-21.384-9.617-21.384-21.438c0-11.82,9.593-21.438,21.384-21.438
		c11.79,0,21.383,9.617,21.383,21.438C328.378,226.068,318.784,235.686,306.994,235.686z"/>
</g>
<path style="fill:#B2762F;" d="M256,312.571c-19.625,0-35.592-15.966-35.592-35.591c0-4.143,3.357-7.5,7.5-7.5s7.5,3.357,7.5,7.5
	c0,11.354,9.237,20.591,20.592,20.591c11.354,0,20.592-9.237,20.592-20.591c0-4.143,3.357-7.5,7.5-7.5s7.5,3.357,7.5,7.5
	C291.592,296.605,275.625,312.571,256,312.571z"/>
<path style="fill:#FFC502;" d="M372.346,111C367.684,53.501,337.388,0,300.822,0c-14.585,0-28.685,7.045-40.772,20.373
	c-1.035,1.143-2.506,1.794-4.049,1.794c-1.542,0-3.012-0.651-4.049-1.794C239.863,7.045,225.765,0,211.179,0
	c-36.566,0-66.862,53.501-71.524,111H372.346z"/>
<path style="fill:#C5CCD3;" d="M372.346,111c-0.816-9.99-2.411-19.856-4.669-29.348H144.323c-2.258,9.491-3.852,19.358-4.669,29.348
	H372.346z"/>
<path style="opacity:0.15;fill:#440075;enable-background:new    ;" d="M170.008,111c4.029-49.69,27.206-96.391,57.028-108.158
	C221.867,0.965,216.558,0,211.179,0c-36.566,0-66.862,53.501-71.524,111H170.008z"/>
<path style="fill:#FFC502;" d="M77.168,166.411c-1.787,0-3.469-0.838-4.546-2.263c-1.078-1.425-1.424-3.272-0.935-4.991
	c8.309-29.279,35.364-49.727,65.79-49.727h237.044c30.428,0,57.482,20.448,65.791,49.727c0.489,1.719,0.144,3.566-0.935,4.991
	c-1.077,1.425-2.761,2.263-4.546,2.263H77.168z"/>
<g style="opacity:0.15;">
	<path style="fill:#440075;" d="M117.822,164.148c-1.078-1.425-1.424-3.272-0.935-4.991c8.309-29.279,35.364-49.727,65.79-49.727
		h-45.2c-30.426,0-57.481,20.448-65.79,49.727c-0.489,1.719-0.144,3.566,0.935,4.991c1.077,1.425,2.759,2.263,4.546,2.263h45.2
		C120.582,166.411,118.899,165.573,117.822,164.148z"/>
</g>
<g>
</g>
<g>
</g>
<g>
</g>
<g>
</g>
<g>
</g>
<g>
</g>
<g>
</g>
<g>
</g>
<g>
</g>
<g>
</g>
<g>
</g>
<g>
</g>
<g>
</g>
<g>
</g>
<g>
</g>
</svg>
