<?xml version="1.0" encoding="iso-8859-1"?>
<!-- Generator: Adobe Illustrator 19.0.0, SVG Export Plug-In . SVG Version: 6.00 Build 0)  -->
<svg version="1.1" id="Capa_1" xmlns="http://www.w3.org/2000/svg" xmlns:xlink="http://www.w3.org/1999/xlink" x="0px" y="0px"
	 viewBox="0 0 512 512" style="enable-background:new 0 0 512 512;" xml:space="preserve">
<path style="fill:#FCC892;" d="M65,423.635c-35.841,0-65-29.159-65-65.001c0-20.399,9.297-39.218,25.508-51.632
	c6.576-5.034,15.992-3.79,21.029,2.789c5.037,6.577,3.788,15.992-2.789,21.029C35.011,337.51,30,347.648,30,358.634
	c0,19.3,15.701,35.001,35,35.001c13.495,0,25.934-7.895,31.689-20.111c3.53-7.495,12.473-10.706,19.962-7.177
	c7.494,3.53,10.708,12.468,7.177,19.962C113.146,408.983,90.055,423.635,65,423.635z"/>
<path style="fill:#FCA953;" d="M447,423.635c-25.059,0-48.151-14.654-58.83-37.333c-3.529-7.495-0.314-16.432,7.18-19.961
	c7.496-3.529,16.432-0.314,19.961,7.18c5.754,12.219,18.192,20.114,31.69,20.114c19.299,0,35-15.701,35-35.001
	c0-10.984-5.011-21.122-13.748-27.813c-6.577-5.037-7.826-14.452-2.789-21.029c5.037-6.576,14.45-7.827,21.029-2.789
	C502.702,319.417,512,338.234,512,358.634C512,394.476,482.841,423.635,447,423.635z"/>
<path style="fill:#422017;" d="M448.8,216.899h-32.133c-8.284,0-15,6.716-15,15c0,8.242,6.649,14.927,14.876,14.994l-0.548,66.406
	h-0.124c-8.284,0-15,6.716-15,15s6.716,15,15,15H448.8c34.849,0,63.2-28.351,63.2-63.199C512,245.251,483.648,216.899,448.8,216.899
	z"/>
<path style="fill:#5B3227;" d="M96.132,313.301h-0.124l-0.551-66.406c8.227-0.068,14.876-6.752,14.876-14.994
	c0-8.284-6.716-15-15-15H63.2C28.352,216.899,0,245.251,0,280.102c0,34.849,28.352,63.199,63.2,63.199h32.932
	c8.284,0,15-6.716,15-15S104.416,313.301,96.132,313.301z"/>
<path style="fill:#794334;" d="M426.67,188.59c-21.361-19.12-45.556-34.408-71.913-45.439c-4.779-2.002-10.254-1.393-14.479,1.609
	c-24.71,17.558-53.854,26.838-84.278,26.838s-59.566-9.28-84.276-26.838c-4.225-3.003-9.7-3.611-14.479-1.609
	c-26.356,11.028-50.553,26.316-71.915,45.439c-3.18,2.846-4.996,6.91-4.996,11.177v112.467c0,96.862,78.804,175.666,175.666,175.666
	s175.666-78.804,175.666-175.666V199.768C431.665,195.501,429.849,191.436,426.67,188.59z"/>
<path style="fill:#5B3227;" d="M426.67,188.59c-21.361-19.12-45.556-34.408-71.913-45.439c-4.779-2.002-10.254-1.393-14.479,1.609
	c-24.71,17.558-53.854,26.838-84.278,26.838V487.9c96.862,0,175.666-78.804,175.666-175.666V199.768
	C431.665,195.501,429.849,191.436,426.67,188.59z"/>
<path style="fill:#3B211A;" d="M496.999,24.099H175.665c-52.566,0-95.332,42.767-95.332,95.333v80.335
	c0,5.916,3.478,11.28,8.879,13.694c1.964,0.878,4.048,1.306,6.118,1.306c3.623,0,7.201-1.313,10.007-3.823
	c16.868-15.099,35.73-27.487,56.164-36.9c28.217,18.055,60.707,27.556,94.498,27.556c33.792,0,66.283-9.501,94.5-27.556
	c20.435,9.414,39.296,21.803,56.161,36.9c4.408,3.944,10.724,4.934,16.126,2.518c5.401-2.414,8.879-7.778,8.879-13.694v-50.446
	c45.468-7.215,80.334-46.69,80.334-94.155V39.099C511.999,30.814,505.283,24.099,496.999,24.099z"/>
<path style="fill:#FD413C;" d="M255.999,391.5c-22.481,0-43.451-12.098-54.726-31.571c-4.15-7.169-1.704-16.346,5.466-20.497
	c7.169-4.151,16.346-1.705,20.497,5.466c5.929,10.241,16.951,16.603,28.764,16.603c11.815,0,22.838-6.365,28.769-16.611
	c4.15-7.171,13.33-9.616,20.496-5.469c7.17,4.149,9.618,13.326,5.469,20.496C299.457,379.397,278.484,391.5,255.999,391.5z"/>
<path style="fill:#3B211A;" d="M191.735,271.007c-3.949,0-7.819-1.6-10.609-4.399c-2.79-2.79-4.391-6.65-4.391-10.601
	c0-3.949,1.601-7.819,4.391-10.609c2.79-2.79,6.66-4.391,10.609-4.391c3.94,0,7.811,1.601,10.601,4.391
	c2.79,2.79,4.399,6.66,4.399,10.609c0,3.95-1.609,7.811-4.399,10.601C199.546,269.407,195.676,271.007,191.735,271.007z"/>
<path style="fill:#0F0301;" d="M320.266,271.007c-3.95,0-7.81-1.6-10.61-4.399c-2.79-2.79-4.39-6.65-4.39-10.601
	c0-3.949,1.6-7.819,4.39-10.609s6.66-4.391,10.61-4.391s7.811,1.601,10.61,4.391c2.79,2.79,4.39,6.66,4.39,10.609
	c0,3.95-1.6,7.811-4.39,10.601C328.076,269.407,324.216,271.007,320.266,271.007z"/>
<path style="fill:#DA0806;" d="M305.264,339.42c-7.171-4.15-16.348-1.701-20.497,5.469c-5.929,10.243-16.95,16.606-28.765,16.607v30
	c22.484-0.001,43.455-12.102,54.729-31.58C314.881,352.746,312.434,343.57,305.264,339.42z"/>
<path style="fill:#0F0301;" d="M496.999,24.099h-241v177.5c33.792,0,66.283-9.501,94.5-27.556
	c20.435,9.414,39.296,21.803,56.161,36.9c4.408,3.944,10.724,4.934,16.126,2.518c5.401-2.414,8.879-7.778,8.879-13.694v-50.446
	c45.468-7.215,80.334-46.69,80.334-94.155V39.099C511.999,30.814,505.283,24.099,496.999,24.099z"/>
<g>
</g>
<g>
</g>
<g>
</g>
<g>
</g>
<g>
</g>
<g>
</g>
<g>
</g>
<g>
</g>
<g>
</g>
<g>
</g>
<g>
</g>
<g>
</g>
<g>
</g>
<g>
</g>
<g>
</g>
</svg>
