<?xml version="1.0" encoding="iso-8859-1"?>
<!-- Generator: Adobe Illustrator 19.0.0, SVG Export Plug-In . SVG Version: 6.00 Build 0)  -->
<svg version="1.1" id="Capa_1" xmlns="http://www.w3.org/2000/svg" xmlns:xlink="http://www.w3.org/1999/xlink" x="0px" y="0px"
	 viewBox="0 0 512 512" style="enable-background:new 0 0 512 512;" xml:space="preserve">
<path style="fill:#5EC08B;" d="M145.869,504.5h-27.816c-4.473,0-8.1-3.626-8.1-8.1v-21.291c0-34.565,19.059-65.927,49.741-81.846
	l16.541,31.88c-18.731,9.719-30.366,28.865-30.366,49.966V504.5z"/>
<path style="opacity:0.15;enable-background:new    ;" d="M145.869,504.5h-27.816c-4.473,0-8.1-3.626-8.1-8.1v-21.291
	c0-34.565,19.059-65.927,49.741-81.846l16.541,31.88c-18.731,9.719-30.366,28.865-30.366,49.966V504.5z"/>
<path style="fill:#5EC08B;" d="M366.127,504.5h27.816c4.473,0,8.1-3.626,8.1-8.1v-21.291c0-34.565-19.06-65.927-49.741-81.846
	l-16.541,31.88c18.731,9.719,30.366,28.865,30.366,49.966V504.5z"/>
<path style="opacity:0.15;enable-background:new    ;" d="M366.127,504.5h27.816c4.473,0,8.1-3.626,8.1-8.1v-21.291
	c0-34.565-19.06-65.927-49.741-81.846l-16.541,31.88c18.731,9.719,30.366,28.865,30.366,49.966V504.5z"/>
<path style="fill:#5EC08B;" d="M255.998,320.477L255.998,320.477c-60.949,0-110.359,49.409-110.359,110.358V504.5h220.717v-73.665
	C366.357,369.886,316.947,320.477,255.998,320.477z"/>
<g style="opacity:0.1;">
	<path d="M185.451,452.137c-2.26,0-4.493-1.017-5.969-2.952l-10.193-13.362c-2.513-3.294-1.879-8,1.414-10.512
		c3.294-2.514,8.001-1.879,10.512,1.414l10.193,13.362c2.513,3.293,1.879,8-1.414,10.512
		C188.636,451.636,187.037,452.137,185.451,452.137z"/>
	<path d="M210.814,490.492c-2.393,0-4.743-1.142-6.196-3.265c-2.339-3.419-1.464-8.086,1.954-10.425l8.755-5.99
		c3.419-2.338,8.086-1.464,10.425,1.955c2.339,3.419,1.464,8.086-1.954,10.425l-8.755,5.99
		C213.748,490.067,212.273,490.492,210.814,490.492z"/>
	<path d="M279.085,464.966c-3.279,0-6.291-2.167-7.219-5.48l-3.226-11.52c-1.116-3.989,1.212-8.128,5.2-9.245
		c3.987-1.118,8.128,1.211,9.245,5.2l3.226,11.52c1.116,3.989-1.212,8.128-5.2,9.245
		C280.436,464.876,279.754,464.966,279.085,464.966z"/>
	<path d="M330.283,482.962c-1.024,0-2.064-0.211-3.061-0.656c-3.78-1.692-5.474-6.129-3.781-9.91l5.99-13.383
		c1.692-3.781,6.127-5.473,9.91-3.782c3.78,1.692,5.474,6.129,3.781,9.91l-5.99,13.383
		C335.886,481.31,333.149,482.962,330.283,482.962z"/>
	<path d="M312.311,420.882c-1.218,0-2.452-0.297-3.596-0.923l-15.206-8.327c-3.633-1.989-4.965-6.547-2.976-10.181
		c1.99-3.633,6.548-4.964,10.181-2.976l15.206,8.327c3.633,1.989,4.965,6.547,2.976,10.181
		C317.532,419.473,314.962,420.882,312.311,420.882z"/>
	<path d="M214.201,420.741c-1.854,0-3.712-0.683-5.162-2.06c-3.005-2.852-3.128-7.599-0.276-10.603l7.639-8.047
		c2.853-3.005,7.601-3.127,10.603-0.276c3.005,2.852,3.128,7.599,0.276,10.603l-7.639,8.047
		C218.167,419.957,216.186,420.741,214.201,420.741z"/>
</g>
<path style="opacity:0.5;fill:#FFFFFF;enable-background:new    ;" d="M255.998,320.476L255.998,320.476
	c-35.119,0-66.404,16.406-86.615,41.97c25.493,14.704,55.071,23.119,86.615,23.119s61.122-8.415,86.615-23.119
	C322.402,336.883,291.117,320.476,255.998,320.476z"/>
<path style="opacity:0.1;enable-background:new    ;" d="M294.96,333.529c-1.673-3.656-5.993-5.265-9.65-3.59
	c-3.655,1.674-5.263,5.994-3.589,9.65l18.443,40.289c4.761-1.249,9.439-2.697,14.031-4.331L294.96,333.529z M226.686,329.939
	c-3.657-1.674-7.977-0.066-9.65,3.59l-19.235,42.018c4.592,1.634,9.27,3.082,14.031,4.331l18.443-40.289
	C231.949,335.933,230.342,331.613,226.686,329.939z M255.998,328.446c-4.021,0-7.28,3.26-7.28,7.28v49.672
	c2.416,0.1,4.84,0.168,7.28,0.168c2.44,0,4.864-0.068,7.28-0.168v-49.672C263.278,331.705,260.019,328.446,255.998,328.446z"/>
<path style="opacity:0.1;enable-background:new    ;" d="M255.998,320.476L255.998,320.476c-30.252,0-57.656,12.176-77.591,31.889
	c23.352,11.687,49.7,18.275,77.591,18.275c27.891,0,54.239-6.587,77.591-18.275C313.654,332.652,286.249,320.476,255.998,320.476z"
	/>
<g>
	<circle style="fill:#FFD4B8;" cx="82.388" cy="181.34" r="30.617"/>
	<circle style="fill:#FFD4B8;" cx="429.608" cy="181.34" r="30.617"/>
	<circle style="fill:#FFD4B8;" cx="255.998" cy="181.11" r="173.61"/>
</g>
<g>
	<path style="fill:#BCBCBC;" d="M109.03,88.671c-16.872,26.767-26.642,58.46-26.642,92.439c0,3.109,0.086,6.198,0.247,9.266
		c29.89-0.152,54.076-24.424,54.076-54.35C136.71,115.703,125.55,97.997,109.03,88.671z"/>
	<path style="fill:#BCBCBC;" d="M402.966,88.671c16.872,26.768,26.642,58.461,26.642,92.44c0,3.109-0.086,6.198-0.247,9.266
		c-29.891-0.152-54.076-24.424-54.076-54.35C375.286,115.703,386.446,97.997,402.966,88.671z"/>
</g>
<g>
	<path style="opacity:0.1;fill:#513130;enable-background:new    ;" d="M281.727,332.804c-95.882,0-173.61-77.728-173.61-173.61
		c0-46.864,18.575-89.383,48.756-120.617c-45.019,31.367-74.485,83.505-74.485,142.533c0,95.882,77.728,173.61,173.61,173.61
		c49.019,0,93.285-20.322,124.854-52.993C352.745,321.311,318.58,332.804,281.727,332.804z"/>
	<g style="opacity:0.1;">
		<path style="fill:#513130;" d="M313.569,110.313c-10.384,0-17.892-1.691-25.84-3.482c-8.627-1.943-17.549-3.953-31.731-3.953
			c-14.183,0-23.105,2.01-31.731,3.953c-7.948,1.791-15.456,3.482-25.84,3.482c-4.143,0-7.5-3.358-7.5-7.5s3.357-7.5,7.5-7.5
			c8.715,0,15.123-1.443,22.543-3.115c8.989-2.025,19.177-4.32,35.028-4.32c15.851,0,26.039,2.295,35.028,4.32
			c7.42,1.672,13.828,3.115,22.543,3.115c4.143,0,7.5,3.358,7.5,7.5S317.712,110.313,313.569,110.313z"/>
		<path style="fill:#513130;" d="M300.923,78.844c-0.38,0-0.766-0.029-1.153-0.089c-4.226-0.653-8.197-1.547-12.039-2.413
			c-8.628-1.943-17.549-3.953-31.732-3.953c-14.183,0-23.105,2.01-31.732,3.953c-3.842,0.866-7.813,1.76-12.039,2.413
			c-4.096,0.634-7.924-2.175-8.557-6.267c-0.633-4.094,2.174-7.925,6.268-8.557c3.718-0.574,7.271-1.375,11.031-2.222
			c8.989-2.025,19.178-4.32,35.029-4.32s26.04,2.295,35.029,4.32c3.761,0.848,7.314,1.648,11.031,2.222
			c4.094,0.632,6.9,4.463,6.268,8.557C307.754,76.193,304.559,78.844,300.923,78.844z"/>
	</g>
</g>
<path d="M351.531,169.329v-17.296c0-4.142-3.357-7.5-7.5-7.5s-7.5,3.358-7.5,7.5v17.296c0,4.142,3.357,7.5,7.5,7.5
	S351.531,173.471,351.531,169.329z M175.465,169.329v-17.296c0-4.142-3.357-7.5-7.5-7.5s-7.5,3.358-7.5,7.5v17.296
	c0,4.142,3.357,7.5,7.5,7.5C172.107,176.829,175.465,173.471,175.465,169.329z M433.146,143.391
	c-4.426-20.809-12.436-40.305-23.352-57.814c-0.091-0.2-0.187-0.399-0.297-0.594c-0.22-0.39-0.475-0.747-0.75-1.081
	C376.555,33.494,320.116,0,255.998,0c-35.554,0-69.972,10.298-99.535,29.781c-3.459,2.279-4.415,6.931-2.136,10.389
	c2.28,3.458,6.932,4.416,10.39,2.135C191.823,24.442,223.388,15,255.998,15c56.495,0,106.483,28.356,136.506,71.576
	c-15.416,11.598-24.719,29.897-24.719,49.45c0,31.217,23.371,57.179,53.533,61.272c-8.164,84.025-79.188,149.923-165.32,149.923
	S98.842,281.323,90.678,197.298c30.161-4.092,53.533-30.055,53.533-61.272c0-19.587-9.337-37.916-24.802-49.511
	c5.406-7.774,11.513-15.141,18.292-22.016c2.908-2.95,2.874-7.699-0.075-10.606c-2.948-2.907-7.697-2.875-10.606,0.075
	c-24.616,24.969-41.121,55.868-48.201,89.425c-19.349,1.807-34.547,18.132-34.547,37.945c0,19.859,15.268,36.211,34.68,37.955
	c11.807,54.8,48.479,100.459,97.584,124.536c-4.514,4.136-8.683,8.596-12.471,13.339c-0.411,0.415-0.781,0.881-1.095,1.402
	c-8.27,10.679-14.666,22.703-18.891,35.506c-26.108,18.661-41.624,48.759-41.624,81.033V496.4c0,8.602,6.998,15.6,15.6,15.6h171.438
	c4.143,0,7.5-3.358,7.5-7.5s-3.357-7.5-7.5-7.5H153.14v-66.165c0-21.125,6.609-41.586,18.421-58.637
	c25.905,13.664,54.949,20.867,84.438,20.867c29.488,0,58.533-7.204,84.438-20.867c11.812,17.05,18.421,37.512,18.421,58.637V497
	h-33.079c-4.143,0-7.5,3.358-7.5,7.5s3.357,7.5,7.5,7.5h68.166c8.602,0,15.6-6.998,15.6-15.6v-21.291
	c0-32.274-15.515-62.372-41.624-81.033c-4.226-12.802-10.622-24.827-18.891-35.506c-0.314-0.52-0.683-0.986-1.094-1.401
	c-3.789-4.744-7.958-9.204-12.472-13.341c49.105-24.078,85.777-69.736,97.584-124.536c19.412-1.744,34.68-18.096,34.68-37.955
	C467.726,161.513,452.511,145.182,433.146,143.391z M59.27,181.338c0-10.608,7.185-19.564,16.941-22.273
	c-0.877,7.262-1.324,14.621-1.324,22.046c0,7.626,0.479,15.141,1.399,22.522C66.491,200.948,59.27,191.973,59.27,181.338z
	 M89.888,181.11c0-9.721,0.835-19.317,2.465-28.71c0.025-0.118,0.046-0.237,0.066-0.356c3.271-18.616,9.68-36.417,18.958-52.762
	c11.136,8.815,17.835,22.323,17.835,36.743c0,23.217-17.064,42.606-39.309,46.236C89.9,181.878,89.888,181.495,89.888,181.11z
	 M138.14,430.835V497h-20.087c-0.331,0-0.6-0.269-0.6-0.6v-21.292c0-21.002,7.731-40.917,21.313-56.211
	C138.359,422.847,138.14,426.83,138.14,430.835z M394.543,475.109V496.4c0,0.331-0.268,0.6-0.6,0.6h-20.087v-66.165
	c0-4.005-0.22-7.988-0.626-11.938C386.812,434.191,394.543,454.107,394.543,475.109z M255.998,378.065
	c-26.056,0-51.725-6.136-74.805-17.783c3.291-3.502,6.844-6.783,10.635-9.817c19.957,7.587,41.584,11.755,64.17,11.755
	s44.214-4.168,64.17-11.755c3.79,3.034,7.344,6.315,10.635,9.817C307.723,371.929,282.054,378.065,255.998,378.065z
	 M422.094,182.262c-22.244-3.63-39.309-23.02-39.309-46.236c0-14.388,6.669-27.866,17.76-36.682
	c13.717,24.154,21.564,52.06,21.564,81.767C422.108,181.495,422.096,181.878,422.094,182.262z M435.709,203.632
	c0.919-7.381,1.399-14.896,1.399-22.522c0-7.464-0.463-14.821-1.345-22.051c9.768,2.702,16.962,11.663,16.962,22.279
	C452.726,191.973,445.505,200.948,435.709,203.632z M255.998,224.531c8.998,0,17.692-3.772,23.853-10.347
	c2.832-3.022,2.678-7.769-0.345-10.601c-3.022-2.834-7.77-2.677-10.601,0.345c-3.386,3.613-7.97,5.603-12.908,5.603
	c-4.938,0-9.523-1.99-12.907-5.603c-2.832-3.023-7.577-3.178-10.602-0.346c-3.022,2.832-3.178,7.578-0.346,10.601
	C238.304,220.759,246.999,224.531,255.998,224.531z"/>
<g>
</g>
<g>
</g>
<g>
</g>
<g>
</g>
<g>
</g>
<g>
</g>
<g>
</g>
<g>
</g>
<g>
</g>
<g>
</g>
<g>
</g>
<g>
</g>
<g>
</g>
<g>
</g>
<g>
</g>
</svg>
