<?xml version="1.0" encoding="iso-8859-1"?>
<!-- Generator: Adobe Illustrator 19.0.0, SVG Export Plug-In . SVG Version: 6.00 Build 0)  -->
<svg version="1.1" id="Capa_1" xmlns="http://www.w3.org/2000/svg" xmlns:xlink="http://www.w3.org/1999/xlink" x="0px" y="0px"
	 viewBox="0 0 512 512" style="enable-background:new 0 0 512 512;" xml:space="preserve">
<path style="fill:#570101;" d="M416.667,0c-41.677,0-78.183,26.659-90.839,66.338c-2.518,7.893,1.84,16.332,9.732,18.85
	c0.55,0.176,1.103,0.31,1.655,0.419L258.961,482H256c-8.284,0-15,6.716-15,15s6.716,15,15,15h241c8.284,0,15-6.716,15-15V95.334
	C512,42.767,469.234,0,416.667,0z"/>
<path style="fill:#E37C5D;" d="M448.801,241h-32.134c-8.284,0-15,6.716-15,15c0,8.242,6.649,14.927,14.876,14.994l-0.548,66.406
	h-0.124c-8.284,0-15,6.716-15,15s6.716,15,15,15h32.93c34.848,0,63.199-28.352,63.199-63.2S483.648,241,448.801,241z"/>
<path style="fill:#ED9A81;" d="M96.132,337.4h-0.124l-0.55-66.406c8.227-0.068,14.876-6.752,14.876-14.994c0-8.284-6.716-15-15-15
	H63.2C28.352,241,0,269.352,0,304.2s28.352,63.2,63.2,63.2h32.932c8.284,0,15-6.716,15-15
	C111.132,344.116,104.416,337.4,96.132,337.4z"/>
<path style="fill:#F7AF99;" d="M422.932,194.17l-201.414-92.576c-5.07-2.332-11.015-1.654-15.432,1.756L86.168,195.926
	c-3.68,2.84-5.834,7.226-5.834,11.873v128.535C80.334,433.196,159.137,512,256,512s175.667-78.804,175.667-175.666V207.799
	C431.667,201.939,428.256,196.616,422.932,194.17z"/>
<path style="fill:#ED9A81;" d="M422.932,194.17l-166.929-76.726V512c96.862-0.002,175.664-78.805,175.664-175.666V207.799
	C431.667,201.939,428.256,196.616,422.932,194.17z"/>
<path style="fill:#8F1711;" d="M256,32.133c-11.996,0-23.997,1.222-35.666,3.63c-12.963,2.675-25.648,6.846-37.705,12.395
	c-30.098,13.854-55.609,35.87-73.777,63.668c-18.656,28.547-28.518,61.733-28.518,95.974v12.852c0,4.501,2.021,8.765,5.507,11.613
	c3.485,2.85,8.065,3.982,12.478,3.087c51.804-10.515,95.955-44.157,120.313-90.247c48.416,59.149,120.656,93.764,198.036,93.764
	c8.284,0,15-6.716,15-15v-16.068C431.667,110.937,352.863,32.133,256,32.133z"/>
<path style="fill:#FD413C;" d="M256,415.602c-22.482,0-43.452-12.098-54.727-31.572c-4.15-7.17-1.703-16.347,5.466-20.497
	c7.171-4.151,16.347-1.703,20.497,5.466c5.93,10.241,16.951,16.604,28.764,16.604c11.815,0,22.838-6.365,28.769-16.611
	c4.149-7.169,13.325-9.617,20.496-5.469c7.17,4.149,9.618,13.326,5.469,20.496C299.459,403.499,278.486,415.602,256,415.602z"/>
<path style="fill:#3B211A;" d="M191.736,295.107c-3.951,0-7.82-1.601-10.61-4.391c-2.79-2.8-4.39-6.659-4.39-10.609
	s1.6-7.82,4.39-10.61c2.79-2.79,6.659-4.39,10.61-4.39c3.949,0,7.81,1.6,10.6,4.39c2.8,2.8,4.4,6.66,4.4,10.61
	s-1.601,7.81-4.4,10.609C199.546,293.507,195.686,295.107,191.736,295.107z"/>
<path style="fill:#0F0301;" d="M320.266,295.107c-3.949,0-7.81-1.601-10.609-4.391c-2.791-2.8-4.391-6.659-4.391-10.609
	s1.6-7.82,4.391-10.61c2.799-2.79,6.66-4.39,10.609-4.39c3.95,0,7.82,1.6,10.61,4.39c2.79,2.79,4.39,6.66,4.39,10.61
	s-1.6,7.81-4.39,10.609C328.086,293.507,324.216,295.107,320.266,295.107z"/>
<path style="fill:#FCC892;" d="M55.167,427.732c-8.284,0-15-6.716-15-15V351.73c0-8.284,6.716-15,15-15s15,6.716,15,15v61.002
	C70.167,421.017,63.451,427.732,55.167,427.732z"/>
<path style="fill:#FCA953;" d="M456.834,427.732c-8.284,0-15-6.716-15-15v-61.001c0-8.284,6.716-15,15-15s15,6.716,15,15v61.001
	C471.834,421.017,465.118,427.732,456.834,427.732z"/>
<path style="fill:#DA0806;" d="M305.265,363.522c-7.171-4.15-16.347-1.701-20.497,5.469c-5.928,10.243-16.95,16.607-28.765,16.607
	v30c22.485-0.001,43.456-12.102,54.729-31.58C314.883,376.848,312.435,367.672,305.265,363.522z"/>
<path style="fill:#6B0101;" d="M256.003,32.133v150.069c44.894,36.243,101.257,56.665,160.664,56.665c8.284,0,15-6.716,15-15
	v-16.068C431.667,110.938,352.865,32.135,256.003,32.133z"/>
<g>
</g>
<g>
</g>
<g>
</g>
<g>
</g>
<g>
</g>
<g>
</g>
<g>
</g>
<g>
</g>
<g>
</g>
<g>
</g>
<g>
</g>
<g>
</g>
<g>
</g>
<g>
</g>
<g>
</g>
</svg>
