<?xml version="1.0" encoding="iso-8859-1"?>
<!-- Generator: Adobe Illustrator 19.0.0, SVG Export Plug-In . SVG Version: 6.00 Build 0)  -->
<svg version="1.1" id="Capa_1" xmlns="http://www.w3.org/2000/svg" xmlns:xlink="http://www.w3.org/1999/xlink" x="0px" y="0px"
	 viewBox="0 0 512 512" style="enable-background:new 0 0 512 512;" xml:space="preserve">
<path style="fill:#E37C5D;" d="M448.8,241h-32.133c-8.284,0-15,6.716-15,15c0,8.242,6.649,14.927,14.876,14.994l-0.548,66.406
	h-0.124c-8.284,0-15,6.716-15,15s6.716,15,15,15H448.8c34.849,0,63.2-28.352,63.2-63.2S483.648,241,448.8,241z"/>
<path style="fill:#ED9A81;" d="M96.131,337.4h-0.124l-0.55-66.406c8.227-0.068,14.876-6.752,14.876-14.994c0-8.284-6.716-15-15-15
	H63.2C28.352,241,0,269.352,0,304.2s28.352,63.2,63.2,63.2h32.931c8.284,0,15-6.716,15-15
	C111.131,344.116,104.415,337.4,96.131,337.4z"/>
<path style="fill:#F7AF99;" d="M396.904,135.013c-21.977-29.469-53.301-51.735-88.203-62.699
	c-7.901-2.485-16.322,1.911-18.806,9.815c-0.47,1.494-0.691,3.008-0.692,4.495h-66.406c0-1.487-0.222-3.001-0.691-4.495
	c-2.482-7.904-10.902-12.3-18.807-9.815c-35.409,11.123-65.91,32.805-88.204,62.701C92.353,165.51,80.333,201.79,80.333,239.934
	v96.399C80.333,433.196,159.137,512,256,512s175.667-78.804,175.667-175.667v-96.399
	C431.667,201.79,419.646,165.509,396.904,135.013z"/>
<g>
	<path style="fill:#ED9A81;" d="M396.904,135.013c-21.977-29.469-53.301-51.735-88.203-62.699
		c-7.901-2.485-16.322,1.911-18.806,9.815c-0.47,1.494-0.691,3.008-0.692,4.495h-33.201V512
		c96.863-0.002,175.665-78.805,175.665-175.667v-96.399C431.667,201.79,419.646,165.509,396.904,135.013z"/>
	<path style="fill:#ED9A81;" d="M256,415.6c-22.486,0-43.457-12.099-54.729-31.575c-4.148-7.17-1.699-16.347,5.471-20.495
		c7.172-4.15,16.346-1.7,20.496,5.47c5.926,10.238,16.947,16.6,28.762,16.6c11.816,0,22.839-6.363,28.768-16.607
		c4.148-7.171,13.325-9.619,20.496-5.469c7.17,4.15,9.619,13.326,5.469,20.496C299.459,403.499,278.486,415.6,256,415.6z"/>
</g>
<path style="fill:#3B211A;" d="M191.736,295.107c-3.951,0-7.82-1.601-10.61-4.39c-2.79-2.79-4.39-6.66-4.39-10.61
	s1.6-7.82,4.39-10.61c2.79-2.79,6.659-4.39,10.61-4.39c3.949,0,7.81,1.6,10.6,4.39c2.8,2.8,4.4,6.66,4.4,10.61
	s-1.601,7.81-4.4,10.61C199.546,293.507,195.685,295.107,191.736,295.107z"/>
<path style="fill:#0F0301;" d="M320.266,295.107c-3.949,0-7.811-1.601-10.6-4.39c-2.801-2.79-4.4-6.66-4.4-10.61s1.6-7.81,4.4-10.61
	c2.789-2.79,6.65-4.39,10.6-4.39s7.82,1.6,10.61,4.39c2.79,2.8,4.39,6.66,4.39,10.61s-1.6,7.81-4.39,10.61
	C328.076,293.507,324.216,295.107,320.266,295.107z"/>
<path style="fill:#FCC892;" d="M308.695,8.05C291.692,2.708,273.963,0,256,0s-35.692,2.708-52.695,8.05
	c-6.252,1.964-10.505,7.758-10.505,14.311v153.307c0,8.284,6.716,15,15,15h96.4c8.284,0,15-6.716,15-15V22.36
	C319.2,15.808,314.947,10.014,308.695,8.05z"/>
<path style="fill:#E37C5D;" d="M305.264,363.523c-7.17-4.15-16.347-1.701-20.496,5.469c-5.93,10.243-16.951,16.606-28.766,16.607v30
	c22.484-0.001,43.456-12.102,54.73-31.58C314.882,376.85,312.434,367.674,305.264,363.523z"/>
<path style="fill:#FCA953;" d="M308.695,8.05C291.693,2.708,273.965,0,256.002,0v190.667H304.2c8.284,0,15-6.716,15-15V22.36
	C319.2,15.808,314.947,10.014,308.695,8.05z"/>
<g>
</g>
<g>
</g>
<g>
</g>
<g>
</g>
<g>
</g>
<g>
</g>
<g>
</g>
<g>
</g>
<g>
</g>
<g>
</g>
<g>
</g>
<g>
</g>
<g>
</g>
<g>
</g>
<g>
</g>
</svg>
