<?xml version="1.0" encoding="iso-8859-1"?>
<!-- Generator: Adobe Illustrator 19.0.0, SVG Export Plug-In . SVG Version: 6.00 Build 0)  -->
<svg version="1.1" id="Capa_1" xmlns="http://www.w3.org/2000/svg" xmlns:xlink="http://www.w3.org/1999/xlink" x="0px" y="0px"
	 viewBox="0 0 512 512" style="enable-background:new 0 0 512 512;" xml:space="preserve">
<path style="fill:#3B211A;" d="M437.02,74.981C388.667,26.629,324.38,0,256,0S123.333,26.629,74.98,74.981
	C26.629,123.333,0,187.62,0,256v241c0,8.284,6.716,15,15,15h482c8.284,0,15-6.716,15-15V256
	C512,187.62,485.371,123.333,437.02,74.981z"/>
<path style="fill:#0F0301;" d="M437.02,74.981C388.667,26.629,324.38,0,256,0h-0.001v512H497c8.284,0,15-6.716,15-15V256
	C512,187.62,485.371,123.333,437.02,74.981z"/>
<path style="fill:#F7AF99;" d="M417.029,201.794c-2.388-5.463-7.783-8.993-13.745-8.993H108.715c-5.962,0-11.358,3.531-13.745,8.994
	c-9.712,22.227-14.636,45.869-14.636,70.271v64.268C80.334,433.196,159.138,512,256,512s175.666-78.804,175.666-175.666v-64.268
	C431.666,247.663,426.741,224.02,417.029,201.794z"/>
<path style="fill:#ED9A81;" d="M417.029,201.794c-2.388-5.463-7.783-8.993-13.745-8.993H255.999V512H256
	c96.862,0,175.666-78.804,175.666-175.666v-64.268C431.666,247.663,426.741,224.02,417.029,201.794z"/>
<path style="fill:#FD413C;" d="M256,415.6c-22.482,0-43.453-12.097-54.727-31.57c-4.15-7.17-1.703-16.347,5.466-20.497
	c7.17-4.151,16.346-1.703,20.497,5.466c5.929,10.24,16.95,16.602,28.764,16.602c11.816,0,22.84-6.363,28.769-16.607
	c4.15-7.172,13.331-9.615,20.496-5.469c7.17,4.15,9.618,13.326,5.469,20.496C299.459,403.499,278.486,415.6,256,415.6z"/>
<path style="fill:#3B211A;" d="M191.735,295.107c-3.949,0-7.819-1.601-10.609-4.391c-2.79-2.789-4.391-6.659-4.391-10.609
	s1.601-7.82,4.391-10.61c2.79-2.79,6.649-4.39,10.609-4.39c3.95,0,7.82,1.6,10.601,4.39c2.8,2.79,4.399,6.66,4.399,10.61
	s-1.6,7.82-4.399,10.609C199.546,293.507,195.686,295.107,191.735,295.107z"/>
<path style="fill:#0F0301;" d="M320.266,295.107c-3.95,0-7.81-1.601-10.61-4.391c-2.79-2.789-4.39-6.659-4.39-10.609
	s1.6-7.82,4.39-10.61c2.79-2.79,6.66-4.39,10.61-4.39s7.82,1.6,10.61,4.39c2.79,2.79,4.39,6.66,4.39,10.61s-1.6,7.82-4.39,10.609
	C328.076,293.507,324.216,295.107,320.266,295.107z"/>
<path style="fill:#F2F2F2;" d="M417.029,201.795C389.054,137.77,325.846,96.4,256,96.4c-69.845,0-133.054,41.37-161.03,105.395
	c-2.026,4.638-1.578,9.984,1.193,14.219s7.491,6.787,12.552,6.787h294.569c5.06,0,9.78-2.552,12.552-6.787
	C418.606,211.779,419.056,206.433,417.029,201.795z"/>
<path style="fill:#D9D9D9;" d="M417.029,201.795C389.054,137.77,325.846,96.4,256,96.4h-0.001v126.4h147.285
	c5.06,0,9.78-2.552,12.552-6.787C418.606,211.779,419.056,206.433,417.029,201.795z"/>
<path style="fill:#DA0806;" d="M305.265,363.523c-7.171-4.15-16.348-1.701-20.497,5.469c-5.929,10.243-16.95,16.606-28.765,16.607
	v30c22.484-0.001,43.455-12.102,54.729-31.58C314.882,376.85,312.435,367.674,305.265,363.523z"/>
<g>
</g>
<g>
</g>
<g>
</g>
<g>
</g>
<g>
</g>
<g>
</g>
<g>
</g>
<g>
</g>
<g>
</g>
<g>
</g>
<g>
</g>
<g>
</g>
<g>
</g>
<g>
</g>
<g>
</g>
</svg>
