<?xml version="1.0" encoding="iso-8859-1"?>
<!-- Generator: Adobe Illustrator 19.0.0, SVG Export Plug-In . SVG Version: 6.00 Build 0)  -->
<svg version="1.1" id="Capa_1" xmlns="http://www.w3.org/2000/svg" xmlns:xlink="http://www.w3.org/1999/xlink" x="0px" y="0px"
	 viewBox="0 0 512 512" style="enable-background:new 0 0 512 512;" xml:space="preserve">
<path style="fill:#FCC892;" d="M65.167,405.6C34.748,405.6,10,380.853,10,350.434c0-19.22,9.758-36.751,26.102-46.896
	c7.039-4.37,16.287-2.206,20.656,4.834c4.368,7.038,2.204,16.286-4.834,20.654C44.457,333.661,40,341.663,40,350.434
	C40,364.31,51.29,375.6,65.167,375.6c7.528,0,14.602-3.332,19.407-9.141c5.279-6.384,14.734-7.277,21.119-1.998
	c6.383,5.28,7.277,14.736,1.996,21.119C97.166,398.303,81.667,405.6,65.167,405.6z"/>
<path style="fill:#FCA953;" d="M446.834,405.6c-16.498,0-31.996-7.296-42.522-20.016c-5.28-6.383-4.387-15.839,1.996-21.119
	c6.383-5.283,15.838-4.388,21.119,1.994c4.806,5.81,11.879,9.141,19.406,9.141c13.877,0,25.166-11.289,25.166-25.166
	c0-8.77-4.457-16.772-11.924-21.407c-7.038-4.369-9.202-13.616-4.833-20.655c4.368-7.039,13.616-9.202,20.655-4.833
	C492.242,313.684,502,331.215,502,350.434C502,380.853,477.252,405.6,446.834,405.6z"/>
<path style="fill:#703422;" d="M448.801,208.867h-32.134c-8.284,0-15,6.716-15,15c0,8.242,6.649,14.927,14.876,14.994l-0.548,66.405
	h-0.124c-8.284,0-15,6.716-15,15s6.716,15,15,15h32.93c34.848,0,63.199-28.352,63.199-63.2S483.648,208.867,448.801,208.867z"/>
<path style="fill:#8F5240;" d="M96.132,305.267h-0.124l-0.55-66.405c8.227-0.068,14.876-6.752,14.876-14.994c0-8.284-6.716-15-15-15
	H63.2c-34.849,0-63.2,28.351-63.2,63.199s28.352,63.2,63.2,63.2h32.932c8.284,0,15-6.716,15-15S104.416,305.267,96.132,305.267z"/>
<path style="fill:#8F1711;" d="M415.871,305.267c-8.284,0-15,6.716-15,15H111.132c0-8.284-6.716-15-15-15s-15,6.716-15,15v144.601
	c0,8.284,6.716,15,15,15h319.739c8.284,0,15-6.716,15-15V320.267C430.871,311.982,424.155,305.267,415.871,305.267z"/>
<path style="fill:#6B0101;" d="M415.871,305.267c-8.284,0-15,6.716-15,15H256.002v159.601h159.869c8.284,0,15-6.716,15-15V320.267
	C430.871,311.982,424.155,305.267,415.871,305.267z"/>
<path style="fill:#A46343;" d="M427.273,197.192L266.606,36.526c-5.857-5.858-15.355-5.858-21.213,0L84.728,197.192
	c-2.813,2.813-4.394,6.628-4.394,10.606V304.2c0,96.863,78.803,175.667,175.666,175.667S431.667,401.064,431.667,304.2v-96.401
	C431.667,203.82,430.087,200.005,427.273,197.192z"/>
<path style="fill:#8F5240;" d="M427.273,197.192L266.606,36.526c-2.929-2.929-6.767-4.393-10.604-4.394v447.734
	c96.863-0.002,175.665-78.805,175.665-175.667v-96.401C431.667,203.82,430.087,200.005,427.273,197.192z"/>
<path style="fill:#FD413C;" d="M256,383.467c-22.483,0-43.453-12.099-54.727-31.573c-4.15-7.17-1.703-16.347,5.467-20.496
	c7.171-4.15,16.348-1.702,20.496,5.467c5.928,10.241,16.949,16.603,28.764,16.603s22.838-6.364,28.768-16.609
	c4.148-7.17,13.324-9.618,20.496-5.469c7.17,4.149,9.619,13.325,5.469,20.496C299.459,371.365,278.486,383.467,256,383.467z"/>
<path style="fill:#3B211A;" d="M191.736,262.967c-3.951,0-7.82-1.6-10.61-4.39c-2.79-2.79-4.39-6.66-4.39-10.61
	c0-3.939,1.6-7.81,4.39-10.6c2.79-2.79,6.659-4.4,10.61-4.4c3.949,0,7.81,1.61,10.6,4.4c2.8,2.79,4.4,6.66,4.4,10.6
	c0,3.95-1.601,7.82-4.4,10.61C199.546,261.367,195.686,262.967,191.736,262.967z"/>
<path style="fill:#0F0301;" d="M320.266,262.967c-3.949,0-7.82-1.6-10.609-4.39c-2.791-2.79-4.391-6.66-4.391-10.61
	c0-3.939,1.6-7.81,4.391-10.6c2.789-2.79,6.66-4.4,10.609-4.4c3.95,0,7.82,1.61,10.61,4.4c2.79,2.79,4.39,6.66,4.39,10.6
	c0,3.95-1.6,7.82-4.39,10.61C328.086,261.367,324.216,262.967,320.266,262.967z"/>
<path style="fill:#8F1711;" d="M256,32.133c-96.863,0-175.666,78.804-175.666,175.666c0,8.284,6.716,15,15,15
	c71.611,0,133.342-43.078,160.666-104.676c27.324,61.598,89.055,104.676,160.667,104.676c8.284,0,15-6.716,15-15
	C431.667,110.937,352.863,32.133,256,32.133z"/>
<path style="fill:#DA0806;" d="M305.264,331.389c-7.171-4.15-16.348-1.701-20.497,5.469c-5.929,10.243-16.95,16.607-28.765,16.607
	v30c22.484-0.001,43.455-12.102,54.729-31.58C314.881,344.715,312.434,335.539,305.264,331.389z"/>
<path style="fill:#6B0101;" d="M416.667,222.799c8.284,0,15-6.716,15-15c0-96.861-78.802-175.664-175.665-175.666v85.996
	C283.328,179.723,345.057,222.799,416.667,222.799z"/>
<g>
</g>
<g>
</g>
<g>
</g>
<g>
</g>
<g>
</g>
<g>
</g>
<g>
</g>
<g>
</g>
<g>
</g>
<g>
</g>
<g>
</g>
<g>
</g>
<g>
</g>
<g>
</g>
<g>
</g>
</svg>
