<?xml version="1.0" encoding="iso-8859-1"?>
<!-- Generator: Adobe Illustrator 19.0.0, SVG Export Plug-In . SVG Version: 6.00 Build 0)  -->
<svg version="1.1" id="Capa_1" xmlns="http://www.w3.org/2000/svg" xmlns:xlink="http://www.w3.org/1999/xlink" x="0px" y="0px"
	 viewBox="0 0 512 512" style="enable-background:new 0 0 512 512;" xml:space="preserve">
<g>
	<path style="fill:#FFC502;" d="M146.839,303.888c-2.037,4.404-3.594,9.007-4.626,13.679c-4.112,18.625,0.052,37.175,10.012,51.829
		c4.481-2.681,9.715-4.227,15.306-4.227h24.332v-20.61c0-0.35,0.088-1.164,0.902-1.164c0.188,0,0.395,0.043,0.613,0.129
		l30.141,11.732v-27.017c-41.081-13.645-70.793-52.435-70.793-98.037v-34.829c-6.124-3.007-11.905-6.916-17.147-11.658
		c-10,8.976-17.399,21.029-20.511,35.122c-5.895,26.699,4.884,53.937,27.461,69.392
		C147.595,291.697,149.417,298.315,146.839,303.888z"/>
	<path style="fill:#FFC502;" d="M396.934,218.837c-3.868-17.52-14.353-31.894-28.235-41.113h-9.423v52.478
		c0,45.603-29.713,84.392-70.794,98.037v27.017l30.14-11.732c0.22-0.085,0.426-0.129,0.614-0.129c0.814,0,0.902,0.814,0.902,1.164
		v20.61h24.332c5.59,0,10.824,1.545,15.306,4.226c9.959-14.654,14.124-33.203,10.013-51.829c-1.031-4.672-2.589-9.274-4.625-13.679
		c-2.58-5.572-0.757-12.19,4.31-15.659C392.049,272.773,402.827,245.536,396.934,218.837z"/>
</g>
<path style="fill:#FFB98A;" d="M233.687,359.214c0.116,0.045,0.239,0.068,0.363,0.068h43.9c0.124,0,0.247-0.023,0.362-0.068
	l11.168-4.347v-26.963c-10.504,3.609-21.767,5.574-33.48,5.574c-11.714,0-22.977-1.964-33.481-5.574v26.964L233.687,359.214z"/>
<path style="fill:#693FBA;" d="M344.469,364.169h-24.332v47.388c0,0.388-0.1,0.712-0.279,0.912c-0.15,0.167-0.36,0.251-0.623,0.251
	c-0.189,0-0.395-0.043-0.613-0.128l-40.309-15.691c-0.115-0.045-0.238-0.068-0.362-0.068h-43.9c-0.124,0-0.247,0.023-0.363,0.068
	l-40.308,15.691c-0.219,0.085-0.425,0.128-0.614,0.128c-0.814,0-0.902-0.814-0.902-1.164v-47.388h-24.332
	c-17.04,0-30.905,13.864-30.905,30.905v111.775c0,2.845,2.306,5.151,5.151,5.151h228.447c2.845,0,5.15-2.306,5.15-5.151V395.074
	C375.374,378.033,361.509,364.169,344.469,364.169z"/>
<path style="opacity:0.15;fill:#030005;enable-background:new    ;" d="M190.863,364.909v-0.74h-23.332
	c-17.04,0-30.905,13.864-30.905,30.905v111.775c0,2.845,2.306,5.151,5.151,5.151h30.002c-2.845,0-5.151-2.306-5.151-5.151V395.074
	C166.628,380.324,177.02,367.968,190.863,364.909z"/>
<path style="fill:#42238E;" d="M260.487,458.675c-0.841,1.71-2.581,2.794-4.487,2.794s-3.647-1.083-4.487-2.794l-3.013-6.128V512h15
	v-59.453L260.487,458.675z"/>
<g>
	<path style="fill:#203A74;" d="M223.602,401.9l-17.892,6.965l-6.648,27.561c-0.665,2.753,1.079,5.386,3.874,5.849l44.111,7.316
		L223.602,401.9z"/>
	<path style="fill:#203A74;" d="M312.938,436.426l-6.647-27.561l-17.892-6.965l-23.445,47.69l44.111-7.316
		C311.859,441.812,313.603,439.179,312.938,436.426z"/>
</g>
<path style="fill:#FFFFFF;" d="M278.313,396.901c-0.115-0.045-0.238-0.068-0.362-0.068h-43.9c-0.124,0-0.247,0.023-0.363,0.068
	L223.159,401l28.354,57.676c0.841,1.71,2.581,2.794,4.487,2.794s3.646-1.083,4.487-2.794L288.841,401L278.313,396.901z"/>
<path style="fill:#EF5050;" d="M318.258,342.592l-40.308,15.69h-43.9l-40.308-15.69c-1.583-0.618-2.879,0.268-2.879,1.967v66.999
	c0,1.7,1.296,2.585,2.879,1.967l40.308-15.691h43.9l40.308,15.691c1.583,0.618,2.879-0.267,2.879-1.967v-66.999
	C321.137,342.859,319.841,341.974,318.258,342.592z"/>
<path style="fill:#FFC7A9;" d="M151.726,177.724v52.478c0,57.59,46.686,104.275,104.274,104.275
	c57.59,0,104.274-46.685,104.274-104.275v-52.478H151.726z"/>
<path style="fill:#F7931E;" d="M182.563,202.46c-19.269-0.002-38.113-8.624-52.034-23.735h104.057
	c-9.959,10.895-22.343,18.401-35.943,21.763c-5.294,1.309-10.703,1.972-16.075,1.972C182.566,202.46,182.565,202.46,182.563,202.46z
	"/>
<g style="opacity:0.15;">
	<path style="fill:#440075;" d="M181.374,230.202v-27.776c-10.257-0.19-20.365-2.804-29.648-7.542v35.317
		c0,57.59,46.686,104.275,104.274,104.275c5.033,0,9.981-0.364,14.825-1.054C220.259,326.225,181.374,282.758,181.374,230.202z"/>
</g>
<path style="fill:#FFC502;" d="M235.521,177.724c-8.718,10.079-19.728,17.848-32.393,22.119c11.977,4.056,25.009,4.846,38.077,1.615
	c15.003-3.709,27.964-12.213,37.93-23.734L235.521,177.724L235.521,177.724z"/>
<path style="fill:#FCDB67;" d="M128.291,177.724c17.693,20.32,44.074,30.289,70.591,23.734c15.004-3.709,27.965-12.213,37.93-23.734
	H128.291z"/>
<path style="fill:#D2957D;" d="M265.145,269.74h-8.997c-9.097,0-16.499-7.986-16.499-17.802V229.42c0-4.142,3.358-7.5,7.5-7.5
	s7.5,3.358,7.5,7.5v22.518c0,1.743,1.041,2.802,1.499,2.802h8.997c4.143,0,7.5,3.358,7.5,7.5S269.287,269.74,265.145,269.74z"/>
<g>
	<path style="fill:#046699;" d="M206.013,250.167c-11.791,0-21.384-9.617-21.384-21.438c0-11.82,9.593-21.437,21.384-21.437
		c11.79,0,21.383,9.616,21.383,21.437S217.804,250.167,206.013,250.167z"/>
	<path style="fill:#046699;" d="M305.988,250.167c-11.792,0-21.385-9.617-21.385-21.438c0-11.82,9.593-21.437,21.385-21.437
		c11.79,0,21.383,9.616,21.383,21.437S317.779,250.167,305.988,250.167z"/>
</g>
<path style="fill:#42238E;" d="M351.148,121.983V5.151c0-2.833-2.317-5.151-5.15-5.151H166.002c-2.833,0-5.151,2.318-5.151,5.151
	v116.832H351.148z"/>
<path style="opacity:0.15;fill:#030005;enable-background:new    ;" d="M190.354,121.983V5.151c0-2.833,2.318-5.151,5.151-5.151
	h-29.502c-2.833,0-5.151,2.318-5.151,5.151v116.832H190.354z"/>
<path style="fill:#9EA7AF;" d="M360.148,155.276v-29.923c0-2.833-2.318-5.151-5.151-5.151H157.002c-2.833,0-5.151,2.318-5.151,5.151
	v29.923H360.148z"/>
<path style="opacity:0.15;fill:#440075;enable-background:new    ;" d="M181.827,155.276v-29.923c0-2.833,2.318-5.151,5.151-5.151
	h-29.976c-2.833,0-5.151,2.318-5.151,5.151v29.923H181.827z"/>
<path style="fill:#693FBA;" d="M409.497,173.585c0,2.833-2.318,5.151-5.151,5.151H107.654c-2.833,0-5.151-2.318-5.151-5.151v-14.422
	c0-2.833,2.318-5.151,5.151-5.151h296.692c2.833,0,5.151,2.318,5.151,5.151L409.497,173.585L409.497,173.585z"/>
<g style="opacity:0.15;">
	<path style="fill:#030005;" d="M133.408,173.585v-14.422c0-2.833,2.318-5.151,5.151-5.151h-30.906
		c-2.833,0-5.151,2.318-5.151,5.151v14.422c0,2.833,2.318,5.151,5.151,5.151h30.906
		C135.727,178.736,133.408,176.419,133.408,173.585z"/>
</g>
<path style="fill:#D2957D;" d="M262.62,309.022c-4.491,0-9.006-0.689-13.414-2.079c-3.951-1.245-6.144-5.458-4.898-9.408
	c1.246-3.951,5.46-6.145,9.408-4.898c7.494,2.361,15.454,1.668,22.412-1.954c6.958-3.622,12.091-9.744,14.453-17.239
	c1.245-3.951,5.459-6.145,9.408-4.898c3.95,1.245,6.143,5.457,4.898,9.408c-3.567,11.316-11.321,20.561-21.833,26.034
	C276.638,307.33,269.658,309.022,262.62,309.022z"/>
<g>
	<path style="fill:#C0272D;" d="M318.258,342.592l-40.308,15.69v39.551l40.308,15.691c1.583,0.618,2.879-0.267,2.879-1.967v-66.999
		C321.137,342.859,319.841,341.974,318.258,342.592z"/>
	<path style="fill:#C0272D;" d="M234.05,358.282l-40.308-15.69c-1.583-0.618-2.879,0.268-2.879,1.967v66.999
		c0,1.7,1.296,2.585,2.879,1.967l40.308-15.691V358.282z"/>
</g>
<g>
	<path style="fill:#42238E;" d="M275.569,475.5c-1.97,0-3.899-0.8-5.3-2.2c-1.399-1.39-2.2-3.32-2.2-5.3c0-1.97,0.801-3.91,2.2-5.3
		c1.4-1.4,3.33-2.2,5.3-2.2c1.98,0,3.91,0.8,5.311,2.2c1.39,1.4,2.189,3.33,2.189,5.3s-0.8,3.91-2.189,5.3
		C279.479,474.7,277.55,475.5,275.569,475.5z"/>
	<path style="fill:#42238E;" d="M275.569,503.5c-1.97,0-3.899-0.8-5.3-2.2c-1.399-1.39-2.2-3.33-2.2-5.3s0.801-3.91,2.2-5.3
		c1.4-1.4,3.33-2.2,5.3-2.2c1.98,0,3.91,0.8,5.311,2.2c1.39,1.39,2.189,3.33,2.189,5.3s-0.8,3.9-2.189,5.3
		C279.479,502.7,277.55,503.5,275.569,503.5z"/>
	<path style="fill:#42238E;" d="M224.395,484.023c0,1.7-1.391,3.091-3.091,3.091h-55.131c-1.7,0-3.09-1.391-3.09-3.091v-14.1
		c0-1.7,1.391-3.09,3.09-3.09h55.131c1.7,0,3.091,1.391,3.091,3.09V484.023z"/>
</g>
<g>
</g>
<g>
</g>
<g>
</g>
<g>
</g>
<g>
</g>
<g>
</g>
<g>
</g>
<g>
</g>
<g>
</g>
<g>
</g>
<g>
</g>
<g>
</g>
<g>
</g>
<g>
</g>
<g>
</g>
</svg>
