<?xml version="1.0" encoding="iso-8859-1"?>
<!-- Generator: Adobe Illustrator 19.0.0, SVG Export Plug-In . SVG Version: 6.00 Build 0)  -->
<svg version="1.1" id="Capa_1" xmlns="http://www.w3.org/2000/svg" xmlns:xlink="http://www.w3.org/1999/xlink" x="0px" y="0px"
	 viewBox="0 0 512.001 512.001" style="enable-background:new 0 0 512.001 512.001;" xml:space="preserve">
<g>
	<path style="fill:#D4AA3D;" d="M183.879,175.335c-0.322-0.473-18.974-28.117-36.35-65.834c9.856-9.49,23.336-25.773,33.28-50.748
		c4.161-10.45-0.937-22.294-11.387-26.456c-10.449-4.16-22.294,0.937-26.456,11.387c-3.762,9.448-8.12,17.088-12.393,23.18
		c-5.286-16.032-9.424-32.638-11.371-48.915C117.865,6.782,107.731-1.19,96.559,0.147C85.391,1.484,77.42,11.621,78.756,22.789
		c2.791,23.322,9.29,46.843,17.287,68.764c-12.599-5.613-21.646-13.143-27.612-19.404c-6.26-6.57-16.053-8.319-24.136-4.192l0,0
		c-12.142,6.198-14.867,22.286-5.528,32.217c14.371,15.283,39.281,33.989,77.754,39.021c16.586,33.726,32.415,57.195,33.686,59.061
		c3.941,5.791,10.341,8.908,16.855,8.908c3.946,0,7.933-1.145,11.441-3.532C187.801,197.302,190.208,184.633,183.879,175.335z"/>
	<path style="fill:#D4AA3D;" d="M328.123,175.335c0.322-0.473,18.974-28.117,36.35-65.834c-9.856-9.49-23.336-25.773-33.28-50.748
		c-4.161-10.45,0.937-22.294,11.387-26.456c10.449-4.16,22.294,0.937,26.456,11.387c3.762,9.448,8.12,17.088,12.393,23.18
		c5.286-16.032,9.424-32.638,11.371-48.915c1.336-11.168,11.469-19.14,22.641-17.803c11.168,1.336,19.139,11.473,17.803,22.641
		c-2.791,23.322-9.29,46.843-17.287,68.764c12.6-5.613,21.647-13.142,27.613-19.404c6.26-6.57,16.053-8.319,24.136-4.192l0,0
		c12.142,6.198,14.867,22.286,5.528,32.217c-14.371,15.283-39.281,33.989-77.754,39.021c-16.586,33.726-32.415,57.195-33.686,59.061
		c-3.941,5.791-10.341,8.908-16.855,8.908c-3.946,0-7.933-1.145-11.441-3.532C324.201,197.302,321.795,184.633,328.123,175.335z"/>
</g>
<path style="fill:#F0C146;" d="M393.813,345.587h-10.461l3.606,9.656c-0.421,2.907-4.621,29.18-22.094,56.047
	c-16.989,26.123-49.667,57.263-108.861,57.263s-91.872-31.14-108.861-57.263c-17.473-26.867-21.673-53.14-22.094-56.047l5.144-9.656
	h-12.001c-17.81,4.51-28.591,22.604-24.079,40.414c3.739,14.76,16.808,24.682,31.312,25.083
	c-8.266,11.924-8.011,28.332,1.669,40.085s25.734,15.149,39.022,9.321c-2.387,14.312,4.847,29.041,18.616,35.539
	s29.738,2.718,39.268-8.224c3.95,13.962,16.778,24.196,32.004,24.196s28.054-10.234,32.003-24.196
	c9.53,10.942,25.498,14.722,39.268,8.224c13.77-6.498,21.003-21.227,18.616-35.539c13.287,5.828,29.343,2.432,39.022-9.321
	c9.68-11.753,9.935-28.16,1.669-40.085c14.504-0.401,27.574-10.323,31.312-25.083C422.403,368.192,411.622,350.098,393.813,345.587z
	"/>
<path style="fill:#272933;" d="M343.627,345.587H169.29l1.106,3.082l-0.018-0.117c0.031,0.198,3.232,20.006,15.968,38.953
	c15.712,23.373,39.148,35.224,69.655,35.224s53.941-11.851,69.654-35.224c12.737-18.946,15.938-38.754,15.969-38.953l-0.018,0.117
	L343.627,345.587z"/>
<path style="fill:#F0C146;" d="M302.675,123.362c-10.041,1.982-20.023-3.62-23.607-13.206
	c-4.304-11.511-11.696-24.588-23.068-24.588s-18.765,13.077-23.068,24.588c-3.584,9.587-13.565,15.188-23.607,13.206
	c-41.883-8.266-41.925-2.393-42.284,43.83v81.367h177.916v-81.367C344.6,120.968,344.559,115.096,302.675,123.362z"/>
<path style="fill:#D83D59;" d="M190.221,174.985l6.159-13.492c2.281-4.996,8.4-6.898,13.111-4.075l4.398,2.635
	c4.992,2.992,11.473,0.66,13.415-4.826l0,0c2.102-5.938,9.411-8.06,14.367-4.172l8.645,6.784c3.338,2.619,8.032,2.619,11.37,0
	l8.645-6.784c4.955-3.889,12.264-1.766,14.367,4.172l0,0c1.942,5.487,8.423,7.818,13.415,4.826l4.398-2.635
	c4.711-2.823,10.83-0.921,13.111,4.075l6.159,13.492c0.548,1.2,0.831,2.504,0.831,3.824v36.486c0,5.086-4.123,9.209-9.209,9.209
	H198.598c-5.086,0-9.209-4.123-9.209-9.209V178.81C189.39,177.49,189.673,176.186,190.221,174.985z"/>
<g>
	<path style="fill:#6CB89C;" d="M391.306,173.018c33.134-35.696,50.368-9.789,27.354,32.98
		c26.545-31.907,52.884,14.257,8.079,46.975c46.163-24.306,50.916,29.737-19.327,67.834l-16.106,23.001h-71.83l-63.475-19.579
		l39.693-85.491L391.306,173.018z"/>
	<path style="fill:#6CB89C;" d="M120.696,173.018c-33.134-35.696-50.368-9.789-27.354,32.98
		c-26.545-31.907-52.884,14.257-8.079,46.975c-46.163-24.306-50.916,29.737,19.327,67.834l16.106,23.001h71.83l63.475-19.579
		l-39.693-85.491L120.696,173.018z"/>
</g>
<path style="fill:#45A97A;" d="M392.838,186.796l8.685,13.504c1.64,2.551,2.818,5.371,3.477,8.331l0,0
	c8.515,38.213,4.667,67.774-11.437,87.862c-12.465,15.548-31.664,24.112-54.062,24.113c-0.002,0-0.002,0-0.004,0
	c-13.507,0-28.14-3.175-41.205-8.94l-1.544-0.681l-7.575-32.553l31.527-71.268L392.838,186.796z"/>
<path style="fill:#F2F2F2;" d="M379.864,214.232c19.041,85.451-37.833,88.583-71.172,73.871l-30.679-18.66l48.252-70.397
	l38.696-7.984L379.864,214.232z"/>
<path style="fill:#272933;" d="M362.781,212.836l-40.169-5.672l-13.011,48.109c5.4,12.11,15.771,20.31,27.685,20.31
	c17.479,0,31.649-17.642,31.649-39.405C368.935,227.44,366.647,219.37,362.781,212.836z"/>
<path style="fill:#BB9437;" d="M392.214,145.726c-15.342,30.193-29.231,50.786-30.419,52.529
	c-3.941,5.791-10.341,8.908-16.855,8.908c-3.946,0-7.933-1.145-11.441-3.532c-9.298-6.329-11.705-18.998-5.376-28.296
	c0.225-0.33,9.359-13.872,20.757-34.817c3.208-0.334,6.462-0.505,9.764-0.505C371.894,140.014,383.568,142.788,392.214,145.726z"/>
<path style="fill:#3C3F4F;" d="M395.866,175.852c-0.333-0.364-0.677-0.724-1.035-1.082c0,0-67.332-38.538-104.609,43.866
	l-12.21,50.809h24.331c21.144-45.871,47.619-60.766,71.011-55.731C395.255,218.426,410.982,192.384,395.866,175.852z"/>
<path style="fill:#45A97A;" d="M119.164,186.796l-8.685,13.504c-1.64,2.551-2.818,5.371-3.477,8.331l0,0
	c-8.515,38.213-4.667,67.774,11.437,87.862c12.465,15.548,31.664,24.112,54.062,24.113c0.002,0,0.002,0,0.004,0
	c13.507,0,28.14-3.175,41.205-8.94l1.544-0.681l7.575-32.553l-31.527-71.268L119.164,186.796z"/>
<path style="fill:#F2F2F2;" d="M132.138,214.232c-19.041,85.451,37.833,88.583,71.172,73.871l30.679-18.66l-48.252-70.397
	l-38.696-7.984L132.138,214.232z"/>
<path style="fill:#272933;" d="M189.39,204.375l-40.169,8.461c-3.865,6.534-6.153,14.605-6.153,23.342
	c0,21.763,14.17,39.405,31.649,39.405c11.914,0,22.285-8.2,27.685-20.31L189.39,204.375z"/>
<path style="fill:#BB9437;" d="M119.788,145.726c15.342,30.193,29.231,50.786,30.419,52.529c3.941,5.791,10.341,8.908,16.855,8.908
	c3.946,0,7.933-1.145,11.441-3.532c9.298-6.329,11.705-18.998,5.377-28.296c-0.225-0.33-9.359-13.872-20.757-34.817
	c-3.208-0.334-6.462-0.505-9.764-0.505C140.108,140.014,128.434,142.788,119.788,145.726z"/>
<path style="fill:#3C3F4F;" d="M116.136,175.852c0.333-0.364,0.677-0.724,1.035-1.082c0,0,67.332-38.538,104.609,43.866
	l12.21,50.809h-24.331c-21.144-45.871-47.62-60.766-71.011-55.731C116.747,218.426,101.021,192.384,116.136,175.852z"/>
<g>
	<path style="fill:#F1F2F2;" d="M205.69,430.092c0,0,5.431-46.163,21.724-44.127s11.201,58.383,11.201,58.383L205.69,430.092z"/>
	<path style="fill:#F1F2F2;" d="M306.312,430.092c0,0-5.431-46.163-21.724-44.127s-11.201,58.383-11.201,58.383L306.312,430.092z"/>
</g>
<path style="fill:#BC3245;" d="M125.045,355.243c0.421,2.907,4.621,29.18,22.094,56.047c16.99,26.123,49.667,57.263,108.861,57.263
	s91.872-31.14,108.861-57.263c17.473-26.867,21.673-53.14,22.094-56.047l-45.351-6.573l0.018-0.117
	c-0.031,0.198-3.232,20.006-15.969,38.953c-15.712,23.373-39.147,35.224-69.654,35.224s-53.942-11.851-69.655-35.224
	c-12.736-18.946-15.938-38.754-15.968-38.953l0.018,0.117L125.045,355.243z"/>
<g>
	<path style="fill:#F1F2F2;" d="M162.655,363.497c0,0,5.431,46.163,21.724,44.127s11.201-58.383,11.201-58.383L162.655,363.497z"/>
	<path style="fill:#F1F2F2;" d="M349.347,363.497c0,0-5.431,46.163-21.724,44.127c-16.293-2.037-11.201-58.383-11.201-58.383
		L349.347,363.497z"/>
</g>
<path style="fill:#D83D59;" d="M348.58,378.256c-1.841,0.001-3.643-0.075-5.418-0.228c-17.919-1.531-29.34-10.44-38.516-17.599
	c-11.314-8.827-21.087-15.431-48.645-15.431c-27.559,0-37.331,6.604-48.645,15.431c-9.177,7.159-20.597,16.069-38.516,17.599
	c-16.718,1.423-36.058-3.801-62.718-16.958c-11.348-5.599-16.008-19.338-10.408-30.685s19.338-16.005,30.686-10.409
	c22.396,11.052,33.315,12.847,38.541,12.394c4.023-0.343,6.772-2.253,14.231-8.07c13.345-10.411,33.512-26.143,76.831-26.143
	s63.486,15.732,76.831,26.143c7.458,5.817,10.207,7.727,14.231,8.07c5.214,0.456,16.143-1.34,38.542-12.394
	c11.344-5.597,25.086-0.941,30.686,10.409c5.599,11.347,0.939,25.086-10.409,30.686C382.051,372.829,364.066,378.256,348.58,378.256
	z"/>
<circle style="fill:#F0C146;" cx="256.001" cy="238.735" r="39.693"/>
<path style="fill:#D83D59;" d="M256.001,252.973c-7.849,0-14.235-6.385-14.235-14.234s6.386-14.234,14.235-14.234
	s14.235,6.385,14.235,14.234S263.85,252.973,256.001,252.973z"/>
<path style="fill:#6CB89C;" d="M256.001,245.867c-24.216,0-44.604,12.151-50.767,28.7l-0.435,1.238l25.52,43.453
	c7.6,3.162,16.355,4.972,25.682,4.972c9.111,0,17.675-1.727,25.15-4.755l0.533-0.216l25.52-43.453
	C301.614,258.629,280.818,245.867,256.001,245.867z"/>
<g>
	<path style="fill:#272933;" d="M208.259,275.656c-1.169,0-2.323,0.053-3.46,0.149c-0.964,2.965-1.489,6.057-1.489,9.243
		c0,14.703,10.897,27.508,27.008,34.21c6.114-4.607,9.93-11.103,9.93-18.308C240.249,286.981,225.926,275.656,208.259,275.656z"/>
	<path style="fill:#272933;" d="M303.743,275.656c1.169,0,2.323,0.053,3.46,0.149c0.964,2.965,1.489,6.057,1.489,9.243
		c0,14.703-10.897,27.508-27.008,34.21c-6.114-4.607-9.93-11.103-9.93-18.308C271.754,286.981,286.076,275.656,303.743,275.656z"/>
</g>
<g>
</g>
<g>
</g>
<g>
</g>
<g>
</g>
<g>
</g>
<g>
</g>
<g>
</g>
<g>
</g>
<g>
</g>
<g>
</g>
<g>
</g>
<g>
</g>
<g>
</g>
<g>
</g>
<g>
</g>
</svg>
