<?xml version="1.0" encoding="iso-8859-1"?>
<!-- Generator: Adobe Illustrator 19.0.0, SVG Export Plug-In . SVG Version: 6.00 Build 0)  -->
<svg version="1.1" id="Capa_1" xmlns="http://www.w3.org/2000/svg" xmlns:xlink="http://www.w3.org/1999/xlink" x="0px" y="0px"
	 viewBox="0 0 512 512" style="enable-background:new 0 0 512 512;" xml:space="preserve">
<path style="fill:#703422;" d="M448.8,232.967h-32.134c-8.284,0-15,6.716-15,15c0,8.242,6.649,14.927,14.876,14.994l-0.547,66.405
	h-0.124c-8.284,0-15,6.716-15,15s6.716,15,15,15H448.8c34.849,0,63.2-28.352,63.2-63.2S483.648,232.967,448.8,232.967z"/>
<path style="fill:#8F5240;" d="M96.131,329.366h-0.124l-0.55-66.405c8.227-0.068,14.876-6.752,14.876-14.994c0-8.284-6.716-15-15-15
	H63.199C28.351,232.967,0,261.317,0,296.166s28.351,63.2,63.199,63.2h32.932c8.284,0,15-6.716,15-15S104.415,329.366,96.131,329.366
	z"/>
<path style="fill:#A46343;" d="M426.671,172.523c-21.361-19.12-45.556-34.408-71.913-45.438c-4.783-2.003-10.256-1.392-14.48,1.609
	c-24.709,17.559-53.852,26.839-84.278,26.839s-59.568-9.28-84.277-26.839c-4.224-3.002-9.698-3.613-14.479-1.609
	c-26.356,11.028-50.553,26.316-71.915,45.438c-3.18,2.846-4.996,6.91-4.996,11.177v144.6c0,96.863,78.804,175.667,175.667,175.667
	c96.862,0,175.666-78.804,175.666-175.667V183.7C431.666,179.434,429.85,175.369,426.671,172.523z"/>
<path style="fill:#8F5240;" d="M426.671,172.523c-21.361-19.12-45.556-34.408-71.913-45.438c-4.783-2.003-10.256-1.392-14.48,1.609
	c-24.709,17.559-53.852,26.839-84.278,26.839v348.434c96.862,0,175.666-78.804,175.666-175.667V183.7
	C431.666,179.434,429.85,175.369,426.671,172.523z"/>
<g>
	<path style="fill:#3B211A;" d="M497,8.033H175.666c-52.566,0-95.333,42.767-95.333,95.333V183.7c0,5.916,3.478,11.28,8.879,13.694
		c1.964,0.878,4.048,1.306,6.118,1.306c3.623,0,7.201-1.313,10.007-3.823c16.867-15.098,35.73-27.487,56.164-36.9
		c28.215,18.055,60.705,27.556,94.499,27.556s66.285-9.501,94.5-27.556c20.434,9.413,39.297,21.803,56.161,36.9
		c4.407,3.944,10.723,4.934,16.126,2.518c5.401-2.414,8.879-7.778,8.879-13.694v-50.445C477.134,126.04,512,86.565,512,39.1V23.033
		C512,14.749,505.284,8.033,497,8.033z"/>
	<path style="fill:#3B211A;" d="M191.735,254.938c-3.949,0-7.81-1.601-10.609-4.391c-2.79-2.8-4.391-6.659-4.391-10.609
		s1.601-7.811,4.391-10.61c2.79-2.79,6.66-4.39,10.609-4.39c3.95,0,7.811,1.6,10.601,4.39c2.8,2.8,4.399,6.66,4.399,10.61
		s-1.6,7.819-4.399,10.609C199.546,253.337,195.676,254.938,191.735,254.938z"/>
</g>
<path style="fill:#0F0301;" d="M320.266,254.938c-3.95,0-7.81-1.601-10.61-4.391c-2.789-2.8-4.39-6.659-4.39-10.609
	s1.601-7.811,4.39-10.61c2.79-2.79,6.66-4.39,10.61-4.39s7.811,1.6,10.61,4.39c2.79,2.8,4.39,6.66,4.39,10.61
	s-1.6,7.819-4.39,10.609C328.076,253.337,324.216,254.938,320.266,254.938z"/>
<path style="fill:#3B211A;" d="M316.835,388c-8.284,0-15-6.716-15-15v-25.242c-14.725-4.888-30.099-7.36-45.833-7.36
	c-15.735,0-31.109,2.473-45.834,7.36V373c0,8.284-6.716,15-15,15s-15-6.716-15-15v-35.673c0-6.088,3.68-11.572,9.313-13.88
	c21.135-8.659,43.516-13.05,66.521-13.05s45.385,4.391,66.52,13.05c5.634,2.308,9.313,7.792,9.313,13.88V373
	C331.835,381.284,325.119,388,316.835,388z"/>
<g>
	<path style="fill:#0F0301;" d="M322.522,323.447c-21.135-8.659-43.515-13.05-66.52-13.05c0,0-0.001,0-0.002,0v30
		c0.001,0,0.001,0,0.001,0c15.735,0,31.109,2.473,45.834,7.36V373c0,8.284,6.716,15,15,15s15-6.716,15-15v-35.673
		C331.835,331.239,328.155,325.755,322.522,323.447z"/>
	<path style="fill:#0F0301;" d="M497,8.033H256v177.5c33.794,0,66.285-9.501,94.5-27.556c20.434,9.413,39.297,21.803,56.161,36.9
		c4.407,3.944,10.723,4.934,16.126,2.518c5.401-2.414,8.879-7.778,8.879-13.694v-50.445C477.134,126.04,512,86.565,512,39.1V23.033
		C512,14.749,505.284,8.033,497,8.033z"/>
</g>
<g>
</g>
<g>
</g>
<g>
</g>
<g>
</g>
<g>
</g>
<g>
</g>
<g>
</g>
<g>
</g>
<g>
</g>
<g>
</g>
<g>
</g>
<g>
</g>
<g>
</g>
<g>
</g>
<g>
</g>
</svg>
