<?xml version="1.0" encoding="iso-8859-1"?>
<!-- Generator: Adobe Illustrator 19.0.0, SVG Export Plug-In . SVG Version: 6.00 Build 0)  -->
<svg version="1.1" id="Capa_1" xmlns="http://www.w3.org/2000/svg" xmlns:xlink="http://www.w3.org/1999/xlink" x="0px" y="0px"
	 viewBox="0 0 512 512" style="enable-background:new 0 0 512 512;" xml:space="preserve">
<g>
	<path style="fill:#775436;" d="M149.01,151h-21.146c-0.758,0-1.488-0.088-2.184-0.245v53.737c0,12.517,10.147,22.664,22.664,22.664
		h0.707c-0.031-1.041-0.053-2.085-0.053-3.134C148.999,224.023,149.005,178.595,149.01,151z"/>
	<path style="fill:#775436;" d="M384.134,151h-21.135c0.005,27.595,0,73.023,0,73.023c0,1.049-0.021,2.093-0.053,3.134h0.707
		c12.517,0,22.664-10.147,22.664-22.664v-53.737C385.622,150.912,384.892,151,384.134,151z"/>
</g>
<path style="fill:#D2957D;" d="M400.047,358.245h-7.519v12.366c0,1.153-0.938,2.091-2.091,2.091h-63.018
	c-0.228,0-0.449,0.078-0.627,0.222l-0.778,0.627c-1.304,1.05-2.031,2.479-2.049,4.025c-0.018,1.547,0.676,2.993,1.955,4.074
	l15.293,12.923c0.836,0.706,1.331,1.684,1.396,2.753c0.064,1.069-0.311,2.099-1.055,2.9l-77.055,82.898v-44.221
	c0-0.45-0.301-0.845-0.735-0.965c-0.088-0.023-0.177-0.035-0.265-0.035c-0.347,0-0.677,0.181-0.86,0.489l-2.239,3.772
	c-1.211,2.041-2.773,3.166-4.398,3.166c-1.625,0-3.188-1.124-4.399-3.165l-2.244-3.778c-0.183-0.309-0.513-0.489-0.859-0.489
	c-0.088,0-0.177,0.012-0.265,0.036c-0.435,0.119-0.735,0.514-0.735,0.964v44.423l-75.083-83.036
	c-0.735-0.813-1.101-1.855-1.028-2.937c0.072-1.081,0.574-2.066,1.412-2.775l15.292-12.923c1.284-1.086,1.968-2.524,1.924-4.052
	c-0.045-1.525-0.809-2.921-2.152-3.93l-1.021-0.767c-0.174-0.13-0.384-0.2-0.601-0.2h-64.681c-1.153,0-2.091-0.938-2.091-2.091
	v-12.366h-7.52c-8.498,0-15.452,6.954-15.452,15.453v128c0,5.666,4.636,10.302,10.302,10.302h298.398
	c5.666,0,10.302-4.636,10.302-10.302v-128C415.5,365.199,408.546,358.245,400.047,358.245z"/>
<path style="fill:#B2762F;" d="M261.26,441.431c-2.893,4.873-7.625,4.873-10.518,0.001l-2.243-3.779V512h15v-74.342L261.26,441.431z
	"/>
<path style="fill:#FFFFFF;" d="M172.417,400.285c-0.735-0.813-1.101-1.855-1.028-2.937c0.072-1.081,0.574-2.066,1.412-2.775
	l4.453-3.764c-1.208-2.521-3.776-4.266-6.759-4.266h-13.393c-4.142,0-7.5,3.357-7.5,7.5s3.358,7.5,7.5,7.5h13.393
	c0.925,0,1.807-0.175,2.625-0.481L172.417,400.285z"/>
<path style="opacity:0.15;fill:#440075;enable-background:new    ;" d="M126.55,501.698v-128c0-0.336,0.029-0.665,0.051-0.996h-5.04
	c-1.153,0-2.091-0.938-2.091-2.091v-12.366h-7.52c-8.498,0-15.452,6.954-15.452,15.453v128c0,5.666,4.636,10.302,10.302,10.302
	h30.053C131.188,512,126.55,507.364,126.55,501.698z"/>
<g>
	<path style="fill:#775436;" d="M387.606,512v-33.6c0-1.7-1.391-3.091-3.09-3.091h-58.019c-1.7,0-3.091,1.391-3.091,3.091V512
		H387.606z"/>
	<path style="fill:#775436;" d="M96.498,424.949h32.274c5.974,0,10.817-4.843,10.817-10.816s-4.844-10.816-10.817-10.816H96.498
		V424.949z"/>
</g>
<path style="fill:#B2762F;" d="M415.5,397.135h-40.515c-5.975,0-10.817,4.843-10.817,10.816c0,5.975,4.843,10.817,10.817,10.817
	h40.515L415.5,397.135L415.5,397.135z"/>
<g>
	<path style="fill:#775436;" d="M225.094,490.366c-5.974,0-10.817,4.843-10.817,10.817s4.844,10.816,10.817,10.816h23.405v-21.634
		h-23.405V490.366z"/>
	<path style="fill:#775436;" d="M286.904,490.366h-23.405V512h23.405c5.974,0,10.817-4.843,10.817-10.816
		C297.722,495.209,292.878,490.366,286.904,490.366z"/>
</g>
<g>
	<path style="fill:#FFFFFF;" d="M339.959,427.01h-23.301l-20.108,21.634h43.409c5.974,0,10.816-4.843,10.816-10.816
		C350.775,431.853,345.933,427.01,339.959,427.01z"/>
	<path style="fill:#FFFFFF;" d="M195.65,425.98h-23.611c-5.974,0-10.816,4.843-10.816,10.816c0,5.974,4.843,10.816,10.816,10.816
		h43.173L195.65,425.98z"/>
</g>
<path style="fill:#B2762F;" d="M187.863,373.669l-21.945-16.479c-0.854-0.641-1.35-1.514-1.396-2.458
	c-0.047-0.944,0.36-1.863,1.146-2.586l7.09-6.521h-51.197c-1.7,0-3.091,1.39-3.091,3.091v21.895c0,1.7,1.391,3.091,3.091,3.091
	h66.343C187.891,373.691,187.878,373.68,187.863,373.669z"/>
<path style="fill:#775436;" d="M210.923,358.245h17.232v-8.417v-11.89c-3.387-2.692-6.398-5.868-8.9-9.456
	c-2.179-2.935-4.017-6.139-5.448-9.555c-3.057-1.267-6.046-2.657-8.948-4.184l-39.866,36.666c-2.086,1.918-1.939,4.88,0.326,6.58
	l21.945,16.479c2.266,1.7,2.348,4.589,0.184,6.418l-15.292,12.923c-2.164,1.829-2.381,5.045-0.48,7.146l76.825,84.962v-47.02
	l-42.62-71.795C202.988,362.231,205.257,358.245,210.923,358.245z"/>
<path style="fill:#FFFFFF;" d="M301.075,358.245h-17.232v1.804c0,15.354-12.491,27.845-27.845,27.845s-27.845-12.491-27.845-27.845
	v-1.804h-17.232c-5.666,0-7.936,3.986-5.044,8.858l44.863,75.573c2.893,4.872,7.625,4.872,10.518-0.001l44.859-75.571
	C309.011,362.231,306.741,358.245,301.075,358.245z"/>
<g style="opacity:0.15;">
	<path style="fill:#440075;" d="M139.074,370.611v-21.895c0-1.701,1.391-3.091,3.091-3.091h-20.603c-1.7,0-3.091,1.39-3.091,3.091
		v21.895c0,1.7,1.391,3.091,3.091,3.091h20.603C140.464,373.702,139.074,372.311,139.074,370.611z"/>
</g>
<path style="fill:#B2762F;" d="M390.438,345.626h-50.905l6.796,6.451c0.781,0.741,1.189,1.695,1.149,2.687s-0.524,1.911-1.364,2.588
	l-20.101,16.199c-0.061,0.049-0.112,0.102-0.17,0.151h64.595c1.7,0,3.091-1.391,3.091-3.091v-21.895
	C393.528,347.016,392.138,345.626,390.438,345.626z"/>
<path style="fill:#775436;" d="M347.017,351.352l-39.039-37.061c-3.165,1.701-6.434,3.243-9.784,4.634
	c-1.433,3.418-3.271,6.622-5.45,9.56c-2.503,3.588-5.514,6.762-8.899,9.454v11.89v8.417h17.232c5.666,0,7.935,3.986,5.044,8.859
	l-42.62,71.799v46.766l78.787-84.762c1.928-2.074,1.736-5.268-0.428-7.098l-15.293-12.923c-2.164-1.829-2.13-4.78,0.075-6.558
	l20.101-16.199C348.947,356.352,349.071,353.302,347.017,351.352z"/>
<path style="fill:#FFB98A;" d="M255.999,347.717c-10.76,0-20.927-3.913-28.845-10.583v22.915c0,15.93,12.914,28.845,28.845,28.845
	s28.845-12.915,28.845-28.845v-22.915C276.926,343.804,266.759,347.717,255.999,347.717z"/>
<g style="opacity:0.15;">
	<path style="fill:#440075;" d="M248.788,360.049v-12.93c-8.045-1.326-15.513-4.828-21.634-9.985v22.915
		c0,15.93,12.914,28.845,28.845,28.845c3.827,0,7.476-0.752,10.816-2.104C256.246,382.509,248.788,372.152,248.788,360.049z"/>
</g>
<path style="fill:#FFC7A9;" d="M343,151H168.998c-0.005,27.595-0.009,73.023-0.009,73.023c0,43.101,21.822,80.093,52.948,95.977
	h68.124c31.125-15.885,52.947-52.876,52.947-95.977C343.009,224.023,343.005,178.595,343,151z"/>
<path style="opacity:0.15;fill:#440075;enable-background:new    ;" d="M252.313,320c-31.137-15.878-52.975-52.866-52.975-95.977
	c0,0,0.004-45.428,0.01-73.023h-30.351c-0.005,27.595-0.009,73.023-0.009,73.023c0,43.101,21.822,80.093,52.948,95.977H252.313z"/>
<g>
	<path style="fill:#D19546;" d="M221.938,320c-31.126-15.885-52.948-52.876-52.948-95.977c0,0,0.004-45.428,0.009-73.023h-21.1
		c-0.005,27.595-0.011,73.023-0.011,73.023c0,43.101,27.115,80.093,65.789,95.977H221.938z"/>
	<path style="fill:#D19546;" d="M364.099,151H343c0.005,27.595,0.009,73.023,0.009,73.023c0,43.101-21.822,80.093-52.947,95.977
		h8.26c38.673-15.885,65.787-52.876,65.787-95.977C364.108,224.023,364.103,178.595,364.099,151z"/>
</g>
<path style="fill:#D2957D;" d="M127.864,152.704c-3.191,0-5.936-1.452-7.342-3.886c-1.406-2.432-1.294-5.535,0.3-8.301
	l10.867-18.856c0.45-0.782,0.688-1.669,0.688-2.571v-15.041C132.378,46.676,179.054,0,236.426,0h39.146
	c57.372,0,104.049,46.676,104.049,104.049v15.041c0,0.902,0.237,1.789,0.688,2.571l10.867,18.856c1.594,2.766,1.706,5.869,0.3,8.301
	c-1.405,2.434-4.15,3.886-7.342,3.886H127.864z"/>
<g style="opacity:0.15;">
	<path style="fill:#440075;" d="M150.87,148.818c-1.405-2.432-1.294-5.535,0.3-8.301l10.867-18.856
		c0.451-0.782,0.688-1.669,0.688-2.571v-15.041C162.727,46.676,209.401,0,266.773,0h-30.348
		c-57.372,0-104.049,46.676-104.049,104.049v15.041c0,0.902-0.237,1.789-0.688,2.571l-10.867,18.856
		c-1.594,2.766-1.706,5.869-0.3,8.301c1.405,2.434,4.15,3.886,7.342,3.886h30.348C155.022,152.704,152.275,151.252,150.87,148.818z"
		/>
</g>
<path style="fill:#B2762F;" d="M335.838,105.594c-5.974,0-10.816,4.843-10.816,10.816c0,5.975,4.843,10.817,10.816,10.817h47.679
	l-3.208-5.566c-0.45-0.782-0.688-1.669-0.688-2.571v-13.496H335.838z"/>
<path style="fill:#FFFFFF;" d="M140.669,63.356h29.311c5.975,0,10.817-4.843,10.817-10.817s-4.843-10.816-10.817-10.816h-16.817
	C148.176,48.365,143.967,55.622,140.669,63.356z"/>
<path style="fill:#775436;" d="M162.768,134.439c5.974,0,10.817-4.843,10.817-10.816c0-5.974-4.844-10.817-10.817-10.817h-30.391
	v6.285c0,0.902-0.237,1.789-0.688,2.571l-7.364,12.777H162.768z"/>
<path style="fill:#B2762F;" d="M289.995,141.888c0,5.974-4.844,10.816-10.817,10.816h-61.811c-5.974,0-10.817-4.843-10.817-10.816
	l0,0c0-5.974,4.844-10.817,10.817-10.817h61.811C285.151,131.07,289.995,135.914,289.995,141.888L289.995,141.888z"/>
<path style="fill:#D2957D;" d="M265.144,265.56h-8.998c-9.097,0-16.498-7.986-16.498-17.802V226.2c0-4.143,3.357-7.5,7.5-7.5
	s7.5,3.357,7.5,7.5v21.559c0,1.743,1.04,2.802,1.498,2.802h8.998c4.143,0,7.5,3.357,7.5,7.5
	C272.644,262.203,269.286,265.56,265.144,265.56z"/>
<g>
	<path style="fill:#B2762F;" d="M206.061,236.498c-11.791,0-21.384-9.617-21.384-21.438c0-11.82,9.593-21.437,21.384-21.437
		c11.79,0,21.383,9.616,21.383,21.437C227.442,226.881,217.85,236.498,206.061,236.498z"/>
	<path style="fill:#B2762F;" d="M305.939,236.498c-11.79,0-21.383-9.617-21.383-21.438c0-11.82,9.593-21.437,21.383-21.437
		c11.791,0,21.384,9.616,21.384,21.437C327.322,226.881,317.729,236.498,305.939,236.498z"/>
</g>
<g>
	<path style="fill:#775436;" d="M272.689,195.51c-3.109,0-6.016-1.948-7.089-5.052c-1.353-3.915,0.724-8.185,4.639-9.539
		l47.689-16.482c3.918-1.351,8.186,0.725,9.539,4.639c1.353,3.915-0.724,8.186-4.639,9.539l-47.689,16.482
		C274.328,195.377,273.502,195.51,272.689,195.51z"/>
	<path style="fill:#775436;" d="M236.218,195.51c-0.813,0-1.639-0.133-2.45-0.413l-47.689-16.482
		c-3.915-1.354-5.991-5.624-4.639-9.539c1.354-3.914,5.622-5.989,9.539-4.639l47.688,16.482c3.915,1.354,5.991,5.624,4.639,9.539
		C242.233,193.561,239.327,195.51,236.218,195.51z"/>
	<path style="fill:#775436;" d="M188.591,487.303c0,1.699-1.391,3.091-3.091,3.091h-58.019c-1.699,0-3.09-1.392-3.09-3.091v-13.935
		c0-1.7,1.391-3.091,3.09-3.091H185.5c1.7,0,3.091,1.391,3.091,3.091V487.303z"/>
</g>
<g>
	<path style="fill:#D2957D;" d="M285.359,293.375h-58.72c-4.143,0-7.5-3.357-7.5-7.5s3.357-7.5,7.5-7.5h58.721
		c4.142,0,7.5,3.357,7.5,7.5S289.502,293.375,285.359,293.375z"/>
	<path style="fill:#D2957D;" d="M213.091,319.758c6.449,17.439,23.227,29.875,42.908,29.875s36.458-12.436,42.908-29.875H213.091z"
		/>
</g>
<path style="fill:#775436;" d="M268.361,89.626c0,5.974-4.843,10.816-10.817,10.816h-61.81c-5.974,0-10.816-4.843-10.816-10.816l0,0
	c0-5.974,4.843-10.817,10.816-10.817h61.81C263.519,78.809,268.361,83.652,268.361,89.626L268.361,89.626z"/>
<path style="fill:#B2762F;" d="M296.176,36.057c0,5.974-4.843,10.816-10.816,10.816h-61.812c-5.974,0-10.816-4.843-10.816-10.816
	l0,0c0-5.975,4.843-10.817,10.816-10.817h61.812C291.333,25.239,296.176,30.082,296.176,36.057L296.176,36.057z"/>
<g>
	<path style="fill:#FFFFFF;" d="M324.506,73.658h50.584c-2.331-7.618-5.513-14.865-9.436-21.634h-41.147
		c-5.974,0-10.816,4.843-10.816,10.816C313.689,68.814,318.532,73.658,324.506,73.658z"/>
	<path style="fill:#FFFFFF;" d="M304.417,103.822h-13.392c-4.143,0-7.5-3.358-7.5-7.5c0-4.143,3.357-7.5,7.5-7.5h13.392
		c4.142,0,7.5,3.357,7.5,7.5S308.559,103.822,304.417,103.822z"/>
</g>
<path style="fill:#B2762F;" d="M130.317,454.084h-13.393c-4.143,0-7.5-3.357-7.5-7.5s3.357-7.5,7.5-7.5h13.393
	c4.143,0,7.5,3.357,7.5,7.5C137.817,450.727,134.46,454.084,130.317,454.084z"/>
<g>
	<path style="fill:#775436;" d="M190.067,29.648c4.143,0,7.5-3.357,7.5-7.5c0-4.142-3.357-7.5-7.5-7.5h-6.816
		c-7.08,4.227-13.617,9.27-19.482,15H190.067z"/>
	<path style="fill:#775436;" d="M320.9,34.8h32.257c-4.978-5.571-10.543-10.603-16.601-15H320.9c-4.143,0-7.5,3.357-7.5,7.5
		S316.758,34.8,320.9,34.8z"/>
	<path style="fill:#775436;" d="M391.983,454.084H378.59c-4.143,0-7.5-3.357-7.5-7.5s3.357-7.5,7.5-7.5h13.393
		c4.143,0,7.5,3.357,7.5,7.5C399.483,450.727,396.126,454.084,391.983,454.084z"/>
</g>
<g>
	<path style="fill:#B2762F;" d="M151.951,97.641c4.143,0,7.5-3.357,7.5-7.5s-3.357-7.5-7.5-7.5h-17.354
		c-1.026,4.884-1.705,9.893-2.017,15H151.951z"/>
	<path style="fill:#B2762F;" d="M323.407,501.472H336.8c4.143,0,7.5-3.357,7.5-7.5s-3.357-7.5-7.5-7.5h-13.393V501.472z"/>
</g>
<path style="fill:#FFFFFF;" d="M369.319,501.472h-13.393c-4.143,0-7.5-3.357-7.5-7.5s3.357-7.5,7.5-7.5h13.393
	c4.143,0,7.5,3.357,7.5,7.5C376.819,498.114,373.462,501.472,369.319,501.472z"/>
<g>
</g>
<g>
</g>
<g>
</g>
<g>
</g>
<g>
</g>
<g>
</g>
<g>
</g>
<g>
</g>
<g>
</g>
<g>
</g>
<g>
</g>
<g>
</g>
<g>
</g>
<g>
</g>
<g>
</g>
</svg>
