<?xml version="1.0" encoding="iso-8859-1"?>
<!-- Generator: Adobe Illustrator 19.0.0, SVG Export Plug-In . SVG Version: 6.00 Build 0)  -->
<svg version="1.1" id="Capa_1" xmlns="http://www.w3.org/2000/svg" xmlns:xlink="http://www.w3.org/1999/xlink" x="0px" y="0px"
	 viewBox="0 0 455.111 455.111" style="enable-background:new 0 0 455.111 455.111;" xml:space="preserve">
<g>
	<path style="fill:#662113;" d="M85.333,142.223c0,0-14.223,199.111-14.223,270.222h156.445V128L85.333,142.223z"/>
	<path style="fill:#662113;" d="M369.778,142.223c0,0,14.223,199.111,14.223,270.222H227.556V128L369.778,142.223z"/>
	<g transform="matrix(1.25 0 0 -1.25 22.5 15)">
		<path style="fill:#662113;" d="M164.045-79.022V12C107.156,12,50.267-22.133,50.267-90.4s29.047-10.172,34.133,0
			C107.156-44.889,141.289-79.022,164.045-79.022"/>
		<path style="fill:#662113;" d="M164.045-79.022V12c56.889,0,113.778-34.133,113.778-102.4s-29.047-10.172-34.133,0
			C220.934-44.889,186.801-79.022,164.045-79.022"/>
	</g>
</g>
<path style="fill:#3B88C3;" d="M426.667,455.111v-28.445c0-47.133-38.201-85.334-85.334-85.334H113.778
	c-47.119,0-85.334,38.201-85.334,85.334v28.445H426.667z"/>
<path style="fill:#F3D2A2;" d="M165.543,342.774c24.804,18.02,40.505,27.904,62.009,27.904s37.205-9.899,62.009-27.904v-54.201
	H165.543V342.774z"/>
<path style="fill:#E2C196;" d="M165.431,312.502c17.294,19.541,38.741,24.833,62.066,24.833c23.31,0,44.758-5.305,62.066-24.833
	v-49.65H165.432v49.65H165.431z"/>
<path style="fill:#F3D2A2;" d="M106.349,184.316c0-79.487,54.272-143.943,121.201-143.943c66.944,0,121.216,64.455,121.216,143.943
	S294.494,328.245,227.55,328.245C160.621,328.245,106.349,263.804,106.349,184.316"/>
<path style="fill:#C1694F;" d="M227.556,281.632c-39.168,0-51.2-10.041-53.205-12.06c-3.641-3.641-3.641-9.543,0-13.184
	c3.528-3.528,9.174-3.626,12.829-0.327c0.74,0.526,10.254,6.926,40.378,6.926c31.289,0,40.334-6.897,40.42-6.969
	c3.641-3.626,9.344-3.456,12.985,0.199c3.641,3.641,3.441,9.714-0.199,13.355C278.756,271.591,266.723,281.632,227.556,281.632"/>
<g>
	<path style="fill:#662113;" d="M170.667,184.889L170.667,184.889c-7.822,0-14.223-6.4-14.223-14.223v-14.223
		c0-7.822,6.4-14.223,14.223-14.223l0,0c7.822,0,14.223,6.4,14.223,14.223v14.223C184.889,178.489,178.489,184.889,170.667,184.889"
		/>
	<path style="fill:#662113;" d="M284.444,184.889L284.444,184.889c-7.823,0-14.223-6.4-14.223-14.223v-14.223
		c0-7.822,6.4-14.223,14.223-14.223l0,0c7.822,0,14.223,6.4,14.223,14.223v14.223C298.667,178.489,292.267,184.889,284.444,184.889"
		/>
</g>
<path style="fill:#C1694F;" d="M238.222,224.001h-21.334c-5.874,0-10.666-4.792-10.666-10.666c0-5.874,4.793-10.666,10.666-10.666
	h21.334c5.874,0,10.666,4.792,10.666,10.666C248.889,219.208,244.096,224.001,238.222,224.001"/>
<g>
	<path style="fill:#F3D2A2;" d="M85.333,146.205l26.567,26.297c0,0,16.952,48.355,0,56.833
		c-37.887,18.944-69.234-78.408-69.234-97.351C42.667,117.76,85.333,146.205,85.333,146.205"/>
	<path style="fill:#F3D2A2;" d="M361.211,146.205l-26.567,26.297c0,0-16.953,48.355,0,56.833
		c37.887,18.944,77.81-78.408,77.81-97.351C412.453,117.76,361.211,146.205,361.211,146.205"/>
</g>
<g>
	<path style="fill:#662113;" d="M227.556,0c-71.111,0-128,42.666-128,128s22.087,12.715,28.445,0
		c28.445-56.889,71.111-42.666,99.555-42.666S298.667,71.111,327.111,128c6.358,12.715,28.445,85.334,28.445,0S298.667,0,227.556,0"
		/>
	<path style="fill:#662113;" d="M99.556,128L85.333,455.111h56.889c0,0-37.361-291.328-14.222-327.111
		C137.927,112.64,99.556,128,99.556,128"/>
	<path style="fill:#662113;" d="M356.376,128l14.222,327.111h-57.714c0,0,38.186-291.328,15.048-327.111
		C318.005,112.64,356.376,128,356.376,128"/>
</g>
<g>
</g>
<g>
</g>
<g>
</g>
<g>
</g>
<g>
</g>
<g>
</g>
<g>
</g>
<g>
</g>
<g>
</g>
<g>
</g>
<g>
</g>
<g>
</g>
<g>
</g>
<g>
</g>
<g>
</g>
</svg>
