<?xml version="1.0" encoding="iso-8859-1"?>
<!-- Generator: Adobe Illustrator 18.0.0, SVG Export Plug-In . SVG Version: 6.00 Build 0)  -->
<!DOCTYPE svg PUBLIC "-//W3C//DTD SVG 1.1//EN" "http://www.w3.org/Graphics/SVG/1.1/DTD/svg11.dtd">
<svg version="1.1" id="Capa_1" xmlns="http://www.w3.org/2000/svg" xmlns:xlink="http://www.w3.org/1999/xlink" x="0px" y="0px"
	 viewBox="0 0 57.658 57.658" style="enable-background:new 0 0 57.658 57.658;" xml:space="preserve">
<g>
	<path style="fill:#556080;" d="M45.644,42.204c-7.97,3.948-11.456,6.302-15.986,6.252c-4.416-0.049-9.874-2.403-17.644-6.252
		c-0.799,0.144-1.572,0.196-2.31,0.156c2.839,3.875,10.772,14.096,19.954,14.096s15.457-10.22,18.296-14.096
		C47.216,42.4,46.442,42.348,45.644,42.204z"/>
	<path style="fill:#E64C3C;" d="M34.527,41.329c-1.408-0.078-3.02-0.125-4.869-0.125c-2.286,0-4.271,0.071-5.988,0.185
		c-1.84,0.917-3.012,2.285-3.012,3.815c0,2.761,3.806,5,8.5,5s8.5-2.239,8.5-5C37.658,43.641,36.437,42.246,34.527,41.329z"/>
	<path style="fill:#71C285;" d="M52.213,24.02c-0.996,1.211-2.247,2.101-3.828,2.493c0,0-6.389,2.025-10.556-1.308
		c0,0,0.278-0.312,0.3-0.316c0.315-0.071,0.634-0.164,0.954-0.281c0.001,0,0.002,0,0.002,0c0.321-0.118,0.643-0.262,0.963-0.424
		c0.03-0.015,0.06-0.031,0.09-0.046c0.903-0.47,1.791-1.11,2.6-1.919c2.648-2.648,3.541-6.131,2.247-8.219
		c-2.611-2.171-5.688-3.813-9.054-4.792c-0.478,2.836-2.938,4.998-5.91,4.998c-3.162,0-5.747-2.448-5.977-5.551
		c-3.545,0.677-6.828,2.072-9.668,4.048c0,0-0.032,0.084-0.079,0.229c0.08,0.451,0.068,0.916-0.071,1.361
		c-0.657,2.102,0.319,5.058,2.634,7.374l0,0c1.386,1.017,2.607,2.056,3.96,2.492l0.452,0.804c-1.042,0.833-2.25,1.313-3.477,1.563
		c-0.92,0.188-1.85,0.246-2.728,0.229c-2.633-0.053-4.795-0.791-4.795-0.791c-0.001,0-0.001,0-0.002,0
		c-0.257-0.064-0.503-0.143-0.742-0.232c-0.087-0.032-0.17-0.071-0.256-0.107c-0.146-0.061-0.291-0.125-0.431-0.196
		c-0.103-0.052-0.204-0.108-0.304-0.165c-0.109-0.063-0.217-0.128-0.323-0.196c-0.112-0.072-0.223-0.146-0.331-0.224
		c-0.075-0.055-0.148-0.114-0.221-0.172c-0.651-0.513-1.218-1.139-1.711-1.855c0-0.001-0.001-0.001-0.002-0.002
		c-1.134,2.52-1.844,5.263-2.052,8.142c0.587,0.524,1.301,1.036,2.167,1.518c1.773,0.986,3.765,1.492,5.789,1.616
		c1.769,0.109,4.437,0.331,7.205,0.747c-0.769-1.009-1.231-2.265-1.231-3.631c0-3.314,2.686-6,6-6c2.963,0,5.417,2.149,5.906,4.972
		c0.063-0.003,0.126-0.004,0.189-0.006c0.491-2.82,2.944-4.966,5.905-4.966c3.314,0,6,2.686,6,6c0,1.232-0.373,2.377-1.01,3.33l0,0
		c1.931-0.229,3.695-0.366,4.983-0.445c2.025-0.124,4.017-0.63,5.79-1.616c0.861-0.479,1.57-0.988,2.156-1.509
		C53.574,28.536,53.055,26.202,52.213,24.02z"/>
	<circle style="fill:#8697CB;" cx="30.022" cy="8.204" r="6"/>
	<path style="fill:#2C3E50;" d="M38.294,15.32c-2.872,0.188-5.263,2.579-5.452,5.452c-0.083,1.269,0.255,2.41,1.057,3.212
		c0.802,0.802,1.943,1.141,3.212,1.057c2.872-0.188,5.263-2.579,5.452-5.452c0.083-1.269-0.255-2.41-1.057-3.213
		C40.704,15.575,39.563,15.237,38.294,15.32z"/>
	<path style="fill:#2C3E50;" d="M21.306,14.769c2.872,0.188,5.263,2.579,5.452,5.452c0.083,1.269-0.255,2.41-1.057,3.212
		c-0.802,0.802-1.943,1.141-3.212,1.057c-2.872-0.188-5.263-2.579-5.452-5.452c-0.083-1.269,0.255-2.41,1.057-3.213
		C18.896,15.024,20.037,14.685,21.306,14.769z"/>
	<path style="fill:#556080;" d="M54.604,1.811c-1.283,0.584-2.611,1.616-3.816,2.739c-2.376,2.216-4.335,4.841-5.928,7.672
		l-0.553,0.983c0.067,0.057,0.137,0.109,0.199,0.171c1.953,1.953,1.161,5.91-1.768,8.839c-0.809,0.809-1.698,1.449-2.6,1.919
		c-0.03,0.016-0.06,0.031-0.09,0.046c-0.32,0.162-0.641,0.306-0.962,0.424c0,0-0.002,0-0.003,0.001
		c-0.321,0.118-0.639,0.21-0.954,0.281c-0.022,0.005-0.044,0.011-0.066,0.016c-0.126,0.027-0.25,0.048-0.374,0.068l0.14,0.233
		c4.167,3.333,10.556,1.308,10.556,1.308c8.944-2.217,7.529-20.17,7.095-24.199C55.434,1.891,54.991,1.635,54.604,1.811z"/>
	<path style="fill:#556080;" d="M16.861,21.665c-2.316-2.316-3.292-5.272-2.634-7.374c0.242-0.774,0.137-1.613-0.26-2.32
		l-0.164-0.292c-1.584-2.816-3.529-5.429-5.887-7.638C6.697,2.901,5.35,1.849,4.049,1.258c-0.384-0.174-0.825,0.079-0.87,0.499
		c-0.433,4.019-1.854,21.986,7.094,24.205c0,0,6.833,2.333,11-1l-0.452-0.804C19.468,23.721,18.076,22.88,16.861,21.665z"/>
	<circle style="fill:#E64C3C;" cx="23.829" cy="31.204" r="6"/>
	<circle style="fill:#E64C3C;" cx="35.829" cy="31.204" r="6"/>
	<circle style="fill:#C03A2B;" cx="23.829" cy="31.204" r="2"/>
	<circle style="fill:#F0C419;" cx="23.829" cy="20.204" r="2"/>
	<circle style="fill:#C03A2B;" cx="35.829" cy="31.204" r="2"/>
	<circle style="fill:#F0C419;" cx="35.829" cy="21.204" r="2"/>
	<path style="fill:#E64C3C;" d="M52.593,8.326c0.219,1.355,0.461,3.508,0.22,5.446c-0.13,1.042-1.202,1.686-2.177,1.296l-1.36-0.544
		c-0.935-0.374-1.289-1.515-0.736-2.357c1.203-1.831,1.496-2.336,2.931-4.13C51.815,7.609,52.506,7.784,52.593,8.326z"/>
	<path style="fill:#E64C3C;" d="M5.978,7.733c-0.219,1.355-0.461,3.508-0.22,5.446c0.13,1.042,1.202,1.686,2.177,1.296l1.36-0.544
		c0.935-0.374,1.289-1.515,0.736-2.357C8.828,9.743,8.534,9.238,7.1,7.444C6.757,7.015,6.066,7.191,5.978,7.733z"/>
	<g>
		<path style="fill:#F0C419;" d="M29.735,30.176c0.058,0.335,0.094,0.677,0.094,1.028c0-0.354,0.037-0.698,0.095-1.035
			C29.861,30.172,29.798,30.173,29.735,30.176z"/>
		<path style="fill:#F0C419;" d="M47.597,40.712c-0.705-0.13-1.758-0.59-2.303-1.056c-0.009-0.008-0.018-0.016-0.027-0.023
			c-0.893-0.749,0.578-1.429,0.578-1.429l3.653-0.653c1.527-0.273,3.014-0.746,4.396-1.45c0.6-0.305,1.176-0.636,1.552-0.942
			c3.715-3.024,1.776-8.464,1.119-10.011c-0.033-0.077-0.144-0.048-0.139,0.035c0.068,1.226-0.192,4.673-4.759,7.248
			c-1.788,1.008-3.805,1.531-5.853,1.657c-1.289,0.079-3.057,0.216-4.994,0.446l0,0c-0.128,0.191-0.268,0.373-0.416,0.548
			c-0.03,0.035-0.062,0.068-0.093,0.102c-0.118,0.133-0.241,0.26-0.37,0.382c-0.046,0.044-0.094,0.086-0.141,0.128
			c-0.125,0.111-0.256,0.216-0.39,0.317c-0.047,0.036-0.094,0.073-0.142,0.107c-0.18,0.126-0.366,0.245-0.56,0.352
			c-0.002,0.001-0.004,0.003-0.007,0.004c-0.197,0.108-0.402,0.202-0.612,0.288c-0.058,0.024-0.119,0.043-0.178,0.065
			c-0.153,0.057-0.308,0.108-0.467,0.152c-0.074,0.021-0.148,0.04-0.223,0.057c-0.157,0.037-0.316,0.067-0.477,0.092
			c-0.071,0.011-0.141,0.024-0.213,0.032c-0.231,0.027-0.464,0.045-0.702,0.045c-3.314,0-6-2.686-6-6c0,3.314-2.686,6-6,6
			c-0.228,0-0.452-0.015-0.673-0.04c-0.067-0.008-0.132-0.021-0.198-0.03c-0.156-0.023-0.31-0.049-0.462-0.083
			c-0.07-0.016-0.138-0.035-0.207-0.053c-0.149-0.04-0.296-0.084-0.44-0.135c-0.059-0.021-0.118-0.042-0.176-0.064
			c-0.162-0.063-0.319-0.132-0.474-0.208c-0.035-0.017-0.071-0.033-0.106-0.051c-0.8-0.411-1.492-0.995-2.033-1.705
			c-2.802-0.421-5.501-0.643-7.269-0.751c-1.803-0.11-3.588-0.518-5.199-1.333c-5.129-2.593-5.428-6.267-5.36-7.556
			c0.005-0.085-0.109-0.117-0.142-0.039c-0.66,1.557-2.581,6.972,1.11,9.992c0.28,0.229,0.672,0.472,1.102,0.708
			c1.568,0.859,3.288,1.406,5.053,1.691l4.078,0.657c0,0,1.227,0.649,0.37,1.14c-0.073,0.042-0.142,0.086-0.21,0.134
			c-0.787,0.555-2.157,1.201-3.112,1.325c-3.697,0.48-8.652-0.599-8.652-0.599s5.583,6.75,13,4c0,0,3.662-2,15.829-2
			s14.171,2,14.171,2c7.417,2.75,13-4,13-4S51.332,41.402,47.597,40.712z"/>
	</g>
</g>
<g>
</g>
<g>
</g>
<g>
</g>
<g>
</g>
<g>
</g>
<g>
</g>
<g>
</g>
<g>
</g>
<g>
</g>
<g>
</g>
<g>
</g>
<g>
</g>
<g>
</g>
<g>
</g>
<g>
</g>
</svg>
