<?xml version="1.0" encoding="iso-8859-1"?>
<!-- Generator: Adobe Illustrator 19.0.0, SVG Export Plug-In . SVG Version: 6.00 Build 0)  -->
<svg version="1.1" id="Capa_1" xmlns="http://www.w3.org/2000/svg" xmlns:xlink="http://www.w3.org/1999/xlink" x="0px" y="0px"
	 viewBox="0 0 512 512" style="enable-background:new 0 0 512 512;" xml:space="preserve">
<path style="fill:#135693;" d="M359.275,172.511c0.003,0.002,0.007,0.003,0.01,0.004c6.786-2.127,13.186-4.934,19.017-8.362v-59.745
	c0-48.636-39.428-88.064-88.064-88.064c-10.089,0-19.772,1.72-28.799,4.843C247.757,8.073,229.204,0,208.755,0
	c-42.069,0-76.174,34.104-76.174,76.174v87.3c6.128,3.736,12.911,6.777,20.137,9.042c0.003-0.002,0.007-0.002,0.01-0.004v-34.153
	c0-15.349,5.84-28.492,16.89-38.007c10.616-9.142,25.376-14.177,41.563-14.177c14.853,0,30.098,6.905,41.826,18.945
	c0.781,0.803,1.873,1.265,2.995,1.265c1.122,0,2.213-0.461,2.996-1.265c11.728-12.04,26.973-18.945,41.826-18.945
	c16.185,0,30.946,5.035,41.563,14.177c11.049,9.515,16.889,22.657,16.889,38.007L359.275,172.511L359.275,172.511z"/>
<g style="opacity:0.15;">
	<path style="fill:#030005;" d="M162.255,76.174c0-36.997,26.381-67.824,61.355-74.721C218.805,0.501,213.839,0,208.755,0
		c-42.069,0-76.174,34.104-76.174,76.174v88.261c5.638,3.32,11.848,6.096,18.51,8.262c0.208,0.068,0.423,0.101,0.637,0.101
		c0.429,0,0.854-0.134,1.21-0.394c0.534-0.388,0.85-1.007,0.85-1.667v-32.379c0-10.693,2.907-20.281,8.467-28.281L162.255,76.174
		L162.255,76.174z"/>
</g>
<path style="fill:#135693;" d="M383.082,358.245h-26.608v53.569c0,2.493-1.782,5.721-3.891,7.049l-70.209,44.205
	c-0.216,0.136-0.371,0.349-0.435,0.595l-4.633,17.857c-5.272-6.265-13.093-9.95-21.305-9.95c-8.206,0-16.022,3.681-21.294,9.938
	l-4.63-17.837c-0.064-0.247-0.219-0.46-0.435-0.595l-70.222-44.214c-2.109-1.328-3.891-4.557-3.891-7.049v-53.569h-26.608
	c-8.499,0-15.453,6.954-15.453,15.453v128c0,5.666,4.636,10.302,10.302,10.302h264.463c5.666,0,10.302-4.636,10.302-10.302v-128
	C398.534,365.199,391.581,358.245,383.082,358.245z"/>
<g style="opacity:0.15;">
	<path style="fill:#030005;" d="M138.854,501.698v-128c0-8.499,6.954-15.453,15.453-15.453h-25.386
		c-8.499,0-15.453,6.954-15.453,15.453v128c0,5.666,4.636,10.302,10.302,10.302h25.386C143.49,512,138.854,507.364,138.854,501.698z
		"/>
</g>
<g>
	<path style="fill:#203A74;" d="M320.137,365.348v43.434c0,0.404-0.103,0.729-0.299,0.943c-0.168,0.183-0.398,0.275-0.686,0.275
		h-0.001c-0.182,0-0.379-0.038-0.586-0.112l-21.035-7.43l-16.202,62.45l71.786-45.198c2.397-1.51,4.358-5.063,4.358-7.895v-79.876
		C343.967,342.11,331.465,353.293,320.137,365.348z"/>
	<path style="fill:#203A74;" d="M193.441,409.887c-0.211,0.076-0.409,0.113-0.59,0.113c-0.617,0-0.986-0.456-0.986-1.218V369.17
		c-11.295-12.474-23.799-24.098-37.337-34.715v77.36c0,2.833,1.961,6.386,4.358,7.895l71.8,45.207l-16.211-62.46L193.441,409.887z"
		/>
</g>
<g>
	<path style="fill:#960B15;" d="M191.865,348.087c0-0.763,0.369-1.218,0.986-1.218c0.182,0,0.379,0.037,0.586,0.111l5.13,1.812
		c0.108,0.038,0.221,0.057,0.333,0.057c0.204,0,0.406-0.063,0.578-0.184c0.265-0.188,0.422-0.492,0.422-0.816v-26.485
		l-40.829-39.806c-3.32-3.235-6.343-10.41-6.343-15.052v-8.073c-5.855-3.008-11.234-6.815-16.002-11.268
		c-24.819,8.557-48.758,19.786-71.375,33.592c-1.012,0.617-1.581,1.759-1.467,2.938c0.116,1.18,0.896,2.189,2.007,2.599
		c49.244,18.159,92.843,47.394,125.974,83.991L191.865,348.087L191.865,348.087z"/>
	<path style="fill:#960B15;" d="M446.651,280.661c-22.604-13.783-46.53-24.993-71.333-33.534
		c-4.778,4.469-10.171,8.29-16.043,11.307v8.073c0,4.642-3.023,11.816-6.342,15.051l-40.83,39.807v26.484
		c0,0.325,0.158,0.629,0.422,0.816c0.171,0.121,0.374,0.184,0.578,0.184c0.112,0,0.225-0.019,0.333-0.057l5.125-1.811
		c0.211-0.076,0.408-0.113,0.59-0.113c0.617,0,0.986,0.455,0.986,1.218v18.381c33.306-35.436,76.787-63.323,125.91-80.247
		c1.133-0.39,1.938-1.398,2.066-2.589C448.242,282.442,447.673,281.285,446.651,280.661z"/>
</g>
<path style="opacity:0.15;fill:#440075;enable-background:new    ;" d="M191.865,348.087c0-0.763,0.369-1.218,0.986-1.218
	c0.182,0,0.379,0.037,0.586,0.111l5.13,1.812c0.108,0.038,0.221,0.057,0.333,0.057c0.183,0,0.36-0.058,0.52-0.155
	c-28.316-34.138-65.506-62.516-108.007-82.412c-8.857,4.462-17.555,9.283-26.061,14.475c-1.012,0.617-1.581,1.759-1.467,2.938
	c0.116,1.18,0.896,2.189,2.007,2.599c49.244,18.159,92.843,47.394,125.974,83.991L191.865,348.087L191.865,348.087z"/>
<path style="fill:#FFFFFF;" d="M277.791,395.547h-43.58l-20.93,7.393l20.966,80.781c4.879-6.747,12.81-11.149,21.754-11.149
	c8.95,0,16.885,4.408,21.764,11.163l20.96-80.794L277.791,395.547z"/>
<path style="fill:#C0272D;" d="M318.228,346.039l-40.437,14.282h-43.58l-40.437-14.282c-1.6-0.573-2.909,0.348-2.909,2.048v61.01
	c0,1.7,1.309,2.621,2.909,2.048l40.437-14.283h43.58l40.437,14.283c1.6,0.573,2.909-0.348,2.909-2.048v-61.01
	C321.137,346.387,319.828,345.466,318.228,346.039z"/>
<path style="opacity:0.15;fill:#440075;enable-background:new    ;" d="M213.282,402.94l20.966,80.781
	c4.468-6.178,11.496-10.383,19.517-11.048l-19.978-76.975L213.282,402.94z"/>
<g>
	<path style="fill:#E6E9ED;" d="M152.728,171.069c-7.863-2.464-15.213-5.836-21.753-10.035c-0.941-0.604-2.028-0.917-3.126-0.917
		c-0.482,0-0.967,0.061-1.442,0.183c-1.559,0.401-2.88,1.433-3.646,2.848c-5.551,10.249-8.485,21.86-8.485,33.579
		c0,27.354,15.648,51.106,38.453,62.824L152.728,171.069L152.728,171.069z"/>
	<path style="fill:#E6E9ED;" d="M389.242,163.148c-0.766-1.415-2.087-2.447-3.647-2.848c-0.475-0.123-0.959-0.183-1.442-0.183
		c-1.099,0-2.185,0.314-3.126,0.917c-6.54,4.199-13.89,7.571-21.753,10.035v88.482c22.805-11.717,38.453-35.47,38.453-62.824
		C397.728,185.008,394.794,173.396,389.242,163.148z"/>
</g>
<g>
	<path style="fill:#C5CCD3;" d="M152.728,196.991h-16.111c-4.142,0-7.5,3.358-7.5,7.5s3.358,7.5,7.5,7.5h16.111L152.728,196.991
		L152.728,196.991z"/>
	<path style="fill:#C5CCD3;" d="M375.387,196.991h-16.112v15h16.112c4.142,0,7.5-3.358,7.5-7.5S379.529,196.991,375.387,196.991z"/>
</g>
<path style="fill:#E6E9ED;" d="M234.211,361.452h43.58l35.312-12.472v-28.59l-7.9,7.703c-3.345,3.261-10.64,6.23-15.306,6.23h-67.79
	c-4.666,0-11.961-2.97-15.306-6.23l-7.901-7.703v28.591L234.211,361.452z"/>
<path style="opacity:0.15;fill:#440075;enable-background:new    ;" d="M229.217,359.688v-25.365h-7.11
	c-4.666,0-11.961-2.97-15.306-6.23l-7.901-7.703v28.591L229.217,359.688z"/>
<path style="fill:#FFFFFF;" d="M222.107,335.323c-4.967,0-12.444-3.044-16.004-6.515l-47.73-46.534
	c-3.54-3.45-6.645-10.818-6.645-15.768V138.357c0-15.649,5.96-29.054,17.237-38.765c10.797-9.298,25.79-14.419,42.215-14.419
	c15.122,0,30.627,7.016,42.542,19.248c0.599,0.616,1.42,0.962,2.279,0.962c0.859,0,1.68-0.347,2.28-0.962
	c11.914-12.231,27.42-19.248,42.542-19.248c16.426,0,31.417,5.121,42.215,14.419c11.277,9.711,17.236,23.115,17.236,38.765v128.149
	c0,4.949-3.105,12.317-6.645,15.768l-47.728,46.535c-3.56,3.47-11.038,6.515-16.004,6.515h-67.79V335.323z"/>
<g style="opacity:0.15;">
	<path style="fill:#440075;" d="M182.871,282.274c-3.54-3.45-6.645-10.818-6.645-15.768V138.357c0-15.649,5.96-29.054,17.237-38.765
		c7.749-6.673,17.664-11.18,28.714-13.201c-3.651-0.797-7.335-1.218-10.998-1.218c-16.426,0-31.419,5.121-42.215,14.419
		c-11.277,9.711-17.237,23.115-17.237,38.765v128.149c0,4.949,3.104,12.317,6.645,15.768l47.73,46.534
		c3.559,3.47,11.037,6.515,16.004,6.515h24.499c-4.967,0-12.444-3.044-16.004-6.515L182.871,282.274z"/>
</g>
<g>
	<path style="fill:#C0272D;" d="M318.228,346.039l-40.437,14.282v36.541l40.437,14.283c1.6,0.573,2.909-0.348,2.909-2.048v-61.01
		C321.137,346.387,319.828,345.466,318.228,346.039z"/>
	<path style="fill:#C0272D;" d="M234.211,360.321l-40.437-14.282c-1.6-0.573-2.909,0.348-2.909,2.048v61.01
		c0,1.7,1.309,2.621,2.909,2.048l40.437-14.283V360.321z"/>
</g>
<rect x="234.211" y="360.32" style="fill:#960B15;" width="43.58" height="36.541"/>
<g>
	<path style="fill:#203A74;" d="M256.001,423.18c-1.98,0-3.91-0.8-5.3-2.2c-1.4-1.4-2.2-3.33-2.2-5.3c0-1.98,0.8-3.91,2.2-5.31
		c1.39-1.39,3.32-2.19,5.3-2.19c1.97,0,3.91,0.8,5.3,2.19c1.4,1.4,2.2,3.34,2.2,5.31s-0.8,3.9-2.2,5.3
		C259.911,422.38,257.971,423.18,256.001,423.18z"/>
	<path style="fill:#203A74;" d="M256.001,457.17c-1.98,0-3.91-0.8-5.3-2.19c-1.4-1.4-2.2-3.33-2.2-5.31c0-1.97,0.8-3.9,2.2-5.3
		c1.39-1.4,3.32-2.2,5.3-2.2c1.97,0,3.91,0.8,5.3,2.2c1.4,1.4,2.2,3.33,2.2,5.3c0,1.98-0.8,3.91-2.2,5.31
		C259.911,456.37,257.971,457.17,256.001,457.17z"/>
</g>
<g>
	<path style="fill:#C5CCD3;" d="M299.471,271.164h-86.939c-4.142,0-7.5,3.358-7.5,7.5s3.358,7.5,7.5,7.5h0.682l11.294,20.656
		c0.526,0.962,1.536,1.561,2.632,1.561s2.106-0.599,2.632-1.561l11.293-20.656h29.872l11.294,20.656
		c0.526,0.962,1.536,1.561,2.632,1.561s2.106-0.599,2.632-1.561l11.293-20.656h0.682c4.142,0,7.5-3.358,7.5-7.5
		C306.971,274.522,303.613,271.164,299.471,271.164z"/>
	<path style="fill:#C5CCD3;" d="M272.388,178.513c-0.669,0-1.35-0.09-2.026-0.28c-3.989-1.117-6.317-5.255-5.2-9.244
		c5.548-19.818,23.803-33.659,44.393-33.659c13.632,0,26.492,5.99,35.282,16.434c2.668,3.169,2.261,7.9-0.908,10.567
		c-3.168,2.669-7.901,2.261-10.567-0.908c-5.934-7.05-14.611-11.093-23.807-11.093c-13.891,0-26.207,9.336-29.949,22.703
		C278.679,176.345,275.668,178.512,272.388,178.513z"/>
</g>
<g>
	<path style="fill:#FFC502;" d="M202.456,207.411c-11.792,0-21.384-9.592-21.384-21.383s9.593-21.384,21.384-21.384
		s21.383,9.593,21.383,21.384C223.839,197.818,214.247,207.411,202.456,207.411z"/>
	<path style="fill:#FFC502;" d="M307.533,207.411c-11.791,0-21.383-9.592-21.383-21.383s9.592-21.384,21.383-21.384
		c11.792,0,21.384,9.593,21.384,21.384C328.918,197.818,319.325,207.411,307.533,207.411z"/>
</g>
<path style="fill:#C5CCD3;" d="M263.558,242.384h-16.44v-65.708c0-26.855-23.016-41.346-44.671-41.346
	c-13.632,0-26.492,5.99-35.282,16.434c-2.667,3.169-2.261,7.9,0.908,10.567c3.169,2.668,7.9,2.261,10.567-0.908
	c5.934-7.05,14.611-11.093,23.807-11.093c10.263,0,29.671,5.506,29.671,26.346v68.058c0,6.976,5.675,12.651,12.651,12.651h18.789
	c4.142,0,7.5-3.358,7.5-7.5C271.058,245.742,267.7,242.384,263.558,242.384z"/>
<path style="fill:#FFC502;" d="M283.839,499.41c0-15.375-12.462-27.838-27.838-27.838c-15.374,0-27.838,12.464-27.838,27.838
	c0,4.532,1.09,8.808,3.012,12.59h49.652C282.75,508.218,283.839,503.942,283.839,499.41z"/>
<g style="opacity:0.15;">
	<path style="fill:#440075;" d="M263.716,472.664c-2.451-0.706-5.037-1.092-7.715-1.092c-15.374,0-27.838,12.464-27.838,27.838
		c0,4.532,1.09,8.808,3.012,12.59h15.43c-1.921-3.782-3.012-8.058-3.012-12.59C243.593,486.713,252.096,476.01,263.716,472.664z"/>
</g>
<path style="fill:#203A74;" d="M367.171,482.185h-48.418c-4.142,0-7.5-3.358-7.5-7.5s3.358-7.5,7.5-7.5h48.418
	c4.142,0,7.5,3.358,7.5,7.5C374.671,478.828,371.313,482.185,367.171,482.185z"/>
<g>
</g>
<g>
</g>
<g>
</g>
<g>
</g>
<g>
</g>
<g>
</g>
<g>
</g>
<g>
</g>
<g>
</g>
<g>
</g>
<g>
</g>
<g>
</g>
<g>
</g>
<g>
</g>
<g>
</g>
</svg>
