<?xml version="1.0" encoding="iso-8859-1"?>
<!-- Generator: Adobe Illustrator 19.0.0, SVG Export Plug-In . SVG Version: 6.00 Build 0)  -->
<svg version="1.1" id="Capa_1" xmlns="http://www.w3.org/2000/svg" xmlns:xlink="http://www.w3.org/1999/xlink" x="0px" y="0px"
	 viewBox="0 0 512.001 512.001" style="enable-background:new 0 0 512.001 512.001;" xml:space="preserve">
<g>
	<path style="fill:#FFC502;" d="M358.758,105.73h-8.538v25.316h8.538c6.989,0,12.655-5.668,12.655-12.658
		C371.413,111.398,365.747,105.73,358.758,105.73z"/>
	<path style="fill:#FFC502;" d="M143.673,105.73h-8.535c-6.99,0-12.658,5.668-12.658,12.658s5.668,12.658,12.658,12.658h8.535
		V105.73z"/>
</g>
<path style="fill:#FFFFFF;" d="M388.449,358.243H105.445c-8.5,0-15.453,6.954-15.453,15.453v128.002
	c0,5.666,4.636,10.302,10.302,10.302h293.307c5.666,0,10.302-4.636,10.302-10.302V373.696
	C403.903,365.197,396.948,358.243,388.449,358.243z"/>
<path style="fill:#046699;" d="M268.509,395.385l-19.924-26.458c-1.705-2.263-4.389-2.188-5.965,0.165l-17.396,25.981l11.651,22.559
	L218.102,512h57.69l-18.772-94.372L268.509,395.385z"/>
<path id="SVGCleanerId_0" style="fill:#135693;" d="M353.642,365.235l-34.139-61.373c-0.379-0.682-0.911-1.252-1.525-1.717
	c-6.967,6.611-14.854,12.26-23.443,16.739l-31.3,190.52c-0.459,2.795,0.795,3.434,2.786,1.418l84.444-85.434
	c1.991-2.016,1.753-5.038-0.529-6.715l-27.757-20.402c-2.282-1.677-2.223-4.339,0.132-5.913l29.554-19.759
	C354.22,371.025,355.019,367.71,353.642,365.235z"/>
<path style="fill:#E6E9ED;" d="M246.946,330.523c-18.482,0-35.834-4.899-50.857-13.44l13.545,82.446l3.659,6.208
	c1.438,2.44,3.905,2.512,5.481,0.158l23.846-35.612c1.576-2.354,4.26-2.428,5.965-0.165l27.066,35.942
	c1.704,2.264,4.251,2.104,5.66-0.353l1.145-1.996l14.273-86.024C281.955,325.853,264.99,330.523,246.946,330.523z"/>
<path style="fill:#FFB98A;" d="M246.946,330.523c-11.543,0-22.648-1.904-33.021-5.414v12.81c0,2.832,1.879,6.508,4.176,8.166
	l24.67,17.807c2.297,1.657,6.056,1.657,8.353,0l24.67-17.807c2.297-1.658,4.176-5.334,4.176-8.166v-12.81
	C269.596,328.619,258.489,330.523,246.946,330.523z"/>
<path style="fill:#203A74;" d="M144.853,425.389c-1.991-2.016-1.753-5.038,0.529-6.715l27.757-20.402
	c2.282-1.677,2.223-4.339-0.132-5.913L143.453,372.6c-2.355-1.574-3.155-4.89-1.777-7.364l3.89-6.992h-40.121
	c-8.5,0-15.453,6.954-15.453,15.453v128.002c0,5.666,4.636,10.302,10.302,10.302h128.892l-0.328-1.623L144.853,425.389z"/>
<g style="opacity:0.15;">
	<path style="fill:#030005;" d="M120.929,501.698V373.696c0-8.499,6.954-15.453,15.453-15.453h-30.938
		c-8.5,0-15.453,6.954-15.453,15.453v128.002c0,5.666,4.636,10.302,10.302,10.302h30.938
		C125.565,512,120.929,507.364,120.929,501.698z"/>
</g>
<path style="fill:#046699;" d="M141.24,365.722l11.354-20.41h-32.503c-1.699,0-3.09,1.391-3.09,3.091v20.201
	c0,1.7,1.391,3.091,3.09,3.091h22.519C140.778,370.393,140.144,367.691,141.24,365.722z"/>
<path style="fill:#135693;" d="M199.509,318.289c-8.328-4.475-15.976-10.057-22.743-16.552c-0.877,0.511-1.63,1.228-2.128,2.125
	l-34.139,61.373c-1.378,2.475-0.578,5.79,1.777,7.364l29.554,19.759c2.355,1.574,2.414,4.236,0.132,5.913l-27.757,20.402
	c-2.282,1.677-2.52,4.699-0.529,6.715l84.444,85.434c1.991,2.016,3.245,1.377,2.786-1.418L199.509,318.289z"/>
<path style="fill:#203A74;" d="M388.449,358.243h-39.836l3.89,6.992c1.377,2.475,0.578,5.79-1.777,7.364l-29.554,19.759
	c-2.355,1.574-2.414,4.236-0.132,5.913l27.757,20.402c2.282,1.677,2.52,4.699,0.529,6.715l-84.362,85.351L264.709,512h128.892
	c5.666,0,10.302-4.636,10.302-10.302V373.696C403.903,365.197,396.948,358.243,388.449,358.243z"/>
<path style="fill:#046699;" d="M374.946,345.311h-33.532l11.354,20.41c1.097,1.97,0.463,4.671-1.369,5.973h23.548
	c1.7,0,3.091-1.391,3.091-3.091v-20.201C378.037,346.702,376.647,345.311,374.946,345.311z"/>
<g>
	<path id="SVGCleanerId_0_1_" style="fill:#135693;" d="M353.642,365.235l-34.139-61.373c-0.379-0.682-0.911-1.252-1.525-1.717
		c-6.967,6.611-14.854,12.26-23.443,16.739l-31.3,190.52c-0.459,2.795,0.795,3.434,2.786,1.418l84.444-85.434
		c1.991-2.016,1.753-5.038-0.529-6.715l-27.757-20.402c-2.282-1.677-2.223-4.339,0.132-5.913l29.554-19.759
		C354.22,371.025,355.019,367.71,353.642,365.235z"/>
</g>
<g>
	<path style="fill:#FFC502;" d="M343.925,477.283c-0.814-0.814-0.814-2.142,0-2.956l10.942-10.94h-54.352
		c-1.7,0-2.517,1.267-1.816,2.816l7.05,15.588c0.7,1.549,2.664,2.815,4.364,2.815h41.136L343.925,477.283z"/>
	<path style="fill:#FFC502;" d="M419.943,463.387h-54.351l10.941,10.94c0.814,0.816,0.814,2.142,0,2.956l-7.323,7.323h41.137
		c1.7,0,3.664-1.268,4.364-2.815l7.049-15.588C422.46,464.654,421.643,463.387,419.943,463.387z"/>
</g>
<path style="fill:#FCDB67;" d="M343.218,477.99c-1.201-1.202-1.201-3.168,0-4.37l14.827-14.824c1.201-1.202,3.169-1.202,4.37,0
	l14.825,14.824c1.201,1.202,1.202,3.168,0,4.37l-14.825,14.826c-1.202,1.201-3.169,1.202-4.37,0L343.218,477.99z"/>
<path style="fill:#203A74;" d="M385.284,39.034L261.743,1.837c-8.139-2.449-21.454-2.449-29.594,0L108.611,39.034
	c-8.139,2.45-10.506,9.928-5.262,16.616l39.422,50.281c0.222,0.283,0.469,0.56,0.711,0.838h206.931
	c0.242-0.278,0.489-0.555,0.711-0.838l39.424-50.281C395.791,48.961,393.423,41.484,385.284,39.034z"/>
<path style="opacity:0.15;fill:#030005;enable-background:new    ;" d="M143.482,106.77h39.605
	c-1.051-0.988-2.008-2.012-2.832-3.063l-46.636-59.48c-3.156-4.026-3.97-8.29-2.751-11.893l-22.258,6.701
	c-8.139,2.45-10.506,9.928-5.262,16.616l39.422,50.281C142.992,106.215,143.239,106.491,143.482,106.77z"/>
<g>
	<path style="fill:#FFB98A;" d="M143.673,227.248v-48.512H130.45c-13.453,0-24.358,10.906-24.358,24.359v26.477
		c0,13.453,10.905,24.359,24.358,24.359h16.725C144.896,245.416,143.673,236.473,143.673,227.248z"/>
	<path style="fill:#FFB98A;" d="M363.444,178.736H350.22v48.512c0,9.225-1.223,18.168-3.502,26.684h16.726
		c13.455,0,24.358-10.906,24.358-24.359v-26.477C387.802,189.643,376.899,178.736,363.444,178.736z"/>
</g>
<g>
	<path style="fill:#D2957D;" d="M143.673,208.273h-14.177c-4.143,0-7.5,3.357-7.5,7.5c0,4.142,3.357,7.5,7.5,7.5h14.177V208.273z"/>
	<path style="fill:#D2957D;" d="M364.398,208.273H350.22v15h14.178c4.143,0,7.5-3.358,7.5-7.5
		C371.898,211.63,368.54,208.273,364.398,208.273z"/>
</g>
<path style="fill:#FFC7A9;" d="M142.673,227.248c0,57.589,46.686,104.275,104.273,104.275c57.59,0,104.273-46.686,104.273-104.275
	v-90.454H142.673V227.248z"/>
<path style="fill:#775436;" d="M147.204,136.794h-4.531v41.942l25.821-25.822C160.683,148.191,153.543,142.78,147.204,136.794z"/>
<g style="opacity:0.15;">
	<path style="fill:#440075;" d="M172.557,227.248v-90.454h-29.884v90.454c0,57.589,46.686,104.275,104.273,104.275
		c5.075,0,10.061-0.371,14.942-1.07C211.38,323.204,172.557,279.763,172.557,227.248z"/>
</g>
<path style="fill:#775436;" d="M346.691,136.794c-6.339,5.987-13.479,11.398-21.291,16.122l25.82,25.82v-41.942L346.691,136.794
	L346.691,136.794z"/>
<path style="fill:#203A74;" d="M146.142,136.794c24.113,23.348,60.314,38.207,100.805,38.207c40.493,0,76.694-14.859,100.807-38.207
	H146.142z"/>
<path style="fill:#D2957D;" d="M256.092,262.184h-8.998c-9.097,0-16.498-7.986-16.498-17.803v-29.225c0-4.143,3.357-7.5,7.5-7.5
	s7.5,3.357,7.5,7.5v29.225c0,1.744,1.04,2.803,1.498,2.803h8.998c4.143,0,7.5,3.357,7.5,7.5
	C263.592,258.826,260.235,262.184,256.092,262.184z"/>
<g>
	<path style="fill:#775436;" d="M211.921,204.514c-1.92,0-3.839-0.732-5.304-2.197c-4.547-4.547-10.586-7.052-17.006-7.052
		c-6.419,0-12.458,2.505-17.005,7.052c-2.928,2.93-7.677,2.931-10.606,0.001c-2.93-2.929-2.93-7.678-0.001-10.606
		c7.38-7.381,17.187-11.446,27.612-11.446c10.427,0,20.233,4.065,27.613,11.446c2.929,2.929,2.929,7.678-0.001,10.606
		C215.76,203.781,213.84,204.514,211.921,204.514z"/>
	<path style="fill:#775436;" d="M276.675,204.514c-1.919,0-3.838-0.732-5.303-2.196c-2.93-2.929-2.93-7.678-0.001-10.606
		c7.38-7.381,17.186-11.446,27.613-11.446c10.426,0,20.233,4.064,27.614,11.445c2.929,2.93,2.929,7.678,0,10.607
		c-2.93,2.928-7.678,2.928-10.607,0c-4.547-4.548-10.587-7.053-17.007-7.053c-6.42,0-12.459,2.505-17.006,7.052
		C280.515,203.781,278.594,204.514,276.675,204.514z"/>
</g>
<g>
	<path style="fill:#9EA7AF;" d="M189.612,245.273c-11.79,0-21.383-9.617-21.383-21.438c0-11.82,9.593-21.437,21.383-21.437
		c11.791,0,21.384,9.616,21.384,21.437C210.996,235.655,201.403,245.273,189.612,245.273z"/>
	<path style="fill:#9EA7AF;" d="M298.986,245.273c-11.791,0-21.384-9.617-21.384-21.438c0-11.82,9.593-21.437,21.384-21.437
		c11.79,0,21.383,9.616,21.383,21.437C320.368,235.655,310.776,245.273,298.986,245.273z"/>
	<rect x="142.671" y="105.73" style="fill:#9EA7AF;" width="208.55" height="32.23"/>
</g>
<g style="opacity:0.15;">
	<rect x="142.671" y="105.73" style="fill:#440075;" width="29.884" height="32.23"/>
</g>
<g>
	<path style="fill:#FFC502;" d="M230.644,65.623c-0.393-0.393-0.608-0.917-0.608-1.478c0-0.562,0.216-1.086,0.608-1.479l10.94-10.94
		h-54.35c-1.7,0-2.517,1.267-1.816,2.816l7.048,15.587c0.7,1.548,2.664,2.815,4.364,2.815h41.136L230.644,65.623z"/>
	<path style="fill:#FFC502;" d="M306.661,51.727h-54.352l10.942,10.94c0.814,0.814,0.814,2.141,0,2.956l-7.323,7.322h41.135
		c1.7,0,3.664-1.268,4.364-2.815l7.05-15.587C309.178,52.994,308.362,51.727,306.661,51.727z"/>
</g>
<path style="fill:#FCDB67;" d="M229.937,66.33c-1.202-1.201-1.201-3.169,0-4.37l14.825-14.825c1.201-1.201,3.169-1.201,4.37,0
	l14.827,14.825c1.201,1.201,1.201,3.168,0,4.37l-14.827,14.826c-1.201,1.202-3.168,1.202-4.37,0L229.937,66.33z"/>
<path style="fill:#D2957D;" d="M253.04,303.744c-4.492,0-9.007-0.688-13.415-2.078c-3.95-1.246-6.144-5.458-4.898-9.408
	c1.245-3.95,5.46-6.144,9.408-4.898c7.496,2.363,15.454,1.669,22.413-1.953s12.092-9.744,14.453-17.238
	c1.245-3.95,5.455-6.144,9.408-4.898c3.95,1.245,6.144,5.457,4.898,9.408c-3.566,11.315-11.32,20.562-21.833,26.034
	C267.058,302.052,260.078,303.744,253.04,303.744z"/>
<g>
</g>
<g>
</g>
<g>
</g>
<g>
</g>
<g>
</g>
<g>
</g>
<g>
</g>
<g>
</g>
<g>
</g>
<g>
</g>
<g>
</g>
<g>
</g>
<g>
</g>
<g>
</g>
<g>
</g>
</svg>
