<?xml version="1.0" encoding="iso-8859-1"?>
<!-- Generator: Adobe Illustrator 19.0.0, SVG Export Plug-In . SVG Version: 6.00 Build 0)  -->
<svg version="1.1" id="Capa_1" xmlns="http://www.w3.org/2000/svg" xmlns:xlink="http://www.w3.org/1999/xlink" x="0px" y="0px"
	 viewBox="0 0 512 512" style="enable-background:new 0 0 512 512;" xml:space="preserve">
<path style="fill:#FDB8A4;" d="M448.8,176.734h-32.133c-8.284,0-15,6.716-15,15s6.716,15,15,15v66.4c-8.284,0-15,6.716-15,15
	s6.716,15,15,15H448.8c34.849,0,63.2-28.352,63.2-63.201C512,205.085,483.648,176.734,448.8,176.734z"/>
<path style="fill:#FDCDBF;" d="M95.333,273.135v-66.4c8.284,0,15-6.716,15-15s-6.716-15-15-15H63.2
	c-34.849,0-63.2,28.351-63.2,63.199c0,34.85,28.352,63.201,63.2,63.201h32.133c8.284,0,15-6.716,15-15
	S103.617,273.135,95.333,273.135z"/>
<path style="fill:#FEDFD5;" d="M256,16.066c-96.863,0-175.667,78.805-175.667,175.668v128.533
	c0,96.862,78.804,175.666,175.667,175.666s175.667-78.804,175.667-175.666V191.734C431.667,94.871,352.863,16.066,256,16.066z"/>
<path style="fill:#FDCDBF;" d="M256,16.066v479.867c96.863,0,175.667-78.804,175.667-175.666V191.734
	C431.667,94.871,352.863,16.066,256,16.066z"/>
<path style="fill:#3B211A;" d="M191.736,230.848c-3.951,0-7.82-1.61-10.61-4.4s-4.39-6.66-4.39-10.6c0-3.95,1.6-7.82,4.39-10.61
	s6.659-4.39,10.61-4.39c3.949,0,7.81,1.6,10.6,4.39c2.8,2.79,4.4,6.66,4.4,10.61c0,3.939-1.601,7.809-4.4,10.6
	C199.546,229.237,195.685,230.848,191.736,230.848z"/>
<path style="fill:#0F0301;" d="M320.266,230.848c-3.949,0-7.811-1.61-10.609-4.4c-2.791-2.79-4.391-6.65-4.391-10.6
	c0-3.96,1.6-7.82,4.391-10.61c2.789-2.79,6.66-4.39,10.609-4.39c3.95,0,7.82,1.6,10.61,4.39c2.79,2.79,4.39,6.66,4.39,10.61
	c0,3.939-1.6,7.809-4.39,10.6C328.076,229.237,324.216,230.848,320.266,230.848z"/>
<path style="fill:#FCC892;" d="M332.898,476.371c-8.284,0-15-6.716-15-15V346.15c-19.262-9.039-40.484-13.783-61.897-13.783
	s-42.638,4.744-61.899,13.783v115.221c0,8.284-6.716,15-15,15s-15-6.716-15-15V336.945c0-5.486,2.995-10.535,7.811-13.165
	c25.65-14.009,54.729-21.413,84.089-21.413c29.359,0,58.436,7.404,84.087,21.413c4.815,2.63,7.81,7.679,7.81,13.165v124.426
	C347.898,469.655,341.183,476.371,332.898,476.371z"/>
<path style="fill:#FDCDBF;" d="M272.066,399.535h-32.133c-8.284,0-15-6.716-15-15s6.716-15,15-15h32.133c8.284,0,15,6.716,15,15
	S280.351,399.535,272.066,399.535z"/>
<path style="fill:#FDB8A4;" d="M272.066,399.535c8.284,0,15-6.716,15-15s-6.716-15-15-15H256v30H272.066z"/>
<path style="fill:#FCA953;" d="M340.088,323.78c-25.65-14.009-54.728-21.413-84.087-21.413c-0.001,0-0.001,0-0.001,0v30
	c0,0,0,0,0.001,0c21.413,0,42.636,4.744,61.897,13.783v115.221c0,8.284,6.716,15,15,15s15-6.716,15-15V336.945
	C347.898,331.46,344.903,326.41,340.088,323.78z"/>
<g>
</g>
<g>
</g>
<g>
</g>
<g>
</g>
<g>
</g>
<g>
</g>
<g>
</g>
<g>
</g>
<g>
</g>
<g>
</g>
<g>
</g>
<g>
</g>
<g>
</g>
<g>
</g>
<g>
</g>
</svg>
