<?xml version="1.0" encoding="iso-8859-1"?>
<!-- Generator: Adobe Illustrator 19.0.0, SVG Export Plug-In . SVG Version: 6.00 Build 0)  -->
<svg version="1.1" id="Capa_1" xmlns="http://www.w3.org/2000/svg" xmlns:xlink="http://www.w3.org/1999/xlink" x="0px" y="0px"
	 viewBox="0 0 512 512" style="enable-background:new 0 0 512 512;" xml:space="preserve">
<path style="fill:#5EC08B;" d="M142.547,512h-28.656c-4.608,0-8.344-3.736-8.344-8.344v-21.934
	c0-35.608,19.635-67.917,51.242-84.316l17.04,32.842c-19.296,10.012-31.283,29.736-31.283,51.474L142.547,512L142.547,512z"/>
<path style="opacity:0.15;enable-background:new    ;" d="M142.547,512h-28.656c-4.608,0-8.344-3.736-8.344-8.344v-21.934
	c0-35.608,19.635-67.917,51.242-84.316l17.04,32.842c-19.296,10.012-31.283,29.736-31.283,51.474L142.547,512L142.547,512z"/>
<path style="fill:#5EC08B;" d="M369.453,512h28.656c4.608,0,8.344-3.736,8.344-8.344v-21.934c0-35.608-19.635-67.917-51.242-84.316
	l-17.04,32.842c19.296,10.012,31.283,29.736,31.283,51.474L369.453,512L369.453,512z"/>
<path style="opacity:0.15;enable-background:new    ;" d="M369.453,512h28.656c4.608,0,8.344-3.736,8.344-8.344v-21.934
	c0-35.608-19.635-67.917-51.242-84.316l-17.04,32.842c19.296,10.012,31.283,29.736,31.283,51.474L369.453,512L369.453,512z"/>
<path style="fill:#5EC08B;" d="M256,322.422L256,322.422c-62.789,0-113.689,50.9-113.689,113.689V512h227.378v-75.888
	C369.689,373.323,318.789,322.422,256,322.422z"/>
<g style="opacity:0.1;">
	<path d="M183.323,457.83c-2.26,0-4.493-1.017-5.969-2.952l-10.5-13.766c-2.513-3.293-1.879-8,1.414-10.512
		c3.294-2.512,8.001-1.878,10.512,1.415l10.5,13.766c2.513,3.293,1.879,8-1.414,10.512
		C186.508,457.329,184.909,457.83,183.323,457.83z"/>
	<path d="M209.453,497.343c-2.393,0-4.743-1.142-6.196-3.265c-2.339-3.418-1.464-8.086,1.954-10.425l9.019-6.171
		c3.419-2.338,8.086-1.464,10.425,1.955c2.339,3.419,1.464,8.086-1.954,10.425l-9.019,6.171
		C212.387,496.918,210.912,497.343,209.453,497.343z"/>
	<path d="M279.784,471.046c-3.279,0-6.291-2.167-7.218-5.479l-3.323-11.867c-1.117-3.989,1.21-8.127,5.199-9.245
		c3.99-1.118,8.129,1.211,9.244,5.2l3.323,11.867c1.117,3.989-1.211,8.127-5.199,9.245
		C281.135,470.956,280.453,471.046,279.784,471.046z"/>
	<path d="M332.527,489.585c-1.024,0-2.064-0.211-3.061-0.656c-3.78-1.692-5.474-6.129-3.781-9.91l6.171-13.787
		c1.692-3.781,6.128-5.473,9.91-3.782c3.78,1.692,5.474,6.129,3.781,9.91l-6.171,13.787
		C338.13,487.933,335.394,489.585,332.527,489.585z"/>
	<path d="M314.012,425.632c-1.218,0-2.452-0.297-3.596-0.923l-15.664-8.578c-3.633-1.99-4.965-6.547-2.976-10.181
		c1.99-3.633,6.548-4.964,10.181-2.976l15.664,8.578c3.633,1.99,4.965,6.547,2.976,10.181
		C319.233,424.223,316.663,425.632,314.012,425.632z"/>
	<path d="M212.941,425.486c-1.855,0-3.712-0.683-5.162-2.06c-3.005-2.852-3.128-7.599-0.276-10.603l7.869-8.29
		c2.852-3.005,7.601-3.127,10.602-0.276c3.005,2.852,3.128,7.599,0.276,10.603l-7.869,8.289
		C216.907,424.703,214.926,425.486,212.941,425.486z"/>
</g>
<path style="opacity:0.5;fill:#FFFFFF;enable-background:new    ;" d="M256,322.422L256,322.422
	c-36.179,0-68.408,16.901-89.229,43.236c26.263,15.148,56.733,23.817,89.229,23.817s62.967-8.669,89.229-23.817
	C324.408,339.324,292.179,322.422,256,322.422z"/>
<path style="opacity:0.1;enable-background:new    ;" d="M296.138,335.869c-1.724-3.767-6.174-5.424-9.941-3.698
	c-3.766,1.724-5.422,6.175-3.697,9.941l19,41.505c4.904-1.287,9.724-2.779,14.454-4.462L296.138,335.869z M225.804,332.171
	c-3.768-1.724-8.218-0.068-9.941,3.698l-19.815,43.286c4.73,1.683,9.55,3.175,14.454,4.462l19-41.505
	C231.226,338.346,229.569,333.895,225.804,332.171z M256,330.632c-4.143,0-7.5,3.358-7.5,7.5v51.171
	c2.489,0.103,4.986,0.173,7.5,0.173s5.011-0.07,7.5-0.173v-51.171C263.5,333.99,260.143,330.632,256,330.632z"/>
<path style="opacity:0.1;enable-background:new    ;" d="M256,322.422L256,322.422c-31.165,0-59.396,12.543-79.933,32.852
	c24.057,12.04,51.2,18.826,79.933,18.826c28.732,0,55.876-6.786,79.933-18.826C315.396,334.966,287.164,322.422,256,322.422z"/>
<g>
	<circle style="fill:#FFD4B8;" cx="77.15" cy="179.09" r="31.541"/>
	<circle style="fill:#FFD4B8;" cx="434.85" cy="179.09" r="31.541"/>
	<circle style="fill:#FFD4B8;" cx="256" cy="178.85" r="178.85"/>
</g>
<g>
	<path style="fill:#BCBCBC;" d="M104.597,83.62c-17.381,27.576-27.447,60.225-27.447,95.23c0,3.203,0.088,6.385,0.254,9.546
		c30.793-0.157,55.708-25.161,55.708-55.991C133.112,111.469,121.615,93.228,104.597,83.62z"/>
	<path style="fill:#BCBCBC;" d="M407.403,83.62c17.381,27.576,27.447,60.225,27.447,95.23c0,3.203-0.088,6.385-0.254,9.546
		c-30.793-0.157-55.708-25.161-55.708-55.991C378.888,111.469,390.385,93.228,407.403,83.62z"/>
</g>
<g>
	<path style="fill:#4A5058;" d="M165.31,174.212c-4.143,0-7.5-3.358-7.5-7.5v-17.818c0-4.142,3.357-7.5,7.5-7.5s7.5,3.358,7.5,7.5
		v17.818C172.81,170.855,169.452,174.212,165.31,174.212z"/>
	<path style="fill:#4A5058;" d="M346.69,174.212c-4.142,0-7.5-3.358-7.5-7.5v-17.818c0-4.142,3.358-7.5,7.5-7.5
		c4.143,0,7.5,3.358,7.5,7.5v17.818C354.19,170.855,350.833,174.212,346.69,174.212z"/>
	<path style="fill:#4A5058;" d="M256,223.355c-9.209,0-18.105-3.859-24.409-10.588c-2.832-3.023-2.677-7.769,0.346-10.601
		c3.024-2.832,7.77-2.677,10.602,0.346c3.529,3.768,8.311,5.843,13.462,5.843s9.933-2.075,13.462-5.843
		c2.832-3.022,7.577-3.178,10.602-0.346c3.022,2.832,3.178,7.578,0.346,10.601C274.105,219.496,265.209,223.355,256,223.355z"/>
</g>
<g>
	<path style="opacity:0.1;fill:#513130;enable-background:new    ;" d="M282.505,335.122c-98.776,0-178.85-80.074-178.85-178.85
		c0-48.278,19.136-92.081,50.228-124.258C107.506,64.328,77.15,118.04,77.15,178.85c0,98.776,80.074,178.85,178.85,178.85
		c50.498,0,96.101-20.936,128.622-54.592C355.667,323.283,320.471,335.122,282.505,335.122z"/>
	<g style="opacity:0.1;">
		<path style="fill:#513130;" d="M315.309,105.69c-10.672,0-18.394-1.739-26.569-3.581c-8.9-2.005-18.104-4.078-32.739-4.078
			c-14.636,0-23.839,2.073-32.739,4.078c-8.176,1.842-15.897,3.581-26.569,3.581c-4.143,0-7.5-3.358-7.5-7.5s3.357-7.5,7.5-7.5
			c9.003,0,15.616-1.49,23.273-3.214c9.248-2.084,19.73-4.445,36.035-4.445s26.787,2.361,36.035,4.445
			c7.657,1.725,14.271,3.214,23.273,3.214c4.143,0,7.5,3.358,7.5,7.5S319.451,105.69,315.309,105.69z"/>
		<path style="fill:#513130;" d="M302.28,73.271c-0.38,0-0.766-0.029-1.154-0.089c-4.345-0.671-8.433-1.592-12.386-2.483
			c-8.9-2.005-18.104-4.078-32.74-4.078c-14.636,0-23.84,2.073-32.74,4.078c-3.953,0.891-8.041,1.812-12.386,2.483
			c-4.104,0.635-7.926-2.174-8.558-6.267c-0.633-4.094,2.174-7.925,6.267-8.557c3.839-0.593,7.502-1.418,11.381-2.292
			c9.249-2.083,19.731-4.445,36.036-4.445s26.787,2.361,36.036,4.445c3.879,0.874,7.542,1.699,11.381,2.292
			c4.093,0.632,6.899,4.463,6.267,8.557C309.111,70.62,305.917,73.271,302.28,73.271z"/>
	</g>
</g>
<g>
</g>
<g>
</g>
<g>
</g>
<g>
</g>
<g>
</g>
<g>
</g>
<g>
</g>
<g>
</g>
<g>
</g>
<g>
</g>
<g>
</g>
<g>
</g>
<g>
</g>
<g>
</g>
<g>
</g>
</svg>
