<?xml version="1.0" encoding="iso-8859-1"?>
<!-- Generator: Adobe Illustrator 19.0.0, SVG Export Plug-In . SVG Version: 6.00 Build 0)  -->
<svg version="1.1" id="Capa_1" xmlns="http://www.w3.org/2000/svg" xmlns:xlink="http://www.w3.org/1999/xlink" x="0px" y="0px"
	 viewBox="0 0 512 512" style="enable-background:new 0 0 512 512;" xml:space="preserve">
<path style="fill:#F9BC35;" d="M421.024,227v120c0,8.401-6.599,15-15,15h-300c-8.401,0-15-6.599-15-15V227
	c0-65.7,39-125.099,99-151.199h132.001C382.024,101.901,421.024,161.3,421.024,227z"/>
<path style="fill:#F39E31;" d="M421.024,227v120c0,8.401-6.599,15-15,15h-150V75.801h66C382.024,101.901,421.024,161.3,421.024,227z
	"/>
<path style="fill:#FFCF99;" d="M392.223,354.2L256.024,497L119.825,354.2l19.347-10.101c9.335-4.874,16.414-13.182,19.744-23.172
	l6.808-20.426h180.601l11.999,36L392.223,354.2z"/>
<path style="fill:#FFC380;" d="M392.223,354.2L256.024,497V300.5h90.3l6.808,20.426c3.33,9.991,10.408,18.298,19.744,23.172
	L392.223,354.2z"/>
<path style="fill:#F26B7D;" d="M179.524,406.099L109.023,510.2c-1.199,0.3-2.699,0.601-3.9,0.601
	c-4.799,0.899-9.3,1.199-14.099,1.199c-5.7,0-11.7-0.601-17.701-1.8c-1.8-0.3-3.6-0.601-5.4-1.199
	c-30.899-7.5-55.8-32.401-63.9-63.301c-7.2-27.9-1.5-56.699,15.901-78.9c17.1-22.2,42.9-34.799,71.1-34.799
	C134.825,332,172.024,363.199,179.524,406.099z"/>
<path style="fill:#DB5C6B;" d="M492.424,476.6c-13.5,17.699-32.401,29.399-53.401,33.6c-5.999,1.199-11.999,1.8-17.999,1.8
	c-4.799,0-9.6-0.3-14.099-1.199c-1.201,0-2.701-0.3-3.9-0.601l-70.501-104.101c4.501-25.199,19.501-47.098,41.1-60.599
	c22.2-13.801,48.6-17.1,74.401-9.6c28.799,8.399,51.599,32.1,59.7,61.199C515.224,425.3,509.825,454.1,492.424,476.6z"/>
<path style="fill:#E55639;" d="M105.123,510.801c-4.799,0.899-9.3,1.199-14.099,1.199c-5.7,0-11.7-0.601-17.701-1.8l-6.899-13.5
	c-14.099-28.5-23.399-77.699-0.899-100.199c5.7-6,15.298-6,20.999,0c6,5.7,6,15.298,0,20.999c-13.2,13.5-1.5,48.9,6.901,65.7
	l10.199,20.4C104.825,506,105.123,508.4,105.123,510.801z"/>
<path style="fill:#CF4529;" d="M445.624,496.7l-6.601,13.5c-5.999,1.199-11.999,1.8-17.999,1.8c-4.799,0-9.6-0.3-14.099-1.199
	c0-2.401,0.298-4.801,1.5-7.202l10.199-20.4c8.401-16.8,20.101-52.2,6.901-65.7c-6-5.7-6-15.298,0-20.999c5.7-6,15.298-6,20.999,0
	C469.023,419.001,459.723,468.199,445.624,496.7z"/>
<path style="fill:#FFDFB3;" d="M361.024,242v9.901c0,58.799-46.199,110.099-105,110.099c-57.9,0-105-46.8-105-105v-15
	c29.399,0,34.799,0,34.799,0h10.201c24.6,0,46.199-11.7,60-30c13.801,18.3,35.4,30,60,30c5.7,0,6.899,0,6.899,0H361.024z"/>
<path style="fill:#FFCF99;" d="M361.024,242v9.901c0,58.799-46.199,110.099-105,110.099V212c13.801,18.3,35.4,30,60,30
	c5.7,0,6.899,0,6.899,0H361.024z"/>
<path style="fill:#FFDE33;" d="M305.525,4.501L286.024,23.7L266.523,4.501C263.824,1.5,259.924,0,256.024,0s-7.8,1.5-10.499,4.501
	L226.024,23.7L206.523,4.501c-9.3-9.6-25.499-2.701-25.499,10.499v92c0,8.401,6.599,15,15,15h120c8.401,0,15-6.599,15-15V15
	C331.024,1.8,314.825-5.099,305.525,4.501z"/>
<path style="fill:#FFBC33;" d="M331.024,15v92c0,8.401-6.599,15-15,15h-60V0c3.9,0,7.8,1.5,10.499,4.501L286.024,23.7l19.501-19.199
	C314.825-5.099,331.024,1.8,331.024,15z"/>
<path style="fill:#FF80C0;" d="M421.024,482v30h-330v-30c0-47.701,38.101-87.9,84.6-90c33.6-1.199,57.299,9.901,75.3,34.799
	c1.5,2.401,3.3,3.602,5.099,3.602s3.6-1.201,5.099-3.602c18.001-24.899,41.7-36.299,75-34.799
	C382.923,394.1,421.024,434.299,421.024,482z"/>
<path style="fill:#E673AD;" d="M421.024,482v30h-165v-81.599c1.8,0,3.6-1.201,5.099-3.602c18.001-24.899,41.7-36.299,75-34.799
	C382.923,394.1,421.024,434.299,421.024,482z"/>
<g>
</g>
<g>
</g>
<g>
</g>
<g>
</g>
<g>
</g>
<g>
</g>
<g>
</g>
<g>
</g>
<g>
</g>
<g>
</g>
<g>
</g>
<g>
</g>
<g>
</g>
<g>
</g>
<g>
</g>
</svg>
