<?xml version="1.0" encoding="iso-8859-1"?>
<!-- Generator: Adobe Illustrator 19.0.0, SVG Export Plug-In . SVG Version: 6.00 Build 0)  -->
<svg version="1.1" id="Capa_1" xmlns="http://www.w3.org/2000/svg" xmlns:xlink="http://www.w3.org/1999/xlink" x="0px" y="0px"
	 viewBox="0 0 512 512" style="enable-background:new 0 0 512 512;" xml:space="preserve">
<path style="fill:#422017;" d="M448.8,176.732h-32.134c-8.284,0-15,6.716-15,15s6.716,15,15,15v66.4c-8.284,0-15,6.716-15,15
	s6.716,15,15,15H448.8c34.849,0,63.2-28.351,63.2-63.199C512,205.084,483.648,176.732,448.8,176.732z"/>
<path style="fill:#5B3227;" d="M95.333,273.133v-66.4c8.284,0,15-6.716,15-15s-6.716-15-15-15H63.199
	C28.351,176.732,0,205.084,0,239.934c0,34.849,28.351,63.199,63.199,63.199h32.134c8.284,0,15-6.716,15-15
	S103.617,273.133,95.333,273.133z"/>
<path style="fill:#794334;" d="M256,16.066c-96.863,0-175.667,78.804-175.667,175.666v96.4c0,4.267,1.816,8.331,4.996,11.177
	c21.363,19.123,45.56,34.41,71.915,45.438c1.862,0.779,3.83,1.162,5.789,1.162c3.067,0,6.111-0.94,8.689-2.772
	c24.707-17.557,53.85-26.837,84.277-26.837s59.568,9.28,84.275,26.837c4.224,3.001,9.697,3.609,14.479,1.61
	c26.357-11.028,50.554-26.316,71.917-45.438c3.179-2.846,4.995-6.91,4.995-11.177v-96.4C431.666,94.87,352.862,16.066,256,16.066z"
	/>
<path style="fill:#5B3227;" d="M256,16.066V316.3c30.427,0,59.568,9.28,84.275,26.837c4.224,3.001,9.697,3.609,14.479,1.61
	c26.357-11.028,50.554-26.316,71.917-45.438c3.179-2.846,4.995-6.91,4.995-11.177v-96.4C431.666,94.87,352.862,16.066,256,16.066z"
	/>
<path style="fill:#F2F2F2;" d="M422.787,274.439c-5.401-2.414-11.717-1.428-16.126,2.518
	c-16.866,15.099-35.728,27.487-56.163,36.899c-28.214-18.054-60.704-27.555-94.498-27.555c-33.796,0-66.286,9.501-94.499,27.555
	c-20.433-9.412-39.297-21.802-56.164-36.899c-4.408-3.946-10.722-4.934-16.125-2.518c-5.401,2.414-8.879,7.778-8.879,13.694v32.133
	c0,96.863,78.804,175.668,175.667,175.668c96.862,0,175.666-78.805,175.666-175.668v-32.133
	C431.666,282.217,428.189,276.853,422.787,274.439z"/>
<path style="fill:#D9D9D9;" d="M422.787,274.439c-5.401-2.414-11.717-1.428-16.126,2.518
	c-16.866,15.099-35.728,27.487-56.163,36.899c-28.214-18.054-60.704-27.555-94.498-27.555v209.633
	c96.862,0,175.666-78.805,175.666-175.668v-32.133C431.666,282.217,428.189,276.853,422.787,274.439z"/>
<path style="fill:#3B211A;" d="M191.735,230.837c-3.949,0-7.819-1.6-10.609-4.39s-4.391-6.66-4.391-10.61
	c0-3.949,1.601-7.81,4.391-10.6c2.79-2.8,6.66-4.4,10.609-4.4c3.94,0,7.811,1.601,10.601,4.4c2.8,2.79,4.399,6.65,4.399,10.6
	c0,3.95-1.6,7.82-4.399,10.61C199.546,229.237,195.676,230.837,191.735,230.837z"/>
<path style="fill:#0F0301;" d="M320.266,230.837c-3.95,0-7.81-1.6-10.61-4.39c-2.789-2.79-4.39-6.66-4.39-10.61
	c0-3.949,1.601-7.81,4.39-10.6c2.801-2.8,6.66-4.4,10.61-4.4s7.811,1.601,10.61,4.4c2.79,2.79,4.39,6.65,4.39,10.6
	c0,3.95-1.6,7.82-4.39,10.61C328.076,229.237,324.216,230.837,320.266,230.837z"/>
<path style="fill:#5B3227;" d="M272.066,399.533h-32.133c-8.284,0-15-6.716-15-15s6.716-15,15-15h32.133c8.284,0,15,6.716,15,15
	S280.351,399.533,272.066,399.533z"/>
<path style="fill:#422017;" d="M272.066,369.533H256v30h16.066c8.284,0,15-6.716,15-15S280.351,369.533,272.066,369.533z"/>
<g>
</g>
<g>
</g>
<g>
</g>
<g>
</g>
<g>
</g>
<g>
</g>
<g>
</g>
<g>
</g>
<g>
</g>
<g>
</g>
<g>
</g>
<g>
</g>
<g>
</g>
<g>
</g>
<g>
</g>
</svg>
