<?xml version="1.0" encoding="iso-8859-1"?>
<!-- Generator: Adobe Illustrator 19.0.0, SVG Export Plug-In . SVG Version: 6.00 Build 0)  -->
<svg version="1.1" id="Capa_1" xmlns="http://www.w3.org/2000/svg" xmlns:xlink="http://www.w3.org/1999/xlink" x="0px" y="0px"
	 viewBox="0 0 512.001 512.001" style="enable-background:new 0 0 512.001 512.001;" xml:space="preserve">
<g>
	<path style="fill:#FFC502;" d="M199.252,20.088h-29.787c-5.404,0-9.787,4.382-9.787,9.787s4.382,9.787,9.787,9.787h30.891
		C197.687,32.68,197.329,25.953,199.252,20.088z"/>
	<path style="fill:#FFC502;" d="M342.535,20.088h-29.786c1.922,5.865,1.565,12.592-1.105,19.574h30.892
		c5.405,0,9.787-4.382,9.787-9.787C352.322,24.47,347.94,20.088,342.535,20.088z"/>
</g>
<path style="fill:#312F56;" d="M207.982,55.242C223.076,51.274,239.219,49,256,49s32.924,2.274,48.018,6.242
	c3.06-4.156,5.692-8.589,7.728-13.194C321.966,18.921,307.148,0,278.818,0h-45.636c-28.33,0-43.147,18.921-32.928,42.048
	C202.29,46.653,204.922,51.086,207.982,55.242z"/>
<path style="opacity:0.15;fill:#030005;enable-background:new    ;" d="M207.982,55.242c8.452-2.222,17.234-3.908,26.273-4.964
	c-1.652-2.667-3.14-5.412-4.385-8.23C219.65,18.921,234.467,0,262.797,0h-29.615c-28.33,0-43.147,18.921-32.928,42.048
	C202.29,46.653,204.922,51.086,207.982,55.242z"/>
<path style="fill:#FFB98A;" d="M404.953,409.793c-21.625-28.199-52.255-49.04-86.246-58.684c-2.204-0.626-3.744-2.664-3.744-4.956
	v-15.152c-17.149,7.705-37.352,12.16-58.963,12.16c-21.612,0-41.814-4.456-58.963-12.16v15.152c0,2.292-1.539,4.33-3.744,4.956
	c-33.991,9.645-64.621,30.486-86.247,58.684c-21.515,28.055-33.303,61.577-34.088,96.942c-0.031,1.385,0.498,2.725,1.467,3.716
	c0.97,0.991,2.296,1.549,3.683,1.549h355.785c1.386,0,2.713-0.559,3.682-1.549c0.97-0.991,1.498-2.331,1.468-3.716
	C438.258,471.373,426.47,437.852,404.953,409.793z"/>
<path style="opacity:0.15;fill:#440075;enable-background:new    ;" d="M197.037,331.001v15.152c0,2.292-1.539,4.33-3.744,4.956
	c-33.991,9.645-64.621,30.486-86.247,58.684c-21.515,28.055-33.303,61.577-34.088,96.942c-0.031,1.385,0.498,2.725,1.467,3.716
	c0.97,0.991,2.296,1.549,3.683,1.549h24.891c2.536-31.79,14.051-61.785,33.595-87.27c21.625-28.198,52.255-49.04,86.246-58.684
	c2.205-0.626,3.745-2.664,3.745-4.956v-20.77C216.042,338.243,206.112,335.078,197.037,331.001z"/>
<path style="fill:#135693;" d="M256,47.903c-83.92,0-151.952,56.749-151.952,98.897c0,17.177,11.31,29.944,30.379,39.049
	c1.635-0.364,3.332-0.562,5.075-0.562h14.105V154.74c0-16.703,5.724-29.256,17.014-37.312c8.602-6.139,20.778-9.659,33.407-9.659
	c18.366,0,35.633,9.035,46.19,24.169c1.196,1.714,3.156,2.738,5.242,2.738c2.087,0,4.046-1.024,5.24-2.738
	c10.559-15.134,27.825-24.169,46.19-24.169c20.701,0,51.5,12.509,51.5,46.971v30.548h14.106c1.742,0,3.439,0.198,5.074,0.561
	c19.069-9.104,30.379-21.871,30.379-39.048C407.951,104.652,339.92,47.903,256,47.903z"/>
<g style="opacity:0.15;">
	<path style="fill:#030005;" d="M118.986,162.169c0-42.149,68.031-98.897,151.952-98.897c48.782,0,92.19,19.177,119.992,43.514
		C365.624,75.671,314.702,47.903,256,47.903c-83.92,0-151.952,56.749-151.952,98.897c0,13.614,7.106,24.458,19.545,32.905
		C120.588,174.455,118.986,168.625,118.986,162.169z"/>
</g>
<g>
	<path style="fill:#FFB98A;" d="M152.152,230.761c0.648-1.134,1.456-2.546,1.456-11.662v-34.811h-14.105
		c-13.453,0-24.359,10.907-24.359,24.359v26.477c0,13.453,10.906,24.359,24.359,24.359h4.221
		C144.087,249.573,146.916,239.921,152.152,230.761z"/>
	<path style="fill:#FFB98A;" d="M372.498,184.288h-14.106v34.811c0,9.111,0.807,10.523,1.455,11.659
		c5.237,9.164,8.066,18.816,8.431,28.725h4.221c13.453,0,24.358-10.906,24.358-24.359v-26.477
		C396.856,195.194,385.951,184.288,372.498,184.288z"/>
</g>
<g>
	<path style="fill:#D19546;" d="M153.607,219.099v-5.276h-15.058c-4.142,0-7.5,3.358-7.5,7.5s3.358,7.5,7.5,7.5h14.385
		C153.311,227.304,153.607,224.617,153.607,219.099z"/>
	<path style="fill:#D19546;" d="M373.451,213.823h-15.06v5.276c0,5.52,0.297,8.206,0.674,9.724h14.386c4.143,0,7.5-3.358,7.5-7.5
		S377.594,213.823,373.451,213.823z"/>
</g>
<path style="fill:#FFC7A9;" d="M256,344.161c-62.484,0-113.32-37.001-113.32-82.483c0-10.855,2.894-21.424,8.604-31.413
	c0.56-0.98,1.324-2.319,1.324-11.166V154.74c0-17.044,5.865-29.872,17.433-38.126c8.769-6.257,21.157-9.845,33.988-9.845
	c18.692,0,36.267,9.195,47.011,24.597c1.01,1.448,2.66,2.31,4.422,2.31c1.761,0,3.411-0.862,4.42-2.31
	c10.745-15.402,28.319-24.597,47.011-24.597c21.104,0,52.5,12.776,52.5,47.971v64.359c0,8.846,0.765,10.185,1.323,11.163
	c5.71,9.992,8.605,20.562,8.605,31.416C369.32,307.16,318.485,344.161,256,344.161z"/>
<g style="opacity:0.15;">
	<path style="fill:#440075;" d="M173.585,261.678c0-10.855,2.895-21.424,8.604-31.413c0.56-0.98,1.324-2.319,1.324-11.166V154.74
		c0-17.044,5.865-29.872,17.433-38.126c4.962-3.541,11.086-6.226,17.792-7.891c-4.751-1.27-9.686-1.955-14.709-1.955
		c-12.831,0-25.22,3.588-33.988,9.845c-11.567,8.254-17.433,21.082-17.433,38.126v64.359c0,8.847-0.763,10.186-1.324,11.166
		c-5.71,9.989-8.604,20.558-8.604,31.413c0,45.482,50.836,82.483,113.32,82.483c5.241,0,10.398-0.266,15.453-0.771
		C216.253,337.888,173.585,303.344,173.585,261.678z"/>
</g>
<path style="fill:#D2957D;" d="M268.362,273.716h-12.089c-9.816,0-17.802-7.986-17.802-17.802v-34.591c0-4.142,3.358-7.5,7.5-7.5
	s7.5,3.358,7.5,7.5v34.591c0,1.519,1.283,2.802,2.802,2.802h12.089c4.143,0,7.5,3.358,7.5,7.5S272.505,273.716,268.362,273.716z"/>
<g>
	<path style="fill:#775436;" d="M206.013,241.273c-11.792,0-21.384-9.617-21.384-21.438c0-11.82,9.593-21.437,21.384-21.437
		s21.383,9.617,21.383,21.437C227.397,231.656,217.804,241.273,206.013,241.273z"/>
	<path style="fill:#775436;" d="M303.181,241.273c-11.791,0-21.384-9.617-21.384-21.438c0-11.82,9.593-21.437,21.384-21.437
		c11.791,0,21.384,9.617,21.384,21.437C324.565,231.656,314.972,241.273,303.181,241.273z"/>
</g>
<path style="fill:#D2957D;" d="M289.241,301.74h-66.482c-4.142,0-7.5-3.358-7.5-7.5s3.358-7.5,7.5-7.5h66.482
	c4.143,0,7.5,3.358,7.5,7.5S293.384,301.74,289.241,301.74z"/>
<g>
	<path style="fill:#135693;" d="M276.081,189.329c-3.469,0-6.583-2.42-7.33-5.949c-0.857-4.053,1.733-8.033,5.786-8.89
		l53.569-11.332c4.043-0.86,8.031,1.732,8.89,5.785c0.857,4.053-1.733,8.033-5.786,8.89l-53.569,11.332
		C277.118,189.275,276.596,189.329,276.081,189.329z"/>
	<path style="fill:#135693;" d="M235.919,189.329c-0.514,0-1.036-0.053-1.56-0.164l-53.57-11.332
		c-4.052-0.857-6.643-4.837-5.785-8.89c0.857-4.052,4.834-6.645,8.89-5.785l53.57,11.332c4.052,0.857,6.643,4.837,5.785,8.89
		C242.503,186.908,239.388,189.329,235.919,189.329z"/>
</g>
<g>
	<path style="fill:#D2957D;" d="M126.714,444.809c1.864-3.699,0.377-8.208-3.321-10.073c-3.7-1.864-8.208-0.378-10.073,3.321
		c-11.575,22.961-17.736,47.783-18.314,73.777c-0.001,0.056,0.005,0.111,0.005,0.167h14.997
		C110.558,488.317,116.177,465.711,126.714,444.809z"/>
	<path style="fill:#D2957D;" d="M388.606,434.735c-3.699,1.865-5.186,6.374-3.321,10.073c10.538,20.903,16.157,43.509,16.707,67.191
		h14.997c0-0.056,0.006-0.11,0.005-0.167c-0.577-25.993-6.739-50.815-18.314-73.777
		C396.815,434.358,392.303,432.871,388.606,434.735z"/>
</g>
<g>
</g>
<g>
</g>
<g>
</g>
<g>
</g>
<g>
</g>
<g>
</g>
<g>
</g>
<g>
</g>
<g>
</g>
<g>
</g>
<g>
</g>
<g>
</g>
<g>
</g>
<g>
</g>
<g>
</g>
</svg>
