<?xml version="1.0" encoding="iso-8859-1"?>
<!-- Generator: Adobe Illustrator 19.0.0, SVG Export Plug-In . SVG Version: 6.00 Build 0)  -->
<svg version="1.1" id="Layer_1" xmlns="http://www.w3.org/2000/svg" xmlns:xlink="http://www.w3.org/1999/xlink" x="0px" y="0px"
	 viewBox="0 0 511.998 511.998" style="enable-background:new 0 0 511.998 511.998;" xml:space="preserve">
<path style="fill:#FFD3AE;" d="M360.633,163.018c0,0,35.8,156.438-17.605,169.968c-30.924,7.834-55.217,1.681-70.188-4.887
	c-10.834-4.753-22.849-4.753-33.683,0c-14.972,6.568-39.263,12.723-70.188,4.887c-53.405-13.53-17.605-169.968-17.605-169.968"/>
<path style="fill:#E2B08F;" d="M369.161,213.45c-75.213,6.994-151.112,6.994-226.324,0c3.475-28.321,8.533-50.433,8.533-50.433
	h209.259C360.628,163.017,365.686,185.129,369.161,213.45z"/>
<path style="fill:#8CC63F;" d="M365.822,181.271c1.043,0.146-24.434-74.295,11.593-173.632c-80.622-10.185-162.207-10.185-242.83,0
	c36.027,99.337,10.549,173.781,11.593,173.632"/>
<path style="fill:#A67C52;" d="M298.827,186.755c22.433-0.775,44.855-2.169,67.211-4.194l-0.111-1.295
	c0.575,0.089-6.828-22.256-7.692-58.822h-0.033h-25.436h-24.876H154.024h-0.055c-0.863,36.577-8.256,58.911-7.681,58.822
	l-0.111,1.295c22.356,2.025,44.778,3.42,67.222,4.194C209.248,183.885,302.968,183.886,298.827,186.755z"/>
<path style="fill:#EF602E;" d="M381.324,269.637l16.601,109.554l-24.901-2.767l-22.134,74.15h-39.831l-55.059,61.423l-55.059-61.423
	h-39.831l-22.134-74.15l-24.901,2.767l16.601-109.554h-28.221l23.385-57.882l11.145-27.579l31.198,0.177
	c0,0-3.398,13.037-6.209,30.723c-4.228,26.628-7.105,63.78,5.025,82.805c3.741,5.877,8.931,10.027,15.959,11.587
	c25.953,5.777,46.349,1.24,58.911-3.597c9.097-3.497,19.179-3.497,28.266,0c12.572,4.836,32.958,9.374,58.911,3.597
	c29.738-6.596,26.517-59.519,20.983-94.392c-2.8-17.685-6.209-30.723-6.209-30.723l31.198-0.177l11.145,27.579l23.385,57.881
	L381.324,269.637L381.324,269.637z"/>
<path style="fill:#7EAF31;" d="M193.577,2.024c-19.702,1.273-39.376,3.136-58.993,5.614
	c36.026,99.337,10.549,173.781,11.592,173.632h57.884C205.102,140.066,204.988,64.312,193.577,2.024z"/>
<path style="fill:#DB4E23;" d="M136.982,184.176l31.198,0.177c0,0-3.398,13.037-6.209,30.723
	c-12.063-0.919-24.104-2.036-36.134-3.32L136.982,184.176z"/>
<path style="fill:#936841;" d="M153.869,122.443c-0.865,36.568-8.264,58.909-7.692,58.828h57.884
	c0.393-15.548,0.62-36.019,0.139-58.828C204.201,122.443,153.869,122.443,153.869,122.443z"/>
<path style="fill:#DB4E23;" d="M386.16,211.756c-12.03,1.284-24.071,2.402-36.134,3.32c-2.8-17.685-6.209-30.723-6.209-30.723
	l31.198-0.177L386.16,211.756z"/>
<path style="fill:#FDBB00;" d="M307.892,122.443v47.002c0,7.172-3.586,13.513-9.064,17.309c-28.465,0.996-56.963,0.996-85.428,0
	c-5.489-3.796-9.075-10.126-9.075-17.309v-47.002v-2.269c0-11.632,9.429-21.061,21.061-21.061h61.456
	c11.632,0,21.05,9.429,21.05,21.061V122.443z M283.544,166.159v-42.697h-54.882v42.697H283.544z"/>
<path style="fill:#8CC63F;" d="M256,195.916c-70.358,0-140.715-6.086-210.581-18.258c-4.517-0.787-7.54-5.085-6.753-9.602
	c0.786-4.517,5.088-7.545,9.602-6.753c137.841,24.015,277.623,24.015,415.464,0c4.517-0.784,8.815,2.236,9.602,6.753
	c0.787,4.517-2.237,8.815-6.753,9.602C396.716,189.831,326.357,195.916,256,195.916z"/>
<g>
	<path style="fill:#333333;" d="M204.539,276.274c-4.584,0-8.3-3.716-8.3-8.3v-29.88c0-4.584,3.716-8.3,8.3-8.3
		c4.584,0,8.3,3.716,8.3,8.3v29.88C212.84,272.558,209.123,276.274,204.539,276.274z"/>
	<path style="fill:#333333;" d="M307.459,276.274c-4.585,0-8.3-3.716-8.3-8.3v-29.88c0-4.584,3.715-8.3,8.3-8.3s8.3,3.716,8.3,8.3
		v29.88C315.759,272.558,312.044,276.274,307.459,276.274z"/>
</g>
<path style="fill:#DB4E23;" d="M216.899,399.432l-21.002,8.983l-7.26-60.691l-32.239,9.653l10.598-59.496
	c-12.13-19.025-9.252-56.177-5.025-82.805c2.811-17.685,6.209-30.723,6.209-30.723l-31.198-0.177l-11.145,27.579l-23.385,57.882
	h28.221l-16.601,109.554l24.901-2.767l22.134,74.15h39.831l55.059,61.423L216.899,399.432z"/>
<path style="fill:#333333;" d="M290.676,339.666c0,4.991-1.051,9.728-2.955,14.022c-5.379,12.174-17.564,20.663-31.719,20.663
	c-14.166,0-26.351-8.489-31.73-20.663c-1.904-4.294-2.955-9.031-2.955-14.022H290.676z"/>
<path style="fill:#FFFFFF;" d="M290.676,339.666c0,4.991-1.051,9.728-2.955,14.022h-63.448c-1.904-4.294-2.955-9.031-2.955-14.022
	H290.676z"/>
<g>
</g>
<g>
</g>
<g>
</g>
<g>
</g>
<g>
</g>
<g>
</g>
<g>
</g>
<g>
</g>
<g>
</g>
<g>
</g>
<g>
</g>
<g>
</g>
<g>
</g>
<g>
</g>
<g>
</g>
</svg>
