<?xml version="1.0" encoding="iso-8859-1"?>
<!-- Generator: Adobe Illustrator 19.0.0, SVG Export Plug-In . SVG Version: 6.00 Build 0)  -->
<svg version="1.1" id="Capa_1" xmlns="http://www.w3.org/2000/svg" xmlns:xlink="http://www.w3.org/1999/xlink" x="0px" y="0px"
	 viewBox="0 0 512.001 512.001" style="enable-background:new 0 0 512.001 512.001;" xml:space="preserve">
<g>
	<path style="fill:#5DC647;" d="M430.951,504.195L374,409.43v97.419c0,2.844-2.306,5.151-5.15,5.151h57.688
		c1.857,0,3.569-0.999,4.483-2.615C431.935,507.77,431.908,505.787,430.951,504.195z"/>
	<path style="fill:#5DC647;" d="M138,506.849v-97.418l-56.952,94.765c-0.956,1.591-0.982,3.574-0.068,5.19s2.627,2.615,4.483,2.615
		h57.688C140.306,512,138,509.693,138,506.849z"/>
</g>
<path style="fill:#C0272D;" d="M348.672,364.462l-67.466,20.711c-0.127,0.04-0.246,0.104-0.349,0.19
	c-3.529,2.96-7.988,4.59-12.558,4.59h-24.6c-4.569,0-9.028-1.63-12.558-4.59c-0.103-0.086-0.222-0.15-0.349-0.19l-67.468-20.711
	c-15.057,2.059-26.7,14.998-26.7,30.612v111.775c0,2.844,2.306,5.151,5.15,5.151h228.447c2.845,0,5.15-2.307,5.15-5.151V395.074
	C375.374,379.46,363.731,366.521,348.672,364.462z"/>
<path style="opacity:0.15;fill:#440075;enable-background:new    ;" d="M178.344,370.876l-18.603-5.711
	c-13.281,3.462-23.115,15.558-23.115,29.909v111.775c0,2.844,2.306,5.151,5.15,5.151h30.002c-2.845,0-5.15-2.307-5.15-5.151V395.074
	C166.628,385.28,171.213,376.542,178.344,370.876z"/>
<g>
	<path style="fill:#960B15;" d="M168.208,469.397v-39.296c0-4.142-3.357-7.5-7.5-7.5s-7.5,3.358-7.5,7.5v39.296H168.208z"/>
	<path style="fill:#960B15;" d="M358.792,469.397v-39.296c0-4.142-3.357-7.5-7.5-7.5s-7.5,3.358-7.5,7.5v39.296H358.792z"/>
</g>
<g>
	<path style="fill:#FFFFFF;" d="M179.894,468.546c0-0.107,0.022-0.22,0.028-0.329h-43.296v20.604h43.268V468.546z"/>
	<path style="fill:#FFFFFF;" d="M332.078,468.217c0.006,0.109,0.028,0.222,0.028,0.329v20.274h43.268v-20.604h-43.296V468.217z"/>
</g>
<g>
	<path style="fill:#5DC647;" d="M224.097,371.107v-36.296c-49.577,5.288-64.419,30.334-64.419,30.334l73.795,22.654
		C227.859,384.348,224.097,378.167,224.097,371.107z"/>
	<path style="fill:#5DC647;" d="M287.903,371.107c0,7.06-3.763,13.24-9.376,16.692l73.795-22.654c0,0-14.842-25.046-64.419-30.334
		V371.107z"/>
</g>
<g>
	<path style="fill:#203A74;" d="M125.167,139.56h31.999c0.349-8.34,1.751-16.053,4.196-22.968c0.586-1.655,2.156-2.768,3.91-2.768
		c0.18,0,0.359,0.012,0.541,0.036c10.167,1.331,20.682,2.006,31.253,2.006c50.113,0,94.882-14.991,114.052-38.19
		c0.792-0.958,1.959-1.507,3.202-1.507c0.465,0,0.923,0.078,1.36,0.231c30.48,10.603,46.553,31.846,47.845,63.161h23.308
		c0.705,0,1.327,0.353,1.706,0.889v-27.436c0-45.736-37.074-82.813-82.811-82.813h-10.413C278.605,11.659,254.403,0,227.477,0
		h-12.712c-50.426,0-91.304,40.878-91.304,91.303v49.146C123.84,139.913,124.462,139.56,125.167,139.56z"/>
	<path style="fill:#203A74;" d="M372.498,245.021h-12.564c-9.615,34.956-37.186,62.544-72.127,72.194v7.294
		c2.109,0.163,4.24,0.252,6.392,0.252h11.53c45.736,0,82.811-37.076,82.811-82.812v-2.963
		C384.254,242.74,378.644,245.021,372.498,245.021z"/>
	<path style="fill:#203A74;" d="M224.193,314.372c-30.768-11.543-54.611-37.356-63.415-69.351h-21.276
		c-6.06,0-11.598-2.217-15.859-5.879c2.936,47.777,42.606,85.619,91.122,85.619h9.429L224.193,314.372L224.193,314.372z"/>
</g>
<g>
	<path style="fill:#FFB98A;" d="M123.302,177.916c-5.004,4.462-8.158,10.954-8.158,18.186v26.477
		c0,13.453,10.905,24.359,24.358,24.359h21.805c-1.313-4.431-2.326-8.987-3.038-13.641
		C138.722,222.023,125.104,201.602,123.302,177.916z"/>
	<path style="fill:#FFB98A;" d="M388.698,177.916c-1.495,19.643-11.103,37.049-25.494,48.848c-0.612,6.941-1.898,13.69-3.818,20.173
		h13.112c13.453,0,24.358-10.906,24.358-24.359v-26.477C396.856,188.87,393.702,182.378,388.698,177.916z"/>
	<path style="fill:#FFB98A;" d="M260.346,320.932c-13.127,0-25.688-2.467-37.249-6.954v56.372c0,11.332,9.271,20.604,20.604,20.604
		h24.6c11.332,0,20.603-9.272,20.603-20.604v-53.438C279.83,319.527,270.249,320.932,260.346,320.932z"/>
</g>
<g style="opacity:0.15;">
	<path style="fill:#440075;" d="M239,370.35v-51.642c-5.472-1.156-10.785-2.744-15.903-4.73v56.372
		c0,11.332,9.271,20.604,20.604,20.604h15.903C248.272,390.954,239,381.682,239,370.35z"/>
</g>
<g>
	<path style="fill:#FFC7A9;" d="M364.526,139.56c-1.292-31.787-17.591-53.348-48.516-64.105c-0.554-0.193-1.126-0.287-1.69-0.287
		c-1.509,0-2.976,0.664-3.973,1.87c-18.988,22.979-63.454,37.828-113.281,37.828c-10.528,0-20.999-0.672-31.122-1.997
		c-0.225-0.03-0.449-0.045-0.672-0.045c-2.157,0-4.118,1.356-4.853,3.434c-2.482,7.021-3.906,14.845-4.256,23.302H364.526z"/>
	<path style="fill:#FFC7A9;" d="M318.841,242.638c-26.071,0-49.811-14.295-61.956-37.306c-0.174-0.328-0.514-0.533-0.885-0.533
		c-0.371,0-0.711,0.205-0.885,0.533c-12.143,23.011-35.883,37.306-61.956,37.306c-13.156,0-25.474-3.65-36.004-9.982
		c7.294,50.416,50.787,89.276,103.19,89.276c54.747,0,99.773-42.41,103.955-96.104C352.053,236.296,336.178,242.638,318.841,242.638
		z"/>
</g>
<g style="opacity:0.15;">
	<path style="fill:#440075;" d="M186.039,139.56c0.35-8.457,1.773-16.281,4.256-23.302c0.193-0.545,0.474-1.038,0.817-1.472
		c-8.515-0.205-16.956-0.842-25.168-1.917c-0.225-0.03-0.449-0.045-0.672-0.045c-2.157,0-4.118,1.356-4.853,3.434
		c-2.482,7.021-3.906,14.845-4.256,23.302H186.039z"/>
	<path style="fill:#440075;" d="M188.944,242.499c-11.57-0.69-22.393-4.194-31.789-9.844c7.294,50.416,50.787,89.276,103.19,89.276
		c5.072,0,10.058-0.371,14.938-1.075C233.074,314.775,198.961,283.32,188.944,242.499z"/>
</g>
<path style="fill:#D2957D;" d="M264.998,239.229H256c-0.458,0-1.498-1.059-1.498-2.802v-29.98c-3.955,7.18-9.051,13.48-15,18.726
	v11.254c0,9.816,7.401,17.802,16.498,17.802h8.998c4.143,0,7.5-3.358,7.5-7.5S269.141,239.229,264.998,239.229z"/>
<path style="fill:#C0272D;" d="M318.841,243.638c-26.609,0-50.602-14.648-62.841-37.839c-12.237,23.191-36.231,37.839-62.841,37.839
	c-39.195,0-71.083-31.887-71.083-71.082V141.65c0-1.706,1.385-3.09,3.091-3.09h261.666c1.708,0,3.091,1.384,3.091,3.09v30.905
	C389.924,211.751,358.036,243.638,318.841,243.638z"/>
<path style="opacity:0.15;fill:#440075;enable-background:new    ;" d="M144,172.555V141.65c0-1.706,1.385-3.09,3.091-3.09h-21.924
	c-1.706,0-3.091,1.384-3.091,3.09v30.905c0,39.195,31.888,71.082,71.083,71.082c3.698,0,7.34-0.304,10.912-0.856
	C170.087,237.473,144,208.006,144,172.555z"/>
<g>
	<path style="fill:#203A74;" d="M321.095,214.732c-14.328-0.001-27.169-9.08-31.952-22.593c-0.273-0.772-0.227-1.622,0.125-2.362
		c0.353-0.74,0.986-1.309,1.759-1.582l58.072-20.554c0.334-0.118,0.685-0.177,1.032-0.177c0.457,0,0.911,0.101,1.33,0.301
		c0.74,0.353,1.31,0.985,1.583,1.758c6.233,17.618-3.026,37.023-20.642,43.259C328.744,214.076,324.941,214.732,321.095,214.732
		L321.095,214.732z"/>
	<path style="fill:#203A74;" d="M190.907,214.732c-3.847,0-7.651-0.656-11.308-1.95c-17.618-6.235-26.877-25.641-20.642-43.259
		c0.273-0.772,0.843-1.405,1.581-1.758c0.421-0.2,0.875-0.301,1.332-0.301c0.348,0,0.696,0.059,1.03,0.177l58.074,20.554
		c0.772,0.273,1.404,0.842,1.759,1.582c0.352,0.74,0.396,1.59,0.123,2.362C218.074,205.653,205.235,214.732,190.907,214.732z"/>
</g>
<g>
	<path style="fill:#960B15;" d="M321.095,222.232L321.095,222.232c-17.499-0.001-33.182-11.088-39.022-27.59
		c-0.941-2.659-0.792-5.529,0.421-8.083c1.203-2.526,3.4-4.503,6.03-5.435l58.072-20.554c2.618-0.925,5.592-0.77,8.099,0.428
		c2.549,1.216,4.476,3.355,5.42,6.022c7.612,21.517-3.696,45.216-25.209,52.831C330.44,221.432,325.794,222.232,321.095,222.232z
		 M298.034,193.671c4.603,8.257,13.397,13.561,23.061,13.562c2.99,0,5.953-0.512,8.807-1.521
		c12.3-4.354,19.369-16.956,17.195-29.406L298.034,193.671z"/>
	<path style="fill:#960B15;" d="M190.907,222.232c-4.701,0-9.348-0.801-13.81-2.38c-10.41-3.684-18.768-11.214-23.533-21.202
		c-4.766-9.987-5.36-21.221-1.677-31.63c0.943-2.664,2.866-4.803,5.416-6.021c2.531-1.204,5.487-1.352,8.1-0.429l58.074,20.554
		c2.662,0.942,4.8,2.864,6.02,5.412c1.223,2.568,1.373,5.441,0.43,8.106C224.087,211.145,208.405,222.232,190.907,222.232z
		 M164.902,176.305c-0.94,5.355-0.195,10.866,2.2,15.886c3.04,6.372,8.367,11.173,14.999,13.52c2.852,1.009,5.813,1.521,8.806,1.521
		c9.662,0,18.457-5.305,23.059-13.562L164.902,176.305z"/>
</g>
<path style="fill:#D2957D;" d="M256,298.222c-18.816,0-35.876-10.401-44.522-27.145c-1.9-3.68-0.457-8.204,3.223-10.105
	c3.679-1.899,8.205-0.459,10.105,3.223c6.06,11.736,18.013,19.026,31.193,19.026c13.181,0,25.134-7.29,31.193-19.026
	c1.9-3.681,6.426-5.124,10.105-3.223c3.68,1.9,5.123,6.425,3.223,10.105C291.876,287.821,274.816,298.222,256,298.222z"/>
<path style="fill:#FFC502;" d="M333.106,512v-43.454c0-3.373-2.388-7.514-5.311-9.2l-66.483-38.385
	c-2.921-1.688-7.702-1.688-10.623,0l-66.483,38.385c-2.924,1.687-5.312,5.827-5.312,9.2V512H333.106z"/>
<g style="opacity:0.15;">
	<path style="fill:#440075;" d="M199.34,483.484c0-3.373,2.389-7.514,5.313-9.2l72.249-44.322l-15.59-9.001
		c-2.921-1.688-7.702-1.688-10.623,0l-66.483,38.385c-2.924,1.687-5.312,5.827-5.312,9.2V512h20.446L199.34,483.484L199.34,483.484z
		"/>
</g>
<path style="fill:#5DC647;" d="M294.717,512v-21.818c0-1.694-1.199-3.772-2.669-4.62l-33.38-19.273
	c-1.467-0.847-3.867-0.847-5.336,0l-33.383,19.273c-1.467,0.848-2.666,2.926-2.666,4.62V512H294.717z"/>
<g>
</g>
<g>
</g>
<g>
</g>
<g>
</g>
<g>
</g>
<g>
</g>
<g>
</g>
<g>
</g>
<g>
</g>
<g>
</g>
<g>
</g>
<g>
</g>
<g>
</g>
<g>
</g>
<g>
</g>
</svg>
