<?xml version="1.0" encoding="iso-8859-1"?>
<!-- Generator: Adobe Illustrator 19.0.0, SVG Export Plug-In . SVG Version: 6.00 Build 0)  -->
<svg version="1.1" id="Capa_1" xmlns="http://www.w3.org/2000/svg" xmlns:xlink="http://www.w3.org/1999/xlink" x="0px" y="0px"
	 viewBox="0 0 512 512" style="enable-background:new 0 0 512 512;" xml:space="preserve">
<path style="fill:#DE8447;" d="M448.801,216.899h-32.134c-8.284,0-15,6.716-15,15s6.716,15,15,15v66.4c-8.284,0-15,6.716-15,15
	s6.716,15,15,15h32.134c34.849,0,63.199-28.352,63.199-63.201C512,245.25,483.649,216.899,448.801,216.899z"/>
<path style="fill:#FCA971;" d="M95.334,313.3v-66.4c8.284,0,15-6.716,15-15s-6.716-15-15-15H63.2C28.352,216.899,0,245.25,0,280.099
	c0,34.85,28.352,63.201,63.2,63.201h32.134c8.284,0,15-6.716,15-15S103.618,313.3,95.334,313.3z"/>
<path style="fill:#FCBA95;" d="M426.671,188.59c-21.363-19.122-45.559-34.41-71.914-45.439c-4.777-1.999-10.253-1.392-14.479,1.61
	c-24.709,17.557-53.852,26.838-84.278,26.838c-30.424,0-59.566-9.28-84.275-26.837c-4.226-3.002-9.699-3.611-14.479-1.61
	c-26.357,11.028-50.554,26.316-71.917,45.439c-3.179,2.846-4.995,6.91-4.995,11.177v192.799c0,52.567,42.767,95.334,95.333,95.334
	h160.667c52.566,0,95.333-42.767,95.333-95.334v-192.8C431.667,195.5,429.851,191.436,426.671,188.59z"/>
<path style="fill:#FCA971;" d="M426.671,188.59c-21.363-19.122-45.559-34.41-71.914-45.439c-4.777-1.999-10.253-1.392-14.479,1.61
	c-24.708,17.556-53.85,26.836-84.274,26.837v316.301h80.33c52.566,0,95.333-42.767,95.333-95.334V199.767
	C431.667,195.5,429.851,191.436,426.671,188.59z"/>
<path style="fill:#3B211A;" d="M497,24.099H175.667c-52.566,0-95.333,42.767-95.333,95.334v80.334c0,5.916,3.477,11.28,8.879,13.694
	c5.4,2.415,11.717,1.428,16.126-2.518c16.866-15.099,35.729-27.487,56.164-36.899c28.216,18.054,60.706,27.555,94.497,27.555
	c33.793,0,66.284-9.501,94.5-27.555c20.432,9.412,39.296,21.802,56.163,36.899c2.806,2.512,6.383,3.823,10.007,3.823
	c2.069,0,4.154-0.428,6.118-1.306c5.401-2.414,8.879-7.778,8.879-13.694V149.32C477.135,142.105,512,102.631,512,55.165V39.099
	C512,30.814,505.284,24.099,497,24.099z"/>
<path style="fill:#FCA971;" d="M256,391.499c-22.484,0-43.455-12.099-54.728-31.574c-4.149-7.169-1.701-16.346,5.469-20.496
	c7.167-4.148,16.345-1.702,20.496,5.469c5.927,10.24,16.948,16.602,28.763,16.602c11.814,0,22.839-6.365,28.769-16.612
	c4.151-7.169,13.329-9.615,20.497-5.468c7.17,4.15,9.617,13.327,5.468,20.497C299.457,379.397,278.484,391.499,256,391.499z"/>
<path style="fill:#3B211A;" d="M191.735,271.006c-3.949,0-7.819-1.6-10.609-4.399c-2.79-2.79-4.391-6.65-4.391-10.601
	c0-3.949,1.6-7.819,4.391-10.609c2.79-2.79,6.66-4.391,10.609-4.391c3.95,0,7.811,1.601,10.6,4.391c2.8,2.79,4.4,6.66,4.4,10.609
	c0,3.95-1.6,7.811-4.4,10.601C199.546,269.406,195.685,271.006,191.735,271.006z"/>
<path style="fill:#0F0301;" d="M320.266,271.006c-3.95,0-7.81-1.6-10.61-4.399c-2.789-2.79-4.39-6.65-4.39-10.601
	c0-3.949,1.601-7.819,4.39-10.609c2.801-2.79,6.66-4.391,10.61-4.391s7.811,1.601,10.61,4.391c2.79,2.79,4.39,6.66,4.39,10.609
	c0,3.95-1.6,7.811-4.39,10.601C328.076,269.406,324.216,271.006,320.266,271.006z"/>
<path style="fill:#DE8447;" d="M305.267,339.419c-7.171-4.15-16.348-1.701-20.497,5.469c-5.929,10.243-16.95,16.606-28.765,16.607
	v30c22.484-0.001,43.455-12.102,54.73-31.58C314.884,352.745,312.436,343.569,305.267,339.419z"/>
<path style="fill:#0F0301;" d="M497,24.099H256.004v177.5c33.792-0.001,66.281-9.502,94.496-27.555
	c20.432,9.412,39.296,21.802,56.163,36.899c2.806,2.512,6.383,3.823,10.007,3.823c2.069,0,4.154-0.428,6.118-1.306
	c5.401-2.414,8.879-7.778,8.879-13.694V149.32C477.135,142.105,512,102.631,512,55.165V39.099C512,30.814,505.284,24.099,497,24.099
	z"/>
<g>
</g>
<g>
</g>
<g>
</g>
<g>
</g>
<g>
</g>
<g>
</g>
<g>
</g>
<g>
</g>
<g>
</g>
<g>
</g>
<g>
</g>
<g>
</g>
<g>
</g>
<g>
</g>
<g>
</g>
</svg>
