<?xml version="1.0" encoding="iso-8859-1"?>
<!-- Generator: Adobe Illustrator 19.0.0, SVG Export Plug-In . SVG Version: 6.00 Build 0)  -->
<svg version="1.1" id="Capa_1" xmlns="http://www.w3.org/2000/svg" xmlns:xlink="http://www.w3.org/1999/xlink" x="0px" y="0px"
	 viewBox="0 0 512 512" style="enable-background:new 0 0 512 512;" xml:space="preserve">
<path style="fill:#E37C5D;" d="M448.8,192.801h-32.134c-8.284,0-15,6.716-15,15c0,8.242,6.65,14.927,14.877,14.994l-0.548,66.404
	h-0.124c-8.284,0-15,6.716-15,15s6.716,15,15,15H448.8c34.849,0,63.2-28.351,63.2-63.199S483.648,192.801,448.8,192.801z"/>
<path style="fill:#ED9A81;" d="M96.132,289.199h-0.124l-0.55-66.404c8.227-0.068,14.876-6.752,14.876-14.994c0-8.284-6.716-15-15-15
	H63.2C28.352,192.801,0,221.151,0,256s28.352,63.199,63.2,63.199h32.932c8.284,0,15-6.716,15-15S104.416,289.199,96.132,289.199z"/>
<path style="fill:#8F1711;" d="M415.871,289.199c-8.284,0-15,6.716-15,15H111.132c0-8.284-6.716-15-15-15s-15,6.716-15,15v176.734
	c0,8.284,6.716,15,15,15h319.739c8.284,0,15-6.716,15-15V304.199C430.871,295.915,424.155,289.199,415.871,289.199z"/>
<path style="fill:#6B0101;" d="M415.871,289.199c-8.284,0-15,6.716-15,15H256.002v191.734h159.869c8.284,0,15-6.716,15-15V304.199
	C430.871,295.915,424.155,289.199,415.871,289.199z"/>
<path style="fill:#F7AF99;" d="M427.272,181.128L266.606,20.46c-2.813-2.813-6.628-4.394-10.606-4.394
	c-3.979,0-7.794,1.58-10.606,4.394L84.728,181.128c-2.813,2.814-4.394,6.628-4.394,10.607v96.398
	c0,38.146,12.021,74.429,34.766,104.926c21.977,29.47,53.303,51.737,88.207,62.699c1.455,0.457,2.971,0.689,4.496,0.689
	l96.404-0.006c1.524,0,3.04-0.232,4.494-0.689c35.409-11.122,65.909-32.803,88.203-62.698
	c22.741-30.496,34.762-66.776,34.762-104.921v-96.398C431.666,187.756,430.086,183.941,427.272,181.128z"/>
<g>
	<path style="fill:#ED9A81;" d="M427.272,181.128L266.606,20.46c-2.812-2.813-6.627-4.394-10.604-4.394v440.378l48.205-0.003
		c1.524,0,3.04-0.232,4.494-0.689c35.409-11.122,65.909-32.803,88.203-62.698c22.741-30.496,34.762-66.776,34.762-104.921v-96.398
		C431.666,187.756,430.086,183.941,427.272,181.128z"/>
	<path style="fill:#ED9A81;" d="M256,367.4c-22.483,0-43.454-12.099-54.727-31.573c-4.15-7.17-1.703-16.347,5.467-20.496
		c7.166-4.151,16.346-1.703,20.496,5.467c5.929,10.241,16.95,16.603,28.764,16.603c11.815,0,22.839-6.364,28.768-16.609
		c4.15-7.169,13.327-9.615,20.496-5.469c7.17,4.149,9.618,13.325,5.469,20.496C299.459,355.299,278.486,367.4,256,367.4z"/>
</g>
<path style="fill:#3B211A;" d="M191.735,246.907c-3.949,0-7.819-1.6-10.609-4.39c-2.79-2.8-4.391-6.66-4.391-10.61
	s1.601-7.809,4.391-10.61c2.79-2.79,6.66-4.39,10.609-4.39c3.95,0,7.811,1.6,10.601,4.39c2.8,2.79,4.399,6.66,4.399,10.61
	s-1.6,7.811-4.399,10.61C199.546,245.308,195.686,246.907,191.735,246.907z"/>
<path style="fill:#0F0301;" d="M320.266,246.907c-3.95,0-7.82-1.6-10.61-4.39c-2.79-2.79-4.39-6.66-4.39-10.61s1.6-7.82,4.39-10.61
	s6.66-4.39,10.61-4.39s7.811,1.6,10.61,4.39c2.79,2.79,4.39,6.66,4.39,10.61s-1.6,7.811-4.39,10.61
	C328.076,245.308,324.216,246.907,320.266,246.907z"/>
<path style="fill:#6B0101;" d="M313.076,413.28c-3.852-2.825-8.815-3.646-13.373-2.218c-14.088,4.428-28.792,6.672-43.703,6.672
	c-14.912,0-29.616-2.244-43.703-6.671c-4.558-1.433-9.523-0.608-13.372,2.217c-3.851,2.826-6.125,7.316-6.125,12.093v48.199
	c0,6.552,4.253,12.346,10.503,14.31c17.001,5.343,34.73,8.052,52.697,8.052c17.966,0,35.695-2.709,52.697-8.051
	c6.25-1.965,10.503-7.759,10.503-14.311v-48.199C319.2,420.597,316.926,416.106,313.076,413.28z"/>
<path style="fill:#8F1711;" d="M256,16.066c-96.862,0-175.666,78.805-175.666,175.668c0,8.284,6.716,15,15,15
	c71.611,0,133.342-43.078,160.666-104.678c27.324,61.6,89.055,104.678,160.666,104.678c8.284,0,15-6.716,15-15
	C431.666,94.871,352.862,16.066,256,16.066z"/>
<path style="fill:#6B0101;" d="M256.002,16.066v85.994c27.325,61.598,89.055,104.674,160.664,104.674c8.284,0,15-6.716,15-15
	C431.666,94.872,352.863,16.067,256.002,16.066z"/>
<path style="fill:#8F1711;" d="M313.076,413.28c-3.852-2.825-8.815-3.646-13.373-2.218c-14.087,4.428-28.791,6.672-43.701,6.672
	v78.199c17.965,0,35.694-2.709,52.695-8.051c6.25-1.965,10.503-7.759,10.503-14.311v-48.199
	C319.2,420.597,316.926,416.106,313.076,413.28z"/>
<path style="fill:#E37C5D;" d="M310.732,335.818c4.149-7.17,1.701-16.346-5.469-20.496c-7.165-4.148-16.346-1.702-20.496,5.469
	c-5.929,10.244-16.951,16.607-28.766,16.607v30C278.486,367.398,299.458,355.297,310.732,335.818z"/>
<g>
</g>
<g>
</g>
<g>
</g>
<g>
</g>
<g>
</g>
<g>
</g>
<g>
</g>
<g>
</g>
<g>
</g>
<g>
</g>
<g>
</g>
<g>
</g>
<g>
</g>
<g>
</g>
<g>
</g>
</svg>
