<?xml version="1.0" encoding="iso-8859-1"?>
<!-- Generator: Adobe Illustrator 19.0.0, SVG Export Plug-In . SVG Version: 6.00 Build 0)  -->
<svg version="1.1" id="Capa_1" xmlns="http://www.w3.org/2000/svg" xmlns:xlink="http://www.w3.org/1999/xlink" x="0px" y="0px"
	 viewBox="0 0 512 512" style="enable-background:new 0 0 512 512;" xml:space="preserve">
<path style="fill:#B2762F;" d="M151.835,151h207.301c-11.838-48.852-11.618-98.329,0.685-147.154
	c0.232-0.924,0.025-1.903-0.56-2.654C358.675,0.44,357.775,0,356.823,0H154.146c-0.952,0-1.852,0.44-2.438,1.191
	c-0.585,0.751-0.791,1.73-0.559,2.654C163.452,52.671,163.672,102.148,151.835,151z"/>
<path style="opacity:0.15;fill:#440075;enable-background:new    ;" d="M151.835,151h30.01
	c11.838-48.852,11.617-98.329-0.684-147.154c-0.232-0.924-0.026-1.903,0.559-2.654C182.305,0.44,183.204,0,184.157,0h-30.011
	c-0.952,0-1.852,0.44-2.438,1.191c-0.585,0.751-0.791,1.73-0.559,2.654C163.452,52.671,163.672,102.148,151.835,151z"/>
<path style="fill:#775436;" d="M359.14,151c-2.082-8.595-3.797-17.207-5.133-25.833H156.963c-1.336,8.626-3.05,17.238-5.132,25.833
	H359.14z"/>
<path style="opacity:0.15;fill:#440075;enable-background:new    ;" d="M181.338,151c2.082-8.595,3.796-17.207,5.132-25.833h-29.507
	c-1.336,8.626-3.05,17.238-5.132,25.833H181.338z"/>
<path style="fill:#B2762F;" d="M113.374,166.923c-11.585,0-21.483,7.162-25.557,17.292c3.106,11.813,13.857,20.527,26.646,20.527
	h2.759C120.42,195.021,129.566,188,140.358,188h11.853v-21.077H113.374z"/>
<g>
	<path style="fill:#FFB98A;" d="M152.211,230.201v-43.215h-13.223c-13.453,0-24.358,10.906-24.358,24.358v26.478
		c0,13.452,10.905,24.358,24.358,24.358h18.297C153.997,252.106,152.211,241.359,152.211,230.201z"/>
	<path style="fill:#FFB98A;" d="M371.981,186.986h-13.223v43.215c0,11.158-1.786,21.905-5.074,31.979h18.297
		c13.455,0,24.358-10.906,24.358-24.358v-26.478C396.34,197.893,385.436,186.986,371.981,186.986z"/>
</g>
<path style="fill:#B2762F;" d="M398.626,166.923h-39.867V188h11.883c10.794,0,19.939,7.021,23.138,16.742h3.758
	c12.787,0,23.538-8.715,26.645-20.526C420.109,174.086,410.211,166.923,398.626,166.923z"/>
<g>
	<path style="fill:#D2957D;" d="M152.211,230.201v-13.679h-14.177c-4.143,0-7.5,3.357-7.5,7.5c0,4.142,3.357,7.5,7.5,7.5h14.193
		C152.223,231.082,152.211,230.643,152.211,230.201z"/>
	<path style="fill:#D2957D;" d="M372.935,216.523h-14.177v13.679c0,0.441-0.011,0.881-0.017,1.321h14.193c4.143,0,7.5-3.358,7.5-7.5
		C380.435,219.88,377.078,216.523,372.935,216.523z"/>
</g>
<g>
	<path style="fill:#C5CCD3;" d="M227.811,405.897c-1.575,2.352-4.042,2.282-5.48-0.158l-13.199-22.391V512H244V381.721
		L227.811,405.897z"/>
	<path style="fill:#C5CCD3;" d="M284.69,406.061l-19.065-25.316V512h37.243V383.884l-12.517,21.824
		C288.94,408.165,286.394,408.324,284.69,406.061z"/>
</g>
<path style="fill:#FFFFFF;" d="M302.868,322.176c-14.08,7.21-30.009,11.301-46.884,11.301c-16.863,0-32.779-4.09-46.853-11.291
	v61.162l13.199,22.391c1.438,2.44,3.905,2.511,5.48,0.158L244,381.721V512h21.625V380.745l19.065,25.316
	c1.704,2.263,4.251,2.104,5.662-0.353l12.517-21.824L302.868,322.176L302.868,322.176z"/>
<g>
	<path style="fill:#FFC7A9;" d="M255.484,359.533c-4.492,0-8.828-0.683-12.912-1.945l8.735,6.306c2.298,1.657,6.057,1.657,8.354,0
		l8.735-6.306C264.313,358.851,259.977,359.533,255.484,359.533z"/>
	<path style="fill:#FFC7A9;" d="M151.211,166.923v63.278c0,57.59,46.687,104.275,104.273,104.275
		c57.59,0,104.274-46.686,104.274-104.275v-63.278L151.211,166.923L151.211,166.923z"/>
</g>
<path style="opacity:0.15;fill:#440075;enable-background:new    ;" d="M180.797,230.201v-63.278h-29.586v63.278
	c0,57.59,46.687,104.275,104.273,104.275c5.022,0,9.96-0.363,14.793-1.049C219.697,326.242,180.797,282.769,180.797,230.201z"/>
<path style="fill:#135693;" d="M255.484,359.533c-24.142,0-43.782-19.641-43.782-43.783v-11.914c0-0.969,0.675-1.807,1.622-2.013
	c0.146-0.032,0.293-0.048,0.438-0.048c0.793,0,1.533,0.459,1.873,1.204c7.121,15.581,22.763,25.648,39.849,25.648
	c17.087,0,32.728-10.067,39.85-25.648c0.34-0.745,1.08-1.204,1.873-1.204c0.145,0,0.292,0.016,0.439,0.048
	c0.947,0.206,1.622,1.044,1.622,2.013v11.914C299.268,339.893,279.627,359.533,255.484,359.533z"/>
<path style="fill:#D2957D;" d="M264.482,251.573h-8.998c-9.097,0-16.497-7.985-16.497-17.802v-29.227c0-4.143,3.357-7.5,7.5-7.5
	s7.5,3.357,7.5,7.5v29.227c0,1.743,1.04,2.802,1.497,2.802h8.998c4.143,0,7.5,3.357,7.5,7.5S268.625,251.573,264.482,251.573z"/>
<g>
	<path style="fill:#135693;" d="M342.715,169.119c-1.054-0.784-2.139-1.509-3.24-2.196H290.08
		c-4.902,3.056-9.245,7.025-12.798,11.802c-2.473,3.323-1.782,8.023,1.541,10.494c1.345,1,2.914,1.483,4.471,1.482
		c2.29,0,4.552-1.045,6.023-3.023c5.068-6.814,12.479-11.245,20.868-12.477c8.386-1.233,16.761,0.881,23.574,5.951
		c3.326,2.475,8.022,1.783,10.494-1.539C346.727,176.29,346.038,171.592,342.715,169.119z"/>
	<path style="fill:#135693;" d="M218.83,166.923h-49.395c-1.103,0.688-2.187,1.412-3.24,2.196
		c-3.323,2.473-4.012,7.171-1.539,10.494s7.171,4.013,10.494,1.539c6.813-5.069,15.188-7.186,23.574-5.951
		c8.389,1.231,15.8,5.662,20.868,12.477c1.472,1.979,3.733,3.024,6.023,3.023c1.556,0,3.126-0.482,4.471-1.482
		c3.323-2.472,4.014-7.17,1.541-10.494C228.074,173.948,223.731,169.979,218.83,166.923z"/>
</g>
<g>
	<path style="fill:#693FBA;" d="M313.852,234.663c-11.792,0-21.386-9.617-21.386-21.438s9.594-21.438,21.386-21.438
		c11.79,0,21.383,9.617,21.383,21.438S325.642,234.663,313.852,234.663z"/>
	<path style="fill:#693FBA;" d="M196.765,234.663c-11.791,0-21.384-9.617-21.384-21.438s9.593-21.438,21.384-21.438
		c11.79,0,21.383,9.617,21.383,21.438S208.555,234.663,196.765,234.663z"/>
</g>
<g>
	<path style="fill:#B2762F;" d="M398.649,358.244H345.46v-40.851c0-2.833-2.317-5.151-5.15-5.151h-32.291
		c-2.833,0-5.15,2.318-5.15,5.151V512H403.8c5.666,0,10.303-4.636,10.303-10.302V373.697
		C414.103,365.198,407.148,358.244,398.649,358.244z"/>
	<path style="fill:#B2762F;" d="M203.98,312.242h-32.291c-2.833,0-5.15,2.318-5.15,5.151v40.851H113.35
		c-8.499,0-15.452,6.954-15.452,15.453v128.001c0,5.666,4.635,10.302,10.301,10.302h100.934V317.394
		C209.132,314.56,206.814,312.242,203.98,312.242z"/>
</g>
<g style="opacity:0.15;">
	<path style="fill:#440075;" d="M128.773,501.698V373.697c0-8.499,6.953-15.453,15.452-15.453H113.35
		c-8.499,0-15.452,6.954-15.452,15.453v128.001c0,5.666,4.635,10.302,10.301,10.302h30.876
		C133.408,512,128.773,507.364,128.773,501.698z"/>
</g>
<g>
	<path style="fill:#D2957D;" d="M114.463,168.547h283.074c11.886,0,22.014,7.529,25.878,18.077c1.075-2.944,1.674-6.118,1.674-9.433
		c0-15.216-12.337-27.552-27.552-27.552H114.463c-15.216,0-27.552,12.336-27.552,27.552c0,3.314,0.599,6.488,1.673,9.433
		C92.449,176.076,102.577,168.547,114.463,168.547z"/>
	<path style="fill:#D2957D;" d="M270.938,298.526h-30.905c-4.143,0-7.5-3.357-7.5-7.5s3.357-7.5,7.5-7.5h30.905
		c4.143,0,7.5,3.357,7.5,7.5S275.08,298.526,270.938,298.526z"/>
</g>
<path style="fill:#135693;" d="M211.702,288.225c-4.143,0-7.5-3.357-7.5-7.5v-8.757c0-8.964,7.985-16.257,17.802-16.257h22.149
	c4.143,0,7.5,3.357,7.5,7.5c0,4.143-3.357,7.5-7.5,7.5h-22.149c-1.769,0-2.737,0.96-2.803,1.265l0.001,8.749
	C219.202,284.867,215.845,288.225,211.702,288.225z"/>
<g>
	<circle style="fill:#FFC502;" cx="167.41" cy="391.47" r="11.847"/>
	<circle style="fill:#FFC502;" cx="167.41" cy="436.8" r="11.847"/>
	<circle style="fill:#FFC502;" cx="167.41" cy="482.12" r="11.847"/>
</g>
<g>
	<path style="fill:#775436;" d="M208.617,383.969h-23.38c-2.936-6.953-9.823-11.847-17.833-11.847
		c-10.668,0-19.347,8.679-19.347,19.347s8.679,19.347,19.347,19.347c8.01,0,14.898-4.893,17.833-11.847h23.38
		c4.143,0,7.5-3.358,7.5-7.5C216.117,387.326,212.76,383.969,208.617,383.969z M167.404,395.815c-2.396,0-4.347-1.95-4.347-4.347
		c0-2.397,1.95-4.347,4.347-4.347c2.398,0,4.348,1.95,4.348,4.347S169.802,395.815,167.404,395.815z"/>
	<path style="fill:#775436;" d="M208.617,429.297h-23.379c-2.936-6.954-9.824-11.848-17.834-11.848
		c-10.668,0-19.347,8.68-19.347,19.348s8.679,19.348,19.347,19.348c8.01,0,14.898-4.893,17.834-11.848h23.379
		c4.143,0,7.5-3.357,7.5-7.5S212.76,429.297,208.617,429.297z M167.404,441.145c-2.396,0-4.347-1.95-4.347-4.348
		c0-2.397,1.95-4.348,4.347-4.348c2.398,0,4.348,1.95,4.348,4.348C171.752,439.194,169.802,441.145,167.404,441.145z"/>
	<path style="fill:#775436;" d="M208.617,474.625h-23.379c-2.936-6.954-9.824-11.848-17.834-11.848
		c-10.668,0-19.347,8.68-19.347,19.348s8.679,19.347,19.347,19.347c8.01,0,14.898-4.894,17.833-11.847h23.38
		c4.143,0,7.5-3.357,7.5-7.5S212.76,474.625,208.617,474.625z M167.404,486.472c-2.396,0-4.347-1.95-4.347-4.347
		c0-2.397,1.95-4.348,4.347-4.348c2.398,0,4.348,1.95,4.348,4.348C171.752,484.522,169.802,486.472,167.404,486.472z"/>
</g>
<g>
	<circle style="fill:#FFC502;" cx="343.56" cy="391.47" r="11.847"/>
	<circle style="fill:#FFC502;" cx="343.56" cy="436.8" r="11.847"/>
	<circle style="fill:#FFC502;" cx="343.56" cy="482.12" r="11.847"/>
</g>
<g>
	<path style="fill:#775436;" d="M343.565,372.122c-8.01,0-14.897,4.893-17.833,11.847h-23.379c-4.143,0-7.5,3.357-7.5,7.5
		c0,4.142,3.357,7.5,7.5,7.5h23.379c2.936,6.953,9.823,11.847,17.833,11.847c10.668,0,19.347-8.679,19.347-19.347
		S354.233,372.122,343.565,372.122z M343.565,395.815c-2.396,0-4.347-1.95-4.347-4.347c0-2.397,1.95-4.347,4.347-4.347
		c2.397,0,4.347,1.95,4.347,4.347S345.962,395.815,343.565,395.815z"/>
	<path style="fill:#775436;" d="M343.565,417.449c-8.01,0-14.897,4.894-17.833,11.848h-23.379c-4.143,0-7.5,3.357-7.5,7.5
		s3.357,7.5,7.5,7.5h23.379c2.936,6.954,9.823,11.848,17.833,11.848c10.668,0,19.347-8.68,19.347-19.348
		S354.233,417.449,343.565,417.449z M343.565,441.145c-2.396,0-4.347-1.95-4.347-4.348c0-2.397,1.95-4.348,4.347-4.348
		c2.397,0,4.347,1.95,4.347,4.348C347.912,439.194,345.962,441.145,343.565,441.145z"/>
	<path style="fill:#775436;" d="M343.565,462.777c-8.01,0-14.897,4.894-17.833,11.848h-23.379c-4.143,0-7.5,3.357-7.5,7.5
		s3.357,7.5,7.5,7.5h23.379c2.936,6.953,9.823,11.847,17.833,11.847c10.668,0,19.347-8.679,19.347-19.347
		S354.233,462.777,343.565,462.777z M343.565,486.472c-2.396,0-4.347-1.95-4.347-4.347c0-2.397,1.95-4.348,4.347-4.348
		c2.397,0,4.347,1.95,4.347,4.348C347.912,484.522,345.962,486.472,343.565,486.472z"/>
</g>
<path style="fill:#135693;" d="M299.268,288.225c-4.143,0-7.5-3.357-7.5-7.5v-8.757c-0.065-0.297-1.033-1.257-2.802-1.257h-22.149
	c-4.143,0-7.5-3.357-7.5-7.5s3.357-7.5,7.5-7.5h22.149c9.816,0,17.802,7.293,17.802,16.257v8.757
	C306.768,284.867,303.41,288.225,299.268,288.225z"/>
<path style="fill:#FFC502;" d="M188.399,65.444h-33.775c-2.833,0-5.151,2.318-5.151,5.151V96.35c0,2.834,2.318,5.151,5.151,5.151
	h33.774L188.399,65.444z"/>
<path style="fill:#FCDB67;" d="M217.796,113.705c-8.076-8.075-12.522-18.813-12.522-30.232c0-11.42,4.446-22.157,12.522-30.233
	c4.851-4.852,10.665-8.381,17.008-10.437c-0.602-0.081-1.209-0.053-1.756,0.125l-42.906,13.939
	c-1.616,0.525-2.939,2.345-2.939,4.045l-0.001,45.115c0,1.7,1.323,3.52,2.938,4.045l42.907,13.941
	c0.546,0.178,1.152,0.205,1.754,0.125C228.46,122.085,222.645,118.555,217.796,113.705z"/>
<path style="fill:#FFC502;" d="M330.644,39.717c-19.106,0-35.344,12.253-41.308,29.325c-5.964-17.072-22.201-29.325-41.308-29.325
	c-24.165,0-43.756,19.591-43.755,43.756c-0.001,24.165,19.59,43.755,43.755,43.755c19.106,0,35.344-12.252,41.308-29.326
	c5.964,17.074,22.201,29.326,41.308,29.326c24.165,0,43.755-19.59,43.755-43.755C374.398,59.308,354.809,39.717,330.644,39.717z"/>
<g>
	<circle style="fill:#B2762F;" cx="330.64" cy="83.47" r="20.735"/>
	<circle style="fill:#B2762F;" cx="248.03" cy="83.47" r="20.735"/>
</g>
<g>
	<path style="fill:#FCDB67;" d="M330.644,111.707c-15.569,0-28.235-12.666-28.235-28.234c0-15.569,12.666-28.236,28.235-28.236
		c15.568,0,28.234,12.667,28.234,28.236C358.878,99.041,346.212,111.707,330.644,111.707z M330.644,70.236
		c-7.298,0-13.235,5.938-13.235,13.236s5.938,13.234,13.235,13.234c7.298,0,13.234-5.937,13.234-13.234
		C343.878,76.174,337.941,70.236,330.644,70.236z"/>
	<path style="fill:#FCDB67;" d="M248.028,111.707c-15.569,0-28.236-12.666-28.236-28.234c0-15.569,12.667-28.236,28.236-28.236
		c15.568,0,28.234,12.667,28.234,28.236C276.263,99.041,263.597,111.707,248.028,111.707z M248.028,70.236
		c-7.299,0-13.236,5.938-13.236,13.236s5.938,13.234,13.236,13.234c7.298,0,13.234-5.937,13.234-13.234
		C261.263,76.174,255.326,70.236,248.028,70.236z"/>
</g>
<g>
</g>
<g>
</g>
<g>
</g>
<g>
</g>
<g>
</g>
<g>
</g>
<g>
</g>
<g>
</g>
<g>
</g>
<g>
</g>
<g>
</g>
<g>
</g>
<g>
</g>
<g>
</g>
<g>
</g>
</svg>
