<?xml version="1.0" encoding="iso-8859-1"?>
<!-- Generator: Adobe Illustrator 19.0.0, SVG Export Plug-In . SVG Version: 6.00 Build 0)  -->
<svg version="1.1" id="Capa_1" xmlns="http://www.w3.org/2000/svg" xmlns:xlink="http://www.w3.org/1999/xlink" x="0px" y="0px"
	 viewBox="0 0 512 512" style="enable-background:new 0 0 512 512;" xml:space="preserve">
<path style="fill:#422017;" d="M448.8,232.967h-32.134c-8.284,0-15,6.716-15,15c0,8.242,6.649,14.926,14.876,14.994l-0.549,66.406
	h-0.124c-8.284,0-15,6.716-15,15s6.716,15,15,15H448.8c34.849,0,63.2-28.352,63.2-63.2S483.648,232.967,448.8,232.967z"/>
<path style="fill:#5B3227;" d="M96.132,329.367h-0.124l-0.55-66.406c8.227-0.068,14.876-6.752,14.876-14.994c0-8.284-6.716-15-15-15
	H63.2c-34.849,0-63.2,28.352-63.2,63.2s28.352,63.2,63.2,63.2h32.932c8.284,0,15-6.716,15-15S104.416,329.367,96.132,329.367z"/>
<path style="fill:#794334;" d="M426.671,188.59c-21.359-19.119-45.555-34.406-71.913-45.438c-4.78-2.001-10.255-1.393-14.48,1.609
	C315.569,162.32,286.426,171.6,256,171.6s-59.567-9.28-84.276-26.839c-4.226-3.002-9.7-3.608-14.479-1.609
	c-26.356,11.028-50.552,26.316-71.915,45.438c-3.179,2.846-4.996,6.91-4.996,11.177v128.534
	c0,96.862,78.804,175.666,175.666,175.666s175.666-78.804,175.666-175.666V199.767C431.666,195.5,429.85,191.436,426.671,188.59z"/>
<path style="fill:#5B3227;" d="M426.671,188.59c-21.359-19.119-45.555-34.406-71.913-45.438c-4.78-2.001-10.255-1.393-14.48,1.609
	C315.569,162.32,286.426,171.6,256,171.6v332.366c96.862,0,175.666-78.804,175.666-175.666V199.767
	C431.666,195.5,429.85,191.436,426.671,188.59z"/>
<path style="fill:#3B211A;" d="M416.666,8.033H95.334c-8.284,0-15,6.716-15,15v176.733c0,5.916,3.478,11.28,8.879,13.694
	c1.964,0.878,4.048,1.306,6.118,1.306c3.623,0,7.201-1.313,10.007-3.823c16.867-15.097,35.731-27.486,56.164-36.898
	c28.215,18.055,60.705,27.556,94.498,27.556c33.794,0,66.285-9.501,94.5-27.556c20.436,9.414,39.297,21.802,56.161,36.898
	c4.407,3.944,10.723,4.933,16.126,2.518c5.401-2.414,8.879-7.778,8.879-13.694V23.033C431.666,14.749,424.95,8.033,416.666,8.033z"
	/>
<path style="fill:#5B3227;" d="M256,407.566c-22.482,0-43.453-12.098-54.727-31.573c-4.15-7.169-1.703-16.346,5.467-20.496
	c7.166-4.151,16.346-1.704,20.496,5.467c5.929,10.24,16.95,16.603,28.764,16.603c11.815,0,22.839-6.365,28.77-16.612
	c4.151-7.17,13.328-9.615,20.497-5.468c7.17,4.15,9.617,13.327,5.468,20.497C299.457,395.465,278.484,407.566,256,407.566z"/>
<path style="fill:#3B211A;" d="M191.735,287.077c-3.949,0-7.819-1.609-10.609-4.399c-2.79-2.79-4.391-6.65-4.391-10.601
	c0-3.95,1.601-7.82,4.391-10.609c2.79-2.79,6.66-4.4,10.609-4.4c3.94,0,7.811,1.61,10.601,4.4c2.8,2.789,4.399,6.659,4.399,10.609
	c0,3.941-1.6,7.811-4.399,10.601C199.546,285.468,195.676,287.077,191.735,287.077z"/>
<g>
	<path style="fill:#0F0301;" d="M320.266,287.077c-3.939,0-7.81-1.609-10.61-4.399c-2.79-2.79-4.39-6.65-4.39-10.601
		c0-3.95,1.6-7.82,4.39-10.609c2.801-2.79,6.671-4.4,10.61-4.4c3.95,0,7.811,1.61,10.61,4.4c2.79,2.789,4.39,6.659,4.39,10.609
		s-1.6,7.811-4.39,10.601C328.076,285.468,324.216,287.077,320.266,287.077z"/>
	<path style="fill:#0F0301;" d="M416.666,8.033H256V201.6c33.794,0,66.285-9.501,94.5-27.556
		c20.436,9.414,39.297,21.802,56.161,36.898c4.407,3.944,10.723,4.933,16.126,2.518c5.401-2.414,8.879-7.778,8.879-13.694V23.033
		C431.666,14.749,424.95,8.033,416.666,8.033z"/>
</g>
<path style="fill:#422017;" d="M305.267,355.486c-7.17-4.15-16.347-1.701-20.496,5.469c-5.93,10.243-16.951,16.606-28.766,16.607v30
	c22.484-0.001,43.456-12.102,54.73-31.58C314.885,368.813,312.436,359.637,305.267,355.486z"/>
<g>
</g>
<g>
</g>
<g>
</g>
<g>
</g>
<g>
</g>
<g>
</g>
<g>
</g>
<g>
</g>
<g>
</g>
<g>
</g>
<g>
</g>
<g>
</g>
<g>
</g>
<g>
</g>
<g>
</g>
</svg>
