<?xml version="1.0" encoding="iso-8859-1"?>
<!-- Generator: Adobe Illustrator 19.0.0, SVG Export Plug-In . SVG Version: 6.00 Build 0)  -->
<svg version="1.1" id="Capa_1" xmlns="http://www.w3.org/2000/svg" xmlns:xlink="http://www.w3.org/1999/xlink" x="0px" y="0px"
	 viewBox="0 0 512 512" style="enable-background:new 0 0 512 512;" xml:space="preserve">
<path style="fill:#FCC892;" d="M75,415.6c-41.355,0-75-33.644-75-74.998c0-16.6,5.314-32.333,15.371-45.497
	c5.029-6.584,14.441-7.845,21.025-2.814c6.584,5.028,7.844,14.442,2.814,21.025C33.186,321.204,30,330.64,30,340.602
	c0,24.811,20.188,44.998,45,44.998c5.498,0,10.86-0.976,15.938-2.898c7.744-2.939,16.406,0.964,19.342,8.711
	s-0.965,16.407-8.713,19.342C93.082,413.97,84.144,415.6,75,415.6z"/>
<path style="fill:#FCA953;" d="M437,415.6c-9.145,0-18.084-1.631-26.57-4.847c-7.746-2.935-11.646-11.596-8.71-19.343
	c2.936-7.746,11.598-11.645,19.343-8.71c5.076,1.924,10.438,2.899,15.938,2.899c24.813,0,45-20.187,45-44.998
	c0-9.962-3.186-19.396-9.211-27.285c-5.028-6.584-3.768-15.997,2.816-21.025c6.583-5.028,15.996-3.768,21.025,2.815
	C506.685,308.27,512,324.002,512,340.602C512,381.956,478.355,415.6,437,415.6z"/>
<path style="fill:#422017;" d="M448.8,208.867h-32.133c-8.284,0-15,6.716-15,15s6.716,15,15,15l-0.001,66.398l0,0
	c-8.284,0-15,6.716-15,15s6.716,15,15,15H448.8c34.849,0,63.2-28.351,63.2-63.198C512,237.219,483.648,208.867,448.8,208.867z"/>
<path style="fill:#5B3227;" d="M95.333,305.266v-66.398c8.284,0,15-6.716,15-15s-6.716-15-15-15H63.2
	c-34.849,0-63.2,28.352-63.2,63.2s28.352,63.198,63.2,63.198h32.133c8.284,0,15-6.716,15-15
	C110.333,311.981,103.617,305.266,95.333,305.266z"/>
<path style="fill:#794334;" d="M416.666,117.785c-8.284,0-15,6.716-15,15v0.502l-291.358,9.745
	c-0.267-8.05-6.859-14.499-14.975-14.499c-8.284,0-15,6.716-15,15v241c0,52.567,42.767,95.334,95.333,95.334h160.667
	c52.567,0,95.333-42.767,95.333-95.334V132.785C431.666,124.501,424.95,117.785,416.666,117.785z"/>
<path style="fill:#5B3227;" d="M416.666,117.785c-8.284,0-15,6.716-15,15v0.502l-145.664,4.872v341.708h80.331
	c52.567,0,95.333-42.767,95.333-95.334V132.785C431.666,124.501,424.95,117.785,416.666,117.785z"/>
<path style="fill:#FD413C;" d="M255.999,383.467c-22.487,0-43.458-12.099-54.727-31.575c-4.15-7.171-1.701-16.347,5.47-20.496
	c7.173-4.148,16.347-1.7,20.495,5.471c5.926,10.239,16.947,16.601,28.763,16.601s22.839-6.363,28.768-16.607
	c4.149-7.17,13.325-9.618,20.497-5.469c7.17,4.15,9.617,13.326,5.468,20.496C299.457,371.366,278.484,383.467,255.999,383.467z"/>
<path style="fill:#3B211A;" d="M191.736,262.978c-3.951,0-7.82-1.6-10.61-4.4c-2.79-2.79-4.39-6.649-4.39-10.6
	c0-3.95,1.6-7.82,4.39-10.61s6.659-4.39,10.61-4.39c3.949,0,7.81,1.6,10.6,4.39c2.79,2.79,4.4,6.66,4.4,10.61s-1.61,7.81-4.4,10.6
	C199.546,261.377,195.686,262.978,191.736,262.978z"/>
<path style="fill:#0F0301;" d="M320.266,262.978c-3.949,0-7.82-1.6-10.609-4.4c-2.791-2.79-4.391-6.649-4.391-10.6
	c0-3.95,1.6-7.82,4.391-10.61c2.789-2.79,6.66-4.39,10.609-4.39c3.95,0,7.82,1.6,10.61,4.39c2.79,2.79,4.39,6.66,4.39,10.61
	s-1.6,7.81-4.39,10.6C328.086,261.377,324.216,262.978,320.266,262.978z"/>
<path style="fill:#3B211A;" d="M456.833,32.133H175.666c-52.566,0-95.333,42.767-95.333,95.334v16.066c0,8.284,6.716,15,15,15
	h281.166c52.567,0,95.334-42.767,95.334-95.333V47.133C471.833,38.849,465.117,32.133,456.833,32.133z"/>
<path style="fill:#DA0806;" d="M305.264,331.391c-7.171-4.15-16.348-1.701-20.497,5.469c-5.929,10.243-16.95,16.606-28.765,16.607
	v30c22.484-0.001,43.455-12.102,54.729-31.58C314.881,344.717,312.434,335.541,305.264,331.391z"/>
<path style="fill:#0F0301;" d="M456.833,32.133H256.002v126.4h120.497c52.567,0,95.334-42.767,95.334-95.333V47.133
	C471.833,38.849,465.117,32.133,456.833,32.133z"/>
<g>
</g>
<g>
</g>
<g>
</g>
<g>
</g>
<g>
</g>
<g>
</g>
<g>
</g>
<g>
</g>
<g>
</g>
<g>
</g>
<g>
</g>
<g>
</g>
<g>
</g>
<g>
</g>
<g>
</g>
</svg>
