<?xml version="1.0" encoding="iso-8859-1"?>
<!-- Generator: Adobe Illustrator 19.0.0, SVG Export Plug-In . SVG Version: 6.00 Build 0)  -->
<svg version="1.1" id="Capa_1" xmlns="http://www.w3.org/2000/svg" xmlns:xlink="http://www.w3.org/1999/xlink" x="0px" y="0px"
	 viewBox="0 0 512 512" style="enable-background:new 0 0 512 512;" xml:space="preserve">
<path style="fill:#B2762F;" d="M399.111,358.245h-77.042v-39.147c0-1.283-0.793-2.388-1.913-2.854
	c-18.168,13.616-40.735,21.683-65.187,21.683c-24.451,0-47.018-8.066-65.186-21.683c-1.12,0.466-1.914,1.571-1.914,2.854v39.147
	h-77.041c-8.499,0-15.453,6.954-15.453,15.453v128c0,5.666,4.636,10.302,10.302,10.302H404.26c5.666,0,10.302-4.636,10.302-10.302
	v-128C414.564,365.199,407.609,358.245,399.111,358.245z"/>
<g>
	<path style="fill:#FCDB67;" d="M382.951,215.133v3.706l26.285-47.055c-3.586,1.424-7.492,2.215-11.585,2.215h-34.876v19.091
		C374.081,194.081,382.951,203.569,382.951,215.133z"/>
	<path style="fill:#FCDB67;" d="M126.988,215.133c0-11.564,8.871-21.052,20.177-22.042V174H114.35
		c-4.093,0-7.999-0.791-11.585-2.215l24.223,43.364V215.133z"/>
</g>
<g>
	<path style="fill:#FFB98A;" d="M147.165,229.122V191.89c-11.307,0.991-20.177,10.479-20.177,22.042v24.056
		c0,12.223,9.91,22.132,22.133,22.132h2.594C148.761,250.298,147.165,239.894,147.165,229.122z"/>
	<path style="fill:#FFB98A;" d="M362.773,191.89v37.231c0,10.772-1.595,21.177-4.55,30.999h2.595
		c12.224,0,22.131-9.909,22.131-22.132v-24.056C382.951,202.368,374.081,192.88,362.773,191.89z"/>
</g>
<path style="fill:#FFC502;" d="M351.807,114V96.322c0-44.947-36.437-81.384-81.384-81.384h-30.905
	c-44.947,0-81.384,36.438-81.384,81.384V114H351.807z"/>
<path style="opacity:0.15;fill:#440075;enable-background:new    ;" d="M233.628,15.178c-42.194,3.021-75.495,38.181-75.495,81.144
	V114h30.905V96.322c0-31.817,18.267-59.358,44.878-72.74L233.628,15.178z"/>
<path style="fill:#FCDB67;" d="M251.522,55.063c0.906-0.706,2.131-1.094,3.448-1.094c1.318,0,2.543,0.389,3.449,1.095l16.094,12.537
	l2.142-62.453C276.753,2.316,274.515,0,271.682,0h-33.424c-2.833,0-5.071,2.316-4.974,5.148l2.143,62.453L251.522,55.063z"/>
<path style="fill:#FFFFFF;" d="M225.91,114h58.119l8.375-27.637c0.822-2.711-0.334-6.354-2.569-8.095l-30.801-23.993
	c-2.235-1.741-5.892-1.741-8.127-0.001l-30.803,23.994c-2.235,1.74-3.391,5.383-2.569,8.095L225.91,114z"/>
<g>
	<path style="fill:#FFC502;" d="M397.65,112.628h-34.876v62.841h34.876c17.353,0,31.42-14.067,31.42-31.42
		S415.003,112.628,397.65,112.628z"/>
	<path style="fill:#FFC502;" d="M147.165,112.628H114.35c-17.353,0-31.42,14.068-31.42,31.421s14.067,31.42,31.42,31.42h32.815
		V112.628z"/>
</g>
<path style="fill:#D19546;" d="M399.111,358.245h-86.037v-38.352c-16.778,10.777-36.725,17.034-58.104,17.034
	s-41.325-6.256-58.103-17.034v38.352h-86.038c-8.499,0-15.453,6.954-15.453,15.453v128c0,5.666,4.636,10.302,10.302,10.302H404.26
	c5.666,0,10.302-4.636,10.302-10.302v-128C414.564,365.199,407.609,358.245,399.111,358.245z"/>
<g>
	<rect x="95.38" y="443.49" style="fill:#FFC502;" width="319.19" height="20.815"/>
	<path style="fill:#FFC502;" d="M95.377,491.184v10.514c0,5.666,4.636,10.302,10.302,10.302h191.529v-20.816H95.377z"/>
	<path style="fill:#FFC502;" d="M380.652,491.184V512h23.61c5.666,0,10.302-4.636,10.302-10.302v-10.514H380.652z"/>
</g>
<g style="opacity:0.15;">
	<path style="fill:#440075;" d="M126.197,501.698v-128c0-8.499,6.954-15.453,15.453-15.453h-30.821
		c-8.499,0-15.453,6.954-15.453,15.453v128c0,5.666,4.636,10.302,10.302,10.302h30.821C130.833,512,126.197,507.364,126.197,501.698
		z"/>
</g>
<g>
	<path style="fill:#B2762F;" d="M318.979,316.007h-0.269c-8.073,5.939-16.997,10.784-26.556,14.308v24.839
		c0,1.7,1.391,3.091,3.091,3.091h26.825v-39.147C322.069,317.398,320.678,316.007,318.979,316.007z"/>
	<path style="fill:#B2762F;" d="M191.23,316.007h-0.269c-1.7,0-3.091,1.391-3.091,3.091v39.147h26.825c1.7,0,3.09-1.391,3.09-3.091
		v-24.839C208.227,326.792,199.303,321.946,191.23,316.007z"/>
	<path style="fill:#B2762F;" d="M267.104,383.792V336.24c-3.985,0.449-8.032,0.687-12.134,0.687c-4.102,0-8.149-0.238-12.133-0.687
		v47.552H267.104z"/>
	<rect x="242.84" y="411.59" style="fill:#B2762F;" width="24.268" height="100.41"/>
</g>
<path style="fill:#FFC7A9;" d="M328.582,136.322H181.417l-35.252,43.85v48.949c0,60.091,48.714,108.805,108.804,108.805
	c60.091,0,108.805-48.714,108.805-108.805v-49.024L328.582,136.322z"/>
<path style="opacity:0.15;fill:#440075;enable-background:new    ;" d="M190.858,229.122v-92.799h-7.213l-16.463,20.479v72.32
	c0,39.346,16.852,73.811,42.096,92.921c4.064-5.844,9.812-10.421,16.544-13.038C204.329,289.13,190.858,260.705,190.858,229.122z"/>
<g>
	<path style="fill:#FFC502;" d="M167.182,229.122v-72.32l-21.017,26.143v46.177c0,60.091,48.714,108.805,108.804,108.805
		C206.487,337.927,167.182,289.213,167.182,229.122z"/>
	<path style="fill:#FFC502;" d="M342.758,229.122c0,60.091-39.304,108.805-87.788,108.805c60.091,0,108.805-48.714,108.805-108.805
		v-46.177l-21.017-26.143V229.122z"/>
</g>
<g>
	<polygon style="fill:#F7931E;" points="326.294,136.322 363.773,182.944 363.773,136.322 	"/>
	<polygon style="fill:#F7931E;" points="146.165,136.322 146.165,182.944 183.646,136.322 	"/>
</g>
<path style="fill:#D2957D;" d="M264.115,260.171h-8.999c-9.097,0-16.499-7.986-16.499-17.802v-25.517c0-4.142,3.358-7.5,7.5-7.5
	s7.5,3.358,7.5,7.5v25.517c0,1.743,1.041,2.802,1.499,2.802h8.999c4.142,0,7.5,3.358,7.5,7.5S268.257,260.171,264.115,260.171z"/>
<g>
	<path style="fill:#775436;" d="M231.21,196.225c-2.736,0-5.372-1.502-6.694-4.108c-6.244-12.311-22.379-17.587-35.964-11.76
		c-3.806,1.631-8.216-0.13-9.849-3.938c-1.632-3.807,0.131-8.216,3.938-9.849c20.713-8.881,45.499-0.465,55.252,18.76
		c1.874,3.694,0.398,8.208-3.295,10.081C233.509,195.964,232.351,196.225,231.21,196.225z"/>
	<path style="fill:#775436;" d="M276.359,196.225c-1.142,0-2.299-0.261-3.387-0.813c-3.694-1.874-5.17-6.388-3.296-10.081
		c9.751-19.226,34.537-27.642,55.253-18.761c3.807,1.632,5.57,6.042,3.939,9.849c-1.632,3.807-6.043,5.569-9.849,3.938
		c-13.588-5.825-29.722-0.55-35.965,11.759C281.732,194.723,279.095,196.225,276.359,196.225z"/>
</g>
<g>
	<path style="fill:#046699;" d="M204.001,234.061c-11.791,0-21.384-9.617-21.384-21.438c0-11.82,9.593-21.437,21.384-21.437
		s21.383,9.617,21.383,21.437C225.383,224.444,215.791,234.061,204.001,234.061z"/>
	<path style="fill:#046699;" d="M301.819,234.061c-11.791,0-21.384-9.617-21.384-21.438c0-11.82,9.593-21.437,21.384-21.437
		c11.791,0,21.383,9.617,21.383,21.437C323.203,224.444,313.609,234.061,301.819,234.061z"/>
</g>
<path style="fill:#D2957D;" d="M281.111,286.164h-49.925c-4.142,0-7.5-3.358-7.5-7.5s3.358-7.5,7.5-7.5h49.925
	c4.142,0,7.5,3.358,7.5,7.5S285.253,286.164,281.111,286.164z"/>
<path style="fill:#FFC502;" d="M291.352,409.497c0,1.7-1.391,3.09-3.09,3.09h-66.583c-1.7,0-3.091-1.391-3.091-3.09v-23.615
	c0-1.7,1.391-3.09,3.091-3.09h66.583c1.7,0,3.09,1.391,3.09,3.09V409.497z"/>
<path id="SVGCleanerId_0" style="fill:#FCDB67;" d="M114.35,136.322h283.3c13.161,0,24.424,8.095,29.103,19.574
	c1.49-3.657,2.318-7.655,2.318-11.847c0-17.353-14.067-31.421-31.42-31.421h-283.3c-17.353,0-31.42,14.068-31.42,31.421
	c0,4.192,0.828,8.19,2.318,11.847C89.926,144.417,101.19,136.322,114.35,136.322z"/>
<g>
	<path id="SVGCleanerId_0_1_" style="fill:#FCDB67;" d="M114.35,136.322h283.3c13.161,0,24.424,8.095,29.103,19.574
		c1.49-3.657,2.318-7.655,2.318-11.847c0-17.353-14.067-31.421-31.42-31.421h-283.3c-17.353,0-31.42,14.068-31.42,31.421
		c0,4.192,0.828,8.19,2.318,11.847C89.926,144.417,101.19,136.322,114.35,136.322z"/>
</g>
<g style="opacity:0.15;">
	<path style="fill:#440075;" d="M113.835,144.049c0-2.667,0.335-5.254,0.96-7.727h-0.445c-13.161,0-24.424,8.095-29.103,19.573
		c4.678,11.48,15.942,19.574,29.103,19.574h30.905C127.902,175.469,113.835,161.402,113.835,144.049z"/>
</g>
<path style="fill:#B2762F;" d="M152.982,419.799c0,1.7-1.391,3.09-3.09,3.09h-16.483c-1.7,0-3.091-1.391-3.091-3.09v-37.087
	c0-1.699,1.391-3.09,3.091-3.09h16.483c1.699,0,3.09,1.391,3.09,3.09V419.799z"/>
<path style="fill:#FFC502;" d="M262.076,94.55h-14.211c-4.142,0-7.5-3.358-7.5-7.5s3.358-7.5,7.5-7.5h14.211
	c4.142,0,7.5,3.358,7.5,7.5S266.217,94.55,262.076,94.55z"/>
<path style="fill:#B2762F;" d="M380.652,512v-21.729c0-1.7-1.391-3.09-3.09-3.09h-77.264c-1.7,0-3.091,1.391-3.091,3.09V512H380.652
	z"/>
<path style="fill:#FCDB67;" d="M254.97,337.927c17.386,0,33.816-4.085,48.394-11.337c-5.89-11.867-18.125-20.028-32.27-20.028
	h-32.249c-14.146,0-26.38,8.161-32.269,20.027C221.153,333.841,237.583,337.927,254.97,337.927z"/>
<g>
</g>
<g>
</g>
<g>
</g>
<g>
</g>
<g>
</g>
<g>
</g>
<g>
</g>
<g>
</g>
<g>
</g>
<g>
</g>
<g>
</g>
<g>
</g>
<g>
</g>
<g>
</g>
<g>
</g>
</svg>
