<?xml version="1.0" encoding="iso-8859-1"?>
<!-- Generator: Adobe Illustrator 19.0.0, SVG Export Plug-In . SVG Version: 6.00 Build 0)  -->
<svg version="1.1" id="Capa_1" xmlns="http://www.w3.org/2000/svg" xmlns:xlink="http://www.w3.org/1999/xlink" x="0px" y="0px"
	 viewBox="0 0 512 512" style="enable-background:new 0 0 512 512;" xml:space="preserve">
<path style="fill:#EF5050;" d="M344.468,364.169h-7.68c0.031,0.346-0.016,0.7-0.17,1.028c-9.936,21.113-26.837,32.272-48.878,32.272
	c-13.312,0-25.366-4.071-31.366-6.497c-0.12-0.048-0.248-0.073-0.375-0.073c-0.127,0-0.255,0.024-0.375,0.073
	c-6,2.427-18.054,6.497-31.366,6.497c-22.041,0-38.942-11.16-48.878-32.272c-0.154-0.328-0.201-0.682-0.17-1.028h-7.68
	c-17.04,0-30.905,13.864-30.905,30.905v111.775c0,2.845,2.306,5.151,5.151,5.151h228.446c2.845,0,5.151-2.306,5.151-5.151V395.074
	C375.373,378.033,361.508,364.169,344.468,364.169z"/>
<path style="opacity:0.15;fill:#440075;enable-background:new    ;" d="M178.354,370.866c-1.051-1.802-2.043-3.692-2.974-5.669
	c-0.154-0.328-0.201-0.682-0.17-1.028h-7.68c-17.04,0-30.905,13.864-30.905,30.905v111.775c0,2.845,2.306,5.151,5.151,5.151h30.002
	c-2.845,0-5.151-2.306-5.151-5.151V395.074C166.627,385.275,171.217,376.532,178.354,370.866z"/>
<path style="fill:#E6E9ED;" d="M287.74,397.469c-13.312,0-25.366-4.071-31.366-6.497c-0.12-0.048-0.248-0.073-0.375-0.073
	c-0.127,0-0.255,0.024-0.375,0.073c-6,2.427-18.054,6.497-31.366,6.497c-17.755,0-32.172-7.247-42.303-21.101V512h148.087V376.368
	C319.912,390.222,305.495,397.469,287.74,397.469z"/>
<path style="fill:#FFB98A;" d="M255.999,342.565c-16.066,0-31.286-3.697-44.859-10.284l-0.251,0.809l45.11,48.91l45.111-48.909
	l-0.251-0.809C287.285,338.869,272.065,342.565,255.999,342.565z"/>
<path style="fill:#C0272D;" d="M307.758,329.02c-0.085-0.096-0.184-0.171-0.278-0.254c-3.147,1.821-6.4,3.476-9.745,4.962
	l-41.736,45.251l-41.737-45.251c-3.344-1.487-6.598-3.142-9.745-4.962c-0.094,0.083-0.193,0.158-0.278,0.254l-29.303,33.345
	c-0.789,0.897-0.97,2.177-0.461,3.258c10.112,21.489,27.327,32.847,49.782,32.847c13.245,0,25.174-3.914,31.741-6.57
	c6.567,2.656,18.496,6.57,31.741,6.57c22.456,0,39.67-11.358,49.782-32.847c0.509-1.081,0.328-2.36-0.461-3.258L307.758,329.02z"/>
<path style="fill:#C5CCD3;" d="M209.909,62.683h92.18c6.417-5.628,10.475-13.882,10.475-23.088v-8.889
	C312.563,13.748,298.815,0,281.857,0h-51.716c-16.958,0-30.707,13.748-30.707,30.706v8.889
	C199.435,48.801,203.492,57.055,209.909,62.683z"/>
<path style="opacity:0.15;fill:#440075;enable-background:new    ;" d="M209.909,62.683h29.971
	c-6.418-5.628-10.475-13.882-10.475-23.088v-8.889C229.405,13.748,243.154,0,260.112,0h-29.971
	c-16.958,0-30.707,13.748-30.707,30.706v8.889C199.435,48.801,203.492,57.055,209.909,62.683z"/>
<path style="fill:#E6E9ED;" d="M220.038,38.206c4.142,0,7.5-3.358,7.5-7.5c0-1.435,1.167-2.603,2.603-2.603h51.716
	c1.435,0,2.603,1.167,2.603,2.603v8.917c0.025,6.555-7.282,20.612-20.764,22.991c-0.102,0.018-0.199,0.046-0.298,0.068h26.961
	c5.987-7.508,9.127-16.357,9.102-23.088v-8.889c0-9.706-7.896-17.603-17.603-17.603h-51.716c-9.707,0-17.603,7.896-17.603,17.603
	C212.538,34.848,215.896,38.206,220.038,38.206z"/>
<path style="fill:#C5CCD3;" d="M142.15,194.7h9.576c0.552,0,1-0.448,1-1v-25.677c0-28.878,23.538-52.372,52.469-52.372
	c2.352,0,4.675-0.035,6.959-0.069c2.199-0.033,4.361-0.065,6.477-0.065c13.753,0,26.673,1.166,33.617,15.244
	c0.592,1.201,2.605,1.38,3.753,1.38c1.147,0,3.16-0.18,3.751-1.38c6.944-14.077,19.865-15.243,33.62-15.243
	c2.116,0,4.278,0.032,6.477,0.065c2.284,0.034,4.606,0.069,6.957,0.069c28.931,0,52.469,23.494,52.469,52.372V193.7
	c0,0.552,0.448,1,1,1h9.577c1.808,0,3.565,0.218,5.253,0.618c11.862-14.177,19.011-32.432,19.011-52.363
	c0-45.099-36.56-81.659-81.659-81.659H199.543c-45.099,0-81.659,36.56-81.659,81.659c0,19.931,7.149,38.187,19.012,52.363
	C138.584,194.918,140.341,194.7,142.15,194.7z"/>
<path style="opacity:0.15;fill:#440075;enable-background:new    ;" d="M142.15,194.7h9.576c0.552,0,1-0.448,1-1v-25.473
	c-2.589-7.96-4.006-16.449-4.006-25.273c0-45.099,36.561-81.659,81.659-81.659h-30.835c-45.099,0-81.659,36.56-81.659,81.659
	c0,19.931,7.149,38.187,19.012,52.363C138.584,194.918,140.341,194.7,142.15,194.7z"/>
<g>
	<path style="fill:#E6E9ED;" d="M205.194,115.651c1.509,0,5.74-0.055,9.14-0.095V91.347c0-4.142-3.358-7.5-7.5-7.5
		s-7.5,3.358-7.5,7.5v24.639C201.259,115.771,203.212,115.651,205.194,115.651z"/>
	<path style="fill:#E6E9ED;" d="M247.111,123.481V91.347c0-4.142-3.358-7.5-7.5-7.5s-7.5,3.358-7.5,7.5v25.028
		C237.792,117.338,242.948,119.351,247.111,123.481z"/>
	<path style="fill:#E6E9ED;" d="M279.887,116.376V91.347c0-4.142-3.358-7.5-7.5-7.5c-4.142,0-7.5,3.358-7.5,7.5v32.134
		C269.05,119.351,274.206,117.339,279.887,116.376z"/>
	<path style="fill:#E6E9ED;" d="M306.804,115.651c1.982,0,3.935,0.12,5.86,0.335V91.347c0-4.142-3.358-7.5-7.5-7.5
		c-4.142,0-7.5,3.358-7.5,7.5v24.209C301.063,115.596,305.295,115.651,306.804,115.651z"/>
</g>
<g>
	<path style="fill:#FFB98A;" d="M152.726,239.075V193.7H142.15c-13.148,0-23.806,10.658-23.806,23.805v25.875
		c0,13.147,10.658,23.805,23.806,23.805h14.449C154.077,258.244,152.726,248.815,152.726,239.075z"/>
	<path style="fill:#FFB98A;" d="M369.849,193.7h-10.577v45.375c0,9.74-1.352,19.168-3.873,28.11h14.45
		c13.147,0,23.805-10.658,23.805-23.805v-25.875C393.654,204.358,382.996,193.7,369.849,193.7z"/>
</g>
<g>
	<path style="fill:#FFC502;" d="M153.726,253.441c-1.223-0.337-2.505-0.532-3.835-0.532c-7.966,0-14.423,6.458-14.423,14.423
		s6.457,14.422,14.423,14.422c3.995,0,7.61-1.626,10.222-4.251C157.062,269.886,154.892,261.822,153.726,253.441z"/>
	<path style="fill:#FFC502;" d="M362.107,252.909c-1.33,0-2.612,0.195-3.835,0.532c-1.167,8.381-3.336,16.445-6.387,24.063
		c2.612,2.625,6.227,4.251,10.222,4.251c7.966,0,14.423-6.457,14.423-14.422C376.53,259.367,370.073,252.909,362.107,252.909z"/>
</g>
<g>
	<path style="fill:#D19546;" d="M152.726,221.7h-14.178c-4.142,0-7.5,3.358-7.5,7.5s3.358,7.5,7.5,7.5h14.178V221.7z"/>
	<path style="fill:#D19546;" d="M373.451,221.7h-14.178v15h14.178c4.142,0,7.5-3.358,7.5-7.5S377.593,221.7,373.451,221.7z"/>
</g>
<path style="fill:#FFC7A9;" d="M255.999,343.565c-57.497,0-104.273-46.874-104.273-104.49v-71.052
	c0-29.429,23.986-53.372,53.469-53.372c20.538,0,38.912-2.655,47.95,15.667c0.54,1.096,5.17,1.097,5.71,0
	c9.038-18.321,27.412-15.667,47.95-15.667c29.482,0,53.469,23.943,53.469,53.372v71.052
	C360.272,296.691,313.496,343.565,255.999,343.565z"/>
<g style="opacity:0.15;">
	<path style="fill:#440075;" d="M181.375,239.075v-71.052c0-27.484,20.921-50.176,47.701-53.057
		c-7.251-0.767-15.38-0.315-23.882-0.315c-29.483,0-53.469,23.943-53.469,53.372v71.052c0,57.616,46.776,104.49,104.273,104.49
		c5.033,0,9.981-0.367,14.825-1.061C220.324,335.27,181.375,291.648,181.375,239.075z"/>
</g>
<g>
	<path style="fill:#D2957D;" d="M264.998,261.893h-8.999c-0.458,0-1.499-1.059-1.499-2.802V235.7h-2.924
		c-0.468,0-0.874,0.325-0.976,0.782c-1.79,8.009-5.725,15.153-11.1,20.89v1.719c0,9.816,7.401,17.802,16.499,17.802h8.999
		c4.142,0,7.5-3.358,7.5-7.5S269.14,261.893,264.998,261.893z"/>
	<path style="fill:#D2957D;" d="M280.962,309.858h-49.926c-4.142,0-7.5-3.358-7.5-7.5s3.358-7.5,7.5-7.5h49.926
		c4.142,0,7.5,3.358,7.5,7.5C288.462,306.501,285.104,309.858,280.962,309.858z"/>
	<path style="fill:#D2957D;" d="M297.413,159.452h-82.827c-4.142,0-7.5-3.358-7.5-7.5s3.358-7.5,7.5-7.5h82.827
		c4.142,0,7.5,3.358,7.5,7.5S301.555,159.452,297.413,159.452z"/>
	<path style="fill:#D2957D;" d="M281.719,180.055h-51.44c-4.142,0-7.5-3.358-7.5-7.5s3.358-7.5,7.5-7.5h51.44
		c4.142,0,7.5,3.358,7.5,7.5S285.861,180.055,281.719,180.055z"/>
</g>
<path style="fill:#98E8F9;" d="M245.196,226.624c0,21.364-17.319,38.685-38.683,38.685l0,0c-21.364,0-38.685-17.321-38.685-38.685
	l0,0c0-21.363,17.321-38.684,38.685-38.684l0,0C227.877,187.94,245.196,205.261,245.196,226.624L245.196,226.624z"/>
<g style="opacity:0.15;">
	<path style="fill:#440075;" d="M189.963,226.624c0-17.517,11.648-32.307,27.618-37.069c-3.508-1.045-7.22-1.615-11.067-1.615
		c-21.364,0-38.685,17.321-38.685,38.684c0,21.364,17.321,38.685,38.685,38.685c3.847,0,7.559-0.57,11.067-1.615
		C201.611,258.931,189.963,244.141,189.963,226.624z"/>
</g>
<path style="fill:#98E8F9;" d="M344.17,226.624c0,21.364-17.32,38.685-38.685,38.685l0,0c-21.364,0-38.683-17.321-38.683-38.685l0,0
	c0-21.363,17.319-38.684,38.683-38.684l0,0C326.85,187.94,344.17,205.261,344.17,226.624L344.17,226.624z"/>
<g style="opacity:0.15;">
	<path style="fill:#440075;" d="M288.937,226.624c0-17.517,11.648-32.307,27.618-37.069c-3.507-1.045-7.22-1.615-11.067-1.615
		c-21.364,0-38.685,17.321-38.685,38.684c0,21.364,17.321,38.685,38.685,38.685c3.847,0,7.56-0.57,11.067-1.615
		C300.584,258.931,288.937,244.141,288.937,226.624z"/>
</g>
<path style="fill:#B2762F;" d="M360.272,221.7h-8.868c-2.466-23.159-22.117-41.26-45.919-41.26s-43.451,18.101-45.917,41.26h-7.137
	c-2.466-23.159-22.116-41.26-45.917-41.26c-23.803,0-43.453,18.101-45.92,41.26h-8.868v15h9.723
	c4.612,20.635,23.06,36.109,45.065,36.109c22.004,0,40.452-15.474,45.063-36.109h8.846c4.611,20.635,23.058,36.109,45.063,36.109
	s40.453-15.474,45.065-36.109h9.723v-15H360.272z M206.513,257.809c-17.195,0-31.185-13.989-31.185-31.185
	c0-17.195,13.99-31.184,31.185-31.184c17.194,0,31.183,13.989,31.183,31.184S223.707,257.809,206.513,257.809z M305.485,257.809
	c-17.194,0-31.183-13.989-31.183-31.185c0-17.195,13.989-31.184,31.183-31.184c17.195,0,31.185,13.989,31.185,31.184
	S322.68,257.809,305.485,257.809z"/>
<g>
	<path style="fill:#D2957D;" d="M197.16,308.114c-1.919,0-3.839-0.733-5.303-2.197c-2.929-2.929-2.929-7.678,0-10.607l11.332-11.332
		c2.929-2.929,7.678-2.929,10.607,0s2.929,7.678,0,10.606l-11.332,11.332C200.999,307.382,199.08,308.114,197.16,308.114z"/>
	<path style="fill:#D2957D;" d="M314.839,308.114c-1.919,0-3.839-0.733-5.303-2.197l-11.332-11.332
		c-2.929-2.929-2.929-7.678,0-10.606c2.929-2.929,7.678-2.929,10.606,0l11.332,11.332c2.929,2.929,2.929,7.678,0,10.607
		C318.678,307.382,316.758,308.114,314.839,308.114z"/>
</g>
<g>
	<path style="fill:#046699;" d="M317.369,237.32c-4.142,0-7.5-3.358-7.5-7.5c0-1.886-1.99-3.479-4.346-3.479
		s-4.348,1.593-4.348,3.479c0,4.142-3.358,7.5-7.5,7.5c-4.142,0-7.5-3.358-7.5-7.5c0-10.189,8.679-18.479,19.348-18.479
		c10.668,0,19.346,8.289,19.346,18.479C324.869,233.962,321.511,237.32,317.369,237.32z"/>
	<path style="fill:#046699;" d="M218.323,237.32c-4.142,0-7.5-3.358-7.5-7.5c0-1.886-1.99-3.479-4.346-3.479
		c-2.357,0-4.348,1.593-4.348,3.479c0,4.142-3.358,7.5-7.5,7.5s-7.5-3.358-7.5-7.5c0-10.189,8.68-18.479,19.348-18.479
		c10.667,0,19.346,8.289,19.346,18.479C225.823,233.962,222.465,237.32,218.323,237.32z"/>
</g>
<path style="fill:#E6E9ED;" d="M270.513,48.192h-29.027c-4.142,0-7.5-3.358-7.5-7.5s3.358-7.5,7.5-7.5h29.027
	c4.142,0,7.5,3.358,7.5,7.5S274.655,48.192,270.513,48.192z"/>
<g>
	<circle style="fill:#9EA7AF;" cx="255.999" cy="426.07" r="11.427"/>
	<circle style="fill:#9EA7AF;" cx="255.999" cy="476.36" r="11.427"/>
</g>
<g>
</g>
<g>
</g>
<g>
</g>
<g>
</g>
<g>
</g>
<g>
</g>
<g>
</g>
<g>
</g>
<g>
</g>
<g>
</g>
<g>
</g>
<g>
</g>
<g>
</g>
<g>
</g>
<g>
</g>
</svg>
