<?xml version="1.0" encoding="iso-8859-1"?>
<!-- Generator: Adobe Illustrator 19.0.0, SVG Export Plug-In . SVG Version: 6.00 Build 0)  -->
<svg version="1.1" id="Capa_1" xmlns="http://www.w3.org/2000/svg" xmlns:xlink="http://www.w3.org/1999/xlink" x="0px" y="0px"
	 viewBox="0 0 512 512" style="enable-background:new 0 0 512 512;" xml:space="preserve">
<path style="fill:#76C9D2;" d="M413.777,475.542c-8.979,0-17.896-2.798-25.497-8.297L339.846,432.2l21.689-29.977l48.435,35.045
	c2.824,2.044,5.48,1.207,6.813,0.526c1.332-0.681,3.567-2.343,3.567-5.828V329.667h37v102.301c0,16.441-9.096,31.3-23.737,38.778
	C427.326,473.957,420.534,475.542,413.777,475.542z"/>
<path style="opacity:0.15;enable-background:new    ;" d="M413.777,475.542c-8.979,0-17.896-2.798-25.497-8.297L339.846,432.2
	l21.689-29.977l48.435,35.045c2.824,2.044,5.48,1.207,6.813,0.526c1.332-0.681,3.567-2.343,3.567-5.828V329.667h37v102.301
	c0,16.441-9.096,31.3-23.737,38.778C427.326,473.957,420.534,475.542,413.777,475.542z"/>
<path style="fill:#FFD4B8;" d="M438.85,351.514c-10.217,0-18.5-8.283-18.5-18.5v-28.667c0-10.217,8.283-18.5,18.5-18.5
	s18.5,8.283,18.5,18.5v28.667C457.35,343.231,449.067,351.514,438.85,351.514z"/>
<path style="fill:#76C9D2;" d="M142.547,512h-28.656c-4.608,0-8.344-3.736-8.344-8.344v-21.934
	c0-35.608,19.635-67.917,51.242-84.316l17.041,32.842c-19.296,10.012-31.283,29.736-31.283,51.474V512z"/>
<path style="opacity:0.15;enable-background:new    ;" d="M142.547,512h-28.656c-4.608,0-8.344-3.736-8.344-8.344v-21.934
	c0-35.608,19.635-67.917,51.242-84.316l17.041,32.842c-19.296,10.012-31.283,29.736-31.283,51.474V512z"/>
<path style="fill:#76C9D2;" d="M256,322.422L256,322.422c-62.789,0-113.689,50.9-113.689,113.689V512h219.034
	c4.608,0,8.344-3.736,8.344-8.344v-67.544C369.689,373.323,318.789,322.422,256,322.422z"/>
<g>
	<path style="fill:#FFFFFF;" d="M256,357.7l-50.901,23.861c-4.695,2.201-10.086-1.226-10.086-6.411v-40.028L256,357.7z"/>
	<path style="fill:#FFFFFF;" d="M256,357.7l50.901,23.861c4.695,2.201,10.086-1.226,10.086-6.411v-40.028L256,357.7z"/>
</g>
<path style="opacity:0.1;enable-background:new    ;" d="M256,322.422L256,322.422c-31.165,0-59.396,12.543-79.933,32.852
	c24.057,12.04,51.2,18.826,79.933,18.826c28.732,0,55.876-6.786,79.933-18.826C315.396,334.966,287.164,322.422,256,322.422z"/>
<g>
	<circle style="fill:#FFD4B8;" cx="77.15" cy="179.09" r="31.541"/>
	<circle style="fill:#FFD4B8;" cx="434.85" cy="179.09" r="31.541"/>
	<circle style="fill:#FFD4B8;" cx="256" cy="178.85" r="178.85"/>
</g>
<g>
	<path style="fill:#4A5058;" d="M165.31,186.585c-4.142,0-7.5-3.358-7.5-7.5v-17.818c0-4.142,3.358-7.5,7.5-7.5s7.5,3.358,7.5,7.5
		v17.818C172.81,183.227,169.452,186.585,165.31,186.585z"/>
	<path style="fill:#4A5058;" d="M346.69,186.585c-4.142,0-7.5-3.358-7.5-7.5v-17.818c0-4.142,3.358-7.5,7.5-7.5s7.5,3.358,7.5,7.5
		v17.818C354.19,183.227,350.833,186.585,346.69,186.585z"/>
	<path style="fill:#4A5058;" d="M256,235.727c-9.208,0-18.104-3.859-24.409-10.588c-2.832-3.023-2.677-7.769,0.345-10.601
		c3.022-2.831,7.769-2.677,10.601,0.345c3.531,3.769,8.312,5.844,13.462,5.844c5.151,0,9.932-2.075,13.462-5.844
		c2.832-3.022,7.578-3.177,10.601-0.345c3.022,2.832,3.177,7.578,0.345,10.601C274.104,231.867,265.208,235.727,256,235.727z"/>
	<path style="fill:#4A5058;" d="M256,0C157.224,0,77.15,80.074,77.15,178.85c27.798,0,57.193-29.601,60.229-89.999
		c19.041,21.326,127.988,63.51,241.293,29.616c9.529,40.464,33.384,60.383,56.178,60.383C434.85,80.074,354.776,0,256,0z"/>
</g>
<path style="opacity:0.1;fill:#513130;enable-background:new    ;" d="M282.505,335.122c-98.776,0-178.85-80.074-178.85-178.85
	c0-48.278,19.136-92.081,50.228-124.258C107.506,64.328,77.15,118.04,77.15,178.85c0,98.776,80.074,178.85,178.85,178.85
	c50.498,0,96.101-20.936,128.622-54.592C355.667,323.283,320.471,335.122,282.505,335.122z"/>
<g>
	<circle style="fill:#FFFFFF;" cx="256" cy="406.33" r="7.494"/>
	<circle style="fill:#FFFFFF;" cx="256" cy="461.39" r="7.494"/>
	<path style="fill:#FFFFFF;" d="M338.708,461.802l-10.963,6.378c-2.491,1.449-5.568,1.449-8.059,0l-10.963-6.378
		c-2.466-1.435-3.983-4.073-3.983-6.926v-27.978c0-1.926,1.561-3.487,3.487-3.487h30.978c1.926,0,3.487,1.561,3.487,3.487v27.978
		C342.691,457.729,341.174,460.367,338.708,461.802z"/>
</g>
<g>
</g>
<g>
</g>
<g>
</g>
<g>
</g>
<g>
</g>
<g>
</g>
<g>
</g>
<g>
</g>
<g>
</g>
<g>
</g>
<g>
</g>
<g>
</g>
<g>
</g>
<g>
</g>
<g>
</g>
</svg>
