<?xml version="1.0" encoding="iso-8859-1"?>
<!-- Generator: Adobe Illustrator 19.0.0, SVG Export Plug-In . SVG Version: 6.00 Build 0)  -->
<svg version="1.1" id="Capa_1" xmlns="http://www.w3.org/2000/svg" xmlns:xlink="http://www.w3.org/1999/xlink" x="0px" y="0px"
	 viewBox="0 0 512 512" style="enable-background:new 0 0 512 512;" xml:space="preserve">
<path style="fill:#5DC647;" d="M334.415,67.964c-18.886-13.014-46.002-19.893-78.414-19.893s-59.527,6.879-78.414,19.894
	c-21.112,14.547-31.816,36.338-31.816,64.769v63.686c0,28.969,11.157,56.333,31.414,77.05c0.494,0.505,0.815,1.151,0.921,1.85
	c2.747,18.135,13.929,33.406,29.143,42.066v33.906c0,5.69,4.014,10.439,9.363,11.581h-0.001l-0.001,4.351
	c0,11.332,9.271,20.604,20.604,20.604h37.572c11.332,0,20.604-9.272,20.604-20.604V320.88c18.013-7.198,31.882-23.112,35.807-43.005
	c0.135-0.68,0.475-1.303,0.977-1.781c21.961-21.003,34.056-49.298,34.056-79.674v-63.686
	C366.23,104.302,355.527,82.512,334.415,67.964z"/>
<path style="fill:#368C0E;" d="M343.734,386.803l12.235,82.591c0.073,0.49,0.494,0.854,0.989,0.854s0.917-0.363,0.989-0.853
	l15.319-103.165h-50.214l8.258,19.956c0.154,0.374,0.519,0.618,0.924,0.618h11.5V386.803z"/>
<path style="fill:#F7931E;" d="M377.562,76.46h-11.647c-1.287-16.569-6.56-30.635-15.749-42.063l9.687-9.687
	c2.929-2.929,2.929-7.678,0-10.607s-7.678-2.929-10.606,0l-9.669,9.67c-1.647-1.344-3.364-2.64-5.163-3.879
	C315.529,6.879,288.413,0,256.001,0s-59.527,6.879-78.414,19.894c-19.033,13.114-29.603,32.119-31.501,56.566h-16.283
	c-4.142,0-7.5,3.358-7.5,7.5s3.358,7.5,7.5,7.5h15.968v43.203c0-28.431,10.704-50.222,31.816-64.769
	C196.474,56.879,223.589,50,256.001,50s59.528,6.879,78.414,19.894c21.112,14.547,31.815,36.338,31.815,64.769V91.46h11.332
	c4.142,0,7.5-3.358,7.5-7.5S381.705,76.46,377.562,76.46z"/>
<path style="opacity:0.15;fill:#440075;enable-background:new    ;" d="M145.771,134.663c0-28.431,10.704-50.222,31.816-64.769
	c0.051-0.035,0.107-0.068,0.158-0.103c3.182-21.256,13.482-38.001,30.748-49.897c15.796-10.885,37.367-17.46,62.96-19.326
	C266.448,0.203,261.303,0,256.001,0c-32.412,0-59.527,6.879-78.414,19.894c-19.033,13.114-29.603,32.119-31.501,56.566h-16.283
	c-4.142,0-7.5,3.358-7.5,7.5s3.358,7.5,7.5,7.5h15.968L145.771,134.663L145.771,134.663z"/>
<path style="fill:#D2957D;" d="M383.082,358.246h-7.053c-1.487,0-2.749,1.089-2.967,2.56l-16.103,108.442L345.367,391l0,0
	l-0.391-2.637c-0.218-1.471-1.481-2.561-2.968-2.561h-1.007h-8.767l-10.636-25.704c-0.464-1.121-1.558-1.853-2.772-1.853h-24.435
	v8.978c0,10.81-8.794,19.604-19.604,19.604h-37.572c-10.809,0-19.604-8.794-19.604-19.604v-4.188
	c-3.324-0.417-6.214-2.208-8.092-4.79h-80.6c-8.521,0-15.453,6.932-15.453,15.453v128c0,5.681,4.622,10.302,10.302,10.302h264.463
	c5.68,0,10.302-4.621,10.302-10.302v-128C398.534,365.178,391.602,358.246,383.082,358.246z"/>
<path style="fill:#368C0E;" d="M273.733,324.056H251.43c-2.02,3.646-5.903,6.117-10.367,6.117c-4.293,0-8.042-2.291-10.119-5.71
	v26.829c0,6.543-5.305,11.847-11.847,11.847c-0.853,0-1.683-0.095-2.485-0.266v4.351c0,11.332,9.271,20.604,20.604,20.604h37.572
	c11.332,0,20.604-9.272,20.604-20.604v-47.416C288.664,322.55,281.341,324.056,273.733,324.056z"/>
<path style="opacity:0.15;fill:#440075;enable-background:new    ;" d="M246.244,367.224v-38.256
	c-1.567,0.764-3.32,1.205-5.181,1.205c-4.293,0-8.042-2.291-10.119-5.71v26.829c0,6.543-5.305,11.847-11.847,11.847
	c-0.853,0-1.683-0.095-2.485-0.266v4.351c0,11.332,9.271,20.604,20.604,20.604h29.632
	C255.516,387.828,246.244,378.556,246.244,367.224z"/>
<g>
	<path style="fill:#368C0E;" d="M146.771,196.42v-44.46h-7.268c-13.453,0-24.359,10.906-24.359,24.359v26.477
		c0,13.453,10.906,24.359,24.359,24.359h11.646C148.268,217.289,146.771,206.962,146.771,196.42z"/>
	<path style="fill:#368C0E;" d="M372.499,151.96h-7.268v44.46c0,10.575-1.485,20.893-4.348,30.735H372.5
		c13.453,0,24.358-10.906,24.358-24.359v-26.477C396.857,162.866,385.952,151.96,372.499,151.96z"/>
</g>
<g>
	<path style="fill:#203A74;" d="M146.771,196.42v-14.924h-8.222c-4.142,0-7.5,3.358-7.5,7.5s3.358,7.5,7.5,7.5h8.223
		C146.772,196.471,146.771,196.445,146.771,196.42z"/>
	<path style="fill:#203A74;" d="M373.452,181.496h-8.222v14.924c0,0.025-0.001,0.051-0.001,0.076h8.223c4.142,0,7.5-3.358,7.5-7.5
		S377.594,181.496,373.452,181.496z"/>
</g>
<path style="fill:#5DC647;" d="M236.024,325.056c-28.724,0-53.624-21.382-57.917-49.735c-0.105-0.699-0.427-1.345-0.921-1.85
	c-20.257-20.718-31.414-48.082-31.414-77.05v-63.686c0-28.431,10.704-50.222,31.816-64.769
	c18.886-13.016,46.001-19.895,78.413-19.895s59.528,6.879,78.414,19.894c21.112,14.547,31.815,36.338,31.815,64.769v63.686
	c0,30.376-12.095,58.67-34.056,79.674c-0.501,0.479-0.842,1.101-0.977,1.781c-5.394,27.338-29.561,47.181-57.465,47.181H236.024z"/>
<g style="opacity:0.15;">
	<path style="fill:#440075;" d="M207.25,291.347c-2.366-4.99-4.057-10.366-4.914-16.026c-0.105-0.699-0.427-1.345-0.921-1.85
		c-20.257-20.719-31.414-48.082-31.414-77.051v-63.686c0-28.431,10.704-50.222,31.816-64.769c4.901-3.377,10.368-6.331,16.327-8.868
		c-0.17-1.131-0.259-2.289-0.259-3.467c0-1.352,0.122-2.675,0.345-3.964c-15.932,3.275-29.68,8.746-40.642,16.299
		c-21.112,14.547-31.816,36.338-31.816,64.769v63.686c0,28.969,11.157,56.333,31.414,77.05c0.494,0.505,0.815,1.151,0.921,1.85
		c2.747,18.135,13.929,33.406,29.143,42.066L207.25,291.347L207.25,291.347z"/>
</g>
<path style="fill:#D5E962;" d="M218.229,51.666c-0.223,1.289-0.345,2.612-0.345,3.964c0,12.801,10.377,23.179,23.179,23.179
	s23.179-10.378,23.179-23.179c0-2.603-0.436-5.102-1.226-7.438c-2.313-0.074-4.645-0.122-7.015-0.122
	C242.4,48.071,229.748,49.298,218.229,51.666z"/>
<path style="fill:#368C0E;" d="M335.325,115.154h-50.478c-4.142,0-7.5-3.358-7.5-7.5s3.358-7.5,7.5-7.5h50.478
	c4.142,0,7.5,3.358,7.5,7.5S339.467,115.154,335.325,115.154z"/>
<circle style="fill:#FFFFFF;" cx="309.051" cy="160.19" r="33.996"/>
<path style="fill:#368C0E;" d="M309.055,201.689c-22.881,0-41.496-18.615-41.496-41.496s18.615-41.496,41.496-41.496
	s41.496,18.615,41.496,41.496S331.936,201.689,309.055,201.689z M309.055,133.697c-14.61,0-26.496,11.886-26.496,26.496
	s11.886,26.496,26.496,26.496s26.496-11.886,26.496-26.496C335.551,145.584,323.665,133.697,309.055,133.697z"/>
<path style="fill:#F7931E;" d="M309.051,167.69c-1.97,0-3.9-0.8-5.3-2.19c-1.4-1.4-2.2-3.33-2.2-5.31c0-1.97,0.8-3.9,2.2-5.3
	c1.4-1.4,3.33-2.2,5.3-2.2c1.98,0,3.91,0.8,5.31,2.2c1.39,1.4,2.19,3.33,2.19,5.3c0,1.98-0.8,3.91-2.19,5.31
	C312.961,166.89,311.031,167.69,309.051,167.69z"/>
<circle style="fill:#FFFFFF;" cx="202.951" cy="160.19" r="33.996"/>
<path style="fill:#5DC647;" d="M171.694,146.801h62.505c-5.199-12.116-17.233-20.604-31.252-20.604S176.894,134.685,171.694,146.801
	z"/>
<g>
	<path style="fill:#368C0E;" d="M202.947,118.697c-22.881,0-41.496,18.615-41.496,41.496s18.615,41.496,41.496,41.496
		s41.496-18.615,41.496-41.496C244.442,137.313,225.828,118.697,202.947,118.697z M219.213,139.301h-32.532
		c4.494-3.506,10.138-5.604,16.266-5.604S214.719,135.794,219.213,139.301z M202.947,186.689c-14.61,0-26.496-11.886-26.496-26.496
		c0-2.025,0.236-3.996,0.668-5.893h51.654c0.433,1.896,0.669,3.867,0.669,5.893C229.442,174.803,217.557,186.689,202.947,186.689z"
		/>
	<path style="fill:#368C0E;" d="M202.947,220.232c-9.523,0-18.636-2.171-27.085-6.454c-3.695-1.873-5.172-6.386-3.299-10.081
		c1.873-3.695,6.385-5.171,10.081-3.299c6.328,3.208,13.159,4.833,20.304,4.833c6.128,0,12.068-1.211,17.656-3.599
		c3.807-1.628,8.216,0.14,9.844,3.949c1.628,3.809-0.14,8.216-3.949,9.844C219.036,218.616,211.113,220.232,202.947,220.232z"/>
	<path style="fill:#368C0E;" d="M346.661,206.84c-1.98,0-3.91-0.8-5.31-2.2c-1.39-1.39-2.19-3.329-2.19-5.3
		c0-1.97,0.8-3.91,2.19-5.3c1.4-1.4,3.33-2.2,5.31-2.2c1.97,0,3.9,0.8,5.3,2.2c1.4,1.39,2.2,3.33,2.2,5.3s-0.8,3.91-2.2,5.3
		C350.561,206.04,348.631,206.84,346.661,206.84z"/>
</g>
<g>
	<path style="fill:#D5E962;" d="M333.261,224.35c-1.97,0-3.91-0.8-5.3-2.19c-1.4-1.4-2.2-3.33-2.2-5.31c0-1.97,0.8-3.9,2.2-5.3
		c1.39-1.4,3.33-2.2,5.3-2.2c1.98,0,3.91,0.8,5.31,2.2c1.39,1.4,2.19,3.33,2.19,5.3c0,1.98-0.8,3.91-2.19,5.31
		C337.171,223.55,335.241,224.35,333.261,224.35z"/>
	<path style="fill:#D5E962;" d="M317.811,244.96c-1.97,0-3.91-0.8-5.3-2.2c-1.4-1.4-2.2-3.33-2.2-5.3c0-1.98,0.8-3.91,2.2-5.31
		c1.39-1.39,3.33-2.19,5.3-2.19s3.91,0.8,5.3,2.19c1.4,1.4,2.2,3.33,2.2,5.31c0,1.97-0.8,3.9-2.2,5.3
		C321.721,244.16,319.791,244.96,317.811,244.96z"/>
</g>
<path style="fill:#368C0E;" d="M305.451,221.26c-1.98,0-3.91-0.8-5.31-2.19c-1.39-1.4-2.19-3.33-2.19-5.31c0-1.97,0.8-3.9,2.19-5.3
	c1.4-1.4,3.33-2.2,5.31-2.2c1.97,0,3.91,0.8,5.3,2.2c1.4,1.4,2.2,3.33,2.2,5.3c0,1.98-0.8,3.91-2.2,5.31
	C309.361,220.46,307.421,221.26,305.451,221.26z"/>
<path style="fill:#EF5050;" d="M212.174,291.061c-2.395,0-4.387-1.712-4.829-3.979c-0.055,0.449-0.095,0.903-0.095,1.368v62.841
	c0,6.543,5.304,11.847,11.847,11.847c6.542,0,11.847-5.304,11.847-11.847v-26.829c2.078,3.418,5.826,5.71,10.119,5.71
	c6.542,0,11.847-5.304,11.847-11.847V291.06h-40.736V291.061z"/>
<path style="fill:#FB8276;" d="M276.191,231.65h-40.379c-0.262,0-0.521,0.013-0.781,0.02v21.666c0,2.014-1.649,3.664-3.664,3.664
	h-21.982c-0.688,0-1.329-0.2-1.88-0.535c-0.162,1.227-0.253,2.476-0.253,3.746v27.576c0,2.72,2.205,4.925,4.924,4.925h87.653
	c2.719,0,4.924-2.205,4.924-4.925v-27.576C304.752,244.463,291.94,231.65,276.191,231.65z"/>
<g style="opacity:0.15;">
	<path style="fill:#440075;" d="M227.521,287.787v-27.576c0-0.569,0.021-1.133,0.055-1.694h-16.662c-1.521,0-2.831-0.94-3.383-2.267
		c-0.181,1.295-0.281,2.616-0.281,3.96v27.576c0,2.72,2.205,4.925,4.924,4.925h20.271
		C229.727,292.712,227.521,290.507,227.521,287.787z"/>
</g>
<g>
	<path style="fill:#FFFFFF;" d="M236.56,231.65h-0.749c-14.405,0-26.345,10.72-28.281,24.6c0.552,1.327,1.862,2.267,3.383,2.267
		h21.982c2.015,0,3.664-1.649,3.664-3.664V231.65H236.56z"/>
	<path style="fill:#FFFFFF;" d="M281.647,292.712v-20.761c0-2.015-1.649-3.664-3.664-3.664h-21.982
		c-2.015,0-3.664,1.649-3.664,3.664v20.761H281.647z"/>
</g>
<circle style="fill:#D5E962;" cx="199.341" cy="93.23" r="14.423"/>
<g style="opacity:0.15;">
	<path style="fill:#440075;" d="M142.975,501.698v-128c0-8.499,6.954-15.453,15.453-15.453h-29.507
		c-8.499,0-15.453,6.954-15.453,15.453v128c0,5.666,4.636,10.302,10.302,10.302h29.507C147.611,512,142.975,507.364,142.975,501.698
		z"/>
</g>
<path style="fill:#368C0E;" d="M265.147,213.581h-6.423c-7.807,0-13.923-7.819-13.923-17.802v-15.107c0-4.142,3.358-7.5,7.5-7.5
	s7.5,3.358,7.5,7.5v15.107c0,1.284,0.257,2.224,0.497,2.802h4.849c4.142,0,7.5,3.358,7.5,7.5
	C272.647,210.223,269.289,213.581,265.147,213.581z"/>
<g>
</g>
<g>
</g>
<g>
</g>
<g>
</g>
<g>
</g>
<g>
</g>
<g>
</g>
<g>
</g>
<g>
</g>
<g>
</g>
<g>
</g>
<g>
</g>
<g>
</g>
<g>
</g>
<g>
</g>
</svg>
