<?xml version="1.0" encoding="iso-8859-1"?>
<!-- Generator: Adobe Illustrator 19.0.0, SVG Export Plug-In . SVG Version: 6.00 Build 0)  -->
<svg version="1.1" id="Capa_1" xmlns="http://www.w3.org/2000/svg" xmlns:xlink="http://www.w3.org/1999/xlink" x="0px" y="0px"
	 viewBox="0 0 512 512" style="enable-background:new 0 0 512 512;" xml:space="preserve">
<path style="fill:#E37C5D;" d="M448.8,216.898h-32.134c-8.284,0-15,6.716-15,15c0,8.242,6.65,14.927,14.877,14.993l-0.548,66.407
	h-0.124c-8.284,0-15,6.716-15,15s6.716,15,15,15H448.8c34.849,0,63.2-28.351,63.2-63.199C512,245.25,483.648,216.898,448.8,216.898z
	"/>
<path style="fill:#ED9A81;" d="M96.132,313.299h-0.124l-0.55-66.407c8.227-0.066,14.876-6.751,14.876-14.993c0-8.284-6.716-15-15-15
	H63.2C28.351,216.899,0,245.251,0,280.1c0,34.848,28.352,63.199,63.2,63.199h32.932c8.284,0,15-6.716,15-15
	S104.416,313.299,96.132,313.299z"/>
<path style="fill:#F7AF99;" d="M416.666,120.499H95.334c-8.284,0-15,6.716-15,15v176.733c0,6.056,0.314,12.176,0.935,18.189
	c0.386,3.736,2.158,7.192,4.969,9.685c21.152,18.756,45.042,33.775,71.007,44.642c1.863,0.78,3.831,1.163,5.79,1.163
	c3.067,0,6.111-0.94,8.689-2.772c24.71-17.56,53.852-26.84,84.276-26.84s59.565,9.28,84.275,26.839
	c4.225,3.002,9.698,3.611,14.48,1.609c25.965-10.865,49.855-25.886,71.008-44.642c2.811-2.492,4.583-5.948,4.969-9.685
	c0.62-6.013,0.935-12.133,0.935-18.189V135.499C431.666,127.215,424.95,120.499,416.666,120.499z"/>
<path style="fill:#ED9A81;" d="M416.666,120.499H256v235.8c30.424,0,59.565,9.28,84.275,26.839c4.225,3.002,9.698,3.611,14.48,1.609
	c25.965-10.865,49.855-25.886,71.008-44.642c2.811-2.492,4.583-5.948,4.969-9.685c0.62-6.013,0.935-12.133,0.935-18.189V135.499
	C431.666,127.215,424.95,120.499,416.666,120.499z"/>
<path style="fill:#F2F2F2;" d="M175.666,312.24c44.367,0,80.334-35.97,80.334-80.334H95.334
	C95.334,276.271,131.3,312.24,175.666,312.24z"/>
<path style="fill:#D9D9D9;" d="M256,231.906c0,44.364,35.967,80.334,80.334,80.334c44.366,0,80.332-35.97,80.332-80.334H256z"/>
<path style="fill:#3B211A;" d="M416.666,216.906H256H95.334c-8.284,0-15,6.716-15,15c0,52.567,42.766,95.334,95.332,95.334
	c33.703,0,63.376-17.58,80.334-44.052c16.958,26.472,46.631,44.052,80.334,44.052c52.566,0,95.332-42.767,95.332-95.334
	C431.666,223.622,424.95,216.906,416.666,216.906z M175.666,297.24c-30.863,0-56.798-21.516-63.595-50.334h127.191
	C232.466,275.725,206.53,297.24,175.666,297.24z M336.334,297.24c-30.864,0-56.8-21.516-63.597-50.334h127.191
	C393.132,275.725,367.197,297.24,336.334,297.24z"/>
<g>
	<path style="fill:#8F1711;" d="M497,24.1H175.666c-52.566,0-95.332,42.767-95.332,95.333v16.066c0,8.284,6.716,15,15,15h321.332
		c52.567,0,95.334-42.767,95.334-95.333V39.1C512,30.815,505.284,24.1,497,24.1z"/>
	<path style="fill:#8F1711;" d="M422.657,315.535c-5.501-2.819-12.171-1.979-16.799,2.124
		c-16.671,14.783-35.266,26.936-55.361,36.195C322.28,335.8,289.791,326.299,256,326.299c-33.792,0-66.281,9.501-94.497,27.556
		c-20.097-9.26-38.69-21.413-55.361-36.195c-4.627-4.104-11.296-4.943-16.799-2.124c-5.502,2.822-8.708,8.732-8.074,14.883
		c4.427,43.001,24.563,82.748,56.7,111.92C170.336,471.719,212.253,487.9,256,487.9c43.746,0,85.664-16.181,118.03-45.561
		c32.138-29.172,52.274-68.919,56.701-111.92C431.365,324.267,428.159,318.357,422.657,315.535z"/>
</g>
<path style="fill:#6B0101;" d="M374.03,442.338c32.138-29.172,52.274-68.919,56.701-111.92c0.634-6.151-2.572-12.061-8.074-14.883
	c-5.501-2.819-12.171-1.979-16.799,2.124c-16.671,14.783-35.266,26.936-55.361,36.195C322.28,335.8,289.791,326.299,256,326.299
	v161.6C299.746,487.898,341.664,471.718,374.03,442.338z"/>
<path style="fill:#ED9A81;" d="M272.066,399.531h-32.133c-8.284,0-15-6.716-15-15s6.716-15,15-15h32.133c8.284,0,15,6.716,15,15
	S280.351,399.531,272.066,399.531z"/>
<path style="fill:#E37C5D;" d="M272.066,399.531c8.284,0,15-6.716,15-15s-6.716-15-15-15H256v30H272.066z"/>
<path style="fill:#6B0101;" d="M497,24.1H256v126.399h160.666c52.567,0,95.334-42.767,95.334-95.333V39.1
	C512,30.815,505.284,24.1,497,24.1z"/>
<path style="fill:#3B211A;" d="M416.666,216.906H256v66.282c16.958,26.472,46.631,44.052,80.334,44.052
	c52.566,0,95.332-42.767,95.332-95.334C431.666,223.622,424.95,216.906,416.666,216.906z M336.334,297.24
	c-30.864,0-56.8-21.516-63.597-50.334h127.191C393.132,275.725,367.197,297.24,336.334,297.24z"/>
<g>
</g>
<g>
</g>
<g>
</g>
<g>
</g>
<g>
</g>
<g>
</g>
<g>
</g>
<g>
</g>
<g>
</g>
<g>
</g>
<g>
</g>
<g>
</g>
<g>
</g>
<g>
</g>
<g>
</g>
</svg>
