<?xml version="1.0" encoding="iso-8859-1"?>
<!-- Generator: Adobe Illustrator 19.0.0, SVG Export Plug-In . SVG Version: 6.00 Build 0)  -->
<svg version="1.1" id="Capa_1" xmlns="http://www.w3.org/2000/svg" xmlns:xlink="http://www.w3.org/1999/xlink" x="0px" y="0px"
	 viewBox="0 0 512 512" style="enable-background:new 0 0 512 512;" xml:space="preserve">
<path style="fill:#FDB8A4;" d="M448.8,241h-32.134c-8.284,0-15,6.716-15,15c0,8.242,6.65,14.927,14.877,14.994l-0.548,66.406h-0.124
	c-8.284,0-15,6.716-15,15s6.716,15,15,15H448.8c34.849,0,63.2-28.352,63.2-63.2S483.648,241,448.8,241z"/>
<path style="fill:#FDCDBF;" d="M96.132,337.4h-0.124l-0.55-66.406c8.227-0.068,14.876-6.752,14.876-14.994c0-8.284-6.716-15-15-15
	H63.2C28.352,241,0,269.352,0,304.2s28.352,63.2,63.2,63.2h32.932c8.284,0,15-6.716,15-15
	C111.132,344.116,104.416,337.4,96.132,337.4z"/>
<path style="fill:#FEDFD5;" d="M426.67,212.69c-21.361-19.12-45.556-34.407-71.912-45.438c-4.78-2-10.255-1.391-14.48,1.609
	C315.569,186.42,286.426,195.7,256,195.7s-59.567-9.28-84.276-26.839c-4.226-3.002-9.7-3.608-14.479-1.609
	c-26.355,11.028-50.552,26.316-71.915,45.438c-3.179,2.846-4.996,6.91-4.996,11.177v112.467C80.334,433.196,159.138,512,256,512
	s175.666-78.804,175.666-175.666V223.867C431.666,219.601,429.85,215.536,426.67,212.69z"/>
<path style="fill:#FDCDBF;" d="M426.67,212.69c-21.361-19.12-45.556-34.407-71.912-45.438c-4.78-2-10.255-1.391-14.48,1.609
	C315.569,186.42,286.426,195.7,256,195.7V512c96.862,0,175.666-78.804,175.666-175.666V223.867
	C431.666,219.601,429.85,215.536,426.67,212.69z"/>
<path style="fill:#FD413C;" d="M256,415.6c-22.483,0-43.453-12.098-54.727-31.572c-4.15-7.169-1.703-16.346,5.467-20.496
	c7.166-4.15,16.346-1.706,20.496,5.467c5.929,10.24,16.95,16.602,28.764,16.602c11.815,0,22.839-6.364,28.769-16.609
	c4.15-7.169,13.328-9.617,20.496-5.469c7.17,4.149,9.618,13.326,5.469,20.496C299.459,403.498,278.486,415.6,256,415.6z"/>
<path style="fill:#3B211A;" d="M191.735,295.107c-3.949,0-7.819-1.601-10.609-4.391c-2.79-2.8-4.391-6.659-4.391-10.609
	s1.601-7.82,4.391-10.61c2.79-2.79,6.66-4.39,10.609-4.39c3.95,0,7.811,1.6,10.601,4.39c2.8,2.79,4.399,6.66,4.399,10.61
	s-1.6,7.819-4.399,10.609C199.546,293.507,195.686,295.107,191.735,295.107z"/>
<path style="fill:#0F0301;" d="M320.266,295.107c-3.95,0-7.82-1.601-10.61-4.391c-2.79-2.8-4.39-6.659-4.39-10.609
	s1.6-7.82,4.39-10.61c2.79-2.79,6.66-4.39,10.61-4.39s7.811,1.6,10.61,4.39c2.79,2.8,4.39,6.66,4.39,10.61s-1.6,7.81-4.39,10.609
	C328.086,293.507,324.216,295.107,320.266,295.107z"/>
<path style="fill:#FCC892;" d="M55.166,427.732c-8.284,0-15-6.716-15-15v-61c0-8.284,6.716-15,15-15s15,6.716,15,15v61
	C70.166,421.017,63.45,427.732,55.166,427.732z"/>
<path style="fill:#FCA953;" d="M456.834,427.732c-8.284,0-15-6.716-15-15v-61c0-8.284,6.716-15,15-15s15,6.716,15,15v61
	C471.834,421.017,465.118,427.732,456.834,427.732z"/>
<path style="fill:#FD413C;" d="M446.05,164.91c7.9-18.1,7.054-39.35-3.133-56.994C432.833,90.452,414.94,78.914,395.125,76.7
	c-2.208-19.622-13.565-37.599-31.206-47.785c-9.604-5.544-20.516-8.474-31.554-8.474c-8.816,0-17.483,1.846-25.447,5.336
	C295.194,9.89,276.369,0,256,0s-39.192,9.888-50.916,25.775c-7.965-3.49-16.631-5.336-25.447-5.336
	c-11.038,0-21.947,2.93-31.549,8.473c-17.644,10.186-29.002,28.163-31.211,47.785c-19.815,2.215-37.709,13.752-47.792,31.214
	c-10.188,17.646-11.034,38.898-3.132,56.997c-15.893,11.724-25.787,30.553-25.787,50.926c0,21.215,10.561,40.899,28.25,52.656
	c2.46,1.636,5.349,2.508,8.303,2.508h18.615c8.284,0,15-6.716,15-15V230.7c15.568-13.144,32.73-24.061,51.168-32.555
	c28.215,18.055,60.705,27.556,94.498,27.556c33.794,0,66.285-9.501,94.5-27.556c18.439,8.494,35.6,19.412,51.166,32.555v25.297
	c0,8.284,6.716,15,15,15h18.62c2.955,0,5.844-0.873,8.305-2.509c17.685-11.757,28.243-31.441,28.243-52.654
	C471.834,195.46,461.942,176.633,446.05,164.91z"/>
<g>
	<path style="fill:#DA0806;" d="M446.05,164.91c7.9-18.1,7.054-39.35-3.133-56.994C432.833,90.452,414.94,78.914,395.125,76.7
		c-2.208-19.622-13.565-37.599-31.206-47.785c-9.604-5.544-20.516-8.474-31.554-8.474c-8.816,0-17.483,1.846-25.447,5.336
		C295.194,9.89,276.369,0,256,0v225.701c33.794,0,66.285-9.501,94.5-27.556c18.439,8.494,35.6,19.412,51.166,32.555v25.297
		c0,8.284,6.716,15,15,15h18.62c2.955,0,5.844-0.873,8.305-2.509c17.685-11.757,28.243-31.441,28.243-52.654
		C471.834,195.46,461.942,176.633,446.05,164.91z"/>
	<path style="fill:#DA0806;" d="M305.265,363.522c-7.171-4.15-16.347-1.701-20.497,5.469c-5.928,10.243-16.95,16.607-28.765,16.607
		v30c22.485-0.001,43.456-12.102,54.729-31.58C314.883,376.848,312.435,367.672,305.265,363.522z"/>
</g>
<g>
</g>
<g>
</g>
<g>
</g>
<g>
</g>
<g>
</g>
<g>
</g>
<g>
</g>
<g>
</g>
<g>
</g>
<g>
</g>
<g>
</g>
<g>
</g>
<g>
</g>
<g>
</g>
<g>
</g>
</svg>
