<?xml version="1.0" encoding="iso-8859-1"?>
<!-- Generator: Adobe Illustrator 19.0.0, SVG Export Plug-In . SVG Version: 6.00 Build 0)  -->
<svg version="1.1" id="Capa_1" xmlns="http://www.w3.org/2000/svg" xmlns:xlink="http://www.w3.org/1999/xlink" x="0px" y="0px"
	 viewBox="0 0 512 512" style="enable-background:new 0 0 512 512;" xml:space="preserve">
<path style="fill:#FDB8A4;" d="M448.801,192.798h-32.93c-8.284,0-15,6.716-15,15s6.716,15,15,15h0.124l0.548,66.406
	c-8.227,0.067-14.876,6.752-14.876,14.994c0,8.284,6.716,15,15,15h32.134c34.849,0,63.199-28.352,63.199-63.201
	C512,221.148,483.649,192.798,448.801,192.798z"/>
<path style="fill:#FDCDBF;" d="M95.458,289.204l0.549-66.406h0.124c8.284,0,15-6.716,15-15s-6.716-15-15-15H63.2
	c-34.849,0-63.2,28.351-63.2,63.199c0,34.85,28.352,63.201,63.2,63.201h32.134c8.284,0,15-6.716,15-15
	C110.334,295.957,103.685,289.273,95.458,289.204z"/>
<path style="fill:#FEDFD5;" d="M416.667,160.664H95.334c-8.284,0-15,6.716-15,15v160.668c0,6.051,0.314,12.169,0.934,18.184
	c0.385,3.737,2.158,7.194,4.969,9.686c21.153,18.759,45.045,33.779,71.01,44.645c1.862,0.779,3.83,1.162,5.789,1.162
	c3.067,0,6.111-0.94,8.689-2.772c24.709-17.558,53.851-26.838,84.275-26.838c30.426,0,59.567,9.28,84.275,26.838
	c4.224,3.001,9.698,3.609,14.479,1.61c25.961-10.863,49.853-25.884,71.011-44.644c2.811-2.493,4.584-5.95,4.969-9.688
	c0.619-6.015,0.934-12.133,0.934-18.184V175.664C431.667,167.38,424.951,160.664,416.667,160.664z"/>
<path style="fill:#FDCDBF;" d="M416.667,160.664H256v219.734c30.426,0,59.567,9.28,84.275,26.838
	c4.224,3.001,9.698,3.609,14.479,1.61c25.961-10.863,49.853-25.884,71.011-44.644c2.811-2.493,4.584-5.95,4.969-9.688
	c0.619-6.015,0.934-12.133,0.934-18.184V175.664C431.667,167.38,424.951,160.664,416.667,160.664z"/>
<path style="fill:#3B211A;" d="M191.735,281c-3.951,0-7.82-1.601-10.61-4.39c-2.79-2.801-4.39-6.66-4.39-10.61s1.6-7.811,4.39-10.61
	c2.79-2.79,6.659-4.39,10.61-4.39c3.939,0,7.81,1.6,10.6,4.39c2.79,2.79,4.4,6.66,4.4,10.61s-1.61,7.82-4.4,10.61
	C199.545,279.398,195.675,281,191.735,281z"/>
<path style="fill:#0F0301;" d="M320.265,281c-3.939,0-7.81-1.601-10.609-4.39c-2.791-2.79-4.391-6.66-4.391-10.61
	s1.6-7.82,4.391-10.61c2.799-2.79,6.66-4.39,10.609-4.39c3.95,0,7.82,1.6,10.611,4.39c2.79,2.79,4.389,6.66,4.389,10.61
	s-1.599,7.82-4.389,10.61C328.075,279.398,324.215,281,320.265,281z"/>
<path style="fill:#FCC892;" d="M422.659,339.634c-5.501-2.82-12.172-1.978-16.798,2.123c-16.677,14.787-35.271,26.94-55.364,36.197
	C322.282,359.9,289.793,350.398,256,350.398c-33.792,0-66.281,9.501-94.497,27.555c-20.096-9.259-38.69-21.412-55.362-36.196
	c-4.626-4.102-11.297-4.944-16.799-2.124c-5.502,2.822-8.708,8.731-8.074,14.883c4.427,43.002,24.563,82.75,56.701,111.922
	C170.336,495.819,212.254,512,256,512s85.664-16.181,118.031-45.561c32.138-29.172,52.275-68.92,56.702-111.922
	C431.367,348.365,428.161,342.456,422.659,339.634z"/>
<path style="fill:#FCA953;" d="M422.659,339.634c-5.501-2.82-12.172-1.978-16.798,2.123c-16.677,14.787-35.271,26.94-55.364,36.197
	C322.282,359.9,289.793,350.398,256,350.398v161.6c43.746,0,85.664-16.181,118.031-45.561
	c32.138-29.172,52.275-68.92,56.702-111.922C431.367,348.365,428.161,342.456,422.659,339.634z"/>
<path style="fill:#FEDFD5;" d="M272.066,423.632h-32.133c-8.284,0-15-6.716-15-15s6.716-15,15-15h32.133c8.284,0,15,6.716,15,15
	S280.351,423.632,272.066,423.632z"/>
<path style="fill:#FD413C;" d="M497,160.664h-65.98C423.383,70.799,347.81,0.001,256,0.001
	c-96.862,0-175.666,78.803-175.666,175.664c0,8.284,6.716,15,15,15h80.333h241H497c8.284,0,15-6.716,15-15
	C512,167.38,505.284,160.664,497,160.664z"/>
<path style="fill:#FDCDBF;" d="M272.066,423.632c8.284,0,15-6.716,15-15s-6.716-15-15-15H256v30H272.066z"/>
<path style="fill:#DA0806;" d="M497,160.664h-65.98C423.383,70.799,347.81,0.001,256,0.001v190.664h160.667H497
	c8.284,0,15-6.716,15-15C512,167.38,505.284,160.664,497,160.664z"/>
<g>
</g>
<g>
</g>
<g>
</g>
<g>
</g>
<g>
</g>
<g>
</g>
<g>
</g>
<g>
</g>
<g>
</g>
<g>
</g>
<g>
</g>
<g>
</g>
<g>
</g>
<g>
</g>
<g>
</g>
</svg>
