<?xml version="1.0" encoding="iso-8859-1"?>
<!-- Generator: Adobe Illustrator 19.0.0, SVG Export Plug-In . SVG Version: 6.00 Build 0)  -->
<svg version="1.1" id="Capa_1" xmlns="http://www.w3.org/2000/svg" xmlns:xlink="http://www.w3.org/1999/xlink" x="0px" y="0px"
	 viewBox="0 0 512 512" style="enable-background:new 0 0 512 512;" xml:space="preserve">
<path style="fill:#DE8447;" d="M448.801,208.867h-32.134c-8.284,0-15,6.716-15,15s6.716,15,15,15v66.4c-8.284,0-15,6.716-15,15
	s6.716,15,15,15h32.134c34.848,0,63.199-28.352,63.199-63.201C512,237.218,483.648,208.867,448.801,208.867z"/>
<path style="fill:#FCA971;" d="M95.334,305.268v-66.4c8.284,0,15-6.716,15-15s-6.716-15-15-15H63.2
	c-34.849,0-63.2,28.351-63.2,63.199c0,34.85,28.352,63.201,63.2,63.201h32.134c8.284,0,15-6.716,15-15
	C110.334,311.983,103.618,305.268,95.334,305.268z"/>
<path style="fill:#FCBA95;" d="M416.667,117.785c-8.284,0-15,6.716-15,15v0.502l-291.358,9.745
	c-0.267-8.05-6.859-14.499-14.975-14.499c-8.284,0-15,6.716-15,15v241c0,52.567,42.766,95.334,95.333,95.334h160.667
	c52.566,0,95.333-42.767,95.333-95.334V132.785C431.667,124.501,424.951,117.785,416.667,117.785z"/>
<g>
	<path style="fill:#FCA971;" d="M416.667,117.785c-8.284,0-15,6.716-15,15v0.502l-145.665,4.872v341.708h80.332
		c52.566,0,95.333-42.767,95.333-95.334V132.785C431.667,124.501,424.951,117.785,416.667,117.785z"/>
	<path style="fill:#FCA971;" d="M256,383.467c-22.488,0-43.459-12.099-54.729-31.575c-4.148-7.171-1.699-16.347,5.471-20.496
		c7.172-4.148,16.347-1.701,20.496,5.471c5.925,10.239,16.945,16.601,28.762,16.601c11.815,0,22.838-6.363,28.768-16.607
		c4.15-7.171,13.326-9.618,20.496-5.469c7.17,4.15,9.619,13.326,5.469,20.496C299.458,371.366,278.486,383.467,256,383.467z"/>
</g>
<path style="fill:#3B211A;" d="M191.736,262.978c-3.951,0-7.82-1.601-10.61-4.4c-2.79-2.79-4.39-6.649-4.39-10.6
	c0-3.95,1.6-7.82,4.39-10.61s6.659-4.39,10.61-4.39c3.949,0,7.81,1.6,10.6,4.39c2.8,2.79,4.4,6.66,4.4,10.61s-1.601,7.81-4.4,10.6
	C199.546,261.377,195.686,262.978,191.736,262.978z"/>
<path style="fill:#0F0301;" d="M320.266,262.978c-3.949,0-7.81-1.601-10.6-4.4c-2.801-2.79-4.4-6.649-4.4-10.6
	c0-3.95,1.6-7.82,4.4-10.61c2.789-2.79,6.65-4.39,10.6-4.39s7.82,1.6,10.61,4.39c2.79,2.79,4.39,6.66,4.39,10.61
	s-1.6,7.81-4.39,10.6C328.076,261.377,324.216,262.978,320.266,262.978z"/>
<path style="fill:#3B211A;" d="M456.834,32.133H175.667c-52.567,0-95.333,42.767-95.333,95.334v16.066c0,8.284,6.716,15,15,15H376.5
	c52.567,0,95.334-42.767,95.334-95.333V47.133C471.834,38.849,465.118,32.133,456.834,32.133z"/>
<path style="fill:#DE8447;" d="M305.264,331.391c-7.17-4.15-16.346-1.701-20.496,5.469c-5.929,10.243-16.951,16.606-28.766,16.607
	v30c22.485-0.001,43.457-12.102,54.73-31.58C314.883,344.717,312.434,335.541,305.264,331.391z"/>
<path style="fill:#0F0301;" d="M456.834,32.133H256.002v126.4H376.5c52.567,0,95.334-42.767,95.334-95.333V47.133
	C471.834,38.849,465.118,32.133,456.834,32.133z"/>
<g>
</g>
<g>
</g>
<g>
</g>
<g>
</g>
<g>
</g>
<g>
</g>
<g>
</g>
<g>
</g>
<g>
</g>
<g>
</g>
<g>
</g>
<g>
</g>
<g>
</g>
<g>
</g>
<g>
</g>
</svg>
