<?xml version="1.0" encoding="iso-8859-1"?>
<!-- Generator: Adobe Illustrator 19.0.0, SVG Export Plug-In . SVG Version: 6.00 Build 0)  -->
<svg version="1.1" id="Capa_1" xmlns="http://www.w3.org/2000/svg" xmlns:xlink="http://www.w3.org/1999/xlink" x="0px" y="0px"
	 viewBox="0 0 512 512" style="enable-background:new 0 0 512 512;" xml:space="preserve">
<path style="fill:#FFC502;" d="M394.228,357.73h-91.035c-14.171,7.205-30.207,11.27-47.193,11.27s-33.021-4.065-47.192-11.27
	h-91.036c-8.499,0-15.453,6.953-15.453,15.453v128c0,5.666,4.636,10.301,10.302,10.301H399.38c5.666,0,10.302-4.635,10.302-10.301
	v-128C409.681,364.684,402.728,357.73,394.228,357.73z"/>
<g style="opacity:0.15;">
	<path style="fill:#440075;" d="M132.009,501.184v-128c0-8.5,6.954-15.453,15.453-15.453h-29.691
		c-8.499,0-15.453,6.953-15.453,15.453v128c0,5.666,4.636,10.301,10.302,10.301h29.691
		C136.645,511.484,132.009,506.85,132.009,501.184z"/>
</g>
<g>
	<rect x="151.969" y="357.73" style="fill:#046699;" width="39.15" height="69.27"/>
	<rect x="320.88" y="357.73" style="fill:#046699;" width="39.15" height="69.27"/>
</g>
<rect x="151.969" y="425.21" style="fill:#203A74;" width="208.06" height="86.79"/>
<rect x="151.969" y="357.73" style="opacity:0.15;fill:#440075;enable-background:new    ;" width="22.646" height="154.27"/>
<path style="fill:#046699;" d="M314.839,451.961H197.161c-6.976,0-12.651,5.675-12.651,12.65V512h15v-45.039H312.49V512h15v-47.389
	C327.49,457.636,321.814,451.961,314.839,451.961z"/>
<g>
	<path style="fill:#6BC1DD;" d="M171.529,452.54c-1.98,0-3.91-0.8-5.31-2.2c-1.39-1.4-2.2-3.33-2.2-5.3c0-1.98,0.81-3.91,2.2-5.3
		c1.4-1.4,3.33-2.2,5.31-2.2c1.97,0,3.9,0.8,5.3,2.2c1.39,1.39,2.19,3.319,2.19,5.3c0,1.97-0.8,3.91-2.19,5.3
		C175.429,451.74,173.499,452.54,171.529,452.54z"/>
	<path style="fill:#6BC1DD;" d="M339.45,452.54c-1.98,0-3.91-0.8-5.31-2.2c-1.4-1.4-2.2-3.33-2.2-5.3c0-1.98,0.8-3.91,2.2-5.3
		c1.4-1.4,3.33-2.2,5.31-2.2c1.97,0,3.9,0.8,5.3,2.2c1.39,1.39,2.19,3.319,2.19,5.3c0,1.97-0.8,3.91-2.19,5.3
		C343.35,451.74,341.42,452.54,339.45,452.54z"/>
</g>
<path style="fill:#FFC7A9;" d="M255.999,369c-12.668,0-24.807-2.261-36.039-6.398v18.076c0,11.332,9.271,20.604,20.604,20.604
	h30.873c11.332,0,20.604-9.272,20.604-20.604v-18.076C280.809,366.738,268.669,369,255.999,369z"/>
<path style="opacity:0.15;fill:#440075;enable-background:new    ;" d="M246.729,380.678v-12.093
	c-9.329-0.822-18.307-2.867-26.768-5.983v18.076c0,11.332,9.271,20.604,20.604,20.604h26.768
	C255.999,401.281,246.729,392.01,246.729,380.678z"/>
<g>
	<path style="fill:#FFB98A;" d="M152.727,185.69h-13.224c-13.453,0-24.359,10.906-24.359,24.358v26.478
		c0,13.452,10.906,24.359,24.359,24.359h13.224V185.69z"/>
	<path style="fill:#FFB98A;" d="M372.497,185.69h-13.225v75.195h13.225c13.454,0,24.358-10.907,24.358-24.359v-26.478
		C396.855,196.597,385.952,185.69,372.497,185.69z"/>
</g>
<g>
	<path style="fill:#D19546;" d="M152.727,215.227h-14.177c-4.142,0-7.5,3.357-7.5,7.5s3.358,7.5,7.5,7.5h14.177V215.227z"/>
	<path style="fill:#D19546;" d="M373.451,215.227h-14.177v15h14.177c4.142,0,7.5-3.357,7.5-7.5S377.592,215.227,373.451,215.227z"/>
</g>
<path style="fill:#FFC7A9;" d="M151.727,167v62.944c0,57.59,46.686,104.275,104.273,104.275
	c57.589,0,104.273-46.685,104.273-104.275V167H151.727z"/>
<g style="opacity:0.15;">
	<path style="fill:#440075;" d="M190.822,311.334v-26.152c-10.025-16.017-15.823-34.949-15.823-55.238V167h-23.273v62.944
		C151.727,262.869,166.99,292.224,190.822,311.334z"/>
</g>
<path style="fill:#FFC502;" d="M333.595,113.19c-4.105,0-7.445-3.341-7.445-7.446V39.866c-8.875-6.11-18.64-11.021-29.076-14.463
	v62.739c0,2.289-1.862,4.151-4.151,4.151h-73.847c-2.289,0-4.151-1.862-4.151-4.151V25.403
	c-10.436,3.442-20.201,8.353-29.076,14.463v65.878c0,4.105-3.34,7.446-7.445,7.446h-40.409c-1.311,6.948-2.018,14.11-2.018,21.439
	V148h240.044v-13.37c0-7.329-0.707-14.491-2.018-21.439h-40.408V113.19z"/>
<path style="fill:#B2762F;" d="M321.177,311.335v-29.408c0-15.787-12.844-28.63-28.631-28.63h-11.246v2.265
	c0,6.647-7.066,11.47-16.802,11.47H252.91c-8.216,0-15.061-5.932-16.508-13.734h-16.948c-15.787,0-28.631,12.843-28.631,28.63
	v29.407c-23.832-19.109-39.096-48.465-39.096-81.39v35.874c0,57.589,46.686,104.274,104.273,104.274
	c57.589,0,104.273-46.686,104.273-104.274v-35.874C360.273,262.87,345.01,292.226,321.177,311.335z M290.93,328.217
	c-10.92,3.883-22.677,6.003-34.93,6.003c-12.252,0-24.008-2.12-34.93-6.003v-38.03c0-5.053,4.11-9.162,9.162-9.162h51.535
	c5.052,0,9.162,4.109,9.162,9.162v38.03H290.93z"/>
<path style="fill:#D2957D;" d="M264.499,268.031H252.91c-9.816,0-17.802-7.986-17.802-17.802v-33.634c0-4.143,3.358-7.5,7.5-7.5
	s7.5,3.357,7.5,7.5v33.634c0,1.518,1.283,2.802,2.802,2.802h11.589c1.166,0,2.106-0.142,2.802-0.309v-2.131
	c0-4.143,3.358-7.5,7.5-7.5s7.5,3.357,7.5,7.5v4.97C282.301,262.787,274.814,268.031,264.499,268.031z"/>
<g>
	<path style="fill:#368C0E;" d="M203.952,243.73c-11.792,0-21.384-9.617-21.384-21.438c0-11.82,9.593-21.438,21.384-21.438
		s21.383,9.617,21.383,21.438C225.335,234.112,215.743,243.73,203.952,243.73z"/>
	<path style="fill:#368C0E;" d="M303.928,243.73c-11.792,0-21.384-9.617-21.384-21.438c0-11.82,9.593-21.438,21.384-21.438
		c11.791,0,21.383,9.617,21.383,21.438C325.311,234.112,315.719,243.73,303.928,243.73z"/>
</g>
<path style="fill:#FCDB67;" d="M394.56,157.875c0,5.666-4.636,10.302-10.302,10.302H127.742c-5.666,0-10.302-4.636-10.302-10.302
	v-1.03c0-5.666,4.636-10.302,10.302-10.302h256.515c5.666,0,10.302,4.636,10.302,10.302V157.875z"/>
<g style="opacity:0.15;">
	<path style="fill:#440075;" d="M147.83,157.875v-1.03c0-5.666,4.636-10.302,10.302-10.302h-30.39
		c-5.666,0-10.302,4.636-10.302,10.302v1.03c0,5.666,4.636,10.302,10.302,10.302h30.39
		C152.466,168.177,147.83,163.541,147.83,157.875z"/>
</g>
<path style="fill:#FCDB67;" d="M298.074,88.143c0,2.833-2.318,5.151-5.151,5.151h-73.847c-2.833,0-5.151-2.318-5.151-5.151V5.151
	c0-2.833,2.318-5.151,5.151-5.151h73.847c2.833,0,5.151,2.318,5.151,5.151V88.143z"/>
<g style="opacity:0.15;">
	<path style="fill:#440075;" d="M239.842,88.143V5.151c0-2.833,2.318-5.151,5.151-5.151h-25.917c-2.833,0-5.151,2.318-5.151,5.151
		v82.991c0,2.833,2.318,5.151,5.151,5.151h25.917C242.16,93.294,239.842,90.976,239.842,88.143z"/>
</g>
<path style="fill:#FCDB67;" d="M135.15,114.19c-0.938,0-1.828-0.416-2.429-1.136c-0.602-0.719-0.854-1.668-0.689-2.591
	c5.554-30.96,23.729-58.927,49.868-76.729c0.535-0.365,1.157-0.55,1.782-0.55c0.507,0,1.016,0.122,1.481,0.367
	c1.037,0.55,1.686,1.626,1.686,2.8v69.393c0,4.657-3.789,8.446-8.445,8.446H135.15z"/>
<g style="opacity:0.15;">
	<path style="fill:#440075;" d="M186.85,55.214V36.352c0-1.174-0.649-2.25-1.686-2.8c-0.465-0.245-0.974-0.367-1.481-0.367
		c-0.625,0-1.248,0.184-1.782,0.55c-26.139,17.803-44.314,45.769-49.868,76.729c-0.165,0.923,0.087,1.872,0.689,2.591
		c0.601,0.72,1.491,1.136,2.429,1.136h15.188C156.311,91.442,169.139,70.774,186.85,55.214z"/>
</g>
<path style="fill:#FCDB67;" d="M376.849,114.19c0.938,0,1.828-0.416,2.429-1.136c0.602-0.719,0.854-1.668,0.689-2.591
	c-5.554-30.96-23.729-58.927-49.868-76.729c-0.535-0.365-1.157-0.55-1.782-0.55c-0.507,0-1.016,0.122-1.481,0.367
	c-1.037,0.55-1.686,1.626-1.686,2.8v69.393c0,4.657,3.789,8.446,8.445,8.446H376.849z"/>
<g style="opacity:0.15;">
	<path style="fill:#440075;" d="M345.736,105.744V46.493c-4.818-4.671-10.044-8.949-15.637-12.759
		c-0.535-0.365-1.157-0.55-1.782-0.55c-0.507,0-1.016,0.122-1.481,0.367c-1.037,0.55-1.686,1.626-1.686,2.8v69.393
		c0,4.657,3.789,8.446,8.445,8.446h20.586C349.525,114.19,345.736,110.401,345.736,105.744z"/>
</g>
<path style="fill:#FFC502;" d="M276.551,44.556c0,2.833-2.318,5.15-5.151,5.15h-30.8c-2.833,0-5.151-2.317-5.151-5.15v-12.19
	c0-2.833,2.318-5.151,5.151-5.151h30.8c2.833,0,5.151,2.318,5.151,5.151V44.556z"/>
<path style="fill:#FCDB67;" d="M274.543,122.108h-37.087c-4.142,0-7.5-3.357-7.5-7.5s3.358-7.5,7.5-7.5h37.087
	c4.142,0,7.5,3.357,7.5,7.5S278.685,122.108,274.543,122.108z"/>
<g>
	<path style="fill:#F7931E;" d="M228.184,194.221h-49.449c-4.142,0-7.5-3.357-7.5-7.5s3.358-7.5,7.5-7.5h49.449
		c4.142,0,7.5,3.357,7.5,7.5C235.684,190.863,232.326,194.221,228.184,194.221z"/>
	<path style="fill:#F7931E;" d="M329.143,194.221h-49.449c-4.142,0-7.5-3.357-7.5-7.5s3.358-7.5,7.5-7.5h49.449
		c4.142,0,7.5,3.357,7.5,7.5C336.643,190.863,333.285,194.221,329.143,194.221z"/>
</g>
<path style="fill:#D2957D;" d="M255.999,315.071c-7.617,0-15.234-2.899-21.033-8.697c-2.929-2.929-2.93-7.677-0.001-10.606
	c2.929-2.929,7.678-2.929,10.606-0.001c5.75,5.748,15.105,5.749,20.854,0c2.929-2.928,7.678-2.928,10.606,0
	c2.929,2.93,2.929,7.678,0,10.607C271.234,312.172,263.617,315.071,255.999,315.071z"/>
<g>
</g>
<g>
</g>
<g>
</g>
<g>
</g>
<g>
</g>
<g>
</g>
<g>
</g>
<g>
</g>
<g>
</g>
<g>
</g>
<g>
</g>
<g>
</g>
<g>
</g>
<g>
</g>
<g>
</g>
</svg>
