<?xml version="1.0" encoding="iso-8859-1"?>
<!-- Generator: Adobe Illustrator 19.0.0, SVG Export Plug-In . SVG Version: 6.00 Build 0)  -->
<svg version="1.1" id="Capa_1" xmlns="http://www.w3.org/2000/svg" xmlns:xlink="http://www.w3.org/1999/xlink" x="0px" y="0px"
	 viewBox="0 0 512 512" style="enable-background:new 0 0 512 512;" xml:space="preserve">
<rect x="143.186" y="112.814" style="fill:#75462E;" width="225.627" height="34.712"/>
<circle style="fill:#6B402A;" cx="342.78" cy="43.39" r="43.39"/>
<path style="fill:#FEC9A3;" d="M429.559,512V399.186c0-47.928-38.851-86.78-86.78-86.78h-43.39v-69.424h-86.78v69.424h-43.39
	c-47.928,0-86.78,38.851-86.78,86.78V512H429.559z"/>
<path id="SVGCleanerId_0" style="fill:#87CED9;" d="M342.78,312.407h-7.116L256,416.542l-78.102-104.136h-8.678
	c-47.928,0-86.78,38.851-86.78,86.78V512h347.119V399.186C429.559,351.258,390.708,312.407,342.78,312.407z"/>
<g>
	<path id="SVGCleanerId_0_1_" style="fill:#87CED9;" d="M342.78,312.407h-7.116L256,416.542l-78.102-104.136h-8.678
		c-47.928,0-86.78,38.851-86.78,86.78V512h347.119V399.186C429.559,351.258,390.708,312.407,342.78,312.407z"/>
</g>
<path style="fill:#6EC1D4;" d="M82.441,512h347.119V399.186c-0.017-7.385-0.981-14.727-2.864-21.868
	C317.7,465.833,162.452,487.788,82.441,493.082V512z"/>
<g>
	<path style="fill:#4398D1;" d="M169.22,400.401v-87.995h-17.356v87.995c-18.562,4.79-29.722,23.726-24.932,42.288
		c4.79,18.562,23.726,29.722,42.288,24.932c18.562-4.79,29.722-23.726,24.932-42.288C190.993,413.106,181.448,403.56,169.22,400.401
		z M160.542,451.254c-9.589,0-17.356-7.767-17.356-17.356c0-9.589,7.767-17.356,17.356-17.356s17.356,7.767,17.356,17.356
		C177.898,443.487,170.132,451.254,160.542,451.254z"/>
	<path style="fill:#4398D1;" d="M360.136,391.289v-78.883H342.78v78.883c-25.036,4.235-43.364,25.895-43.39,51.287v17.356
		c0,4.79,3.888,8.678,8.678,8.678h26.034v-17.356h-17.356v-8.678c0-19.17,15.542-34.712,34.712-34.712
		c19.17,0,34.712,15.542,34.712,34.712v8.678h-17.356v17.356h26.034c4.79,0,8.678-3.888,8.678-8.678v-17.356
		C403.499,417.185,385.172,395.524,360.136,391.289z"/>
</g>
<g>
	<path style="fill:#F7BB8F;" d="M212.61,242.983v32.89c27.231,13.998,59.548,13.998,86.78,0v-32.89H212.61z"/>
	<path style="fill:#F7BB8F;" d="M169.22,173.559h-17.356c-14.379,0-26.034-11.655-26.034-26.034l0,0
		c0-14.379,11.655-26.034,26.034-26.034h17.356V173.559z"/>
</g>
<path style="fill:#FEC9A3;" d="M351.458,104.136v69.424c0,52.719-42.739,95.458-95.458,95.458l0,0
	c-52.719,0-95.458-42.739-95.458-95.458v-69.424c0-43.138,34.964-78.102,78.102-78.102h34.712
	C316.494,26.034,351.458,60.997,351.458,104.136z"/>
<g>
	<circle style="fill:#75462E;" cx="203.932" cy="138.847" r="17.356"/>
	<circle style="fill:#75462E;" cx="308.068" cy="138.847" r="17.356"/>
</g>
<g>
	<path style="fill:#F0B184;" d="M248.797,225.627h-10.153v-17.356h10.153c13.425,0.026,26.294-5.32,35.753-14.839l12.323,12.323
		C284.143,218.537,266.83,225.688,248.797,225.627z"/>
	<path style="fill:#F0B184;" d="M264.678,190.915h-26.034c-2.794-0.009-5.406-1.371-7.029-3.645c-1.64-2.256-2.091-5.163-1.215-7.81
		l17.356-52.068l16.488,5.554l-13.538,40.613h13.972V190.915z"/>
</g>
<path style="fill:#75462E;" d="M256,0c-62.308,0-112.814,50.506-112.814,112.814v8.678c0-0.434,8.678,0,17.356,0
	c0,0,121.492-8.678,138.847-78.102c11.533,26.988,29.392,50.801,52.068,69.424l17.356,8.678v-8.678C368.814,50.506,318.308,0,256,0z
	"/>
<path style="fill:#F7BB8F;" d="M351.458,112.814h8.678c14.379,0,26.034,11.655,26.034,26.034l0,0
	c0,14.379-11.655,26.034-26.034,26.034h-8.678V112.814z"/>
<g>
</g>
<g>
</g>
<g>
</g>
<g>
</g>
<g>
</g>
<g>
</g>
<g>
</g>
<g>
</g>
<g>
</g>
<g>
</g>
<g>
</g>
<g>
</g>
<g>
</g>
<g>
</g>
<g>
</g>
</svg>
