<?xml version="1.0" encoding="iso-8859-1"?>
<!-- Generator: Adobe Illustrator 19.0.0, SVG Export Plug-In . SVG Version: 6.00 Build 0)  -->
<svg version="1.1" id="Capa_1" xmlns="http://www.w3.org/2000/svg" xmlns:xlink="http://www.w3.org/1999/xlink" x="0px" y="0px"
	 viewBox="0 0 512 512" style="enable-background:new 0 0 512 512;" xml:space="preserve">
<path style="fill:#422017;" d="M448.801,184.768h-32.134c-8.284,0-15,6.716-15,15s6.716,15,15,15v66.4c-8.284,0-15,6.716-15,15
	s6.716,15,15,15h32.134c34.848,0,63.199-28.352,63.199-63.201S483.648,184.768,448.801,184.768z"/>
<path style="fill:#5B3227;" d="M95.334,281.168v-66.4c8.284,0,15-6.716,15-15s-6.716-15-15-15H63.2
	c-34.849,0-63.2,28.351-63.2,63.199c0,34.85,28.352,63.201,63.2,63.201h32.134c8.284,0,15-6.716,15-15
	S103.618,281.168,95.334,281.168z"/>
<path style="fill:#794334;" d="M416.667,93.671c-8.284,0-15,6.716-15,15v0.503l-291.358,9.758
	c-0.267-8.05-6.859-14.498-14.975-14.498c-8.284,0-15,6.716-15,15v208.867c0,96.862,78.803,175.666,175.666,175.666
	s175.667-78.804,175.667-175.666v-219.63C431.667,100.387,424.951,93.671,416.667,93.671z"/>
<path style="fill:#5B3227;" d="M416.667,93.671c-8.284,0-15,6.716-15,15v0.503L256,114.053v389.914
	c96.863,0,175.667-78.804,175.667-175.666v-219.63C431.667,100.387,424.951,93.671,416.667,93.671z"/>
<path style="fill:#3B211A;" d="M456.832,8.033H175.665c-52.567,0-95.333,42.767-95.333,95.334v16.066c0,8.284,6.716,15,15,15
	h281.167c52.567,0,95.333-42.767,95.333-95.334V23.033C471.832,14.749,465.116,8.033,456.832,8.033z"/>
<path style="fill:#F2F2F2;" d="M175.667,288.141c44.367,0,80.333-35.967,80.333-80.332H95.334
	C95.334,252.174,131.302,288.141,175.667,288.141z"/>
<path style="fill:#D9D9D9;" d="M256,207.809c0,44.365,35.967,80.332,80.334,80.332c44.366,0,80.333-35.967,80.333-80.332
	L256,207.809L256,207.809z"/>
<path style="fill:#3B211A;" d="M416.667,192.809H256H95.334c-8.284,0-15,6.716-15,15c0,52.566,42.766,95.332,95.333,95.332
	c33.702,0,63.376-17.58,80.333-44.05c16.958,26.47,46.631,44.05,80.334,44.05c52.566,0,95.333-42.766,95.333-95.332
	C431.667,199.524,424.951,192.809,416.667,192.809z M175.667,273.141c-30.864,0-56.799-21.514-63.596-50.332h127.191
	C232.466,251.627,206.531,273.141,175.667,273.141z M336.334,273.141c-30.865,0-56.8-21.514-63.597-50.332H399.93
	C393.133,251.627,367.198,273.141,336.334,273.141z"/>
<path style="fill:#5B3227;" d="M255.999,407.566c-22.489,0-43.46-12.1-54.729-31.576c-4.149-7.17-1.699-16.347,5.472-20.495
	c7.17-4.149,16.347-1.7,20.495,5.472c5.925,10.239,16.944,16.6,28.762,16.6c11.816,0,22.838-6.363,28.765-16.606
	c4.148-7.17,13.324-9.619,20.496-5.471c7.17,4.149,9.619,13.325,5.471,20.496C299.458,395.465,278.486,407.566,255.999,407.566z"/>
<path style="fill:#422017;" d="M305.26,355.489c-7.17-4.15-16.347-1.701-20.496,5.469c-5.93,10.243-16.951,16.607-28.766,16.607v30
	c22.484-0.001,43.456-12.102,54.73-31.58C314.878,368.815,312.43,359.64,305.26,355.489z"/>
<g>
	<path style="fill:#0F0301;" d="M456.832,8.033H256v126.4h120.499c52.567,0,95.333-42.767,95.333-95.334V23.033
		C471.832,14.749,465.116,8.033,456.832,8.033z"/>
	<path style="fill:#0F0301;" d="M336.334,303.141c52.566,0,95.333-42.766,95.333-95.332c0-8.284-6.716-15-15-15H256v66.283
		C272.959,285.56,302.632,303.141,336.334,303.141z M399.93,222.809c-6.797,28.818-32.731,50.332-63.596,50.332
		s-56.8-21.514-63.597-50.332L399.93,222.809L399.93,222.809z"/>
</g>
<g>
</g>
<g>
</g>
<g>
</g>
<g>
</g>
<g>
</g>
<g>
</g>
<g>
</g>
<g>
</g>
<g>
</g>
<g>
</g>
<g>
</g>
<g>
</g>
<g>
</g>
<g>
</g>
<g>
</g>
</svg>
