<?xml version="1.0" encoding="iso-8859-1"?>
<!-- Generator: Adobe Illustrator 19.0.0, SVG Export Plug-In . SVG Version: 6.00 Build 0)  -->
<svg version="1.1" id="Capa_1" xmlns="http://www.w3.org/2000/svg" xmlns:xlink="http://www.w3.org/1999/xlink" x="0px" y="0px"
	 viewBox="0 0 512 512" style="enable-background:new 0 0 512 512;" xml:space="preserve">
<path style="fill:#76C9D2;" d="M490.431,109.55H329.796v43.138h160.635c11.912,0,21.569-9.657,21.569-21.569l0,0
	C512,119.206,502.343,109.55,490.431,109.55z"/>
<path style="opacity:0.2;enable-background:new    ;" d="M490.431,109.55H329.796v43.138h160.635
	c11.912,0,21.569-9.657,21.569-21.569l0,0C512,119.206,502.343,109.55,490.431,109.55z"/>
<path style="fill:#C98A4C;" d="M109.595,503.798h-27.21c-4.376,0-7.923-3.547-7.923-7.923v-20.827
	c0-33.812,18.644-64.491,48.657-80.063L139.3,426.17c-18.323,9.507-29.705,28.236-29.705,48.878V503.798z"/>
<path style="fill:#FFD4B8;" d="M74.462,475.047v20.827c0,4.376,3.547,7.923,7.923,7.923h27.21v-28.751H74.462V475.047z"/>
<path style="fill:#C98A4C;" d="M325.055,503.798h27.211c4.376,0,7.923-3.547,7.923-7.923v-20.827
	c0-33.812-18.644-64.491-48.658-80.063L295.35,426.17c18.323,9.507,29.705,28.236,29.705,48.878V503.798z"/>
<path style="fill:#FFD4B8;" d="M360.189,475.047v20.827c0,4.376-3.547,7.923-7.923,7.923h-27.211v-28.751h35.134V475.047z"/>
<path style="fill:#FBAB5F;" d="M217.326,323.783L217.326,323.783c-59.622,0-107.955,48.333-107.955,107.954v72.06H325.28v-72.06
	C325.28,372.116,276.947,323.783,217.326,323.783z"/>
<circle style="fill:#FFFFFF;" cx="217.32" cy="441.93" r="29.07"/>
<path style="opacity:0.1;enable-background:new    ;" d="M217.326,323.783L217.326,323.783c-40.532,0-75.841,22.342-94.3,55.378
	c27.547,16.577,59.808,26.118,94.3,26.118s66.753-9.541,94.3-26.118C293.166,346.125,257.858,323.783,217.326,323.783z"/>
<g>
	<circle style="fill:#FFD4B8;" cx="34.17" cy="201.37" r="34.17"/>
	<circle style="fill:#FFD4B8;" cx="400.48" cy="201.37" r="34.17"/>
	<circle style="fill:#FFD4B8;" cx="217.32" cy="201.13" r="183.15"/>
</g>
<g>
	<path style="fill:#4A5058;" d="M124.453,208.866c-4.142,0-7.5-3.358-7.5-7.5v-18.247c0-4.142,3.358-7.5,7.5-7.5s7.5,3.358,7.5,7.5
		v18.247C131.953,205.508,128.595,208.866,124.453,208.866z"/>
	<path style="fill:#4A5058;" d="M310.198,208.866c-4.143,0-7.5-3.358-7.5-7.5v-18.247c0-4.142,3.357-7.5,7.5-7.5s7.5,3.358,7.5,7.5
		v18.247C317.698,205.508,314.341,208.866,310.198,208.866z"/>
	<path style="fill:#4A5058;" d="M186.563,226.392c-2.764,0-4.891,2.449-4.504,5.185c2.519,17.797,17.814,31.485,36.306,31.485
		s33.788-13.688,36.306-31.485c0.387-2.736-1.74-5.185-4.504-5.185L186.563,226.392L186.563,226.392z"/>
</g>
<path style="fill:#9B7E73;" d="M217.325,17.973c-101.153,0-183.153,82-183.153,183.153c22.255,0,45.507-18.528,56.082-56.165h94.302
	l5.214,38.325c0.673,4.945,7.004,6.583,9.991,2.586l30.57-40.911h114.094c10.578,37.618,33.804,56.165,56.053,56.165
	C400.478,99.973,318.478,17.973,217.325,17.973z"/>
<path style="opacity:0.1;fill:#513130;enable-background:new    ;" d="M61.315,178.005c0-3.948,0.139-7.864,0.385-11.749h335.448
	c-1.84-9.543-4.41-18.825-7.669-27.778H65.603c7.404-33.641,24.05-63.815,47.149-87.72c-47.493,33.091-78.579,88.095-78.579,150.368
	c0,101.153,82,183.153,183.153,183.153c51.713,0,98.413-21.439,131.717-55.905c-29.652,20.66-65.694,32.785-104.574,32.785
	C143.316,361.158,61.315,279.158,61.315,178.005z"/>
<path style="fill:#76C9D2;" d="M401.535,143.637C377.072,65.166,303.852,8.202,217.325,8.202S57.579,65.166,33.115,143.637
	c-1.4,4.49,1.978,9.05,6.681,9.05h355.058C399.557,152.687,402.935,148.127,401.535,143.637z M174.551,124.269
	c0-23.624,19.151-42.775,42.774-42.775c23.624,0,42.774,19.151,42.774,42.775H174.551z"/>
<path style="opacity:0.1;enable-background:new    ;" d="M217.325,8.202c-2.512,0-5.011,0.053-7.5,0.148v73.812
	c2.436-0.431,4.94-0.669,7.5-0.669s5.064,0.238,7.5,0.669V8.351C222.337,8.255,219.837,8.202,217.325,8.202z"/>
<path style="opacity:0.1;enable-background:new    ;" d="M230.81,8.676c-4.456-0.308-8.951-0.473-13.485-0.473
	c-86.527,0-159.746,56.964-184.21,135.435c-1.4,4.49,1.978,9.05,6.681,9.05h26.97c-4.703,0-8.081-4.56-6.681-9.05
	C83.267,69.278,150.232,14.241,230.81,8.676z"/>
<rect x="174.55" y="124.27" style="opacity:0.2;enable-background:new    ;" width="99.61" height="28.419"/>
<path style="fill:#FFFFFF;" d="M261.198,124.269h25.932c2.064,0,3.737,1.673,3.737,3.737v20.945c0,2.064-1.673,3.737-3.737,3.737
	h-25.932c-2.064,0-3.737-1.673-3.737-3.737v-20.945C257.461,125.941,259.134,124.269,261.198,124.269z"/>
<g>
</g>
<g>
</g>
<g>
</g>
<g>
</g>
<g>
</g>
<g>
</g>
<g>
</g>
<g>
</g>
<g>
</g>
<g>
</g>
<g>
</g>
<g>
</g>
<g>
</g>
<g>
</g>
<g>
</g>
</svg>
