<?xml version="1.0" encoding="iso-8859-1"?>
<!-- Generator: Adobe Illustrator 19.0.0, SVG Export Plug-In . SVG Version: 6.00 Build 0)  -->
<svg version="1.1" id="Capa_1" xmlns="http://www.w3.org/2000/svg" xmlns:xlink="http://www.w3.org/1999/xlink" x="0px" y="0px"
	 viewBox="0 0 512 512" style="enable-background:new 0 0 512 512;" xml:space="preserve">
<path style="fill:#DE8447;" d="M448.8,241h-32.133c-8.284,0-15,6.716-15,15c0,8.242,6.649,14.927,14.876,14.994l-0.548,66.406
	h-0.124c-8.284,0-15,6.716-15,15s6.716,15,15,15H448.8c34.849,0,63.2-28.351,63.2-63.199C512,269.352,483.648,241,448.8,241z"/>
<path style="fill:#FCA971;" d="M96.132,337.4h-0.124l-0.551-66.406c8.227-0.068,14.876-6.752,14.876-14.994c0-8.284-6.716-15-15-15
	H63.2C28.352,241,0,269.352,0,304.201S28.352,367.4,63.2,367.4h32.932c8.284,0,15-6.716,15-15S104.416,337.4,96.132,337.4z"/>
<path style="fill:#FCBA95;" d="M426.671,196.626c-21.361-19.121-45.556-34.408-71.913-45.439
	c-4.781-2.001-10.256-1.392-14.479,1.609c-24.711,17.559-53.854,26.84-84.278,26.84s-59.566-9.281-84.277-26.84
	c-4.225-3.003-9.699-3.613-14.479-1.609c-26.357,11.029-50.554,26.317-71.916,45.439c-3.178,2.846-4.995,6.91-4.995,11.177v128.531
	C80.333,433.196,159.137,512,256,512s175.667-78.804,175.667-175.666V207.803C431.667,203.536,429.851,199.472,426.671,196.626z"/>
<path style="fill:#FCA971;" d="M426.671,196.626c-21.361-19.121-45.556-34.408-71.913-45.439
	c-4.781-2.001-10.256-1.392-14.479,1.609c-24.711,17.559-53.854,26.84-84.278,26.84V512c96.863,0,175.667-78.804,175.667-175.666
	V207.803C431.667,203.536,429.851,199.472,426.671,196.626z"/>
<path style="fill:#0F0301;" d="M416.667,0c-41.677,0-78.183,26.659-90.839,66.339c-2.518,7.893,1.84,16.332,9.732,18.85
	c4.635,1.479,9.449,0.573,13.152-2.017l56.123,80.154c-3.699,2.6-6.203,6.826-6.392,11.69c-0.324,8.278,6.124,15.252,14.401,15.575
	c1.288,0.051,2.574,0.076,3.822,0.076c52.566,0,95.333-42.767,95.333-95.334S469.233,0,416.667,0z"/>
<path style="fill:#FD413C;" d="M256,415.602c-22.484,0-43.455-12.099-54.728-31.574c-4.149-7.17-1.702-16.346,5.468-20.496
	s16.348-1.7,20.497,5.469c5.927,10.24,16.948,16.602,28.763,16.602c11.814,0,22.838-6.365,28.769-16.611
	c4.149-7.17,13.325-9.618,20.496-5.469c7.17,4.149,9.618,13.326,5.469,20.496C299.459,403.499,278.486,415.602,256,415.602z"/>
<path style="fill:#3B211A;" d="M191.736,295.107c-3.951,0-7.82-1.601-10.61-4.391c-2.79-2.79-4.39-6.659-4.39-10.609
	s1.6-7.82,4.39-10.61c2.79-2.79,6.659-4.39,10.61-4.39c3.939,0,7.81,1.6,10.6,4.39c2.8,2.8,4.4,6.66,4.4,10.61
	s-1.601,7.81-4.4,10.609C199.546,293.507,195.676,295.107,191.736,295.107z"/>
<path style="fill:#0F0301;" d="M320.266,295.107c-3.949,0-7.811-1.601-10.609-4.391c-2.791-2.8-4.391-6.659-4.391-10.609
	s1.6-7.81,4.391-10.61c2.799-2.79,6.66-4.39,10.609-4.39c3.95,0,7.811,1.6,10.61,4.39c2.79,2.8,4.39,6.66,4.39,10.61
	s-1.6,7.81-4.39,10.609C328.076,293.507,324.216,295.107,320.266,295.107z"/>
<path style="fill:#3B211A;" d="M256,32.135c-96.863,0-175.667,78.805-175.667,175.668c0,5.916,3.477,11.28,8.879,13.694
	c1.964,0.878,4.048,1.306,6.118,1.306c3.623,0,7.201-1.313,10.008-3.823c16.866-15.098,35.728-27.486,56.163-36.899
	c28.217,18.055,60.708,27.557,94.499,27.557c33.792,0,66.283-9.502,94.5-27.557c20.434,9.413,39.297,21.803,56.162,36.899
	c4.407,3.943,10.724,4.931,16.126,2.517c5.401-2.414,8.879-7.779,8.879-13.695C431.667,110.938,352.863,32.135,256,32.135z"/>
<path style="fill:#F2F2F2;" d="M55.167,427.734c-8.284,0-15-6.716-15-15v-61.001c0-8.284,6.716-15,15-15s15,6.716,15,15v61.001
	C70.167,421.019,63.451,427.734,55.167,427.734z"/>
<path style="fill:#D9D9D9;" d="M456.833,427.734c-8.284,0-15-6.716-15-15v-61.002c0-8.284,6.716-15,15-15s15,6.716,15,15v61.002
	C471.833,421.019,465.117,427.734,456.833,427.734z"/>
<path style="fill:#DA0806;" d="M305.265,363.522c-7.171-4.15-16.347-1.701-20.497,5.469c-5.928,10.243-16.95,16.607-28.765,16.607
	v30c22.485-0.001,43.456-12.102,54.729-31.58C314.883,376.848,312.435,367.672,305.265,363.522z"/>
<path style="fill:#0F0301;" d="M256,32.135v177.502c33.792,0,66.283-9.502,94.5-27.557c20.434,9.413,39.297,21.803,56.162,36.899
	c4.407,3.943,10.724,4.931,16.126,2.517c5.401-2.414,8.879-7.779,8.879-13.695C431.667,110.938,352.863,32.135,256,32.135z"/>
<g>
</g>
<g>
</g>
<g>
</g>
<g>
</g>
<g>
</g>
<g>
</g>
<g>
</g>
<g>
</g>
<g>
</g>
<g>
</g>
<g>
</g>
<g>
</g>
<g>
</g>
<g>
</g>
<g>
</g>
</svg>
