<?xml version="1.0" encoding="iso-8859-1"?>
<!-- Generator: Adobe Illustrator 19.0.0, SVG Export Plug-In . SVG Version: 6.00 Build 0)  -->
<svg version="1.1" id="Capa_1" xmlns="http://www.w3.org/2000/svg" xmlns:xlink="http://www.w3.org/1999/xlink" x="0px" y="0px"
	 viewBox="0 0 512 512" style="enable-background:new 0 0 512 512;" xml:space="preserve">
<path style="fill:#FFC7A9;" d="M307.46,113.315c2.021,3.855,3.171,8.236,3.171,12.882c0,15.353-12.491,27.845-27.845,27.845h-53.569
	c-15.354,0-27.845-12.491-27.845-27.845c0-4.647,1.15-9.027,3.171-12.882c-41.952,19.446-71.054,61.923-71.054,111.205
	c0,67.662,54.851,122.513,122.513,122.513s122.513-54.851,122.513-122.513C378.513,175.238,349.411,132.761,307.46,113.315z"/>
<g style="opacity:0.15;">
	<path style="fill:#440075;" d="M224.196,335.829c-6.356-4.52-11.719-10.351-15.685-17.1
		c-27.004-22.472-44.197-56.331-44.197-94.209c0-35.183,14.832-66.901,38.583-89.245c-0.985-2.847-1.527-5.899-1.527-9.078
		c0-1.485,0.13-2.94,0.356-4.363c-0.027,0.172-0.06,0.343-0.084,0.516c-36.499,19.497-61.395,57.979-61.395,102.169
		C140.247,277.321,175.784,321.977,224.196,335.829z"/>
</g>
<path style="fill:#FB8276;" d="M256,345.986c-30.354,0-55.049-24.695-55.049-55.049c0-3.091,2.506-5.598,5.598-5.598h98.903
	c3.091,0,5.598,2.507,5.598,5.598C311.049,321.29,286.354,345.986,256,345.986z"/>
<path style="fill:#EF5050;" d="M293.223,331.45c-9.807-9.018-22.881-14.536-37.223-14.536c-14.342,0-27.416,5.518-37.223,14.536
	c9.807,9.019,22.881,14.536,37.223,14.536C270.342,345.986,283.416,340.468,293.223,331.45z"/>
<path style="opacity:0.15;fill:#440075;enable-background:new    ;" d="M221,290.936c0-3.091,2.506-5.598,5.598-5.598h-20.049
	c-3.091,0-5.598,2.507-5.598,5.598c0,30.354,24.695,55.049,55.049,55.049c3.424,0,6.772-0.326,10.023-0.932
	C240.441,340.325,221,317.865,221,290.936z"/>
<path style="fill:#775436;" d="M111.912,95.629c13.942-18.812,31.58-34.808,51.867-46.928c0.004-0.267,0.02-0.53,0.02-0.798
	C163.799,21.448,142.352,0,115.896,0C89.439,0,67.992,21.448,67.992,47.903C67.992,73.017,87.321,93.603,111.912,95.629z"/>
<path style="fill:#D2957D;" d="M115.896,70.44c-12.427,0-22.537-10.11-22.537-22.537c0-12.426,10.11-22.537,22.537-22.537
	c12.426,0,22.537,10.11,22.537,22.537C138.432,60.33,128.322,70.44,115.896,70.44z"/>
<path style="fill:#775436;" d="M400.087,95.629c24.591-2.026,43.92-22.612,43.92-47.726C444.008,21.447,422.56,0,396.104,0
	s-47.903,21.447-47.903,47.903c0,0.268,0.016,0.531,0.02,0.798C368.508,60.821,386.146,76.817,400.087,95.629z"/>
<g>
	<path style="fill:#D2957D;" d="M396.104,70.44c-12.426,0-22.537-10.11-22.537-22.537c0-12.426,10.11-22.537,22.537-22.537
		s22.537,10.11,22.537,22.537C418.642,60.33,408.531,70.44,396.104,70.44z"/>
	<path style="fill:#D2957D;" d="M350.628,348.701c22.397-13.715,41.812-32.531,56.145-54.414
		c18.637-28.453,28.488-61.47,28.488-95.481c0-97.3-80.416-176.459-179.261-176.459S76.739,101.506,76.739,198.806
		c0,34.01,9.851,67.027,28.489,95.481c14.334,21.883,33.747,40.699,56.144,54.414c1.967,1.205,2.894,3.57,2.268,5.79
		c-0.626,2.221-2.651,3.754-4.958,3.754h-8.79c-18.178,0-32.966,14.788-32.966,32.966v115.638c0,2.84,2.311,5.151,5.151,5.151
		h267.847c2.84,0,5.151-2.311,5.151-5.151V391.211c0-18.178-14.788-32.966-32.966-32.966h-8.79c-2.306,0-4.332-1.533-4.957-3.754
		C347.734,352.271,348.661,349.906,350.628,348.701z M256,340.273c-63.827,0-115.753-51.926-115.753-115.753
		c0-44.191,24.896-82.672,61.395-102.169c1.88-13.539,13.525-23.999,27.573-23.999h53.569c14.048,0,25.693,10.459,27.573,23.999
		c36.499,19.497,61.395,57.979,61.395,102.169C371.753,288.347,319.827,340.273,256,340.273z"/>
</g>
<path style="fill:#775436;" d="M336.354,512v-35.541c0-44.378-35.976-80.354-80.354-80.354s-80.354,35.976-80.354,80.354V512
	H336.354z"/>
<g style="opacity:0.15;">
	<path style="fill:#440075;" d="M271.453,397.605c-5.002-0.975-10.165-1.5-15.453-1.5c-44.378,0-80.354,35.976-80.354,80.354V512
		h30.905v-35.541C206.551,437.368,234.47,404.812,271.453,397.605z"/>
</g>
<g>
	<path style="fill:#D2957D;" d="M265.146,268.304h-8.999c-9.097,0-16.499-7.986-16.499-17.802v-19.647c0-4.142,3.358-7.5,7.5-7.5
		s7.5,3.358,7.5,7.5v19.647c0,1.743,1.041,2.802,1.499,2.802h8.999c4.142,0,7.5,3.358,7.5,7.5
		C272.646,264.946,269.288,268.304,265.146,268.304z"/>
	<path style="fill:#D2957D;" d="M225.433,200.658c-1.919,0-3.839-0.732-5.303-2.197c-4.547-4.547-10.587-7.051-17.006-7.051
		c-6.419,0-12.459,2.504-17.006,7.051c-2.929,2.929-7.678,2.93-10.607,0c-2.929-2.929-2.929-7.677,0-10.606
		c7.38-7.38,17.186-11.445,27.612-11.445s20.232,4.064,27.613,11.445c2.929,2.929,2.929,7.677,0,10.606
		C229.271,199.926,227.352,200.658,225.433,200.658z"/>
	<path style="fill:#D2957D;" d="M331.186,200.658c-1.919,0-3.839-0.732-5.303-2.197c-4.547-4.547-10.587-7.051-17.006-7.051
		s-12.459,2.504-17.006,7.051c-2.929,2.929-7.678,2.93-10.606,0c-2.929-2.929-2.929-7.677,0-10.606
		c7.38-7.38,17.186-11.445,27.612-11.445s20.232,4.064,27.613,11.445c2.929,2.929,2.929,7.677,0,10.606
		C335.025,199.926,333.105,200.658,331.186,200.658z"/>
</g>
<g>
	<path style="fill:#046699;" d="M203.124,249.137c-11.791,0-21.384-9.617-21.384-21.438c0-11.82,9.593-21.437,21.384-21.437
		s21.383,9.617,21.383,21.437C224.507,239.52,214.915,249.137,203.124,249.137z"/>
	<path style="fill:#046699;" d="M308.878,249.137c-11.792,0-21.384-9.617-21.384-21.438c0-11.82,9.593-21.437,21.384-21.437
		s21.383,9.617,21.383,21.437C330.261,239.52,320.668,249.137,308.878,249.137z"/>
</g>
<path style="fill:#FFFFFF;" d="M311.63,126.197c0,15.931-12.915,28.845-28.845,28.845h-53.569
	c-15.931,0-28.845-12.914-28.845-28.845l0,0c0-15.931,12.915-28.845,28.845-28.845h53.569
	C298.715,97.352,311.63,110.267,311.63,126.197L311.63,126.197z"/>
<g style="opacity:0.15;">
	<path style="fill:#440075;" d="M231.276,126.197c0-15.931,12.914-28.845,28.845-28.845h-30.905
		c-15.931,0-28.845,12.915-28.845,28.845c0,15.931,12.915,28.845,28.845,28.845h30.905
		C244.19,155.042,231.276,142.128,231.276,126.197z"/>
</g>
<g>
	<path style="fill:#775436;" d="M279.179,109.714c0,6.827-5.535,12.362-12.362,12.362h-21.634c-6.828,0-12.362-5.535-12.362-12.362
		l0,0c0-6.828,5.535-12.362,12.362-12.362h21.634C273.645,97.352,279.179,102.887,279.179,109.714L279.179,109.714z"/>
	<path style="fill:#775436;" d="M178.736,111.033c-4.142,0-7.5-3.358-7.5-7.5V93.089c0-4.142,3.358-7.5,7.5-7.5s7.5,3.358,7.5,7.5
		v10.444C186.236,107.675,182.878,111.033,178.736,111.033z"/>
	<path style="fill:#775436;" d="M333.264,111.033c-4.142,0-7.5-3.358-7.5-7.5V93.089c0-4.142,3.358-7.5,7.5-7.5s7.5,3.358,7.5,7.5
		v10.444C340.764,107.675,337.406,111.033,333.264,111.033z"/>
</g>
<g>
</g>
<g>
</g>
<g>
</g>
<g>
</g>
<g>
</g>
<g>
</g>
<g>
</g>
<g>
</g>
<g>
</g>
<g>
</g>
<g>
</g>
<g>
</g>
<g>
</g>
<g>
</g>
<g>
</g>
</svg>
