<?xml version="1.0" encoding="iso-8859-1"?>
<!-- Generator: Adobe Illustrator 19.0.0, SVG Export Plug-In . SVG Version: 6.00 Build 0)  -->
<svg version="1.1" id="Capa_1" xmlns="http://www.w3.org/2000/svg" xmlns:xlink="http://www.w3.org/1999/xlink" x="0px" y="0px"
	 viewBox="0 0 511.999 511.999" style="enable-background:new 0 0 511.999 511.999;" xml:space="preserve">
<g>
	<path style="fill:#9EA7AF;" d="M227.942,380.812h-60.723c-13.76,0-24.985-10.074-25.313-22.568h-12.987
		c-8.499,0-15.453,6.954-15.453,15.453v128c0,5.666,4.636,10.302,10.302,10.302h104.175V380.812H227.942z"/>
	<path style="fill:#9EA7AF;" d="M383.08,358.244h-12.987c-0.329,12.494-11.552,22.568-25.312,22.568h-60.723v131.187h104.173
		c5.666,0,10.302-4.636,10.302-10.302v-128C398.532,365.198,391.579,358.244,383.08,358.244z"/>
</g>
<path style="fill:#203A74;" d="M153.106,119.539c0-3.56-3.245-15.141-8.902-31.774c-0.239-0.703-0.108-1.472,0.351-2.055
	c0.418-0.531,1.044-0.835,1.719-0.835c0.066,0,0.132,0.003,0.199,0.009c8.114,0.728,13.982,1.129,16.521,1.129
	c1.266,0,1.732-0.073,2.077-0.327c0.07-0.052,0.134-0.113,0.188-0.181c0.244-0.305,0.306-0.745,0.131-1.094l-7.206-14.409
	c-0.371-0.743-0.294-1.618,0.203-2.285c0.41-0.551,1.065-0.88,1.752-0.88c0.125,0,0.251,0.011,0.377,0.033l19.942,3.489
	c0.058,0.01,0.115,0.015,0.172,0.015c0.313,0,0.611-0.146,0.802-0.403c0.226-0.303,0.262-0.707,0.093-1.045l-7.034-14.068
	c-0.372-0.743-0.294-1.618,0.202-2.283c0.411-0.552,1.066-0.881,1.753-0.881c0.125,0,0.251,0.01,0.377,0.032l80.931,14.161
	c0.037,0.007,0.075,0.011,0.113,0.014c6.747,0.403,13.265,2.05,19.376,4.896c0.55,0.134,1.087,0.272,1.631,0.409
	c-8.133-9.892-15.078-18.348-19.715-23.999l-26.985-26.985c-26.963-26.963-70.681-26.963-97.645,0
	c-26.964,26.964-26.964,70.682,0,97.646l18.577,18.578L153.106,119.539L153.106,119.539z"/>
<g style="opacity:0.15;">
	<path style="fill:#030005;" d="M153.106,119.539c0-3.56-3.245-15.141-8.902-31.774c-0.028-0.084-0.035-0.17-0.053-0.256
		c-8.544-24.278-3.112-52.379,16.303-71.795c7.109-7.109,15.388-12.323,24.211-15.684c-18.105-0.342-36.32,6.376-50.136,20.191
		c-26.964,26.964-26.964,70.682,0,97.646l18.577,18.578L153.106,119.539L153.106,119.539z"/>
</g>
<path style="fill:#FFC502;" d="M152.106,164.098c4.514-51.231,49.301-72.099,103.893-72.099c15.955,0,31.07,1.786,44.591,5.587
	c-8.018-9.728-15.824-19.215-22.717-27.599c-6.106-2.874-12.834-4.659-19.945-5.085l-80.931-14.161
	c-0.184-0.033-0.367-0.048-0.55-0.048c-0.996,0-1.948,0.468-2.555,1.282c-0.72,0.965-0.833,2.254-0.295,3.329l7.034,14.068
	l-19.942-3.489c-0.184-0.032-0.367-0.048-0.55-0.048c-0.995,0-1.947,0.467-2.555,1.283c-0.719,0.965-0.833,2.252-0.295,3.329
	l7.206,14.409l-0.018,0.022c-0.181,0.133-1.095,0.133-1.484,0.133c-2.508,0-8.344-0.399-16.434-1.125
	c-0.096-0.008-0.191-0.013-0.286-0.013c-0.972,0-1.898,0.445-2.505,1.217c-0.667,0.847-0.858,1.975-0.512,2.995
	c5.541,16.291,8.849,28.048,8.849,31.452v44.561H152.106z"/>
<g>
	<path style="fill:#046699;" d="M170.556,430.144h0.817c2.289,0,4.151,1.862,4.151,4.151v39.623c0,2.289-1.862,4.151-4.151,4.151
		h-0.817v33.93h57.387V380.812h-57.387V430.144z"/>
	<path style="fill:#046699;" d="M339.341,478.069c-2.289,0-4.151-1.862-4.151-4.151v-39.623c0-2.289,1.862-4.151,4.151-4.151h0.658
		v-49.333h-55.942v131.188h55.942v-33.93H339.341z"/>
</g>
<g>
	<path style="fill:#D19546;" d="M171.372,478.069h-25.813c-0.127,0-0.247-0.026-0.371-0.038v33.968h26.557v-33.967
		C171.62,478.043,171.5,478.069,171.372,478.069z"/>
	<path style="fill:#D19546;" d="M145.559,430.144h25.814c0.128,0,0.247,0.026,0.372,0.038v-49.37h-4.525
		c-9.169,0-17.215-4.472-21.662-11.153h-0.37v60.523C145.311,430.171,145.432,430.144,145.559,430.144z"/>
</g>
<path style="fill:#B2762F;" d="M176.523,473.918c0,2.833-2.318,5.151-5.151,5.151h-25.813c-2.833,0-5.151-2.318-5.151-5.151v-39.623
	c0-2.833,2.318-5.151,5.151-5.151h25.814c2.833,0,5.151,2.318,5.151,5.151L176.523,473.918L176.523,473.918z"/>
<g>
	<path style="fill:#D19546;" d="M339.341,430.144h25.814c0.127,0,0.247,0.026,0.371,0.038v-59.256
		c-4.584,5.971-12.172,9.886-20.746,9.886h-5.811v49.37C339.094,430.171,339.214,430.144,339.341,430.144z"/>
	<path style="fill:#D19546;" d="M365.155,478.069h-25.814c-0.127,0-0.247-0.026-0.371-0.038v33.968h26.557v-33.967
		C365.402,478.043,365.282,478.069,365.155,478.069z"/>
</g>
<path style="fill:#B2762F;" d="M370.306,473.918c0,2.833-2.318,5.151-5.151,5.151h-25.814c-2.833,0-5.151-2.318-5.151-5.151v-39.623
	c0-2.833,2.318-5.151,5.151-5.151h25.814c2.833,0,5.151,2.318,5.151,5.151V473.918z"/>
<g>
	<path style="fill:#E6E9ED;" d="M227.942,329.593c-18.268-5.166-34.498-15.237-47.161-28.704
		c-9.825,7.798-16.353,19.572-17.146,32.894c-12.844,1.603-22.746,11.689-22.746,23.9c0,13.326,11.789,24.129,26.329,24.129h60.724
		V329.593z"/>
	<path style="fill:#E6E9ED;" d="M348.364,333.782c-0.793-13.321-7.321-25.096-17.146-32.894
		c-12.663,13.467-28.892,23.539-47.16,28.704v52.219h60.723c14.54,0,26.328-10.803,26.328-24.129
		C371.108,345.471,361.208,335.385,348.364,333.782z"/>
</g>
<g style="opacity:0.15;">
	<path style="fill:#440075;" d="M180.781,300.888c-9.825,7.798-16.353,19.572-17.146,32.894
		c-12.844,1.603-22.746,11.689-22.746,23.9c0,13.326,11.789,24.129,26.329,24.129h1.598c-4.914-3.479-8.083-8.852-8.083-14.886
		c0-9.414,7.838-17.492,18.232-18.789c2.463-0.307,4.356-2.327,4.504-4.805c0.67-11.268,5.959-21.24,13.956-28.122
		C191.381,311.031,185.801,306.227,180.781,300.888z"/>
</g>
<path style="fill:#FFFFFF;" d="M263.454,371.232h-14.908c-11.332,0-20.604-9.271-20.604-20.603v161.37h56.115v-161.37
	C284.057,361.961,274.786,371.232,263.454,371.232z"/>
<path style="opacity:0.15;fill:#440075;enable-background:new    ;" d="M248.546,371.232c-11.332,0-20.604-9.271-20.604-20.603
	v161.37h25.511V371.232H248.546z"/>
<path style="fill:#FFB98A;" d="M255.999,333.475c-9.721,0-19.132-1.352-28.057-3.874v22.629c0,11.332,9.271,20.604,20.604,20.604
	h14.908c11.332,0,20.603-9.271,20.603-20.604V329.6C275.132,332.123,265.721,333.475,255.999,333.475z"/>
<path style="opacity:0.15;fill:#440075;enable-background:new    ;" d="M247.758,352.23v-19.084
	c-6.811-0.54-13.438-1.743-19.815-3.545v22.629c0,11.332,9.271,20.604,20.604,20.604h14.908c0.831,0,1.647-0.064,2.454-0.162
	C255.723,371.448,247.758,362.731,247.758,352.23z"/>
<g>
	<path style="fill:#FFB98A;" d="M152.725,230.201v-45.915h-13.223c-13.453,0-24.359,10.907-24.359,24.359v26.477
		c0,13.452,10.906,24.358,24.359,24.358h17.458C154.209,250.194,152.725,240.368,152.725,230.201z"/>
	<path style="fill:#FFB98A;" d="M372.497,184.286h-13.224v45.915c0,7.908-0.908,15.606-2.602,23.009
		c2.395-2.002,5.473-3.211,8.838-3.211c5.846,0,10.831,3.638,12.846,8.769c10.622-2.624,18.499-12.213,18.499-23.645v-26.477
		C396.855,195.193,385.95,184.286,372.497,184.286z"/>
</g>
<path style="fill:#046699;" d="M366.665,248.563c-3.872,0-7.366,1.598-9.874,4.165c-0.954,4.271-2.171,8.443-3.637,12.497
	c1.315,6.257,6.862,10.957,13.511,10.957c7.626,0,13.809-6.183,13.809-13.81C380.474,254.746,374.291,248.563,366.665,248.563z"/>
<g>
	<path style="fill:#D19546;" d="M152.725,213.822h-14.177c-4.142,0-7.5,3.358-7.5,7.5s3.358,7.5,7.5,7.5h14.177V213.822z"/>
	<path style="fill:#D19546;" d="M373.45,213.822h-14.177v15h14.177c4.142,0,7.5-3.358,7.5-7.5S377.592,213.822,373.45,213.822z"/>
</g>
<path style="fill:#FFC7A9;" d="M299.455,96.209c-13.229-3.586-27.946-5.273-43.456-5.273c-57.588,0-104.274,23.216-104.274,80.805
	v58.46c0,57.59,46.686,104.274,104.274,104.274c57.589,0,104.274-46.685,104.274-104.274v-58.46c0-0.835-0.012-1.662-0.032-2.482
	C351.753,159.533,324.408,126.49,299.455,96.209z"/>
<g style="opacity:0.15;">
	<path style="fill:#440075;" d="M181.374,230.201v-58.46c0-52.556,38.884-76.479,89.449-80.261
		c-4.843-0.362-9.791-0.544-14.825-0.544c-57.588,0-104.274,23.216-104.274,80.805v58.46c0,57.59,46.686,104.274,104.274,104.274
		c5.034,0,9.982-0.364,14.825-1.054C220.258,326.223,181.374,282.757,181.374,230.201z"/>
</g>
<path style="fill:#046699;" d="M386.236,125.336c0-52.211-42.325-94.536-94.536-94.536c-14.319,0-27.887,3.2-40.049,8.898
	c0,0,96.348,117.512,108.622,131.121v19.589C376.363,173.459,386.236,150.551,386.236,125.336z"/>
<g style="opacity:0.15;">
	<path style="fill:#030005;" d="M292.958,51.063c46.744,0,85.558,33.928,93.175,78.499c0.061-1.402,0.103-2.81,0.103-4.227
		c0-52.211-42.325-94.536-94.536-94.536c-14.319,0-27.887,3.2-40.049,8.898c0,0,5.021,6.124,12.904,15.722
		C273.519,52.594,283.059,51.063,292.958,51.063z"/>
</g>
<g>
	<path style="fill:#203A74;" d="M212.697,430.884v-49.072h-15v49.072c-6.599,2.898-11.224,9.488-11.224,17.145
		c0,10.324,8.399,18.723,18.724,18.723c10.324,0,18.723-8.399,18.723-18.723C223.92,440.371,219.295,433.782,212.697,430.884z"/>
	<path style="fill:#203A74;" d="M314.532,430.884v-49.072h-15v49.072c-6.598,2.898-11.223,9.487-11.223,17.144
		c0,10.324,8.399,18.723,18.723,18.723c10.325,0,18.724-8.399,18.724-18.723C325.756,440.371,321.131,433.782,314.532,430.884z"/>
</g>
<path style="fill:#D2957D;" d="M265.144,273.715h-8.999c-9.097,0-16.499-7.986-16.499-17.802v-34.591c0-4.142,3.358-7.5,7.5-7.5
	s7.5,3.358,7.5,7.5v34.591c0,1.743,1.041,2.802,1.499,2.802h8.999c4.142,0,7.5,3.358,7.5,7.5S269.287,273.715,265.144,273.715z"/>
<g>
	<path style="fill:#775436;" d="M226.331,206.46c-0.303-0.495-0.661-0.965-1.089-1.394c-7.38-7.38-17.187-11.445-27.612-11.445
		c-10.426,0-20.232,4.064-27.613,11.445c-2.929,2.929-2.928,7.678,0,10.607c1.465,1.464,3.384,2.196,5.303,2.196
		s3.839-0.732,5.304-2.197c2.985-2.986,6.616-5.084,10.574-6.177c-1.711,3.064-2.695,6.587-2.695,10.338
		c0,11.738,9.55,21.288,21.289,21.288c11.738,0,21.287-9.55,21.287-21.288C231.079,214.769,229.295,210.118,226.331,206.46z"/>
	<path style="fill:#775436;" d="M337.747,205.066c-7.38-7.38-17.187-11.445-27.613-11.445s-20.233,4.064-27.613,11.445
		c-0.43,0.43-0.789,0.902-1.092,1.398c-2.961,3.657-4.745,8.307-4.745,13.369c0,11.738,9.55,21.288,21.288,21.288
		s21.288-9.55,21.288-21.288c0-3.752-0.984-7.275-2.695-10.338c3.958,1.093,7.589,3.191,10.575,6.177
		c1.464,1.464,3.384,2.197,5.303,2.197c1.92,0,3.839-0.732,5.303-2.197C340.676,212.744,340.676,207.995,337.747,205.066z"/>
</g>
<path style="fill:#D2957D;" d="M282.14,301.739h-49.925c-4.142,0-7.5-3.358-7.5-7.5s3.358-7.5,7.5-7.5h49.925
	c4.142,0,7.5,3.358,7.5,7.5S286.282,301.739,282.14,301.739z"/>
<g>
	<path style="fill:#F7931E;" d="M229.724,192.018c-0.637,0-1.284-0.082-1.929-0.253l-54.865-14.563
		c-4.003-1.063-6.387-5.17-5.325-9.173c1.063-4.003,5.171-6.386,9.173-5.325l54.865,14.563c4.004,1.063,6.387,5.17,5.325,9.173
		C236.076,189.799,233.041,192.018,229.724,192.018z"/>
	<path style="fill:#F7931E;" d="M278.948,192.018c-3.318,0-6.353-2.219-7.244-5.578c-1.063-4.003,1.321-8.111,5.325-9.173
		l54.865-14.563c4.003-1.062,8.111,1.321,9.173,5.325c1.063,4.003-1.321,8.111-5.325,9.173l-54.865,14.563
		C280.233,191.936,279.585,192.018,278.948,192.018z"/>
</g>
<g>
</g>
<g>
</g>
<g>
</g>
<g>
</g>
<g>
</g>
<g>
</g>
<g>
</g>
<g>
</g>
<g>
</g>
<g>
</g>
<g>
</g>
<g>
</g>
<g>
</g>
<g>
</g>
<g>
</g>
</svg>
