<?xml version="1.0" encoding="iso-8859-1"?>
<!-- Generator: Adobe Illustrator 19.0.0, SVG Export Plug-In . SVG Version: 6.00 Build 0)  -->
<svg version="1.1" id="Capa_1" xmlns="http://www.w3.org/2000/svg" xmlns:xlink="http://www.w3.org/1999/xlink" x="0px" y="0px"
	 viewBox="0 0 512 512" style="enable-background:new 0 0 512 512;" xml:space="preserve">
<path style="fill:#D1E7F8;" d="M292.909,388.697v-82.343h-73.818v82.343l-77.493,13.929c-27.633,4.968-47.741,29.012-47.741,57.089
	v28.558c0,13.105,10.623,23.728,23.728,23.728h276.828c13.105,0,23.728-10.623,23.728-23.728v-28.558
	c0-28.076-20.108-52.121-47.741-57.089L292.909,388.697z"/>
<path style="fill:#B9D8F4;" d="M218.147,438.812c1.085,0.969,10.032,16.164,37.85,16.164c27.818,0,36.765-15.194,37.849-16.164
	c52.81-3.046,69.431-36.041,70.252-37.319l-71.192-12.797v-82.343h-73.818v82.343l-71.187,12.796
	C148.723,402.771,167.92,437.054,218.147,438.812z"/>
<g>
	<path style="fill:#3E3D42;" d="M286.707,512l-21.079-47.163c-3.72-8.324-15.536-8.324-19.256,0L225.293,512H286.707z"/>
	<path style="fill:#3E3D42;" d="M151.279,451.868c-3.413-2.561-4.104-7.404-1.543-10.817l7.538-10.046
		c2.561-3.413,7.404-4.104,10.817-1.543s4.104,7.404,1.543,10.817l-7.538,10.046C159.535,453.738,154.692,454.429,151.279,451.868z"
		/>
	<path style="fill:#3E3D42;" d="M190.012,472.951c-3.413-2.561-4.104-7.404-1.543-10.817l7.538-10.046
		c2.561-3.413,7.404-4.104,10.817-1.543c3.413,2.561,4.104,7.404,1.543,10.817l-7.538,10.046
		C198.268,474.821,193.425,475.512,190.012,472.951z"/>
	<path style="fill:#3E3D42;" d="M150.249,496.5c-3.413-2.561-4.104-7.404-1.543-10.817l7.538-10.046
		c2.561-3.413,7.404-4.104,10.817-1.543c3.413,2.561,4.104,7.404,1.543,10.817l-7.538,10.046
		C158.505,498.371,153.662,499.061,150.249,496.5z"/>
	<path style="fill:#3E3D42;" d="M360.721,451.868c3.413-2.561,4.104-7.404,1.543-10.817l-7.538-10.046
		c-2.561-3.413-7.404-4.104-10.817-1.543c-3.413,2.561-4.104,7.404-1.543,10.817l7.538,10.046
		C352.465,453.738,357.308,454.429,360.721,451.868z"/>
	<path style="fill:#3E3D42;" d="M321.988,472.951c3.413-2.561,4.104-7.404,1.543-10.817l-7.538-10.046
		c-2.561-3.413-7.404-4.104-10.817-1.543c-3.413,2.561-4.104,7.404-1.543,10.817l7.538,10.046
		C313.732,474.821,318.575,475.512,321.988,472.951z"/>
	<path style="fill:#3E3D42;" d="M361.751,496.5c3.413-2.561,4.104-7.404,1.543-10.817l-7.538-10.046
		c-2.561-3.413-7.404-4.104-10.817-1.543c-3.413,2.561-4.104,7.404-1.543,10.817l7.538,10.046
		C353.495,498.371,358.338,499.061,361.751,496.5z"/>
</g>
<path style="fill:#663A00;" d="M120.216,255.996c0,0-42.322,42.087-6.781,85.432c0,0,1.753,13.028-6.171,24.222
	c-3.349,4.731-0.705,11.354,4.926,12.727c16.391,3.997,45.184,4.908,67.691-23.69C179.367,353.352,157.739,256,157.739,256
	L120.216,255.996z"/>
<path style="fill:#9A4C00;" d="M391.784,255.996c0,0,42.322,42.087,6.781,85.432c0,0-1.753,13.028,6.171,24.222
	c3.349,4.731,0.705,11.354-4.926,12.727c-16.391,3.997-45.184,4.908-67.691-23.69c0.515-1.334,22.143-98.686,22.143-98.686
	L391.784,255.996z"/>
<circle style="fill:#FFB655;" cx="140.228" cy="233.738" r="30.998"/>
<circle style="fill:#FFA733;" cx="140.228" cy="233.738" r="19.096"/>
<circle style="fill:#FFC477;" cx="371.772" cy="233.738" r="30.998"/>
<circle style="fill:#FFB655;" cx="371.772" cy="233.738" r="19.096"/>
<path style="fill:#FFDAAA;" d="M256,360.97L256,360.97c-60.561,0-110.112-49.551-110.112-110.112V159.05
	c0-60.561,49.551-110.112,110.112-110.112l0,0c60.561,0,110.112,49.551,110.112,110.112v91.809
	C366.112,311.421,316.561,360.97,256,360.97z"/>
<path style="fill:#FFC477;" d="M296.458,349.525c-60.561,0-110.112-49.551-110.112-110.112v-91.809
	c0-42.799,24.75-80.093,60.642-98.292c-56.388,4.623-101.1,52.211-101.1,109.738v91.809c0,60.561,49.551,110.112,110.112,110.112
	l0,0c17.762,0,34.575-4.267,49.47-11.82C302.497,349.395,299.492,349.525,296.458,349.525L296.458,349.525z"/>
<path style="fill:#AA6100;" d="M366.112,233.737l-41.377,33.03c-6.923,5.527-16.882,5.019-23.208-1.182l-7.473-7.325
	c-3.255-3.192-8.274-3.734-12.138-1.315l-16.03,10.041c-6.047,3.788-13.728,3.788-19.775,0l-16.03-10.041
	c-3.863-2.42-8.882-1.876-12.138,1.315l-7.473,7.325c-6.326,6.201-16.284,6.709-23.208,1.182l-41.377-33.03
	c0,0-27.787,73.314,19.174,119.059c2.191,1.461-5.843,56.243,65.738,55.512c0,0.342,5.517,5.321,11.388,10.523
	c7.884,6.986,19.739,6.986,27.623,0c5.871-5.202,11.388-10.181,11.388-10.523c71.582,0.73,63.547-54.052,65.738-55.512
	C393.899,307.051,366.112,233.737,366.112,233.737z"/>
<g>
	<path style="fill:#9A4C00;" d="M275.947,402.054c-2.937-3.18-7.003-5.113-11.328-5.289c-49.874-2.035-57.948-34.117-59.05-48.514
		c-0.351-4.587-2.228-8.923-5.236-12.405c-20.406-23.62-23.506-53.014-21.712-75.98l-32.733-26.128
		c0,0-27.787,73.315,19.174,119.059c2.191,1.461-5.843,56.243,65.738,55.512c0,0.342,5.517,5.321,11.387,10.522
		c7.885,6.986,19.741,6.986,27.625,0c5.871-5.201,11.387-10.18,11.387-10.522C281.673,408.313,278.745,405.085,275.947,402.054z"/>
	<circle style="fill:#9A4C00;" cx="256" cy="354.691" r="7.726"/>
	<circle style="fill:#9A4C00;" cx="288.729" cy="373.389" r="7.726"/>
	<circle style="fill:#9A4C00;" cx="288.729" cy="333.707" r="7.726"/>
</g>
<path style="fill:#FFC477;" d="M256,295.147L256,295.147c-11.615,0-21.119-9.503-21.119-21.119v-19.173
	c0-11.615,9.503-21.119,21.119-21.119l0,0c11.615,0,21.119,9.503,21.119,21.119v19.173C277.119,285.643,267.615,295.147,256,295.147
	z"/>
<path style="fill:#FFB655;" d="M256,274.46v-19.173c0-7.919,4.422-14.849,10.914-18.463c-3.193-1.945-6.922-3.087-10.914-3.087
	c-11.615,0-21.119,9.503-21.119,21.119v19.173c0,11.615,9.503,21.119,21.119,21.119c3.696,0,7.175-0.969,10.205-2.656
	C260.107,288.776,256,282.083,256,274.46z"/>
<g>
	<path style="fill:#9A4C00;" d="M145.681,167.998c0,0-22.294,4.969-27.865,44.335c5.644-5.909,13.595-9.595,22.412-9.595
		c1.933,0,3.821,0.185,5.656,0.524l0.005-0.004c0,0,41.512-1.29,75.013-60.663C220.901,142.595,176.049,147.826,145.681,167.998z"/>
	<path style="fill:#9A4C00;" d="M366.117,203.262c1.835-0.338,3.723-0.524,5.656-0.524c8.816,0,16.767,3.687,22.412,9.595
		c-5.57-39.366-27.865-44.335-27.865-44.335c-30.368-20.173-75.22-25.404-75.22-25.404
		C324.599,201.968,366.117,203.262,366.117,203.262z"/>
</g>
<path style="fill:#663A00;" d="M145.883,203.262c0,0,18.336-0.581,40.463-18.383v-34.856c-13.256,3.917-28.184,9.683-40.665,17.975
	c0,0-22.294,4.969-27.865,44.335c5.644-5.909,13.595-9.595,22.412-9.595C142.16,202.738,144.048,202.923,145.883,203.262z"/>
<g>
	<circle style="fill:#4E901E;" cx="203.059" cy="207.262" r="12.877"/>
	<circle style="fill:#4E901E;" cx="308.941" cy="207.262" r="12.877"/>
</g>
<path style="fill:#FF0C38;" d="M145.888,90.572C145.888,90.572,96.402,0,256,0s110.112,90.572,110.112,90.572L255.997,129.06
	L145.888,90.572z"/>
<path style="fill:#D80027;" d="M232.883,0.709c-131.488,8.426-86.997,89.868-86.997,89.868l56.033,19.586
	c-3.89-10.441-6.015-21.686-6.015-33.41C195.903,46.219,210.277,18.913,232.883,0.709z"/>
<path style="fill:#FFDA44;" d="M145.888,126.123V80.63c0-8.178,9.381-12.801,15.867-7.821l47.863,36.755L145.888,126.123z"/>
<path style="fill:#FFD422;" d="M186.346,91.693l-24.592-18.884c-6.486-4.98-15.867-0.356-15.867,7.821v45.493l40.458-10.512V91.693
	H186.346z"/>
<g>
	<path style="fill:#FFDA44;" d="M366.112,126.123V80.63c0-8.178-9.381-12.801-15.867-7.821l-47.863,36.755L366.112,126.123z"/>
	<path style="fill:#FFDA44;" d="M247.457,60.487l-29.693,51.43h76.465l-29.693-51.43C260.741,53.912,251.252,53.912,247.457,60.487z
		"/>
</g>
<path style="fill:#FFE477;" d="M256,99.797c0,0-59.164,1.251-110.112,26.326v41.875c0,0,52.043-27.756,110.112-27.756
	s110.112,27.756,110.112,27.756v-41.875C315.164,101.047,256,99.797,256,99.797z"/>
<circle style="fill:#FF3F62;" cx="256" cy="120.078" r="13.027"/>
<path style="fill:#FFDA44;" d="M186.346,110.934c-13.245,3.702-27.132,8.629-40.458,15.188v41.875c0,0,16.137-8.603,40.458-16.23
	V110.934z"/>
<g>
	<circle style="fill:#3D9AE2;" cx="171.226" cy="136.787" r="7.726"/>
	<circle style="fill:#3D9AE2;" cx="340.774" cy="136.787" r="7.726"/>
	<circle style="fill:#3D9AE2;" cx="208.715" cy="126.125" r="7.726"/>
	<circle style="fill:#3D9AE2;" cx="303.285" cy="126.125" r="7.726"/>
</g>
<g>
</g>
<g>
</g>
<g>
</g>
<g>
</g>
<g>
</g>
<g>
</g>
<g>
</g>
<g>
</g>
<g>
</g>
<g>
</g>
<g>
</g>
<g>
</g>
<g>
</g>
<g>
</g>
<g>
</g>
</svg>
