<?xml version="1.0" encoding="iso-8859-1"?>
<!-- Generator: Adobe Illustrator 19.0.0, SVG Export Plug-In . SVG Version: 6.00 Build 0)  -->
<svg version="1.1" id="Capa_1" xmlns="http://www.w3.org/2000/svg" xmlns:xlink="http://www.w3.org/1999/xlink" x="0px" y="0px"
	 viewBox="0 0 512 512" style="enable-background:new 0 0 512 512;" xml:space="preserve">
<path style="fill:#9B7E73;" d="M415.993,177.375v82.478c0,38.5,14.604,75.567,40.865,103.721l0,0
	c6.681,7.163,3.549,18.848-5.819,21.709l0,0c-138.457,42.285-286.383,42.285-424.841,0l0,0c-9.368-2.861-12.5-14.546-5.819-21.709
	l0,0c26.261-28.154,40.864-65.221,40.864-103.721v-82.478L415.993,177.375L415.993,177.375z"/>
<g>
	<path style="fill:#FFD4B8;" d="M396.879,468.443c-10.637,0-20.996-3.579-29.579-10.416l-58.329-46.458
		c-7.992-6.365-9.311-18.004-2.945-25.996c6.366-7.993,18.006-9.31,25.997-2.945l58.329,46.458c3.614,2.878,7.378,2.488,9.302,1.999
		c1.922-0.489,5.416-1.945,7.215-6.202l52.774-124.868c3.977-9.412,14.832-13.817,24.243-9.838
		c9.411,3.978,13.816,14.832,9.838,24.243l-52.775,124.868c-5.859,13.864-17.586,23.943-32.172,27.655
		C404.825,467.948,400.832,468.443,396.879,468.443z"/>
	<path style="fill:#FFD4B8;" d="M122.115,512h-28.3c-4.805,0-8.701-3.896-8.701-8.701v-21.688c0-35.36,17.085-68.541,45.868-89.081
		l1.761-1.257l21.489,30.12l-1.751,1.25c-19.055,13.595-30.367,35.56-30.367,58.968V512H122.115z"/>
</g>
<path style="fill:#81D4AE;" d="M238.618,312.136L238.618,312.136c-66.196,0-119.858,53.662-119.858,119.858V512h231.015
	c4.805,0,8.701-3.896,8.701-8.701v-71.305C358.476,365.798,304.814,312.136,238.618,312.136z"/>
<path style="fill:#5EC08B;" d="M118.76,485.883h239.716v-15H118.76V485.883z M358.375,427.286H118.86
	c-0.06,1.563-0.1,3.131-0.1,4.708v10.292h239.716v-10.292C358.476,430.416,358.436,428.848,358.375,427.286z"/>
<path style="fill:#FFFFFF;" d="M238.618,401.21c-18.435,0-35.205-9.376-44.859-25.082l-23.963-38.983
	c-2.169-3.529-1.066-8.148,2.462-10.317c3.531-2.169,8.148-1.065,10.317,2.462l23.963,38.984
	c6.903,11.232,18.896,17.937,32.079,17.937c13.184,0,25.176-6.705,32.08-17.937l23.962-38.984c2.17-3.528,6.789-4.631,10.317-2.463
	c3.529,2.17,4.631,6.788,2.462,10.317l-23.962,38.984C273.823,391.833,257.053,401.21,238.618,401.21z"/>
<path style="opacity:0.1;enable-background:new    ;" d="M238.618,312.136L238.618,312.136c-34.35,0-65.32,14.453-87.174,37.606
	c25.746,14.558,55.486,22.876,87.173,22.876s61.428-8.318,87.173-22.876C303.938,326.589,272.968,312.136,238.618,312.136z"/>
<circle style="fill:#FFD4B8;" cx="61.239" cy="177.61" r="31.28"/>
<circle style="fill:#81D4AE;" cx="53.804" cy="208.89" r="20.773"/>
<circle style="fill:#FFD4B8;" cx="415.989" cy="177.61" r="31.28"/>
<circle style="fill:#81D4AE;" cx="423.429" cy="208.89" r="20.773"/>
<circle style="fill:#FFD4B8;" cx="238.619" cy="177.37" r="177.37"/>
<path style="fill:#9B7E73;" d="M238.618,0C144.462,0,67.456,73.366,61.613,166.048c70.687,5.121,153.778-85.907,158.226-114.281
	c3.511,36.263,133.569,126.885,195.61,111.656C408.334,71.984,331.884,0,238.618,0z"/>
<g>
	<path style="fill:#4A5058;" d="M238.618,242.68c-9.149,0-17.988-3.835-24.252-10.52c-2.832-3.023-2.677-7.769,0.345-10.601
		c3.024-2.832,7.769-2.677,10.601,0.345c3.489,3.725,8.215,5.776,13.306,5.776s9.817-2.051,13.306-5.776
		c2.832-3.023,7.578-3.178,10.601-0.345c3.022,2.832,3.177,7.578,0.345,10.601C256.606,238.846,247.767,242.68,238.618,242.68z"/>
	<path style="fill:#4A5058;" d="M164.698,193.441c-4.142,0-7.5-3.358-7.5-7.5c0-4.699-3.823-8.522-8.522-8.522
		s-8.522,3.823-8.522,8.522c0,4.142-3.358,7.5-7.5,7.5s-7.5-3.358-7.5-7.5c0-12.97,10.552-23.522,23.522-23.522
		s23.522,10.552,23.522,23.522C172.198,190.083,168.84,193.441,164.698,193.441z"/>
	<path style="fill:#4A5058;" d="M344.582,193.441c-4.142,0-7.5-3.358-7.5-7.5c0-4.699-3.823-8.522-8.522-8.522
		s-8.522,3.823-8.522,8.522c0,4.142-3.358,7.5-7.5,7.5s-7.5-3.358-7.5-7.5c0-12.97,10.552-23.522,23.522-23.522
		s23.522,10.552,23.522,23.522C352.082,190.083,348.725,193.441,344.582,193.441z"/>
</g>
<path style="opacity:0.1;fill:#513130;enable-background:new    ;" d="M264.904,332.359c-97.961,0-177.375-79.414-177.375-177.375
	c0-47.88,18.978-91.321,49.814-123.233c-45.995,32.047-76.1,85.316-76.1,145.624c0,97.961,79.413,177.375,177.375,177.375
	c50.082,0,95.308-20.763,127.561-54.142C337.463,320.617,302.558,332.359,264.904,332.359z"/>
<g>
</g>
<g>
</g>
<g>
</g>
<g>
</g>
<g>
</g>
<g>
</g>
<g>
</g>
<g>
</g>
<g>
</g>
<g>
</g>
<g>
</g>
<g>
</g>
<g>
</g>
<g>
</g>
<g>
</g>
</svg>
