<?xml version="1.0" encoding="iso-8859-1"?>
<!-- Generator: Adobe Illustrator 19.0.0, SVG Export Plug-In . SVG Version: 6.00 Build 0)  -->
<svg version="1.1" id="Capa_1" xmlns="http://www.w3.org/2000/svg" xmlns:xlink="http://www.w3.org/1999/xlink" x="0px" y="0px"
	 viewBox="0 0 512 512" style="enable-background:new 0 0 512 512;" xml:space="preserve">
<path style="fill:#FCC892;" d="M65.166,437.734C34.748,437.734,10,412.986,10,382.566c0-19.22,9.758-36.75,26.102-46.895
	c7.041-4.37,16.287-2.204,20.656,4.834c4.368,7.038,2.204,16.286-4.834,20.654C44.457,365.795,40,373.797,40,382.566
	c0,13.878,11.289,25.168,25.166,25.168c7.529,0,14.603-3.333,19.408-9.145c5.278-6.385,14.735-7.279,21.119-2.002
	c6.385,5.279,7.281,14.734,2.002,21.119C97.172,430.435,81.67,437.734,65.166,437.734z"/>
<path style="fill:#FCA953;" d="M446.834,437.734c-16.496,0-31.993-7.294-42.518-20.011c-5.281-6.383-4.389-15.838,1.993-21.119
	c6.383-5.283,15.839-4.388,21.119,1.992c4.806,5.808,11.879,9.138,19.405,9.138c13.877,0,25.166-11.29,25.166-25.168
	c0-8.768-4.456-16.768-11.92-21.403c-7.038-4.37-9.2-13.618-4.83-20.656c4.37-7.038,13.617-9.201,20.656-4.83
	C492.245,345.823,502,363.353,502,382.566C502,412.986,477.253,437.734,446.834,437.734z"/>
<path style="fill:#794334;" d="M415.872,337.4c-8.284,0-15,6.716-15,15H111.133c0-8.284-6.716-15-15-15s-15,6.716-15,15V497
	c0,8.284,6.716,15,15,15h319.739c8.284,0,15-6.716,15-15V352.4C430.872,344.116,424.156,337.4,415.872,337.4z"/>
<path style="fill:#5B3227;" d="M415.872,337.4c-8.284,0-15,6.716-15,15H256V512h159.872c8.284,0,15-6.716,15-15V352.4
	C430.872,344.116,424.156,337.4,415.872,337.4z"/>
<path style="fill:#E37C5D;" d="M448.8,241h-32.134c-8.284,0-15,6.716-15,15c0,8.242,6.649,14.927,14.876,14.994l-0.547,66.406
	h-0.124c-8.284,0-15,6.716-15,15s6.716,15,15,15H448.8c34.849,0,63.2-28.351,63.2-63.199C512,269.352,483.648,241,448.8,241z"/>
<path style="fill:#ED9A81;" d="M96.132,337.4h-0.124l-0.55-66.406c8.227-0.068,14.876-6.752,14.876-14.994c0-8.284-6.716-15-15-15
	H63.2C28.352,241,0,269.352,0,304.201S28.352,367.4,63.2,367.4h32.932c8.284,0,15-6.716,15-15S104.416,337.4,96.132,337.4z"/>
<path style="fill:#F7AF99;" d="M427.274,165.06L266.607,4.394c-5.857-5.858-15.355-5.858-21.213,0L84.727,165.06
	c-2.813,2.813-4.393,6.628-4.393,10.606v160.668C80.334,433.196,159.138,512,256.001,512s175.667-78.804,175.667-175.666V175.666
	C431.668,171.688,430.088,167.872,427.274,165.06z"/>
<path style="fill:#ED9A81;" d="M427.274,165.06L266.607,4.394C263.679,1.465,259.84,0,256,0v512c0,0,0,0,0.001,0
	c96.863,0,175.667-78.804,175.667-175.666V175.666C431.668,171.688,430.088,167.872,427.274,165.06z"/>
<path style="fill:#FD413C;" d="M256.001,417.207c-22.485,0-43.455-12.099-54.728-31.574c-4.15-7.17-1.701-16.346,5.469-20.496
	c7.17-4.149,16.347-1.701,20.496,5.469c5.927,10.24,16.948,16.602,28.763,16.602s22.839-6.364,28.768-16.608
	c4.149-7.169,13.325-9.619,20.496-5.469c7.17,4.149,9.618,13.326,5.469,20.496C299.459,405.105,278.487,417.207,256.001,417.207z"/>
<path style="fill:#794334;" d="M416.668,190.666c8.284,0,15-6.716,15-15C431.668,78.804,352.864,0,256.001,0
	S80.334,78.804,80.334,175.666c0,8.284,6.716,15,15,15H416.668z"/>
<path style="fill:#5B3227;" d="M256,0c0,0,0,0,0.001,0c96.863,0,175.667,78.804,175.667,175.666c0,8.284-6.716,15-15,15H256V0z"/>
<path style="fill:#DA0806;" d="M305.265,365.13c-7.171-4.15-16.347-1.701-20.497,5.469c-5.928,10.243-16.95,16.607-28.765,16.607v30
	c22.485-0.001,43.456-12.102,54.729-31.58C314.883,378.456,312.435,369.28,305.265,365.13z"/>
<path style="fill:#794334;" d="M191.735,295.107c-3.951,0-7.82-1.601-10.61-4.391c-2.79-2.8-4.39-6.659-4.39-10.609
	s1.6-7.82,4.39-10.61c2.79-2.79,6.659-4.39,10.61-4.39c3.949,0,7.81,1.6,10.6,4.39c2.8,2.8,4.4,6.66,4.4,10.61
	s-1.601,7.81-4.4,10.609C199.545,293.507,195.684,295.107,191.735,295.107z"/>
<path style="fill:#5B3227;" d="M320.265,295.107c-3.949,0-7.81-1.601-10.609-4.391c-2.791-2.8-4.391-6.659-4.391-10.609
	s1.6-7.82,4.391-10.61c2.799-2.79,6.66-4.39,10.609-4.39c3.95,0,7.82,1.6,10.61,4.39c2.79,2.79,4.39,6.66,4.39,10.61
	s-1.6,7.81-4.39,10.609C328.085,293.507,324.215,295.107,320.265,295.107z"/>
<g>
</g>
<g>
</g>
<g>
</g>
<g>
</g>
<g>
</g>
<g>
</g>
<g>
</g>
<g>
</g>
<g>
</g>
<g>
</g>
<g>
</g>
<g>
</g>
<g>
</g>
<g>
</g>
<g>
</g>
</svg>
