<?xml version="1.0" encoding="iso-8859-1"?>
<!-- Generator: Adobe Illustrator 19.0.0, SVG Export Plug-In . SVG Version: 6.00 Build 0)  -->
<svg version="1.1" id="Capa_1" xmlns="http://www.w3.org/2000/svg" xmlns:xlink="http://www.w3.org/1999/xlink" x="0px" y="0px"
	 viewBox="0 0 512 512" style="enable-background:new 0 0 512 512;" xml:space="preserve">
<g>
	<path style="fill:#FFC7A9;" d="M467.46,398.68c0-18.461-15.02-33.481-33.481-33.481h-7.64c1.621,2.443,2.572,5.364,2.572,8.499V512
		h33.398c2.844,0,5.151-2.306,5.151-5.151v-31.424c0-5.074-2.189-9.932-6.003-13.327c3.927-5.634,6.003-12.246,6.003-19.12V398.68z"
		/>
	<path style="fill:#FFC7A9;" d="M85.661,365.199h-7.64c-18.461,0-33.481,15.02-33.481,33.481v44.298
		c0,6.875,2.076,13.486,6.003,19.12c-3.815,3.395-6.003,8.253-6.003,13.327v31.424c0,2.845,2.307,5.151,5.151,5.151h33.397V373.698
		C83.089,370.563,84.04,367.642,85.661,365.199z"/>
</g>
<path style="fill:#775436;" d="M427.252,365h-54.11c-14.489,37.031-50.553,63.334-92.657,63.334h-48.97
	c-42.104,0-78.167-26.303-92.657-63.334h-54.11c-1.702,2.482-2.704,5.478-2.704,8.698V512h347.911V373.698
	C429.956,370.478,428.954,367.482,427.252,365z"/>
<path style="opacity:0.15;fill:#440075;enable-background:new    ;" d="M84.748,365c-1.702,2.482-2.704,5.478-2.704,8.698V512h30.02
	V373.698c0-3.22,1.001-6.215,2.704-8.698H84.748z"/>
<path style="fill:#9EA7AF;" d="M454.329,344.294H378.75c-1.193,7.632-3.261,14.978-6.091,21.936h81.67
	c2.833,0,5.151-2.318,5.151-5.151v-11.634C459.48,346.612,457.162,344.294,454.329,344.294z"/>
<path style="opacity:0.15;fill:#440075;enable-background:new    ;" d="M411.482,361.079v-11.634c0-2.833,2.318-5.151,5.151-5.151
	H378.75c-1.193,7.632-3.261,14.978-6.091,21.936h43.974C413.8,366.23,411.482,363.912,411.482,361.079z"/>
<path style="fill:#9EA7AF;" d="M133.25,344.294H57.671c-2.833,0-5.151,2.318-5.151,5.151v11.634c0,2.833,2.318,5.151,5.151,5.151
	h81.67C136.511,359.272,134.443,351.926,133.25,344.294z"/>
<g style="opacity:0.15;">
	<path style="fill:#440075;" d="M82.854,361.079v-11.634c0-2.833,2.318-5.151,5.151-5.151H57.671c-2.833,0-5.151,2.318-5.151,5.151
		v11.634c0,2.833,2.318,5.151,5.151,5.151h30.334C85.172,366.23,82.854,363.912,82.854,361.079z"/>
</g>
<path style="fill:#FCDB67;" d="M137.389,80.656c-6.189-3.372-12.091-7.299-17.595-11.787C99.588,52.394,85.425,29.375,79.914,4.055
	C79.398,1.688,77.303,0,74.88,0c-2.423,0-4.518,1.688-5.033,4.055c-1.915,8.794-2.885,17.828-2.885,26.85
	c0,39.339,18.173,74.509,46.559,97.572L137.389,80.656z"/>
<g style="opacity:0.15;">
	<path style="fill:#440075;" d="M123.22,109.043c-25.364-23.01-41.321-56.212-41.321-93.075c0-1.325,0.028-2.65,0.069-3.974
		c-0.772-2.62-1.473-5.263-2.055-7.939C79.398,1.688,77.303,0,74.88,0c-2.423,0-4.518,1.688-5.033,4.055
		c-1.915,8.794-2.885,17.828-2.885,26.85c0,39.339,18.173,74.509,46.559,97.572L123.22,109.043z"/>
</g>
<path style="fill:#FCDB67;" d="M442.153,4.055C441.637,1.688,439.543,0,437.12,0c-2.422,0-4.517,1.688-5.033,4.055
	c-5.511,25.32-19.674,48.338-39.88,64.814c-5.504,4.488-11.407,8.416-17.596,11.788l23.869,47.821
	c28.386-23.063,46.559-58.233,46.559-97.572C445.038,21.883,444.067,12.849,442.153,4.055z"/>
<g>
	<path style="fill:#C5CCD3;" d="M401.829,132.948l-29.904-59.913c-1.265-2.535-4.374-3.573-6.909-2.308l-18.585,9.276
		c16.665,18.746,28.392,42.93,32.746,70.008l20.343-10.154C402.055,138.592,403.094,135.482,401.829,132.948z"/>
	<path style="fill:#C5CCD3;" d="M165.57,80.003l-18.586-9.276c-2.535-1.265-5.644-0.227-6.909,2.308l-29.904,59.913
		c-1.265,2.535-0.226,5.644,2.309,6.909l20.343,10.154C137.178,122.934,148.905,98.749,165.57,80.003z"/>
</g>
<path style="fill:#B2762F;" d="M280.485,428.334h-48.97c-36.05,0-67.681-19.28-85.127-48.069V512h219.224V380.265
	C348.166,409.054,316.535,428.334,280.485,428.334z"/>
<path style="opacity:0.15;fill:#440075;enable-background:new    ;" d="M146.388,380.265V512h29.463V411.26
	C163.939,403.186,153.862,392.598,146.388,380.265z"/>
<path style="fill:#FFC7A9;" d="M280.485,428.334h-48.97c-5.64,0-11.169-0.479-16.555-1.385L256,512l41.04-85.052
	C291.654,427.855,286.125,428.334,280.485,428.334z"/>
<polygon style="fill:#E6E9ED;" points="283.7,454.595 228.3,454.595 256,512 "/>
<g>
	<path style="fill:#FFB98A;" d="M132.106,206.242h-8.666c-0.508,0-0.99-0.097-1.454-0.236c-7.565,4.39-12.656,12.572-12.656,21.947
		v27.57c0,13.134,9.983,23.937,22.776,25.233V206.242z"/>
	<path style="fill:#FFB98A;" d="M390.014,206.005c-0.464,0.139-0.946,0.236-1.455,0.236h-8.666v74.515
		c12.793-1.296,22.776-12.099,22.776-25.233v-27.57C402.669,218.578,397.579,210.396,390.014,206.005z"/>
</g>
<path style="fill:#FFC7A9;" d="M143.561,206.242v39.238c0,62.099,50.341,112.44,112.439,112.44
	c62.099,0,112.439-50.341,112.439-112.44v-39.238H143.561z"/>
<g style="opacity:0.15;">
	<path style="fill:#440075;" d="M173.585,245.48v-39.238h-30.024v39.238c0,62.099,50.341,112.44,112.439,112.44
		c5.091,0,10.101-0.344,15.013-1C216.013,349.58,173.585,302.487,173.585,245.48z"/>
</g>
<path style="fill:#F7931E;" d="M363.167,206.242v34.572c0,28.791-11.262,55.815-31.712,76.095c-0.404,0.4-0.94,0.621-1.509,0.621
	c-0.284,0-0.56-0.056-0.823-0.165c-0.801-0.334-1.319-1.11-1.319-1.979v-22.507c0-10.637-8.653-19.29-19.29-19.29h-22.716
	c-1.595,7.083-7.924,12.393-15.48,12.393h-19.272c-7.556,0-13.885-5.31-15.48-12.393h-32.078c-10.637,0-19.29,8.654-19.29,19.29
	v22.506c0,0.868-0.518,1.645-1.322,1.979c-0.261,0.109-0.537,0.164-0.821,0.164c-0.57,0-1.105-0.221-1.51-0.622
	c-20.449-20.278-31.711-47.303-31.711-76.093v-34.572h-17.78v122.631c0,55.395,45.067,100.461,100.462,100.461h48.97
	c55.395,0,100.462-45.066,100.462-100.461v-122.63H363.167z"/>
<path style="fill:#D19546;" d="M381.811,165c-3.983-70.305-56.784-125.965-121.349-125.965h-8.926
	c-64.565,0-117.364,55.66-121.349,125.965H381.811z"/>
<path style="fill:#C5CCD3;" d="M278.121,165V35.686c0-2.833-2.318-5.151-5.151-5.151h-33.94c-2.833,0-5.151,2.318-5.151,5.151V165
	H278.121z"/>
<path style="opacity:0.15;fill:#440075;enable-background:new    ;" d="M233.879,40.445C177.585,49.504,133.803,101.226,130.189,165
	h29.507c2.953-52.09,32.705-96.134,74.184-115.46v-9.095H233.879z"/>
<g>
	<circle style="fill:#E6E9ED;" cx="256" cy="128.64" r="10.953"/>
	<circle style="fill:#E6E9ED;" cx="256" cy="75.75" r="10.953"/>
</g>
<g>
	<path style="fill:#5DC647;" d="M200.91,262.53c-11.792,0-21.384-9.617-21.384-21.438c0-11.82,9.593-21.437,21.384-21.437
		c11.79,0,21.383,9.617,21.383,21.437C222.293,252.913,212.701,262.53,200.91,262.53z"/>
	<path style="fill:#5DC647;" d="M311.091,262.53c-11.791,0-21.384-9.617-21.384-21.438c0-11.82,9.593-21.437,21.384-21.437
		s21.383,9.617,21.383,21.437C332.474,252.913,322.882,262.53,311.091,262.53z"/>
</g>
<path style="fill:#D2957D;" d="M270.317,286.981h-19.272c-9.306,0-16.877-7.572-16.877-16.878v-39.298c0-4.142,3.358-7.5,7.5-7.5
	s7.5,3.358,7.5,7.5v39.298c0,1.018,0.86,1.878,1.877,1.878h19.272c1.018,0,1.877-0.86,1.877-1.878v-7.326c0-4.142,3.358-7.5,7.5-7.5
	s7.5,3.358,7.5,7.5v7.326C287.194,279.41,279.623,286.981,270.317,286.981z"/>
<path style="fill:#9EA7AF;" d="M123.44,163.284c-2.833,0-5.151,2.318-5.151,5.151v33.94c0,2.833,2.318,5.15,5.151,5.15h265.12
	c2.833,0,5.151-2.317,5.151-5.15v-33.94c0-2.833-2.318-5.151-5.151-5.151H123.44z"/>
<g>
	<circle style="fill:#E6E9ED;" cx="149.76" cy="185.92" r="10.953"/>
	<circle style="fill:#E6E9ED;" cx="202.88" cy="185.92" r="10.953"/>
	<circle style="fill:#E6E9ED;" cx="256" cy="185.92" r="10.953"/>
	<circle style="fill:#E6E9ED;" cx="309.12" cy="185.92" r="10.953"/>
	<circle style="fill:#E6E9ED;" cx="362.24" cy="185.92" r="10.953"/>
</g>
<path style="fill:#B2762F;" d="M281.754,327.371h-51.509c-4.142,0-7.5-3.358-7.5-7.5s3.358-7.5,7.5-7.5h51.509
	c4.142,0,7.5,3.358,7.5,7.5S285.897,327.371,281.754,327.371z"/>
<g>
	<path style="fill:#775436;" d="M309.858,424.95V388c0-4.142-3.358-7.5-7.5-7.5s-7.5,3.358-7.5,7.5v40.301
		C299.992,427.563,305.003,426.437,309.858,424.95z"/>
	<path style="fill:#775436;" d="M278.953,429.334v-35.331c0-4.142-3.358-7.5-7.5-7.5s-7.5,3.358-7.5,7.5v35.331H278.953z"/>
	<path style="fill:#775436;" d="M248.047,429.334v-35.331c0-4.142-3.358-7.5-7.5-7.5s-7.5,3.358-7.5,7.5v35.331H248.047z"/>
	<path style="fill:#775436;" d="M209.642,380.5c-4.142,0-7.5,3.358-7.5,7.5v36.949c4.855,1.487,9.866,2.613,15,3.352V388
		C217.142,383.858,213.784,380.5,209.642,380.5z"/>
</g>
<g>
</g>
<g>
</g>
<g>
</g>
<g>
</g>
<g>
</g>
<g>
</g>
<g>
</g>
<g>
</g>
<g>
</g>
<g>
</g>
<g>
</g>
<g>
</g>
<g>
</g>
<g>
</g>
<g>
</g>
</svg>
