<?xml version="1.0" encoding="iso-8859-1"?>
<!-- Generator: Adobe Illustrator 19.0.0, SVG Export Plug-In . SVG Version: 6.00 Build 0)  -->
<svg version="1.1" id="Capa_1" xmlns="http://www.w3.org/2000/svg" xmlns:xlink="http://www.w3.org/1999/xlink" x="0px" y="0px"
	 viewBox="0 0 512 512" style="enable-background:new 0 0 512 512;" xml:space="preserve">
<path style="fill:#DE8447;" d="M448.8,216.9h-32.134c-8.284,0-15,6.716-15,15c0,8.242,6.65,14.927,14.877,14.994l-0.548,66.406
	h-0.124c-8.284,0-15,6.716-15,15s6.716,15,15,15H448.8c34.849,0,63.2-28.352,63.2-63.201C512,245.251,483.648,216.9,448.8,216.9z"/>
<path style="fill:#FCA971;" d="M96.132,313.301h-0.124l-0.55-66.406c8.227-0.068,14.876-6.752,14.876-14.994c0-8.284-6.716-15-15-15
	H63.2C28.352,216.9,0,245.251,0,280.1c0,34.85,28.352,63.201,63.2,63.201h32.932c8.284,0,15-6.716,15-15
	S104.416,313.301,96.132,313.301z"/>
<path style="fill:#FCBA95;" d="M426.671,188.591c-21.362-19.121-45.557-34.409-71.914-45.438
	c-4.777-2.001-10.254-1.393-14.479,1.609C315.569,162.319,286.426,171.6,256,171.6c-30.425,0-59.567-9.28-84.276-26.837
	c-4.227-3.002-9.699-3.612-14.479-1.61c-26.354,11.027-50.55,26.316-71.915,45.439c-3.179,2.846-4.996,6.91-4.996,11.177v112.467
	C80.334,409.097,159.138,487.9,256,487.9s175.666-78.804,175.666-175.666V199.768C431.666,195.501,429.85,191.436,426.671,188.591z"
	/>
<path style="fill:#FCA971;" d="M426.671,188.591c-21.362-19.121-45.557-34.409-71.914-45.438
	c-4.777-2.001-10.254-1.393-14.479,1.609C315.569,162.319,286.426,171.6,256,171.6v316.3c96.862,0,175.666-78.804,175.666-175.666
	V199.768C431.666,195.501,429.85,191.436,426.671,188.591z"/>
<path style="fill:#3B211A;" d="M497,24.1H175.666c-52.566,0-95.332,42.767-95.332,95.334v80.334c0,5.916,3.478,11.28,8.879,13.694
	c1.964,0.878,4.048,1.306,6.118,1.306c3.623,0,7.201-1.313,10.007-3.823c16.869-15.099,35.732-27.488,56.164-36.899
	C189.718,192.099,222.208,201.6,256,201.6c33.793,0,66.284-9.501,94.5-27.555c20.435,9.413,39.295,21.802,56.161,36.899
	c4.407,3.944,10.723,4.934,16.126,2.518c5.401-2.414,8.879-7.778,8.879-13.694v-50.446C477.134,142.106,512,102.632,512,55.166V39.1
	C512,30.815,505.284,24.1,497,24.1z"/>
<path style="fill:#FCA971;" d="M256,391.5c-22.482,0-43.452-12.098-54.727-31.572c-4.15-7.17-1.703-16.347,5.466-20.497
	c7.17-4.151,16.346-1.702,20.497,5.466c5.929,10.241,16.95,16.603,28.764,16.603c11.815,0,22.839-6.365,28.77-16.612
	c4.151-7.17,13.328-9.615,20.497-5.468c7.17,4.15,9.617,13.327,5.468,20.497C299.457,379.398,278.484,391.5,256,391.5z"/>
<path style="fill:#3B211A;" d="M191.735,271.008c-3.949,0-7.81-1.601-10.609-4.391c-2.79-2.8-4.391-6.66-4.391-10.609
	c0-3.95,1.601-7.811,4.391-10.61c2.79-2.79,6.66-4.39,10.609-4.39c3.95,0,7.811,1.6,10.601,4.39c2.8,2.79,4.399,6.66,4.399,10.61
	c0,3.949-1.6,7.81-4.399,10.609C199.546,269.407,195.676,271.008,191.735,271.008z"/>
<g>
	<path style="fill:#0F0301;" d="M320.266,271.008c-3.95,0-7.81-1.601-10.61-4.391c-2.79-2.8-4.39-6.66-4.39-10.609
		c0-3.95,1.6-7.811,4.39-10.61c2.79-2.79,6.66-4.39,10.61-4.39s7.811,1.6,10.61,4.39c2.79,2.79,4.39,6.66,4.39,10.61
		c0,3.949-1.6,7.81-4.39,10.609C328.076,269.407,324.216,271.008,320.266,271.008z"/>
	<path style="fill:#0F0301;" d="M497,24.1H256v177.5c33.793,0,66.284-9.501,94.5-27.555c20.435,9.413,39.295,21.802,56.161,36.899
		c4.407,3.944,10.723,4.934,16.126,2.518c5.401-2.414,8.879-7.778,8.879-13.694v-50.446C477.134,142.106,512,102.632,512,55.166
		V39.1C512,30.815,505.284,24.1,497,24.1z"/>
</g>
<path style="fill:#DE8447;" d="M305.267,339.42c-7.17-4.15-16.347-1.701-20.496,5.469c-5.93,10.243-16.951,16.606-28.766,16.607v30
	c22.484-0.001,43.456-12.102,54.73-31.58C314.885,352.746,312.436,343.57,305.267,339.42z"/>
<g>
</g>
<g>
</g>
<g>
</g>
<g>
</g>
<g>
</g>
<g>
</g>
<g>
</g>
<g>
</g>
<g>
</g>
<g>
</g>
<g>
</g>
<g>
</g>
<g>
</g>
<g>
</g>
<g>
</g>
</svg>
