<?xml version="1.0" encoding="iso-8859-1"?>
<!-- Generator: Adobe Illustrator 19.0.0, SVG Export Plug-In . SVG Version: 6.00 Build 0)  -->
<svg version="1.1" id="Capa_1" xmlns="http://www.w3.org/2000/svg" xmlns:xlink="http://www.w3.org/1999/xlink" x="0px" y="0px"
	 viewBox="0 0 512 512" style="enable-background:new 0 0 512 512;" xml:space="preserve">
<path style="fill:#FCC892;" d="M65.166,381.502C34.747,381.502,10,356.754,10,326.334c0-19.22,9.758-36.75,26.102-46.895
	c7.038-4.371,16.286-2.204,20.654,4.834c4.369,7.038,2.205,16.286-4.834,20.654C44.457,309.563,40,317.565,40,326.334
	c0,13.878,11.289,25.168,25.166,25.168c7.835,0,15.089-3.557,19.902-9.759c5.078-6.547,14.501-7.732,21.046-2.653
	c6.545,5.079,7.732,14.502,2.653,21.046C98.229,373.715,82.338,381.502,65.166,381.502z"/>
<path style="fill:#FCA953;" d="M446.834,381.502c-17.174,0-33.066-7.788-43.604-21.366c-5.079-6.545-3.891-15.968,2.654-21.047
	c6.546-5.079,15.968-3.89,21.047,2.654c4.813,6.202,12.066,9.759,19.902,9.759c13.877,0,25.166-11.29,25.166-25.168
	c0-8.768-4.456-16.769-11.92-21.403c-7.038-4.37-9.2-13.618-4.83-20.656c4.37-7.038,13.617-9.201,20.656-4.83
	C492.245,289.591,502,307.12,502,326.334C502,356.754,477.253,381.502,446.834,381.502z"/>
<path style="fill:#FDB8A4;" d="M448.8,184.768h-32.134c-8.284,0-15,6.716-15,15s6.716,15,15,15l0,0l0.001,66.4
	c-8.284,0-15,6.716-15,15s6.716,15,15,15H448.8c34.849,0,63.2-28.351,63.2-63.199C512,213.119,483.648,184.768,448.8,184.768z"/>
<path style="fill:#FDCDBF;" d="M95.334,281.168v-66.4c8.284,0,15-6.716,15-15s-6.716-15-15-15H63.2
	c-34.849,0-63.2,28.352-63.2,63.201s28.352,63.199,63.2,63.199h32.134c8.284,0,15-6.716,15-15S103.618,281.168,95.334,281.168z"/>
<path style="fill:#FEDFD5;" d="M416.667,93.67c-8.284,0-15,6.716-15,15v0.502l-291.358,9.76
	c-0.267-8.049-6.859-14.498-14.975-14.498c-8.284,0-15,6.716-15,15v208.867c0,96.862,78.804,175.666,175.666,175.666
	c96.863,0,175.667-78.804,175.667-175.666V108.67C431.667,100.386,424.951,93.67,416.667,93.67z"/>
<path style="fill:#FDCDBF;" d="M416.667,93.67c-8.284,0-15,6.716-15,15v0.502l-145.664,4.879v389.916
	c96.862-0.002,175.664-78.805,175.664-175.666V108.67C431.667,100.386,424.951,93.67,416.667,93.67z"/>
<path style="fill:#FD413C;" d="M456.832,8.033H175.665c-52.566,0-95.333,42.767-95.333,95.334v16.066c0,8.284,6.716,15,15,15
	h281.166c52.567,0,95.334-42.767,95.334-95.334V23.033C471.832,14.749,465.116,8.033,456.832,8.033z"/>
<path style="fill:#F2F2F2;" d="M175.667,288.141c44.366,0,80.333-35.967,80.333-80.334H95.334
	C95.334,252.174,131.301,288.141,175.667,288.141z"/>
<path style="fill:#D9D9D9;" d="M256,207.807c0,44.367,35.967,80.334,80.334,80.334c44.366,0,80.333-35.967,80.333-80.334
	L256,207.807L256,207.807z"/>
<path style="fill:#3B211A;" d="M416.667,192.807H256H95.334c-8.284,0-15,6.716-15,15c0,52.567,42.767,95.334,95.333,95.334
	c33.702,0,63.376-17.58,80.333-44.051c16.958,26.471,46.631,44.051,80.334,44.051c52.566,0,95.333-42.767,95.333-95.334
	C431.667,199.523,424.951,192.807,416.667,192.807z M175.667,273.141c-30.864,0-56.799-21.516-63.596-50.334h127.191
	C232.466,251.625,206.531,273.141,175.667,273.141z M336.334,273.141c-30.864,0-56.8-21.516-63.597-50.334H399.93
	C393.133,251.625,367.198,273.141,336.334,273.141z"/>
<path style="fill:#FD413C;" d="M255.998,407.566c-22.488,0-43.458-12.099-54.728-31.574c-4.148-7.171-1.699-16.347,5.471-20.496
	c7.169-4.146,16.347-1.7,20.496,5.471c5.924,10.239,16.944,16.6,28.761,16.6c11.816,0,22.838-6.363,28.765-16.605
	c4.148-7.172,13.326-9.623,20.495-5.472c7.171,4.148,9.62,13.325,5.472,20.495C299.459,395.465,278.486,407.566,255.998,407.566z"/>
<g>
	<path style="fill:#DA0806;" d="M305.258,355.489c-7.171-4.15-16.348-1.701-20.497,5.469c-5.929,10.243-16.95,16.607-28.765,16.607
		v30c22.484-0.001,43.455-12.102,54.73-31.58C314.875,368.815,312.428,359.64,305.258,355.489z"/>
	<path style="fill:#DA0806;" d="M456.832,8.033H256.003v126.4h120.495c52.567,0,95.334-42.767,95.334-95.334V23.033
		C471.832,14.749,465.116,8.033,456.832,8.033z"/>
</g>
<path style="fill:#0F0301;" d="M336.334,303.141c52.566,0,95.333-42.767,95.333-95.334c0-8.284-6.716-15-15-15H256.003v66.287
	C272.961,285.563,302.633,303.141,336.334,303.141z M399.93,222.807c-6.797,28.818-32.731,50.334-63.596,50.334
	c-30.864,0-56.8-21.516-63.597-50.334L399.93,222.807L399.93,222.807z"/>
<g>
</g>
<g>
</g>
<g>
</g>
<g>
</g>
<g>
</g>
<g>
</g>
<g>
</g>
<g>
</g>
<g>
</g>
<g>
</g>
<g>
</g>
<g>
</g>
<g>
</g>
<g>
</g>
<g>
</g>
</svg>
