<?xml version="1.0" encoding="iso-8859-1"?>
<!-- Generator: Adobe Illustrator 19.0.0, SVG Export Plug-In . SVG Version: 6.00 Build 0)  -->
<svg version="1.1" id="Capa_1" xmlns="http://www.w3.org/2000/svg" xmlns:xlink="http://www.w3.org/1999/xlink" x="0px" y="0px"
	 viewBox="0 0 512 512" style="enable-background:new 0 0 512 512;" xml:space="preserve">
<path style="fill:#E6E9ED;" d="M383.08,358.245h-62.943v26.757c0,0.763-0.368,1.218-0.983,1.218c-0.183,0-0.38-0.037-0.588-0.112
	l-5.57-1.996c-0.11-0.04-0.225-0.059-0.337-0.059c-0.335,0-0.657,0.169-0.845,0.465c-0.25,0.395-0.193,0.911,0.138,1.242
	l18.094,18.095c3.625,3.627,3.625,9.528,0,13.155l-5.1,5.099c-1.75,1.749-4.086,2.713-6.578,2.713s-4.828-0.964-6.578-2.713
	l-50.26-50.262c-0.188-0.188-0.441-0.293-0.707-0.293h-9.645c-0.265,0-0.52,0.105-0.707,0.293l-50.262,50.262
	c-1.749,1.749-4.085,2.713-6.577,2.713c-2.493,0-4.829-0.964-6.578-2.713l-5.1-5.1c-3.626-3.626-3.626-9.527,0.001-13.155
	l18.095-18.095c0.331-0.331,0.388-0.847,0.138-1.242c-0.187-0.296-0.51-0.465-0.845-0.465c-0.113,0-0.227,0.019-0.337,0.059
	l-5.57,1.997c-0.208,0.075-0.405,0.112-0.587,0.112c-0.616,0-0.984-0.455-0.984-1.218v-26.757h-62.944
	c-8.499,0-15.453,6.954-15.453,15.453v128c0,5.666,4.636,10.302,10.302,10.302h264.463c5.666,0,10.302-4.636,10.302-10.302v-128
	C398.533,365.199,391.579,358.245,383.08,358.245z"/>
<path style="fill:#C5CCD3;" d="M261.529,371.847c-0.188-0.188-0.441-0.293-0.707-0.293h-9.645c-0.265,0-0.52,0.105-0.707,0.293
	l-1.971,1.971V512h15V373.817L261.529,371.847z"/>
<path style="fill:#312F56;" d="M200.209,422.108c-1.749,1.749-4.085,2.713-6.577,2.713c-2.493,0-4.829-0.964-6.578-2.713l-5.1-5.1
	c-3.626-3.626-3.626-9.527,0.001-13.155l18.095-18.095c0.331-0.331,0.388-0.847,0.138-1.242c-0.187-0.296-0.51-0.465-0.845-0.465
	c-0.113,0-0.227,0.019-0.337,0.059l-5.57,1.997c-0.208,0.075-0.405,0.112-0.587,0.112c-0.616,0-0.984-0.455-0.984-1.218v-26.757
	h-62.944c-8.499,0-15.453,6.954-15.453,15.453v116.41h3.585c49.694,0,90.928-36.189,98.805-83.648L200.209,422.108z"/>
<path style="fill:#FFC502;" d="M215.857,406.46c-7.877,47.46-49.111,83.648-98.805,83.648h-3.585v11.59
	c0,5.666,4.636,10.302,10.302,10.302h11.459c55.322,0,100.169-44.848,100.169-100.169v-24.91L215.857,406.46z"/>
<path style="fill:#FFFFFF;" d="M205.844,416.474c-11.439,38.207-46.912,66.135-88.792,66.135h-3.585v15h3.585
	c56.694,0,103.292-44.048,107.375-99.718L205.844,416.474z"/>
<g style="opacity:0.15;">
	<path style="fill:#440075;" d="M143.342,501.698v-128c0-8.499,6.954-15.453,15.453-15.453h-29.876
		c-8.499,0-15.453,6.954-15.453,15.453v128c0,5.666,4.636,10.302,10.302,10.302h11.459c4.771,0,9.463-0.342,14.057-0.986
		C145.785,509.362,143.342,505.807,143.342,501.698z"/>
</g>
<path style="fill:#312F56;" d="M383.08,358.245h-62.943v26.757c0,0.763-0.368,1.218-0.983,1.218c-0.183,0-0.38-0.037-0.588-0.112
	l-5.57-1.996c-0.11-0.04-0.225-0.059-0.337-0.059c-0.335,0-0.657,0.169-0.845,0.465c-0.25,0.395-0.193,0.911,0.138,1.242
	l18.094,18.095c3.625,3.627,3.625,9.528,0,13.155l-5.1,5.099c-1.75,1.749-4.086,2.713-6.578,2.713s-4.828-0.964-6.578-2.713
	l-15.646-15.647c7.877,47.459,49.111,83.647,98.805,83.647h3.586v-116.41C398.533,365.199,391.579,358.245,383.08,358.245z"/>
<path style="fill:#FFC502;" d="M394.947,490.108c-49.693,0-90.928-36.189-98.805-83.647l-19.539-19.539v24.909
	c0,55.321,44.848,100.169,100.169,100.169h11.459c5.666,0,10.302-4.636,10.302-10.302v-11.59H394.947z"/>
<path style="fill:#FFFFFF;" d="M394.947,482.608c-41.879,0-77.352-27.927-88.791-66.133l-18.584-18.585
	c4.084,55.671,50.68,99.718,107.375,99.718h3.586v-15L394.947,482.608L394.947,482.608z"/>
<g>
	<path style="fill:#B2762F;" d="M372.497,188.008h-13.224v51.283c0,8.229-0.973,16.234-2.801,23.912h16.024
		c13.454,0,24.358-10.906,24.358-24.359v-26.477C396.855,198.914,385.951,188.008,372.497,188.008z"/>
	<path style="fill:#B2762F;" d="M152.726,239.291v-51.283h-13.223c-13.454,0-24.359,10.906-24.359,24.359v26.477
		c0,13.453,10.905,24.359,24.359,24.359h16.023C153.699,255.525,152.726,247.52,152.726,239.291z"/>
</g>
<g>
	<path style="fill:#775436;" d="M373.451,217.544h-14.178v15h14.178c4.143,0,7.5-3.357,7.5-7.5S377.594,217.544,373.451,217.544z"/>
	<path style="fill:#775436;" d="M152.726,217.544h-14.177c-4.142,0-7.5,3.357-7.5,7.5s3.358,7.5,7.5,7.5h14.177V217.544z"/>
</g>
<path style="fill:#D19546;" d="M151.726,184v55.291c0,34.312,16.576,64.752,42.153,83.754l39.995,14.336
	c0.108,0.039,0.222,0.059,0.337,0.059h43.578c0.115,0,0.23-0.02,0.338-0.059l39.993-14.336
	c25.578-19.002,42.153-49.441,42.153-83.754V184H151.726z"/>
<path style="opacity:0.15;fill:#440075;enable-background:new    ;" d="M233.873,337.381c0.108,0.039,0.222,0.059,0.337,0.059h7.787
	C201.771,322.978,173,284.498,173,239.291V184h-21.274v55.291c0,34.312,16.576,64.752,42.153,83.754L233.873,337.381z"/>
<path style="fill:#312F56;" d="M321.699,277.571c-0.231-0.852-0.865-1.537-1.695-1.835l-39.112-14.043
	c-2.394,4.221-8.234,6.987-15.62,6.987h-10.185c-6.872,0-12.785-4.151-15.385-10.073l-47.705,17.129
	c-0.83,0.298-1.464,0.983-1.694,1.835c-0.232,0.852-0.034,1.763,0.531,2.439c0.585,0.703,14.651,17.196,42.635,17.196
	c9.347,0,17.061-3.549,22.532-10.317c5.471,6.769,13.185,10.317,22.532,10.317c27.982,0,42.05-16.493,42.635-17.196
	C321.731,279.334,321.93,278.423,321.699,277.571z"/>
<path style="fill:#5DC647;" d="M310.858,35.378c-0.481,0.584-0.957,1.126-1.373,1.546l-12.05,12.17
	c-1.195,1.208-3.153,1.208-4.348,0l-15.283-15.435c-1.195-1.208-3.152-1.208-4.348,0l-15.283,15.435
	c-1.195,1.208-3.152,1.208-4.349,0l-15.281-15.435c-1.196-1.208-3.153-1.208-4.349,0l-15.281,15.435
	c-1.196,1.208-3.153,1.208-4.349,0l-12.048-12.169c-0.408-0.412-0.935-0.877-1.507-1.344C186.397,57.629,176.306,88.314,173.435,123
	h165.129C335.685,88.209,325.542,57.44,310.858,35.378z"/>
<path style="fill:#FFC502;" d="M214.564,50.967c1.196,1.208,3.153,1.208,4.349,0l15.281-15.435c1.196-1.208,3.153-1.208,4.349,0
	l15.281,15.435c1.196,1.208,3.153,1.208,4.349,0l15.283-15.435c1.195-1.208,3.152-1.208,4.348,0l15.283,15.435
	c1.194,1.208,3.152,1.208,4.348,0l12.05-12.17c0.611-0.618,1.352-1.49,2.05-2.389C296.788,13.768,277.331,0,256,0
	c-21.458,0-41.019,13.935-55.797,36.816c0.878,0.668,1.719,1.381,2.313,1.982L214.564,50.967z"/>
<path style="fill:#046699;" d="M338.561,123c-0.794-9.586-2.133-18.871-3.972-27.75c-0.793-0.369-1.519-0.829-2.032-1.336
	l-15.466-15.249c-1.211-1.193-3.18-1.183-4.374,0.026l-15.282,15.435c-1.195,1.208-3.153,1.208-4.348,0l-15.283-15.435
	c-1.195-1.209-3.152-1.209-4.348,0l-15.283,15.435c-1.195,1.208-3.152,1.208-4.349,0l-15.281-15.435
	c-1.196-1.209-3.153-1.209-4.349,0l-15.281,15.435c-1.196,1.208-3.153,1.208-4.349,0l-15.281-15.435
	c-1.196-1.209-3.165-1.22-4.375-0.026l-15.464,15.249c-0.513,0.506-1.239,0.962-2.031,1.327c-1.841,8.881-3.18,18.169-3.974,27.759
	C173.439,123,338.561,123,338.561,123z"/>
<path style="opacity:0.15;fill:#440075;enable-background:new    ;" d="M194.539,123C199.804,59.392,229.35,9.231,266.534,1.148
	C263.083,0.398,259.569,0,256,0c-42.044,0-76.81,53.469-82.565,123H194.539z"/>
<path style="fill:#775436;" d="M265.271,269.681h-10.185c-9.816,0-17.802-7.985-17.802-17.802v-29.221c0-4.143,3.358-7.5,7.5-7.5
	s7.5,3.357,7.5,7.5v29.221c0,1.519,1.283,2.802,2.802,2.802h10.185c1.163,0,2.104-0.138,2.802-0.303v-2.026
	c0-4.143,3.357-7.5,7.5-7.5s7.5,3.357,7.5,7.5v4.915C283.073,264.46,275.587,269.681,265.271,269.681z"/>
<path style="fill:#135693;" d="M117.956,185.765c-17.618,0-34.851-6.09-48.524-17.147c-13.468-10.893-22.987-26.146-26.802-42.949
	c-0.208-0.916,0.013-1.878,0.599-2.612s1.475-1.162,2.415-1.162h420.712c0.94,0,1.829,0.428,2.415,1.162
	c0.587,0.734,0.807,1.696,0.599,2.612c-3.814,16.804-13.333,32.057-26.802,42.949c-13.673,11.058-30.905,17.147-48.525,17.147
	H117.956z"/>
<path style="fill:#FFC502;" d="M50.357,145.844h411.285c3.495-6.313,6.122-13.104,7.727-20.176c0.208-0.916-0.012-1.878-0.599-2.612
	c-0.586-0.734-1.476-1.162-2.415-1.162H45.644c-0.94,0-1.829,0.428-2.415,1.162c-0.586,0.734-0.807,1.696-0.599,2.612
	C44.235,132.74,46.863,139.531,50.357,145.844z"/>
<path style="fill:#EF5050;" d="M353.85,178.477l-19.314-19.314l-19.314,19.314l-19.314-19.314l-19.315,19.314l-19.314-19.314
	l-19.314,19.314l-19.314-19.314l-19.314,19.314l-19.315-19.314l-19.314,19.314l-19.314-19.314l-19.314,19.314l-19.314-19.314
	l-18.729,18.73c10.501,5.127,22.122,7.871,33.923,7.871h276.088c12.441,0,24.684-3.05,35.622-8.728l-17.873-17.874l-19.315,19.314
	l-19.313-19.314L353.85,178.477z"/>
<g>
	<path style="fill:#775436;" d="M221.174,229.148c-4.142,0-7.5-3.357-7.5-7.5c0-4.757-3.871-8.627-8.628-8.627
		c-4.758,0-8.629,3.87-8.629,8.627c0,4.143-3.358,7.5-7.5,7.5s-7.5-3.357-7.5-7.5c0-13.028,10.6-23.627,23.629-23.627
		c13.029,0,23.628,10.599,23.628,23.627C228.674,225.791,225.316,229.148,221.174,229.148z"/>
	<path style="fill:#775436;" d="M323.084,229.148c-4.143,0-7.5-3.357-7.5-7.5c0-4.757-3.871-8.627-8.629-8.627
		s-8.628,3.87-8.628,8.627c0,4.143-3.357,7.5-7.5,7.5s-7.5-3.357-7.5-7.5c0-13.028,10.6-23.627,23.628-23.627
		c13.029,0,23.629,10.599,23.629,23.627C330.584,225.791,327.227,229.148,323.084,229.148z"/>
</g>
<g>
	<path style="fill:#960B15;" d="M234.211,371.554c-0.115,0-0.229,0.02-0.337,0.059l-32.875,11.784l-19.75,19.75
		c-4.006,4.008-4.007,10.563,0,14.569l5.1,5.1c4.006,4.008,10.563,4.008,14.569,0l51.262-51.262H234.211z"/>
	<path style="fill:#960B15;" d="M330.752,403.147l-19.751-19.752l-32.874-11.783c-0.108-0.039-0.223-0.059-0.338-0.059h-17.967
		l51.26,51.262c4.008,4.008,10.563,4.008,14.57,0l5.1-5.099C334.758,413.71,334.758,407.155,330.752,403.147z"/>
</g>
<path style="fill:#C0272D;" d="M318.227,321.944l-40.438,14.495h-43.578l-40.438-14.495c-1.6-0.574-2.909,0.348-2.909,2.048v61.01
	c0,1.7,1.31,2.622,2.909,2.047l40.438-14.495h43.578l40.438,14.495c1.601,0.575,2.909-0.347,2.909-2.047v-61.01
	C321.137,322.292,319.828,321.37,318.227,321.944z"/>
<rect x="234.21" y="336.44" style="fill:#EF5050;" width="43.578" height="36.11"/>
<g>
</g>
<g>
</g>
<g>
</g>
<g>
</g>
<g>
</g>
<g>
</g>
<g>
</g>
<g>
</g>
<g>
</g>
<g>
</g>
<g>
</g>
<g>
</g>
<g>
</g>
<g>
</g>
<g>
</g>
</svg>
