<?xml version="1.0" encoding="iso-8859-1"?>
<!-- Generator: Adobe Illustrator 19.0.0, SVG Export Plug-In . SVG Version: 6.00 Build 0)  -->
<svg version="1.1" id="Capa_1" xmlns="http://www.w3.org/2000/svg" xmlns:xlink="http://www.w3.org/1999/xlink" x="0px" y="0px"
	 viewBox="0 0 512 512" style="enable-background:new 0 0 512 512;" xml:space="preserve">
<path style="fill:#3B211A;" d="M416.667,297.233c-8.284,0-15,6.716-15,15H110.334c0-8.284-6.716-15-15-15s-15,6.716-15,15v176.732
	c0,8.284,6.716,15,15,15h321.333c8.284,0,15-6.716,15-15V312.233C431.667,303.949,424.951,297.233,416.667,297.233z"/>
<path style="fill:#0F0301;" d="M416.667,297.233c-8.284,0-15,6.716-15,15H256v191.732h160.667c8.284,0,15-6.716,15-15V312.233
	C431.667,303.949,424.951,297.233,416.667,297.233z"/>
<path style="fill:#E37C5D;" d="M448.801,200.833h-32.134c-8.284,0-15,6.716-15,15s6.716,15,15,15v66.4c-8.284,0-15,6.716-15,15
	s6.716,15,15,15h32.134c34.848,0,63.199-28.351,63.199-63.199C512,229.185,483.648,200.833,448.801,200.833z"/>
<path style="fill:#ED9A81;" d="M95.334,297.233v-66.4c8.284,0,15-6.716,15-15s-6.716-15-15-15H63.2
	c-34.849,0-63.2,28.352-63.2,63.201s28.352,63.199,63.2,63.199h32.134c8.284,0,15-6.716,15-15S103.618,297.233,95.334,297.233z"/>
<path style="fill:#F7AF99;" d="M427.559,189.453l-64.289-67.892c-0.147-0.156-0.298-0.309-0.452-0.458l-87.19-84.506
	c-3.906-3.787-9.556-5.16-14.767-3.592l-73.454,22.133c-3.037,0.915-5.705,2.769-7.623,5.296l-96.398,127.05
	c-1.98,2.608-3.051,5.792-3.051,9.066V328.3c0,96.862,78.803,175.666,175.666,175.666S431.667,425.162,431.667,328.3V199.767
	C431.667,195.93,430.197,192.239,427.559,189.453z"/>
<path style="fill:#ED9A81;" d="M427.559,189.453l-64.289-67.892c-0.147-0.156-0.298-0.309-0.452-0.458l-87.19-84.506
	c-3.906-3.787-9.556-5.16-14.767-3.592L256,34.471v469.495c96.863,0,175.667-78.804,175.667-175.666V199.767
	C431.667,195.93,430.197,192.239,427.559,189.453z"/>
<path style="fill:#3B211A;" d="M191.736,254.938c-3.951,0-7.82-1.601-10.61-4.391c-2.79-2.79-4.39-6.659-4.39-10.609
	c0-3.94,1.6-7.811,4.39-10.601s6.659-4.399,10.61-4.399c3.949,0,7.81,1.609,10.6,4.399c2.8,2.79,4.4,6.66,4.4,10.601
	c0,3.95-1.601,7.819-4.4,10.609C199.556,253.337,195.686,254.938,191.736,254.938z"/>
<path style="fill:#0F0301;" d="M320.266,254.938c-3.949,0-7.82-1.601-10.609-4.391c-2.791-2.79-4.391-6.659-4.391-10.609
	s1.6-7.811,4.391-10.601c2.789-2.79,6.66-4.399,10.609-4.399c3.95,0,7.82,1.609,10.61,4.399c2.79,2.79,4.39,6.66,4.39,10.601
	c0,3.95-1.6,7.819-4.39,10.609C328.086,253.337,324.216,254.938,320.266,254.938z"/>
<g>
	<path style="fill:#3B211A;" d="M332.899,484.401c-8.284,0-15-6.716-15-15V354.183c-19.26-9.037-40.483-13.781-61.898-13.781
		c-21.416,0-42.64,4.744-61.899,13.781v115.219c0,8.284-6.716,15-15,15s-15-6.716-15-15V344.979c0-5.486,2.995-10.535,7.811-13.164
		c25.648-14.009,54.725-21.413,84.089-21.413c29.363,0,58.44,7.404,84.089,21.413c4.814,2.629,7.81,7.678,7.81,13.164v124.423
		C347.899,477.686,341.184,484.401,332.899,484.401z"/>
	<path style="fill:#3B211A;" d="M256,8.034c-12.006,0-24.006,1.221-35.666,3.629c-12.961,2.674-25.646,6.844-37.705,12.396
		c-30.098,13.854-55.609,35.869-73.777,63.667c-18.656,28.547-28.518,61.733-28.518,95.974v12.852c0,4.501,2.021,8.765,5.507,11.614
		c3.485,2.849,8.065,3.983,12.478,3.086c51.805-10.517,95.955-44.158,120.313-90.248c48.416,59.149,120.656,93.764,198.036,93.764
		c8.284,0,15-6.716,15-15v-16.067C431.667,86.837,352.863,8.034,256,8.034z"/>
</g>
<path style="fill:#ED9A81;" d="M272.066,407.566h-32.133c-8.284,0-15-6.716-15-15s6.716-15,15-15h32.133c8.284,0,15,6.716,15,15
	S280.351,407.566,272.066,407.566z"/>
<path style="fill:#E37C5D;" d="M272.066,377.566H256v30h16.066c8.284,0,15-6.716,15-15S280.351,377.566,272.066,377.566z"/>
<g>
	<path style="fill:#0F0301;" d="M256.001,340.401c21.415,0,42.639,4.744,61.898,13.781v115.219c0,8.284,6.716,15,15,15
		s15-6.716,15-15V344.979c0-5.486-2.995-10.535-7.81-13.164c-25.648-14.009-54.726-21.413-84.089-21.413h0v30h0.001V340.401z"/>
	<path style="fill:#0F0301;" d="M256,8.034V158.1c44.895,36.245,101.259,56.667,160.667,56.667c8.284,0,15-6.716,15-15V183.7
		C431.667,86.837,352.863,8.034,256,8.034z"/>
</g>
<g>
</g>
<g>
</g>
<g>
</g>
<g>
</g>
<g>
</g>
<g>
</g>
<g>
</g>
<g>
</g>
<g>
</g>
<g>
</g>
<g>
</g>
<g>
</g>
<g>
</g>
<g>
</g>
<g>
</g>
</svg>
