<?xml version="1.0" encoding="iso-8859-1"?>
<!-- Generator: Adobe Illustrator 19.0.0, SVG Export Plug-In . SVG Version: 6.00 Build 0)  -->
<svg version="1.1" id="Capa_1" xmlns="http://www.w3.org/2000/svg" xmlns:xlink="http://www.w3.org/1999/xlink" x="0px" y="0px"
	 viewBox="0 0 512 512" style="enable-background:new 0 0 512 512;" xml:space="preserve">
<path style="fill:#775436;" d="M201,317.571c-21.331-13.477-37.41-34.542-44.411-59.377H141.44
	c-5.064,7.643-8.032,16.793-8.032,26.65c0,26.741,21.678,48.419,48.419,48.419c6.814,0,13.294-1.416,19.173-3.96V317.571z"/>
<path style="fill:#E6E9ED;" d="M312.25,366v-49.228c-16.195,10.559-35.517,16.705-56.25,16.705
	c-20.733,0-40.055-6.146-56.249-16.705V366H312.25z"/>
<path style="fill:#FFFFFF;" d="M269.678,366v-33.431c-4.477,0.595-9.042,0.907-13.678,0.907c-20.733,0-40.055-6.146-56.249-16.705
	V366H269.678z"/>
<path style="opacity:0.15;fill:#440075;enable-background:new    ;" d="M226.249,366v-36.898c-9.475-2.855-18.38-7.037-26.499-12.33
	V366H226.249z"/>
<path style="fill:#C5CCD3;" d="M141.777,512c-2.845,0-5.151-2.306-5.151-5.15V395.074c0-17.041,13.865-30.905,30.905-30.905h176.937
	c17.041,0,30.905,13.864,30.905,30.905V506.85c0,2.845-2.306,5.15-5.151,5.15H141.777z"/>
<path style="fill:#E6E9ED;" d="M310.346,506.85V395.074c0-17.041-13.865-30.905-30.906-30.905H167.531
	c-17.04,0-30.905,13.864-30.905,30.905V506.85c0,2.845,2.306,5.15,5.151,5.15h163.418C308.04,512,310.346,509.694,310.346,506.85z"
	/>
<g style="opacity:0.15;">
	<path style="fill:#440075;" d="M166.374,506.85V395.074c0-17.041,13.865-30.905,30.906-30.905h-29.749
		c-17.04,0-30.905,13.864-30.905,30.905V506.85c0,2.845,2.306,5.15,5.151,5.15h29.749C168.68,512,166.374,509.694,166.374,506.85z"
		/>
</g>
<g>
	<path style="fill:#FFB98A;" d="M152.726,230.202v-45.914h-13.223c-13.453,0-24.359,10.906-24.359,24.358v26.477
		c0,13.452,10.906,24.358,24.359,24.358h17.458C154.21,250.195,152.726,240.369,152.726,230.202z"/>
	<path style="fill:#FFB98A;" d="M372.498,184.288h-13.224v45.914c0,10.167-1.484,19.993-4.234,29.28h17.458
		c13.453,0,24.358-10.906,24.358-24.358v-26.477C396.856,195.194,385.951,184.288,372.498,184.288z"/>
</g>
<g>
	<path style="fill:#D19546;" d="M152.726,213.824h-14.177c-4.142,0-7.5,3.357-7.5,7.5s3.358,7.5,7.5,7.5h14.177V213.824z"/>
	<path style="fill:#D19546;" d="M373.451,213.824h-14.177v15h14.177c4.142,0,7.5-3.357,7.5-7.5
		C380.951,217.182,377.593,213.824,373.451,213.824z"/>
</g>
<path style="fill:#FFC7A9;" d="M151.726,154v76.202c0,57.59,46.686,104.274,104.274,104.274
	c57.589,0,104.274-46.685,104.274-104.274V154H151.726z"/>
<path style="opacity:0.15;fill:#440075;enable-background:new    ;" d="M177.254,230.202V154h-25.528v76.202
	c0,57.59,46.686,104.274,104.274,104.274c4.322,0,8.581-0.268,12.765-0.778C217.198,327.403,177.254,283.47,177.254,230.202z"/>
<g>
	<path style="fill:#775436;" d="M151.726,154v35.212c18.369-3.473,33.069-17.314,37.78-35.212H151.726z"/>
	<path style="fill:#775436;" d="M322.494,154c4.71,17.898,19.411,31.739,37.78,35.212V154H322.494z"/>
</g>
<path style="fill:#D2957D;" d="M267.816,271.934h-8.998c-9.097,0-16.499-7.986-16.499-17.802v-17.729c0-4.143,3.358-7.5,7.5-7.5
	s7.5,3.357,7.5,7.5v17.729c0,1.743,1.041,2.802,1.499,2.802h8.998c4.142,0,7.5,3.357,7.5,7.5S271.958,271.934,267.816,271.934z"/>
<g>
	<path style="fill:#775436;" d="M227.264,210.524c-1.92,0-3.839-0.732-5.303-2.196c-4.547-4.548-10.587-7.052-17.006-7.052
		c-6.419,0-12.459,2.504-17.005,7.051c-2.93,2.93-7.677,2.929-10.607,0.001c-2.929-2.929-2.929-7.678-0.001-10.606
		c7.38-7.381,17.187-11.445,27.613-11.445c10.426,0,20.232,4.064,27.613,11.444c2.929,2.93,2.929,7.678,0,10.607
		C231.103,209.792,229.184,210.524,227.264,210.524z"/>
	<path style="fill:#775436;" d="M329.354,210.524c-1.919,0-3.839-0.732-5.303-2.196c-4.547-4.548-10.587-7.052-17.006-7.052
		s-12.459,2.504-17.005,7.051c-2.93,2.93-7.677,2.929-10.607,0.001c-2.929-2.929-2.929-7.678,0-10.606
		c7.38-7.381,17.187-11.445,27.613-11.445c10.426,0,20.232,4.064,27.613,11.444c2.929,2.93,2.929,7.678,0,10.607
		C333.193,209.792,331.274,210.524,329.354,210.524z"/>
</g>
<g>
	<path style="fill:#046699;" d="M204.955,254.229c-11.791,0-21.384-9.617-21.384-21.438s9.593-21.438,21.384-21.438
		s21.383,9.617,21.383,21.438S216.746,254.229,204.955,254.229z"/>
	<path style="fill:#046699;" d="M307.046,254.229c-11.792,0-21.384-9.617-21.384-21.438s9.593-21.438,21.384-21.438
		c11.791,0,21.383,9.617,21.383,21.438S318.837,254.229,307.046,254.229z"/>
</g>
<path style="fill:#D2957D;" d="M282.141,301.617h-49.925c-4.142,0-7.5-3.357-7.5-7.5s3.358-7.5,7.5-7.5h49.925
	c4.142,0,7.5,3.357,7.5,7.5S286.283,301.617,282.141,301.617z"/>
<path style="fill:#E6E9ED;" d="M401.771,76.233c0-24.18-19.602-43.782-43.783-43.782h-32.394C320.599,13.765,303.56,0,283.3,0h-54.6
	c-20.261,0-37.299,13.765-42.294,32.451h-32.394c-24.181,0-43.783,19.603-43.783,43.782c0,23.413,18.379,42.534,41.497,43.724
	v35.395h208.547v-35.395C383.392,118.768,401.771,99.646,401.771,76.233z"/>
<g>
	<path style="fill:#FFFFFF;" d="M205.176,133.408v-21.634c0-4.143-3.358-7.5-7.5-7.5s-7.5,3.357-7.5,7.5v21.634H205.176z"/>
	<path style="fill:#FFFFFF;" d="M241.999,133.408v-21.634c0-4.143-3.358-7.5-7.5-7.5s-7.5,3.357-7.5,7.5v21.634H241.999z"/>
	<path style="fill:#FFFFFF;" d="M278.82,133.408v-21.634c0-4.143-3.358-7.5-7.5-7.5c-4.142,0-7.5,3.357-7.5,7.5v21.634H278.82z"/>
	<path style="fill:#FFFFFF;" d="M315.643,133.408v-21.634c0-4.143-3.358-7.5-7.5-7.5c-4.142,0-7.5,3.357-7.5,7.5v21.634H315.643z"/>
</g>
<rect x="151.73" y="133.41" style="fill:#C5CCD3;" width="208.55" height="21.943"/>
<g style="opacity:0.15;">
	<path style="fill:#440075;" d="M171.815,155.352v-50.126c0-2.741-2.148-5.003-4.886-5.144
		c-20.529-1.057-36.611-18.003-36.611-38.58c0-10.627,4.314-20.264,11.281-27.256c-18.133,5.354-31.37,22.12-31.37,41.987
		c0,23.413,18.379,42.534,41.497,43.724v35.395H171.815z"/>
</g>
<g>
	<path style="fill:#135693;" d="M280.72,406.7c-1.97,0-3.9-0.801-5.3-2.2c-1.4-1.4-2.2-3.33-2.2-5.3c0-1.98,0.8-3.91,2.2-5.311
		c1.39-1.39,3.33-2.189,5.3-2.189c1.98,0,3.91,0.8,5.31,2.189c1.39,1.4,2.2,3.33,2.2,5.311c0,1.97-0.81,3.899-2.2,5.3
		C284.63,405.899,282.7,406.7,280.72,406.7z"/>
	<path style="fill:#135693;" d="M280.73,448.93c-1.98,0-3.91-0.8-5.31-2.189c-1.4-1.4-2.2-3.33-2.2-5.311c0-1.97,0.8-3.91,2.2-5.3
		c1.4-1.4,3.33-2.2,5.31-2.2c1.97,0,3.9,0.8,5.3,2.2c1.39,1.39,2.19,3.33,2.19,5.3s-0.8,3.91-2.19,5.311
		C284.63,448.13,282.7,448.93,280.73,448.93z"/>
	<path style="fill:#135693;" d="M280.73,491.17c-1.98,0-3.91-0.8-5.31-2.2c-1.4-1.39-2.2-3.33-2.2-5.3s0.8-3.91,2.2-5.3
		c1.4-1.4,3.33-2.2,5.31-2.2c1.97,0,3.9,0.8,5.3,2.2c1.39,1.39,2.2,3.33,2.2,5.3s-0.81,3.899-2.2,5.3
		C284.63,490.37,282.7,491.17,280.73,491.17z"/>
	<path style="fill:#135693;" d="M249.82,406.7c-1.98,0-3.91-0.801-5.3-2.2c-1.4-1.4-2.2-3.33-2.2-5.3c0-1.98,0.8-3.91,2.2-5.311
		c1.39-1.39,3.32-2.189,5.3-2.189c1.97,0,3.91,0.8,5.3,2.189c1.4,1.4,2.2,3.33,2.2,5.311c0,1.97-0.8,3.899-2.2,5.3
		C253.72,405.899,251.79,406.7,249.82,406.7z"/>
	<path style="fill:#135693;" d="M249.82,448.93c-1.97,0-3.91-0.8-5.3-2.189c-1.4-1.4-2.2-3.33-2.2-5.311c0-1.97,0.8-3.91,2.2-5.3
		c1.39-1.4,3.33-2.2,5.3-2.2s3.91,0.8,5.3,2.2c1.4,1.39,2.2,3.33,2.2,5.3c0,1.98-0.8,3.91-2.2,5.311
		C253.73,448.13,251.79,448.93,249.82,448.93z"/>
	<path style="fill:#135693;" d="M249.82,491.17c-1.97,0-3.91-0.8-5.31-2.2c-1.39-1.39-2.19-3.33-2.19-5.3s0.8-3.91,2.19-5.3
		c1.4-1.4,3.34-2.2,5.31-2.2s3.91,0.8,5.3,2.2c1.4,1.39,2.2,3.319,2.2,5.3c0,1.97-0.8,3.91-2.2,5.3
		C253.73,490.37,251.79,491.17,249.82,491.17z"/>
</g>
<path style="fill:#FFC502;" d="M209.256,457.255c-0.492,0-0.985-0.118-1.438-0.355l-14.548-7.647l-14.548,7.647
	c-0.452,0.237-0.946,0.355-1.438,0.355c-0.641,0-1.279-0.199-1.817-0.591c-0.952-0.691-1.429-1.863-1.23-3.022l2.779-16.2
	l-11.77-11.472c-0.842-0.821-1.146-2.049-0.782-3.168c0.363-1.118,1.331-1.935,2.495-2.104l16.266-2.364l7.273-14.738
	c0.521-1.055,1.595-1.723,2.771-1.723c1.177,0,2.251,0.668,2.772,1.723l7.273,14.738l16.266,2.364
	c1.164,0.169,2.131,0.985,2.495,2.104c0.363,1.119,0.06,2.347-0.782,3.168l-11.77,11.472l2.779,16.2
	c0.199,1.159-0.278,2.331-1.23,3.022C210.535,457.056,209.898,457.255,209.256,457.255z"/>
<g>
</g>
<g>
</g>
<g>
</g>
<g>
</g>
<g>
</g>
<g>
</g>
<g>
</g>
<g>
</g>
<g>
</g>
<g>
</g>
<g>
</g>
<g>
</g>
<g>
</g>
<g>
</g>
<g>
</g>
</svg>
