<?xml version="1.0" encoding="iso-8859-1"?>
<!-- Generator: Adobe Illustrator 19.0.0, SVG Export Plug-In . SVG Version: 6.00 Build 0)  -->
<svg version="1.1" id="Capa_1" xmlns="http://www.w3.org/2000/svg" xmlns:xlink="http://www.w3.org/1999/xlink" x="0px" y="0px"
	 viewBox="0 0 512 512" style="enable-background:new 0 0 512 512;" xml:space="preserve">
<path style="fill:#693FBA;" d="M256,0c-71.22,0-128.954,57.735-128.954,128.955v258.773c4.133-2.557,8.64-4.637,13.468-6.137
	c0.252-0.078,0.463-0.253,0.586-0.486c5.217-9.83,15.345-15.937,26.431-15.937h55.077v-45.637c10.749,3.644,21.975,5.49,33.392,5.49
	c11.418,0,22.644-1.847,33.392-5.49v45.637h55.077c11.086,0,21.213,6.106,26.431,15.937c0.123,0.233,0.334,0.408,0.586,0.486
	c4.828,1.5,9.335,3.58,13.468,6.137V128.955C384.954,57.735,327.22,0,256,0z"/>
<path style="opacity:0.15;fill:#030005;enable-background:new    ;" d="M140.514,381.592c0.252-0.078,0.463-0.253,0.586-0.486
	c1.689-3.182,3.898-5.966,6.482-8.287V128.955c0-67.732,52.219-123.263,118.594-128.54C262.818,0.148,259.427,0,256,0
	c-71.22,0-128.954,57.735-128.954,128.955v258.773C131.179,385.172,135.686,383.092,140.514,381.592z"/>
<g>
	<path style="fill:#42238E;" d="M179.298,118V93.343c0-4.143-3.358-7.5-7.5-7.5s-7.5,3.357-7.5,7.5V118H179.298z"/>
	<path style="fill:#42238E;" d="M207.365,118V93.343c0-4.143-3.358-7.5-7.5-7.5s-7.5,3.357-7.5,7.5V118H207.365z"/>
	<path style="fill:#42238E;" d="M235.433,118V93.343c0-4.143-3.358-7.5-7.5-7.5s-7.5,3.357-7.5,7.5V118H235.433z"/>
	<path style="fill:#42238E;" d="M263.5,118V93.343c0-4.143-3.358-7.5-7.5-7.5c-4.142,0-7.5,3.357-7.5,7.5V118H263.5z"/>
	<path style="fill:#42238E;" d="M291.567,118V93.343c0-4.143-3.358-7.5-7.5-7.5s-7.5,3.357-7.5,7.5V118H291.567z"/>
	<path style="fill:#42238E;" d="M319.635,118V93.343c0-4.143-3.358-7.5-7.5-7.5s-7.5,3.357-7.5,7.5V118H319.635z"/>
	<path style="fill:#42238E;" d="M347.702,118V93.343c0-4.143-3.358-7.5-7.5-7.5s-7.5,3.357-7.5,7.5V118H347.702z"/>
</g>
<g>
	<path style="fill:#FFB98A;" d="M115.487,506.85c0,2.832,2.318,5.15,5.151,5.15h16.988v-38.662h-22.139
		C115.487,473.338,115.487,506.85,115.487,506.85z"/>
	<path style="fill:#FFB98A;" d="M374.374,473.338V512h16.988c2.833,0,5.151-2.318,5.151-5.15v-33.512H374.374z"/>
</g>
<g>
	<path style="fill:#EF5050;" d="M107.654,471.308c0,1.7,1.391,3.091,3.091,3.091h26.881V450.06h-29.972
		C107.654,450.06,107.654,471.308,107.654,471.308z"/>
	<path style="fill:#EF5050;" d="M374.374,450.06v24.338h26.881c1.7,0,3.091-1.391,3.091-3.091V450.06H374.374z"/>
</g>
<g>
	<path style="fill:#312F56;" d="M370.425,380.25c2.507,4.373,3.949,9.432,3.949,14.824v56.236h34.739c2.203,0,3.99-1.775,3.99-3.965
		v-10.898C413.103,409.784,395.033,387.25,370.425,380.25z"/>
	<path style="fill:#312F56;" d="M137.626,395.074c0-5.393,1.442-10.451,3.949-14.824c-24.608,7-42.678,29.534-42.678,56.197v10.898
		c0,2.189,1.787,3.965,3.99,3.965h34.739V395.074z"/>
</g>
<path style="fill:#C0272D;" d="M344.469,364.169h-55.077v2.782c0,1.561-0.525,4.094-1.147,5.528l-26.627,61.407h12.325
	c0.113,0,0.226-0.02,0.333-0.057l33.298-11.761c0.155-0.056,0.297-0.083,0.427-0.083c0.553,0,0.636,0.518,0.636,0.826v50.238
	c0,0.283-0.071,0.517-0.2,0.657c-0.103,0.113-0.25,0.17-0.436,0.17l0,0c-0.129,0-0.272-0.027-0.423-0.081l-33.301-11.765
	c-0.107-0.037-0.22-0.057-0.333-0.057h-35.886c-0.113,0-0.226,0.02-0.333,0.057l-33.298,11.763
	c-0.155,0.056-0.297,0.083-0.426,0.083c-0.554,0-0.636-0.518-0.636-0.827v-50.238c0-0.309,0.083-0.826,0.636-0.826
	c0.129,0,0.271,0.027,0.423,0.081l33.302,11.763c0.107,0.037,0.22,0.057,0.333,0.057h12.325l-26.627-61.407
	c-0.622-1.436-1.147-3.967-1.147-5.528v-2.782h-55.077c-17.04,0-30.905,13.864-30.905,30.905V512h238.748V395.074
	C375.374,378.033,361.509,364.169,344.469,364.169z"/>
<g style="opacity:0.15;">
	<path style="fill:#440075;" d="M197.533,364.169h-30.002c-17.04,0-30.905,13.864-30.905,30.905V512h30.002V395.074
		C166.628,378.033,180.493,364.169,197.533,364.169z"/>
</g>
<path style="fill:#312F56;" d="M292.539,364.169h-3.147v2.782c0,1.561-0.525,4.094-1.147,5.528l-26.627,61.407h12.325
	c0.113,0,0.226-0.02,0.333-0.057l33.298-11.761c0.155-0.056,0.297-0.083,0.427-0.083c0.553,0,0.636,0.518,0.636,0.826v50.238
	c0,0.283-0.071,0.517-0.2,0.657c-0.103,0.113-0.25,0.17-0.436,0.17l0,0c-0.129,0-0.272-0.027-0.423-0.081l-33.301-11.765
	c-0.107-0.037-0.22-0.057-0.333-0.057h-35.886c-0.113,0-0.226,0.02-0.333,0.057l-33.298,11.763
	c-0.155,0.056-0.297,0.083-0.426,0.083c-0.554,0-0.636-0.518-0.636-0.827v-50.238c0-0.309,0.083-0.826,0.636-0.826
	c0.129,0,0.271,0.027,0.423,0.081l33.302,11.763c0.107,0.037,0.22,0.057,0.333,0.057h12.325l-26.627-61.407
	c-0.622-1.436-1.147-3.967-1.147-5.528v-2.782h-3.147l-82.835,120.956V512h238.748v-26.875L292.539,364.169z"/>
<path style="fill:#960B15;" d="M349.871,447.885c-11.125-7.328-24.438-11.603-38.756-11.603c-0.83,0-1.655,0.02-2.478,0.047v36.723
	c0,0.283-0.071,0.517-0.2,0.657c-0.103,0.113-0.25,0.17-0.436,0.17l0,0c-0.129,0-0.272-0.027-0.423-0.081l-33.301-11.765
	c-0.107-0.037-0.22-0.057-0.333-0.057h-35.886c-0.113,0-0.226,0.02-0.333,0.057l-33.298,11.763
	c-0.155,0.056-0.297,0.083-0.426,0.083c-0.554,0-0.636-0.518-0.636-0.827v-36.723c-0.823-0.027-1.648-0.047-2.479-0.047
	c-14.318,0-27.631,4.275-38.756,11.603l-25.503,37.24V512h238.748v-26.875L349.871,447.885z"/>
<path style="fill:#EF5050;" d="M307.241,421.126l-33.298,11.761h-35.886l-33.298-11.761c-1.317-0.472-2.395,0.287-2.395,1.686
	v50.238c0,1.4,1.078,2.158,2.395,1.688l33.298-11.763h35.886l33.298,11.763c1.317,0.471,2.396-0.287,2.396-1.688v-50.238
	C309.636,421.413,308.558,420.654,307.241,421.126z"/>
<g>
	<path style="fill:#FFB98A;" d="M152.726,220.747v-37.043h-10.575c-13.148,0-23.806,10.658-23.806,23.805v25.876
		c0,13.146,10.658,23.805,23.806,23.805h17.221C155.081,245.852,152.726,233.57,152.726,220.747z"/>
	<path style="fill:#FFB98A;" d="M369.85,183.704h-10.576v37.043c0,12.823-2.356,25.104-6.646,36.442h17.222
		c13.147,0,23.805-10.658,23.805-23.805v-25.876C393.655,194.362,382.997,183.704,369.85,183.704z"/>
</g>
<g>
	<path style="fill:#D19546;" d="M152.726,220.747v-8.362h-14.177c-4.142,0-7.5,3.357-7.5,7.5s3.358,7.5,7.5,7.5h14.396
		C152.805,225.189,152.726,222.977,152.726,220.747z"/>
	<path style="fill:#D19546;" d="M373.452,212.385h-14.177v8.362c0,2.23-0.079,4.442-0.219,6.638h14.397c4.142,0,7.5-3.357,7.5-7.5
		C380.952,215.742,377.594,212.385,373.452,212.385z"/>
</g>
<g>
	<path style="fill:#FFB98A;" d="M221.608,366.951c0,1.7,0.554,4.366,1.23,5.926l26.454,61.01h13.416l26.455-61.01
		c0.676-1.56,1.229-4.226,1.229-5.926v-5.873h-68.784V366.951z"/>
	<path style="fill:#FFB98A;" d="M256,324.022c-12.054,0-23.628-2.083-34.392-5.895v24.433h68.784v-24.433
		C279.628,321.94,268.054,324.022,256,324.022z"/>
</g>
<path style="fill:#FFC7A9;" d="M256,325.022c-57.498,0-104.274-46.778-104.274-104.275v-98.635c0-2.845,2.306-5.15,5.151-5.15
	h198.247c2.845,0,5.151,2.306,5.151,5.15v98.635C360.274,278.244,313.498,325.022,256,325.022z"/>
<path style="opacity:0.15;fill:#440075;enable-background:new    ;" d="M170.901,220.747v-98.635c0-2.845,2.306-5.15,5.151-5.15
	h-19.176c-2.845,0-5.151,2.306-5.151,5.15v98.635c0,57.497,46.777,104.275,104.274,104.275c3.208,0,6.377-0.165,9.511-0.452
	C212.528,319.678,170.901,274.985,170.901,220.747z"/>
<path style="fill:#FFFFFF;" d="M318.286,221.75c-12.648,4.605-26.83,1.977-37.011-6.856c-0.807-0.7-1.195-1.767-1.027-2.821
	c2.122-13.31,11.297-24.44,23.945-29.044c12.647-4.603,26.83-1.974,37.012,6.858c0.807,0.699,1.195,1.766,1.027,2.82
	C340.109,206.018,330.934,217.148,318.286,221.75z"/>
<ellipse transform="matrix(0.342 0.9397 -0.9397 0.342 387.5836 -161.2923)" style="fill:#046699;" cx="308.964" cy="196.111" rx="13.938" ry="13.883"/>
<path style="fill:#312F56;" d="M346.119,184.221c-8.122-7.044-18.516-10.924-29.268-10.924c-5.208,0-10.33,0.903-15.224,2.684
	c-15.206,5.534-26.235,18.912-28.786,34.912c-0.58,3.639,0.736,7.252,3.519,9.666c7.743,6.718,17.553,10.548,27.77,10.891v21.46
	c0,4.143,3.358,7.5,7.5,7.5s7.5-3.357,7.5-7.5v-23.527c0.576-0.184,1.15-0.376,1.721-0.584c15.206-5.533,26.236-18.91,28.788-34.911
	C350.218,190.246,348.901,186.632,346.119,184.221z M315.721,214.702c-3.246,1.182-6.642,1.78-10.096,1.78
	c-6.3,0-12.415-2.005-17.47-5.69c2.357-9.521,9.304-17.331,18.604-20.716c3.244-1.181,6.64-1.779,10.093-1.779
	c6.3,0,12.415,2.006,17.474,5.692C331.968,203.51,325.021,211.318,315.721,214.702z"/>
<path style="fill:#FFFFFF;" d="M193.714,221.75c12.648,4.605,26.83,1.977,37.011-6.856c0.807-0.7,1.195-1.767,1.027-2.821
	c-2.122-13.31-11.297-24.44-23.945-29.044c-12.647-4.603-26.83-1.974-37.012,6.858c-0.807,0.699-1.195,1.766-1.027,2.82
	C171.891,206.018,181.066,217.148,193.714,221.75z"/>
<ellipse transform="matrix(0.342 -0.9397 0.9397 0.342 -50.6898 319.8553)" style="fill:#046699;" cx="203.05" cy="196.123" rx="13.938" ry="13.883"/>
<path style="fill:#312F56;" d="M206.378,231.482c-0.001,0-0.001,0-0.003,0c-5.21,0-10.333-0.903-15.227-2.685
	c-15.205-5.533-26.235-18.91-28.787-34.91c-0.58-3.642,0.737-7.256,3.523-9.67c8.118-7.041,18.512-10.921,29.264-10.921
	c5.208,0,10.33,0.903,15.223,2.684c15.206,5.534,26.236,18.912,28.787,34.911c0.58,3.64-0.736,7.253-3.52,9.667
	C227.52,227.604,217.128,231.482,206.378,231.482z M177.675,193.988c2.357,9.52,9.304,17.33,18.604,20.714
	c3.246,1.182,6.643,1.78,10.098,1.78h0.001c6.299,0,12.413-2.005,17.468-5.69c-2.356-9.521-9.303-17.331-18.604-20.716
	c-3.244-1.181-6.64-1.779-10.093-1.779C188.848,188.297,182.732,190.303,177.675,193.988z"/>
<g>
	<path style="fill:#D2957D;" d="M268.362,258.031h-7.89c-8.486,0-15.39-7.986-15.39-17.802v-25.575c0-4.143,3.358-7.5,7.5-7.5
		s7.5,3.357,7.5,7.5v25.575c0,1.463,0.52,2.431,0.838,2.802h7.441c4.142,0,7.5,3.357,7.5,7.5
		C275.862,254.674,272.504,258.031,268.362,258.031z"/>
	<path style="fill:#D2957D;" d="M280.962,285.134h-49.925c-4.142,0-7.5-3.357-7.5-7.5s3.358-7.5,7.5-7.5h49.925
		c4.142,0,7.5,3.357,7.5,7.5C288.462,281.776,285.104,285.134,280.962,285.134z"/>
</g>
<rect x="221.61" y="342.56" style="fill:#960B15;" width="68.784" height="18.518"/>
<g>
	<path style="fill:#42238E;" d="M237.463,181.087c-2.453,0-4.855-1.202-6.291-3.408c-0.712-1.07-16.585-24.164-52.718-15.351
		c-4.027,0.983-8.082-1.485-9.064-5.509c-0.981-4.024,1.485-8.082,5.509-9.063c46.895-11.444,67.991,20.412,68.867,21.774
		c2.24,3.484,1.231,8.125-2.253,10.364C240.257,180.701,238.852,181.087,237.463,181.087z"/>
	<path style="fill:#42238E;" d="M273.507,181.115c-1.393,0-2.803-0.389-4.064-1.199c-3.484-2.239-4.479-6.901-2.239-10.386
		c0.875-1.362,21.973-33.212,68.867-21.774c4.024,0.981,6.491,5.039,5.509,9.063c-0.982,4.023-5.04,6.489-9.064,5.509
		c-36.203-8.83-52.065,14.364-52.723,15.357C278.365,179.908,275.963,181.115,273.507,181.115z"/>
</g>
<g>
	<path style="fill:#C0272D;" d="M307.241,421.126l-33.298,11.761v30.089l33.298,11.763c1.317,0.471,2.396-0.287,2.396-1.688v-50.238
		C309.636,421.413,308.558,420.654,307.241,421.126z"/>
	<path style="fill:#C0272D;" d="M238.057,432.887l-33.298-11.761c-1.317-0.472-2.395,0.287-2.395,1.686v50.238
		c0,1.4,1.078,2.158,2.395,1.688l33.298-11.763V432.887z"/>
</g>
<rect x="238.06" y="432.89" style="fill:#EF5050;" width="35.886" height="30.09"/>
<g>
</g>
<g>
</g>
<g>
</g>
<g>
</g>
<g>
</g>
<g>
</g>
<g>
</g>
<g>
</g>
<g>
</g>
<g>
</g>
<g>
</g>
<g>
</g>
<g>
</g>
<g>
</g>
<g>
</g>
</svg>
