<?xml version="1.0" encoding="iso-8859-1"?>
<!-- Generator: Adobe Illustrator 19.0.0, SVG Export Plug-In . SVG Version: 6.00 Build 0)  -->
<svg version="1.1" id="Capa_1" xmlns="http://www.w3.org/2000/svg" xmlns:xlink="http://www.w3.org/1999/xlink" x="0px" y="0px"
	 viewBox="0 0 512 512" style="enable-background:new 0 0 512 512;" xml:space="preserve">
<path style="fill:#B2762F;" d="M440.803,444.055c-1.039-0.93-1.207-2.479-0.388-3.607c5.348-7.38,8.175-16.098,8.175-25.212
	c0-23.755-19.368-43.083-43.175-43.083c-0.373,0-3.182,0-7.966,0c0.054,0.508,0.085,1.023,0.085,1.546V511H114.468V373.698
	c0-0.522,0.031-1.038,0.085-1.546c-4.784,0-7.593,0-7.966,0c-23.807,0-43.175,19.328-43.175,43.083
	c0,9.114,2.827,17.832,8.175,25.212c0.819,1.128,0.651,2.678-0.388,3.607c-8.77,7.848-13.802,19.064-13.802,30.772v31.948
	c0,2.886,2.345,5.226,5.238,5.226h386.73c2.894,0,5.238-2.34,5.238-5.226v-31.948C454.604,463.119,449.573,451.902,440.803,444.055z
	"/>
<path style="opacity:0.15;fill:#440075;enable-background:new    ;" d="M114.935,377.787v-4.089c0-0.521,0.027-1.037,0.079-1.546
	c-5.067,0-8.041,0-8.426,0c-23.807,0-43.175,19.328-43.175,43.083c0,9.114,2.827,17.832,8.175,25.212
	c0.819,1.128,0.651,2.678-0.388,3.607c-8.77,7.848-13.802,19.064-13.802,30.772v31.948c0,2.886,2.345,5.226,5.238,5.226H92.29
	c-2.893,0-5.238-2.34-5.238-5.226v-31.948c0-11.707,5.031-22.924,13.802-30.772c1.04-0.93,1.208-2.479,0.388-3.607
	c-5.348-7.38-8.175-16.098-8.175-25.212C93.066,399.209,101.888,385.208,114.935,377.787z"/>
<path style="fill:#E6E9ED;" d="M295.971,392.883c-8.031,15.897-21.568,28.801-38.794,35.953c-0.377,0.157-0.776,0.234-1.176,0.234
	c-0.4,0-0.799-0.077-1.176-0.234c-17.226-7.152-30.763-20.056-38.794-35.953c-38.483,3.759-73.564,12.846-102.564,25.808V512
	h285.066v-93.31C369.535,405.728,334.454,396.642,295.971,392.883z"/>
<g>
	<path style="fill:#F7931E;" d="M207.854,358.482v-0.237H128.92c-8.499,0-15.453,6.954-15.453,15.453v44.992
		c29-12.962,64.08-22.049,102.564-25.808C210.759,382.447,207.854,370.725,207.854,358.482z"/>
	<path style="fill:#F7931E;" d="M383.082,358.245h-78.934v0.237c0,12.242-2.905,23.965-8.177,34.4
		c38.483,3.759,73.564,12.846,102.564,25.808v-44.992C398.534,365.199,391.581,358.245,383.082,358.245z"/>
</g>
<g>
	<path style="fill:#FFFFFF;" d="M193.043,388.477c-28.423,4.514-55.718,11.954-79.575,21.871v16.322
		c25.087-11.159,54.667-19.353,85.554-23.955C196.653,398.157,194.656,393.396,193.043,388.477z"/>
	<path style="fill:#FFFFFF;" d="M318.958,388.477c-1.615,4.918-3.612,9.68-5.981,14.238c30.888,4.6,60.469,12.795,85.558,23.955
		v-16.322C374.677,400.43,347.381,392.99,318.958,388.477z"/>
</g>
<path style="fill:#046699;" d="M246.895,447.852c2.898,1.21,5.962,1.822,9.106,1.822c3.144,0,6.207-0.612,9.076-1.809
	c36.251-15.051,59.674-50.136,59.674-89.383v-0.237H187.25v0.237C187.25,397.729,210.674,432.815,246.895,447.852z"/>
<path style="fill:#B2762F;" d="M256.001,328c-17.369,0-33.743-4.252-48.147-11.765v42.247c0,30.892,18.437,58.507,46.971,70.354
	c0.376,0.157,0.776,0.234,1.176,0.234c0.4,0,0.799-0.077,1.176-0.234c28.534-11.847,46.971-39.462,46.971-70.354v-42.246
	C289.744,323.748,273.37,328,256.001,328z"/>
<g>
	<path style="fill:#775436;" d="M233.337,379.333H210.75c1.481,5.23,3.506,10.256,6.033,15h16.554c4.142,0,7.5-3.357,7.5-7.5
		S237.479,379.333,233.337,379.333z"/>
	<path style="fill:#775436;" d="M301.252,379.333h-22.587c-4.142,0-7.5,3.357-7.5,7.5s3.358,7.5,7.5,7.5h16.554
		C297.746,389.589,299.772,384.564,301.252,379.333z"/>
</g>
<path style="opacity:0.15;fill:#440075;enable-background:new    ;" d="M237.457,358.482v-32.127
	c-10.498-1.885-20.448-5.345-29.604-10.12v42.247c0,30.892,18.437,58.507,46.971,70.354c0.376,0.157,0.776,0.234,1.176,0.234
	c0.4,0,0.799-0.077,1.176-0.234c4.85-2.014,9.4-4.493,13.626-7.357C250.168,407.497,237.457,384.123,237.457,358.482z"/>
<path style="fill:#312F56;" d="M256.001,0c-57.587,0-104.273,23.215-104.273,80.805v51c0-57.59,46.686-80.805,104.273-80.805
	c57.589,0,104.273,23.215,104.273,80.805v-51C360.274,23.215,313.59,0,256.001,0z"/>
<path style="opacity:0.15;fill:#440075;enable-background:new    ;" d="M181.965,70.021c5.013-45.069,41.895-65.965,88.861-69.479
	C265.983,0.182,261.035,0,256.001,0c-57.587,0-104.273,23.215-104.273,80.805v51C151.728,103.166,163.275,83.031,181.965,70.021z"/>
<g>
	<path style="fill:#D19546;" d="M152.728,144.74h-13.224c-13.453,0-24.359,10.906-24.359,24.359v26.477
		c0,13.453,10.906,24.359,24.359,24.359h13.224V144.74z"/>
	<path style="fill:#D19546;" d="M372.499,144.74h-13.225v75.195h13.225c13.454,0,24.358-10.906,24.358-24.359V169.1
		C396.857,155.646,385.953,144.74,372.499,144.74z"/>
</g>
<g>
	<path style="fill:#775436;" d="M152.728,174.276h-14.177c-4.142,0-7.5,3.357-7.5,7.5s3.358,7.5,7.5,7.5h14.177V174.276z"/>
	<path style="fill:#775436;" d="M373.452,174.276h-14.177v15h14.177c4.142,0,7.5-3.357,7.5-7.5
		C380.952,177.634,377.594,174.276,373.452,174.276z"/>
</g>
<path style="fill:#B2762F;" d="M151.728,130.535c0-57.59,46.686-80.805,104.273-80.805l0,0c57.589,0,104.273,23.215,104.273,80.805
	v58.46c0,57.589-46.684,104.274-104.273,104.274l0,0c-57.587,0-104.273-46.686-104.273-104.274L151.728,130.535L151.728,130.535z"/>
<path style="opacity:0.15;fill:#440075;enable-background:new    ;" d="M173.902,188.995v-58.46
	c0-53.84,40.806-77.633,93.174-80.504c-3.64-0.2-7.334-0.301-11.076-0.301c-57.587,0-104.273,23.215-104.273,80.805v58.46
	c0,57.589,46.686,104.274,104.273,104.274c3.739,0,7.431-0.203,11.068-0.59C214.704,287.135,173.902,242.832,173.902,188.995z"/>
<path style="fill:#312F56;" d="M321.178,270.385v-29.408c0-15.786-12.844-28.629-28.631-28.629h-11.246v2.264
	c0,6.646-7.066,11.471-16.802,11.471h-11.588c-8.215,0-15.061-5.932-16.508-13.734h-16.948c-15.787,0-28.631,12.843-28.631,28.629
	v29.408c-23.832-19.11-39.096-48.465-39.096-81.39v35.873c0,57.59,46.686,104.274,104.273,104.274
	c57.589,0,104.273-46.685,104.273-104.274v-35.873C360.274,221.921,345.011,251.275,321.178,270.385z M290.931,287.268
	c-10.92,3.883-22.677,6.002-34.93,6.002c-12.252,0-24.008-2.119-34.93-6.002v-38.031c0-5.053,4.11-9.162,9.162-9.162h51.535
	c5.052,0,9.162,4.109,9.162,9.162v38.031H290.931z"/>
<g>
	<path style="fill:#775436;" d="M264.5,227.082h-11.589c-9.816,0-17.802-7.986-17.802-17.803v-36.724c0-4.143,3.358-7.5,7.5-7.5
		s7.5,3.357,7.5,7.5v36.724c0,1.52,1.283,2.803,2.802,2.803H264.5c1.167,0,2.107-0.142,2.802-0.309v-2.132
		c0-4.143,3.358-7.5,7.5-7.5s7.5,3.357,7.5,7.5v4.97C282.302,221.837,274.815,227.082,264.5,227.082z"/>
	<path style="fill:#775436;" d="M200.911,193.508c-11.792,0-21.384-9.617-21.384-21.438s9.593-21.438,21.384-21.438
		s21.383,9.617,21.383,21.438S212.702,193.508,200.911,193.508z"/>
	<path style="fill:#775436;" d="M311.092,193.508c-11.792,0-21.384-9.617-21.384-21.438s9.593-21.438,21.384-21.438
		s21.383,9.617,21.383,21.438S322.883,193.508,311.092,193.508z"/>
</g>
<g>
	<path style="fill:#312F56;" d="M228.755,151.212c-0.852,0-1.718-0.146-2.564-0.454l-46.466-16.912
		c-3.893-1.417-5.899-5.721-4.483-9.613c1.417-3.892,5.72-5.897,9.613-4.482l46.466,16.912c3.893,1.417,5.899,5.721,4.483,9.613
		C234.694,149.32,231.818,151.212,228.755,151.212z"/>
	<path style="fill:#312F56;" d="M283.248,151.212c-3.064,0-5.94-1.892-7.048-4.936c-1.417-3.893,0.59-8.196,4.483-9.613
		l46.466-16.912c3.893-1.416,8.195,0.59,9.613,4.482c1.417,3.893-0.59,8.196-4.483,9.613l-46.466,16.912
		C284.965,151.065,284.099,151.212,283.248,151.212z"/>
</g>
<path style="fill:#775436;" d="M256.001,274.121c-7.617,0-15.233-2.898-21.033-8.695c-2.93-2.929-2.93-7.678-0.002-10.607
	c2.929-2.929,7.678-2.931,10.606-0.001c5.751,5.748,15.106,5.748,20.855,0c2.929-2.928,7.678-2.929,10.607,0.001
	c2.929,2.929,2.928,7.678,0,10.606C271.235,271.223,263.618,274.121,256.001,274.121z"/>
<g>
	<path style="fill:#046699;" d="M245.815,511.359v-20.49c0-1.77-1.024-4.24-2.274-5.491l-17.315-17.314
		c-1.251-1.251-3.722-2.274-5.491-2.274h-36.69c-1.77,0-4.24,1.023-5.491,2.274l-17.315,17.314
		c-1.251,1.251-2.274,3.722-2.274,5.491v20.49c0,0.219,0.022,0.434,0.065,0.641h22.386c0.042-0.207,0.065-0.422,0.065-0.641v-11.164
		c0-1.769,1.023-4.239,2.274-5.491l4.125-4.124c1.251-1.25,3.722-2.274,5.491-2.274h18.038c1.769,0,4.24,1.024,5.491,2.274
		l4.124,4.124c1.251,1.252,2.274,3.723,2.274,5.491v11.164c0,0.219,0.022,0.434,0.065,0.641h22.386
		C245.792,511.793,245.815,511.578,245.815,511.359z"/>
	<path style="fill:#046699;" d="M353.038,511.359v-20.49c0-1.77-1.023-4.24-2.274-5.491l-17.315-17.314
		c-1.251-1.251-3.722-2.274-5.491-2.274h-36.69c-1.769,0-4.24,1.023-5.491,2.274l-17.315,17.314
		c-1.25,1.251-2.274,3.722-2.274,5.491v20.49c0,0.219,0.023,0.434,0.065,0.641h22.386c0.043-0.207,0.065-0.422,0.065-0.641v-11.164
		c0-1.769,1.023-4.239,2.274-5.491l4.124-4.124c1.251-1.25,3.722-2.274,5.491-2.274h18.038c1.769,0,4.24,1.024,5.491,2.274
		l4.125,4.124c1.251,1.252,2.274,3.723,2.274,5.491v11.164c0,0.219,0.023,0.434,0.065,0.641h22.386
		C353.015,511.793,353.038,511.578,353.038,511.359z"/>
</g>
<circle style="fill:#FFC502;" cx="354.381" cy="439.89" r="12.877"/>
<path style="fill:#F7931E;" d="M354.383,460.265c-11.236,0-20.377-9.142-20.377-20.378s9.141-20.377,20.377-20.377
	s20.377,9.141,20.377,20.377S365.62,460.265,354.383,460.265z M354.383,434.51c-2.965,0-5.377,2.412-5.377,5.377
	c0,2.966,2.412,5.378,5.377,5.378s5.377-2.412,5.377-5.378C359.761,436.922,357.349,434.51,354.383,434.51z"/>
<g>
</g>
<g>
</g>
<g>
</g>
<g>
</g>
<g>
</g>
<g>
</g>
<g>
</g>
<g>
</g>
<g>
</g>
<g>
</g>
<g>
</g>
<g>
</g>
<g>
</g>
<g>
</g>
<g>
</g>
</svg>
