<?xml version="1.0" encoding="iso-8859-1"?>
<!-- Generator: Adobe Illustrator 19.0.0, SVG Export Plug-In . SVG Version: 6.00 Build 0)  -->
<svg version="1.1" id="Capa_1" xmlns="http://www.w3.org/2000/svg" xmlns:xlink="http://www.w3.org/1999/xlink" x="0px" y="0px"
	 viewBox="0 0 511.999 511.999" style="enable-background:new 0 0 511.999 511.999;" xml:space="preserve">
<path style="fill:#693FBA;" d="M333.909,361.353c14.057-10.574,23.554-30.658,23.554-53.71c0-10.137-1.847-19.694-5.099-28.13
	c-11.33,29.304-35.661,52.182-65.879,61.538v20.303h47.424V361.353z"/>
<path style="fill:#203A74;" d="M344.468,364.168h-5.95c0.15,0.454,0.252,0.931,0.252,1.435v11.457c0,2.534-2.061,4.595-4.595,4.595
	h-48.249c-0.383,0-0.733,0.219-0.9,0.564c-0.537,1.108-1.154,2.052-1.783,2.728l-24.466,26.279
	c-0.743,0.797-1.729,1.236-2.778,1.236s-2.036-0.439-2.778-1.237l-24.466-26.279c-0.629-0.676-1.246-1.619-1.783-2.728
	c-0.167-0.345-0.517-0.564-0.9-0.564h-48.249c-2.534,0-4.595-2.061-4.595-4.595v-11.457c0-0.504,0.102-0.98,0.252-1.435h-5.95
	c-17.04,0-30.905,13.864-30.905,30.905v111.776c0,2.844,2.306,5.151,5.151,5.151h228.446c2.845,0,5.151-2.307,5.151-5.151V395.073
	C375.373,378.032,361.508,364.168,344.468,364.168z"/>
<path style="fill:#046699;" d="M379.768,73.884c-15.237-28.97-41.08-50.929-74.732-63.504
	c-24.667-9.216-44.687-10.282-46.889-10.374C258.084,0.004,257.237,0,257.234,0c-1.902,0-3.649,1.048-4.545,2.727l-78.384,146.906
	c-0.317,0.593-0.508,1.232-0.577,1.88c17.572-2.572,35.333-4.321,53.109-5.245c-1.18-3.145-1.819-6.524-1.819-10.025v-5.249
	c0-15.636,12.72-28.356,28.356-28.356h5.248c15.636,0,28.356,12.72,28.356,28.356v5.249c0,3.501-0.639,6.881-1.819,10.025
	c17.776,0.924,35.537,2.673,53.109,5.245c-0.069-0.648-0.26-1.287-0.577-1.88l-43.53-81.603l0.635-0.006
	c30,0,77.072,12.688,79.062,13.229c0.446,0.122,0.9,0.18,1.35,0.18c1.539,0,3.026-0.69,4.018-1.929
	C380.51,77.905,380.722,75.698,379.768,73.884z"/>
<path style="opacity:0.15;fill:#440075;enable-background:new    ;" d="M200.71,148.2L278.325,2.737
	c-11.204-2.273-18.863-2.676-20.177-2.731C258.084,0.004,257.237,0,257.234,0c-1.902,0-3.649,1.048-4.545,2.727l-78.384,146.906
	c-0.317,0.593-0.508,1.232-0.577,1.88C182.684,150.203,191.68,149.083,200.71,148.2z"/>
<g>
	<path style="fill:#203A74;" d="M240.333,163.182c-0.027-1.077-0.595-2.051-1.519-2.605c-6.006-3.604-10.323-9.102-12.4-15.495
		c-19.845,1.038-39.67,3.091-59.229,6.189c-2.099,0.332-3.644,2.142-3.644,4.267v22.25c22.918-4.159,49.242-7.046,78.744-7.738
		C241.105,168.034,240.398,165.699,240.333,163.182z"/>
	<path style="fill:#203A74;" d="M344.813,151.27c-19.559-3.098-39.384-5.151-59.229-6.189c-2.077,6.393-6.394,11.891-12.4,15.495
		c-0.924,0.555-1.493,1.529-1.52,2.606c-0.065,2.514-0.77,4.846-1.946,6.858c29.709,0.661,55.98,3.439,78.738,7.46v-21.963
		C348.457,153.413,346.912,151.602,344.813,151.27z"/>
</g>
<path style="opacity:0.15;fill:#440075;enable-background:new    ;" d="M193.161,173.409c0-0.008-0.002-0.015-0.002-0.023v-25.059
	c0-0.182,0.026-0.358,0.048-0.534c-8.71,0.968-17.393,2.111-26.021,3.477c-2.099,0.332-3.644,2.142-3.644,4.267v22.25
	C172.856,176.097,182.734,174.617,193.161,173.409z"/>
<path style="fill:#046699;" d="M270.458,168.609c-2.202,5.003-7.177,8.438-13.012,8.438h-2.894c-5.832,0-10.804-3.43-13.008-8.429
	c-118.867,2.94-185.965,41.526-185.965,54.93c0,9.184,38.954,17.221,97.185,21.637c-0.025-0.932-0.039-1.867-0.039-2.805v-40.898
	c31.089-2.361,66.775-3.608,103.274-3.608s72.185,1.247,103.274,3.608v40.898c0,0.938-0.014,1.872-0.039,2.805
	c58.231-4.416,97.185-12.453,97.185-21.637C456.419,210.13,392.596,171.476,270.458,168.609z"/>
<g>
	<path style="fill:#203A74;" d="M152.725,242.38v-40.466c-58.21,4.417-97.146,12.453-97.146,21.634
		c0,9.184,38.954,17.221,97.185,21.637C152.74,244.253,152.725,243.318,152.725,242.38z"/>
	<path style="fill:#203A74;" d="M359.273,201.915v40.466c0,0.938-0.014,1.872-0.039,2.805c58.231-4.416,97.185-12.453,97.185-21.637
		C456.419,214.367,417.482,206.331,359.273,201.915z"/>
</g>
<path style="fill:#046699;" d="M334.671,455.696c-5.53,7.579-12.976,13.796-21.829,17.838c-0.676,0.309-1.396,0.466-2.141,0.466
	c-0.744,0-1.464-0.157-2.14-0.466c-19.781-9.029-32.562-28.899-32.562-50.62c0-7.431,1.527-14.746,4.377-21.512l-6.449-6.449
	l-15.15,16.273c-0.743,0.797-1.729,1.236-2.778,1.236s-2.036-0.439-2.778-1.237l-24.466-26.279
	c-0.629-0.676-1.246-1.619-1.783-2.728c-0.167-0.345-0.517-0.564-0.9-0.564h-48.249c-2.534,0-4.595-2.061-4.595-4.595v-11.457
	c0-0.504,0.102-0.98,0.252-1.435h-5.95c-17.04,0-30.905,13.864-30.905,30.905v111.776c0,2.844,2.306,5.151,5.151,5.151h228.446
	c2.845,0,5.151-2.307,5.151-5.151v-10.451L334.671,455.696z"/>
<path style="opacity:0.15;fill:#440075;enable-background:new    ;" d="M166.628,506.849V395.073c0-7.186,2.472-13.801,6.601-19.055
	v-10.416c0-0.504,0.102-0.98,0.252-1.435h-5.95c-17.04,0-30.905,13.864-30.905,30.905v111.776c0,2.844,2.306,5.151,5.151,5.151
	h30.002C168.934,512,166.628,509.693,166.628,506.849z"/>
<path style="fill:#693FBA;" d="M328.52,381.647h-35.638c-11.199,10.543-17.883,25.419-17.883,41.267
	c0,22.113,13.011,42.339,33.146,51.53c0.812,0.371,1.684,0.556,2.556,0.556c0.873,0,1.745-0.185,2.556-0.556
	c20.135-9.191,33.146-29.417,33.146-51.53C346.403,407.066,339.719,392.19,328.52,381.647z"/>
<g>
	<path style="fill:#42238E;" d="M294.445,381.647v28.879c0,4.142,3.358,7.5,7.5,7.5s7.5-3.358,7.5-7.5v-28.879H294.445z"/>
	<path style="fill:#42238E;" d="M311.958,381.647v28.879c0,4.142,3.358,7.5,7.5,7.5s7.5-3.358,7.5-7.5v-28.879H311.958z"/>
</g>
<path style="fill:#5DC647;" d="M334.175,360.007h-47.69v16.699c0,1.756-0.696,4.057-1.691,5.948h49.381
	c3.077,0,5.595-2.518,5.595-5.595v-11.457C339.77,362.525,337.252,360.007,334.175,360.007z"/>
<path style="fill:#693FBA;" d="M219.115,381.647h-35.638c-11.198,10.543-17.882,25.419-17.882,41.267
	c0,22.113,13.01,42.339,33.145,51.53c0.812,0.371,1.684,0.556,2.556,0.556c0.873,0,1.745-0.185,2.556-0.556
	c20.135-9.191,33.147-29.417,33.147-51.53C236.999,407.066,230.314,392.19,219.115,381.647z"/>
<path style="opacity:0.15;fill:#030005;enable-background:new    ;" d="M190.285,422.914c0-15.854,6.7-30.725,17.908-41.267h-24.715
	c-11.198,10.543-17.882,25.419-17.882,41.267c0,22.113,13.01,42.339,33.145,51.53c0.812,0.371,1.684,0.556,2.556,0.556
	c0.873,0,1.745-0.185,2.556-0.556c3.489-1.593,6.759-3.523,9.789-5.731C199.184,458.179,190.285,441.194,190.285,422.914z"/>
<g>
	<path style="fill:#42238E;" d="M185.04,381.647v28.879c0,4.142,3.358,7.5,7.5,7.5s7.5-3.358,7.5-7.5v-28.879H185.04z"/>
	<path style="fill:#42238E;" d="M202.553,381.647v28.879c0,4.142,3.358,7.5,7.5,7.5s7.5-3.358,7.5-7.5v-28.879H202.553z"/>
</g>
<path style="fill:#693FBA;" d="M178.089,361.353h47.424V341.05c-30.218-9.357-54.548-32.234-65.879-61.538
	c-3.251,8.436-5.099,17.992-5.099,28.13C154.535,330.695,164.033,350.779,178.089,361.353z"/>
<path style="fill:#5DC647;" d="M225.514,376.706v-16.699h-47.69c-3.077,0-5.595,2.518-5.595,5.595v11.457
	c0,3.077,2.518,5.595,5.595,5.595h49.381C226.21,380.763,225.514,378.462,225.514,376.706z"/>
<g>
	<path style="fill:#FFB98A;" d="M255.999,345.655c-10.976,0-21.555-1.728-31.486-4.914v35.965c0,2.833,1.58,6.848,3.51,8.921
		l24.466,26.279c1.931,2.074,5.09,2.074,7.021,0l24.466-26.279c1.93-2.074,3.51-6.088,3.51-8.921v-35.965
		C277.554,343.927,266.975,345.655,255.999,345.655z"/>
	<path style="fill:#FFB98A;" d="M152.725,242.38v-27.251h-7.927c-12.842,0-23.252,10.41-23.252,23.251v25.273
		c0,12.841,10.41,23.25,23.252,23.25h18.028C156.354,273.415,152.725,258.314,152.725,242.38z"/>
	<path style="fill:#FFB98A;" d="M367.201,215.129h-7.928v27.251c0,15.934-3.629,31.035-10.101,44.524h18.029
		c12.842,0,23.251-10.409,23.251-23.25V238.38C390.452,225.539,380.043,215.129,367.201,215.129z"/>
</g>
<g>
	<path style="fill:#D19546;" d="M152.733,242.981h-8.846c-4.142,0-7.5,3.358-7.5,7.5s3.358,7.5,7.5,7.5h10.016
		C153.158,253.085,152.762,248.075,152.733,242.981z"/>
	<path style="fill:#D19546;" d="M368.111,242.981h-8.846c-0.029,5.094-0.424,10.104-1.169,15h10.016c4.142,0,7.5-3.358,7.5-7.5
		C375.611,246.339,372.253,242.981,368.111,242.981z"/>
</g>
<path style="fill:#FFC7A9;" d="M255.999,196.875c-38.196,0-73.895,1.346-104.274,3.682v41.824
	c0,57.589,46.686,104.274,104.274,104.274c57.589,0,104.274-46.685,104.274-104.274v-41.824
	C329.894,198.221,294.195,196.875,255.999,196.875z"/>
<path style="fill:#FB8276;" d="M174.814,273.244c-6.486,0-12.165,3.399-15.394,8.504c4.159,10.191,9.882,19.575,16.874,27.857
	c9.367-0.755,16.738-8.582,16.738-18.144C193.033,281.399,184.876,273.244,174.814,273.244z"/>
<path style="opacity:0.15;fill:#440075;enable-background:new    ;" d="M170.96,242.38v-22.707h-19.235v22.707
	c0,57.589,46.686,104.274,104.274,104.274c3.25,0,6.463-0.152,9.637-0.444C212.548,341.364,170.96,296.733,170.96,242.38z"/>
<path style="fill:#FB8276;" d="M352.876,281.017c-3.295-4.696-8.741-7.773-14.914-7.773c-10.062,0-18.218,8.156-18.218,18.217
	c0,9.317,6.997,16.986,16.021,18.072C342.896,301.071,348.706,291.462,352.876,281.017z"/>
<path style="fill:#693FBA;" d="M255.999,196.875c-38.196,0-73.895,1.346-104.274,3.682v19.117h101.057
	c11.432,0,21.39-6.221,26.735-15.448c5.345,9.227,15.303,15.448,26.735,15.448h54.021v-19.117
	C329.894,198.221,294.195,196.875,255.999,196.875z"/>
<path style="fill:#046699;" d="M270.458,168.609c-2.202,5.003-7.177,8.438-13.012,8.438h-2.894c-5.832,0-10.804-3.43-13.008-8.429
	c-118.867,2.94-185.965,41.526-185.965,54.93c0-13.938,89.731-25.24,200.42-25.24s200.42,11.301,200.42,25.24
	C456.419,210.13,392.596,171.476,270.458,168.609z"/>
<path style="fill:#FFFFFF;" d="M254.552,178.047c-8.317,0-15.002-6.519-15.219-14.839c-0.019-0.734-0.405-1.396-1.034-1.774
	c-8.942-5.365-14.28-14.782-14.28-25.191v-5.249c0-16.187,13.169-29.356,29.356-29.356h5.248c16.187,0,29.356,13.168,29.356,29.356
	v5.249c0,10.409-5.338,19.826-14.28,25.19c-0.629,0.378-1.016,1.04-1.035,1.774c-0.217,8.321-6.901,14.84-15.219,14.84H254.552z"/>
<path style="fill:#D2957D;" d="M265.145,280.532h-8.999c-9.097,0-16.499-7.986-16.499-17.802v-15.242c0-4.142,3.358-7.5,7.5-7.5
	s7.5,3.358,7.5,7.5v15.242c0,1.743,1.041,2.802,1.499,2.802h8.999c4.142,0,7.5,3.358,7.5,7.5S269.287,280.532,265.145,280.532z"/>
<g>
	<path style="fill:#046699;" d="M204.904,273.532c-11.792,0-21.384-9.617-21.384-21.438s9.593-21.438,21.384-21.438
		c11.79,0,21.383,9.617,21.383,21.438S216.695,273.532,204.904,273.532z"/>
	<path style="fill:#046699;" d="M302.722,273.532c-11.791,0-21.384-9.617-21.384-21.438s9.593-21.438,21.384-21.438
		c11.791,0,21.383,9.617,21.383,21.438S314.513,273.532,302.722,273.532z"/>
</g>
<g>
	<path style="fill:#9EA7AF;" d="M245.499,144.347c-4.142,0-7.5-3.358-7.5-7.5v-8.364c0-4.142,3.358-7.5,7.5-7.5s7.5,3.358,7.5,7.5
		v8.364C252.999,140.989,249.641,144.347,245.499,144.347z"/>
	<path style="fill:#9EA7AF;" d="M266.499,144.347c-4.142,0-7.5-3.358-7.5-7.5v-8.364c0-4.142,3.358-7.5,7.5-7.5s7.5,3.358,7.5,7.5
		v8.364C273.999,140.989,270.641,144.347,266.499,144.347z"/>
</g>
<path style="fill:#D2957D;" d="M255.873,329.162c-18.905,0-34.285-15.38-34.285-34.285c0-4.142,3.358-7.5,7.5-7.5s7.5,3.358,7.5,7.5
	c0,10.634,8.651,19.285,19.285,19.285c10.634,0,19.285-8.651,19.285-19.285c0-4.142,3.358-7.5,7.5-7.5s7.5,3.358,7.5,7.5
	C290.158,313.782,274.777,329.162,255.873,329.162z"/>
<g>
</g>
<g>
</g>
<g>
</g>
<g>
</g>
<g>
</g>
<g>
</g>
<g>
</g>
<g>
</g>
<g>
</g>
<g>
</g>
<g>
</g>
<g>
</g>
<g>
</g>
<g>
</g>
<g>
</g>
</svg>
