<?xml version="1.0" encoding="iso-8859-1"?>
<!-- Generator: Adobe Illustrator 19.0.0, SVG Export Plug-In . SVG Version: 6.00 Build 0)  -->
<svg version="1.1" id="Capa_1" xmlns="http://www.w3.org/2000/svg" xmlns:xlink="http://www.w3.org/1999/xlink" x="0px" y="0px"
	 viewBox="0 0 512 512" style="enable-background:new 0 0 512 512;" xml:space="preserve">
<path style="fill:#312F56;" d="M404.898,358.245h-39.31c-20.166,40.114-61.713,67.708-109.588,67.708s-89.422-27.594-109.588-67.708
	h-39.31c-8.499,0-15.453,6.954-15.453,15.453v128c0,5.666,4.636,10.302,10.302,10.302h308.099c5.666,0,10.302-4.636,10.302-10.302
	v-128C420.351,365.199,413.397,358.245,404.898,358.245z"/>
<g style="opacity:0.15;">
	<path style="fill:#030005;" d="M122.002,501.698v-128c0-8.499,6.954-15.453,15.453-15.453h-30.353
		c-8.499,0-15.453,6.954-15.453,15.453v128c0,5.666,4.636,10.302,10.302,10.302h30.353C126.638,512,122.002,507.364,122.002,501.698
		z"/>
</g>
<path style="fill:#135693;" d="M256,425.429c-10.512,0-20.715-1.317-30.459-3.787l27.883,48.296c1.417,2.454,3.735,2.454,5.151,0
	l27.883-48.296C276.715,424.111,266.512,425.429,256,425.429z"/>
<path style="fill:#203A74;" d="M164.314,384.636V512h24.724V405.994C179.872,399.994,171.559,392.801,164.314,384.636z"/>
<path style="fill:#135693;" d="M146.411,358.245h-0.641V512h24.725V391.113C160.753,381.617,152.581,370.519,146.411,358.245z"/>
<path style="fill:#203A74;" d="M322.962,405.994V512h24.724V384.636C340.441,392.801,332.127,399.994,322.962,405.994z"/>
<path style="fill:#135693;" d="M341.505,391.113V512h24.725V358.245h-0.641C359.418,370.519,351.247,381.617,341.505,391.113z"/>
<path style="fill:#312F56;" d="M256,72.038c66.586,0,120.863,52.666,123.469,118.614c0.063-2.048,0.108-4.102,0.108-6.166
	C379.577,83.892,302.901,0,256,0S132.423,83.892,132.423,184.486c0,2.064,0.045,4.118,0.108,6.166
	C135.137,124.704,189.414,72.038,256,72.038z"/>
<g style="opacity:0.15;">
	<path style="fill:#030005;" d="M183.089,95.839c21.974-48.148,58.29-83.549,88.341-93.196C266.047,0.914,260.862,0,256,0
		c-46.901,0-123.577,83.892-123.577,184.486c0,2.064,0.045,4.118,0.108,6.166C134.069,151.713,153.626,117.409,183.089,95.839z"/>
</g>
<path style="fill:#135693;" d="M379.577,303.377c0,68.249-55.327,123.576-123.577,123.576l0,0
	c-68.249,0-123.577-55.327-123.577-123.576V192.101c0-68.249,55.327-123.576,123.577-123.576l0,0
	c68.25,0,123.577,55.327,123.577,123.576V303.377z"/>
<g style="opacity:0.15;">
	<path style="fill:#440075;" d="M178.736,303.377V192.101c0-60.334,43.241-110.56,100.42-121.4
		c-7.502-1.423-15.241-2.176-23.156-2.176c-68.249,0-123.577,55.327-123.577,123.576v111.276
		c0,68.249,55.327,123.576,123.577,123.576c7.915,0,15.654-0.753,23.156-2.175C221.977,413.936,178.736,363.71,178.736,303.377z"/>
</g>
<path style="fill:#FFFFFF;" d="M215.802,342.124c-3.969,0-8.703-3.439-9.931-7.214l-11.534-35.498
	c-0.427-1.316-1.307-2.45-2.477-3.191c-28.475-18.048-45.475-48.919-45.475-82.58V180.28c0-53.871,43.828-97.7,97.7-97.7h23.829
	c53.872,0,97.7,43.829,97.7,97.7v33.361c0,33.662-17.001,64.533-45.477,82.583c-1.17,0.74-2.049,1.873-2.477,3.189l-11.534,35.497
	c-1.228,3.776-5.961,7.215-9.931,7.215L215.802,342.124L215.802,342.124z"/>
<circle style="fill:#135693;" cx="203.479" cy="212.71" r="27.728"/>
<g style="opacity:0.15;">
	<path style="fill:#440075;" d="M194.189,212.712c0-12.08,7.73-22.352,18.51-26.151c-2.884-1.018-5.985-1.576-9.217-1.576
		c-15.313,0-27.728,12.415-27.728,27.727c0,15.314,12.415,27.729,27.728,27.729c3.232,0,6.333-0.559,9.217-1.575
		C201.919,235.064,194.189,224.794,194.189,212.712z"/>
</g>
<circle style="fill:#135693;" cx="308.52" cy="212.71" r="27.728"/>
<g style="opacity:0.15;">
	<path style="fill:#440075;" d="M299.226,212.712c0-12.08,7.729-22.352,18.51-26.151c-2.884-1.018-5.985-1.576-9.217-1.576
		c-15.314,0-27.728,12.415-27.728,27.727c0,15.314,12.415,27.729,27.728,27.729c3.232,0,6.333-0.559,9.217-1.575
		C306.954,235.064,299.226,224.794,299.226,212.712z"/>
</g>
<g>
	<path style="fill:#C5CCD3;" d="M203.482,247.94c-19.425,0-35.228-15.804-35.228-35.229s15.803-35.227,35.228-35.227
		c19.425,0,35.228,15.803,35.228,35.227S222.906,247.94,203.482,247.94z M203.482,192.484c-11.154,0-20.228,9.074-20.228,20.227
		c0,11.154,9.074,20.229,20.228,20.229s20.228-9.074,20.228-20.229C223.71,201.559,214.635,192.484,203.482,192.484z"/>
	<path style="fill:#C5CCD3;" d="M308.518,247.94c-19.425,0-35.228-15.804-35.228-35.229s15.803-35.227,35.228-35.227
		s35.228,15.803,35.228,35.227S327.943,247.94,308.518,247.94z M308.518,192.484c-11.154,0-20.228,9.074-20.228,20.227
		c0,11.154,9.074,20.229,20.228,20.229s20.228-9.074,20.228-20.229C328.746,201.559,319.672,192.484,308.518,192.484z"/>
</g>
<path style="fill:#135693;" d="M239.012,263.08c-2.267,0-3.194-1.605-2.061-3.568l16.988-29.424c1.133-1.963,2.988-1.963,4.121,0
	l16.988,29.424c1.133,1.963,0.206,3.568-2.061,3.568H239.012z"/>
<g>
	<path style="fill:#C5CCD3;" d="M272.988,270.58h-33.976c-3.776,0-7.066-1.794-8.801-4.798c-1.734-3.005-1.643-6.751,0.245-10.02
		l16.988-29.424c1.888-3.27,5.087-5.222,8.556-5.222s6.668,1.952,8.556,5.222l16.988,29.424c1.888,3.27,1.979,7.016,0.245,10.02
		C280.053,268.786,276.764,270.58,272.988,270.58z M247.882,255.58h16.236L256,241.519L247.882,255.58z"/>
	<path style="fill:#C5CCD3;" d="M238.479,342.124v-27.017c0-4.143-3.358-7.5-7.5-7.5s-7.5,3.357-7.5,7.5v27.017H238.479z"/>
	<path style="fill:#C5CCD3;" d="M263.5,342.124v-27.017c0-4.143-3.358-7.5-7.5-7.5s-7.5,3.357-7.5,7.5v27.017H263.5z"/>
	<path style="fill:#C5CCD3;" d="M281.021,307.607c-4.142,0-7.5,3.357-7.5,7.5v27.017h15v-27.017
		C288.521,310.965,285.163,307.607,281.021,307.607z"/>
</g>
<path style="fill:#203A74;" d="M256,68.524c-68.249,0-123.577,55.327-123.577,123.576v111.276
	c0,68.249,55.327,123.576,123.577,123.576s123.577-55.327,123.577-123.576V192.101C379.577,123.852,324.25,68.524,256,68.524z
	 M356.148,303.377c0,55.223-44.927,100.15-100.149,100.15S155.85,358.6,155.85,303.377V192.101
	c0-55.224,44.927-100.149,100.149-100.149s100.149,44.926,100.149,100.149V303.377z"/>
<g>
</g>
<g>
</g>
<g>
</g>
<g>
</g>
<g>
</g>
<g>
</g>
<g>
</g>
<g>
</g>
<g>
</g>
<g>
</g>
<g>
</g>
<g>
</g>
<g>
</g>
<g>
</g>
<g>
</g>
</svg>
