<?xml version="1.0" encoding="iso-8859-1"?>
<!-- Generator: Adobe Illustrator 19.0.0, SVG Export Plug-In . SVG Version: 6.00 Build 0)  -->
<svg version="1.1" id="Capa_1" xmlns="http://www.w3.org/2000/svg" xmlns:xlink="http://www.w3.org/1999/xlink" x="0px" y="0px"
	 viewBox="0 0 512 512" style="enable-background:new 0 0 512 512;" xml:space="preserve">
<path style="fill:#422017;" d="M448.8,216.9h-32.134c-8.284,0-15,6.716-15,15c0,8.242,6.649,14.927,14.876,14.994l-0.547,66.406
	h-0.124c-8.284,0-15,6.716-15,15s6.716,15,15,15H448.8c34.849,0,63.2-28.352,63.2-63.201C512,245.251,483.648,216.9,448.8,216.9z"/>
<path style="fill:#5B3227;" d="M96.132,313.301h-0.124l-0.551-66.406c8.227-0.068,14.876-6.752,14.876-14.994
	c0-8.284-6.716-15-15-15H63.199C28.351,216.9,0,245.251,0,280.1c0,34.85,28.351,63.201,63.199,63.201h32.933c8.284,0,15-6.716,15-15
	S104.416,313.301,96.132,313.301z"/>
<path style="fill:#794334;" d="M389.481,85.576c-4.541-5.302-12.143-6.771-18.335-3.542c-1.698,0.886-3.211,2.089-4.456,3.544
	c-27.741,32.402-68.087,50.986-110.692,50.986s-82.952-18.584-110.693-50.986c-2.85-3.328-7.013-5.244-11.395-5.244
	s-8.544,1.916-11.395,5.244c-27.202,31.771-42.183,72.324-42.183,114.189v112.465C80.333,409.096,159.137,487.9,256,487.9
	c96.862,0,175.666-78.805,175.666-175.668V199.768C431.666,157.902,416.685,117.349,389.481,85.576z"/>
<path style="fill:#5B3227;" d="M389.481,85.576c-4.541-5.302-12.143-6.771-18.335-3.542c-1.698,0.886-3.211,2.089-4.456,3.544
	c-27.741,32.402-68.087,50.986-110.692,50.986V487.9c0.001,0,0.001,0,0.001,0c96.863,0,175.667-78.805,175.667-175.668V199.768
	C431.666,157.902,416.685,117.349,389.481,85.576z"/>
<path style="fill:#FD413C;" d="M256,391.502c-22.483,0-43.453-12.098-54.727-31.573c-4.15-7.17-1.703-16.346,5.467-20.496
	c7.166-4.15,16.347-1.703,20.496,5.467c5.929,10.241,16.95,16.603,28.764,16.603c11.815,0,22.838-6.365,28.769-16.611
	c4.15-7.171,13.331-9.616,20.496-5.469c7.17,4.149,9.618,13.326,5.469,20.496C299.458,379.399,278.485,391.502,256,391.502z"/>
<path style="fill:#3B211A;" d="M191.735,271.007c-3.949,0-7.819-1.6-10.609-4.39c-2.79-2.8-4.391-6.66-4.391-10.61
	c0-3.949,1.601-7.81,4.391-10.609c2.79-2.79,6.66-4.391,10.609-4.391c3.94,0,7.811,1.601,10.601,4.391
	c2.8,2.8,4.399,6.66,4.399,10.609c0,3.95-1.6,7.82-4.399,10.61C199.546,269.407,195.676,271.007,191.735,271.007z"/>
<path style="fill:#0F0301;" d="M320.266,271.007c-3.95,0-7.81-1.6-10.61-4.39c-2.789-2.79-4.39-6.66-4.39-10.61
	c0-3.949,1.601-7.81,4.39-10.609c2.79-2.79,6.66-4.391,10.61-4.391s7.811,1.601,10.61,4.391c2.79,2.8,4.39,6.66,4.39,10.609
	c0,3.95-1.6,7.82-4.39,10.61C328.076,269.407,324.216,271.007,320.266,271.007z"/>
<path style="fill:#3B211A;" d="M389.481,85.576C356.03,46.507,307.378,24.1,256,24.1c-51.379,0-100.032,22.408-133.484,61.479
	c-4.808,5.615-4.808,13.896,0,19.512c33.449,39.067,82.102,61.475,133.482,61.475c51.327,0,99.931-22.359,133.376-61.354
	c1.723-1.968,2.922-4.376,3.436-7.007C393.686,93.708,392.461,89.057,389.481,85.576z"/>
<path style="fill:#FCC892;" d="M55.166,403.633c-8.284,0-15-6.716-15-15v-60.998c0-8.284,6.716-15,15-15s15,6.716,15,15v60.998
	C70.166,396.917,63.45,403.633,55.166,403.633z"/>
<path style="fill:#FCA953;" d="M456.833,403.633c-8.284,0-15-6.716-15-15v-60.998c0-8.284,6.716-15,15-15s15,6.716,15,15v60.998
	C471.833,396.917,465.117,403.633,456.833,403.633z"/>
<path style="fill:#DA0806;" d="M305.265,339.422c-7.171-4.15-16.347-1.701-20.497,5.469c-5.929,10.243-16.951,16.607-28.766,16.607
	v30c22.485-0.001,43.457-12.101,54.73-31.58C314.882,352.748,312.435,343.572,305.265,339.422z"/>
<path style="fill:#0F0301;" d="M389.481,85.576C356.03,46.507,307.378,24.1,256,24.1c0,0-0.001,0-0.002,0v142.465
	c51.327,0,99.931-22.359,133.376-61.354c1.723-1.968,2.922-4.376,3.436-7.007C393.686,93.708,392.461,89.057,389.481,85.576z"/>
<g>
</g>
<g>
</g>
<g>
</g>
<g>
</g>
<g>
</g>
<g>
</g>
<g>
</g>
<g>
</g>
<g>
</g>
<g>
</g>
<g>
</g>
<g>
</g>
<g>
</g>
<g>
</g>
<g>
</g>
</svg>
