<?xml version="1.0" encoding="iso-8859-1"?>
<!-- Generator: Adobe Illustrator 19.0.0, SVG Export Plug-In . SVG Version: 6.00 Build 0)  -->
<svg version="1.1" id="Capa_1" xmlns="http://www.w3.org/2000/svg" xmlns:xlink="http://www.w3.org/1999/xlink" x="0px" y="0px"
	 viewBox="0 0 512 512" style="enable-background:new 0 0 512 512;" xml:space="preserve">
<path style="fill:#F7931E;" d="M459.412,196.646c-5.859-44.131-29.664-70.726-45.783-84.024l30.32,1.305
	c0.065,0.003,0.129,0.004,0.192,0.004c1.822,0,3.494-1.116,4.3-2.889c0.834-1.834,0.583-4.024-0.643-5.585
	c-21.785-27.765-47.526-40.51-66.992-46.352c4.963-2.472,9.57-5.979,13.279-10.904c6.23-8.267,6.903-16.466,6.959-17.373
	c0.13-2.119-0.635-4.389-2.423-5.289c-0.75-0.377-1.499-0.58-2.226-0.58c-0.938,0-1.831,0.341-2.624,1.083
	c-0.632,0.216-2.642,0.754-6.903,0.754c-9.765,0.001-29.433-2.714-67.678-15.646c-11.765-3.98-23.369-5.997-34.49-5.997
	c-7.227,0-14.355,0.852-21.219,2.535C252.121,2.586,239.961,0,227.31,0c-11.124,0-22.731,2.019-34.501,5.999
	c-38.242,12.932-57.911,15.646-67.678,15.646c-4.258,0-6.268-0.537-6.902-0.752c-0.791-0.744-1.685-1.086-2.625-1.086
	c-0.723,0-1.474,0.202-2.224,0.58c-1.789,0.899-2.556,3.171-2.424,5.292c0.056,0.908,0.731,9.106,6.961,17.373
	c3.71,4.921,8.317,8.431,13.281,10.901c-19.466,5.841-45.208,18.585-66.996,46.353c-1.224,1.561-1.477,3.752-0.644,5.586
	c0.807,1.772,2.478,2.888,4.301,2.888c0.063,0,0.128-0.001,0.191-0.004l30.322-1.305c-16.119,13.299-39.925,39.895-45.785,84.025
	c-0.233,1.757,0.39,3.518,1.65,4.663c0.876,0.797,1.974,1.216,3.09,1.216c0.488,0,0.98-0.08,1.458-0.245l17.15-5.904
	c-0.484,16.923,2.443,57.323,36.491,92.29c28.987,29.772,30.576,40.181,30.585,42.052c-1.167,1.236-1.693,3.067-1.301,4.855
	c0.51,2.325,2.439,3.967,4.659,3.967h0.001c0.867,0,8.106-0.267,17.483-7.778c-5.649-19.494-11.13-40.619-11.13-49.204v-126.65
	c0-1.239,0.733-2.361,1.868-2.858c0.398-0.174,0.819-0.263,1.251-0.263c0.787,0,1.539,0.294,2.115,0.826
	c11.192,10.319,24.104,17.316,38.377,20.798c0.483,0.117,0.974,0.176,1.46,0.176c2.568,0,4.887-1.621,5.772-4.034l6.848-18.672
	c0.34-0.929,1.108-1.647,2.055-1.922c0.286-0.084,0.58-0.126,0.874-0.126c0.68,0,1.352,0.228,1.893,0.64
	c14.281,10.893,35.902,24.622,57.81,28.156c0.326,0.052,0.655,0.078,0.98,0.078c1.372,0,2.723-0.468,3.804-1.317
	c1.349-1.063,2.197-2.652,2.329-4.362l1.644-21.37c0.087-1.124,0.776-2.117,1.798-2.592c0.415-0.192,0.858-0.29,1.314-0.29
	c0.659,0,1.291,0.204,1.827,0.59c12.833,9.254,35.346,20.984,69.711,24.313c1.607,0.155,2.819,1.491,2.819,3.106v105.774
	c0,9.192-6.286,32.769-12.331,53.316c10.073,8.605,18.007,8.816,18.686,8.816c2.221,0,4.149-1.643,4.66-3.968
	c0.393-1.791-0.137-3.625-1.307-4.861c-0.033-1.972,1.525-12.192,30.591-42.044c34.048-34.968,36.976-75.367,36.491-92.291
	l17.15,5.905c0.478,0.164,0.971,0.245,1.459,0.245c1.115,0,2.213-0.42,3.089-1.217C459.023,200.165,459.646,198.403,459.412,196.646
	z"/>
<path style="fill:#FFB98A;" d="M115.936,358.245c-19.564,0-35.48,15.732-35.48,35.066v46.397c0,7.201,2.2,14.125,6.362,20.026
	c-4.043,3.556-6.362,8.643-6.362,13.958v32.912c0,2.98,2.444,5.396,5.458,5.396h30.458V358.245H115.936z"/>
<path style="fill:#F7931E;" d="M90.5,446.871H71.409c-4.142,0-7.5-3.357-7.5-7.5s3.358-7.5,7.5-7.5H90.5c4.142,0,7.5,3.357,7.5,7.5
	S94.642,446.871,90.5,446.871z"/>
<path style="fill:#FFB98A;" d="M431.544,393.311c0-19.335-15.915-35.066-35.479-35.066h-57.557
	c-1.529,4.808-2.506,7.789-2.553,7.932c-0.537,1.956-1.588,3.051-2.898,3.051c-0.908,0-1.933-0.53-2.885-1.493l-5.912-5.979
	c-0.189-0.191-0.445-0.297-0.711-0.297c-0.042,0-0.085,0.003-0.128,0.008c-0.31,0.04-0.582,0.222-0.738,0.492l-17.344,30.042
	c-0.837,1.451-1.895,2.25-2.98,2.25s-2.145-0.799-2.981-2.25l-9.356-16.204c-0.183-0.316-0.517-0.5-0.866-0.5
	c-0.105,0-0.213,0.017-0.317,0.052c-3.769,1.263-21.257,21.816-27.645,29.434L383.742,512h42.344c3.015,0,5.458-2.415,5.458-5.396
	v-32.912c0-5.315-2.317-10.402-6.36-13.958c4.161-5.901,6.36-12.825,6.36-20.026V393.311z"/>
<path style="fill:#D2957D;" d="M391.242,512v-76.233c0-4.143-3.357-7.5-7.5-7.5s-7.5,3.357-7.5,7.5V512H391.242z"/>
<path style="fill:#775436;" d="M261.193,404.782c-1.015,1.21-1.76,2.107-2.114,2.533c-0.036,0.044-0.068,0.09-0.097,0.139
	c-0.837,1.45-1.896,2.249-2.981,2.249c-1.086,0-2.144-0.799-2.982-2.249c-0.028-0.049-0.061-0.095-0.097-0.139
	c-2.586-3.117-25.392-30.504-29.759-31.967c-0.105-0.035-0.212-0.052-0.318-0.052c-0.349,0-0.684,0.184-0.866,0.5L212.623,392
	c-0.837,1.45-1.896,2.25-2.981,2.25s-2.144-0.8-2.981-2.25l-17.345-30.042c-0.156-0.271-0.429-0.452-0.738-0.492
	c-0.043-0.005-0.085-0.008-0.128-0.008c-0.266,0-0.522,0.105-0.711,0.297l-5.911,5.979c-0.952,0.963-1.977,1.493-2.884,1.493
	c-1.311,0-2.362-1.095-2.885-3.003c-0.05-0.152-1.032-3.15-2.567-7.98h-58.377V512h268.628L261.193,404.782z"/>
<g style="opacity:0.15;">
	<rect x="115.11" y="358.25" style="fill:#440075;" width="29.875" height="153.75"/>
</g>
<g>
	<path style="fill:#FFB98A;" d="M152.726,173.803h-13.223c-13.454,0-24.359,10.906-24.359,24.359v26.477
		c0,13.453,10.905,24.359,24.359,24.359h13.223L152.726,173.803L152.726,173.803z"/>
	<path style="fill:#FFB98A;" d="M372.497,173.803h-13.224v75.195h13.224c13.454,0,24.358-10.906,24.358-24.359v-26.477
		C396.856,184.709,385.951,173.803,372.497,173.803z"/>
</g>
<g>
	<path style="fill:#D2957D;" d="M152.726,203.339h-14.177c-4.142,0-7.5,3.357-7.5,7.5s3.358,7.5,7.5,7.5h14.177V203.339z"/>
	<path style="fill:#D2957D;" d="M373.451,203.339h-14.178v15h14.178c4.143,0,7.5-3.357,7.5-7.5S377.594,203.339,373.451,203.339z"/>
</g>
<path style="fill:#FFC7A9;" d="M256,323.992c-57.497,0-104.274-46.777-104.274-104.274v-68.961c0-1.637,0.968-3.118,2.467-3.774
	c0.531-0.232,1.094-0.347,1.653-0.347c1.016,0,2.018,0.375,2.794,1.092c11.064,10.202,23.828,17.12,37.935,20.561
	c0.404,0.098,0.815,0.147,1.223,0.147c2.15,0,4.092-1.357,4.833-3.378l6.848-18.673c0.451-1.229,1.458-2.172,2.714-2.537
	c0.379-0.111,0.768-0.166,1.154-0.166c0.893,0,1.773,0.29,2.499,0.845c14.19,10.825,35.661,24.463,57.362,27.964
	c0.269,0.043,0.55,0.065,0.82,0.065c1.149,0,2.281-0.393,3.186-1.104c1.128-0.889,1.84-2.221,1.95-3.653l1.644-21.37
	c0.115-1.486,1.022-2.794,2.373-3.422c0.554-0.256,1.146-0.383,1.735-0.383c0.852,0,1.696,0.264,2.411,0.778
	c12.734,9.183,35.08,20.822,69.224,24.129c2.111,0.204,3.723,1.979,3.723,4.102v48.085C360.274,277.215,313.497,323.992,256,323.992
	z"/>
<path style="opacity:0.15;fill:#440075;enable-background:new    ;" d="M193.674,303.267v-27.444
	c-10.388-16.208-16.419-35.465-16.419-56.104v-58.763c-6.631-3.504-12.855-7.917-18.615-13.228
	c-0.776-0.717-1.778-1.092-2.794-1.092c-0.559,0-1.122,0.114-1.653,0.347c-1.499,0.656-2.467,2.138-2.467,3.774v68.961
	C151.726,253.867,168.227,284.234,193.674,303.267z"/>
<path style="fill:#DD7814;" d="M318.326,303.322v-32.899c0-13.086-10.608-23.694-23.694-23.694h-10.056
	c-1.69,6.709-8.385,11.738-16.378,11.738h-14.596c-7.5,0-13.865-4.941-16.018-11.738h-20.216c-13.086,0-23.694,10.608-23.694,23.694
	v32.899c-25.462-19.013-41.948-49.384-41.948-83.604v57.689c0,17.982,23.369,89.082,23.369,89.082
	c1.119,4.082,4.469,4.958,7.444,1.948l5.911-5.978l17.345,30.042c2.116,3.666,5.579,3.666,7.695,0l9.355-16.204
	c4.223,1.415,29.307,31.657,29.307,31.657c2.116,3.666,5.58,3.666,7.695,0c0,0,25.085-30.242,29.308-31.657l9.355,16.204
	c2.115,3.666,5.58,3.666,7.694,0l17.344-30.042l5.912,5.978c2.976,3.01,6.326,2.134,7.444-1.948c0,0,23.368-71.103,23.368-89.082
	v-57.689C360.274,253.939,343.787,284.31,318.326,303.322z"/>
<g style="opacity:0.15;">
	<path style="fill:#440075;" d="M184.64,295.746c-20.259-19.021-32.914-46.047-32.914-76.028v57.689
		c0,17.982,23.369,89.082,23.369,89.082c1.119,4.082,4.469,4.958,7.444,1.948l5.911-5.978l17.345,30.042
		c1.744,3.022,4.402,3.546,6.468,1.587C203.312,364.391,190.567,321.024,184.64,295.746z"/>
</g>
<g>
	<path style="fill:#046699;" d="M309.3,225.443c-11.791,0-21.384-9.617-21.384-21.438c0-11.82,9.593-21.438,21.384-21.438
		s21.384,9.617,21.384,21.438C330.684,215.826,321.091,225.443,309.3,225.443z"/>
	<path style="fill:#046699;" d="M202.701,225.443c-11.791,0-21.384-9.617-21.384-21.438c0-11.82,9.593-21.438,21.384-21.438
		c11.79,0,21.382,9.617,21.382,21.438C224.084,215.826,214.491,225.443,202.701,225.443z"/>
</g>
<path style="fill:#FB8276;" d="M219.248,315.272c-1.953,0-3.534-1.582-3.534-3.534v-25.442c0-8.185,6.658-14.843,14.842-14.843
	h50.888c8.185,0,14.843,6.657,14.843,14.843v25.442c0,1.952-1.582,3.534-3.533,3.534H219.248z"/>
<path style="fill:#FFFFFF;" d="M281.444,271.453h-50.888c-8.184,0-14.842,6.657-14.842,14.843v9.189h80.572v-9.189
	C296.286,278.11,289.628,271.453,281.444,271.453z"/>
<path style="fill:#D2957D;" d="M268.198,259.467h-14.596c-9.816,0-17.802-7.985-17.802-17.802V201.4c0-4.143,3.358-7.5,7.5-7.5
	s7.5,3.357,7.5,7.5v40.265c0,1.519,1.283,2.802,2.802,2.802h14.596c1.72,0,2.64-0.831,2.802-1.125v-8.477c0-4.143,3.357-7.5,7.5-7.5
	s7.5,3.357,7.5,7.5v8.551C286,252.267,278.015,259.467,268.198,259.467z"/>
<g>
	<path style="fill:#F7931E;" d="M438.101,407.726h-26.543c-4.143,0-7.5-3.357-7.5-7.5s3.357-7.5,7.5-7.5h26.543
		c4.143,0,7.5,3.357,7.5,7.5C445.601,404.368,442.243,407.726,438.101,407.726z"/>
	<path style="fill:#F7931E;" d="M92.401,402.574H69.886c-4.142,0-7.5-3.357-7.5-7.5s3.358-7.5,7.5-7.5h22.515
		c4.142,0,7.5,3.357,7.5,7.5S96.543,402.574,92.401,402.574z"/>
	<path style="fill:#F7931E;" d="M91.171,425.238H66.93c-4.142,0-7.5-3.357-7.5-7.5s3.358-7.5,7.5-7.5h24.241
		c4.142,0,7.5,3.357,7.5,7.5S95.313,425.238,91.171,425.238z"/>
	<path style="fill:#F7931E;" d="M89.111,493.23H70.02c-4.142,0-7.5-3.358-7.5-7.5c0-4.143,3.358-7.5,7.5-7.5h19.091
		c4.142,0,7.5,3.357,7.5,7.5C96.611,489.873,93.253,493.23,89.111,493.23z"/>
	<path style="fill:#F7931E;" d="M439.604,435.54h-25.986c-4.143,0-7.5-3.357-7.5-7.5s3.357-7.5,7.5-7.5h25.986
		c4.143,0,7.5,3.357,7.5,7.5S443.746,435.54,439.604,435.54z"/>
	<path style="fill:#F7931E;" d="M438.342,486.02h-25.985c-4.142,0-7.5-3.357-7.5-7.5c0-4.142,3.358-7.5,7.5-7.5h25.985
		c4.143,0,7.5,3.358,7.5,7.5C445.842,482.662,442.485,486.02,438.342,486.02z"/>
</g>
<path style="fill:#FFFFFF;" d="M145.771,418.027c-4.142,0-7.5-3.357-7.5-7.5v-16.483c0-4.143,3.358-7.5,7.5-7.5s7.5,3.357,7.5,7.5
	v16.483C153.271,414.67,149.913,418.027,145.771,418.027z"/>
<g>
	<path style="fill:#B2762F;" d="M175.646,444.811c-4.142,0-7.5-3.357-7.5-7.5v-16.482c0-4.143,3.358-7.5,7.5-7.5s7.5,3.357,7.5,7.5
		v16.482C183.146,441.454,179.788,444.811,175.646,444.811z"/>
	<path style="fill:#B2762F;" d="M222.004,441.722c-4.142,0-7.5-3.357-7.5-7.5v-16.483c0-4.143,3.358-7.5,7.5-7.5s7.5,3.357,7.5,7.5
		v16.483C229.504,438.364,226.146,441.722,222.004,441.722z"/>
</g>
<g>
	<path style="fill:#FFFFFF;" d="M270.423,480.868c-4.143,0-7.5-3.357-7.5-7.5v-16.482c0-4.143,3.357-7.5,7.5-7.5
		c4.142,0,7.5,3.357,7.5,7.5v16.482C277.923,477.511,274.566,480.868,270.423,480.868z"/>
	<path style="fill:#FFFFFF;" d="M203.461,482.929c-4.142,0-7.5-3.357-7.5-7.5v-16.483c0-4.143,3.358-7.5,7.5-7.5s7.5,3.357,7.5,7.5
		v16.483C210.961,479.571,207.603,482.929,203.461,482.929z"/>
	<path style="fill:#FFFFFF;" d="M148.862,489.109c-4.142,0-7.5-3.357-7.5-7.5v-16.482c0-4.143,3.358-7.5,7.5-7.5s7.5,3.357,7.5,7.5
		v16.482C156.362,485.752,153.004,489.109,148.862,489.109z"/>
</g>
<g>
	<path style="fill:#B2762F;" d="M177.706,488.018c-4.142,0-7.5,3.357-7.5,7.5V512h15v-16.482
		C185.206,491.375,181.848,488.018,177.706,488.018z"/>
	<path style="fill:#B2762F;" d="M240.548,488.018c-4.142,0-7.5,3.357-7.5,7.5V512h15v-16.482
		C248.048,491.375,244.69,488.018,240.548,488.018z"/>
	<path style="fill:#B2762F;" d="M307.509,488.018c-4.142,0-7.5,3.357-7.5,7.5V512h15v-16.482
		C315.009,491.375,311.652,488.018,307.509,488.018z"/>
</g>
<g>
	<rect x="235.14" y="271.45" style="fill:#E6E9ED;" width="15" height="24.03"/>
	<rect x="261.86" y="271.45" style="fill:#E6E9ED;" width="15" height="24.03"/>
</g>
<g>
</g>
<g>
</g>
<g>
</g>
<g>
</g>
<g>
</g>
<g>
</g>
<g>
</g>
<g>
</g>
<g>
</g>
<g>
</g>
<g>
</g>
<g>
</g>
<g>
</g>
<g>
</g>
<g>
</g>
</svg>
