<?xml version="1.0" encoding="iso-8859-1"?>
<!-- Generator: Adobe Illustrator 19.0.0, SVG Export Plug-In . SVG Version: 6.00 Build 0)  -->
<svg version="1.1" id="Capa_1" xmlns="http://www.w3.org/2000/svg" xmlns:xlink="http://www.w3.org/1999/xlink" x="0px" y="0px"
	 viewBox="0 0 512.001 512.001" style="enable-background:new 0 0 512.001 512.001;" xml:space="preserve">
<path style="fill:#4A5058;" d="M421.788,228.226l-9.918,80.638c-2.655,21.589,14.556,40.466,36.298,39.811l0,0
	c10.38-0.313,15.778,12.248,8.408,19.564l0,0c-37.144,36.867-87.355,57.555-139.689,57.555h-60.885h-60.885
	c-52.334,0-102.545-20.689-139.689-57.555l0,0c-7.371-7.316-1.972-19.877,8.408-19.564l0,0
	c21.742,0.655,38.953-18.222,36.298-39.811l-9.918-80.638H421.788z"/>
<path style="fill:#F0B0B7;" d="M141.778,504.5h-27.745c-4.711,0-8.53-3.819-8.53-8.53v-6.557c0-34.668,16.751-67.2,44.97-87.338
	l1.726-1.232l21.069,29.531l-1.717,1.225c-18.682,13.329-29.772,34.864-29.772,57.814V504.5H141.778z"/>
<path style="opacity:0.15;enable-background:new    ;" d="M141.778,504.5h-27.745c-4.711,0-8.53-3.819-8.53-8.53v-6.557
	c0-34.668,16.751-67.2,44.97-87.338l1.726-1.232l21.069,29.531l-1.717,1.225c-18.682,13.329-29.772,34.864-29.772,57.814V504.5
	H141.778z"/>
<path style="fill:#F0B0B7;" d="M370.224,504.5h27.745c4.711,0,8.53-3.819,8.53-8.53v-6.557c0-34.668-16.751-67.2-44.97-87.338
	l-1.726-1.232l-21.069,29.531l1.717,1.225c18.682,13.329,29.772,34.864,29.772,57.814V504.5H370.224z"/>
<path style="opacity:0.15;enable-background:new    ;" d="M370.224,504.5h27.745c4.711,0,8.53-3.819,8.53-8.53v-6.557
	c0-34.668-16.751-67.2-44.97-87.338l-1.726-1.232l-21.069,29.531l1.717,1.225c18.682,13.329,29.772,34.864,29.772,57.814V504.5
	H370.224z"/>
<path style="fill:#F0B0B7;" d="M256.001,323.254L256.001,323.254c-64.9,0-117.512,52.612-117.512,117.512V504.5h235.024v-63.734
	C373.514,375.866,320.902,323.254,256.001,323.254z"/>
<circle style="opacity:0.15;enable-background:new    ;" cx="256.002" cy="365.031" r="74.07"/>
<circle style="fill:#FFD4B8;" cx="256.002" cy="365.031" r="50.28"/>
<path style="opacity:0.1;enable-background:new    ;" d="M256.001,323.254L256.001,323.254c-33.678,0-64.042,14.171-85.467,36.87
	c25.242,14.273,54.4,22.428,85.467,22.428s60.225-8.155,85.467-22.428C320.043,337.424,289.679,323.254,256.001,323.254z"/>
<circle style="fill:#FFD4B8;" cx="256.002" cy="191.131" r="173.9"/>
<path style="opacity:0.1;fill:#513130;enable-background:new    ;" d="M281.773,343.081c-96.044,0-173.903-77.859-173.903-173.903
	c0-46.943,18.607-89.534,48.839-120.821c-45.094,31.42-74.611,83.646-74.611,142.774c0,96.044,77.859,173.903,173.903,173.903
	c49.101,0,93.443-20.357,125.065-53.082C352.912,331.568,318.69,343.081,281.773,343.081z"/>
<g>
	<path style="fill:#4A5058;" d="M224.821,229.828c-2.709,0-4.796,2.401-4.416,5.084c2.47,17.449,17.465,30.869,35.596,30.869
		s33.126-13.42,35.596-30.869c0.38-2.683-1.706-5.084-4.416-5.084H224.821z"/>
	<path style="fill:#4A5058;" d="M119.541,245.938c0,28.406-23.028,51.433-51.433,51.433c-23.941,0-44.062-16.358-49.796-38.507
		c-1.654-6.388,3.515-12.496,10.091-11.945l0,0c18.462,1.544,33.939-13.763,32.6-32.241l-6.188-85.337
		c-3.446-47.512,23.003-92.162,66.327-111.97l0,0c16.621-7.599,34.885-10.898,53.115-9.593l80.444,5.761
		c0.866,0.062,1.736,0.062,2.602,0l80.444-5.761c18.229-1.305,36.494,1.993,53.115,9.593l0,0
		c43.324,19.809,69.772,64.458,66.327,111.971l-6.188,85.337c-1.34,18.478,14.138,33.785,32.6,32.241l0,0
		c6.576-0.55,11.744,5.557,10.091,11.945c-5.733,22.149-25.854,38.507-49.795,38.507c-28.406,0-51.433-23.027-51.433-51.433
		l-1.556-69.684c0-39.97-32.402-72.372-72.372-72.372c-14.534,0-28.062,4.287-39.396,11.665c-14.055,9.148-32.216,9.148-46.272,0
		c-11.334-7.377-24.863-11.665-39.397-11.665c-39.97,0-72.372,32.402-72.372,72.372L119.541,245.938z"/>
</g>
<path style="opacity:0.1;enable-background:new    ;" d="M188.196,394.855c1.992,4.523,4.424,8.806,7.241,12.801l20.877-11.778
	c-3.003-3.858-5.454-8.163-7.239-12.802L188.196,394.855z M248.665,414.771v23.972c2.414,0.237,4.86,0.364,7.336,0.364
	c2.488,0,4.946-0.127,7.37-0.367v-23.974c-2.406,0.354-4.866,0.543-7.37,0.543C253.509,415.309,251.061,415.121,248.665,414.771z
	 M302.934,383.061c-1.783,4.64-4.233,8.945-7.235,12.804l20.876,11.778c2.816-3.996,5.247-8.279,7.238-12.802L302.934,383.061z"/>
<path d="M346.037,179.902c-4.143,0-7.5,3.357-7.5,7.5v17.89c0,4.143,3.357,7.5,7.5,7.5s7.5-3.357,7.5-7.5v-17.89
	C353.537,183.259,350.179,179.902,346.037,179.902z M497.473,245.465c-3.567-4.23-8.987-6.489-14.498-6.02
	c-6.605,0.55-13.109-1.805-17.826-6.471c-4.718-4.665-7.147-11.136-6.668-17.754l6.188-85.337
	c1.802-24.845-3.957-49.307-16.652-70.738c-12.696-21.434-31.382-38.237-54.036-48.595c-17.712-8.101-37.343-11.649-56.77-10.253
	l-80.449,5.761c-0.505,0.037-1.017,0.035-1.525,0l-80.445-5.76c-19.434-1.389-39.058,2.154-56.769,10.253
	c-17.916,8.191-33.731,20.761-45.738,36.35c-2.528,3.281-1.917,7.99,1.365,10.518c3.281,2.529,7.992,1.916,10.518-1.365
	c10.523-13.662,24.388-24.68,40.094-31.861c15.432-7.056,32.535-10.139,49.459-8.933l80.44,5.761c1.222,0.089,2.46,0.089,3.678,0
	l80.444-5.761c16.923-1.211,34.028,1.877,49.46,8.934c40.265,18.41,65.167,60.448,61.965,104.607l-6.188,85.337
	c-0.797,10.997,3.241,21.75,11.081,29.504c7.839,7.752,18.634,11.683,29.624,10.752c0.931-0.076,1.518,0.43,1.78,0.741
	c0.315,0.374,0.645,1,0.425,1.852c-5.012,19.362-22.503,32.886-42.535,32.886c-24.225,0-43.934-19.708-43.934-43.933
	c0-0.056-0.001-0.111-0.002-0.167l-1.554-69.604c-0.048-44.001-35.86-79.785-79.872-79.785c-15.506,0-30.544,4.453-43.487,12.878
	c-11.57,7.531-26.52,7.531-38.09,0c-12.943-8.425-27.982-12.878-43.487-12.878c-44.012,0-79.824,35.784-79.872,79.785l-1.554,69.604
	c-0.001,0.056-0.002,0.111-0.002,0.167c0,24.225-19.709,43.933-43.934,43.933c-20.032,0-37.523-13.523-42.535-32.885
	c-0.221-0.853,0.109-1.479,0.425-1.853c0.263-0.312,0.841-0.816,1.78-0.741c10.986,0.932,21.785-2.999,29.624-10.752
	c7.84-7.754,11.878-18.507,11.081-29.504l-6.188-85.337c-0.949-13.084,0.494-26.065,4.288-38.584
	c1.201-3.965-1.038-8.152-5.002-9.354c-3.966-1.2-8.152,1.038-9.354,5.002c-4.329,14.285-5.976,29.096-4.894,44.02l6.188,85.337
	c0.479,6.618-1.95,13.089-6.668,17.754c-4.717,4.666-11.212,7.019-17.826,6.471c-5.505-0.46-10.931,1.789-14.498,6.02
	c-3.56,4.224-4.861,9.936-3.478,15.28c6.726,25.98,30.188,44.126,57.057,44.126c8.304,0,16.208-1.736,23.381-4.848l1.2,9.756
	c0.999,8.116-1.589,16.236-7.098,22.279c-5.51,6.042-13.349,9.363-21.531,9.12c-7.853-0.229-14.885,4.262-17.977,11.457
	c-3.092,7.195-1.498,15.41,4.061,20.928c20.255,20.104,44.786,35.901,71.46,46.124c-15.186,19.836-23.601,44.253-23.601,69.723
	v6.558c0,8.839,7.191,16.03,16.03,16.03h190.402c4.143,0,7.5-3.357,7.5-7.5s-3.357-7.5-7.5-7.5H145.99v-56.233
	c0-10.494,1.47-20.765,4.291-30.569c0.067-0.195,0.127-0.391,0.177-0.59c4.647-15.812,12.819-30.389,24.017-42.708
	c0.998,44.119,37.172,79.708,81.526,79.708c44.354,0,80.528-35.59,81.526-79.709c11.198,12.318,19.37,26.895,24.016,42.707
	c0.051,0.201,0.112,0.399,0.179,0.596c2.821,9.803,4.29,20.073,4.29,30.566v56.233h-19.983c-4.143,0-7.5,3.357-7.5,7.5
	s3.357,7.5,7.5,7.5h51.94c8.839,0,16.03-7.191,16.03-16.03v-6.558c0-25.469-8.415-49.887-23.602-69.726
	c26.673-10.222,51.205-26.021,71.461-46.125c5.558-5.518,7.151-13.732,4.059-20.928c-3.092-7.195-10.181-11.684-17.976-11.456
	c-8.206,0.24-16.022-3.078-21.531-9.12c-5.509-6.043-8.097-14.163-7.098-22.278l1.2-9.757c7.173,3.113,15.077,4.848,23.381,4.848
	c26.868,0,50.331-18.146,57.057-44.127C502.334,255.4,501.034,249.688,497.473,245.465z M130.99,440.766v56.233h-16.957
	c-0.568,0-1.03-0.462-1.03-1.03v-6.558c0-20.879,6.505-40.944,18.317-57.626C131.108,434.761,130.99,437.754,130.99,440.766z
	 M136.614,403.558c-1.488,1.32-2.936,2.675-4.347,4.062c-26.781-9.356-51.443-24.741-71.557-44.704
	c-1.72-1.707-1.164-3.616-0.846-4.358c0.319-0.743,1.329-2.495,3.745-2.386c12.538,0.377,24.604-4.728,33.065-14.008
	s12.435-21.752,10.902-34.217l-1.878-15.262c15.334,22.643,35.681,41.687,59.366,55.438c1.449,0.841,2.914,1.65,4.384,2.448
	C154.033,365.333,142.826,383.542,136.614,403.558z M256.001,431.607c-36.709,0-66.573-29.864-66.573-66.573
	c0-1.686,0.089-3.377,0.219-5.067c2.846,1.117,5.716,2.173,8.615,3.145c-0.022,0.643-0.035,1.284-0.035,1.922
	c0,31.857,25.918,57.775,57.775,57.775s57.775-25.918,57.775-57.775c0-0.638-0.013-1.28-0.035-1.922
	c2.899-0.971,5.768-2.027,8.615-3.145c0.13,1.69,0.218,3.38,0.218,5.067C322.575,401.743,292.71,431.607,256.001,431.607z
	 M213.297,367.432c13.917,3.362,28.254,5.102,42.704,5.102c14.45,0,28.787-1.74,42.704-5.102
	c-1.249,22.475-19.922,40.377-42.704,40.377C233.219,407.809,214.546,389.907,213.297,367.432z M256.001,357.534
	c-29.341,0-58.182-7.74-83.404-22.384c-22.997-13.351-42.574-32.134-56.89-54.521c7.103-9.719,11.317-21.678,11.334-34.607
	l1.554-69.601c0.001-0.056,0.002-0.111,0.002-0.167c0-35.77,29.102-64.872,64.872-64.872c12.594,0,24.802,3.613,35.306,10.45
	c16.539,10.766,37.914,10.766,54.453,0c10.504-6.837,22.712-10.45,35.306-10.45c35.771,0,64.872,29.102,64.872,64.872
	c0,0.056,0.001,0.111,0.002,0.167l1.554,69.601c0.018,12.929,4.231,24.888,11.334,34.607c-14.316,22.387-33.893,41.17-56.89,54.521
	C314.183,349.794,285.342,357.534,256.001,357.534z M399,489.412v6.558c0,0.568-0.462,1.03-1.03,1.03h-16.957v-56.233
	c0-3.012-0.119-6.006-0.33-8.981C392.495,448.467,399,468.533,399,489.412z M448.394,356.172c2.431-0.107,3.425,1.644,3.743,2.385
	c0.319,0.742,0.875,2.652-0.845,4.359c-20.114,19.963-44.776,35.348-71.557,44.704c-1.41-1.387-2.858-2.742-4.347-4.062
	c-6.212-20.016-17.42-38.225-32.837-52.986c1.47-0.799,2.936-1.608,4.384-2.449c23.685-13.75,44.032-32.795,59.366-55.438
	l-1.878,15.263c-1.532,12.464,2.441,24.936,10.902,34.216C423.789,351.444,435.834,356.537,448.394,356.172z M287.181,222.328
	h-62.359c-3.466,0-6.757,1.501-9.03,4.119c-2.272,2.617-3.298,6.086-2.812,9.516c3.011,21.274,21.507,37.317,43.021,37.317
	c21.514,0,40.011-16.043,43.021-37.316c0.486-3.431-0.539-6.899-2.811-9.517C293.938,223.829,290.647,222.328,287.181,222.328z
	 M256.001,258.28c-12.893,0-24.129-8.791-27.453-20.952h54.907C280.13,249.489,268.894,258.28,256.001,258.28z M163.927,179.902
	c-4.143,0-7.5,3.357-7.5,7.5v17.89c0,4.143,3.357,7.5,7.5,7.5s7.5-3.357,7.5-7.5v-17.89
	C171.427,183.259,168.07,179.902,163.927,179.902z"/>
<g>
</g>
<g>
</g>
<g>
</g>
<g>
</g>
<g>
</g>
<g>
</g>
<g>
</g>
<g>
</g>
<g>
</g>
<g>
</g>
<g>
</g>
<g>
</g>
<g>
</g>
<g>
</g>
<g>
</g>
</svg>
