<?xml version="1.0" encoding="iso-8859-1"?>
<!-- Generator: Adobe Illustrator 19.0.0, SVG Export Plug-In . SVG Version: 6.00 Build 0)  -->
<svg version="1.1" id="Capa_1" xmlns="http://www.w3.org/2000/svg" xmlns:xlink="http://www.w3.org/1999/xlink" x="0px" y="0px"
	 viewBox="0 0 512 512" style="enable-background:new 0 0 512 512;" xml:space="preserve">
<path style="fill:#DE8447;" d="M448.8,216.9h-32.134c-8.284,0-15,6.716-15,15c0,8.242,6.649,14.927,14.876,14.994l-0.547,66.406
	h-0.124c-8.284,0-15,6.716-15,15s6.716,15,15,15H448.8c34.849,0,63.2-28.352,63.2-63.201C512,245.251,483.648,216.9,448.8,216.9z"/>
<path style="fill:#FCA971;" d="M96.131,313.301h-0.124l-0.55-66.406c8.227-0.068,14.876-6.752,14.876-14.994c0-8.284-6.716-15-15-15
	H63.199C28.351,216.9,0,245.251,0,280.1c0,34.85,28.351,63.201,63.199,63.201h32.932c8.284,0,15-6.716,15-15
	S104.415,313.301,96.131,313.301z"/>
<path style="fill:#FCBA95;" d="M256,24.1c-96.863,0-175.667,78.804-175.667,175.666v112.467C80.333,409.096,159.137,487.9,256,487.9
	c96.862,0,175.666-78.805,175.666-175.668V199.766C431.666,102.903,352.862,24.1,256,24.1z"/>
<g>
	<path style="fill:#FCA971;" d="M256.002,24.1v463.8c96.861-0.001,175.664-78.805,175.664-175.668V199.766
		C431.666,102.904,352.863,24.101,256.002,24.1z"/>
	<path style="fill:#FCA971;" d="M256,391.5c-22.484,0-43.455-12.099-54.727-31.574c-4.15-7.17-1.701-16.346,5.469-20.496
		c7.17-4.148,16.346-1.701,20.496,5.469c5.927,10.24,16.948,16.602,28.763,16.602c11.815,0,22.839-6.363,28.768-16.607
		c4.15-7.171,13.331-9.616,20.496-5.469c7.17,4.15,9.618,13.326,5.469,20.496C299.458,379.399,278.485,391.5,256,391.5z"/>
</g>
<path style="fill:#F2F2F2;" d="M175.666,278.074c44.367,0,80.334-35.969,80.334-80.334H95.333
	C95.333,242.105,131.3,278.074,175.666,278.074z"/>
<path style="fill:#D9D9D9;" d="M256,197.74c0,44.365,35.967,80.334,80.333,80.334c44.367,0,80.333-35.969,80.333-80.334H256z"/>
<path style="fill:#3B211A;" d="M416.666,182.74H256H95.333c-8.284,0-15,6.716-15,15c0,52.567,42.767,95.334,95.333,95.334
	c33.703,0,63.377-17.58,80.334-44.051c16.957,26.471,46.631,44.051,80.333,44.051c52.566,0,95.333-42.767,95.333-95.334
	C431.666,189.456,424.95,182.74,416.666,182.74z M175.666,263.074c-30.864,0-56.799-21.516-63.596-50.334h127.192
	C232.466,241.559,206.53,263.074,175.666,263.074z M336.333,263.074c-30.864,0-56.799-21.516-63.596-50.334h127.191
	C393.132,241.559,367.197,263.074,336.333,263.074z"/>
<path style="fill:#DE8447;" d="M305.264,339.424c-7.17-4.15-16.347-1.701-20.496,5.469c-5.93,10.243-16.951,16.606-28.766,16.607v30
	c22.484-0.001,43.456-12.102,54.73-31.58C314.882,352.75,312.434,343.574,305.264,339.424z"/>
<path style="fill:#0F0301;" d="M416.666,182.74H256.002v66.286c16.957,26.47,46.63,44.048,80.331,44.048
	c52.566,0,95.333-42.767,95.333-95.334C431.666,189.456,424.95,182.74,416.666,182.74z M336.333,263.074
	c-30.864,0-56.799-21.516-63.596-50.334h127.191C393.132,241.559,367.197,263.074,336.333,263.074z"/>
<g>
</g>
<g>
</g>
<g>
</g>
<g>
</g>
<g>
</g>
<g>
</g>
<g>
</g>
<g>
</g>
<g>
</g>
<g>
</g>
<g>
</g>
<g>
</g>
<g>
</g>
<g>
</g>
<g>
</g>
</svg>
