<?xml version="1.0" encoding="iso-8859-1"?>
<!-- Generator: Adobe Illustrator 19.0.0, SVG Export Plug-In . SVG Version: 6.00 Build 0)  -->
<svg version="1.1" id="Capa_1" xmlns="http://www.w3.org/2000/svg" xmlns:xlink="http://www.w3.org/1999/xlink" x="0px" y="0px"
	 viewBox="0 0 512 512" style="enable-background:new 0 0 512 512;" xml:space="preserve">
<path style="fill:#D19546;" d="M383.08,358.245h-63.631l3.457,16.876c0.104,0.505,0.009,0.969-0.265,1.305
	c-0.274,0.336-0.71,0.521-1.226,0.521H290.51c-1.178,0-2.123,0.469-2.592,1.285c-0.469,0.817-0.397,1.869,0.198,2.887l10.272,17.567
	c0.624,1.068,0.379,2.674-0.534,3.506l-40.245,36.684c-0.423,0.386-0.995,0.598-1.61,0.598c-0.616,0-1.188-0.212-1.611-0.598
	l-40.244-36.684c-0.914-0.832-1.159-2.438-0.535-3.507l10.272-17.565c0.595-1.018,0.667-2.07,0.198-2.888
	c-0.469-0.816-1.414-1.285-2.592-1.285h-30.905c-0.516,0-0.951-0.186-1.226-0.521c-0.274-0.336-0.369-0.8-0.265-1.305l3.458-16.876
	h-63.631c-8.499,0-15.453,6.954-15.453,15.453v128c0,5.666,4.636,10.302,10.302,10.302H388.23c5.666,0,10.302-4.636,10.302-10.302
	v-128C398.532,365.199,391.579,358.245,383.08,358.245z"/>
<path style="opacity:0.15;fill:#440075;enable-background:new    ;" d="M137.039,501.698v-128c0-2.834,0.787-5.488,2.133-7.778
	v-7.675h-10.253c-8.499,0-15.453,6.954-15.453,15.453v128c0,5.666,4.636,10.302,10.302,10.302h23.573
	C141.675,512,137.039,507.364,137.039,501.698z"/>
<g>
	<path style="fill:#775436;" d="M369.735,348.717h-52.239l4.221,20.604h48.017c1.7,0,3.091-1.391,3.091-3.091v-14.423
		C372.826,350.106,371.435,348.717,369.735,348.717z"/>
	<path style="fill:#775436;" d="M194.501,348.717h-52.239c-1.7,0-3.091,1.39-3.091,3.09v14.423c0,1.7,1.391,3.091,3.091,3.091
		h48.018L194.501,348.717z"/>
</g>
<path style="fill:#B2762F;" d="M317.915,345.778c-0.341-1.665-1.62-3.993-2.843-5.175l-21.211-20.495
	c-2.918,1.153-5.903,2.173-8.943,3.061v26.882c0,2.581-1.473,6.369-3.217,8.272l-22.96,25.066c-0.734,0.802-1.707,1.242-2.742,1.242
	s-2.008-0.44-2.742-1.242l-22.96-25.066c-1.744-1.903-3.217-5.691-3.217-8.272v-26.882c-3.04-0.888-6.025-1.907-8.942-3.061
	l-21.211,20.495c-1.223,1.182-2.502,3.51-2.843,5.175l-5.971,29.142c-0.341,1.665,0.771,3.027,2.47,3.027h30.905
	c1.7,0,2.389,1.199,1.531,2.668l-10.272,17.566c-0.858,1.469-0.532,3.605,0.724,4.75l40.245,36.684c1.256,1.145,3.312,1.145,4.568,0
	l40.245-36.684c1.256-1.145,1.582-3.281,0.724-4.75l-10.272-17.566c-0.858-1.469-0.169-2.668,1.531-2.668h30.905
	c1.7,0,2.811-1.362,2.47-3.027L317.915,345.778z"/>
<path style="fill:#775436;" d="M258.741,383.39c-0.734,0.802-1.707,1.242-2.742,1.242s-2.008-0.44-2.742-1.242l-4.758-5.194V512h15
	V378.195L258.741,383.39z"/>
<path style="fill:#FFB98A;" d="M255.999,327.296c-10.401,0-20.444-1.552-29.919-4.425v27.18c0,2.832,1.566,6.859,3.48,8.948
	l22.96,25.066c1.914,2.089,5.045,2.089,6.959,0l22.96-25.066c1.914-2.089,3.479-6.116,3.479-8.948v-27.18
	C276.444,325.744,266.4,327.296,255.999,327.296z"/>
<path style="opacity:0.15;fill:#440075;enable-background:new    ;" d="M248.479,358.999c-1.914-2.089-3.479-6.116-3.479-8.948
	v-23.348c-6.503-0.693-12.83-1.985-18.919-3.832v27.18c0,2.832,1.566,6.859,3.48,8.948l22.96,25.066
	c1.914,2.089,5.045,2.089,6.959,0l5.981-6.528L248.479,358.999z"/>
<g>
	<path style="fill:#FFB98A;" d="M152.725,224.023c0,0,0-28.645,0.001-45.916h-13.224c-13.453,0-24.359,10.907-24.359,24.36v26.477
		c0,13.453,10.906,24.358,24.359,24.358h17.458C154.209,244.015,152.725,234.189,152.725,224.023z"/>
	<path style="fill:#FFB98A;" d="M372.497,178.106h-13.224c0,17.271,0,45.916,0,45.916c0,10.167-1.484,19.992-4.234,29.279h17.458
		c13.453,0,24.358-10.905,24.358-24.358v-26.477C396.855,189.014,385.95,178.106,372.497,178.106z"/>
</g>
<g>
	<path style="fill:#D19546;" d="M152.725,207.643h-14.177c-4.142,0-7.5,3.357-7.5,7.5s3.358,7.5,7.5,7.5h14.177
		C152.725,220.145,152.725,214.483,152.725,207.643z"/>
	<path style="fill:#D19546;" d="M373.45,207.643h-14.177c0,6.841,0,12.502,0,15h14.177c4.142,0,7.5-3.357,7.5-7.5
		S377.592,207.643,373.45,207.643z"/>
</g>
<path style="fill:#FFC7A9;" d="M151.725,168v56.023c0,57.589,46.686,104.273,104.274,104.273
	c57.589,0,104.274-46.685,104.274-104.273V168H151.725z"/>
<path style="opacity:0.15;fill:#440075;enable-background:new    ;" d="M181.375,224.023V168h-29.649v56.023
	c0,57.589,46.686,104.273,104.274,104.273c5.034,0,9.982-0.364,14.825-1.055C220.258,320.043,181.375,276.577,181.375,224.023z"/>
<g>
	<path style="fill:#D19546;" d="M236.426,20.059h39.146c6.12,0,12.153,0.565,18.046,1.659C288.985,9.045,276.822,0,262.545,0
		h-13.093c-14.277,0-26.44,9.045-31.073,21.718C224.272,20.624,230.306,20.059,236.426,20.059z"/>
	<path style="fill:#D19546;" d="M374.457,117c-0.514-54.179-44.585-97.941-98.885-97.941h-39.146
		c-54.3,0-98.372,43.763-98.885,97.941H374.457z"/>
</g>
<path style="fill:#B2762F;" d="M288.634,117v-1.696c0-54.802-12.768-88.104-21.945-96.245h-21.38
	c-9.177,8.142-21.945,41.443-21.945,96.245V117H288.634z"/>
<g style="opacity:0.15;">
	<path style="fill:#440075;" d="M226.418,19.56L226.418,19.56L226.418,19.56z"/>
</g>
<g>
	<path style="fill:#775436;" d="M288.634,115.304V117h15v-1.696c0-37.142-6.139-74.58-18.053-95.743
		c-3.292-0.331-6.63-0.502-10.008-0.502h-8.883C275.866,27.2,288.634,60.502,288.634,115.304z"/>
	<path style="fill:#775436;" d="M223.364,117v-1.696c0-54.802,12.768-88.104,21.945-96.245h-8.883
		c-3.379,0-6.717,0.171-10.008,0.502c-11.915,21.163-18.053,58.602-18.053,95.743V117H223.364z"/>
</g>
<path style="fill:#368C0E;" d="M374.47,141v-23.044c0-0.689-0.018-1.374-0.032-2.061H137.561c-0.014,0.687-0.032,1.371-0.032,2.061
	V141H374.47z"/>
<path style="opacity:0.15;fill:#440075;enable-background:new    ;" d="M168.434,141v-23.044c0-38.018,21.455-71.019,52.915-87.572
	c1.554-3.949,3.243-7.579,5.069-10.823c-49.919,5.017-88.889,47.154-88.889,98.396V141H168.434z"/>
<path style="fill:#D2957D;" d="M265.145,265.56h-8.999c-9.097,0-16.499-7.986-16.499-17.802V226.2c0-4.143,3.358-7.5,7.5-7.5
	s7.5,3.357,7.5,7.5v21.559c0,1.743,1.041,2.802,1.499,2.802h8.999c4.142,0,7.5,3.357,7.5,7.5
	C272.645,262.203,269.287,265.56,265.145,265.56z"/>
<g>
	<path style="fill:#B2762F;" d="M175.012,207.192c-1.919,0-3.838-0.732-5.303-2.196c-2.929-2.929-2.929-7.678,0-10.606
		c18.466-18.467,48.512-18.466,66.98-0.001c2.929,2.929,2.929,7.678,0,10.606c-2.929,2.93-7.677,2.929-10.607,0.001
		c-12.618-12.617-33.15-12.618-45.766-0.001C178.851,206.46,176.931,207.192,175.012,207.192z"/>
	<path style="fill:#B2762F;" d="M336.986,207.192c-1.919,0-3.838-0.732-5.303-2.196c-12.618-12.617-33.149-12.618-45.767-0.001
		c-2.929,2.93-7.678,2.929-10.607,0.001c-2.929-2.93-2.929-7.678,0-10.606c18.465-18.467,48.512-18.466,66.979-0.001
		c2.929,2.929,2.929,7.678,0.001,10.606C340.826,206.46,338.906,207.192,336.986,207.192z"/>
</g>
<g>
	<path style="fill:#775436;" d="M203.199,248.86c-11.792,0-21.384-9.617-21.384-21.438c0-11.82,9.593-21.437,21.384-21.437
		c11.79,0,21.382,9.616,21.382,21.437S214.989,248.86,203.199,248.86z"/>
	<path style="fill:#775436;" d="M308.8,248.86c-11.792,0-21.384-9.617-21.384-21.438c0-11.82,9.593-21.437,21.384-21.437
		c11.79,0,21.382,9.616,21.382,21.437C330.183,239.243,320.59,248.86,308.8,248.86z"/>
</g>
<path style="fill:#D19546;" d="M112.804,139.59c-2.833,0-6.524,1.867-8.203,4.148l-15.666,21.3
	c-1.679,2.282-0.734,4.149,2.099,4.149h329.932c2.833,0,3.778-1.867,2.099-4.149l-15.666-21.3c-1.679-2.281-5.37-4.148-8.203-4.148
	H112.804z"/>
<g style="opacity:0.15;">
	<path style="fill:#440075;" d="M135.27,165.038l15.666-21.3c1.679-2.281,5.37-4.148,8.203-4.148h-46.335
		c-2.833,0-6.524,1.867-8.203,4.148l-15.666,21.3c-1.679,2.282-0.734,4.149,2.099,4.149h46.335
		C134.535,169.188,133.591,167.32,135.27,165.038z"/>
</g>
<path style="fill:#D2957D;" d="M256,301.788c-12.9,0-25.801-4.909-35.624-14.729c-2.929-2.929-2.93-7.677-0.001-10.607
	c2.93-2.93,7.677-2.931,10.607-0.001c13.796,13.791,36.241,13.793,50.033,0c2.929-2.928,7.678-2.928,10.606,0
	c2.929,2.93,2.929,7.678,0,10.607C281.802,296.878,268.901,301.788,256,301.788z"/>
<g>
	<ellipse style="fill:#368C0E;" cx="170.709" cy="416.87" rx="19.357" ry="11.982"/>
	<path style="fill:#368C0E;" d="M363.491,425.232c0,1.7-1.391,3.091-3.09,3.091h-37.793c-1.7,0-3.091-1.391-3.091-3.091v-11.897
		c0-1.7,1.391-3.091,3.091-3.091h37.793c1.7,0,3.09,1.391,3.09,3.091V425.232z"/>
</g>
<rect x="149.199" y="471.82" style="fill:#B2762F;" width="66.28" height="40.17"/>
<path style="fill:#D19546;" d="M174.85,471.825c-0.001,0.059-0.009,0.116-0.009,0.175v40h15v-40c0-0.059-0.007-0.116-0.009-0.175
	H174.85z"/>
<path style="fill:#775436;" d="M222.518,469.813c0,1.7-1.391,3.091-3.09,3.091h-74.173c-1.7,0-3.09-1.391-3.09-3.091v-18.644
	c0-1.7,1.391-3.091,3.09-3.091h74.173c1.7,0,3.09,1.391,3.09,3.091L222.518,469.813L222.518,469.813z"/>
<rect x="296.519" y="471.82" style="fill:#B2762F;" width="66.28" height="40.17"/>
<rect x="322.159" y="471.82" style="fill:#D19546;" width="15" height="40.17"/>
<g>
	<path style="fill:#775436;" d="M369.834,469.813c0,1.7-1.391,3.091-3.09,3.091h-74.173c-1.7,0-3.09-1.391-3.09-3.091v-18.644
		c0-1.7,1.391-3.091,3.09-3.091h74.173c1.7,0,3.09,1.391,3.09,3.091V469.813z"/>
	<path style="fill:#775436;" d="M255.999,66.74c-1.97,0-3.91-0.801-5.3-2.2c-1.4-1.4-2.2-3.33-2.2-5.3c0-1.98,0.8-3.91,2.2-5.311
		c1.39-1.39,3.33-2.189,5.3-2.189s3.91,0.8,5.3,2.189c1.4,1.4,2.2,3.33,2.2,5.311c0,1.97-0.8,3.899-2.2,5.3
		C259.909,65.939,257.969,66.74,255.999,66.74z"/>
	<path style="fill:#775436;" d="M201.399,66.74c-1.97,0-3.91-0.801-5.3-2.2c-1.4-1.4-2.2-3.33-2.2-5.3c0-1.98,0.8-3.91,2.2-5.311
		c1.39-1.39,3.33-2.189,5.3-2.189s3.91,0.8,5.3,2.189c1.4,1.4,2.2,3.33,2.2,5.311c0,1.97-0.8,3.899-2.2,5.3
		C205.309,65.939,203.369,66.74,201.399,66.74z"/>
	<path style="fill:#775436;" d="M310.599,66.74c-1.97,0-3.91-0.801-5.3-2.2c-1.4-1.4-2.2-3.33-2.2-5.3c0-1.98,0.8-3.91,2.2-5.311
		c1.39-1.39,3.33-2.189,5.3-2.189s3.91,0.8,5.3,2.189c1.4,1.4,2.2,3.33,2.2,5.311c0,1.97-0.8,3.899-2.2,5.3
		C314.509,65.939,312.569,66.74,310.599,66.74z"/>
</g>
<g>
</g>
<g>
</g>
<g>
</g>
<g>
</g>
<g>
</g>
<g>
</g>
<g>
</g>
<g>
</g>
<g>
</g>
<g>
</g>
<g>
</g>
<g>
</g>
<g>
</g>
<g>
</g>
<g>
</g>
</svg>
