<?xml version="1.0" encoding="iso-8859-1"?>
<!-- Generator: Adobe Illustrator 19.0.0, SVG Export Plug-In . SVG Version: 6.00 Build 0)  -->
<svg version="1.1" id="Capa_1" xmlns="http://www.w3.org/2000/svg" xmlns:xlink="http://www.w3.org/1999/xlink" x="0px" y="0px"
	 viewBox="0 0 512.001 512.001" style="enable-background:new 0 0 512.001 512.001;" xml:space="preserve">
<g>
	<path style="fill:#9EA7AF;" d="M150.633,288.259v24.171h29.617c-2.234-4.837-3.49-10.221-3.49-15.896v-8.275H150.633z"/>
	<path style="fill:#9EA7AF;" d="M361.366,288.259H335.24v8.275c0,5.676-1.256,11.059-3.49,15.896h29.616V288.259z"/>
</g>
<g>
	<path style="fill:#775436;" d="M170.716,417.726c-0.628-1.061-0.414-2.756,0.457-3.628l17.264-17.263
		c0.778-0.779,1.189-1.803,1.155-2.883c-0.033-1.081-0.505-2.077-1.33-2.806l-22.155-19.599c-0.889-0.786-1.057-2.267-0.366-3.232
		l7.192-10.069h-66.493c-8.499,0-15.452,6.954-15.452,15.453v128c0,5.666,4.636,10.302,10.302,10.302h112.105v-22.195
		L170.716,417.726z"/>
	<path style="fill:#775436;" d="M405.56,358.245h-66.492l7.191,10.069c0.69,0.966,0.522,2.447-0.366,3.233l-22.155,19.599
		c-0.825,0.729-1.297,1.725-1.33,2.806s0.377,2.105,1.155,2.883l17.264,17.263c0.871,0.872,1.085,2.567,0.457,3.628l-42.679,72.08
		V512h112.105c5.666,0,10.302-4.636,10.302-10.302v-128C421.013,365.199,414.06,358.245,405.56,358.245z"/>
</g>
<g style="opacity:0.15;">
	<path style="fill:#440075;" d="M120.678,501.698v-128c0-8.499,6.954-15.453,15.453-15.453H106.44
		c-8.499,0-15.452,6.954-15.452,15.453v128c0,5.666,4.636,10.302,10.302,10.302h29.69C125.313,512,120.678,507.364,120.678,501.698z
		"/>
</g>
<path style="fill:#E6E9ED;" d="M282.842,414h-53.684c-6.311,0-11.977-2.88-15.764-7.385V512h85.211V406.615
	C294.818,411.12,289.152,414,282.842,414z"/>
<path style="opacity:0.15;fill:#440075;enable-background:new    ;" d="M229.158,414c-6.311,0-11.977-2.88-15.764-7.385V512h29.507
	v-98H229.158z"/>
<path style="fill:#368C0E;" d="M297.604,334.394h-83.209c-0.778,0-1.549-0.031-2.315-0.079v71.84
	c3.711,5.488,9.992,9.114,17.078,9.114h53.684c7.086,0,13.367-3.626,17.078-9.114v-71.84
	C299.154,334.363,298.383,334.394,297.604,334.394z"/>
<path style="fill:#B2762F;" d="M318.635,327.918c-5.749,3.911-12.628,6.254-20.029,6.451v157.328
	c0.106-0.135,0.217-0.295,0.33-0.486l43.209-72.975c0.866-1.463,0.591-3.643-0.61-4.845l-17.264-17.263
	c-1.201-1.202-1.143-3.107,0.13-4.233l22.155-19.599c1.273-1.127,1.506-3.18,0.518-4.563L318.635,327.918z"/>
<path style="opacity:0.15;fill:#440075;enable-background:new    ;" d="M239.402,394.666v-60.272h-25.007
	c-0.778,0-1.549-0.031-2.315-0.079v71.84c3.711,5.488,9.992,9.114,17.078,9.114h30.848
	C248.674,415.27,239.402,405.998,239.402,394.666z"/>
<path style="fill:#B2762F;" d="M193.365,327.918l-28.438,39.815c-0.988,1.383-0.756,3.436,0.518,4.563l22.155,19.599
	c1.273,1.126,1.331,3.031,0.13,4.233l-17.264,17.263c-1.201,1.202-1.477,3.382-0.61,4.845l43.209,72.975
	c0.113,0.191,0.224,0.351,0.33,0.486V334.369C205.993,334.172,199.114,331.829,193.365,327.918z"/>
<g>
	<path style="fill:#368C0E;" d="M372.498,168.435h-13.225v59.144c0,5.553-0.925,10.958-2.645,16.051h15.869
		c13.453,0,24.358-10.906,24.358-24.359v-26.477C396.856,179.341,385.951,168.435,372.498,168.435z"/>
	<path style="fill:#368C0E;" d="M152.727,227.578v-59.144h-13.224c-13.452,0-24.359,10.906-24.359,24.359v26.477
		c0,13.453,10.907,24.359,24.359,24.359h15.868C153.651,238.537,152.727,233.131,152.727,227.578z"/>
</g>
<g>
	<path style="fill:#203A74;" d="M152.727,197.97h-14.178c-4.143,0-7.5,3.358-7.5,7.5s3.357,7.5,7.5,7.5h14.178V197.97z"/>
	<path style="fill:#203A74;" d="M373.451,197.97h-14.178v15h14.178c4.143,0,7.5-3.358,7.5-7.5S377.594,197.97,373.451,197.97z"/>
</g>
<path style="fill:#5DC647;" d="M359.869,109.427l-45.782-24.833c-0.298-0.161-0.633-0.246-0.97-0.246
	c-0.543,0-1.053,0.209-1.436,0.589l-17.285,17.162c-0.57,0.566-1.343,0.884-2.149,0.884c-0.807,0-1.579-0.318-2.148-0.884
	L272.81,84.936c-0.378-0.373-0.9-0.588-1.434-0.588c-0.541,0-1.05,0.209-1.434,0.589l-17.286,17.162
	c-0.569,0.566-1.343,0.884-2.149,0.884c-0.807,0-1.579-0.318-2.148-0.884l-19.482-19.343c-0.382-0.379-0.89-0.588-1.433-0.588
	c-0.533,0-1.055,0.215-1.434,0.589l-18.936,18.797c-0.569,0.564-1.341,0.883-2.147,0.883c-0.807,0-1.58-0.318-2.15-0.884
	l-18.385-18.252c-0.384-0.379-0.892-0.588-1.433-0.588c-0.52,0-1.013,0.193-1.388,0.545l-28.816,26.922
	c-0.303,0.283-0.654,0.49-1.029,0.628v116.77c0,17.283,8.627,33.228,23.078,42.655c0.598,0.389,0.955,1.048,0.955,1.762v24.538
	c0,21.428,17.331,38.86,38.636,38.86h83.209c21.305,0,38.636-17.432,38.636-38.86v-24.538c0-0.714,0.357-1.373,0.955-1.762
	c14.451-9.427,23.078-25.373,23.078-42.655V109.585C360.138,109.535,359.998,109.498,359.869,109.427z"/>
<path style="opacity:0.15;fill:#440075;enable-background:new    ;" d="M200.56,259.112c-14.452-9.427-23.079-25.373-23.079-42.656
	V89.222c0-0.738,0.031-1.469,0.063-2.2l-24.787,23.158c-0.303,0.283-0.654,0.49-1.029,0.628v116.77
	c0,17.283,8.627,33.228,23.078,42.655c0.598,0.389,0.955,1.048,0.955,1.762v24.538c0,16.886,10.766,31.283,25.754,36.631v-72.292
	C201.514,260.159,201.157,259.501,200.56,259.112z"/>
<path style="fill:#FFFFFF;" d="M170.752,188.821L170.752,188.821c0,12.232,9.917,22.149,22.149,22.149h16.483
	c12.232,0,22.148-9.916,22.148-22.149l0,0v-4.636h-60.781L170.752,188.821L170.752,188.821z"/>
<path style="fill:#203A74;" d="M150.673,112.322c-0.405,0-0.813-0.081-1.202-0.246c-1.112-0.476-1.833-1.562-1.833-2.763V52.351
	C147.638,23.484,171.229,0,200.227,0h111.547c28.998,0,52.589,23.484,52.589,52.351v55.759c0,1.062-0.565,2.046-1.489,2.588
	c-0.475,0.28-1.012,0.42-1.547,0.42c-0.501,0-1.003-0.123-1.457-0.369l-45.782-24.833c-0.298-0.161-0.633-0.246-0.97-0.246
	c-0.543,0-1.053,0.209-1.436,0.589l-17.285,17.162c-0.57,0.566-1.343,0.884-2.149,0.884c-0.807,0-1.579-0.318-2.148-0.884
	l-17.29-17.163c-0.378-0.374-0.9-0.588-1.434-0.588c-0.541,0-1.05,0.209-1.434,0.589l-17.286,17.162
	c-0.569,0.566-1.343,0.884-2.149,0.884c-0.807,0-1.579-0.318-2.148-0.884l-19.482-19.343c-0.382-0.378-0.89-0.588-1.433-0.588
	c-0.533,0-1.055,0.215-1.434,0.589l-18.936,18.797c-0.569,0.564-1.341,0.883-2.147,0.883l0,0c-0.807,0-1.58-0.318-2.15-0.884
	l-18.385-18.252c-0.384-0.379-0.892-0.588-1.433-0.588c-0.52,0-1.013,0.193-1.388,0.545l-28.816,26.922
	C152.182,112.04,151.433,112.322,150.673,112.322z"/>
<g style="opacity:0.15;">
	<path style="fill:#030005;" d="M177.32,52.351C177.32,23.484,200.91,0,229.908,0h-29.682c-28.998,0-52.589,23.484-52.589,52.351
		v56.962c0,1.201,0.721,2.287,1.833,2.763c0.389,0.165,0.797,0.246,1.202,0.246c0.76,0,1.509-0.282,2.083-0.82l24.564-22.95V52.351
		H177.32z"/>
</g>
<path style="fill:#203A74;" d="M201.14,199.63c-1.97,0-3.91-0.8-5.3-2.2c-1.4-1.39-2.2-3.33-2.2-5.3c0-1.98,0.8-3.91,2.2-5.3
	c1.39-1.4,3.33-2.2,5.3-2.2c1.98,0,3.91,0.8,5.3,2.2c1.4,1.39,2.2,3.33,2.2,5.3s-0.8,3.91-2.2,5.3
	C205.05,198.83,203.12,199.63,201.14,199.63z"/>
<path style="fill:#FFFFFF;" d="M336.354,189.553c0,12.232-9.917,22.149-22.149,22.149h-16.482c-12.232,0-22.149-9.917-22.149-22.149
	l0,0c0-12.232,9.917-22.149,22.149-22.149h16.482C326.438,167.404,336.354,177.321,336.354,189.553L336.354,189.553z"/>
<path style="fill:#368C0E;" d="M314.205,219.202h-16.482c-16.349,0-29.649-13.3-29.649-29.649s13.301-29.649,29.649-29.649h16.482
	c16.349,0,29.649,13.3,29.649,29.649C343.854,205.902,330.554,219.202,314.205,219.202z M297.723,174.904
	c-8.078,0-14.649,6.571-14.649,14.649s6.571,14.649,14.649,14.649h16.482c8.078,0,14.649-6.571,14.649-14.649
	s-6.571-14.649-14.649-14.649H297.723z"/>
<path style="fill:#203A74;" d="M305.97,197.05c-1.979,0-3.91-0.8-5.31-2.19c-1.4-1.4-2.2-3.33-2.2-5.31c0-1.97,0.8-3.91,2.2-5.3
	c1.399-1.4,3.33-2.2,5.31-2.2c1.97,0,3.9,0.8,5.3,2.2c1.391,1.4,2.19,3.33,2.19,5.3s-0.8,3.91-2.19,5.31
	C309.87,196.25,307.94,197.05,305.97,197.05z"/>
<g>
	<path style="fill:#368C0E;" d="M291.541,285.134h-71.082c-4.143,0-7.5-3.358-7.5-7.5s3.357-7.5,7.5-7.5h71.082
		c4.143,0,7.5,3.358,7.5,7.5S295.684,285.134,291.541,285.134z"/>
	<path style="fill:#368C0E;" d="M275.014,221.494c-4.143,0-7.5,3.358-7.5,7.5v7.326c0,1.018-0.86,1.878-1.878,1.878h-19.271
		c-1.018,0-1.878-0.86-1.878-1.878v-45.2c5.155-1.599,8.91-6.412,8.91-12.085v-8.54c0-4.142-3.357-7.5-7.5-7.5s-7.5,3.358-7.5,7.5
		v6.19h-67.645c-4.143,0-7.5,3.358-7.5,7.5v4.636c0,16.349,13.301,29.649,29.649,29.649h16.483c7.752,0,14.814-2.993,20.102-7.88
		v25.73c0,9.307,7.571,16.878,16.878,16.878h19.271c9.307,0,16.878-7.572,16.878-16.878v-7.326
		C282.514,224.852,279.156,221.494,275.014,221.494z M209.385,203.47h-16.483c-7.098,0-13.032-5.074-14.368-11.785h45.219
		C222.416,198.397,216.481,203.47,209.385,203.47z"/>
</g>
<path style="fill:#B2762F;" d="M396.104,512v-27.3c0-2.833-2.317-5.151-5.15-5.151h-55.63c-2.833,0-5.151,2.318-5.151,5.151V512
	H396.104z"/>
<g>
	<path style="fill:#C5CCD3;" d="M381.682,319.871c0,2.833-2.317,5.151-5.15,5.151h-11.332c-2.833,0-5.151-2.318-5.151-5.151v-39.053
		c0-2.833,2.318-5.151,5.151-5.151h11.332c2.833,0,5.15,2.318,5.15,5.151V319.871z"/>
	<path style="fill:#C5CCD3;" d="M151.951,319.871c0,2.833-2.317,5.151-5.15,5.151h-11.332c-2.833,0-5.15-2.318-5.15-5.151v-39.053
		c0-2.833,2.317-5.151,5.15-5.151h11.332c2.833,0,5.15,2.318,5.15,5.151V319.871z"/>
</g>
<g>
	<rect x="198.05" y="126.89" style="fill:#368C0E;" width="71.6" height="15"/>
	<rect x="286.65" y="126.89" style="fill:#368C0E;" width="27.299" height="15"/>
	<rect x="330.951" y="126.89" style="fill:#368C0E;" width="29.326" height="15"/>
	<rect x="151.73" y="126.89" style="fill:#368C0E;" width="29.326" height="15"/>
</g>
<g>
	<path style="fill:#9EA7AF;" d="M199.053,143.43c0,1.854-1.517,3.371-3.37,3.371h-12.259c-1.854,0-3.371-1.517-3.371-3.371v-20.329
		c0-1.854,1.518-3.37,3.371-3.37h12.259c1.854,0,3.37,1.517,3.37,3.37V143.43z"/>
	<path style="fill:#9EA7AF;" d="M287.648,143.43c0,1.854-1.516,3.371-3.37,3.371H272.02c-1.854,0-3.371-1.517-3.371-3.371v-20.329
		c0-1.854,1.518-3.37,3.371-3.37h12.259c1.855,0,3.37,1.517,3.37,3.37L287.648,143.43L287.648,143.43z"/>
	<path style="fill:#9EA7AF;" d="M331.947,143.43c0,1.854-1.518,3.371-3.371,3.371h-12.259c-1.854,0-3.37-1.517-3.37-3.371v-20.329
		c0-1.854,1.517-3.37,3.37-3.37h12.259c1.853,0,3.371,1.517,3.371,3.37V143.43z"/>
</g>
<g>
</g>
<g>
</g>
<g>
</g>
<g>
</g>
<g>
</g>
<g>
</g>
<g>
</g>
<g>
</g>
<g>
</g>
<g>
</g>
<g>
</g>
<g>
</g>
<g>
</g>
<g>
</g>
<g>
</g>
</svg>
