<?xml version="1.0" encoding="iso-8859-1"?>
<!-- Generator: Adobe Illustrator 19.0.0, SVG Export Plug-In . SVG Version: 6.00 Build 0)  -->
<svg version="1.1" id="Capa_1" xmlns="http://www.w3.org/2000/svg" xmlns:xlink="http://www.w3.org/1999/xlink" x="0px" y="0px"
	 viewBox="0 0 512 512" style="enable-background:new 0 0 512 512;" xml:space="preserve">
<g>
	<path style="fill:#046699;" d="M152.726,166.805l0.001-26.828c-4.412,3.355-8.629,7.02-12.622,11.023v15.805H152.726z"/>
	<path style="fill:#046699;" d="M371.896,151c-3.992-4.004-8.211-7.668-12.622-11.023v26.828h12.622V151z"/>
</g>
<path style="fill:#64CBFF;" d="M383.08,358.245H128.919c-8.499,0-15.453,6.954-15.453,15.453v128
	c0,5.666,4.636,10.302,10.302,10.302h264.463c5.666,0,10.302-4.636,10.302-10.302v-128
	C398.533,365.199,391.579,358.245,383.08,358.245z"/>
<g style="opacity:0.15;">
	<path style="fill:#440075;" d="M142.974,501.698v-128c0-8.499,6.954-15.453,15.453-15.453H128.92
		c-8.499,0-15.453,6.954-15.453,15.453v128c0,5.666,4.636,10.302,10.302,10.302h29.507C147.61,512,142.974,507.364,142.974,501.698z
		"/>
</g>
<path style="fill:#98E8F9;" d="M253.035,447.273c1.63,2.317,4.297,2.316,5.928,0l54.515-77.486c1.63-2.316,2.964-6.53,2.964-9.363
	v-2.179H195.559v2.178c0,2.833,1.333,7.046,2.963,9.364L253.035,447.273z"/>
<path style="fill:#B2762F;" d="M294.193,328.417c-11.977,4.955-24.863,7.659-38.193,7.659c-13.33,0-26.216-2.704-38.192-7.658
	c-1.006,0.637-1.645,1.805-1.645,3.322v22.161c0,2.833,1.333,7.046,2.964,9.364l33.909,48.199c1.63,2.318,4.298,2.318,5.928,0
	l33.911-48.199c1.63-2.318,2.964-6.531,2.964-9.364v-22.162C295.839,330.223,295.199,329.054,294.193,328.417z"/>
<path style="opacity:0.15;fill:#440075;enable-background:new    ;" d="M245.698,353.901V335.52
	c-9.671-1.012-19.03-3.435-27.891-7.102c-1.006,0.637-1.645,1.805-1.645,3.322v22.161c0,2.833,1.333,7.046,2.964,9.364
	l33.909,48.199c1.63,2.318,4.298,2.318,5.928,0l11.805-16.779l-22.105-31.42C247.032,360.947,245.698,356.734,245.698,353.901z"/>
<g>
	<path style="fill:#D19546;" d="M152.726,225.566l0.001-60.337h-13.223c-13.454,0-24.359,10.906-24.359,24.359v26.477
		c0,13.452,10.905,24.359,24.359,24.359H153.8C153.096,235.571,152.726,230.611,152.726,225.566z"/>
	<path style="fill:#D19546;" d="M372.497,165.23h-13.224v60.337c0,5.045-0.371,10.005-1.073,14.858h14.297
		c13.454,0,24.358-10.907,24.358-24.359v-26.477C396.855,176.136,385.951,165.23,372.497,165.23z"/>
</g>
<g>
	<path style="fill:#775436;" d="M152.726,194.766h-14.178c-4.142,0-7.5,3.357-7.5,7.5s3.358,7.5,7.5,7.5h14.177L152.726,194.766z"/>
	<path style="fill:#775436;" d="M373.451,194.766h-14.178v15h14.178c4.143,0,7.5-3.357,7.5-7.5S377.594,194.766,373.451,194.766z"/>
</g>
<path style="fill:#B2762F;" d="M262.237,111.072h-12.474c-37.214,0-71.352,8.927-98.037,29.668l-0.001,84.826
	c0,57.59,46.686,104.274,104.274,104.274c57.589,0,104.273-46.684,104.273-104.274V140.74
	C333.589,119.999,299.451,111.072,262.237,111.072z"/>
<path style="fill:#775436;" d="M256,217.924c0.442,0,0.881,0.007,1.322,0.01c-0.622-0.52-1.034-1.287-1.034-2.139v-31.521
	c0-4.143-3.358-7.5-7.5-7.5s-7.5,3.357-7.5,7.5v31.521c0,0.858,0.082,1.696,0.2,2.522C246.271,218.059,251.113,217.924,256,217.924z
	"/>
<path style="fill:#64CBFF;" d="M256,337.899c-49.424,0-92.871-36.88-105.656-89.685c-0.605-2.496,0.384-5.133,2.41-6.42
	c24.958-15.869,62.59-24.972,103.247-24.972c40.656,0,78.287,9.103,103.248,24.972c2.022,1.287,3.012,3.924,2.408,6.42
	C348.87,301.02,305.423,337.899,256,337.899z"/>
<g style="opacity:0.15;">
	<path style="fill:#440075;" d="M177.602,229.695c-9.2,3.42-17.567,7.47-24.849,12.1c-2.026,1.287-3.015,3.924-2.41,6.42
		c12.785,52.805,56.232,89.685,105.656,89.685c8.313,0,16.451-1.066,24.308-3.055C231.813,323.723,191.693,283.678,177.602,229.695z
		"/>
</g>
<g>
	<path style="fill:#775436;" d="M226.02,171.275c-1.919,0-3.839-0.732-5.303-2.196c-4.547-4.548-10.587-7.052-17.006-7.052
		c-6.419,0-12.459,2.504-17.005,7.051c-2.93,2.93-7.677,2.929-10.607,0.001c-2.929-2.929-2.929-7.678,0-10.606
		c7.38-7.381,17.187-11.445,27.613-11.445c10.426,0,20.232,4.064,27.613,11.444c2.929,2.93,2.929,7.678,0,10.607
		C229.859,170.543,227.939,171.275,226.02,171.275z"/>
	<path style="fill:#775436;" d="M326.053,171.275c-1.919,0-3.839-0.732-5.304-2.196c-4.547-4.548-10.587-7.052-17.006-7.052
		c-6.42,0-12.459,2.504-17.006,7.051c-2.93,2.93-7.679,2.929-10.606,0.001c-2.93-2.929-2.93-7.678-0.001-10.606
		c7.38-7.381,17.186-11.445,27.613-11.445c10.426,0,20.232,4.064,27.613,11.444c2.929,2.93,2.929,7.678,0,10.607
		C329.892,170.543,327.972,171.275,326.053,171.275z"/>
	<path style="fill:#775436;" d="M203.712,211.536c-11.792,0-21.384-9.617-21.384-21.438s9.593-21.438,21.384-21.438
		c11.79,0,21.382,9.617,21.382,21.438S215.502,211.536,203.712,211.536z"/>
	<path style="fill:#775436;" d="M303.744,211.536c-11.791,0-21.384-9.617-21.384-21.438s9.593-21.438,21.384-21.438
		c11.79,0,21.383,9.617,21.383,21.438S315.534,211.536,303.744,211.536z"/>
</g>
<path style="fill:#98E8F9;" d="M370.35,445.816c0-1.699-1.39-3.09-3.09-3.09h-14.687c-1.7,0-3.091-1.391-3.091-3.091v-14.687
	c0-1.699-1.39-3.09-3.09-3.09H332.48c-1.699,0-3.09,1.391-3.09,3.09v14.687c0,1.7-1.391,3.091-3.091,3.091h-14.686
	c-1.7,0-3.09,1.391-3.09,3.09v13.912c0,1.7,1.39,3.09,3.09,3.09H326.3c1.7,0,3.091,1.391,3.091,3.091v14.686
	c0,1.7,1.391,3.09,3.09,3.09h13.912c1.7,0,3.09-1.39,3.09-3.09v-14.686c0-1.7,1.391-3.091,3.091-3.091h14.687
	c1.7,0,3.09-1.39,3.09-3.09L370.35,445.816L370.35,445.816z"/>
<path style="fill:#64CBFF;" d="M249.764,112.794h12.474c42.86,0,81.646,11.831,109.658,39.928V98.289
	C371.896,44.006,327.785,0,273.371,0H238.63c-54.415,0-98.525,44.006-98.525,98.289v54.433
	C168.117,124.625,206.902,112.794,249.764,112.794z"/>
<g style="opacity:0.15;">
	<path style="fill:#440075;" d="M170.495,98.289C170.495,44.006,214.605,0,269.02,0h-30.39c-54.415,0-98.525,44.006-98.525,98.289
		v54.433c9.074-9.103,19.284-16.486,30.391-22.324V98.289H170.495z"/>
</g>
<g>
</g>
<g>
</g>
<g>
</g>
<g>
</g>
<g>
</g>
<g>
</g>
<g>
</g>
<g>
</g>
<g>
</g>
<g>
</g>
<g>
</g>
<g>
</g>
<g>
</g>
<g>
</g>
<g>
</g>
</svg>
