<?xml version="1.0" encoding="iso-8859-1"?>
<!-- Generator: Adobe Illustrator 19.0.0, SVG Export Plug-In . SVG Version: 6.00 Build 0)  -->
<svg version="1.1" id="Capa_1" xmlns="http://www.w3.org/2000/svg" xmlns:xlink="http://www.w3.org/1999/xlink" x="0px" y="0px"
	 viewBox="0 0 512 512" style="enable-background:new 0 0 512 512;" xml:space="preserve">
<path style="fill:#422017;" d="M448.8,208.868h-32.134c-8.284,0-15,6.716-15,15s6.716,15,15,15v66.4c-8.284,0-15,6.716-15,15
	s6.716,15,15,15H448.8c34.849,0,63.2-28.352,63.2-63.201C512,237.219,483.648,208.868,448.8,208.868z"/>
<path style="fill:#5B3227;" d="M95.333,305.268v-66.4c8.284,0,15-6.716,15-15s-6.716-15-15-15H63.199
	C28.351,208.868,0,237.219,0,272.066c0,34.85,28.351,63.201,63.199,63.201h32.134c8.284,0,15-6.716,15-15
	S103.617,305.268,95.333,305.268z"/>
<path style="fill:#794334;" d="M389.479,93.609c-2.85-3.328-7.013-5.244-11.395-5.244c-4.381,0-8.544,1.916-11.394,5.244
	c-27.744,32.405-68.09,50.99-110.693,50.99c-42.604,0-82.95-18.584-110.693-50.988c-2.851-3.328-7.013-5.244-11.395-5.244
	s-8.544,1.916-11.395,5.244c-27.202,31.771-42.183,72.324-42.183,114.189v176.732c0,52.567,42.767,95.334,95.333,95.334h160.667
	c52.566,0,95.333-42.767,95.333-95.334V207.801C431.666,165.935,416.684,125.379,389.479,93.609z"/>
<path style="fill:#5B3227;" d="M389.479,93.609c-2.85-3.328-7.013-5.244-11.395-5.244c-4.381,0-8.544,1.916-11.394,5.244
	c-27.743,32.404-68.088,50.989-110.689,50.99v335.268h80.331c52.566,0,95.333-42.767,95.333-95.334V207.801
	C431.666,165.935,416.684,125.379,389.479,93.609z"/>
<path id="SVGCleanerId_0" style="fill:#3B211A;" d="M191.735,262.978c-3.949,0-7.819-1.601-10.609-4.391
	c-2.79-2.8-4.391-6.659-4.391-10.609s1.601-7.82,4.391-10.61c2.79-2.79,6.66-4.39,10.609-4.39c3.95,0,7.811,1.6,10.601,4.39
	c2.8,2.79,4.399,6.66,4.399,10.61s-1.6,7.81-4.399,10.609C199.546,261.378,195.676,262.978,191.735,262.978z"/>
<path style="fill:#3B211A;" d="M320.266,262.978c-3.95,0-7.81-1.601-10.61-4.391c-2.789-2.8-4.39-6.659-4.39-10.609
	s1.601-7.82,4.39-10.61c2.79-2.79,6.66-4.39,10.61-4.39s7.811,1.6,10.61,4.39c2.79,2.79,4.39,6.66,4.39,10.61s-1.6,7.81-4.39,10.609
	C328.076,261.378,324.216,262.978,320.266,262.978z"/>
<g>
	<path id="SVGCleanerId_0_1_" style="fill:#3B211A;" d="M191.735,262.978c-3.949,0-7.819-1.601-10.609-4.391
		c-2.79-2.8-4.391-6.659-4.391-10.609s1.601-7.82,4.391-10.61c2.79-2.79,6.66-4.39,10.609-4.39c3.95,0,7.811,1.6,10.601,4.39
		c2.8,2.79,4.399,6.66,4.399,10.61s-1.6,7.81-4.399,10.609C199.546,261.378,195.676,262.978,191.735,262.978z"/>
</g>
<path style="fill:#0F0301;" d="M320.266,262.978c-3.95,0-7.81-1.601-10.61-4.391c-2.789-2.8-4.39-6.659-4.39-10.609
	s1.601-7.82,4.39-10.61c2.79-2.79,6.66-4.39,10.61-4.39s7.811,1.6,10.61,4.39c2.79,2.79,4.39,6.66,4.39,10.61s-1.6,7.81-4.39,10.609
	C328.076,261.378,324.216,262.978,320.266,262.978z"/>
<path style="fill:#FCC892;" d="M389.48,93.608C356.029,54.54,307.378,32.133,256,32.133c-51.381,0-100.034,22.408-133.484,61.48
	c-4.808,5.615-4.808,13.896,0,19.511c33.451,39.069,82.103,61.477,133.482,61.477s100.031-22.408,133.483-61.479
	C394.289,107.505,394.289,99.224,389.48,93.608z"/>
<path style="fill:#FCA953;" d="M389.48,93.608c-33.451-39.067-82.102-61.476-133.478-61.476v142.468
	c51.377-0.001,100.028-22.409,133.479-61.479C394.289,107.505,394.289,99.224,389.48,93.608z"/>
<path style="fill:#5B3227;" d="M256,383.467c-22.484,0-43.455-12.099-54.727-31.574c-4.15-7.17-1.701-16.346,5.469-20.496
	s16.346-1.702,20.496,5.469c5.927,10.24,16.948,16.602,28.763,16.602c11.815,0,22.839-6.363,28.768-16.607
	c4.15-7.171,13.331-9.616,20.496-5.469c7.17,4.15,9.618,13.326,5.469,20.496C299.458,371.366,278.485,383.467,256,383.467z"/>
<path style="fill:#422017;" d="M310.732,351.887c4.149-7.17,1.701-16.346-5.469-20.496c-7.165-4.147-16.346-1.702-20.496,5.469
	c-5.929,10.244-16.951,16.606-28.766,16.607v30C278.486,383.466,299.458,371.365,310.732,351.887z"/>
<g>
</g>
<g>
</g>
<g>
</g>
<g>
</g>
<g>
</g>
<g>
</g>
<g>
</g>
<g>
</g>
<g>
</g>
<g>
</g>
<g>
</g>
<g>
</g>
<g>
</g>
<g>
</g>
<g>
</g>
</svg>
