<?xml version="1.0" encoding="iso-8859-1"?>
<!-- Generator: Adobe Illustrator 19.0.0, SVG Export Plug-In . SVG Version: 6.00 Build 0)  -->
<svg version="1.1" id="Layer_1" xmlns="http://www.w3.org/2000/svg" xmlns:xlink="http://www.w3.org/1999/xlink" x="0px" y="0px"
	 viewBox="0 0 512 512" style="enable-background:new 0 0 512 512;" xml:space="preserve">
<path style="fill:#F0D3A3;" d="M366.959,360.566C366.959,444.2,299.16,512,215.525,512S64.091,444.201,64.091,360.566v-72.341
	c0-83.634,67.799-151.434,151.434-151.434s151.434,67.799,151.434,151.434V360.566z"/>
<path style="opacity:0.05;enable-background:new    ;" d="M174.812,479.162c-0.949,0-1.915-0.166-2.857-0.516
	c-24.59-9.143-46.263-26.203-61.027-48.037c-2.537-3.753-1.552-8.85,2.2-11.387c3.753-2.537,8.851-1.552,11.387,2.2
	c12.864,19.026,31.743,33.889,53.155,41.85c4.245,1.578,6.406,6.299,4.829,10.544C181.272,477.12,178.14,479.162,174.812,479.162z"
	/>
<path style="opacity:0.05;enable-background:new    ;" d="M121.456,375.215c-4.278,0-7.88-3.317-8.175-7.647
	c-0.157-2.319-0.236-4.674-0.236-7c0-4.529,3.672-8.201,8.201-8.201c4.529,0,8.201,3.672,8.201,8.201
	c0,1.958,0.067,3.941,0.199,5.894c0.306,4.519-3.11,8.43-7.628,8.736C121.829,375.208,121.642,375.215,121.456,375.215z"/>
<path style="opacity:0.05;enable-background:new    ;" d="M141.928,427.621c-2.404,0-4.785-1.052-6.405-3.074
	c-8.103-10.114-14.139-21.485-17.941-33.799c-1.336-4.328,1.09-8.919,5.417-10.255c4.328-1.333,8.919,1.089,10.255,5.417
	c3.191,10.335,8.261,19.885,15.069,28.382c2.832,3.534,2.262,8.696-1.272,11.528C145.537,427.032,143.726,427.621,141.928,427.621z"
	/>
<path style="opacity:0.05;enable-background:new    ;" d="M230.905,500.429c-83.635,0-151.434-67.799-151.434-151.434v-72.341
	c0-46.033,20.545-87.262,52.959-115.036c-41.16,27.069-68.339,73.661-68.339,126.606v72.341
	c0,83.634,67.799,151.434,151.434,151.434c37.602,0,71.998-13.711,98.475-36.397C290.144,491.292,261.594,500.429,230.905,500.429z"
	/>
<g>
	<path style="fill:#272F37;" d="M103.55,332.262H80.139c-11.902,0-21.551-9.649-21.551-21.551v-90.091h44.962
		C103.55,220.621,103.55,332.262,103.55,332.262z"/>
	<path style="fill:#272F37;" d="M110.234,332.262L110.234,332.262c-3.691,0-6.684-2.993-6.684-6.684V220.622h49.102v69.223
		C152.652,313.27,133.661,332.262,110.234,332.262z"/>
</g>
<path style="fill:#C39774;" d="M412.857,342.553c-2.098,0-4.198-0.801-5.8-2.402c-3.203-3.203-3.203-8.395,0-11.598l40.934-40.933
	c3.204-3.203,8.395-3.203,11.598,0s3.203,8.395,0,11.597l-40.933,40.934C417.054,341.751,414.955,342.553,412.857,342.553z"/>
<path style="fill:#00A155;" d="M476.327,246.313c0,21.796-15.638,40.321-22.128,47.069c-1.517,1.577-4.024,1.577-5.54,0
	c-6.488-6.749-22.128-25.274-22.128-47.069s15.638-40.321,22.128-47.069c1.517-1.577,4.024-1.577,5.54,0
	C460.687,205.992,476.327,224.517,476.327,246.313z"/>
<path style="opacity:0.15;enable-background:new    ;" d="M451.429,265.21c-4.53,0-8.201-3.672-8.201-8.201v-21.394
	c0-4.529,3.671-8.201,8.201-8.201c4.53,0,8.201,3.672,8.201,8.201v21.394C459.63,261.539,455.959,265.21,451.429,265.21z"/>
<path style="fill:#C39774;" d="M475.88,378.958c14.775,0,26.752-11.978,26.752-26.752s-11.978-26.752-26.752-26.752H292.275
	c-14.775,0-26.752,11.978-26.752,26.752s11.978,26.752,26.752,26.752H475.88z"/>
<path style="opacity:0.05;enable-background:new    ;" d="M321.574,355.754h-26.672c-4.53,0-8.201-3.672-8.201-8.201
	s3.671-8.201,8.201-8.201h26.672c4.53,0,8.201,3.672,8.201,8.201S326.105,355.754,321.574,355.754z"/>
<path style="opacity:0.05;enable-background:new    ;" d="M422.234,364.326h-57.727c-4.53,0-8.201-3.672-8.201-8.201
	s3.671-8.201,8.201-8.201h57.727c4.53,0,8.201,3.672,8.201,8.201S426.763,364.326,422.234,364.326z"/>
<path style="fill:#C39774;" d="M230.902,394.536c-6.162,0-10.822,5.601-9.682,11.656c5.462,29.024,30.944,50.982,61.555,50.982
	s56.093-21.957,61.555-50.982c1.139-6.055-3.521-11.656-9.682-11.656H230.902z"/>
<path style="opacity:0.1;enable-background:new    ;" d="M248.92,421.857c-7.312,0-14.412,0.889-21.221,2.524
	c10.605,19.531,31.29,32.793,55.077,32.793c11.218,0,21.74-2.959,30.847-8.122C297.174,432.276,274.269,421.857,248.92,421.857z"/>
<path style="fill:#C39774;" d="M103.55,283.171c0-4.023-3.519-7.19-7.509-6.674c-28.511,3.683-50.538,28.051-50.538,57.565
	c0,29.513,22.026,53.883,50.538,57.565c3.99,0.515,7.509-2.652,7.509-6.674V283.171z"/>
<path style="opacity:0.1;enable-background:new    ;" d="M103.549,368.768c-19.136,0-34.706-15.57-34.706-34.706
	s15.569-34.706,34.706-34.706v16.402c-10.092,0-18.304,8.212-18.304,18.304s8.212,18.304,18.304,18.304V368.768z"/>
<g>
	<path style="fill:#272F37;" d="M246.252,318.598c-4.529,0-8.201-3.672-8.201-8.201c0-11.584-9.424-21.008-21.008-21.008
		c-11.584,0-21.008,9.424-21.008,21.008c0,4.529-3.672,8.201-8.201,8.201s-8.201-3.672-8.201-8.201
		c0-20.628,16.782-37.41,37.41-37.41s37.41,16.782,37.41,37.41C254.453,314.927,250.781,318.598,246.252,318.598z"/>
	<path style="fill:#272F37;" d="M366.959,318.598c-4.53,0-8.201-3.672-8.201-8.201c0-11.584-9.424-21.008-21.009-21.008
		c-11.584,0-21.008,9.424-21.008,21.008c0,4.529-3.671,8.201-8.201,8.201c-4.53,0-8.201-3.672-8.201-8.201
		c0-20.628,16.782-37.41,37.41-37.41c20.628,0,37.411,16.782,37.411,37.41C375.16,314.927,371.488,318.598,366.959,318.598z"/>
</g>
<path style="opacity:0.2;enable-background:new    ;" d="M215.525,136.791c-59.337,0-110.693,34.133-135.531,83.83H58.588v47.855
	h307.089C356,194.174,292.466,136.791,215.525,136.791z"/>
<path style="fill:#DE2A4E;" d="M373.654,256.513H57.99c-15.813,0-25.792-17.006-18.081-30.811l0,0
	c34.719-62.151,44.288-135.248,26.735-204.24l0,0C63.186,7.867,76.586-3.923,89.63,1.239l89.81,35.539
	c90.957,35.993,166.229,103.034,212.466,189.236l0,0C399.306,239.81,389.311,256.513,373.654,256.513z"/>
<path style="opacity:0.1;enable-background:new    ;" d="M63.764,235.033C98.734,164.181,105.207,82.618,81.851,7.137l0,0
	c-0.736-2.378-0.986-4.729-0.835-6.982C71.435,1.449,63.96,10.909,66.644,21.461l0,0c17.553,68.993,7.984,142.09-26.735,204.24l0,0
	c-7.712,13.805,2.268,30.811,18.08,30.811h6.376C60.826,250.269,60.141,242.374,63.764,235.033L63.764,235.033z M313.937,256.513
	h59.717c4.479,0,8.492-1.371,11.769-3.647L313.937,256.513z"/>
<path style="fill:#FDD05F;" d="M77.954,94.008c28.824,28.824,42.422,65.764,48.399,88.016c2.512,9.35-6.045,17.905-15.395,15.395
	c-22.252-5.978-59.192-19.575-88.015-48.399c-0.791-0.791-1.569-1.587-2.337-2.388c-34.692-36.249,18.71-89.65,54.958-54.958
	C76.367,92.439,77.163,93.218,77.954,94.008z"/>
<path style="opacity:0.15;enable-background:new    ;" d="M84.566,163.832c-2.098,0-4.198-0.8-5.799-2.402l-33.217-33.217
	c-3.203-3.203-3.203-8.395,0-11.597c3.203-3.203,8.395-3.203,11.597,0l33.217,33.217c3.203,3.203,3.203,8.395,0,11.597
	C88.764,163.032,86.665,163.832,84.566,163.832z"/>
<g>
</g>
<g>
</g>
<g>
</g>
<g>
</g>
<g>
</g>
<g>
</g>
<g>
</g>
<g>
</g>
<g>
</g>
<g>
</g>
<g>
</g>
<g>
</g>
<g>
</g>
<g>
</g>
<g>
</g>
</svg>
