<?xml version="1.0" encoding="iso-8859-1"?>
<!-- Generator: Adobe Illustrator 19.0.0, SVG Export Plug-In . SVG Version: 6.00 Build 0)  -->
<svg version="1.1" id="Capa_1" xmlns="http://www.w3.org/2000/svg" xmlns:xlink="http://www.w3.org/1999/xlink" x="0px" y="0px"
	 viewBox="0 0 512 512" style="enable-background:new 0 0 512 512;" xml:space="preserve">
<path style="fill:#703422;" d="M448.8,240.999h-32.134c-8.284,0-15,6.716-15,15c0,8.242,6.65,14.927,14.877,14.993l-0.548,66.407
	h-0.124c-8.284,0-15,6.716-15,15s6.716,15,15,15H448.8c34.849,0,63.2-28.352,63.2-63.2C512,269.351,483.648,240.999,448.8,240.999z"
	/>
<path style="fill:#8F5240;" d="M96.132,337.399h-0.124l-0.55-66.407c8.227-0.066,14.876-6.751,14.876-14.993c0-8.284-6.716-15-15-15
	H63.2c-34.849,0-63.2,28.352-63.2,63.2c0,34.849,28.352,63.2,63.2,63.2h32.932c8.284,0,15-6.716,15-15
	C111.132,344.115,104.416,337.399,96.132,337.399z"/>
<path style="fill:#A46343;" d="M416.666,160.666c-8.284,0-15,6.716-15,15H110.334c0-8.284-6.716-15-15-15s-15,6.716-15,15v160.667
	c0,96.862,78.804,175.666,175.666,175.666s175.666-78.804,175.666-175.666V175.666C431.666,167.382,424.95,160.666,416.666,160.666z
	"/>
<path style="fill:#8F5240;" d="M416.666,160.666c-8.284,0-15,6.716-15,15H256v336.333c96.862,0,175.666-78.804,175.666-175.666
	V175.666C431.666,167.382,424.95,160.666,416.666,160.666z"/>
<path style="fill:#3B211A;" d="M497,160.666h-65.981C423.383,70.8,347.809,0.001,256,0.001S88.617,70.8,80.981,160.666H15
	c-8.284,0-15,6.716-15,15s6.716,15,15,15h80.334h321.332H497c8.284,0,15-6.716,15-15S505.284,160.666,497,160.666z"/>
<path style="fill:#8F5240;" d="M256,415.599c-22.485,0-43.455-12.099-54.727-31.574c-4.15-7.17-1.701-16.347,5.469-20.496
	c7.169-4.15,16.346-1.702,20.496,5.469c5.927,10.24,16.948,16.602,28.763,16.602c11.815,0,22.839-6.363,28.768-16.607
	c4.15-7.171,13.327-9.616,20.496-5.469c7.17,4.149,9.618,13.326,5.469,20.496C299.459,403.498,278.486,415.599,256,415.599z"/>
<path style="fill:#3B211A;" d="M191.735,295.107c-3.949,0-7.819-1.601-10.609-4.39c-2.79-2.801-4.391-6.66-4.391-10.61
	s1.601-7.82,4.391-10.61c2.79-2.79,6.66-4.39,10.609-4.39c3.95,0,7.811,1.6,10.601,4.39c2.8,2.79,4.399,6.66,4.399,10.61
	s-1.6,7.81-4.399,10.61C199.546,293.507,195.686,295.107,191.735,295.107z"/>
<path style="fill:#0F0301;" d="M320.266,295.107c-3.95,0-7.82-1.601-10.61-4.39c-2.79-2.801-4.39-6.66-4.39-10.61
	s1.6-7.81,4.39-10.61c2.79-2.79,6.66-4.39,10.61-4.39s7.811,1.6,10.61,4.39c2.79,2.8,4.39,6.66,4.39,10.61s-1.6,7.81-4.39,10.61
	C328.076,293.507,324.216,295.107,320.266,295.107z"/>
<path style="fill:#703422;" d="M305.264,363.522c-7.17-4.15-16.347-1.701-20.496,5.469c-5.93,10.243-16.951,16.607-28.766,16.607v30
	c22.484-0.001,43.456-12.102,54.73-31.58C314.882,376.849,312.434,367.673,305.264,363.522z"/>
<path style="fill:#0F0301;" d="M497,160.666h-65.981C423.383,70.8,347.809,0.001,256,0.001v190.665h160.666H497
	c8.284,0,15-6.716,15-15S505.284,160.666,497,160.666z"/>
<g>
</g>
<g>
</g>
<g>
</g>
<g>
</g>
<g>
</g>
<g>
</g>
<g>
</g>
<g>
</g>
<g>
</g>
<g>
</g>
<g>
</g>
<g>
</g>
<g>
</g>
<g>
</g>
<g>
</g>
</svg>
