<?xml version="1.0" encoding="iso-8859-1"?>
<!-- Generator: Adobe Illustrator 19.0.0, SVG Export Plug-In . SVG Version: 6.00 Build 0)  -->
<svg version="1.1" id="Capa_1" xmlns="http://www.w3.org/2000/svg" xmlns:xlink="http://www.w3.org/1999/xlink" x="0px" y="0px"
	 viewBox="0 0 512 512" style="enable-background:new 0 0 512 512;" xml:space="preserve">
<path style="fill:#422017;" d="M448.801,232.967h-32.134c-8.284,0-15,6.716-15,15c0,8.242,6.649,14.926,14.876,14.994l-0.55,66.406
	h-0.124c-8.284,0-15,6.716-15,15s6.716,15,15,15h32.932c34.849,0,63.199-28.352,63.199-63.201S483.649,232.967,448.801,232.967z"/>
<path style="fill:#5B3227;" d="M96.133,329.367h-0.124l-0.551-66.406c8.227-0.068,14.876-6.752,14.876-14.994
	c0-8.284-6.716-15-15-15H63.2c-34.849,0-63.2,28.351-63.2,63.199c0,34.85,28.352,63.201,63.2,63.201h32.933c8.284,0,15-6.716,15-15
	C111.133,336.083,104.417,329.367,96.133,329.367z"/>
<path style="fill:#794334;" d="M426.671,188.591c-21.361-19.12-45.556-34.408-71.913-45.439c-4.78-2.001-10.254-1.392-14.48,1.609
	c-24.71,17.559-53.853,26.84-84.278,26.84s-59.566-9.281-84.276-26.84c-4.225-3.003-9.7-3.609-14.479-1.609
	c-26.354,11.028-50.55,26.316-71.915,45.439c-3.179,2.846-4.996,6.91-4.996,11.177v128.533c0,96.862,78.804,175.666,175.666,175.666
	s175.666-78.804,175.666-175.666V199.768C431.666,195.501,429.85,191.436,426.671,188.591z"/>
<path style="fill:#5B3227;" d="M426.671,188.591c-21.361-19.12-45.556-34.408-71.913-45.439c-4.78-2.001-10.254-1.392-14.48,1.609
	c-24.709,17.559-53.851,26.84-84.275,26.84v332.365c96.861-0.002,175.663-78.805,175.663-175.666V199.768
	C431.666,195.501,429.85,191.436,426.671,188.591z"/>
<path style="fill:#FCC892;" d="M416.666,8.033H95.334c-8.284,0-15,6.716-15,15v176.734c0,5.916,3.477,11.279,8.879,13.694
	c1.964,0.878,4.048,1.306,6.118,1.306c3.623,0,7.201-1.313,10.007-3.823c16.868-15.098,35.731-27.488,56.164-36.899
	c28.216,18.055,60.706,27.557,94.498,27.557c33.794,0,66.284-9.502,94.5-27.557c20.434,9.413,39.297,21.803,56.161,36.899
	c4.407,3.944,10.723,4.934,16.126,2.518c5.401-2.414,8.879-7.778,8.879-13.694V23.033C431.666,14.749,424.95,8.033,416.666,8.033z"
	/>
<path style="fill:#FD413C;" d="M256,407.566c-22.481,0-43.451-12.098-54.727-31.571c-4.15-7.169-1.704-16.346,5.466-20.497
	c7.169-4.151,16.346-1.705,20.497,5.466c5.929,10.241,16.951,16.603,28.764,16.603c11.814,0,22.838-6.365,28.769-16.611
	c4.15-7.171,13.33-9.616,20.496-5.469c7.17,4.149,9.618,13.326,5.469,20.496C299.458,395.464,278.485,407.566,256,407.566z"/>
<path style="fill:#3B211A;" d="M191.735,287.067c-3.949,0-7.819-1.601-10.609-4.39c-2.79-2.79-4.391-6.66-4.391-10.601
	c0-3.95,1.6-7.82,4.391-10.61c2.79-2.789,6.66-4.39,10.609-4.39c3.95,0,7.811,1.601,10.6,4.39c2.8,2.79,4.4,6.66,4.4,10.61
	c0,3.941-1.6,7.811-4.4,10.601C199.546,285.467,195.685,287.067,191.735,287.067z"/>
<path style="fill:#0F0301;" d="M320.266,287.067c-3.95,0-7.82-1.601-10.61-4.39c-2.789-2.79-4.39-6.66-4.39-10.601
	c0-3.95,1.601-7.82,4.39-10.61c2.79-2.789,6.66-4.39,10.61-4.39s7.82,1.601,10.61,4.39c2.79,2.79,4.39,6.66,4.39,10.61
	c0,3.941-1.6,7.811-4.39,10.601C328.086,285.467,324.216,287.067,320.266,287.067z"/>
<path style="fill:#F2F2F2;" d="M55.167,419.7c-8.284,0-15-6.716-15-15v-61.001c0-8.284,6.716-15,15-15s15,6.716,15,15V404.7
	C70.167,412.984,63.451,419.7,55.167,419.7z"/>
<path style="fill:#D9D9D9;" d="M456.834,419.7c-8.284,0-15-6.716-15-15v-61.004c0-8.284,6.716-15,15-15s15,6.716,15,15V404.7
	C471.834,412.984,465.118,419.7,456.834,419.7z"/>
<path style="fill:#FCA953;" d="M416.666,8.033H256.003v193.568c33.793,0,66.282-9.502,94.497-27.557
	c20.434,9.413,39.297,21.803,56.161,36.899c4.407,3.944,10.723,4.934,16.126,2.518c5.401-2.414,8.879-7.778,8.879-13.694V23.033
	C431.666,14.749,424.95,8.033,416.666,8.033z"/>
<path style="fill:#DA0806;" d="M305.265,355.486c-7.171-4.15-16.348-1.701-20.497,5.469c-5.929,10.243-16.95,16.606-28.765,16.607
	v30c22.484-0.001,43.455-12.102,54.73-31.58C314.882,368.813,312.435,359.637,305.265,355.486z"/>
<g>
</g>
<g>
</g>
<g>
</g>
<g>
</g>
<g>
</g>
<g>
</g>
<g>
</g>
<g>
</g>
<g>
</g>
<g>
</g>
<g>
</g>
<g>
</g>
<g>
</g>
<g>
</g>
<g>
</g>
</svg>
