<?xml version="1.0" encoding="iso-8859-1"?>
<!-- Generator: Adobe Illustrator 19.0.0, SVG Export Plug-In . SVG Version: 6.00 Build 0)  -->
<svg version="1.1" id="Capa_1" xmlns="http://www.w3.org/2000/svg" xmlns:xlink="http://www.w3.org/1999/xlink" x="0px" y="0px"
	 viewBox="0 0 512 512" style="enable-background:new 0 0 512 512;" xml:space="preserve">
<g>
	<path style="fill:#046699;" d="M203.398,46.783c-9.491-5.666-21.676-6.195-31.956-0.319c-10.197,5.83-15.913,16.472-15.941,27.433
		c-10.861-2.062-22.485,1.625-30.123,10.673c-7.575,8.977-9.289,20.936-5.553,31.239c-10.905,1.793-20.56,9.247-24.626,20.368
		c-4.032,11.032-1.535,22.853,5.513,31.246c-9.63,5.429-16.133,15.744-16.133,27.585c0,17.452,14.122,31.604,31.563,31.653v-20.989
		c0-12.88,10.479-23.359,23.36-23.359h13.224v-10.571c0-26.845,10.143-47.436,30.149-61.203c0.361-0.248,0.518-0.702,0.389-1.121
		c-0.13-0.418-0.518-0.703-0.955-0.703h-1.947c-5.129,0-9.302-4.173-9.302-9.302v-6.181c0-5.129,4.173-9.302,9.302-9.302h25.587
		c0.553,0,1-0.448,1-1V39.906C205.497,42.04,204.296,44.345,203.398,46.783z"/>
	<path style="fill:#046699;" d="M411.868,170.745c7.288-8.31,10.014-20.197,6.095-31.367c-3.89-11.086-13.326-18.633-24.103-20.643
		c3.992-10.307,2.469-22.406-5.047-31.553c-7.463-9.076-18.913-12.923-29.722-11.111c0.207-11.051-5.376-21.893-15.578-27.901
		c-10.124-5.961-22.201-5.643-31.731-0.229c-1.439-4.18-3.748-7.998-6.732-11.227V82.93c0,0.552,0.447,1,1,1h25.587
		c5.129,0,9.302,4.173,9.302,9.302v6.181c0,5.129-4.173,9.302-9.302,9.302h-1.946c-0.438,0-0.825,0.285-0.955,0.703
		c-0.13,0.418,0.027,0.872,0.389,1.121c20.005,13.767,30.148,34.358,30.148,61.203v10.571h13.224
		c12.88,0,23.358,10.479,23.358,23.359v23.964c17.249-0.046,31.336-13.92,31.563-31.228
		C427.568,186.66,421.301,176.332,411.868,170.745z"/>
</g>
<g>
	<path style="fill:#FFC502;" d="M234.872,360.806c0.136,0.063,0.281,0.096,0.428,0.096c0.118,0,0.235-0.021,0.348-0.063
		c0.253-0.094,0.457-0.285,0.566-0.531c3.474-7.814,11.24-12.864,19.785-12.864c8.544,0,16.31,5.05,19.783,12.865
		c0.109,0.246,0.313,0.438,0.566,0.531c0.112,0.041,0.23,0.063,0.348,0.063c0.146,0,0.292-0.032,0.428-0.096l22.49-10.629V323.8
		c-13.258,6.203-28.037,9.677-43.615,9.677s-30.357-3.474-43.615-9.677v26.378L234.872,360.806z"/>
	<path style="fill:#FFC502;" d="M383.079,358.245h-56.411v35.456c0,1.81-0.467,3.31-1.35,4.337c-0.819,0.955-1.971,1.459-3.33,1.459
		c-1.005,0-2.084-0.27-3.207-0.801l-42.3-19.992c-0.139-0.065-0.284-0.096-0.427-0.096c-0.36,0-0.708,0.195-0.886,0.535
		c-3.759,7.152-11.104,11.594-19.17,11.594s-15.413-4.442-19.172-11.594c-0.178-0.339-0.525-0.535-0.886-0.535
		c-0.143,0-0.288,0.031-0.427,0.096l-42.299,19.991c-1.123,0.531-2.202,0.801-3.206,0.801c-2.887,0-4.68-2.221-4.68-5.796v-35.456
		h-56.409c-8.499,0-15.453,6.954-15.453,15.453v128c0,5.666,4.636,10.302,10.302,10.302h264.463c5.666,0,10.302-4.636,10.302-10.302
		v-128C398.532,365.199,391.578,358.245,383.079,358.245z"/>
</g>
<g style="opacity:0.15;">
	<path style="fill:#440075;" d="M142.973,501.698v-128c0-8.499,6.954-15.453,15.453-15.453h-29.507
		c-8.499,0-15.453,6.954-15.453,15.453v128c0,5.666,4.636,10.302,10.302,10.302h29.507C147.609,512,142.973,507.364,142.973,501.698
		z"/>
</g>
<g>
	<path style="fill:#EF5050;" d="M193.216,398.696c-1.123,0.531-2.202,0.801-3.206,0.801c-2.887,0-4.68-2.221-4.68-5.796v-35.456
		h-29.259V512h37.366V398.592L193.216,398.696z"/>
	<path style="fill:#EF5050;" d="M326.668,358.245v35.456c0,1.81-0.467,3.31-1.35,4.337c-0.819,0.955-1.971,1.459-3.33,1.459
		c-1.005,0-2.084-0.27-3.207-0.801l-6.122-2.894V512h37.366V358.245H326.668z"/>
</g>
<path style="fill:#5DC647;" d="M234.351,369.091c0-3.117,0.668-6.079,1.858-8.76l-42.566-20.117c-5.122-2.42-9.313,0.234-9.313,5.9
	V393.7c0,5.666,4.191,8.321,9.313,5.9l43.21-20.421C235.259,376.164,234.351,372.732,234.351,369.091z"/>
<g style="opacity:0.15;">
	<path style="fill:#440075;" d="M204.96,393.701v-47.586c0-0.186,0.016-0.36,0.025-0.54l-11.342-5.36
		c-5.122-2.42-9.313,0.234-9.313,5.9v47.586c0,5.666,4.191,8.321,9.313,5.9l11.342-5.36
		C204.976,394.061,204.96,393.887,204.96,393.701z"/>
</g>
<path style="fill:#5DC647;" d="M318.354,340.214l-42.567,20.118c1.191,2.68,1.858,5.642,1.858,8.759
	c0,3.641-0.907,7.073-2.502,10.087l43.211,20.422c5.123,2.421,9.314-0.234,9.314-5.9v-47.586
	C327.668,340.448,323.477,337.794,318.354,340.214z"/>
<g>
	<path style="fill:#FFC7A9;" d="M152.726,230.201v-48.889h-13.224c-13.452,0-24.36,10.907-24.36,24.359v26.477
		c0,13.453,10.908,24.359,24.36,24.359h16.623C153.911,248.105,152.726,239.289,152.726,230.201z"/>
	<path style="fill:#FFC7A9;" d="M372.496,181.312h-13.224v48.889c0,9.088-1.185,17.904-3.399,26.306h16.623
		c13.454,0,24.358-10.906,24.358-24.359v-26.477C396.855,192.219,385.95,181.312,372.496,181.312z"/>
</g>
<g>
	<path style="fill:#D2957D;" d="M152.726,210.848h-14.178c-4.143,0-7.5,3.358-7.5,7.5s3.357,7.5,7.5,7.5h14.178V210.848z"/>
	<path style="fill:#D2957D;" d="M373.45,210.848h-14.178v15h14.178c4.143,0,7.5-3.358,7.5-7.5
		C380.95,214.206,377.593,210.848,373.45,210.848z"/>
</g>
<path style="fill:#E6E9ED;" d="M327.08,108H184.919c-20.419,12.911-33.193,33.623-33.193,63.741v58.46
	c0,57.589,46.686,104.275,104.273,104.275c57.59,0,104.273-46.686,104.273-104.275v-58.46
	C360.272,141.623,347.499,120.911,327.08,108z"/>
<path style="opacity:0.15;fill:#440075;enable-background:new    ;" d="M181.375,230.201v-58.46
	c0-30.119,12.774-50.831,33.196-63.741h-29.652c-20.419,12.911-33.193,33.623-33.193,63.741v58.46
	c0,57.589,46.686,104.275,104.273,104.275c5.034,0,9.981-0.365,14.825-1.054C220.259,326.223,181.375,282.757,181.375,230.201z"/>
<g>
	<path style="fill:#FB8276;" d="M153.906,215.308c-0.734,0-1.461,0.039-2.181,0.098v14.795c0,13.116,2.429,25.663,6.849,37.225
		c12.28-2.203,21.602-12.934,21.602-25.848C180.176,227.069,168.415,215.308,153.906,215.308z"/>
	<path style="fill:#FB8276;" d="M358.09,215.308c0.736,0,1.463,0.039,2.183,0.098v14.795c0,13.116-2.429,25.663-6.849,37.225
		c-12.282-2.203-21.603-12.934-21.603-25.848C331.82,227.069,343.583,215.308,358.09,215.308z"/>
</g>
<g>
	<path style="fill:#368C0E;" d="M199.585,215.653c-11.791,0-21.384-9.592-21.384-21.383s9.593-21.384,21.384-21.384
		c11.79,0,21.383,9.593,21.383,21.384S211.375,215.653,199.585,215.653z"/>
	<path style="fill:#368C0E;" d="M312.413,215.653c-11.79,0-21.383-9.592-21.383-21.383s9.593-21.384,21.383-21.384
		c11.791,0,21.384,9.593,21.384,21.384S324.204,215.653,312.413,215.653z"/>
</g>
<g>
	<circle style="fill:#EF5050;" cx="255.999" cy="219.49" r="26.27"/>
	<path style="fill:#EF5050;" d="M255.999,318.175c-24.496,0-47.502-9.515-64.778-26.792c-4.837-4.836-7.5-11.266-7.5-18.104
		c0-6.839,2.663-13.269,7.5-18.105c4.835-4.836,11.265-7.499,18.104-7.499c6.84,0,13.27,2.663,18.105,7.499
		c7.618,7.618,17.764,11.812,28.569,11.812s20.951-4.195,28.569-11.812c4.836-4.836,11.265-7.499,18.105-7.499
		c6.838,0,13.268,2.663,18.104,7.499c4.837,4.836,7.5,11.266,7.499,18.105s-2.664,13.269-7.501,18.104
		C303.501,308.66,280.496,318.175,255.999,318.175z"/>
</g>
<g>
	<path style="fill:#C0272D;" d="M255.999,300.077c-18.825,0-37.646-7.163-51.978-21.495c-2.929-2.929-2.929-7.678,0-10.606
		c2.93-2.929,7.678-2.929,10.607,0c22.811,22.812,59.93,22.812,82.74,0.001c2.931-2.929,7.679-2.929,10.607,0
		c2.929,2.929,2.929,7.678,0,10.606C293.647,292.911,274.82,300.077,255.999,300.077z"/>
	<path style="fill:#C0272D;" d="M306.05,84V10.302C306.05,4.636,301.413,0,295.747,0h-79.496c-5.666,0-10.303,4.636-10.303,10.302
		V84H306.05z"/>
</g>
<rect x="205.949" y="56.15" style="fill:#FFFFFF;" width="100.1" height="27.855"/>
<path style="opacity:0.15;fill:#440075;enable-background:new    ;" d="M236.253,84V10.302C236.253,4.636,240.889,0,246.555,0
	h-30.304c-5.666,0-10.303,4.636-10.303,10.302V84H236.253z"/>
<path style="fill:#960B15;" d="M341.939,99.413c0,5.666-4.636,10.302-10.302,10.302H180.361c-5.666,0-10.302-4.636-10.302-10.302
	v-6.181c0-5.666,4.636-10.302,10.302-10.302h151.275c5.666,0,10.302,4.636,10.302,10.302v6.181H341.939z"/>
<g style="opacity:0.15;">
	<path style="fill:#440075;" d="M215.822,99.413v-6.181c0-5.666,4.636-10.302,10.302-10.302h-45.763
		c-5.666,0-10.302,4.636-10.302,10.302v6.181c0,5.666,4.636,10.302,10.302,10.302h45.763
		C220.458,109.714,215.822,105.079,215.822,99.413z"/>
</g>
<circle style="fill:#368C0E;" cx="255.999" cy="369.09" r="22.647"/>
<g style="opacity:0.15;">
	<path style="fill:#440075;" d="M252.908,369.091c0-9.006,5.257-16.782,12.868-20.432c-2.959-1.42-6.275-2.215-9.777-2.215
		c-12.509,0-22.648,10.139-22.648,22.647s10.14,22.647,22.648,22.647c3.502,0,6.818-0.795,9.777-2.215
		C258.165,385.873,252.908,378.097,252.908,369.091z"/>
</g>
<g>
	<path style="fill:#046699;" d="M219.814,167.343c-1.919,0-3.839-0.732-5.303-2.196c-8.184-8.182-21.496-8.182-29.68,0
		c-2.929,2.929-7.678,2.928-10.606-0.001c-2.929-2.929-2.929-7.677,0.001-10.606c14.031-14.028,36.859-14.028,50.891,0
		c2.93,2.929,2.93,7.678,0.001,10.606C223.652,166.611,221.733,167.343,219.814,167.343z"/>
	<path style="fill:#046699;" d="M332.233,167.343c-1.919,0-3.839-0.732-5.303-2.196c-8.183-8.181-21.496-8.183-29.681,0
		c-2.929,2.929-7.678,2.928-10.606-0.001c-2.929-2.929-2.929-7.677,0.001-10.606c14.031-14.03,36.86-14.028,50.892,0
		c2.93,2.929,2.93,7.678,0.001,10.606C336.071,166.611,334.151,167.343,332.233,167.343z"/>
</g>
<g>
</g>
<g>
</g>
<g>
</g>
<g>
</g>
<g>
</g>
<g>
</g>
<g>
</g>
<g>
</g>
<g>
</g>
<g>
</g>
<g>
</g>
<g>
</g>
<g>
</g>
<g>
</g>
<g>
</g>
</svg>
