<?xml version="1.0" encoding="iso-8859-1"?>
<!-- Generator: Adobe Illustrator 19.0.0, SVG Export Plug-In . SVG Version: 6.00 Build 0)  -->
<svg version="1.1" id="Capa_1" xmlns="http://www.w3.org/2000/svg" xmlns:xlink="http://www.w3.org/1999/xlink" x="0px" y="0px"
	 viewBox="0 0 512 512" style="enable-background:new 0 0 512 512;" xml:space="preserve">
<path style="fill:#E37C5D;" d="M448.8,241h-32.133c-8.284,0-15,6.716-15,15c0,8.242,6.649,14.927,14.876,14.994l-0.548,66.406
	h-0.124c-8.284,0-15,6.716-15,15s6.716,15,15,15H448.8c34.849,0,63.2-28.351,63.2-63.199C512,269.352,483.648,241,448.8,241z"/>
<path style="fill:#ED9A81;" d="M96.131,337.4h-0.124l-0.55-66.406c8.227-0.068,14.876-6.752,14.876-14.994c0-8.284-6.716-15-15-15
	H63.2C28.352,241,0,269.352,0,304.201S28.352,367.4,63.2,367.4h32.931c8.284,0,15-6.716,15-15S104.415,337.4,96.131,337.4z"/>
<path style="fill:#F7AF99;" d="M416.667,160.667c-8.284,0-15,6.716-15,15H110.333c0-8.284-6.716-15-15-15s-15,6.716-15,15v160.667
	C80.333,433.196,159.137,512,256,512s175.667-78.804,175.667-175.666V175.667C431.667,167.383,424.951,160.667,416.667,160.667z"/>
<path style="fill:#ED9A81;" d="M416.667,160.667c-8.284,0-15,6.716-15,15H256V512c96.863,0,175.667-78.804,175.667-175.666V175.667
	C431.667,167.383,424.951,160.667,416.667,160.667z"/>
<path style="fill:#FD413C;" d="M256,415.6c-22.488,0-43.459-12.099-54.729-31.574c-4.148-7.171-1.699-16.347,5.471-20.496
	c7.172-4.149,16.347-1.7,20.496,5.471c5.924,10.239,16.945,16.6,28.762,16.6c11.816,0,22.84-6.363,28.768-16.607
	c4.148-7.169,13.325-9.618,20.496-5.469c7.17,4.15,9.619,13.325,5.469,20.496C299.459,403.499,278.487,415.6,256,415.6z"/>
<path style="fill:#3B211A;" d="M191.736,295.107c-3.951,0-7.811-1.601-10.61-4.391c-2.79-2.8-4.39-6.659-4.39-10.609
	s1.6-7.81,4.39-10.61c2.79-2.79,6.659-4.39,10.61-4.39c3.949,0,7.81,1.6,10.609,4.39c2.79,2.8,4.391,6.66,4.391,10.61
	s-1.601,7.81-4.391,10.609C199.546,293.507,195.676,295.107,191.736,295.107z"/>
<path style="fill:#0F0301;" d="M320.266,295.107c-3.949,0-7.811-1.601-10.609-4.391c-2.791-2.8-4.391-6.659-4.391-10.609
	s1.6-7.81,4.391-10.61c2.799-2.79,6.66-4.39,10.609-4.39c3.95,0,7.82,1.6,10.61,4.39c2.79,2.8,4.39,6.66,4.39,10.61
	s-1.6,7.81-4.39,10.609C328.076,293.507,324.216,295.107,320.266,295.107z"/>
<path style="fill:#794334;" d="M467.512,172.683c-9.76-48.077-36.072-91.86-74.092-123.287C354.883,17.542,306.08,0,256,0
	s-98.883,17.542-137.42,49.396c-38.02,31.427-64.332,75.21-74.092,123.287c-0.895,4.412,0.237,8.992,3.086,12.478
	c2.85,3.485,7.113,5.507,11.614,5.507h393.623c4.502,0,8.765-2.022,11.614-5.507C467.274,181.675,468.407,177.095,467.512,172.683z"
	/>
<path style="fill:#5B3227;" d="M467.512,172.683c-9.76-48.077-36.072-91.86-74.092-123.287C354.883,17.542,306.08,0,256,0v190.667
	h196.811c4.502,0,8.765-2.022,11.614-5.507C467.274,181.675,468.407,177.095,467.512,172.683z"/>
<path style="fill:#FCC892;" d="M55.167,427.734c-8.284,0-15-6.716-15-15v-61.002c0-8.284,6.716-15,15-15s15,6.716,15,15v61.002
	C70.167,421.019,63.451,427.734,55.167,427.734z"/>
<path style="fill:#FCA953;" d="M456.833,427.734c-8.284,0-15-6.716-15-15V351.73c0-8.284,6.716-15,15-15s15,6.716,15,15v61.004
	C471.833,421.019,465.117,427.734,456.833,427.734z"/>
<path style="fill:#DA0806;" d="M305.264,363.523c-7.171-4.15-16.348-1.701-20.497,5.469c-5.929,10.243-16.95,16.606-28.765,16.607
	v30c22.484-0.001,43.455-12.102,54.729-31.58C314.881,376.85,312.434,367.674,305.264,363.523z"/>
<g>
</g>
<g>
</g>
<g>
</g>
<g>
</g>
<g>
</g>
<g>
</g>
<g>
</g>
<g>
</g>
<g>
</g>
<g>
</g>
<g>
</g>
<g>
</g>
<g>
</g>
<g>
</g>
<g>
</g>
</svg>
