<?xml version="1.0" encoding="iso-8859-1"?>
<!-- Generator: Adobe Illustrator 19.0.0, SVG Export Plug-In . SVG Version: 6.00 Build 0)  -->
<svg version="1.1" id="Capa_1" xmlns="http://www.w3.org/2000/svg" xmlns:xlink="http://www.w3.org/1999/xlink" x="0px" y="0px"
	 viewBox="0 0 493.477 493.477" style="enable-background:new 0 0 493.477 493.477;" xml:space="preserve">
<g transform="matrix(1.25 0 0 -1.25 0 45)">
	<g>
		<g>
			<g>
				<path style="fill:#ABDFFF;" d="M228.961-175.875c-51.86-69.279-64.58-144.213-28.41-167.367
					c36.159-23.154,107.52,14.245,159.38,83.524s31.312,193.752,28.41,189.224C368.122-102.056,280.821-106.595,228.961-175.875"/>
				<path style="fill:#ABDFFF;" d="M166.224-175.875c51.86-69.279,64.58-144.213,28.422-167.367
					c-36.17-23.154-107.531,14.245-159.391,83.524S2.941-66.648,6.844-70.494C49.545-112.58,114.364-106.595,166.224-175.875"/>
			</g>
			<path style="fill:#F7DECE;" d="M345.367-354.813v39.822c0,37.706-41.938,62.578-79.644,62.578H129.189
				c-37.695,0-79.644-24.872-79.644-62.578v-39.822H345.367z"/>
			<path style="fill:#55ACEE;" d="M349.941-148.079c-10.923-18.25-18.045-35.806-48.367-64.387
				c-11.708-11.048-10.695-25.554,2.048-15.906c30.299,22.926,48.981,59.403,55.148,82.694
				C363.116-129.283,355.448-138.885,349.941-148.079 M44.971-148.079c10.923-18.25,18.045-35.806,48.367-64.387
				c11.719-11.048,10.706-25.554-2.037-15.906c-30.31,22.926-48.993,59.403-55.159,82.694
				C31.795-129.283,39.475-138.885,44.971-148.079"/>
			<path style="fill:#292F33;" d="M207.161,32.031c-23.029,0-44.294-7.361-61.736-19.763c-35.84-1.866-64.421-31.266-64.421-67.573
				c0-29.935,0.125-67.63,39.549-81.67c19.376-26.908,50.904-44.498,86.608-44.498c58.948,0,106.746,47.787,106.746,106.735
				C313.907-15.767,266.109,32.031,207.161,32.031"/>
			<path style="fill:#F7DECE;" d="M151.751-172.86v-91.409c0-25.236,20.469-45.693,45.705-45.693s45.705,20.457,45.705,45.693
				v91.409H151.751z"/>
			<path style="fill:#EEC2AD;" d="M243.194-150.013l-91.409-0.421v-90.988c0,0,45.705-22.847,91.409,0V-150.013z"/>
			<path style="fill:#F7DECE;" d="M294.497-36.235H100.403v-106.416v-0.011c0-53.612,43.44-97.03,97.052-97.03
				c53.601,0,97.041,43.418,97.041,97.03v0.011V-36.235z"/>
			<path style="fill:#292F33;" d="M90.789-26.2l9.626-77.642c45.272,0,55.307,46.82,57.537,67.698
				c0.762-20.878,15.815-67.698,136.545-67.698l3.937,77.642H90.789z"/>
			<g>
				<path style="fill:#C1694F;" d="M236.277-200.883h-38.821h-38.821c0,0,0-19.41,38.821-19.41S236.277-200.883,236.277-200.883"/>
				<path style="fill:#C1694F;" d="M178.045-162.062h19.41h19.41c0,0,0-19.41-19.41-19.41S178.045-162.062,178.045-162.062"/>
			</g>
			<g transform="translate(18 3)">
				<path style="fill:#5C913B;" d="M179.456-323.68v-34.133h-102.4v34.133L54.3-266.791c0,0,11.378,11.378,45.511,11.378h34.133
					L179.456-323.68z"/>
				<path style="fill:#5C913B;" d="M179.456-323.68v-34.133h102.4v34.133l22.756,56.889c0,0-11.378,11.378-45.511,11.378h-34.133
					L179.456-323.68z"/>
			</g>
			<g>
				<path style="fill:#662113;" d="M242.967-150.013L242.967-150.013c-6.258,0-11.378,5.12-11.378,11.378v11.378
					c0,6.258,5.12,11.378,11.378,11.378c6.258,0,11.378-5.12,11.378-11.378v-11.378
					C254.345-144.893,249.225-150.013,242.967-150.013"/>
				<path style="fill:#662113;" d="M163.322-138.635v11.378c0,6.258-5.12,11.378-11.378,11.378s-11.378-5.12-11.378-11.378v-11.378
					c0-6.258,5.12-11.378,11.378-11.378S163.322-144.893,163.322-138.635"/>
			</g>
		</g>
	</g>
</g>
<g>
</g>
<g>
</g>
<g>
</g>
<g>
</g>
<g>
</g>
<g>
</g>
<g>
</g>
<g>
</g>
<g>
</g>
<g>
</g>
<g>
</g>
<g>
</g>
<g>
</g>
<g>
</g>
<g>
</g>
</svg>
