<?xml version="1.0" encoding="iso-8859-1"?>
<!-- Generator: Adobe Illustrator 19.0.0, SVG Export Plug-In . SVG Version: 6.00 Build 0)  -->
<svg version="1.1" id="Capa_1" xmlns="http://www.w3.org/2000/svg" xmlns:xlink="http://www.w3.org/1999/xlink" x="0px" y="0px"
	 viewBox="0 0 512 512" style="enable-background:new 0 0 512 512;" xml:space="preserve">
<path style="fill:#DE8447;" d="M448.8,241h-32.133c-8.284,0-15,6.716-15,15c0,8.242,6.649,14.927,14.876,14.994l-0.548,66.406
	h-0.124c-8.284,0-15,6.716-15,15s6.716,15,15,15H448.8c34.849,0,63.2-28.352,63.2-63.2S483.648,241,448.8,241z"/>
<path style="fill:#FCA971;" d="M96.131,337.4h-0.124l-0.55-66.406c8.227-0.068,14.876-6.752,14.876-14.994c0-8.284-6.716-15-15-15
	H63.2C28.352,241,0,269.352,0,304.2s28.352,63.2,63.2,63.2h32.931c8.284,0,15-6.716,15-15
	C111.131,344.116,104.415,337.4,96.131,337.4z"/>
<path style="fill:#FCBA95;" d="M416.667,160.666c-8.284,0-15,6.716-15,15H110.333c0-8.284-6.716-15-15-15s-15,6.716-15,15v160.668
	C80.333,433.196,159.137,512,256,512s175.667-78.804,175.667-175.666V175.666C431.667,167.382,424.951,160.666,416.667,160.666z"/>
<g>
	<path style="fill:#FCA971;" d="M416.667,160.666c-8.284,0-15,6.716-15,15H256V512c96.863,0,175.667-78.804,175.667-175.666V175.666
		C431.667,167.382,424.951,160.666,416.667,160.666z"/>
	<path style="fill:#FCA971;" d="M256,415.6c-22.488,0-43.459-12.099-54.729-31.575c-4.148-7.171-1.699-16.347,5.471-20.496
		c7.172-4.149,16.347-1.7,20.496,5.471c5.925,10.238,16.946,16.6,28.762,16.6c11.816,0,22.839-6.363,28.768-16.607
		c4.148-7.17,13.325-9.617,20.496-5.469c7.17,4.15,9.619,13.326,5.469,20.496C299.459,403.499,278.486,415.6,256,415.6z"/>
</g>
<path style="fill:#3B211A;" d="M191.736,295.107c-3.951,0-7.82-1.601-10.61-4.39c-2.79-2.801-4.39-6.66-4.39-10.61
	c0-3.95,1.6-7.81,4.39-10.61c2.79-2.79,6.659-4.39,10.61-4.39c3.939,0,7.81,1.6,10.6,4.39c2.79,2.79,4.4,6.66,4.4,10.61
	c0,3.95-1.61,7.82-4.4,10.61C199.546,293.507,195.676,295.107,191.736,295.107z"/>
<path style="fill:#0F0301;" d="M320.266,295.107c-3.939,0-7.811-1.601-10.609-4.39c-2.791-2.79-4.391-6.66-4.391-10.61
	c0-3.95,1.6-7.82,4.391-10.61c2.799-2.79,6.66-4.39,10.609-4.39c3.95,0,7.82,1.6,10.61,4.39c2.79,2.79,4.39,6.66,4.39,10.61
	c0,3.95-1.6,7.82-4.39,10.61C328.076,293.507,324.216,295.107,320.266,295.107z"/>
<path style="fill:#3B211A;" d="M467.512,172.682c-9.76-48.076-36.072-91.86-74.092-123.286C354.883,17.542,306.08,0,256,0
	s-98.883,17.542-137.42,49.396c-38.02,31.426-64.332,75.21-74.092,123.286c-0.895,4.412,0.237,8.992,3.086,12.478
	c2.85,3.485,7.113,5.507,11.614,5.507h393.623c4.502,0,8.765-2.021,11.614-5.507S468.407,177.094,467.512,172.682z"/>
<path style="fill:#DE8447;" d="M305.264,363.523c-7.17-4.15-16.347-1.701-20.496,5.469c-5.93,10.243-16.951,16.606-28.766,16.607v30
	c22.484-0.001,43.456-12.102,54.73-31.58C314.882,376.85,312.434,367.674,305.264,363.523z"/>
<path style="fill:#0F0301;" d="M467.512,172.682c-9.76-48.076-36.072-91.86-74.092-123.286C354.883,17.542,306.08,0,256,0v190.666
	h196.811c4.502,0,8.765-2.021,11.614-5.507C467.274,181.674,468.407,177.094,467.512,172.682z"/>
<g>
</g>
<g>
</g>
<g>
</g>
<g>
</g>
<g>
</g>
<g>
</g>
<g>
</g>
<g>
</g>
<g>
</g>
<g>
</g>
<g>
</g>
<g>
</g>
<g>
</g>
<g>
</g>
<g>
</g>
</svg>
