<?xml version="1.0" encoding="iso-8859-1"?>
<!-- Generator: Adobe Illustrator 19.0.0, SVG Export Plug-In . SVG Version: 6.00 Build 0)  -->
<svg version="1.1" id="Capa_1" xmlns="http://www.w3.org/2000/svg" xmlns:xlink="http://www.w3.org/1999/xlink" x="0px" y="0px"
	 viewBox="0 0 512 512" style="enable-background:new 0 0 512 512;" xml:space="preserve">
<path style="fill:#F2F2F2;" d="M65,447.734c-35.841,0-65-29.159-65-65.001c0-20.399,9.297-39.218,25.508-51.632
	c6.576-5.034,15.992-3.79,21.029,2.789c5.037,6.577,3.788,15.992-2.789,21.029C35.011,361.61,30,371.748,30,382.733
	c0,19.3,15.701,35.001,35,35.001c13.495,0,25.934-7.895,31.689-20.111c3.53-7.496,12.473-10.707,19.962-7.177
	c7.494,3.53,10.708,12.468,7.177,19.962C113.146,433.083,90.055,447.734,65,447.734z"/>
<path style="fill:#D9D9D9;" d="M447,447.734c-25.059,0-48.151-14.654-58.83-37.333c-3.529-7.495-0.314-16.432,7.18-19.961
	c7.496-3.53,16.433-0.315,19.961,7.18c5.754,12.219,18.192,20.114,31.69,20.114c19.299,0,35-15.701,35-35.001
	c0-10.984-5.011-21.122-13.748-27.813c-6.577-5.037-7.826-14.452-2.789-21.029c5.037-6.576,14.451-7.827,21.029-2.789
	C502.702,343.517,512,362.335,512,382.733C512,418.575,482.841,447.734,447,447.734z"/>
<path style="fill:#FDB8A4;" d="M448.8,241h-32.133c-8.284,0-15,6.716-15,15c0,8.242,6.649,14.927,14.876,14.994l-0.548,66.406
	h-0.124c-8.284,0-15,6.716-15,15s6.716,15,15,15H448.8c34.849,0,63.2-28.351,63.2-63.199C512,269.352,483.648,241,448.8,241z"/>
<path style="fill:#FDCDBF;" d="M96.132,337.4h-0.124l-0.551-66.406c8.227-0.068,14.876-6.752,14.876-14.994c0-8.284-6.716-15-15-15
	H63.2C28.352,241,0,269.352,0,304.201S28.352,367.4,63.2,367.4h32.932c8.284,0,15-6.716,15-15S104.416,337.4,96.132,337.4z"/>
<path style="fill:#FEDFD5;" d="M410.454,156.191c-3.954-7.279-13.063-9.976-20.341-6.021c-4.858,2.639-7.659,7.575-7.82,12.73
	l-247.707-7.469c0.15-5.154-2.349-10.25-7.038-13.177c-7.03-4.39-16.282-2.245-20.667,4.782
	c-17.368,27.825-26.548,59.948-26.548,92.896v96.4C80.333,433.196,159.137,512,256,512c96.862,0,175.666-78.804,175.666-175.666
	v-96.4C431.666,210.693,424.331,181.736,410.454,156.191z"/>
<path style="fill:#FDCDBF;" d="M410.454,156.191c-3.954-7.279-13.063-9.976-20.341-6.021c-4.858,2.639-7.659,7.575-7.82,12.73
	l-126.29-3.808V512c96.861-0.002,175.663-78.805,175.663-175.666v-96.4C431.666,210.693,424.331,181.736,410.454,156.191z"/>
<path style="fill:#FD413C;" d="M256,415.602c-22.485,0-43.455-12.099-54.727-31.574c-4.15-7.17-1.701-16.346,5.469-20.496
	s16.346-1.702,20.496,5.469c5.927,10.24,16.948,16.602,28.763,16.602c11.815,0,22.839-6.364,28.769-16.609
	c4.15-7.172,13.331-9.615,20.496-5.469c7.17,4.15,9.618,13.326,5.469,20.496C299.458,403.5,278.486,415.602,256,415.602z"/>
<path style="fill:#3B211A;" d="M191.735,295.107c-3.949,0-7.819-1.601-10.609-4.391c-2.79-2.789-4.391-6.659-4.391-10.609
	s1.601-7.82,4.391-10.61c2.79-2.79,6.66-4.39,10.609-4.39c3.95,0,7.811,1.6,10.601,4.39c2.8,2.8,4.399,6.66,4.399,10.61
	s-1.6,7.81-4.399,10.609C199.546,293.507,195.676,295.107,191.735,295.107z"/>
<path style="fill:#0F0301;" d="M320.266,295.107c-3.95,0-7.81-1.601-10.61-4.391c-2.789-2.789-4.39-6.659-4.39-10.609
	s1.601-7.82,4.39-10.61c2.79-2.79,6.66-4.39,10.61-4.39s7.82,1.6,10.61,4.39c2.79,2.8,4.39,6.66,4.39,10.61s-1.6,7.81-4.39,10.609
	C328.076,293.507,324.216,295.107,320.266,295.107z"/>
<path style="fill:#FCC892;" d="M352.4,0c-23.301,0-45.484,8.449-62.744,23.565C275.15,13.47,257.942,8.033,239.934,8.033
	c-20.188,0-39.659,7.033-55.134,19.634c-12.355-7.544-26.61-11.6-41.267-11.6c-43.708,0-79.267,35.559-79.267,79.267
	s35.559,79.268,79.267,79.268c14.658,0,28.912-4.055,41.267-11.6c15.475,12.6,34.945,19.632,55.134,19.632
	c18.011,0,35.219-5.437,49.722-15.528c17.259,15.114,39.441,23.562,62.745,23.562c52.566,0,95.333-42.767,95.333-95.333
	C447.733,42.767,404.967,0,352.4,0z"/>
<path style="fill:#DA0806;" d="M305.265,363.523c-7.171-4.15-16.348-1.701-20.497,5.469c-5.929,10.243-16.95,16.606-28.765,16.607
	v30c22.484-0.001,43.455-12.102,54.729-31.58C314.882,376.85,312.435,367.674,305.265,363.523z"/>
<path style="fill:#FCA953;" d="M352.4,0c-23.301,0-45.484,8.449-62.744,23.565c-10.117-7.041-21.552-11.808-33.653-14.052v171.642
	c12.103-2.244,23.536-7.01,33.652-14.049c17.259,15.114,39.441,23.562,62.745,23.562c52.566,0,95.333-42.767,95.333-95.333
	C447.733,42.767,404.967,0,352.4,0z"/>
<g>
</g>
<g>
</g>
<g>
</g>
<g>
</g>
<g>
</g>
<g>
</g>
<g>
</g>
<g>
</g>
<g>
</g>
<g>
</g>
<g>
</g>
<g>
</g>
<g>
</g>
<g>
</g>
<g>
</g>
</svg>
