<?xml version="1.0" encoding="iso-8859-1"?>
<!-- Generator: Adobe Illustrator 19.0.0, SVG Export Plug-In . SVG Version: 6.00 Build 0)  -->
<svg version="1.1" id="Capa_1" xmlns="http://www.w3.org/2000/svg" xmlns:xlink="http://www.w3.org/1999/xlink" x="0px" y="0px"
	 viewBox="0 0 512 512" style="enable-background:new 0 0 512 512;" xml:space="preserve">
<g>
	<path style="fill:#775436;" d="M103.503,257.03c0-0.097,0.004-0.192,0.005-0.289H74.443c-4.143,0-7.5,3.357-7.5,7.5
		s3.357,7.5,7.5,7.5h30.114C103.867,266.935,103.503,262.024,103.503,257.03z"/>
	<path style="fill:#775436;" d="M437.557,256.741h-29.064c0,0.097,0.005,0.192,0.005,0.289c0,4.994-0.364,9.904-1.055,14.711h30.114
		c4.143,0,7.5-3.357,7.5-7.5C445.057,260.099,441.699,256.741,437.557,256.741z"/>
	<path style="fill:#775436;" d="M105.957,279.405h-24.83c-4.143,0-7.5,3.357-7.5,7.5s3.357,7.5,7.5,7.5h29.394
		C108.633,289.571,107.102,284.56,105.957,279.405z"/>
	<path style="fill:#775436;" d="M430.873,279.405h-24.83c-1.146,5.154-2.676,10.166-4.564,15h29.393c4.143,0,7.5-3.357,7.5-7.5
		S435.016,279.405,430.873,279.405z"/>
</g>
<path style="fill:#FFC502;" d="M202.47,101.428l-12.52,15.792c2.77,12.363,4.955,24.571,6.358,35.885
	c0.061,0.501,0.487,0.877,0.992,0.877h117.4c0.505,0,0.931-0.376,0.992-0.877c1.403-11.313,3.589-23.521,6.358-35.887
	l-13.008-16.405c3.431-2.975,5.611-7.354,5.611-12.253c0-8.96-7.264-16.224-16.224-16.224S282.205,79.6,282.205,88.56
	c0,4.374,1.74,8.336,4.555,11.253l-10.539,16.202l-11.432-17.576c4.469-2.89,7.433-7.905,7.433-13.623
	c0-8.959-7.264-16.223-16.224-16.223c-8.96,0-16.224,7.264-16.224,16.223c0,5.718,2.965,10.733,7.433,13.623l-11.432,17.576
	l-11.059-17.003c2.384-2.822,3.826-6.467,3.826-10.452c0-8.96-7.264-16.224-16.223-16.224c-8.96,0-16.224,7.264-16.224,16.224
	C196.099,93.81,198.602,98.463,202.47,101.428z"/>
<path style="fill:#775436;" d="M300,360h-88c-11.528,4.142-19.774,15.167-19.774,28.121V512h127.549V388.121
	C319.774,375.167,311.528,364.142,300,360z"/>
<path style="fill:#FCDB67;" d="M247.648,360l-17.553,17.553c5.37,0.898,10.044,3.841,13.204,8.008l12.7-12.699l12.7,12.699
	c3.16-4.167,7.834-7.109,13.204-8.008L264.352,360H247.648z"/>
<g>
	<path style="fill:#FFFFFF;" d="M226.64,420.088c-12.088,0-21.923-9.835-21.923-21.923s9.835-21.923,21.923-21.923
		s21.923,9.835,21.923,21.923C248.562,410.253,238.727,420.088,226.64,420.088z"/>
	<path style="fill:#FFFFFF;" d="M285.36,420.088c-12.088,0-21.923-9.835-21.923-21.923s9.835-21.923,21.923-21.923
		s21.923,9.835,21.923,21.923C307.283,410.253,297.448,420.088,285.36,420.088z"/>
</g>
<g>
	<path style="fill:#693FBA;" d="M206.551,360c-6.523,0-12.904-0.606-19.096-1.755h-4.598c-21.586,0-39.147,17.562-39.147,39.148
		V506.85c0,2.845,2.307,5.15,5.151,5.15h44.813V388.121c0-12.954,8.246-23.979,19.774-28.121H206.551z"/>
	<path style="fill:#693FBA;" d="M329.143,358.245h-4.598c-6.19,1.149-12.572,1.755-19.096,1.755h-6.897
		c11.528,4.142,19.774,15.167,19.774,28.121V512h44.813c2.846,0,5.151-2.306,5.151-5.15V397.393
		C368.29,375.807,350.728,358.245,329.143,358.245z"/>
</g>
<g>
	<path style="fill:#E6E9ED;" d="M319.209,359.093c-4.502,0.595-9.095,0.907-13.76,0.907h-6.897
		c11.528,4.142,19.774,15.167,19.774,28.121V512h23.694V388.121C342.02,374.056,332.299,362.268,319.209,359.093z"/>
	<path style="fill:#E6E9ED;" d="M206.551,360c-4.665,0-9.257-0.313-13.76-0.907c-13.089,3.175-22.811,14.963-22.811,29.028V512
		h23.694V388.121c0-12.954,8.246-23.979,19.774-28.121H206.551z"/>
</g>
<path style="fill:#D2957D;" d="M362.314,169.89c14.921-23.108,30.005-53.542,40.086-81.241c20.627-56.671,12.5-80.412-5.765-87.061
	c-18.265-6.648-39.75,6.316-60.377,62.987c-10.132,27.837-18.165,61.034-21.559,88.406H197.3
	c-3.395-27.372-11.427-60.569-21.56-88.406C155.113,7.904,133.628-5.06,115.363,1.588s-26.392,30.39-5.764,87.061
	c10.08,27.699,25.165,58.134,40.086,81.242c-28.408,18.576-47.183,50.663-47.183,87.14c0,57.465,46.585,104.048,104.048,104.048
	h98.898c57.465,0,104.048-46.583,104.048-104.048C409.497,220.554,390.723,188.466,362.314,169.89z"/>
<path style="fill:#FB8276;" d="M144.839,299.465c-11.139,0-20.46,7.753-22.879,18.154c7.972,11.111,18.08,20.584,29.722,27.824
	c9.639-2.931,16.654-11.885,16.654-22.481C168.336,309.984,157.815,299.465,144.839,299.465z"/>
<path style="fill:#FFC7A9;" d="M162.399,151.365c1.972,3.256,3.857,6.24,5.651,8.976c2.941-1.172,5.948-2.209,9.014-3.113
	c-0.387-3.295-0.867-6.846-1.459-10.67c-3.787-24.456-10.794-51.769-19.227-74.935c-15.233-41.854-28.495-51.019-32.318-51.019
	c-0.465,0-1.021,0.115-1.65,0.345c-1.203,0.438-3.217,1.171-4.069,7.973c-1,7.976,0.031,23.588,10.62,52.681
	C137.393,104.769,149.58,130.197,162.399,151.365z"/>
<g style="opacity:0.15;">
	<path style="fill:#440075;" d="M130.746,262.68c0-35.975,18.006-69.225,48.164-88.946c2.547-1.665,3.27-5.074,1.62-7.63
		c-15.998-24.775-31.885-56.974-42.496-86.134c-10.039-27.578-14.169-49.216-12.276-64.309c0.762-6.071,2.475-10.928,5.162-14.649
		c-5.37-1.585-10.583-1.233-15.557,0.576c-18.265,6.648-26.392,30.39-5.764,87.061c10.08,27.699,25.165,58.134,40.086,81.242
		c-28.408,18.576-47.183,50.663-47.183,87.14c0,53.771,40.79,98.012,93.112,103.477C157.529,344.355,130.746,306.587,130.746,262.68
		z"/>
</g>
<path style="fill:#FB8276;" d="M390.04,317.62c-2.419-10.402-11.74-18.155-22.879-18.155c-12.977,0-23.497,10.52-23.497,23.497
	c0,10.597,7.016,19.551,16.654,22.481C371.96,338.203,382.068,328.73,390.04,317.62z"/>
<path style="fill:#FFC7A9;" d="M343.949,160.341c1.795-2.735,3.681-5.72,5.652-8.977c12.818-21.167,25.006-46.595,33.438-69.763
	c10.589-29.091,11.62-44.703,10.62-52.678c-0.853-6.804-2.866-7.537-4.069-7.975c-0.63-0.229-1.185-0.345-1.65-0.345
	c-3.824,0-17.086,9.165-32.319,51.019c-8.432,23.166-15.44,50.479-19.226,74.935c-0.592,3.824-1.072,7.375-1.459,10.67
	C338.001,158.132,341.009,159.169,343.949,160.341z"/>
<path style="fill:#FFFFFF;" d="M230.185,307v21.112c0,1.7,1.39,3.091,3.09,3.091h45.449c1.7,0,3.09-1.391,3.09-3.091V307H230.185z"
	/>
<rect x="248.5" y="307" style="fill:#C5CCD3;" width="15" height="24.2"/>
<g>
	<path style="fill:#775436;" d="M335.84,266.591c-11.791,0-21.384-9.617-21.384-21.437c0-11.821,9.593-21.439,21.384-21.439
		c11.791,0,21.384,9.617,21.384,21.439C357.224,256.974,347.631,266.591,335.84,266.591z"/>
	<path style="fill:#775436;" d="M176.162,266.591c-11.792,0-21.385-9.617-21.385-21.437c0-11.821,9.593-21.439,21.385-21.439
		c11.79,0,21.383,9.617,21.383,21.439C197.545,256.974,187.952,266.591,176.162,266.591z"/>
</g>
<path style="fill:#FFC7A9;" d="M311.63,279.694c0,15.931-12.915,28.845-28.845,28.845h-53.57c-15.93,0-28.845-12.914-28.845-28.845
	l0,0c0-15.931,12.915-28.846,28.845-28.846h53.57C298.715,250.849,311.63,263.764,311.63,279.694L311.63,279.694z"/>
<path style="fill:#775436;" d="M279.18,263.211c0,6.827-5.535,12.362-12.363,12.362h-21.633c-6.827,0-12.363-5.535-12.363-12.362
	l0,0c0-6.826,5.536-12.362,12.363-12.362h21.633C273.644,250.849,279.18,256.385,279.18,263.211L279.18,263.211z"/>
<g style="opacity:0.15;">
	<path style="fill:#440075;" d="M231.275,279.694c0-15.931,12.915-28.846,28.846-28.846h-30.906
		c-15.93,0-28.845,12.915-28.845,28.846s12.915,28.845,28.845,28.845h30.906C244.19,308.539,231.275,295.625,231.275,279.694z"/>
</g>
<path style="fill:#FFC7A9;" d="M290.129,512v-53.817c0-18.85-15.279-34.129-34.129-34.129s-34.129,15.279-34.129,34.129V512H290.129
	z"/>
<g style="opacity:0.15;">
	<path style="fill:#440075;" d="M267.914,426.195c-3.71-1.383-7.723-2.142-11.914-2.142c-18.85,0-34.129,15.279-34.129,34.129V512
		h23.827v-53.817C245.698,443.524,254.939,431.028,267.914,426.195z"/>
</g>
<g>
</g>
<g>
</g>
<g>
</g>
<g>
</g>
<g>
</g>
<g>
</g>
<g>
</g>
<g>
</g>
<g>
</g>
<g>
</g>
<g>
</g>
<g>
</g>
<g>
</g>
<g>
</g>
<g>
</g>
</svg>
