<?xml version="1.0" encoding="iso-8859-1"?>
<!-- Generator: Adobe Illustrator 19.0.0, SVG Export Plug-In . SVG Version: 6.00 Build 0)  -->
<svg version="1.1" id="Capa_1" xmlns="http://www.w3.org/2000/svg" xmlns:xlink="http://www.w3.org/1999/xlink" x="0px" y="0px"
	 viewBox="0 0 493.477 493.477" style="enable-background:new 0 0 493.477 493.477;" xml:space="preserve">
<g transform="matrix(1.25 0 0 -1.25 0 45)">
	<g>
		<g>
			<g>
				<path style="fill:#ABDFFF;" d="M228.961-169.793c-51.86-69.279-64.58-144.213-28.41-167.367
					c36.159-23.154,107.52,14.245,159.38,83.524s31.312,193.752,28.41,189.224C368.122-95.974,280.821-100.514,228.961-169.793"/>
				<path style="fill:#ABDFFF;" d="M166.224-169.793c51.86-69.279,64.58-144.213,28.422-167.367
					c-36.17-23.154-107.531,14.245-159.391,83.524S2.941-60.567,6.844-64.412C49.545-106.499,114.364-100.514,166.224-169.793"/>
			</g>
			<path style="fill:#55ACEE;" d="M349.941-141.997c-10.923-18.25-18.045-35.806-48.367-64.387
				c-11.708-11.048-10.695-25.554,2.048-15.906c30.299,22.926,48.981,59.403,55.148,82.694
				C363.116-123.201,355.448-132.804,349.941-141.997 M44.971-141.997c10.923-18.25,18.045-35.806,48.367-64.387
				c11.719-11.048,10.706-25.554-2.037-15.906c-30.31,22.926-48.993,59.403-55.159,82.694
				C31.795-123.201,39.475-132.804,44.971-141.997"/>
			<path style="fill:#7C533E;" d="M345.367-348.732v39.822c0,37.706-41.938,62.578-79.644,62.578H129.189
				c-37.695,0-79.644-24.872-79.644-62.578v-39.822H345.367z"/>
			<path style="fill:#0B0200;" d="M196.83,25.95c46.706,0,124.553-46.114,124.553-147.308c0-101.217,0-124.564-23.347-124.564
				c-23.359,0-54.5,23.347-101.205,23.347s-77.198-23.347-101.205-23.347c-26.032,0-23.37,93.412-23.37,124.564
				C72.255-20.164,150.124,25.95,196.83,25.95"/>
			<path style="fill:#7C533E;" d="M155.677-246.536c16.68-12.117,33.724-11.15,41.779-11.15s24.963-0.967,41.643,11.15v36.443
				h-83.422V-246.536z"/>
			<path style="fill:#664131;" d="M155.608-225.613c11.628-13.141,26.055-16.703,41.734-16.703c15.69,0,30.117,3.561,41.756,16.703
				v33.405h-83.49V-225.613z"/>
			<path style="fill:#7C533E;" d="M103.407-117.967c0,66.378,41.825,142.95,93.423,142.95c51.587,0,93.4-76.572,93.4-142.95
				c0-66.367-41.813-117.02-93.4-117.02C145.232-234.988,103.407-184.334,103.407-117.967"/>
			<path style="fill:#DF1F32;" d="M196.83-206.999c-18.273,0-27.841,9.034-28.865,10.069c-3.049,3.026-3.049,7.964,0,11.002
				c3.026,3.004,7.873,3.026,10.934,0.068c0.398-0.364,6.269-5.586,17.931-5.586c11.81,0,17.692,5.382,17.931,5.598
				c3.118,2.913,7.999,2.822,10.957-0.216c2.958-3.061,2.958-7.873-0.046-10.866C224.649-197.965,215.091-206.999,196.83-206.999"/>
			<path style="fill:#0B0200;" d="M80.549-155.309c-0.239,11.378-0.501,2.549-0.501,5.291c0,38.935,23.359-5.621,23.359,22.107
				c0,27.75,15.565,30.527,31.141,46.091c7.782,7.794,23.347,23.051,23.347,23.051s38.923-23.518,70.064-23.518
				s62.282-15.644,62.282-46.785S313.6-111.05,313.6-149.973c0-2.776-0.262,6.042-0.455-5.336h8.181
				c0.057,22.756,0.057,21.891,0.057,36.432c0,101.205-55.66,144.828-124.564,144.828c-67.63,0-124.553-42.997-124.553-144.202
				c0-9.023-0.228-14.302,0.091-37.057H80.549z"/>
			<g>
				<path style="fill:#7C533E;" d="M288.478-109.798l-5.348-1.468c0,0-13.562-38.684-0.011-45.466
					c30.322-15.155,39.492,43.156,39.492,58.311C322.611-87.043,288.478-109.798,288.478-109.798"/>
				<path style="fill:#7C533E;" d="M106.434-109.798l5.348-1.468c0,0,13.562-38.684,0.011-45.466
					C81.471-171.887,72.3-113.576,72.3-98.42C72.3-87.043,106.434-109.798,106.434-109.798"/>
			</g>
			<path d="M158.862-142.68L158.862-142.68c-5.291,0-9.626,4.335-9.626,9.637v9.603c0,5.291,4.335,9.626,9.626,9.626
				c5.302,0,9.637-4.335,9.637-9.626v-9.603C168.499-138.345,164.164-142.68,158.862-142.68"/>
			<path d="M235.833-142.68L235.833-142.68c-5.291,0-9.626,4.335-9.626,9.637v9.603c0,5.291,4.335,9.626,9.626,9.626
				c5.291,0,9.626-4.335,9.626-9.626v-9.603C245.459-138.345,241.124-142.68,235.833-142.68"/>
			<path style="fill:#3D2E24;" d="M206.968-172.376h-19.228c-2.662,0-4.813,2.15-4.813,4.813v1.741c0,2.662,2.15,4.824,4.813,4.824
				h19.228c2.651,0,4.824-2.162,4.824-4.824v-1.741C211.792-170.226,209.619-172.376,206.968-172.376"/>
			<path style="fill:#77B255;" d="M95.056-348.732h204.8v56.889l-28.444-22.756l-22.756,22.756l-25.247-22.756l-25.953,22.756
				l-25.418-22.756l-25.6,22.756L123.5-314.598l-28.444,22.756V-348.732z"/>
		</g>
	</g>
</g>
<g>
</g>
<g>
</g>
<g>
</g>
<g>
</g>
<g>
</g>
<g>
</g>
<g>
</g>
<g>
</g>
<g>
</g>
<g>
</g>
<g>
</g>
<g>
</g>
<g>
</g>
<g>
</g>
<g>
</g>
</svg>
