<?xml version="1.0" encoding="iso-8859-1"?>
<!-- Generator: Adobe Illustrator 19.0.0, SVG Export Plug-In . SVG Version: 6.00 Build 0)  -->
<svg version="1.1" id="Capa_1" xmlns="http://www.w3.org/2000/svg" xmlns:xlink="http://www.w3.org/1999/xlink" x="0px" y="0px"
	 viewBox="0 0 512 512" style="enable-background:new 0 0 512 512;" xml:space="preserve">
<path style="fill:#FFB98A;" d="M340.949,358.245h-93.368v-30.424c-10.57,3.661-21.912,5.656-33.712,5.656
	c-11.799,0-23.141-1.995-33.71-5.655v30.423h-93.37c-8.499,0-15.453,6.954-15.453,15.453v128c0,5.666,4.636,10.302,10.302,10.302
	h264.463c5.666,0,10.302-4.636,10.302-10.302v-128C356.402,365.199,349.448,358.245,340.949,358.245z"/>
<g>
	<path style="fill:#046699;" d="M427.247,122.028h-98.858v26.833h98.858c7.411,0,13.417-6.007,13.417-13.417
		C440.664,128.035,434.658,122.028,427.247,122.028z"/>
	<circle style="fill:#046699;" cx="213.87" cy="20.945" r="20.945"/>
</g>
<g>
	<path style="fill:#FFB98A;" d="M110.596,230.202v-45.915H97.372c-13.452,0-24.359,10.907-24.359,24.359v26.477
		c0,13.453,10.907,24.359,24.359,24.359h17.458C112.08,250.195,110.596,240.37,110.596,230.202z"/>
	<path style="fill:#FFB98A;" d="M330.367,184.288h-13.225v45.915c0,10.167-1.484,19.993-4.234,29.28h17.459
		c13.454,0,24.358-10.906,24.358-24.359v-26.477C354.726,195.194,343.821,184.288,330.367,184.288z"/>
</g>
<g>
	<path style="fill:#D19546;" d="M110.596,213.823H96.418c-4.143,0-7.5,3.358-7.5,7.5s3.357,7.5,7.5,7.5h14.178V213.823z"/>
	<path style="fill:#D19546;" d="M331.32,213.823h-14.178v15h14.178c4.143,0,7.5-3.358,7.5-7.5S335.463,213.823,331.32,213.823z"/>
</g>
<path style="fill:#FFC7A9;" d="M317.564,147.319H109.596v82.883c0,57.59,46.686,104.275,104.273,104.275
	c57.59,0,104.274-46.685,104.274-104.275v-82.883H317.564z"/>
<path style="fill:#F7931E;" d="M185.142,118.64c-1.105,0-2-0.896-2-2v-6.462c0-11.424,9.316-20.718,20.769-20.718h19.918
	c11.452,0,20.769,9.294,20.769,20.718v6.462c0,1.104-0.895,2-2,2H185.142z"/>
<g style="opacity:0.15;">
	<path style="fill:#440075;" d="M132.378,152.899l-22.782,22.782v13.357c0,26.8,10.123,51.225,26.738,69.693
		c-2.574-9.067-3.956-18.637-3.956-28.529L132.378,152.899L132.378,152.899z"/>
	<path style="fill:#440075;" d="M219.576,334.32c0.051-0.003,0.102-0.007,0.153-0.01
		C219.678,334.313,219.627,334.317,219.576,334.32z"/>
	<path style="fill:#440075;" d="M216.699,334.438c0.128-0.003,0.255-0.01,0.384-0.014
		C216.954,334.427,216.827,334.435,216.699,334.438z"/>
</g>
<g>
	<path style="fill:#F7931E;" d="M253.026,285.703c-3.277-7.611-9.619-13.598-17.459-16.441c-2.838,3.984-8.298,6.631-14.711,6.631
		h-10.184c-5.967,0-11.204-3.136-14.186-7.838c-9.807,1.969-17.914,8.684-21.774,17.648c-38.183-15.483-65.116-52.925-65.116-96.665
		v41.164c0,57.59,46.686,104.275,104.273,104.275c57.59,0,104.274-46.685,104.274-104.275v-41.164
		C318.143,232.778,291.209,270.22,253.026,285.703z"/>
	<polygon style="fill:#F7931E;" points="109.596,147.319 109.596,177 139.277,147.319 	"/>
	<polygon style="fill:#F7931E;" points="288.461,147.319 318.143,177 318.143,147.319 317.564,147.319 	"/>
</g>
<g>
	<path id="SVGCleanerId_0" style="fill:#9EA7AF;" d="M248.392,131.64h-69.045c-5.076,0-9.205-4.13-9.205-9.207v-12.255
		c0-18.592,15.148-33.718,33.769-33.718h19.918c18.62,0,33.769,15.126,33.769,33.718v12.255
		C257.597,127.509,253.468,131.64,248.392,131.64z M185.142,116.64h57.455v-6.462c0-10.321-8.42-18.718-18.769-18.718H203.91
		c-10.349,0-18.769,8.397-18.769,18.718L185.142,116.64L185.142,116.64z"/>
</g>
<g>
	<path id="SVGCleanerId_0_1_" style="fill:#9EA7AF;" d="M248.392,131.64h-69.045c-5.076,0-9.205-4.13-9.205-9.207v-12.255
		c0-18.592,15.148-33.718,33.769-33.718h19.918c18.62,0,33.769,15.126,33.769,33.718v12.255
		C257.597,127.509,253.468,131.64,248.392,131.64z M185.142,116.64h57.455v-6.462c0-10.321-8.42-18.718-18.769-18.718H203.91
		c-10.349,0-18.769,8.397-18.769,18.718L185.142,116.64L185.142,116.64z"/>
</g>
<path style="fill:#C5CCD3;" d="M245.672,20.542h-63.607c-46.258,0-83.891,37.559-83.891,83.728v39.137
	c0,3.012,2.438,5.454,5.446,5.454h213.942h6.554h5.446V104.27C329.564,58.102,291.931,20.542,245.672,20.542z M250.097,122.433
	c0,0.943-0.763,1.707-1.705,1.707h-69.045c-0.942,0-1.705-0.764-1.705-1.707v-12.255c0-14.457,11.785-26.218,26.269-26.218h19.918
	c14.483,0,26.269,11.761,26.269,26.218L250.097,122.433L250.097,122.433z"/>
<g>
	<path id="SVGCleanerId_0_2_" style="fill:#9EA7AF;" d="M248.392,131.64h-69.045c-5.076,0-9.205-4.13-9.205-9.207v-12.255
		c0-18.592,15.148-33.718,33.769-33.718h19.918c18.62,0,33.769,15.126,33.769,33.718v12.255
		C257.597,127.509,253.468,131.64,248.392,131.64z M185.142,116.64h57.455v-6.462c0-10.321-8.42-18.718-18.769-18.718H203.91
		c-10.349,0-18.769,8.397-18.769,18.718L185.142,116.64L185.142,116.64z"/>
</g>
<g>
	<path style="fill:#9EA7AF;" d="M164.384,244.956c-11.791,0-21.384-9.617-21.384-21.438c0-11.82,9.593-21.437,21.384-21.437
		s21.384,9.617,21.384,21.437C185.768,235.34,176.175,244.956,164.384,244.956z"/>
	<path style="fill:#9EA7AF;" d="M263.385,244.956c-11.792,0-21.385-9.617-21.385-21.438c0-11.82,9.593-21.437,21.385-21.437
		c11.79,0,21.383,9.617,21.383,21.437C284.768,235.34,275.175,244.956,263.385,244.956z"/>
</g>
<path style="fill:#FFC7A9;" d="M231.368,307.798H196.37c-4.143,0-7.5-3.358-7.5-7.5s3.357-7.5,7.5-7.5h34.998
	c4.143,0,7.5,3.358,7.5,7.5S235.511,307.798,231.368,307.798z"/>
<path style="fill:#E6E9ED;" d="M71.336,373.698v128c0,5.666,4.636,10.302,10.302,10.302h142.019v-96.321
	c0-1.7-0.984-4.074-2.186-5.276l-52.158-52.157H86.789C78.29,358.245,71.336,365.199,71.336,373.698z"/>
<path style="fill:#C0272D;" d="M141.2,358.245H86.789c-8.499,0-15.453,6.954-15.453,15.453v105.556L141.2,358.245z"/>
<g style="opacity:0.15;">
	<path style="fill:#440075;" d="M96.135,501.698v-128c0-8.499,6.954-15.453,15.453-15.453H86.789
		c-8.499,0-15.453,6.954-15.453,15.453v128c0,5.666,4.636,10.302,10.302,10.302h24.799C100.771,512,96.135,507.364,96.135,501.698z"
		/>
</g>
<g>
	<path style="fill:#C5CCD3;" d="M169.571,512v-42.752c0-2.267-1.855-4.121-4.12-4.121h-51.51c-2.267,0-4.12,1.854-4.12,4.121V512
		H169.571z"/>
	<path style="fill:#C5CCD3;" d="M356.402,501.698v-128c0-8.499-6.954-15.453-15.453-15.453h-82.523l-52.158,52.157
		c-1.201,1.202-2.186,3.577-2.186,5.276V512h142.019C351.767,512,356.402,507.364,356.402,501.698z"/>
</g>
<path style="fill:#C0272D;" d="M286.538,358.245h54.411c8.499,0,15.453,6.954,15.453,15.453v105.556L286.538,358.245z"/>
<g>
	<path style="fill:#E6E9ED;" d="M226.23,431.42c-1.97,0-3.91-0.8-5.3-2.2c-1.399-1.39-2.2-3.33-2.2-5.3s0.801-3.91,2.2-5.3
		c1.39-1.4,3.33-2.2,5.3-2.2c1.98,0,3.91,0.8,5.301,2.2c1.399,1.39,2.199,3.33,2.199,5.3s-0.8,3.91-2.199,5.3
		C230.14,430.62,228.21,431.42,226.23,431.42z"/>
	<path style="fill:#E6E9ED;" d="M226.23,464.39c-1.97,0-3.91-0.81-5.3-2.2c-1.399-1.4-2.2-3.33-2.2-5.3c0-1.98,0.801-3.91,2.2-5.31
		c1.39-1.39,3.33-2.2,5.3-2.2c1.98,0,3.91,0.81,5.301,2.2c1.399,1.4,2.199,3.33,2.199,5.31c0,1.97-0.8,3.9-2.199,5.3
		C230.14,463.58,228.21,464.39,226.23,464.39z"/>
	<path style="fill:#E6E9ED;" d="M226.23,497.35c-1.97,0-3.91-0.8-5.3-2.2c-1.399-1.39-2.2-3.32-2.2-5.3c0-1.97,0.801-3.91,2.2-5.3
		c1.39-1.4,3.33-2.2,5.3-2.2c1.98,0,3.91,0.8,5.301,2.2c1.399,1.39,2.199,3.33,2.199,5.3c0,1.98-0.8,3.91-2.199,5.3
		C230.14,496.55,228.21,497.35,226.23,497.35z"/>
</g>
<g>
	<path style="fill:#F7931E;" d="M187.089,199.116c-0.643,0-1.296-0.083-1.946-0.257l-41.792-11.198
		c-4.001-1.072-6.375-5.185-5.303-9.186c1.071-4.001,5.183-6.376,9.186-5.303l41.792,11.198c4.001,1.072,6.375,5.185,5.303,9.186
		C193.431,196.906,190.4,199.116,187.089,199.116z"/>
	<path style="fill:#F7931E;" d="M240.649,199.116c-3.311,0-6.342-2.21-7.239-5.561c-1.072-4.002,1.302-8.114,5.303-9.186
		l41.792-11.198c4.004-1.07,8.113,1.303,9.185,5.303c1.072,4.001-1.302,8.114-5.303,9.186l-41.792,11.198
		C241.945,199.032,241.292,199.116,240.649,199.116z"/>
</g>
<path style="fill:#D2957D;" d="M220.856,276.893h-10.184c-9.816,0-17.802-7.986-17.802-17.802v-33.479c0-4.142,3.357-7.5,7.5-7.5
	s7.5,3.358,7.5,7.5v33.479c0,1.519,1.283,2.802,2.802,2.802h10.184c1.291,0,2.23-0.265,2.802-0.508v-4.969
	c0-4.142,3.357-7.5,7.5-7.5s7.5,3.358,7.5,7.5v6.488C238.658,270.748,230.839,276.893,220.856,276.893z"/>
<g>
	<path style="fill:#9EA7AF;" d="M180.941,20.571c-6.302,0.083-12.435,0.866-18.331,2.269
		c-11.152,21.271-17.706,53.074-17.706,86.821v39.201h15v-39.201C159.904,76.332,167.595,40.867,180.941,20.571z"/>
	<path style="fill:#9EA7AF;" d="M265.129,22.84c-5.669-1.35-11.558-2.119-17.604-2.251c11.03,19.548,20.31,56.367,20.31,89.071
		v39.201h15V109.66C282.835,75.912,276.281,44.109,265.129,22.84z"/>
</g>
<g style="opacity:0.15;">
	<path style="fill:#440075;" d="M127.63,143.408v-39.137c0-46.169,37.633-83.728,83.891-83.728h-29.455
		c-46.258,0-83.891,37.559-83.891,83.728v39.137c0,3.012,2.438,5.454,5.446,5.454h29.454
		C130.067,148.861,127.63,146.42,127.63,143.408z"/>
</g>
<g>
</g>
<g>
</g>
<g>
</g>
<g>
</g>
<g>
</g>
<g>
</g>
<g>
</g>
<g>
</g>
<g>
</g>
<g>
</g>
<g>
</g>
<g>
</g>
<g>
</g>
<g>
</g>
<g>
</g>
</svg>
