<?xml version="1.0" encoding="iso-8859-1"?>
<!-- Generator: Adobe Illustrator 19.0.0, SVG Export Plug-In . SVG Version: 6.00 Build 0)  -->
<svg version="1.1" id="Capa_1" xmlns="http://www.w3.org/2000/svg" xmlns:xlink="http://www.w3.org/1999/xlink" x="0px" y="0px"
	 viewBox="0 0 512 512" style="enable-background:new 0 0 512 512;" xml:space="preserve">
<path style="fill:#FCC892;" d="M65.167,397.566C34.748,397.566,10,372.819,10,342.4c0-19.221,9.758-36.752,26.103-46.896
	c7.039-4.372,16.287-2.203,20.654,4.834c4.369,7.038,2.205,16.286-4.834,20.654C44.457,325.627,40,333.63,40,342.4
	c0,13.877,11.29,25.166,25.167,25.166c7.231,0,14.123-3.118,18.906-8.556c5.473-6.219,14.95-6.823,21.171-1.353
	c6.219,5.473,6.824,14.951,1.353,21.171C96.118,390.736,81.018,397.566,65.167,397.566z"/>
<path style="fill:#FCA953;" d="M446.834,397.566c-15.848,0-30.946-6.827-41.425-18.731c-5.474-6.219-4.869-15.697,1.349-21.171
	c6.219-5.474,15.697-4.869,21.171,1.349c4.784,5.436,11.675,8.554,18.905,8.554c13.877,0,25.166-11.289,25.166-25.166
	c0-8.77-4.457-16.773-11.924-21.408c-7.038-4.369-9.202-13.616-4.833-20.655c4.368-7.038,13.614-9.202,20.655-4.833
	C492.242,305.649,502,323.181,502,342.4C502,372.819,477.253,397.566,446.834,397.566z"/>
<path style="fill:#703422;" d="M448.801,200.833h-32.134c-8.284,0-15,6.716-15,15s6.716,15,15,15v66.399c-8.284,0-15,6.716-15,15
	s6.716,15,15,15h32.134c34.849,0,63.199-28.351,63.199-63.199C512,229.185,483.649,200.833,448.801,200.833z"/>
<path style="fill:#8F5240;" d="M95.335,297.232L95.335,297.232l-0.001-66.399c8.284,0,15-6.716,15-15s-6.716-15-15-15H63.2
	c-34.849,0-63.2,28.352-63.2,63.2c0,34.848,28.352,63.199,63.2,63.199h32.135c8.284,0,15-6.716,15-15
	S103.619,297.232,95.335,297.232z"/>
<path style="fill:#3B211A;" d="M416.667,297.234c-8.284,0-15,6.716-15,15H110.334c0-8.284-6.716-15-15-15s-15,6.716-15,15v176.732
	c0,8.284,6.716,15,15,15h321.333c8.284,0,15-6.716,15-15V312.234C431.667,303.95,424.951,297.234,416.667,297.234z"/>
<path style="fill:#0F0301;" d="M416.667,503.967c8.284,0,15-6.716,15-15V312.234c0-8.284-6.716-15-15-15s-15,6.716-15,15H256.001
	v191.732L416.667,503.967L416.667,503.967z"/>
<path style="fill:#A46343;" d="M423.788,186.565L222.373,77.919c-5.521-2.976-12.313-2.204-17.025,1.937L85.43,185.284
	c-3.239,2.848-5.096,6.952-5.096,11.266v131.751c0,96.862,78.804,175.666,175.667,175.666c96.862,0,175.666-78.804,175.666-175.666
	V199.768C431.667,194.253,428.642,189.184,423.788,186.565z"/>
<path style="fill:#8F5240;" d="M423.788,186.565L256.001,96.059v407.908c96.862,0,175.666-78.804,175.666-175.666V199.768
	C431.667,194.253,428.642,189.184,423.788,186.565z"/>
<path style="fill:#3B211A;" d="M256.001,8.033c-11.998,0-23.999,1.222-35.668,3.631c-12.959,2.674-25.644,6.844-37.706,12.394
	c-30.097,13.856-55.607,35.871-73.774,63.669c-18.657,28.547-28.519,61.734-28.519,95.974v12.85c0,4.501,2.021,8.765,5.507,11.613
	c3.485,2.85,8.063,3.982,12.478,3.087c51.805-10.516,95.956-44.157,120.312-90.248c48.417,59.151,120.657,93.766,198.037,93.766
	c8.284,0,15-6.716,15-15V183.7C431.667,86.837,352.863,8.033,256.001,8.033z"/>
<path style="fill:#FD413C;" d="M256.001,391.502c-22.483,0-43.453-12.098-54.727-31.573c-4.15-7.17-1.703-16.346,5.467-20.496
	c7.167-4.152,16.346-1.703,20.496,5.467c5.929,10.241,16.95,16.603,28.764,16.603c11.814,0,22.838-6.365,28.768-16.611
	c4.15-7.17,13.33-9.615,20.496-5.469c7.17,4.149,9.618,13.326,5.469,20.496C299.459,379.399,278.486,391.502,256.001,391.502z"/>
<path style="fill:#3B211A;" d="M191.735,271.007c-3.949,0-7.819-1.6-10.609-4.399c-2.79-2.79-4.391-6.65-4.391-10.601
	c0-3.949,1.601-7.819,4.391-10.609c2.8-2.79,6.66-4.391,10.609-4.391c3.95,0,7.811,1.601,10.601,4.391
	c2.8,2.79,4.399,6.66,4.399,10.609c0,3.95-1.6,7.811-4.399,10.601C199.546,269.407,195.686,271.007,191.735,271.007z"/>
<path style="fill:#0F0301;" d="M320.266,271.007c-3.95,0-7.81-1.6-10.61-4.399c-2.789-2.79-4.39-6.65-4.39-10.601
	c0-3.949,1.601-7.81,4.39-10.609c2.801-2.79,6.66-4.391,10.61-4.391s7.811,1.601,10.61,4.391c2.79,2.8,4.39,6.66,4.39,10.609
	c0,3.95-1.6,7.811-4.39,10.601C328.086,269.407,324.216,271.007,320.266,271.007z"/>
<path style="fill:#DA0806;" d="M305.266,339.422c-7.171-4.15-16.348-1.701-20.497,5.469c-5.929,10.243-16.95,16.607-28.765,16.607
	v30c22.484-0.001,43.455-12.101,54.729-31.58C314.883,352.748,312.435,343.572,305.266,339.422z"/>
<path style="fill:#0F0301;" d="M431.667,199.768V183.7c0-96.863-78.804-175.667-175.666-175.667V158.1
	c44.893,36.245,101.259,56.667,160.666,56.667C424.951,214.768,431.667,208.052,431.667,199.768z"/>
<g>
</g>
<g>
</g>
<g>
</g>
<g>
</g>
<g>
</g>
<g>
</g>
<g>
</g>
<g>
</g>
<g>
</g>
<g>
</g>
<g>
</g>
<g>
</g>
<g>
</g>
<g>
</g>
<g>
</g>
</svg>
