<?xml version="1.0" encoding="iso-8859-1"?>
<!-- Generator: Adobe Illustrator 19.0.0, SVG Export Plug-In . SVG Version: 6.00 Build 0)  -->
<svg version="1.1" id="Capa_1" xmlns="http://www.w3.org/2000/svg" xmlns:xlink="http://www.w3.org/1999/xlink" x="0px" y="0px"
	 viewBox="0 0 512 512" style="enable-background:new 0 0 512 512;" xml:space="preserve">
<path style="fill:#046699;" d="M324.999,363.441h-25.065C293.179,391.665,267.515,412,238.346,412h-4.504
	c-29.169,0-54.833-20.335-61.587-48.559h-25.064c-17.124,0-31.058,13.932-31.058,31.057v112.325c0,2.859,2.317,5.176,5.176,5.176
	H350.88c2.859,0,5.177-2.317,5.177-5.176V394.498C356.057,377.373,342.123,363.441,324.999,363.441z"/>
<path style="opacity:0.15;fill:#440075;enable-background:new    ;" d="M172.358,363.843c-0.033-0.134-0.071-0.267-0.104-0.401
	H147.19c-17.124,0-31.058,13.932-31.058,31.057v112.325c0,2.859,2.317,5.176,5.176,5.176h30.131c-2.859,0-5.176-2.317-5.176-5.176
	V394.498C146.264,379.063,157.586,366.227,172.358,363.843z"/>
<path style="fill:#6BC1DD;" d="M296.101,374.611C286.038,396.873,263.499,412,238.346,412h-4.504
	c-25.153,0-47.691-15.127-57.754-37.389c-9.964,12.524-15.921,28.377-15.921,45.626V512h151.857v-91.763
	C312.023,402.988,306.066,387.135,296.101,374.611z"/>
<path style="fill:#98E8F9;" d="M278.785,333.88c-12.076,4.612-25.179,7.146-38.875,7.146h-7.63c-13.696,0-26.798-2.533-38.874-7.145
	v29.561H170.95c6.23,29.016,32.016,50.771,62.893,50.771h4.504c30.877,0,56.662-21.755,62.893-50.771h-22.454V333.88H278.785z"/>
<path style="fill:#203A74;" d="M239.909,341.026h-7.63c-1.234,0-2.461-0.028-3.685-0.069v73.036c1.731,0.14,3.48,0.22,5.247,0.22
	h4.504c1.768,0,3.517-0.08,5.249-0.22v-73.036C242.371,340.998,241.143,341.026,239.909,341.026z"/>
<path style="fill:#D19546;" d="M300.385,158.75c-2.912,1.866-6.274,2.852-9.724,2.852c-5.321,0-10.342-2.326-13.777-6.383
	c-1.654-1.953-4.247-5.052-7.324-8.745c-0.19-0.229-0.472-0.36-0.768-0.36c-0.017,0-0.034,0.001-0.051,0.002
	c-0.314,0.016-0.603,0.179-0.779,0.44l-4.373,6.494c-2.973,4.415-9.982,8.145-15.305,8.145h-25.565
	c-5.319,0-12.273-3.76-15.185-8.21l-3.805-5.813c-0.174-0.265-0.463-0.432-0.779-0.451c-0.019-0.001-0.039-0.002-0.058-0.002
	c-0.296,0-0.578,0.131-0.768,0.36c-2.859,3.43-5.257,6.294-6.819,8.139c-3.435,4.056-8.456,6.383-13.778,6.383
	c-3.45,0-6.812-0.986-9.724-2.852c-1.201-0.77-2.389-1.527-3.564-2.274c-11.031,11.245-17.85,26.635-17.85,43.594v37.895
	c0,34.352,27.948,62.3,62.3,62.3H259.5c34.353,0,62.3-27.948,62.3-62.3V200.07c0-16.959-6.819-32.349-17.85-43.594
	C302.774,157.223,301.586,157.98,300.385,158.75z"/>
<path style="fill:#FB8276;" d="M170.593,251.634c-6.66,0-12.549,3.239-16.226,8.213c4.725,12.551,13.391,23.178,24.482,30.383
	c7.028-3.157,11.932-10.204,11.932-18.409C190.78,260.672,181.742,251.634,170.593,251.634z"/>
<path style="fill:#B2762F;" d="M245.285,258.009h-9.043c-9.122,0-16.543-8.009-16.543-17.853v-20.264c0-4.142,3.358-7.5,7.5-7.5
	s7.5,3.358,7.5,7.5v20.264c0,1.853,1.095,2.853,1.543,2.853h9.043c4.142,0,7.5,3.358,7.5,7.5S249.427,258.009,245.285,258.009z"/>
<g>
	<path style="fill:#775436;" d="M155.322,184.47c5.244-5.245,12.21-8.133,19.615-8.133s14.372,2.889,19.617,8.133
		c1.464,1.465,3.384,2.197,5.303,2.197c1.919,0,3.839-0.732,5.303-2.197c2.929-2.929,2.929-7.678,0-10.606
		c-8.078-8.078-18.811-12.527-30.223-12.527c-4.261,0-8.426,0.622-12.395,1.819c-5.038,6.826-8.708,14.715-10.627,23.26
		C153.163,186.091,154.344,185.447,155.322,184.47z"/>
	<path style="fill:#775436;" d="M265.794,173.863c-2.929,2.929-2.929,7.677,0,10.606c1.464,1.465,3.384,2.197,5.303,2.197
		s3.839-0.732,5.303-2.197c11.433-11.431,30.034-11.43,41.464,0c0.689,0.689,1.481,1.21,2.324,1.575
		c-1.997-8.642-5.783-16.605-10.967-23.463C294.274,158.369,277.534,162.123,265.794,173.863z"/>
	<path style="fill:#775436;" d="M189.66,239.903c-11.829,0-21.453-9.647-21.453-21.506c0-11.858,9.624-21.506,21.453-21.506
		c11.828,0,21.45,9.648,21.45,21.506S201.488,239.903,189.66,239.903z"/>
	<path style="fill:#775436;" d="M278.274,239.903c-11.829,0-21.453-9.647-21.453-21.506c0-11.858,9.624-21.506,21.453-21.506
		s21.452,9.648,21.452,21.506S290.103,239.903,278.274,239.903z"/>
</g>
<path style="fill:#B2762F;" d="M262.364,283.98h-50.171c-4.142,0-7.5-3.358-7.5-7.5s3.358-7.5,7.5-7.5h50.171
	c4.142,0,7.5,3.358,7.5,7.5S266.506,283.98,262.364,283.98z"/>
<path style="fill:#046699;" d="M303.116,157.008c10.931,11.07,17.684,26.275,17.684,43.062v37.895c0,33.854-27.445,61.3-61.3,61.3
	h-46.811c-33.855,0-61.3-27.445-61.3-61.3V200.07c0-16.787,6.753-31.991,17.684-43.062c-17.424-11.094-32.105-19.732-45.792-26.945
	v103.735c0,60.198,48.801,108.999,108.999,108.999h7.63c60.197,0,108.998-48.8,108.998-108.999V130.063
	C335.222,137.275,320.542,145.914,303.116,157.008z"/>
<path style="fill:#98E8F9;" d="M396.383,128h-28.845v142.646h-25.537v29.369h25.538c16.193,0,29.368-13.174,29.368-29.369V127.947
	C396.732,127.965,396.562,128,396.383,128z"/>
<path style="fill:#6BC1DD;" d="M343.738,299.214c0,2.847-2.329,5.176-5.176,5.176H288.87c-2.847,0-5.176-2.33-5.176-5.176v-34.081
	c0-2.847,2.33-5.176,5.176-5.176h49.692c2.847,0,5.176,2.329,5.176,5.176L343.738,299.214L343.738,299.214z"/>
<g style="opacity:0.15;">
	<path style="fill:#440075;" d="M307.764,299.214v-34.081c0-2.847,2.329-5.176,5.176-5.176h-24.07c-2.847,0-5.176,2.329-5.176,5.176
		v34.081c0,2.847,2.33,5.176,5.176,5.176h24.07C310.093,304.391,307.764,302.061,307.764,299.214z"/>
</g>
<path style="fill:#98E8F9;" d="M236.865,107.032c-0.19-0.23-0.472-0.363-0.771-0.363h-0.001c-0.298,0-0.581,0.133-0.77,0.362
	c0,0-23.196,28.071-32.999,39.821l4.373,6.681c3.118,4.765,10.328,8.663,16.021,8.663h25.565c5.694,0,12.955-3.864,16.135-8.587
	l4.95-7.351C259.604,134.55,236.865,107.032,236.865,107.032z"/>
<path style="fill:#E6E9ED;" d="M181.527,162.602c-3.534,0-7.098-0.982-10.263-3.01c-19.528-12.514-35.596-21.969-50.567-29.755
	c-6.301-3.278-10.255-9.79-10.255-16.893V51.666c0-8.86,6.112-16.55,14.744-18.549c36.321-8.414,73.635-12.68,110.906-12.68
	s74.587,4.266,110.91,12.681c8.632,1.999,14.744,9.689,14.744,18.55v61.276c0,7.103-3.953,13.615-10.254,16.893
	c-14.971,7.787-31.039,17.242-50.567,29.756c-3.165,2.028-6.729,3.01-10.263,3.01c-5.437,0-10.803-2.323-14.541-6.736
	c-8.255-9.747-39.661-47.754-40.026-48.197c-0.391,0.473-31.787,38.468-40.026,48.197
	C192.332,160.279,186.964,162.602,181.527,162.602z"/>
<path style="fill:#6BC1DD;" d="M180.497,141.934c-0.954,0-1.916-0.263-2.773-0.807c-17.259-10.961-31.712-19.458-45.483-26.737
	c-1.696-0.897-2.757-2.658-2.757-4.577V55.799c0-2.426,1.685-4.526,4.053-5.053c33.628-7.478,68.132-11.269,102.556-11.269
	s68.93,3.792,102.56,11.27c2.368,0.527,4.052,2.627,4.052,5.053v54.013c0,1.918-1.061,3.68-2.757,4.577
	c-13.775,7.282-28.228,15.779-45.483,26.737c-0.856,0.544-1.819,0.807-2.772,0.807c-1.486,0-2.953-0.638-3.968-1.849
	c-9.34-11.131-26.4-31.776-35.566-42.868l-5.07-6.133c-2.721-3.283-6.729-5.166-10.994-5.166s-8.272,1.883-10.995,5.167
	l-4.952,5.989c-8.531,10.324-26.283,31.808-35.683,43.011C183.449,141.296,181.982,141.934,180.497,141.934z"/>
<g>
	<path style="fill:#046699;" d="M149.52,47.493c-5.346,0.996-10.677,2.074-15.983,3.253c-2.368,0.527-4.053,2.627-4.053,5.053
		v54.014c0,1.918,1.061,3.68,2.757,4.577c5.598,2.959,11.313,6.124,17.279,9.57L149.52,47.493L149.52,47.493z"/>
	<path style="fill:#046699;" d="M322.669,47.493c5.346,0.996,10.677,2.074,15.983,3.253c2.368,0.527,4.052,2.627,4.052,5.053v54.014
		c0,1.918-1.061,3.68-2.757,4.577c-5.598,2.959-11.313,6.124-17.279,9.57L322.669,47.493L322.669,47.493z"/>
</g>
<path style="fill:#F7931E;" d="M362.22,124.044c0,2.847,2.33,5.176,5.176,5.176h28.987c2.847,0,5.176-2.33,5.176-5.176V42.872
	c0-2.847-1.629-6.841-3.62-8.876l-32.1-32.815c-1.991-2.035-3.62-1.371-3.62,1.476v121.387H362.22z"/>
<g style="opacity:0.15;">
	<path style="fill:#440075;" d="M381.267,124.044V16.95L365.84,1.18c-1.991-2.035-3.62-1.371-3.62,1.476v121.388
		c0,2.847,2.33,5.176,5.176,5.176h19.047C383.596,129.221,381.267,126.891,381.267,124.044z"/>
</g>
<g>
</g>
<g>
</g>
<g>
</g>
<g>
</g>
<g>
</g>
<g>
</g>
<g>
</g>
<g>
</g>
<g>
</g>
<g>
</g>
<g>
</g>
<g>
</g>
<g>
</g>
<g>
</g>
<g>
</g>
</svg>
