<?xml version="1.0" encoding="iso-8859-1"?>
<!-- Generator: Adobe Illustrator 19.0.0, SVG Export Plug-In . SVG Version: 6.00 Build 0)  -->
<svg version="1.1" id="Capa_1" xmlns="http://www.w3.org/2000/svg" xmlns:xlink="http://www.w3.org/1999/xlink" x="0px" y="0px"
	 viewBox="0 0 512.001 512.001" style="enable-background:new 0 0 512.001 512.001;" xml:space="preserve">
<g>
	<path style="fill:#F7931E;" d="M152.727,230.202c0.018-12.411,0.057-42.54,0.111-65.707h-23.126v58.327
		c0,8.499,6.953,15.453,15.452,15.453h7.877C152.833,235.61,152.727,232.919,152.727,230.202z"/>
	<path style="fill:#F7931E;" d="M359.141,164.495c0.065,20.417,0.112,51.724,0.133,65.708c0,2.716-0.107,5.407-0.313,8.071h7.877
		c8.499,0,15.453-6.954,15.453-15.453v-58.327L359.141,164.495L359.141,164.495z"/>
</g>
<path style="fill:#B2762F;" d="M91.835,436.872v64.827c0,5.666,4.636,10.302,10.302,10.302h27.038V437.74H99.06
	C96.574,437.739,94.156,437.433,91.835,436.872z"/>
<path style="fill:#FFC502;" d="M129.175,358.245H99.06c-16.998,0-30.905,13.907-30.905,30.905v18.928
	c0,16.998,13.907,30.905,30.905,30.905h30.114v-80.738H129.175z"/>
<path style="fill:#B2762F;" d="M412.94,437.739h-30.114V512h27.038c5.666,0,10.302-4.636,10.302-10.302v-64.827
	C417.844,437.433,415.427,437.739,412.94,437.739z"/>
<path style="fill:#FFC502;" d="M412.94,358.245h-30.114v80.739h30.114c16.998,0,30.905-13.908,30.905-30.905V389.15
	C443.845,372.152,429.938,358.245,412.94,358.245z"/>
<path style="opacity:0.15;fill:#440075;enable-background:new    ;" d="M106.624,501.698v-63.959H99.06
	c-2.487,0-4.905-0.306-7.225-0.867v64.827c0,5.666,4.636,10.302,10.302,10.302h14.789C111.26,512,106.624,507.364,106.624,501.698z"
	/>
<g>
	<path style="fill:#368C0E;" d="M99.06,358.245c-14.468,0-26.69,10.078-30.01,23.558H87c5.019,0,9.09,4.07,9.09,9.09v14.543
		c0,5.021-4.07,9.09-9.09,9.09H68.842c2.987,13.929,15.431,24.457,30.219,24.457h30.114v-80.739L99.06,358.245L99.06,358.245z"/>
	<path style="fill:#368C0E;" d="M424.998,414.527c-5.018,0-9.089-4.07-9.089-9.09v-14.543c0-5.021,4.071-9.09,9.089-9.09h17.951
		c-3.32-13.48-15.542-23.558-30.01-23.558h-30.114v80.739h30.114c14.788,0,27.231-10.528,30.219-24.457L424.998,414.527
		L424.998,414.527z"/>
</g>
<path style="fill:#E6E9ED;" d="M310.938,358.245l-50.693,34.878c-2.334,1.605-6.152,1.605-8.486,0l-50.693-34.878h-72.889V512
	h255.65V358.245H310.938z"/>
<path style="fill:#FFC502;" d="M310.938,358.245l-50.693,34.878c-2.334,1.605-6.152,1.605-8.486,0l-50.693-34.878h-42.19
	l1.789,10.634c0.47,2.794,2.774,6.378,5.121,7.966l86.067,58.245c2.346,1.588,6.184,1.588,8.53,0l86.067-58.245
	c2.347-1.588,4.617-5.178,5.048-7.978l1.629-10.623L310.938,358.245L310.938,358.245z"/>
<g style="opacity:0.15;">
	<rect x="128.18" y="358.25" style="fill:#440075;" width="30.823" height="153.75"/>
</g>
<path style="fill:#B2762F;" d="M292.935,326.644c-11.475,4.41-23.926,6.834-36.934,6.834c-13.009,0-25.461-2.424-36.937-6.834
	v31.602h-20.389l53.081,36.521c2.334,1.605,6.152,1.605,8.486,0l53.081-36.521h-20.39v-31.602H292.935z"/>
<path style="fill:#D19546;" d="M151.99,164.495c-0.17,2.354-0.263,65.707-0.263,65.707c0,57.59,46.686,104.275,104.274,104.275
	c57.589,0,104.272-46.686,104.272-104.275c0,0-0.093-63.353-0.263-65.707H151.99z"/>
<path style="opacity:0.15;fill:#440075;enable-background:new    ;" d="M219.064,326.643v31.602h-20.389l35.178,24.203v-51.369
	C228.775,329.965,223.835,328.477,219.064,326.643z"/>
<g style="opacity:0.15;">
	<path style="fill:#440075;" d="M175.195,230.202v-58.46c0-2.48,0.088-4.895,0.258-7.247H151.99
		c-0.17,2.354-0.263,4.767-0.263,7.247v58.46c0,57.59,46.686,104.275,104.274,104.275c3.968,0,7.881-0.23,11.734-0.662
		C215.672,327.984,175.195,283.824,175.195,230.202z"/>
</g>
<g>
	<rect x="116.58" y="182.55" style="fill:#312F56;" width="278.83" height="15"/>
	<path style="fill:#312F56;" d="M369.44,270.134h-51.194l1.903-5.354H191.928l2.01,5.354h-51.379l7.603,15h49.408l9.586,25.531
		h94.68l9.077-25.531h48.925L369.44,270.134z M288.272,309.665h-63.47l-9.21-24.531h81.401L288.272,309.665z M302.327,270.134
		h-92.366l-1.635-4.354h95.549L302.327,270.134z"/>
</g>
<g>
	<path style="fill:#368C0E;" d="M119.098,142.505h95.181V6.477c-55.265,17.65-95.288,69.413-95.288,130.531v5.502
		C119.026,142.51,119.061,142.505,119.098,142.505z"/>
	<path style="fill:#368C0E;" d="M392.902,142.505c0.036,0,0.071,0.005,0.107,0.006v-5.502c0-61.118-40.022-112.881-95.287-130.531
		v136.027L392.902,142.505L392.902,142.505z"/>
</g>
<path style="opacity:0.15;fill:#440075;enable-background:new    ;" d="M119.098,142.505h23.583v-5.496
	c0-51.976,28.949-97.18,71.598-120.396V6.477c-55.265,17.65-95.288,69.413-95.288,130.531v5.502
	C119.026,142.51,119.061,142.505,119.098,142.505z"/>
<path style="fill:#FFC502;" d="M297.723,142.505V6.477C284.566,2.277,270.549,0,256,0c-14.549,0-28.566,2.277-41.722,6.477v136.027
	h83.445V142.505z"/>
<path style="fill:#C5CCD3;" d="M403.204,155.221c0,5.666-4.636,10.302-10.302,10.302H119.098c-5.666,0-10.302-4.636-10.302-10.302
	v-3.891c0-5.666,4.636-10.302,10.302-10.302h273.805c5.666,0,10.302,4.636,10.302,10.302L403.204,155.221L403.204,155.221z"/>
<g style="opacity:0.15;">
	<path style="fill:#440075;" d="M138.783,155.221v-3.891c0-5.666,4.636-10.302,10.302-10.302h-29.987
		c-5.666,0-10.302,4.636-10.302,10.302v3.891c0,5.666,4.636,10.302,10.302,10.302h29.987
		C143.419,165.523,138.783,160.887,138.783,155.221z"/>
</g>
<path style="fill:#B2762F;" d="M256,213.428c-4.142,0-7.5,3.358-7.5,7.5v31.188h15v-31.188
	C263.5,216.786,260.143,213.428,256,213.428z"/>
<g>
	<path style="fill:#775436;" d="M205.522,243.986c-11.791,0-21.385-9.617-21.385-21.438c0-11.82,9.593-21.437,21.385-21.437
		c11.79,0,21.382,9.617,21.382,21.437C226.904,234.37,217.312,243.986,205.522,243.986z"/>
	<path style="fill:#775436;" d="M306.425,243.933c-11.82,0-21.438-9.593-21.438-21.384s9.617-21.383,21.438-21.383
		s21.438,9.592,21.438,21.383C327.862,234.34,318.245,243.933,306.425,243.933z"/>
</g>
<path style="fill:#368C0E;" d="M319.356,474.398c0,5.689-4.613,10.302-10.302,10.302H202.946c-5.69,0-10.302-4.612-10.302-10.302
	v-5.15c0-5.689,4.611-10.302,10.302-10.302h106.108c5.688,0,10.302,4.612,10.302,10.302L319.356,474.398L319.356,474.398z"/>
<g style="opacity:0.15;">
	<path style="fill:#440075;" d="M223.034,474.398v-5.15c0-5.689,4.612-10.302,10.302-10.302h-30.39
		c-5.69,0-10.302,4.612-10.302,10.302v5.15c0,5.689,4.611,10.302,10.302,10.302h30.39
		C227.646,484.7,223.034,480.088,223.034,474.398z"/>
</g>
<path style="fill:#135693;" d="M391.613,158.645H120.387c-9.816,0-17.802,7.986-17.802,17.802v71.531
	c0,9.816,7.986,17.802,17.802,17.802h4.27l25.435,50.181c2.557,5.043,8.516,8.704,14.17,8.704H347.74
	c5.654,0,11.613-3.66,14.17-8.704l25.435-50.181h4.271c9.816,0,17.803-7.986,17.803-17.802v-71.531
	C409.416,166.631,401.43,158.645,391.613,158.645z M348.582,309.074c-0.196,0.222-0.675,0.516-0.961,0.59H164.379
	c-0.287-0.075-0.765-0.368-0.961-0.59l-21.944-43.294h229.053L348.582,309.074z M394.416,247.978c0,1.519-1.283,2.802-2.803,2.802
	H120.387c-1.519,0-2.802-1.283-2.802-2.802v-71.531c0-1.519,1.283-2.802,2.802-2.802h271.227c1.52,0,2.803,1.283,2.803,2.802v71.531
	H394.416z"/>
<g>
	<path style="fill:#F7931E;" d="M188.612,100.504c0,2.833-2.318,5.151-5.151,5.151h-20.605c-2.833,0-3.828-1.903-2.211-4.229
		l25.026-35.999c1.617-2.326,2.94-1.912,2.94,0.921L188.612,100.504L188.612,100.504z"/>
	<path style="fill:#F7931E;" d="M323.389,100.504c0,2.833,2.317,5.151,5.15,5.151h20.604c2.833,0,3.828-1.903,2.21-4.229
		l-25.025-35.999c-1.617-2.326-2.939-1.912-2.939,0.921V100.504z"/>
</g>
<path style="fill:#B2762F;" d="M277.241,303.677h-41.382c-4.142,0-7.5-3.358-7.5-7.5s3.358-7.5,7.5-7.5h41.382
	c4.143,0,7.5,3.358,7.5,7.5S281.384,303.677,277.241,303.677z"/>
<g>
</g>
<g>
</g>
<g>
</g>
<g>
</g>
<g>
</g>
<g>
</g>
<g>
</g>
<g>
</g>
<g>
</g>
<g>
</g>
<g>
</g>
<g>
</g>
<g>
</g>
<g>
</g>
<g>
</g>
</svg>
