<?xml version="1.0" encoding="iso-8859-1"?>
<!-- Generator: Adobe Illustrator 19.0.0, SVG Export Plug-In . SVG Version: 6.00 Build 0)  -->
<svg version="1.1" id="Capa_1" xmlns="http://www.w3.org/2000/svg" xmlns:xlink="http://www.w3.org/1999/xlink" x="0px" y="0px"
	 viewBox="0 0 512 512" style="enable-background:new 0 0 512 512;" xml:space="preserve">
<path style="fill:#F2F2F2;" d="M65,447.734c-35.842,0-65-29.159-65-65.001c0-20.399,9.297-39.218,25.508-51.632
	c6.578-5.034,15.993-3.788,21.029,2.789c5.037,6.577,3.788,15.992-2.789,21.029C35.011,361.61,30,371.748,30,382.733
	c0,19.3,15.701,35.001,35,35.001c13.494,0,25.934-7.895,31.689-20.111c3.531-7.494,12.469-10.707,19.962-7.177
	c7.495,3.53,10.708,12.468,7.177,19.962C113.146,433.083,90.055,447.734,65,447.734z"/>
<path style="fill:#D9D9D9;" d="M447,447.734c-25.059,0-48.151-14.654-58.83-37.333c-3.529-7.495-0.314-16.432,7.18-19.961
	c7.496-3.53,16.433-0.315,19.961,7.18c5.754,12.219,18.192,20.114,31.69,20.114c19.299,0,35-15.701,35-35.001
	c0-10.984-5.011-21.122-13.748-27.813c-6.577-5.037-7.826-14.452-2.789-21.029c5.038-6.576,14.451-7.826,21.029-2.789
	C502.702,343.517,512,362.335,512,382.733C512,418.575,482.841,447.734,447,447.734z"/>
<path style="fill:#DE8447;" d="M448.8,241h-32.133c-8.284,0-15,6.716-15,15c0,8.242,6.649,14.927,14.876,14.994l-0.548,66.406
	h-0.124c-8.284,0-15,6.716-15,15s6.716,15,15,15H448.8c34.849,0,63.2-28.351,63.2-63.199C512,269.352,483.648,241,448.8,241z"/>
<path style="fill:#FCA971;" d="M96.132,337.4h-0.124l-0.551-66.406c8.227-0.068,14.876-6.752,14.876-14.994c0-8.284-6.716-15-15-15
	H63.2C28.352,241,0,269.352,0,304.201S28.352,367.4,63.2,367.4h32.932c8.284,0,15-6.716,15-15S104.416,337.4,96.132,337.4z"/>
<path style="fill:#FCBA95;" d="M426.672,196.626c-21.359-19.119-45.555-34.407-71.914-45.44c-4.78-2.004-10.256-1.393-14.48,1.609
	c-24.707,17.559-53.85,26.839-84.277,26.839c-30.426,0-59.568-9.28-84.277-26.839c-4.225-3.002-9.699-3.611-14.479-1.609
	c-26.36,11.032-50.556,26.32-71.915,45.44c-3.178,2.846-4.995,6.91-4.995,11.177v128.531C80.333,433.196,159.137,512,256,512
	s175.667-78.804,175.667-175.666V207.803C431.667,203.536,429.851,199.472,426.672,196.626z"/>
<path style="fill:#FCA971;" d="M426.672,196.626c-21.359-19.119-45.555-34.407-71.914-45.44c-4.78-2.004-10.256-1.393-14.48,1.609
	c-24.707,17.559-53.85,26.839-84.277,26.839V512c96.863,0,175.667-78.804,175.667-175.666V207.803
	C431.667,203.536,429.851,199.472,426.672,196.626z"/>
<g>
	<path style="fill:#0F0301;" d="M186.174,66.341C173.519,26.66,137.012,0,95.333,0C42.766,0,0,42.767,0,95.333
		s42.766,95.333,95.333,95.333c1.308,0,2.597-0.025,3.829-0.074c8.277-0.333,14.719-7.313,14.387-15.59
		c-0.195-4.867-2.693-9.076-6.396-11.668l56.136-80.161c3.702,2.59,8.519,3.497,13.153,2.017
		C184.334,82.672,188.691,74.232,186.174,66.341z"/>
	<path style="fill:#0F0301;" d="M416.667,0c-41.678,0-78.183,26.66-90.839,66.339c-2.518,7.893,1.84,16.332,9.732,18.85
		c4.636,1.479,9.451,0.573,13.152-2.016l56.134,80.169c-3.7,2.593-6.208,6.799-6.403,11.662c-0.331,8.277,6.11,15.256,14.389,15.588
		c1.234,0.049,2.524,0.074,3.835,0.074c52.566,0,95.333-42.767,95.333-95.333S469.233,0,416.667,0z"/>
</g>
<path style="fill:#FD413C;" d="M256,415.602c-22.484,0-43.455-12.099-54.728-31.574c-4.149-7.17-1.702-16.346,5.468-20.496
	s16.348-1.7,20.497,5.469c5.927,10.24,16.948,16.602,28.763,16.602c11.814,0,22.838-6.365,28.769-16.611
	c4.149-7.17,13.325-9.62,20.496-5.469c7.171,4.149,9.618,13.326,5.469,20.496C299.458,403.499,278.485,415.602,256,415.602z"/>
<path style="fill:#3B211A;" d="M191.736,295.107c-3.951,0-7.82-1.601-10.61-4.391c-2.79-2.8-4.39-6.659-4.39-10.609
	s1.6-7.81,4.39-10.61c2.79-2.79,6.659-4.39,10.61-4.39c3.949,0,7.81,1.6,10.6,4.39c2.8,2.8,4.4,6.66,4.4,10.61
	s-1.601,7.81-4.4,10.609C199.546,293.507,195.685,295.107,191.736,295.107z"/>
<path style="fill:#0F0301;" d="M320.266,295.107c-3.949,0-7.811-1.601-10.609-4.391c-2.791-2.8-4.391-6.659-4.391-10.609
	s1.6-7.81,4.391-10.61c2.799-2.79,6.66-4.39,10.609-4.39c3.95,0,7.82,1.6,10.61,4.39c2.79,2.79,4.39,6.66,4.39,10.61
	s-1.6,7.81-4.39,10.609C328.086,293.507,324.216,295.107,320.266,295.107z"/>
<path style="fill:#3B211A;" d="M256,32.133c-96.863,0-175.667,78.804-175.667,175.67c0,5.916,3.477,11.28,8.879,13.694
	c1.964,0.878,4.048,1.306,6.118,1.306c3.623,0,7.202-1.313,10.008-3.823c16.864-15.097,35.726-27.485,56.163-36.9
	c28.216,18.055,60.705,27.556,94.499,27.556c33.795,0,66.285-9.501,94.5-27.556c20.438,9.415,39.299,21.804,56.162,36.9
	c4.408,3.946,10.726,4.931,16.126,2.516c5.401-2.414,8.879-7.779,8.879-13.695C431.667,110.937,352.863,32.133,256,32.133z"/>
<path style="fill:#DA0806;" d="M305.265,363.522c-7.171-4.15-16.347-1.701-20.497,5.469c-5.929,10.243-16.951,16.607-28.766,16.607
	v30c22.485-0.001,43.457-12.102,54.73-31.58C314.882,376.848,312.435,367.672,305.265,363.522z"/>
<path style="fill:#0F0301;" d="M256,32.133v177.502c33.795,0,66.285-9.501,94.5-27.556c20.438,9.415,39.299,21.804,56.162,36.9
	c4.408,3.946,10.726,4.931,16.126,2.516c5.401-2.414,8.879-7.779,8.879-13.695C431.667,110.937,352.863,32.133,256,32.133z"/>
<g>
</g>
<g>
</g>
<g>
</g>
<g>
</g>
<g>
</g>
<g>
</g>
<g>
</g>
<g>
</g>
<g>
</g>
<g>
</g>
<g>
</g>
<g>
</g>
<g>
</g>
<g>
</g>
<g>
</g>
</svg>
