<?xml version="1.0" encoding="iso-8859-1"?>
<!-- Generator: Adobe Illustrator 19.0.0, SVG Export Plug-In . SVG Version: 6.00 Build 0)  -->
<svg version="1.1" id="Capa_1" xmlns="http://www.w3.org/2000/svg" xmlns:xlink="http://www.w3.org/1999/xlink" x="0px" y="0px"
	 viewBox="0 0 512 512" style="enable-background:new 0 0 512 512;" xml:space="preserve">
<path style="fill:#8F5240;" d="M96.131,321.333h-0.124l-0.55-66.404c8.227-0.068,14.876-6.752,14.876-14.994c0-8.284-6.716-15-15-15
	H63.2c-34.849,0-63.2,28.352-63.2,63.2s28.352,63.198,63.2,63.198h32.931c8.284,0,15-6.716,15-15S104.415,321.333,96.131,321.333z"
	/>
<path style="fill:#FCA953;" d="M470.757,322.09c-2.677-1.849-5.886-2.783-9.134-2.643l-46.365,1.898
	c-5.189,0.212-9.898,3.093-12.45,7.615l-63.47,112.479c-2.928,5.189-2.508,11.619,1.071,16.383
	c18.199,24.221,45.994,38.112,76.257,38.112c52.567,0,95.334-42.767,95.334-95.335C511.998,369.262,496.58,339.912,470.757,322.09z"
	/>
<g>
	<path style="fill:#A46343;" d="M448.8,224.935h-32.133c-8.284,0-15,6.716-15,15c0,8.242,6.649,14.927,14.876,14.994l-0.548,66.404
		h-0.124c-8.284,0-15,6.716-15,15s6.716,15,15,15H448.8c34.849,0,63.2-28.351,63.2-63.198
		C512,253.286,483.648,224.935,448.8,224.935z"/>
	<path style="fill:#A46343;" d="M422.931,178.105L221.516,85.528c-5.069-2.33-11.014-1.653-15.431,1.756L86.167,179.861
		c-3.68,2.84-5.834,7.226-5.834,11.873v128.533c0,96.862,78.804,175.666,175.667,175.666c96.862,0,175.666-78.804,175.666-175.666
		V191.734C431.666,185.876,428.254,180.553,422.931,178.105z"/>
</g>
<path style="fill:#8F5240;" d="M422.931,178.105l-166.928-76.727v394.555c96.861-0.002,175.663-78.805,175.663-175.666V191.734
	C431.666,185.876,428.254,180.553,422.931,178.105z"/>
<path style="fill:#FCC892;" d="M256,16.067c-11.998,0-23.999,1.222-35.667,3.631c-12.96,2.674-25.646,6.844-37.706,12.394
	c-30.097,13.854-55.608,35.871-73.775,63.669c-18.657,28.547-28.519,61.734-28.519,95.975v12.85c0,4.501,2.021,8.765,5.507,11.613
	c3.484,2.85,8.067,3.982,12.477,3.087c51.805-10.515,95.957-44.156,120.313-90.247c48.417,59.149,120.657,93.764,198.037,93.764
	c8.284,0,15-6.716,15-15v-16.066C431.666,94.872,352.862,16.067,256,16.067z"/>
<path style="fill:#FD413C;" d="M256,399.536c-22.483,0-43.453-12.098-54.727-31.573c-4.15-7.17-1.703-16.346,5.467-20.496
	c7.166-4.151,16.347-1.704,20.496,5.467c5.929,10.241,16.95,16.603,28.764,16.603c11.815,0,22.839-6.365,28.769-16.611
	c4.15-7.171,13.328-9.614,20.496-5.469c7.17,4.149,9.618,13.326,5.469,20.496C299.459,387.434,278.486,399.536,256,399.536z"/>
<path style="fill:#3B211A;" d="M191.735,279.038c-3.949,0-7.819-1.6-10.609-4.39s-4.391-6.66-4.391-10.601
	c0-3.949,1.601-7.819,4.391-10.609c2.79-2.79,6.66-4.391,10.609-4.391c3.95,0,7.811,1.601,10.601,4.391
	c2.8,2.79,4.399,6.66,4.399,10.609c0,3.94-1.6,7.81-4.399,10.601C199.546,277.439,195.686,279.038,191.735,279.038z"/>
<path style="fill:#0F0301;" d="M320.266,279.038c-3.95,0-7.82-1.6-10.61-4.39c-2.789-2.79-4.39-6.65-4.39-10.601
	c0-3.96,1.601-7.819,4.39-10.609c2.79-2.79,6.66-4.391,10.61-4.391s7.811,1.601,10.61,4.391c2.79,2.79,4.39,6.66,4.39,10.609
	c0,3.94-1.6,7.81-4.39,10.601C328.076,277.439,324.216,279.038,320.266,279.038z"/>
<path style="fill:#DA0806;" d="M305.265,347.456c-7.171-4.15-16.347-1.701-20.497,5.469c-5.928,10.243-16.95,16.607-28.765,16.608
	v30c22.485-0.001,43.456-12.102,54.729-31.58C314.883,360.782,312.435,351.606,305.265,347.456z"/>
<path style="fill:#FCA953;" d="M256.003,16.067v150.07c44.894,36.243,101.257,56.664,160.663,56.664c8.284,0,15-6.716,15-15v-16.066
	C431.666,94.873,352.864,16.069,256.003,16.067z"/>
<g>
</g>
<g>
</g>
<g>
</g>
<g>
</g>
<g>
</g>
<g>
</g>
<g>
</g>
<g>
</g>
<g>
</g>
<g>
</g>
<g>
</g>
<g>
</g>
<g>
</g>
<g>
</g>
<g>
</g>
</svg>
