<?xml version="1.0" encoding="iso-8859-1"?>
<!-- Generator: Adobe Illustrator 19.0.0, SVG Export Plug-In . SVG Version: 6.00 Build 0)  -->
<svg version="1.1" id="Capa_1" xmlns="http://www.w3.org/2000/svg" xmlns:xlink="http://www.w3.org/1999/xlink" x="0px" y="0px"
	 viewBox="0 0 496.634 496.634" style="enable-background:new 0 0 496.634 496.634;" xml:space="preserve">
<g transform="matrix(1.25 0 0 -1.25 0 45)">
	<g>
		<g>
			<path style="fill:#60352A;" d="M173.317,36c-14.382,0-27.705-4.471-38.707-12.072c-2.23,0.341-4.471,0.694-6.793,0.694
				c-25.134,0-45.511-20.378-45.511-45.511v-68.267c0-43.986,35.647-79.644,79.644-79.644c43.986,0,79.644,35.658,79.644,79.644
				v56.878C241.595,5.439,211.023,36,173.317,36"/>
			<path style="fill:#AF7E57;" d="M317.098-176.036c-3.47,6.963-11.605,9.603-18.079,5.86l-35.283-20.355l-24.007,48.117
				c-3.937,10.57-13.517,18.057-24.758,18.057h-26.692h-53.407h-27.876c-11.548,0-16.543-6.77-18.842-10.661l-71.35-120.889
				c-3.948-6.702-2.094-15.565,4.13-19.809c1.98-1.365,4.176-2.071,6.36-2.207c4.688-0.296,9.375,2.082,12.06,6.656l63.022,106.963
				l5.803-3.129l13.346-57.435l-13.346-57.424h106.792l-13.346,57.424l13.346,57.435l5.473,2.947l26.078-52.281
				c3.47-6.952,11.605-9.591,18.068-5.86l47.058,27.147C318.111-191.749,320.569-182.999,317.098-176.036"/>
			<path style="fill:#E75A70;" d="M161.587-167.435c0,0-13.346,14.359-26.704,14.359c-13.346,0-26.692-14.359-26.692-14.359
				l10.012-43.076h86.767l10.012,43.076c0,0-13.346,14.359-26.692,14.359C174.933-153.076,161.587-167.435,161.587-167.435"/>
			<path style="fill:#AF7E57;" d="M139.184-77.778v-45.511c0-12.561,10.194-22.756,22.756-22.756
				c12.572,0,22.756,10.194,22.756,22.756v45.511H139.184z"/>
			<path style="fill:#9B6A49;" d="M184.695-77.778l-45.511-0.216v-45.295c0,0,22.756-11.378,45.511,0V-77.778z"/>
			<path style="fill:#AF7E57;" d="M218.829,1.298H105.051v-67.959l0,0c0-31.289,25.463-56.627,56.878-56.627
				c31.425,0,56.9,25.338,56.9,56.627l0,0V1.298z"/>
			<g transform="translate(14 33)">
				<path style="fill:#60352A;" d="M125.184-31.133c0,0,0-45.511,91.022-45.511v45.511H125.184z"/>
				<path style="fill:#60352A;" d="M125.184-31.133c0,0,0-45.511-45.511-45.511v45.511H125.184z"/>
			</g>
			<path style="fill:#DF1F32;" d="M184.695-100.533H161.94h-22.756c0,0,0-11.378,22.756-11.378S184.695-100.533,184.695-100.533"/>
			<path id="SVGCleanerId_0" style="fill:#662113;" d="M139.184-60.711c0-3.14-2.549-5.689-5.689-5.689
				c-3.14,0-5.689,2.549-5.689,5.689s2.549,5.689,5.689,5.689C136.635-55.022,139.184-57.571,139.184-60.711"/>
			<g transform="translate(5)">
				<path id="SVGCleanerId_0_1_" style="fill:#662113;" d="M196.073-60.711c0-3.14-2.549-5.689-5.689-5.689
					c-3.14,0-5.689,2.549-5.689,5.689s2.549,5.689,5.689,5.689C193.524-55.022,196.073-57.571,196.073-60.711"/>
			</g>
			<path style="fill:#915A34;" d="M150.562-77.778h11.378h11.378c0,0-0.011-11.378-11.378-11.378
				C150.562-89.156,150.562-77.778,150.562-77.778"/>
			<path style="fill:#5D9040;" d="M309.965-292.112c25.646,22.528,15.633,67.903,15.633,67.903
				c-8.545-7.509-16.043-30.299-41.688-52.816c-9.136-8.033-13.653-18.546-14.859-27.921c-9.569-2.617-24.394-6.019-38.889-6.679
				c-8.033-0.375-16.338,0.512-24.701,2.219c8.044,6.258,13.323,15.918,13.323,26.829v11.378c0,12.516-10.24,22.756-22.756,22.756
				h-102.4c-13.665,0-25.441-8.181-30.879-19.854c-0.011,0-0.091-0.034-0.091-0.034c-0.046-0.114-0.068-0.239-0.114-0.353
				c-0.489-1.081-0.831-2.219-1.206-3.368c-0.284-0.865-0.569-1.729-0.819-2.617c-0.125-0.558-0.284-1.104-0.387-1.684
				c-6.474-27.318,8.374-62.35,44.874-74.49c22.528-7.487,69.12-14.689,109.932-7.487c28.57,5.04,52.452,17.692,67.402,27.341
				c7.236-2.81,17.067-2.617,31.118,2.423c25.85,9.284,26.806,37.82,69.12,55.808C353.564-263.247,309.965-292.112,309.965-292.112"
				/>
			<path style="fill:#292F33;" d="M201.159-308.394c-0.262,0-0.558,0.023-0.831,0.08c-25.486,5.074-77.221,28.979-79.406,30.003
				c-2.139,0.978-3.072,3.516-2.082,5.655c0.99,2.15,3.55,3.083,5.666,2.071c0.535-0.239,52.986-24.485,77.483-29.355
				c2.31-0.466,3.812-2.708,3.356-5.018C204.936-306.995,203.161-308.394,201.159-308.394"/>
		</g>
	</g>
</g>
<g>
</g>
<g>
</g>
<g>
</g>
<g>
</g>
<g>
</g>
<g>
</g>
<g>
</g>
<g>
</g>
<g>
</g>
<g>
</g>
<g>
</g>
<g>
</g>
<g>
</g>
<g>
</g>
<g>
</g>
</svg>
