<?xml version="1.0" encoding="iso-8859-1"?>
<!-- Generator: Adobe Illustrator 19.0.0, SVG Export Plug-In . SVG Version: 6.00 Build 0)  -->
<svg version="1.1" id="Capa_1" xmlns="http://www.w3.org/2000/svg" xmlns:xlink="http://www.w3.org/1999/xlink" x="0px" y="0px"
	 viewBox="0 0 512 512" style="enable-background:new 0 0 512 512;" xml:space="preserve">
<path style="fill:#FDB8A4;" d="M448.801,241h-32.134c-8.284,0-15,6.716-15,15c0,8.242,6.649,14.927,14.876,14.994l-0.548,66.406
	h-0.124c-8.284,0-15,6.716-15,15s6.716,15,15,15h32.93c34.849,0,63.199-28.351,63.199-63.199C512,269.352,483.649,241,448.801,241z"
	/>
<path style="fill:#FDCDBF;" d="M96.131,337.4h-0.124l-0.549-66.406c8.227-0.068,14.876-6.752,14.876-14.994c0-8.284-6.716-15-15-15
	H63.2C28.352,241,0,269.352,0,304.201S28.352,367.4,63.2,367.4h32.931c8.284,0,15-6.716,15-15S104.415,337.4,96.131,337.4z"/>
<path style="fill:#FEDFD5;" d="M410.454,156.19c-3.954-7.279-13.061-9.975-20.341-6.02c-4.858,2.639-7.659,7.574-7.82,12.729
	l-247.707-7.467c0.15-5.154-2.349-10.25-7.038-13.177c-7.03-4.389-16.282-2.243-20.667,4.782
	c-17.367,27.826-26.547,59.949-26.547,92.896v96.4C80.334,433.196,159.138,512,256,512c96.863,0,175.667-78.804,175.667-175.666
	v-96.4C431.667,210.695,424.332,181.737,410.454,156.19z"/>
<g>
	<path style="fill:#FDCDBF;" d="M410.454,156.19c-3.954-7.279-13.061-9.975-20.341-6.02c-4.858,2.639-7.659,7.574-7.82,12.729
		L256,159.092V512c96.863,0,175.667-78.804,175.667-175.666v-96.4C431.667,210.695,424.332,181.737,410.454,156.19z"/>
	<path style="fill:#FDCDBF;" d="M256,415.601c-22.485,0-43.456-12.099-54.728-31.573c-4.149-7.17-1.701-16.347,5.469-20.496
		c7.169-4.15,16.347-1.701,20.496,5.469c5.927,10.239,16.947,16.601,28.763,16.601c11.815,0,22.84-6.364,28.769-16.609
		c4.151-7.169,13.329-9.615,20.497-5.468c7.17,4.15,9.617,13.327,5.468,20.497C299.458,403.5,278.485,415.601,256,415.601z"/>
</g>
<path style="fill:#3B211A;" d="M191.735,295.107c-3.949,0-7.819-1.601-10.609-4.391c-2.79-2.789-4.391-6.659-4.391-10.609
	s1.6-7.81,4.391-10.61c2.79-2.79,6.66-4.39,10.609-4.39c3.95,0,7.811,1.6,10.6,4.39c2.8,2.79,4.4,6.66,4.4,10.61
	s-1.6,7.82-4.4,10.609C199.546,293.507,195.676,295.107,191.735,295.107z"/>
<path style="fill:#0F0301;" d="M320.266,295.107c-3.939,0-7.81-1.601-10.61-4.391c-2.789-2.789-4.39-6.659-4.39-10.609
	s1.601-7.81,4.39-10.61c2.801-2.79,6.66-4.39,10.61-4.39s7.811,1.6,10.61,4.39c2.79,2.8,4.39,6.66,4.39,10.61s-1.6,7.82-4.39,10.609
	C328.076,293.507,324.206,295.107,320.266,295.107z"/>
<path style="fill:#FD413C;" d="M352.4,0c-23.3,0-45.484,8.449-62.743,23.565c-14.506-10.094-31.714-15.53-49.724-15.53
	c-20.188,0-39.659,7.033-55.134,19.632c-12.354-7.543-26.609-11.599-41.267-11.599c-43.708,0-79.267,35.559-79.267,79.267
	s35.559,79.267,79.267,79.267c14.658,0,28.912-4.055,41.267-11.599c15.475,12.6,34.945,19.632,55.134,19.632
	c18.01,0,35.219-5.437,49.722-15.528c17.26,15.113,39.443,23.562,62.745,23.562c52.566,0,95.333-42.767,95.333-95.333
	C447.733,42.767,404.967,0,352.4,0z"/>
<path style="fill:#FDB8A4;" d="M305.267,363.523c-7.17-4.15-16.347-1.701-20.496,5.469c-5.93,10.243-16.951,16.606-28.766,16.607v30
	c22.484-0.001,43.456-12.102,54.731-31.58C314.885,376.85,312.436,367.674,305.267,363.523z"/>
<path style="fill:#DA0806;" d="M352.4,0c-23.3,0-45.484,8.449-62.743,23.565C279.539,16.523,268.103,11.757,256,9.513v171.643
	c12.103-2.244,23.539-7.011,33.655-14.05c17.26,15.113,39.443,23.562,62.745,23.562c52.566,0,95.333-42.767,95.333-95.333
	C447.733,42.767,404.967,0,352.4,0z"/>
<g>
</g>
<g>
</g>
<g>
</g>
<g>
</g>
<g>
</g>
<g>
</g>
<g>
</g>
<g>
</g>
<g>
</g>
<g>
</g>
<g>
</g>
<g>
</g>
<g>
</g>
<g>
</g>
<g>
</g>
</svg>
