<?xml version="1.0" encoding="iso-8859-1"?>
<!-- Generator: Adobe Illustrator 19.0.0, SVG Export Plug-In . SVG Version: 6.00 Build 0)  -->
<svg version="1.1" id="Capa_1" xmlns="http://www.w3.org/2000/svg" xmlns:xlink="http://www.w3.org/1999/xlink" x="0px" y="0px"
	 viewBox="0 0 512 512" style="enable-background:new 0 0 512 512;" xml:space="preserve">
<g>
	<path style="fill:#C0272D;" d="M362.108,358.245h-12.362V512h40.178c2.845,0,5.15-2.306,5.15-5.151V391.211
		C395.074,373.033,380.285,358.245,362.108,358.245z"/>
	<path style="fill:#C0272D;" d="M149.891,358.245c-18.178,0-32.966,14.788-32.966,32.966v115.638c0,2.845,2.306,5.151,5.151,5.151
		h40.177V358.245H149.891z"/>
	<path style="fill:#C0272D;" d="M289.876,401.588c-0.692,0.734-1.575,1.138-2.486,1.138c-1.028,0-1.977-0.496-2.67-1.398
		l-24.786-32.214c-1.029-1.337-2.427-2.074-3.934-2.074c-1.508,0-2.904,0.736-3.933,2.074l-24.785,32.214
		c-0.693,0.902-1.642,1.398-2.67,1.398c-0.911,0-1.794-0.404-2.487-1.138l-29.604-31.357V512h126.958V370.231L289.876,401.588z"/>
</g>
<path style="opacity:0.15;fill:#440075;enable-background:new    ;" d="M162.253,363.972v-5.727h-12.362
	c-18.178,0-32.966,14.788-32.966,32.966v115.638c0,2.845,2.306,5.151,5.151,5.151h30.905c-2.845,0-5.151-2.306-5.151-5.151V391.211
	C147.831,379.905,153.554,369.912,162.253,363.972z"/>
<path style="fill:#960B15;" d="M259.933,369.114c-1.029-1.337-2.427-2.074-3.934-2.074c-1.508,0-2.904,0.736-3.933,2.074
	l-3.567,4.636V512h15V373.749L259.933,369.114z"/>
<g>
	<path style="fill:#C5CCD3;" d="M187.023,364.408c-1.402-1.485-1.968-4.081-1.474-6.163h-23.296V512h30.267V370.231L187.023,364.408
		z"/>
	<path style="fill:#C5CCD3;" d="M326.45,358.245c0.494,2.082-0.071,4.677-1.475,6.163l-5.497,5.823V512h30.268V358.245H326.45z"/>
</g>
<g>
	<path style="fill:#FFC502;" d="M158.844,471.167c0,1.7,1.391,3.09,3.09,3.09h30.906c1.7,0,3.091-1.391,3.091-3.09v-35.915
		c0-1.7-1.391-3.09-3.091-3.09h-30.906c-1.7,0-3.09,1.391-3.09,3.09V471.167z"/>
	<path style="fill:#FFC502;" d="M316.069,471.167c0,1.7,1.391,3.09,3.091,3.09h30.905c1.7,0,3.091-1.391,3.091-3.09v-35.915
		c0-1.7-1.391-3.09-3.091-3.09H319.16c-1.7,0-3.091,1.391-3.091,3.09V471.167z"/>
</g>
<path style="fill:#EF5050;" d="M318.802,339.968C301.333,353.168,279.583,361,256,361c-23.582,0-45.333-7.832-62.801-21.033
	l-8.179,16.752c-1.243,2.546-0.669,6.314,1.276,8.374l35.101,37.18c1.945,2.06,4.95,1.909,6.677-0.337l24.785-32.214
	c1.727-2.245,4.554-2.245,6.281,0l24.786,32.214c1.727,2.246,4.732,2.397,6.677,0.337l35.1-37.18c1.945-2.06,2.52-5.829,1.277-8.374
	L318.802,339.968z"/>
<g>
	<path style="fill:#B2762F;" d="M141.361,235.846v-36.098c0-6.426,5.054-11.67,11.365-11.943v-3.917h-13.224
		c-13.453,0-24.359,10.907-24.359,24.359v26.477c0,13.453,10.906,24.358,24.359,24.358h15.813
		C147.033,254.714,141.361,245.941,141.361,235.846z"/>
	<path style="fill:#B2762F;" d="M372.498,183.889h-13.225v3.916c6.311,0.272,11.365,5.517,11.365,11.943v36.098
		c0,10.095-5.671,18.867-13.952,23.238h15.812c13.453,0,24.358-10.906,24.358-24.358v-26.477
		C396.856,194.796,385.951,183.889,372.498,183.889z"/>
</g>
<g>
	<path style="fill:#775436;" d="M141.361,213.425h-2.812c-4.142,0-7.5,3.358-7.5,7.5s3.358,7.5,7.5,7.5h2.812V213.425z"/>
	<path style="fill:#775436;" d="M373.451,213.425h-2.813v15h2.813c4.143,0,7.5-3.358,7.5-7.5S377.594,213.425,373.451,213.425z"/>
</g>
<g>
	<path style="fill:#D19546;" d="M153.238,187.78h87.114c6.549,0,11.876,5.369,11.876,11.969v14.755c0,0.552,0.448,1,1,1h5.543
		c0.553,0,1-0.448,1-1v-14.755c0-6.6,5.327-11.969,11.876-11.969h87.115c0.513,0,1.015,0.044,1.511,0.108V143.71H151.726v44.177
		C152.222,187.824,152.724,187.78,153.238,187.78z"/>
	<path style="fill:#D19546;" d="M344.781,262.037h-59.15c-14.26,0-25.86-11.749-25.86-26.19v-6.342c0-0.552-0.447-1-1-1h-5.543
		c-0.552,0-1,0.448-1,1v6.342c0,14.441-11.6,26.19-25.858,26.19h-59.15c-4.071,0-7.924-0.961-11.354-2.666
		c12.619,43.392,52.67,75.107,100.133,75.107c47.464,0,87.514-31.714,100.133-75.105
		C352.703,261.076,348.851,262.037,344.781,262.037z"/>
</g>
<path style="fill:#E6E9ED;" d="M356.126,259.375c-9.323,32.047-33.603,57.724-64.789,68.956
	c-1.132-7.127-7.288-12.581-14.733-12.581h-41.207c-7.446,0-13.601,5.453-14.734,12.581c-31.186-11.233-55.466-36.91-64.789-68.957
	c-1.465-0.727-2.854-1.589-4.147-2.573v1.033c0,57.589,46.686,104.274,104.273,104.274c57.59,0,104.273-46.685,104.273-104.274
	v-1.032C358.979,257.786,357.591,258.648,356.126,259.375z"/>
<g style="opacity:0.15;">
	<path style="fill:#440075;" d="M153.238,186.78h28.139v-43.07h-29.65v43.167C152.223,186.818,152.725,186.78,153.238,186.78z"/>
	<path style="fill:#440075;" d="M220.662,328.331c0.756-4.756,3.755-8.756,7.875-10.898c-19.472-12.773-34.419-31.875-41.885-54.396
		H167.22c-3.899,0-7.604-0.853-10.95-2.372C165.864,292.107,189.898,317.25,220.662,328.331z"/>
</g>
<g>
	<path style="fill:#E6E9ED;" d="M331.203,182.116c-1.919,0-3.839-0.732-5.303-2.196c-4.548-4.548-10.588-7.052-17.008-7.052
		s-12.459,2.504-17.005,7.051c-2.928,2.93-7.677,2.93-10.606,0.001c-2.93-2.929-2.93-7.677-0.001-10.606
		c7.38-7.381,17.186-11.445,27.612-11.445s20.232,4.064,27.613,11.444c2.93,2.929,2.93,7.678,0.001,10.607
		C335.042,181.383,333.122,182.116,331.203,182.116z"/>
	<path style="fill:#E6E9ED;" d="M221.296,182.116c-1.919,0-3.838-0.732-5.303-2.196c-4.548-4.548-10.588-7.052-17.008-7.052
		c-6.419,0-12.459,2.504-17.005,7.051c-2.93,2.929-7.677,2.929-10.607,0.001c-2.929-2.929-2.929-7.678-0.001-10.607
		c7.38-7.38,17.186-11.445,27.613-11.445c10.426,0,20.233,4.064,27.614,11.444c2.929,2.929,2.929,7.678,0.001,10.607
		C225.135,181.383,223.215,182.116,221.296,182.116z"/>
</g>
<path style="fill:#203A74;" d="M359.307,120.016L336.185,10.269C334.924,4.284,329.643,0,323.527,0h-46.372
	c-3.652,0-7.133,1.544-9.586,4.249l-11.568,12.764L244.43,4.248C241.979,1.543,238.496,0,234.844,0h-46.37
	c-6.117,0-11.398,4.284-12.66,10.269l-23.122,109.747H359.307z"/>
<polygon style="fill:#FFC502;" points="359.307,120.016 350.408,77.779 161.591,77.779 152.692,120.016 "/>
<g style="opacity:0.15;">
	<path style="fill:#030005;" d="M218.06,0h-29.585c-6.117,0-11.398,4.284-12.66,10.269l-23.122,109.747h29.585L205.4,10.269
		C206.661,4.284,211.943,0,218.06,0z"/>
</g>
<path style="fill:#203A74;" d="M412.588,140.62c0,2.833-2.318,5.151-5.151,5.151H104.563c-2.833,0-5.151-2.318-5.151-5.151v-17.513
	c0-2.833,2.318-5.151,5.151-5.151h302.873c2.833,0,5.151,2.318,5.151,5.151v17.513H412.588z"/>
<g style="opacity:0.15;">
	<path style="fill:#030005;" d="M130.318,140.62v-17.513c0-2.833,2.318-5.151,5.151-5.151h-30.905c-2.833,0-5.151,2.318-5.151,5.151
		v17.513c0,2.833,2.318,5.151,5.151,5.151h30.905C132.635,145.771,130.318,143.453,130.318,140.62z"/>
</g>
<path style="fill:#E6E9ED;" d="M321.699,278.787c-0.231-0.852-0.865-1.537-1.695-1.835l-33.844-12.153
	c-2.035,6.424-8.05,11.094-15.138,11.094H251.75c-8.363,0-15.22-6.504-15.818-14.717l-43.935,15.776
	c-0.831,0.298-1.464,0.983-1.695,1.835c-0.233,0.851-0.034,1.763,0.531,2.44c0.585,0.703,14.651,17.196,42.635,17.196
	c9.347,0,17.061-3.55,22.532-10.317c5.471,6.768,13.185,10.317,22.532,10.317c27.982,0,42.05-16.493,42.635-17.196
	C321.731,280.55,321.929,279.638,321.699,278.787z"/>
<path style="fill:#B2762F;" d="M285.632,262.037c-4.627,0-8.97-1.243-12.731-3.408v1.385c0,1.018-0.86,1.878-1.878,1.878H251.75
	c-1.018,0-1.877-0.86-1.877-1.878v-13.266c-2.918,6.427-8.328,11.458-14.972,13.817c0.294,9.05,7.73,16.327,16.85,16.327h19.272
	c8.621,0,15.741-6.501,16.745-14.856L285.632,262.037L285.632,262.037z"/>
<path style="fill:#E6E9ED;" d="M356.126,259.375c-9.323,32.047-33.603,57.724-64.789,68.956
	c-1.132-7.127-7.288-12.581-14.733-12.581h-41.207c-7.446,0-13.601,5.453-14.734,12.581c-31.186-11.233-55.466-36.91-64.789-68.957
	c-1.465-0.727-2.854-1.589-4.147-2.573v1.033c0,57.589,46.686,104.274,104.273,104.274c57.59,0,104.273-46.685,104.273-104.274
	v-1.032C358.979,257.786,357.591,258.648,356.126,259.375z"/>
<path style="fill:#98E8F9;" d="M167.22,255.536c-10.676,0-19.359-8.833-19.359-19.69v-36.098c0-3.02,2.408-5.469,5.376-5.469h87.114
	c2.968,0,5.376,2.449,5.376,5.469v36.098c0,10.856-8.683,19.69-19.358,19.69L167.22,255.536L167.22,255.536z"/>
<g style="opacity:0.15;">
	<path style="fill:#440075;" d="M171.525,235.846v-36.098c0-3.02,2.408-5.469,5.377-5.469h-23.664c-2.968,0-5.376,2.449-5.376,5.469
		v36.098c0,10.856,8.684,19.69,19.359,19.69h23.664C180.209,255.536,171.525,246.703,171.525,235.846z"/>
</g>
<path style="fill:#98E8F9;" d="M285.632,255.537c-10.675,0-19.36-8.834-19.36-19.69v-36.098c0-3.02,2.408-5.469,5.376-5.469h87.115
	c2.97,0,5.376,2.45,5.376,5.469v36.098c0,10.856-8.683,19.69-19.357,19.69L285.632,255.537L285.632,255.537z"/>
<g style="opacity:0.15;">
	<path style="fill:#440075;" d="M289.935,235.846v-36.098c0-3.02,2.408-5.469,5.376-5.469h-23.664c-2.968,0-5.376,2.449-5.376,5.469
		v36.098c0,10.856,8.685,19.69,19.36,19.69h23.664C298.62,255.536,289.935,246.703,289.935,235.846z"/>
</g>
<path style="fill:#135693;" d="M358.762,186.779h-87.115c-7.1,0-12.876,5.818-12.876,12.969v14.755h-5.543v-14.755
	c0-7.151-5.776-12.969-12.876-12.969h-87.114c-7.1,0-12.876,5.818-12.876,12.969v36.098c0,14.993,12.049,27.19,26.859,27.19h59.15
	c14.81,0,26.858-12.197,26.858-27.19v-6.342h5.543v6.342c0,14.993,12.05,27.19,26.86,27.19h59.15
	c14.809,0,26.857-12.198,26.857-27.19v-36.098C371.638,192.597,365.862,186.779,358.762,186.779z M238.228,235.846
	c0,6.722-5.319,12.19-11.858,12.19h-59.15c-6.539,0-11.859-5.468-11.859-12.19V201.78h82.867V235.846z M356.638,235.846
	c0,6.722-5.319,12.19-11.857,12.19h-59.15c-6.54,0-11.86-5.469-11.86-12.19v-34.067h82.867L356.638,235.846L356.638,235.846z"/>
<g>
	<path style="fill:#046699;" d="M213.025,237.899c-4.142,0-7.5-3.358-7.5-7.5c0-3.334-3.193-6.046-7.117-6.046
		c-3.925,0-7.119,2.712-7.119,6.046c0,4.142-3.358,7.5-7.5,7.5s-7.5-3.358-7.5-7.5c0-11.605,9.922-21.046,22.119-21.046
		c12.195,0,22.117,9.441,22.117,21.046C220.525,234.541,217.167,237.899,213.025,237.899z"/>
	<path style="fill:#046699;" d="M328.21,237.899c-4.143,0-7.5-3.358-7.5-7.5c0-3.334-3.192-6.046-7.116-6.046
		c-3.926,0-7.119,2.712-7.119,6.046c0,4.142-3.357,7.5-7.5,7.5s-7.5-3.358-7.5-7.5c0-11.605,9.923-21.046,22.119-21.046
		c12.195,0,22.116,9.441,22.116,21.046C335.71,234.541,332.352,237.899,328.21,237.899z"/>
</g>
<g>
</g>
<g>
</g>
<g>
</g>
<g>
</g>
<g>
</g>
<g>
</g>
<g>
</g>
<g>
</g>
<g>
</g>
<g>
</g>
<g>
</g>
<g>
</g>
<g>
</g>
<g>
</g>
<g>
</g>
</svg>
