<?xml version="1.0" encoding="iso-8859-1"?>
<!-- Generator: Adobe Illustrator 19.0.0, SVG Export Plug-In . SVG Version: 6.00 Build 0)  -->
<svg version="1.1" id="Capa_1" xmlns="http://www.w3.org/2000/svg" xmlns:xlink="http://www.w3.org/1999/xlink" x="0px" y="0px"
	 viewBox="0 0 512 512" style="enable-background:new 0 0 512 512;" xml:space="preserve">
<path style="fill:#B2762F;" d="M392.778,211.426c-0.972-32.225-13.084-61.646-32.616-84.55v-0.045h-0.038H151.877h-0.04v0.048
	c-19.532,22.903-31.644,52.324-32.615,84.547c-0.475,1.874-0.729,3.834-0.729,5.855v25.847c0,7.319,3.309,13.863,8.511,18.226
	c13.777,38.854,44.589,69.645,83.475,83.359l-10.646,14.837c-1.65,2.299-2.118,6.322-1.042,8.939l17.695,42.999
	c1.076,2.618,3.49,3.023,5.364,0.902l28.698-32.487l3.177,2.918c1.251,1.149,3.298,1.149,4.549,0l3.183-2.923l28.702,32.493
	c1.874,2.122,4.288,1.716,5.364-0.902l17.695-42.999c1.076-2.617,0.578-6.618-1.108-8.89l-10.954-14.758
	c39.059-13.649,70.02-44.511,83.84-83.486c5.201-4.362,8.511-10.907,8.511-18.227v-25.847
	C393.507,215.261,393.253,213.3,392.778,211.426z"/>
<path style="fill:#775436;" d="M360.124,126.831H151.877c-20.402,23.901-32.727,54.907-32.727,88.795
	c0,59.62,38.129,110.325,91.328,129.086l11.951-16.657c10.528,3.633,21.822,5.612,33.57,5.612c11.49,0,22.546-1.89,32.876-5.372
	l12.28,16.545c53.391-18.657,91.693-69.458,91.693-129.214C392.85,181.738,380.525,150.732,360.124,126.831z"/>
<g>
	<path style="fill:#B2762F;" d="M152.837,230.505v-37.003h-10.563c-13.134,0-23.78,10.647-23.78,23.78v25.847
		c0,13.133,10.646,23.78,23.78,23.78h17.202C155.19,255.582,152.837,243.314,152.837,230.505z"/>
	<path style="fill:#B2762F;" d="M369.728,193.502h-10.565v37.003c0,12.809-2.354,25.077-6.639,36.403h17.204
		c13.133,0,23.779-10.647,23.779-23.78v-25.847C393.507,204.148,382.86,193.502,369.728,193.502z"/>
</g>
<g>
	<path style="fill:#775436;" d="M152.837,230.505v-8.361h-14.163c-4.143,0-7.5,3.358-7.5,7.5s3.357,7.5,7.5,7.5h14.383
		C152.916,234.948,152.837,232.735,152.837,230.505z"/>
	<path style="fill:#775436;" d="M373.325,222.144h-14.163v8.361c0,2.231-0.079,4.443-0.22,6.639h14.383c4.143,0,7.5-3.358,7.5-7.5
		C380.825,225.502,377.468,222.144,373.325,222.144z"/>
</g>
<path style="fill:#203A74;" d="M344.374,364.328H312.73c0.129,1.349,0.004,2.71-0.437,3.781l-17.695,42.999
	c-0.429,1.044-1.108,1.642-1.863,1.642c-0.596,0-1.244-0.363-1.827-1.022l-28.702-32.493c-0.178-0.201-0.429-0.323-0.697-0.336
	c-0.017-0.001-0.034-0.001-0.052-0.001c-0.25,0-0.491,0.094-0.677,0.264l-3.183,2.923c-0.42,0.386-0.987,0.598-1.598,0.598
	c-0.61,0-1.178-0.212-1.598-0.598l-3.177-2.918c-0.186-0.17-0.427-0.264-0.677-0.264c-0.018,0-0.035,0-0.052,0.001
	c-0.269,0.014-0.52,0.135-0.697,0.336L221.1,411.727c-0.583,0.659-1.231,1.022-1.827,1.022c-0.755,0-1.435-0.598-1.863-1.642
	l-17.695-42.999c-0.439-1.069-0.571-2.429-0.454-3.781h-31.636c-17.021,0-30.872,13.85-30.872,30.873v111.654
	c0,2.842,2.304,5.145,5.145,5.145h228.201c2.842,0,5.146-2.304,5.146-5.145V395.2C375.246,378.177,361.396,364.328,344.374,364.328z
	"/>
<g style="opacity:0.15;">
	<path style="fill:#030005;" d="M166.724,506.855V395.2c0-17.023,13.851-30.873,30.872-30.873h-29.97
		c-17.021,0-30.872,13.85-30.872,30.873v111.654c0,2.842,2.304,5.145,5.145,5.145h29.97
		C169.027,512,166.724,509.696,166.724,506.855z"/>
</g>
<path style="fill:#046699;" d="M261.531,378.472l-3.934,3.613c-0.42,0.386-0.987,0.598-1.598,0.598c-0.61,0-1.178-0.212-1.598-0.598
	l-3.929-3.608l-20.606,23.328l16.176,16.174L231.634,512h48.732l-14.409-94.021l16.181-16.179L261.531,378.472z"/>
<g>
	<path style="fill:#135693;" d="M228.696,358.476c-1.04-0.954-1.952-3.028-1.952-4.439v-24.605c-1.451-0.43-2.891-0.885-4.314-1.376
		l-22.597,31.495c-1.65,2.299-2.118,6.322-1.042,8.939l17.695,42.999c1.076,2.618,3.49,3.023,5.364,0.902l29.36-33.237
		L228.696,358.476z"/>
	<path style="fill:#135693;" d="M312.11,359.599l-23.234-31.303c-1.196,0.403-2.405,0.78-3.621,1.141v24.601
		c0,1.411-0.911,3.485-1.95,4.439l-22.51,20.672l29.364,33.242c1.874,2.122,4.288,1.716,5.364-0.902l17.695-42.999
		C314.295,365.872,313.797,361.871,312.11,359.599z"/>
</g>
<path style="fill:#B2762F;" d="M256,333.668c-10.524,0-20.684-1.588-30.256-4.53v24.9c0,1.698,1.023,4.027,2.275,5.175
	l25.706,23.608c1.251,1.149,3.298,1.149,4.549,0l25.706-23.608c1.252-1.148,2.274-3.477,2.274-5.175v-24.899
	C276.683,332.08,266.523,333.668,256,333.668z"/>
<path style="opacity:0.15;fill:#440075;enable-background:new    ;" d="M246.943,348.815v-15.549
	c-7.31-0.639-14.403-2.039-21.199-4.128v24.9c0,1.698,1.023,4.027,2.275,5.175l25.706,23.608c1.251,1.149,3.298,1.149,4.549,0
	l11.168-10.257l-20.225-18.574C247.967,352.841,246.943,350.512,246.943,348.815z"/>
<g>
	<path style="fill:#046699;" d="M217.614,456.944c0,1.698-1.389,3.087-3.087,3.087h-50.63c-1.698,0-3.087-1.389-3.087-3.087v-14.407
		c0-1.698,1.389-3.087,3.087-3.087h50.63c1.698,0,3.087,1.39,3.087,3.087V456.944z"/>
	<path style="fill:#046699;" d="M351.19,456.944c0,1.698-1.389,3.087-3.088,3.087h-50.629c-1.698,0-3.088-1.389-3.088-3.087v-14.407
		c0-1.698,1.39-3.087,3.088-3.087h50.629c1.699,0,3.088,1.39,3.088,3.087V456.944z"/>
</g>
<path style="fill:#D19546;" d="M151.837,230.505c0,57.527,46.637,104.163,104.163,104.163s104.162-46.635,104.162-104.163V126.831
	H151.837V230.505z"/>
<g style="opacity:0.15;">
	<path style="fill:#440075;" d="M181.454,230.505V126.831h-29.617v103.674c0,57.527,46.637,104.163,104.163,104.163
		c5.027,0,9.971-0.364,14.809-1.053C220.297,326.424,181.454,283.004,181.454,230.505z"/>
</g>
<g>
	<path style="fill:#EF5050;" d="M172.645,263.479c-5.155,0-9.967,1.461-14.051,3.987c6.474,17.052,17.291,31.966,31.108,43.382
		c5.924-4.908,9.698-12.319,9.698-20.613C199.4,275.458,187.422,263.479,172.645,263.479z"/>
	<path style="fill:#EF5050;" d="M339.355,263.479c-14.777,0-26.756,11.979-26.756,26.756c0,8.294,3.774,15.706,9.697,20.613
		c13.818-11.416,24.636-26.33,31.109-43.382C349.322,264.94,344.511,263.479,339.355,263.479z"/>
</g>
<path style="fill:#B2762F;" d="M265.136,273.98h-8.989c-9.092,0-16.489-7.981-16.489-17.791v-30.786c0-4.142,3.357-7.5,7.5-7.5
	s7.5,3.358,7.5,7.5v30.786c0,1.736,1.034,2.791,1.489,2.791h8.989c4.143,0,7.5,3.358,7.5,7.5S269.278,273.98,265.136,273.98z"/>
<g>
	<path style="fill:#775436;" d="M204.009,241.571c-11.783,0-21.37-9.61-21.37-21.422s9.587-21.422,21.37-21.422
		c11.782,0,21.367,9.61,21.367,21.422S215.791,241.571,204.009,241.571z"/>
	<path style="fill:#775436;" d="M303.876,241.571c-11.782,0-21.368-9.61-21.368-21.422s9.586-21.422,21.368-21.422
		s21.368,9.61,21.368,21.422S315.658,241.571,303.876,241.571z"/>
</g>
<path style="fill:#B2762F;" d="M282.113,301.974h-49.871c-4.143,0-7.5-3.358-7.5-7.5s3.357-7.5,7.5-7.5h49.871
	c4.143,0,7.5,3.358,7.5,7.5S286.256,301.974,282.113,301.974z"/>
<path style="fill:#203A74;" d="M256,0c-72.748,0-131.722,40.709-131.722,73.217c0,13.575,10.289,22.569,27.565,28.444h208.313
	c17.276-5.875,27.565-14.869,27.565-28.444C387.722,40.709,328.748,0,256,0z"/>
<path style="opacity:0.15;fill:#030005;enable-background:new    ;" d="M182.715,101.661c-17.276-5.875-27.564-14.869-27.564-28.444
	c0-30.174,50.813-67.408,116.285-72.599C266.372,0.217,261.223,0,256,0c-72.748,0-131.722,40.709-131.722,73.217
	c0,13.575,10.289,22.569,27.565,28.444H182.715z"/>
<path style="fill:#046699;" d="M155.15,124.963c0,25.251,44,45.721,98.277,45.721c54.276,0,98.276-20.47,98.276-45.721
	C351.703,124.963,155.15,124.963,155.15,124.963z"/>
<g style="opacity:0.15;">
	<path style="fill:#440075;" d="M186.023,124.963H155.15c0,25.251,44,45.721,98.277,45.721c5.252,0,10.406-0.194,15.436-0.563
		C221.921,166.676,186.023,147.772,186.023,124.963z"/>
</g>
<g>
	<rect x="151.84" y="101.66" style="fill:#FFC502;" width="208.32" height="25.17"/>
	<path style="fill:#FFC502;" d="M279.213,57.959c0,2.83-1.832,6.562-4.069,8.293L260.07,77.909c-2.238,1.731-5.901,1.731-8.141,0
		l-15.072-11.657c-2.239-1.732-4.07-5.463-4.07-8.293V32.343c0-2.83,2.315-5.146,5.146-5.146h36.136c2.83,0,5.145,2.315,5.145,5.146
		L279.213,57.959L279.213,57.959z"/>
</g>
<g>
	<path style="fill:#B2762F;" d="M278.633,198.945c-3.432,0-6.528-2.37-7.311-5.859c-0.908-4.042,1.633-8.053,5.675-8.96
		l50.425-11.32c4.043-0.906,8.054,1.634,8.961,5.675c0.907,4.042-1.634,8.053-5.676,8.961l-50.425,11.32
		C279.729,198.886,279.177,198.945,278.633,198.945z"/>
	<path style="fill:#B2762F;" d="M233.367,198.945c-0.544,0-1.097-0.06-1.649-0.184l-50.425-11.32
		c-4.042-0.907-6.583-4.919-5.676-8.961c0.907-4.041,4.922-6.581,8.961-5.675l50.425,11.32c4.042,0.907,6.583,4.919,5.675,8.96
		C239.895,196.575,236.799,198.945,233.367,198.945z"/>
</g>
<g>
</g>
<g>
</g>
<g>
</g>
<g>
</g>
<g>
</g>
<g>
</g>
<g>
</g>
<g>
</g>
<g>
</g>
<g>
</g>
<g>
</g>
<g>
</g>
<g>
</g>
<g>
</g>
<g>
</g>
</svg>
