<?xml version="1.0" encoding="iso-8859-1"?>
<!-- Generator: Adobe Illustrator 19.0.0, SVG Export Plug-In . SVG Version: 6.00 Build 0)  -->
<svg version="1.1" id="Capa_1" xmlns="http://www.w3.org/2000/svg" xmlns:xlink="http://www.w3.org/1999/xlink" x="0px" y="0px"
	 viewBox="0 0 512 512" style="enable-background:new 0 0 512 512;" xml:space="preserve">
<path style="fill:#703422;" d="M448.8,192.801h-32.133c-8.284,0-15,6.716-15,15s6.716,15,15,15v66.398c-8.284,0-15,6.716-15,15
	s6.716,15,15,15H448.8c34.849,0,63.2-28.351,63.2-63.199S483.648,192.801,448.8,192.801z"/>
<path style="fill:#8F5240;" d="M95.333,289.199v-66.398c8.284,0,15-6.716,15-15s-6.716-15-15-15H63.2
	C28.352,192.801,0,221.151,0,256s28.352,63.199,63.2,63.199h32.133c8.284,0,15-6.716,15-15S103.617,289.199,95.333,289.199z"/>
<path style="fill:#A46343;" d="M256,16.066c-96.863,0-175.667,78.805-175.667,175.668v176.732c0,52.567,42.767,95.334,95.334,95.334
	h32.127c8.284,0,15-6.716,15-15h66.404c0,8.284,6.716,15,15,15h32.135c52.567,0,95.334-42.767,95.334-95.334V191.734
	C431.667,94.871,352.863,16.066,256,16.066z"/>
<g>
	<path style="fill:#8F5240;" d="M256.002,16.066V448.8h33.196c0,8.284,6.716,15,15,15h32.135c52.567,0,95.334-42.767,95.334-95.334
		V191.734C431.667,94.872,352.865,16.068,256.002,16.066z"/>
	<path style="fill:#8F5240;" d="M256,367.4c-22.486,0-43.457-12.099-54.728-31.574c-4.149-7.171-1.701-16.347,5.47-20.496
		c7.17-4.15,16.347-1.701,20.495,5.469c5.927,10.24,16.947,16.602,28.763,16.602c11.815,0,22.838-6.364,28.768-16.609
		c4.148-7.169,13.325-9.619,20.496-5.469c7.17,4.149,9.619,13.325,5.469,20.496C299.459,355.299,278.486,367.4,256,367.4z"/>
</g>
<path style="fill:#3B211A;" d="M191.736,246.907c-3.951,0-7.82-1.6-10.61-4.39c-2.79-2.8-4.39-6.66-4.39-10.61s1.6-7.82,4.39-10.61
	s6.659-4.39,10.61-4.39c3.939,0,7.81,1.6,10.6,4.39c2.8,2.79,4.4,6.66,4.4,10.61s-1.601,7.811-4.4,10.61
	C199.546,245.308,195.676,246.907,191.736,246.907z"/>
<path style="fill:#0F0301;" d="M320.266,246.907c-3.949,0-7.811-1.6-10.6-4.39c-2.801-2.8-4.4-6.66-4.4-10.61s1.6-7.82,4.4-10.61
	c2.789-2.79,6.65-4.39,10.6-4.39s7.811,1.6,10.61,4.39c2.79,2.79,4.39,6.66,4.39,10.61s-1.6,7.811-4.39,10.61
	C328.076,245.308,324.216,246.907,320.266,246.907z"/>
<path style="fill:#8F1711;" d="M313.076,413.281c-3.851-2.827-8.815-3.646-13.373-2.219c-14.088,4.428-28.793,6.672-43.703,6.672
	s-29.615-2.244-43.703-6.672c-4.557-1.433-9.523-0.608-13.373,2.219c-3.85,2.825-6.124,7.316-6.124,12.092v48.199
	c0,6.552,4.253,12.346,10.503,14.311c17.003,5.342,34.732,8.051,52.697,8.051s35.694-2.709,52.697-8.051
	c6.25-1.965,10.503-7.759,10.503-14.311v-48.199C319.2,420.598,316.926,416.106,313.076,413.281z"/>
<path style="fill:#6B0101;" d="M313.076,413.281c-3.851-2.827-8.815-3.646-13.373-2.219c-14.088,4.428-28.791,6.672-43.701,6.672
	v78.199c17.964,0,35.693-2.709,52.695-8.051c6.25-1.965,10.503-7.759,10.503-14.311v-48.199
	C319.2,420.598,316.926,416.106,313.076,413.281z"/>
<path style="fill:#703422;" d="M305.264,315.322c-7.171-4.15-16.348-1.701-20.497,5.469c-5.929,10.243-16.95,16.607-28.765,16.607
	v30c22.484-0.001,43.455-12.102,54.729-31.58C314.881,328.648,312.434,319.473,305.264,315.322z"/>
<g>
</g>
<g>
</g>
<g>
</g>
<g>
</g>
<g>
</g>
<g>
</g>
<g>
</g>
<g>
</g>
<g>
</g>
<g>
</g>
<g>
</g>
<g>
</g>
<g>
</g>
<g>
</g>
<g>
</g>
</svg>
