<?xml version="1.0" encoding="iso-8859-1"?>
<!-- Generator: Adobe Illustrator 19.0.0, SVG Export Plug-In . SVG Version: 6.00 Build 0)  -->
<svg version="1.1" id="Capa_1" xmlns="http://www.w3.org/2000/svg" xmlns:xlink="http://www.w3.org/1999/xlink" x="0px" y="0px"
	 viewBox="0 0 497.778 497.778" style="enable-background:new 0 0 497.778 497.778;" xml:space="preserve">
<g transform="matrix(1.25 0 0 -1.25 0 45)">
	<g>
		<g>
			<path style="fill:#662113;" d="M244.622-3.822c0-21.993-20.378-39.822-45.511-39.822S153.6-25.815,153.6-3.822
				S173.978,36,199.111,36S244.622,18.171,244.622-3.822"/>
			<path style="fill:#EA596E;" d="M244.622-20.889c0-18.853-20.378-34.133-45.511-34.133S153.6-39.742,153.6-20.889
				s20.378,34.133,45.511,34.133S244.622-2.036,244.622-20.889"/>
			<g>
				<path style="fill:#662113;" d="M85.333-111.911c0,0-11.378-159.289-11.378-216.178h125.156v227.556L85.333-111.911z"/>
				<path style="fill:#662113;" d="M312.889-111.911c0,0,11.378-159.289,11.378-216.178H199.111v227.556L312.889-111.911z"/>
				<g transform="translate(18 24)">
					<path style="fill:#662113;" d="M181.111-113.156v91.022c-56.889,0-113.778-34.133-113.778-102.4s29.047-10.172,34.133,0
						C124.222-79.022,158.356-113.156,181.111-113.156"/>
					<path style="fill:#662113;" d="M181.111-113.156v91.022c56.889,0,113.778-34.133,113.778-102.4s-29.047-10.172-34.133,0
						C238-79.022,203.867-113.156,181.111-113.156"/>
				</g>
			</g>
			<path style="fill:#5C913B;" d="M358.4-362.222v11.378c0,37.706-41.938,79.644-79.644,79.644H119.467
				c-37.695,0-79.644-41.938-79.644-79.644v-11.378H358.4z"/>
			<path style="fill:#FFDC5D;" d="M149.504-272.349c19.843-14.416,49.607-78.495,49.607-78.495s29.764,64.091,49.607,78.495v43.361
				h-99.214V-272.349z"/>
			<path style="fill:#F9CA55;" d="M149.413-248.103c13.835-15.633,30.993-23.063,49.653-23.063c18.648,0,35.806,7.441,49.653,23.063
				v39.72h-99.305V-248.103z"/>
			<path style="fill:#FFDC5D;" d="M108.089-123.289c0,63.59,37.467,101.023,91.022,101.023s91.022-37.433,91.022-101.023
				c0-91.022-56.889-136.533-91.022-136.533S108.089-214.311,108.089-123.289"/>
			<g>
				<path style="fill:#662113;" d="M159.289-154.578L159.289-154.578c-5.313,0-9.671,4.358-9.671,9.671v9.102
					c0,5.325,4.358,9.671,9.671,9.671l0,0c5.313,0,9.671-4.346,9.671-9.671v-9.102C168.96-150.22,164.602-154.578,159.289-154.578"
					/>
				<path style="fill:#662113;" d="M238.933-154.578L238.933-154.578c-5.313,0-9.671,4.358-9.671,9.671v9.102
					c0,5.325,4.358,9.671,9.671,9.671c5.313,0,9.671-4.346,9.671-9.671v-9.102C248.604-150.22,244.247-154.578,238.933-154.578"/>
			</g>
			<path style="fill:#C1694F;" d="M206.507-193.831h-14.791c-3.755,0-6.827,3.072-6.827,6.827l0,0c0,3.755,3.072,6.827,6.827,6.827
				h14.791c3.755,0,6.827-3.072,6.827-6.827l0,0C213.333-190.759,210.261-193.831,206.507-193.831"/>
			<path style="fill:#DF1F32;" d="M199.111-229.546c-14.29,0-26.772,4.107-33.371,11.014c-2.617,2.719-2.514,7.043,0.205,9.648
				c2.719,2.606,7.043,2.514,9.648-0.205c3.959-4.13,13.187-6.804,23.518-6.804c10.32,0,19.558,2.674,23.506,6.804
				c2.606,2.731,6.929,2.833,9.66,0.205c2.719-2.606,2.81-6.929,0.216-9.648C225.883-225.439,213.402-229.546,199.111-229.546"/>
			<g>
				<path style="fill:#FFDC5D;" d="M86.585-112.742l22.027-21.038c0,0,11.071-34.714,0-45.466
					C98.384-189.2,51.2-116.519,51.2-101.364C51.2-89.986,86.585-112.742,86.585-112.742"/>
				<path style="fill:#FFDC5D;" d="M307.974-112.742l-20.241-21.038c0,0-6.849-32.119,0-45.466
					c5.097-9.956,59.29,62.726,59.29,77.881C347.022-89.986,307.974-112.742,307.974-112.742"/>
			</g>
			<g>
				<path style="fill:#662113;" d="M199.111,1.867c-56.889,0-102.4-34.133-102.4-102.4s16.441-9.466,22.756,0
					c22.756,34.133,56.889,11.378,79.644,11.378S256-66.4,278.756-100.533c6.315-9.466,22.756-68.267,22.756,0
					S256,1.867,199.111,1.867"/>
				<path style="fill:#662113;" d="M96.711-100.533L85.333-362.222h45.511c0,0-29.889,233.062-11.378,261.689
					C127.408-88.245,96.711-100.533,96.711-100.533"/>
				<path style="fill:#662113;" d="M301.34-100.533l11.219-261.689h-45.511c0,0,30.106,233.062,11.856,261.689
					C271.076-88.245,301.34-100.533,301.34-100.533"/>
			</g>
			<path style="fill:#EA596E;" d="M199.111-32.267c45.511,0,91.022-22.756,91.022-45.511c0,0-22.756,34.133-91.022,34.133
				s-91.022-34.133-91.022-34.133S119.467-32.267,199.111-32.267"/>
		</g>
	</g>
</g>
<g>
</g>
<g>
</g>
<g>
</g>
<g>
</g>
<g>
</g>
<g>
</g>
<g>
</g>
<g>
</g>
<g>
</g>
<g>
</g>
<g>
</g>
<g>
</g>
<g>
</g>
<g>
</g>
<g>
</g>
</svg>
