<?xml version="1.0" encoding="iso-8859-1"?>
<!-- Generator: Adobe Illustrator 19.0.0, SVG Export Plug-In . SVG Version: 6.00 Build 0)  -->
<svg version="1.1" id="Capa_1" xmlns="http://www.w3.org/2000/svg" xmlns:xlink="http://www.w3.org/1999/xlink" x="0px" y="0px"
	 viewBox="0 0 512 512" style="enable-background:new 0 0 512 512;" xml:space="preserve">
<g transform="matrix(1.25 0 0 -1.25 0 45)">
	<g>
		<g>
			<path style="fill:#292F33;" d="M386.844-180.451c0-22.175-76.413-40.152-170.667-40.152S45.511-202.626,45.511-180.451
				s76.413,40.152,170.667,40.152S386.844-158.276,386.844-180.451"/>
			<path style="fill:#D1D3D4;" d="M104.971-146.044c-1.536-11.378-2.503-20.821-2.503-31.744c0-31.152-2.435-125.463,21.333-125.463
				c21.925,0,49.766,22.903,92.422,22.903c42.633,0,71.077-23.575,92.399-23.575c21.333,0,21.333,25.031,21.333,126.248
				c0,10.923-0.978,20.252-2.503,31.63L104.971-146.044z"/>
			<path style="fill:#9266CC;" d="M310.386-285.718H128.341c-28.285,0-54.318-16.418-65.559-39.242
				c-4.176,4.722-10.32,7.043-17.226,7.043c-12.504,0-22.756-10.638-22.756-22.721V-373.6h352.711v21.97
				C375.512-315.232,348.08-285.718,310.386-285.718"/>
			<path style="fill:#F7DECE;" d="M170.667-248.444v-36.796c0-0.046,0.125-0.091,0.171-0.137
				c1.502-2.697,42.519-76.675,45.397-76.675c2.867,0,43.85,73.978,45.34,76.675c0.046,0.046,0.114,0.091,0.114,0.137v36.796
				H170.667z"/>
			<path style="fill:#EEC2AD;" d="M170.78-278.015c12.686-13.141,28.41-16.703,45.5-16.703c17.101,0,32.836,3.561,45.522,16.703
				v33.417H170.78V-278.015z"/>
			<path style="fill:#F7DECE;" d="M299.93-144.338c-0.228,0-0.444-0.091-0.683-0.114c-8.772,53.225-42.576,92.934-83.024,92.934
				c-40.471,0-74.286-39.708-83.069-92.934c-0.25,0.011-0.478,0.114-0.74,0.114c-10.286,0-18.637-13.369-18.637-29.844
				s8.351-29.833,18.637-29.833c0.569,0,1.115,0.182,1.661,0.273c10.035-49.937,42.962-84.981,82.148-84.981
				c39.151,0,72.078,35.044,82.113,84.969c0.535-0.08,1.047-0.262,1.593-0.262c10.297,0,18.648,13.358,18.648,29.833
				S310.227-144.338,299.93-144.338"/>
			<path style="fill:#DF1F32;" d="M216.178-265.807c-18.273,0-27.841,9.034-28.865,10.069c-3.049,3.026-3.049,7.964,0,11.002
				c3.026,3.004,7.873,3.026,10.934,0.068c0.398-0.364,6.269-5.587,17.931-5.587c11.81,0,17.692,5.382,17.931,5.598
				c3.118,2.913,7.999,2.822,10.957-0.216c2.958-3.061,2.958-7.873-0.046-10.866C243.996-256.773,234.439-265.807,216.178-265.807"
				/>
			<path style="fill:#C1694F;" d="M226.361-231.378h-19.228c-2.662,0-4.813,2.15-4.813,4.813v1.741c0,2.662,2.15,4.824,4.813,4.824
				h19.228c2.651,0,4.824-2.162,4.824-4.824v-1.741C231.185-229.227,229.012-231.378,226.361-231.378"/>
			<g>
				<path style="fill:#662113;" d="M178.256-207.302L178.256-207.302c-5.291,0-9.626,4.335-9.626,9.637v9.603
					c0,5.291,4.335,9.626,9.626,9.626c5.302,0,9.637-4.335,9.637-9.626v-9.603C187.893-202.967,183.558-207.302,178.256-207.302"/>
				<path style="fill:#662113;" d="M255.226-207.302L255.226-207.302c-5.291,0-9.626,4.335-9.626,9.637v9.603
					c0,5.291,4.335,9.626,9.626,9.626s9.626-4.335,9.626-9.626v-9.603C264.852-202.967,260.517-207.302,255.226-207.302"/>
			</g>
			<path style="fill:#D1D3D4;" d="M227.556-134.667c0,0,45.511-45.511,91.022-45.511c0,0,11.378,11.378,0,22.756
				S227.556-134.667,227.556-134.667 M204.8-134.667c0,0-45.511-45.511-91.022-45.511c0,0-11.378,11.378,0,22.756
				S204.8-134.667,204.8-134.667"/>
			<path style="fill:#9266CC;" d="M304.526-136.453C290.554-105.892,225.2,36,216.178,36c-9.034,0-74.388-141.892-88.36-172.453
				c-54.83-9.603-82.307-27.739-82.307-43.725c68.267,22.756,125.156,27.796,170.667,27.796s102.4-5.04,170.667-27.796
				C386.844-164.192,359.356-146.056,304.526-136.453"/>
			<path style="fill:#D99E82;" d="M68.267-373.6H45.511v274.637L34.133-55.022h45.511L68.267-98.963V-373.6z"/>
			<path style="fill:#55ACEE;" d="M91.022-32.267c0-18.853-15.28-34.133-34.133-34.133S22.756-51.12,22.756-32.267
				S38.036,1.867,56.889,1.867S91.022-13.414,91.022-32.267"/>
			<path style="fill:#B0F0FF;" d="M68.267-26.578c0-9.421-7.646-17.067-17.067-17.067s-17.067,7.646-17.067,17.067
				S41.779-9.511,51.2-9.511S68.267-17.157,68.267-26.578"/>
			<path style="fill:#F7DECE;" d="M91.022-311.022c0-21.993-15.28-39.822-34.133-39.822s-34.133,17.829-34.133,39.822
				c0,21.993,15.28,28.444,34.133,28.444S91.022-289.029,91.022-311.022"/>
		</g>
	</g>
</g>
<g>
</g>
<g>
</g>
<g>
</g>
<g>
</g>
<g>
</g>
<g>
</g>
<g>
</g>
<g>
</g>
<g>
</g>
<g>
</g>
<g>
</g>
<g>
</g>
<g>
</g>
<g>
</g>
<g>
</g>
</svg>
