<?xml version="1.0" encoding="iso-8859-1"?>
<!-- Generator: Adobe Illustrator 19.0.0, SVG Export Plug-In . SVG Version: 6.00 Build 0)  -->
<svg version="1.1" id="Capa_1" xmlns="http://www.w3.org/2000/svg" xmlns:xlink="http://www.w3.org/1999/xlink" x="0px" y="0px"
	 viewBox="0 0 512 512" style="enable-background:new 0 0 512 512;" xml:space="preserve">
<path style="fill:#4B4B5B;" d="M468.991,194.841h-21.837H64.846H43.009c-11.777,0-21.36,9.583-21.36,21.36v114.234
	c0,11.778,9.583,21.361,21.36,21.361h21.837h382.307h21.837c11.778,0,21.36-9.583,21.36-21.36V216.201
	C490.351,204.424,480.768,194.841,468.991,194.841z"/>
<path style="fill:#656572;" d="M362.177,83.349h-24.452v-9.297c0-13.376-10.883-24.259-24.259-24.259h-11.462h-89.844h-11.462
	c-13.376,0-24.259,10.883-24.259,24.259v9.297h-24.452c-13.376,0-24.259,10.883-24.259,24.259v47.183h84.431h89.844h84.431v-47.183
	C386.435,94.232,375.553,83.349,362.177,83.349z"/>
<g>
	<path style="fill:#FFFFFF;" d="M175.357,132.059c-6.565,0-11.907-5.342-11.907-11.907c0-6.565,5.342-11.907,11.907-11.907h36.803
		v23.814H175.357z"/>
	<path style="fill:#FFFFFF;" d="M302.004,132.059v-23.814h36.803c6.565,0,11.907,5.342,11.907,11.907
		c0,6.565-5.342,11.907-11.907,11.907H302.004z"/>
</g>
<path style="fill:#4B4B5B;" d="M211.078,154.791V17.408C211.078,7.81,218.888,0,228.486,0h57.192c9.598,0,17.408,7.81,17.408,17.408
	v137.383H211.078z"/>
<path style="fill:#414151;" d="M272.326,0h-43.839c-9.598,0-17.408,7.81-17.408,17.408v137.383h43.839V17.408
	C254.918,7.81,262.727,0,272.326,0z"/>
<rect x="172.11" y="380.872" style="fill:#656572;" width="167.78" height="115.054"/>
<path style="fill:#565663;" d="M339.89,380.866H256h-83.89v46.161v68.893H256v-42.477c0-14.589,11.827-26.416,26.416-26.416h57.474
	V380.866z"/>
<path style="fill:#4B4B5B;" d="M160.203,512c-8.357,0-15.154-6.798-15.154-15.154c0-8.357,6.798-15.154,15.154-15.154h191.594
	c8.357,0,15.154,6.798,15.154,15.154c0,8.357-6.798,15.154-15.154,15.154H160.203z"/>
<path style="fill:#656572;" d="M117.782,392.93c-30.327,0-54.999-24.672-54.999-54.999V208.708
	c0-30.327,24.672-54.999,54.999-54.999h276.437c30.327,0,54.999,24.672,54.999,54.999v129.223c0,30.327-24.672,54.999-54.999,54.999
	H117.782z"/>
<path style="fill:#555563;" d="M190.306,345.844c-30.327,0-54.999-24.672-54.999-54.999V161.621c0-2.687,0.204-5.327,0.577-7.913
	h-18.102c-30.327,0-54.999,24.672-54.999,54.999v129.223c0,30.327,24.672,54.999,54.999,54.999h276.437
	c27.639,0,50.573-20.496,54.421-47.087H190.306z"/>
<path style="fill:#4B4B5B;" d="M255.459,298.216c-4.485,0-8.118-3.634-8.118-8.118v-92.008c0-4.485,3.634-8.118,8.118-8.118
	s8.118,3.634,8.118,8.118v92.008C263.577,294.582,259.943,298.216,255.459,298.216z"/>
<g>
	<path style="fill:#E0E0E3;" d="M130.436,272.778c-17.011,0-30.85-13.839-30.85-30.85s13.839-30.85,30.85-30.85
		s30.85,13.839,30.85,30.85S147.446,272.778,130.436,272.778z"/>
	<path style="fill:#E0E0E3;" d="M380.482,272.778c-17.011,0-30.85-13.839-30.85-30.85s13.839-30.85,30.85-30.85
		c17.011,0,30.85,13.839,30.85,30.85S397.493,272.778,380.482,272.778z"/>
</g>
<g>
	<path style="fill:#4B4B5B;" d="M161.827,353.962c-11.639,0-21.108-9.469-21.108-21.108s9.469-21.108,21.108-21.108
		c11.639,0,21.108,9.469,21.108,21.108S173.465,353.962,161.827,353.962z"/>
	<path style="fill:#4B4B5B;" d="M349.091,353.962c-11.639,0-21.108-9.469-21.108-21.108s9.469-21.108,21.108-21.108
		s21.108,9.469,21.108,21.108S360.729,353.962,349.091,353.962z"/>
</g>
<path style="fill:#474756;" d="M256,338.808c-4.485,0-8.118,3.634-8.118,8.118v46.004h16.237v-46.004
	C264.118,342.441,260.485,338.808,256,338.808z"/>
<g>
	<path style="fill:#4B4B5B;" d="M256,353.962c-19.995,0-36.262-16.267-36.262-36.262c0-19.995,16.267-36.262,36.262-36.262
		s36.262,16.267,36.262,36.262C292.262,337.695,275.995,353.962,256,353.962z"/>
	<path style="fill:#4B4B5B;" d="M202.723,202.96c-9.362,0-17.775-5.569-21.433-14.188l-14.869-35.064h181.322l-14.867,35.061
		c-3.658,8.622-12.07,14.191-21.434,14.191H202.723z"/>
</g>
<g>
	<path style="fill:#363644;" d="M262.495,186.182h-56.288c-4.485,0-8.118-3.634-8.118-8.118c0-4.485,3.634-8.118,8.118-8.118h56.288
		c4.485,0,8.118,3.634,8.118,8.118C270.613,182.548,266.979,186.182,262.495,186.182z"/>
	<path style="fill:#363644;" d="M305.793,186.182h-22.732c-4.485,0-8.118-3.634-8.118-8.118c0-4.485,3.634-8.118,8.118-8.118h22.732
		c4.485,0,8.118,3.634,8.118,8.118C313.911,182.548,310.277,186.182,305.793,186.182z"/>
	<circle style="fill:#363644;" cx="256" cy="317.7" r="15.696"/>
</g>
<g>
	<circle style="fill:#4B4B5B;" cx="130.436" cy="241.928" r="10.825"/>
	<circle style="fill:#4B4B5B;" cx="380.482" cy="241.928" r="10.825"/>
</g>
<g>
</g>
<g>
</g>
<g>
</g>
<g>
</g>
<g>
</g>
<g>
</g>
<g>
</g>
<g>
</g>
<g>
</g>
<g>
</g>
<g>
</g>
<g>
</g>
<g>
</g>
<g>
</g>
<g>
</g>
</svg>
