<?xml version="1.0" encoding="iso-8859-1"?>
<!-- Generator: Adobe Illustrator 19.0.0, SVG Export Plug-In . SVG Version: 6.00 Build 0)  -->
<svg version="1.1" id="Capa_1" xmlns="http://www.w3.org/2000/svg" xmlns:xlink="http://www.w3.org/1999/xlink" x="0px" y="0px"
	 viewBox="0 0 512 512" style="enable-background:new 0 0 512 512;" xml:space="preserve">
<path style="fill:#B2762F;" d="M256.001,44c18.216,0,35.338,4.658,50.239,12.836c3.873-5.802,6.141-12.766,6.141-20.265
	C312.381,16.373,296.007,0,275.809,0h-39.617c-20.198,0-36.571,16.373-36.571,36.571c0,7.499,2.267,14.463,6.139,20.266
	C220.661,48.658,237.784,44,256.001,44z"/>
<path style="fill:#D19546;" d="M256.001,44c8.625,0,17.003,1.051,25.018,3.018c0.451-3.313,0.704-6.813,0.704-10.446
	C281.724,16.373,274.252,0,265.036,0h-18.073c-9.217,0-16.687,16.373-16.687,36.571c0,3.634,0.253,7.134,0.705,10.446
	C238.997,45.051,247.375,44,256.001,44z"/>
<path style="opacity:0.15;fill:#440075;enable-background:new    ;" d="M219.605,50.509c-1.778-4.297-2.772-8.998-2.772-13.938
	C216.833,16.373,233.206,0,253.404,0h-17.213c-20.198,0-36.571,16.373-36.571,36.571c0,7.499,2.267,14.463,6.139,20.266
	C210.188,54.406,214.813,52.287,219.605,50.509z"/>
<path style="fill:#D19546;" d="M256.001,42.666c-57.59,0-104.274,46.507-104.274,103.877v26.186C151.769,115.195,198.438,92,256,92
	c57.589,0,104.274,23.215,104.274,80.805v-26.262C360.274,89.173,313.591,42.666,256.001,42.666z"/>
<path style="fill:#B2762F;" d="M256,92c22.725,0,43.748,3.619,60.878,11.533c-10.528-35.902-33.823-60.867-60.877-60.867
	c-27.054,0-50.348,24.963-60.877,60.866C212.254,95.618,233.276,92,256,92z"/>
<path style="fill:#D19546;" d="M256,92c6.881,0,13.603,0.336,20.112,1.018c-4.106-30.169-11.576-50.352-20.111-50.352
	c-8.535,0-16.005,20.183-20.111,50.352C242.398,92.336,249.12,92,256,92z"/>
<path style="opacity:0.15;fill:#440075;enable-background:new    ;" d="M178.324,113.72c12.711-38.041,46.895-66.309,88.238-70.512
	c-3.474-0.351-6.995-0.542-10.561-0.542c-57.59,0-104.274,46.507-104.274,103.877v26.186
	C151.746,146.038,161.804,126.742,178.324,113.72z"/>
<path style="fill:#FFB98A;" d="M344.469,364.169h-55.26c-2.845,0-5.15-2.306-5.15-5.151v-29.416
	c-8.926,2.522-18.337,3.875-28.059,3.875c-9.722,0-19.133-1.353-28.058-3.875v29.416c0,2.846-2.306,5.151-5.15,5.151h-55.261
	c-17.041,0-30.905,13.864-30.905,30.905V506.85c0,2.84,2.31,5.15,5.15,5.15h228.447c2.84,0,5.15-2.31,5.15-5.15V395.074
	C375.374,378.033,361.51,364.169,344.469,364.169z"/>
<path style="fill:#C0272D;" d="M198.802,440.402c9.54,0,18.576,2.154,26.655,5.996l-30.753-82.229H169.98v83.324
	C178.598,442.973,188.398,440.402,198.802,440.402z"/>
<g style="opacity:0.15;">
	<path style="fill:#440075;" d="M184.918,364.169H169.98v83.324c4.663-2.446,9.675-4.315,14.938-5.521V364.169z"/>
</g>
<path style="fill:#C0272D;" d="M313.198,440.402c10.404,0,20.204,2.57,28.821,7.091v-83.324h-24.724l-30.753,82.229
	C294.622,442.557,303.658,440.402,313.198,440.402z"/>
<path style="fill:#EF5050;" d="M313.198,437.666c-25.675,0-47.711,15.572-57.198,37.787c-9.486-22.215-31.523-37.787-57.198-37.787
	c-34.338,0-62.176,27.85-62.176,62.203v6.98c0,2.845,2.306,5.15,5.15,5.15h228.447c2.845,0,5.15-2.306,5.15-5.15v-6.98
	C375.374,465.516,347.536,437.666,313.198,437.666z"/>
<g style="opacity:0.15;">
	<path style="fill:#440075;" d="M166.628,506.85v-6.98c0-29.177,20.085-53.654,47.176-60.369c-4.806-1.192-9.828-1.834-15.002-1.834
		c-34.338,0-62.176,27.85-62.176,62.203v6.98c0,2.845,2.306,5.15,5.15,5.15h30.002C168.934,512,166.628,509.694,166.628,506.85z"/>
</g>
<g>
	<path style="fill:#FFB98A;" d="M152.726,230.202v-44.255h-13.223c-13.454,0-24.359,10.906-24.359,24.359v26.477
		c0,13.453,10.905,24.359,24.359,24.359h17.959C154.387,251.37,152.726,240.977,152.726,230.202z"/>
	<path style="fill:#FFB98A;" d="M372.498,185.947h-13.224v44.255c0,10.774-1.661,21.168-4.737,30.941h17.961
		c13.453,0,24.358-10.906,24.358-24.359v-26.477C396.856,196.854,385.951,185.947,372.498,185.947z"/>
</g>
<g>
	<path style="fill:#D19546;" d="M152.726,230.202v-14.718h-14.177c-4.143,0-7.5,3.357-7.5,7.5s3.357,7.5,7.5,7.5h14.181
		C152.729,230.391,152.726,230.297,152.726,230.202z"/>
	<path style="fill:#D19546;" d="M373.451,215.484h-14.177v14.718c0,0.095-0.003,0.188-0.004,0.282h14.181c4.143,0,7.5-3.357,7.5-7.5
		C380.951,218.842,377.594,215.484,373.451,215.484z"/>
</g>
<path style="fill:#FFC7A9;" d="M151.726,171.742c0-57.59,46.686-80.805,104.274-80.805l0,0c57.589,0,104.274,23.215,104.274,80.805
	v58.46c0,57.59-46.686,104.274-104.274,104.274l0,0c-57.589,0-104.274-46.685-104.274-104.274L151.726,171.742L151.726,171.742z"/>
<g style="opacity:0.15;">
	<path style="fill:#440075;" d="M175.645,230.202v-58.46c0-53.531,40.341-77.357,92.276-80.45c-3.914-0.232-7.89-0.354-11.922-0.354
		c-57.589,0-104.274,23.215-104.274,80.805v58.46c0,57.59,46.686,104.274,104.274,104.274c4.032,0,8.006-0.243,11.92-0.691
		C215.984,327.833,175.645,283.732,175.645,230.202z"/>
</g>
<path style="fill:#D2957D;" d="M265.147,262.47h-9c-9.097,0-16.498-7.985-16.498-17.802V219c0-4.143,3.357-7.5,7.5-7.5
	s7.5,3.357,7.5,7.5v25.668c0,1.743,1.04,2.802,1.498,2.802h9c4.143,0,7.5,3.357,7.5,7.5
	C272.647,259.112,269.289,262.47,265.147,262.47z"/>
<g>
	<path style="fill:#135693;" d="M198.85,238.806c-11.791,0-21.384-9.617-21.384-21.438c0-11.82,9.593-21.438,21.384-21.438
		c11.79,0,21.383,9.617,21.383,21.438C220.232,229.189,210.64,238.806,198.85,238.806z"/>
	<path style="fill:#135693;" d="M307.522,238.806c-11.792,0-21.385-9.617-21.385-21.438c0-11.82,9.593-21.438,21.385-21.438
		c11.79,0,21.382,9.617,21.382,21.438S319.313,238.806,307.522,238.806z"/>
</g>
<path style="fill:#FCDB67;" d="M137.453,338.87c-1.201,1.201-3.17,1.201-4.371,0l-13.972-13.972c-1.201-1.201-1.201-3.169,0-4.37
	l13.972-13.972c1.201-1.201,3.17-1.201,4.371,0l13.972,13.972c1.201,1.201,1.201,3.169,0,4.37L137.453,338.87z"/>
<path style="fill:#135693;" d="M135.268,281.154c2.775,0,5.357,0.847,7.5,2.296V256c0-4.143-3.357-7.5-7.5-7.5s-7.5,3.357-7.5,7.5
	v27.45C129.91,282.001,132.492,281.154,135.268,281.154z"/>
<circle style="fill:#98E8F9;" cx="135.27" cy="294.58" r="14.423"/>
<path style="fill:#135693;" d="M376.732,281.154c2.775,0,5.357,0.847,7.5,2.296V256c0-4.143-3.357-7.5-7.5-7.5s-7.5,3.357-7.5,7.5
	v27.45C371.375,282.001,373.957,281.154,376.732,281.154z"/>
<path style="fill:#FCDB67;" d="M378.918,338.87c-1.201,1.201-3.17,1.201-4.371,0l-13.972-13.972c-1.201-1.201-1.201-3.169,0-4.37
	l13.972-13.972c1.201-1.201,3.17-1.201,4.371,0l13.972,13.972c1.201,1.201,1.201,3.169,0,4.37L378.918,338.87z"/>
<g>
	<circle style="fill:#98E8F9;" cx="376.73" cy="294.58" r="14.423"/>
	<path style="fill:#98E8F9;" d="M258.185,428.516c-1.201,1.201-3.17,1.201-4.371,0l-8.807-8.808c-1.201-1.201-1.201-3.169,0-4.37
		l8.807-8.807c1.201-1.201,3.17-1.201,4.371,0l8.807,8.807c1.201,1.201,1.201,3.169,0,4.37L258.185,428.516z"/>
</g>
<g>
	<path style="fill:#135693;" d="M240.55,393.465l11.423-11.423c-9.391-1.679-18.102-9.177-24.446-20.999
		c-0.786,1.838-2.609,3.126-4.734,3.126h-10.474c6.796,14.448,16.594,24.803,27.861,29.818
		C240.276,393.801,240.394,393.621,240.55,393.465z"/>
	<path style="fill:#135693;" d="M289.209,364.169c-2.126,0-3.949-1.289-4.735-3.128c-6.345,11.823-15.056,19.322-24.446,21.001
		l11.423,11.423c0.156,0.156,0.273,0.336,0.37,0.522c11.268-5.016,21.064-15.37,27.86-29.818L289.209,364.169L289.209,364.169z"/>
</g>
<path style="fill:#FCDB67;" d="M258.185,411.1c-1.201,1.201-3.17,1.201-4.371,0l-13.972-13.972c-1.201-1.201-1.201-3.169,0-4.37
	l13.972-13.972c1.201-1.201,3.17-1.201,4.371,0l13.972,13.972c1.201,1.201,1.201,3.169,0,4.37L258.185,411.1z"/>
<g>
	<path style="fill:#B2762F;" d="M233.85,209.932c-3.783,0-7.035-2.854-7.448-6.7c-1.467-13.656-12.949-23.955-26.709-23.955
		c-9.348,0-17.883,4.746-22.829,12.696c-2.189,3.518-6.813,4.594-10.331,2.404c-3.517-2.188-4.594-6.813-2.404-10.33
		c7.703-12.38,20.999-19.771,35.564-19.771c21.442,0,39.337,16.059,41.623,37.354c0.442,4.118-2.538,7.815-6.656,8.258
		C234.387,209.917,234.117,209.932,233.85,209.932z"/>
	<path style="fill:#B2762F;" d="M274.552,209.932c-0.268,0-0.537-0.015-0.81-0.044c-4.118-0.442-7.099-4.14-6.656-8.258
		c2.286-21.295,20.181-37.354,41.623-37.354c14.565,0,27.861,7.391,35.564,19.771c2.189,3.517,1.112,8.142-2.404,10.33
		c-3.517,2.188-8.141,1.112-10.331-2.404c-4.946-7.95-13.481-12.696-22.829-12.696c-13.76,0-25.242,10.299-26.709,23.955
		C281.587,207.077,278.335,209.931,274.552,209.932z"/>
</g>
<path style="fill:#D2957D;" d="M256,299.519c-14.547,0-29.094-5.537-40.168-16.611c-2.929-2.93-2.929-7.678,0-10.607
	c2.93-2.928,7.678-2.928,10.607,0c16.299,16.301,42.822,16.301,59.121,0c2.93-2.928,7.678-2.928,10.608,0
	c2.929,2.93,2.929,7.678,0,10.607C285.094,293.981,270.547,299.519,256,299.519z"/>
<g>
</g>
<g>
</g>
<g>
</g>
<g>
</g>
<g>
</g>
<g>
</g>
<g>
</g>
<g>
</g>
<g>
</g>
<g>
</g>
<g>
</g>
<g>
</g>
<g>
</g>
<g>
</g>
<g>
</g>
</svg>
