<?xml version="1.0" encoding="iso-8859-1"?>
<!-- Generator: Adobe Illustrator 19.0.0, SVG Export Plug-In . SVG Version: 6.00 Build 0)  -->
<svg version="1.1" id="Capa_1" xmlns="http://www.w3.org/2000/svg" xmlns:xlink="http://www.w3.org/1999/xlink" x="0px" y="0px"
	 viewBox="0 0 512 512" style="enable-background:new 0 0 512 512;" xml:space="preserve">
<path style="fill:#C0272D;" d="M374.977,120.163v15.158c0,8.245-6.157,15.38-14.321,16.597c-0.49,0.073-0.853,0.494-0.853,0.989
	v31.587c0,0.503,0.374,0.928,0.873,0.992c11.609,1.486,20.364,11.443,20.364,23.162v19.179c1.49-0.163,3.002-0.253,4.535-0.253
	c5.773,0,11.273,1.187,16.273,3.325v-98.921C401.848,59.088,342.759,0,269.867,0h-16.349C190.457,0,137.74,44.232,124.669,103.361
	h233.505C367.44,103.361,374.977,110.898,374.977,120.163z"/>
<path style="opacity:0.15;fill:#440075;enable-background:new    ;" d="M155.067,103C167.782,46.246,217.04,3.3,276.854,0.184
	C274.54,0.064,272.211,0,269.867,0h-16.349c-62.932,0-115.56,44.053-128.766,103H155.067z"/>
<path style="fill:#E6E9ED;" d="M385.575,226.574c-1.532,0-3.045,0.085-4.535,0.243v8.307c0,11.717-8.755,21.673-20.364,23.159
	c-0.499,0.064-0.873,0.488-0.873,0.992v15.88c0,8.176-1.652,16.169-4.728,23.57c7.728,7.955,18.533,12.905,30.501,12.905
	c23.487,0,42.527-19.041,42.527-42.528C428.103,245.614,409.063,226.574,385.575,226.574z"/>
<path style="fill:#C0272D;" d="M351.906,358.245H328.49c-5.91,6.121-14.052,10.092-23.173,10.576
	c-1.084,0.057-2.118,0.554-2.837,1.363c-0.73,0.817-1.097,1.873-1.03,2.972c0.043,0.687,0.064,1.395,0.064,2.105
	c0,19.198-15.618,34.817-34.816,34.817c-8.371,0-16.481-3.035-22.834-8.545c-0.743-0.645-1.694-1.001-2.68-1.001
	s-1.938,0.355-2.681,1.001c-6.352,5.51-14.462,8.545-22.835,8.545c-19.198,0-34.817-15.619-34.817-34.817
	c0-0.704,0.021-1.411,0.064-2.102c0.067-1.081-0.308-2.165-1.028-2.975c-0.722-0.81-1.756-1.306-2.837-1.363
	c-9.121-0.484-17.263-4.455-23.173-10.576h-23.415c-25.717,0-46.565,20.854-46.565,46.577v96.876
	c0,5.666,4.636,10.302,10.302,10.302h293.97c5.666,0,10.302-4.636,10.302-10.302v-96.876
	C398.471,379.099,377.623,358.245,351.906,358.245z"/>
<path style="opacity:0.15;fill:#440075;enable-background:new    ;" d="M154.287,358.657c-0.137-0.137-0.275-0.273-0.409-0.412
	h-23.415c-25.717,0-46.565,20.854-46.565,46.577v96.876c0,5.666,4.636,10.302,10.302,10.302h29.938
	c-5.666,0-10.302-4.636-10.302-10.302v-96.876C113.835,381.173,131.461,361.654,154.287,358.657z"/>
<path style="fill:#FFFFFF;" d="M241.184,400.532c-0.986,0-1.938,0.355-2.681,1.001c-6.352,5.51-14.462,8.545-22.835,8.545
	c-5.927,0-11.51-1.492-16.4-4.115V512h42.042V400.544C241.269,400.542,241.227,400.532,241.184,400.532z"/>
<path style="fill:#E6E9ED;" d="M266.698,410.078c-8.371,0-16.481-3.035-22.834-8.545c-0.743-0.645-1.694-1.001-2.68-1.001
	c-0.043,0-0.085,0.01-0.127,0.012V512h42.041V405.963C278.208,408.586,272.625,410.078,266.698,410.078z"/>
<g>
	<path style="fill:#FFC7A9;" d="M359.783,184.384l0.016,75.001c12.461-1.074,22.241-11.522,22.241-24.261v-26.477
		C382.04,195.903,372.251,185.45,359.783,184.384z"/>
	<path style="fill:#FFC7A9;" d="M122.564,184.385c-12.459,1.077-22.236,11.525-22.236,24.262v26.477
		c0,12.737,9.777,23.185,22.236,24.261V184.385z"/>
	<path style="fill:#FFC7A9;" d="M144.036,152v70.773c0,43.494,28.583,80.308,67.987,92.692c-2.408-3.453-3.832-7.641-3.832-12.16
		v-29.44c0-1.682,1.363-3.046,3.045-3.046h59.895c1.682,0,3.046,1.364,3.046,3.046v29.44c0,4.52-1.424,8.708-3.832,12.16
		c39.404-12.384,67.985-49.199,67.985-92.692V152H144.036z"/>
</g>
<path style="opacity:0.15;fill:#440075;enable-background:new    ;" d="M177.097,290.013c0.584,0.552,1.347,0.842,2.121,0.842
	c0.414,0,0.83-0.083,1.224-0.253c1.133-0.488,1.866-1.604,1.866-2.838v-25.656c-5.333-12.027-8.311-25.331-8.311-39.335V152h-26.073
	v70.254C147.923,248.206,158.284,272.27,177.097,290.013z"/>
<path style="fill:#C5CCD3;" d="M358.175,152h-23.73v70.254c0,25.953-10.36,50.017-29.173,67.76
	c-0.585,0.552-1.348,0.842-2.123,0.842c-0.412,0-0.828-0.083-1.223-0.253c-1.133-0.488-1.865-1.604-1.865-2.837V252.16
	c0-9.949-8.095-18.044-18.045-18.044h-9.421v3.828c0,8.755-7.123,15.878-15.877,15.878h-19.272c-8.755,0-15.877-7.123-15.877-15.878
	v-3.828h-21.216c-9.949,0-18.044,8.094-18.044,18.044v35.604c0,1.233-0.733,2.349-1.866,2.838c-0.394,0.17-0.811,0.253-1.224,0.253
	c-0.773,0-1.536-0.29-2.121-0.842c-18.813-17.744-29.173-41.808-29.173-67.759V152h-23.731c-0.895,0-1.768-0.088-2.628-0.216v123.37
	c0,18.089,7.871,35.329,21.597,47.299c0.872,0.76,1.246,1.943,0.971,3.065c-0.684,2.787-1.03,5.658-1.03,8.535
	c0,19.048,14.89,34.758,33.896,35.766c0.823,0.044,1.595,0.415,2.144,1.03c0.548,0.616,0.828,1.424,0.777,2.248
	c-0.044,0.717-0.066,1.445-0.066,2.164c0,19.75,16.067,35.817,35.817,35.817c8.614,0,16.956-3.122,23.49-8.79
	c0.58-0.504,1.303-0.756,2.025-0.756c0.721,0,1.445,0.252,2.025,0.756c6.535,5.668,14.877,8.79,23.489,8.79
	c19.75,0,35.816-16.067,35.816-35.817c0-0.717-0.021-1.445-0.066-2.165c-0.05-0.823,0.229-1.631,0.779-2.247
	c0.547-0.615,1.319-0.986,2.143-1.029c19.006-1.008,33.896-16.718,33.896-35.766c0-2.879-0.346-5.751-1.03-8.534
	c-0.275-1.123,0.099-2.307,0.97-3.067c13.727-11.969,21.598-29.208,21.598-47.298v-123.37C359.942,151.912,359.07,152,358.175,152z"
	/>
<g>
	<path style="fill:#9EA7AF;" d="M168.953,181.085c-1.919,0-3.839-0.732-5.303-2.197c-2.929-2.929-2.929-7.677,0-10.607
		c14.232-14.233,37.394-14.234,51.629-0.001c2.929,2.929,2.93,7.678,0.001,10.607c-2.929,2.93-7.678,2.93-10.606,0.001
		c-8.387-8.386-22.031-8.386-30.417-0.001C172.791,180.353,170.872,181.085,168.953,181.085z"/>
	<path style="fill:#9EA7AF;" d="M313.414,181.085c-1.919,0-3.839-0.732-5.303-2.197c-4.067-4.066-9.469-6.306-15.21-6.306
		c-5.74,0-11.142,2.239-15.207,6.306c-2.93,2.93-7.679,2.93-10.606,0.001c-2.93-2.929-2.93-7.678-0.001-10.607
		c6.899-6.9,16.067-10.7,25.815-10.7c9.748,0,18.916,3.8,25.815,10.7c2.93,2.929,2.93,7.677,0.001,10.607
		C317.253,180.353,315.333,181.085,313.414,181.085z"/>
</g>
<g>
	<path style="fill:#775436;" d="M189.651,223.323c-11.791,0-21.383-9.617-21.383-21.438c0-11.82,9.592-21.437,21.383-21.437
		s21.383,9.617,21.383,21.437C211.034,213.706,201.442,223.323,189.651,223.323z"/>
	<path style="fill:#775436;" d="M292.716,223.323c-11.792,0-21.385-9.617-21.385-21.438c0-11.82,9.593-21.437,21.385-21.437
		c11.791,0,21.384,9.617,21.384,21.437C314.1,213.706,304.507,223.323,292.716,223.323z"/>
</g>
<path style="fill:#E6E9ED;" d="M358.175,153.123H124.192c-9.816,0-17.802-7.986-17.802-17.802v-15.158
	c0-9.816,7.986-17.802,17.802-17.802h233.982c9.815,0,17.802,7.986,17.802,17.802v15.158
	C375.977,145.137,367.99,153.123,358.175,153.123z"/>
<path style="opacity:0.15;fill:#440075;enable-background:new    ;" d="M143.414,135.321v-15.158
	c0-9.816,7.986-17.802,17.802-17.802h-37.024c-9.816,0-17.802,7.986-17.802,17.802v15.158c0,9.816,7.986,17.802,17.802,17.802
	h37.024C151.4,153.123,143.414,145.137,143.414,135.321z"/>
<path style="fill:#D2957D;" d="M256.717,254.823h-19.272c-9.306,0-16.877-7.572-16.877-16.878v-39.297c0-4.142,3.358-7.5,7.5-7.5
	s7.5,3.358,7.5,7.5v39.297c0,1.018,0.86,1.878,1.877,1.878h19.272c1.018,0,1.877-0.86,1.877-1.878v-7.326c0-4.142,3.357-7.5,7.5-7.5
	s7.5,3.358,7.5,7.5v7.326C273.595,247.251,266.023,254.823,256.717,254.823z"/>
<path style="fill:#FB8276;" d="M208.191,303.306c0,11.755,9.563,21.318,21.317,21.318h23.35c11.755,0,21.318-9.564,21.318-21.318
	v-15.129h-65.985V303.306z"/>
<path style="opacity:0.15;fill:#440075;enable-background:new    ;" d="M226.015,303.306v-15.129h-17.823v15.129
	c0,11.755,9.563,21.318,21.317,21.318h17.823C235.578,324.624,226.015,315.06,226.015,303.306z"/>
<path style="fill:#FFFFFF;" d="M271.131,270.82h-59.895c-1.682,0-3.045,1.364-3.045,3.046v16.13h65.985v-16.13
	C274.177,272.184,272.813,270.82,271.131,270.82z"/>
<g>
</g>
<g>
</g>
<g>
</g>
<g>
</g>
<g>
</g>
<g>
</g>
<g>
</g>
<g>
</g>
<g>
</g>
<g>
</g>
<g>
</g>
<g>
</g>
<g>
</g>
<g>
</g>
<g>
</g>
</svg>
