<?xml version="1.0" encoding="iso-8859-1"?>
<!-- Generator: Adobe Illustrator 19.0.0, SVG Export Plug-In . SVG Version: 6.00 Build 0)  -->
<svg version="1.1" id="Capa_1" xmlns="http://www.w3.org/2000/svg" xmlns:xlink="http://www.w3.org/1999/xlink" x="0px" y="0px"
	 viewBox="0 0 512.001 512.001" style="enable-background:new 0 0 512.001 512.001;" xml:space="preserve">
<path style="fill:#FBAB5F;" d="M142.547,512h-28.656c-4.608,0-8.344-3.736-8.344-8.344v-21.934
	c0-35.608,19.635-67.917,51.242-84.316l17.04,32.842c-19.296,10.012-31.283,29.736-31.283,51.474L142.547,512L142.547,512z"/>
<path style="opacity:0.15;enable-background:new    ;" d="M142.547,512h-28.656c-4.608,0-8.344-3.736-8.344-8.344v-21.934
	c0-35.608,19.635-67.917,51.242-84.316l17.04,32.842c-19.296,10.012-31.283,29.736-31.283,51.474L142.547,512L142.547,512z"/>
<path style="fill:#FBAB5F;" d="M369.453,512h28.656c4.608,0,8.344-3.736,8.344-8.344v-21.934c0-35.608-19.635-67.917-51.242-84.316
	l-17.04,32.842c19.296,10.012,31.283,29.736,31.283,51.474L369.453,512L369.453,512z"/>
<path style="opacity:0.15;enable-background:new    ;" d="M369.453,512h28.656c4.608,0,8.344-3.736,8.344-8.344v-21.934
	c0-35.608-19.635-67.917-51.242-84.316l-17.04,32.842c19.296,10.012,31.283,29.736,31.283,51.474L369.453,512L369.453,512z"/>
<path style="fill:#FBAB5F;" d="M256,322.422L256,322.422c-62.789,0-113.689,50.9-113.689,113.689V512H369.69v-75.888
	C369.689,373.323,318.789,322.422,256,322.422z"/>
<path style="opacity:0.15;enable-background:new    ;" d="M300.117,328.228l-31.915,62.897c-5.068,9.989-19.336,9.989-24.404,0
	l-31.915-62.897H300.117z"/>
<path style="opacity:0.1;enable-background:new    ;" d="M256,322.422L256,322.422c-31.165,0-59.396,12.543-79.933,32.852
	c24.057,12.04,51.2,18.826,79.933,18.826c28.732,0,55.876-6.786,79.933-18.826C315.396,334.966,287.164,322.422,256,322.422z"/>
<g>
	<circle style="fill:#E6B292;" cx="77.15" cy="179.09" r="31.541"/>
	<circle style="fill:#E6B292;" cx="434.85" cy="179.09" r="31.541"/>
	<circle style="fill:#E6B292;" cx="256" cy="178.85" r="178.85"/>
</g>
<path style="opacity:0.2;fill:#513130;enable-background:new    ;" d="M434.85,178.85C434.85,80.074,354.776,0,256,0
	S77.15,80.074,77.15,178.85h22.522c9.151,0,16.821-6.859,17.898-15.947c2.425-20.447,10.62-55.925,38.152-78.294
	c2.453-1.993,5.894-2.18,8.566-0.492c24.88,15.719,56.843,25.174,91.712,25.174s66.831-9.455,91.712-25.174
	c2.672-1.688,6.113-1.5,8.566,0.492c27.532,22.369,35.727,57.847,38.152,78.294c1.078,9.088,8.747,15.947,17.898,15.947H434.85z"/>
<g>
	<path style="fill:#4A5058;" d="M165.31,186.584c-4.143,0-7.5-3.357-7.5-7.5v-17.818c0-4.143,3.357-7.5,7.5-7.5s7.5,3.357,7.5,7.5
		v17.818C172.81,183.227,169.452,186.584,165.31,186.584z"/>
	<path style="fill:#4A5058;" d="M346.69,186.584c-4.142,0-7.5-3.357-7.5-7.5v-17.818c0-4.143,3.358-7.5,7.5-7.5
		c4.143,0,7.5,3.357,7.5,7.5v17.818C354.19,183.227,350.833,186.584,346.69,186.584z"/>
	<path style="fill:#4A5058;" d="M256,235.727c-9.208,0-18.105-3.859-24.409-10.588c-2.832-3.023-2.677-7.77,0.346-10.602
		c3.024-2.834,7.77-2.678,10.602,0.346c3.53,3.769,8.311,5.844,13.462,5.844s9.932-2.075,13.462-5.844
		c2.831-3.02,7.577-3.179,10.602-0.346c3.022,2.832,3.178,7.578,0.346,10.602C274.105,231.867,265.208,235.727,256,235.727z"/>
</g>
<path style="opacity:0.1;fill:#513130;enable-background:new    ;" d="M282.505,335.122c-98.776,0-178.85-80.074-178.85-178.85
	c0-48.278,19.136-92.081,50.228-124.258C107.506,64.328,77.15,118.04,77.15,178.85c0,98.776,80.074,178.85,178.85,178.85
	c50.498,0,96.101-20.936,128.622-54.592C355.667,323.283,320.471,335.122,282.505,335.122z"/>
<rect x="142.31" y="459.27" style="opacity:0.3;fill:#FFFFFF;enable-background:new    ;" width="227.38" height="52.731"/>
<g>
</g>
<g>
</g>
<g>
</g>
<g>
</g>
<g>
</g>
<g>
</g>
<g>
</g>
<g>
</g>
<g>
</g>
<g>
</g>
<g>
</g>
<g>
</g>
<g>
</g>
<g>
</g>
<g>
</g>
</svg>
