<?xml version="1.0" encoding="iso-8859-1"?>
<!-- Generator: Adobe Illustrator 19.0.0, SVG Export Plug-In . SVG Version: 6.00 Build 0)  -->
<svg version="1.1" id="Capa_1" xmlns="http://www.w3.org/2000/svg" xmlns:xlink="http://www.w3.org/1999/xlink" x="0px" y="0px"
	 viewBox="0 0 512 512" style="enable-background:new 0 0 512 512;" xml:space="preserve">
<path style="fill:#FCC892;" d="M75,415.6c-41.356,0-75-33.644-75-74.998c0-16.601,5.315-32.334,15.372-45.498
	c5.028-6.583,14.442-7.842,21.026-2.813c6.583,5.029,7.843,14.443,2.813,21.026C33.185,321.204,30,330.64,30,340.602
	c0,24.811,20.186,44.998,45,44.998c11.652,0,22.702-4.436,31.113-12.489c5.983-5.73,15.479-5.525,21.208,0.46
	c5.729,5.983,5.523,15.479-0.46,21.208C112.839,408.205,94.421,415.6,75,415.6z"/>
<path style="fill:#FCA953;" d="M437,415.6c-8.72,0-17.271-1.486-25.415-4.419c-7.795-2.807-11.839-11.4-9.032-19.194
	c2.807-7.794,11.402-11.841,19.194-9.032c4.876,1.756,10.008,2.646,15.253,2.646c24.814,0,45-20.187,45-44.998
	c0-9.961-3.185-19.395-9.21-27.283c-5.029-6.584-3.768-15.997,2.814-21.025c6.584-5.029,15.998-3.768,21.025,2.814
	c10.056,13.164,15.37,28.896,15.37,45.494C512,381.956,478.355,415.6,437,415.6z"/>
<path style="fill:#FDB8A4;" d="M448.801,208.868h-32.134c-8.284,0-15,6.716-15,15s6.716,15,15,15v66.399c-8.284,0-15,6.716-15,15
	s6.716,15,15,15h32.134c34.849,0,63.199-28.352,63.199-63.2S483.649,208.868,448.801,208.868z"/>
<path style="fill:#FDCDBF;" d="M96.133,305.267h-0.124l-0.551-66.405c8.227-0.068,14.876-6.752,14.876-14.994
	c0-8.284-6.716-15-15-15H63.2c-34.849,0-63.2,28.351-63.2,63.199s28.352,63.2,63.2,63.2h32.933c8.284,0,15-6.716,15-15
	S104.417,305.267,96.133,305.267z"/>
<path style="fill:#FEDFD5;" d="M351.041,440.389l-80.34-396.236c-1.099-5.415-5.084-9.788-10.373-11.382
	c-5.291-1.594-11.028-0.152-14.934,3.756L84.727,197.193c-2.813,2.813-4.393,6.628-4.393,10.606V304.2
	c0,96.863,78.804,175.667,175.666,175.667c30.88,0,61.258-8.131,87.851-23.514C349.427,453.128,352.321,446.702,351.041,440.389z"/>
<path style="fill:#FDCDBF;" d="M351.041,440.389l-80.34-396.236c-1.099-5.415-5.084-9.788-10.373-11.382
	c-1.426-0.429-2.883-0.632-4.328-0.632v447.728c30.88,0,61.258-8.131,87.851-23.514
	C349.427,453.128,352.321,446.702,351.041,440.389z"/>
<path style="fill:#3B211A;" d="M191.735,262.967c-3.949,0-7.819-1.6-10.609-4.39c-2.79-2.79-4.391-6.66-4.391-10.61
	c0-3.939,1.6-7.81,4.391-10.6c2.79-2.79,6.66-4.4,10.609-4.4c3.95,0,7.811,1.61,10.6,4.4c2.8,2.79,4.4,6.66,4.4,10.6
	c0,3.95-1.6,7.82-4.4,10.61C199.546,261.367,195.685,262.967,191.735,262.967z"/>
<g>
	<path style="fill:#FD413C;" d="M256,32.133c-96.862,0-175.666,78.804-175.666,175.666c0,8.284,6.716,15,15,15
		C192.196,222.799,271,143.995,271,47.133C271,38.849,264.284,32.133,256,32.133z"/>
	<path style="fill:#FD413C;" d="M256,383.467c-22.483,0-43.454-12.098-54.727-31.573c-4.15-7.17-1.703-16.347,5.467-20.496
		c7.166-4.151,16.346-1.702,20.496,5.467c5.929,10.241,16.95,16.603,28.764,16.603c2.97,0,5.903-0.388,8.719-1.152
		c7.998-2.17,16.236,2.553,18.406,10.547c2.17,7.995-2.552,16.235-10.547,18.406C267.201,382.727,261.623,383.467,256,383.467z"/>
</g>
<path style="fill:#DA0806;" d="M256,32.133c-8.284,0-15,6.716-15,15V304.2c0,96.863,78.804,175.667,175.667,175.667
	c8.284,0,15-6.716,15-15V207.799C431.667,110.937,352.863,32.133,256,32.133z"/>
<g>
</g>
<g>
</g>
<g>
</g>
<g>
</g>
<g>
</g>
<g>
</g>
<g>
</g>
<g>
</g>
<g>
</g>
<g>
</g>
<g>
</g>
<g>
</g>
<g>
</g>
<g>
</g>
<g>
</g>
</svg>
