<?xml version="1.0" encoding="iso-8859-1"?>
<!-- Generator: Adobe Illustrator 19.0.0, SVG Export Plug-In . SVG Version: 6.00 Build 0)  -->
<svg version="1.1" id="Capa_1" xmlns="http://www.w3.org/2000/svg" xmlns:xlink="http://www.w3.org/1999/xlink" x="0px" y="0px"
	 viewBox="0 0 512 512" style="enable-background:new 0 0 512 512;" xml:space="preserve">
<path style="fill:#203A74;" d="M383.53,165.29c5.815,1.09,11.008,3.942,15,7.986v-70.094c0-34.103-13.527-61.554-39.119-79.385
	C337.066,8.229,305.608,0,268.436,0c-37.17,0-68.628,8.229-90.972,23.797c-25.593,17.831-39.12,45.282-39.12,79.385v70.191
	c3.983-4.074,9.177-6.955,15-8.067v-62.125c0-29.394,11-51.962,32.694-67.077C205.856,22.298,234.348,15,268.436,15
	c34.09,0,62.583,7.298,82.4,21.104c21.694,15.115,32.694,37.683,32.694,67.077V165.29z"/>
<g>
	<path style="fill:#9EA7AF;" d="M166.69,234.33v-67.968c0-0.612,0.011-1.218,0.021-1.823c-2.537-0.741-5.217-1.146-7.992-1.146
		c-15.741,0-28.502,12.761-28.502,28.502v34.203c0,15.742,12.761,28.502,28.502,28.502c3.399,0,6.655-0.597,9.677-1.689
		C167.28,246.884,166.69,240.675,166.69,234.33z"/>
	<path style="fill:#9EA7AF;" d="M378.247,163.392c-2.809,0-5.52,0.415-8.084,1.174c0.011,0.596,0.021,1.192,0.021,1.795v67.968
		c0,6.334-0.587,12.534-1.7,18.551c3.046,1.111,6.333,1.718,9.763,1.718c15.741,0,28.504-12.761,28.504-28.502v-34.203
		C406.751,176.153,393.988,163.392,378.247,163.392z"/>
</g>
<path style="fill:#64CBFF;" d="M393.655,360.497H327.97l-26.539,46.27c-0.525,0.917-1.228,1.421-1.978,1.421
	c-0.676,0-1.363-0.418-1.934-1.177l-26.67-35.416c-0.983-1.305-2.298-2.024-3.702-2.024c-1.468,0-2.855,0.814-3.805,2.233
	l-23.496,35.09c-0.54,0.807-1.197,1.251-1.851,1.251c-0.682,0-1.342-0.482-1.857-1.357l-27.289-46.291h-65.631
	c-8.373,0-15.227,6.852-15.227,15.226v126.126c0,5.583,4.568,10.151,10.15,10.151h260.59c5.584,0,10.152-4.568,10.152-10.151
	V375.723C408.884,367.349,402.03,360.497,393.655,360.497z"/>
<g style="opacity:0.15;">
	<path style="fill:#440075;" d="M157.517,501.849V375.723c0-8.375,6.852-15.226,15.227-15.226h-29.525
		c-8.373,0-15.227,6.852-15.227,15.226v126.126c0,5.583,4.568,10.151,10.15,10.151h29.525
		C162.083,512,157.517,507.432,157.517,501.849z"/>
</g>
<path style="fill:#FCDB67;" d="M365.659,445v-13.698c0-1.674-1.369-3.045-3.045-3.045h-22.217c-1.676,0-3.045,1.371-3.045,3.045V445
	H365.659z"/>
<polygon style="fill:#EF5050;" points="277.751,420.803 259.39,420.803 240.046,512 296.892,512 "/>
<path style="fill:#C0272D;" d="M270.849,371.596c-0.983-1.305-2.298-2.024-3.702-2.024c-1.468,0-2.855,0.814-3.805,2.233
	l-17.043,25.453l13.138,23.546h18.315l12.363-23.624L270.849,371.596z"/>
<path style="fill:#046699;" d="M335.388,342.979l-5.051-27.422c-0.029-0.156-0.065-0.306-0.105-0.452
	c-17.145,13.147-38.571,20.973-61.795,20.973c-8.438,0-16.638-1.039-24.482-2.986c0.275,1.315,0.424,2.676,0.424,4.071
	c0,10.938-8.9,19.837-19.838,19.837h-18.913l29.649,50.295c1.416,2.404,3.848,2.475,5.4,0.155l23.496-35.09
	c1.553-2.32,4.197-2.393,5.877-0.163l26.67,35.416c1.68,2.23,4.189,2.073,5.578-0.349l31.484-54.891
	C335.171,349.952,335.894,345.724,335.388,342.979z"/>
<path style="fill:#775436;" d="M300.901,330.766c-10.199,3.443-21.118,5.311-32.465,5.311c-8.438,0-16.637-1.037-24.481-2.982
	c0.274,1.313,0.423,2.673,0.423,4.068c0,4.384-1.447,8.427-3.865,11.714l23.809,17.186c2.264,1.634,5.967,1.634,8.23,0.001
	l24.309-17.548c2.264-1.634,4.115-5.255,4.115-8.046v-8.972C300.976,331.241,300.939,331.003,300.901,330.766z"/>
<path style="fill:#312F56;" d="M268.436,44.55c-56.742,0-102.746,23.446-102.746,80.192v43.45C165.69,111.446,211.694,88,268.436,88
	c56.746,0,102.748,23.446,102.748,80.192v-43.45C371.185,67.997,325.183,44.55,268.436,44.55z"/>
<path style="opacity:0.15;fill:#030005;enable-background:new    ;" d="M196.631,106.244c8.163-39.106,42.869-57.841,86.355-61.15
	c-4.754-0.361-9.609-0.543-14.549-0.543c-56.742,0-102.746,23.446-102.746,80.192v43.45
	C165.69,139.394,177.544,119.177,196.631,106.244z"/>
<path style="fill:#775436;" d="M268.436,86.169c-56.742,0-102.746,23.446-102.746,80.192v67.968
	c0,34.095,16.612,64.306,42.18,82.997h16.67c9.921,0,18.141,7.328,19.588,16.851c7.795,1.891,15.933,2.901,24.308,2.901
	c56.746,0,102.748-46.003,102.748-102.748v-67.968C371.185,109.616,325.183,86.169,268.436,86.169z"/>
<path style="opacity:0.15;fill:#440075;enable-background:new    ;" d="M194.784,234.33v-67.968
	c0-51.807,38.346-75.854,88.201-79.648c-4.754-0.362-9.609-0.543-14.549-0.543c-56.742,0-102.746,23.446-102.746,80.192v67.968
	c0,34.095,16.612,64.306,42.18,82.997h16.67c9.921,0,18.141,7.328,19.588,16.851c7.795,1.891,15.933,2.901,24.308,2.901
	c4.94,0,9.795-0.356,14.549-1.03C233.13,328.98,194.784,286.136,194.784,234.33z"/>
<g>
	<path style="fill:#312F56;" d="M277.448,243.369h-8.865c-9.025,0-16.367-7.918-16.367-17.651V196.92c0-4.142,3.357-7.5,7.5-7.5
		c4.143,0,7.5,3.358,7.5,7.5v28.798c0,1.711,1.026,2.651,1.367,2.651h8.865c4.143,0,7.5,3.358,7.5,7.5
		S281.591,243.369,277.448,243.369z"/>
	<path style="fill:#312F56;" d="M232.905,179.415c-1.919,0-3.839-0.732-5.304-2.197c-9.195-9.196-24.162-9.196-33.357,0
		c-2.93,2.929-7.678,2.929-10.607,0s-2.929-7.678,0-10.607c15.047-15.046,39.525-15.046,54.572,0c2.929,2.929,2.929,7.678,0,10.607
		C236.744,178.682,234.824,179.415,232.905,179.415z"/>
	<path style="fill:#312F56;" d="M343.763,179.415c-1.919,0-3.838-0.732-5.303-2.196c-9.199-9.196-24.165-9.198-33.36-0.001
		c-2.93,2.929-7.678,2.929-10.607,0s-2.929-7.678,0-10.607c15.045-15.045,39.526-15.045,54.573-0.001
		c2.93,2.929,2.93,7.677,0.001,10.607C347.603,178.682,345.682,179.415,343.763,179.415z"/>
	<path style="fill:#312F56;" d="M215.169,226.706c-11.68,0-21.182-9.525-21.182-21.234c0-11.707,9.502-21.232,21.182-21.232
		c11.679,0,21.18,9.525,21.18,21.232C236.349,217.18,226.848,226.706,215.169,226.706z"/>
	<path style="fill:#312F56;" d="M317.648,226.706c-11.68,0-21.182-9.525-21.182-21.234c0-11.707,9.502-21.232,21.182-21.232
		c11.679,0,21.18,9.525,21.18,21.232C338.827,217.18,329.326,226.706,317.648,226.706z"/>
</g>
<path style="fill:#FB8276;" d="M256.933,313.55c-11.582,0-21.006-9.424-21.006-21.006v-29.009c0-1.657,1.344-3.001,3.002-3.001
	h59.018c1.656,0,3,1.344,3,3.001v29.009c0,11.582-9.422,21.006-21.006,21.006H256.933z"/>
<g>
	<path style="fill:#FFFFFF;" d="M297.946,260.534h-59.018c-1.658,0-3.002,1.344-3.002,3.001v15.894h65.02v-15.894
		C300.946,261.878,299.603,260.534,297.946,260.534z"/>
	<path style="fill:#FFFFFF;" d="M386.526,484.085c0,1.675-1.369,3.046-3.047,3.046H319.53c-1.676,0-3.047-1.371-3.047-3.046v-37.558
		c0-1.675,1.371-3.045,3.047-3.045h63.949c1.678,0,3.047,1.371,3.047,3.045V484.085z"/>
</g>
<path style="fill:#C5CCD3;" d="M362.163,472.299h-21.316c-4.143,0-7.5-3.358-7.5-7.5s3.357-7.5,7.5-7.5h21.316
	c4.143,0,7.5,3.358,7.5,7.5S366.306,472.299,362.163,472.299z"/>
<path style="fill:#203A74;" d="M185.649,337.163c0-2.418,0.436-4.731,1.196-6.893h-54.751c-7.707,0-13.977-6.27-13.977-13.976
	v-85.907c0-7.068,5.279-12.914,12.1-13.835v-15.074c-15.105,0.971-27.1,13.563-27.1,28.909v85.907
	c0,15.978,12.999,28.976,28.977,28.976h55.196C186.234,342.777,185.649,340.037,185.649,337.163z"/>
<path style="fill:#135693;" d="M224.54,358h-19.428c-11.49,0-20.836-9.347-20.836-20.837c0-11.49,9.346-20.837,20.836-20.837h19.428
	c11.49,0,20.838,9.347,20.838,20.837S236.03,358,224.54,358z"/>
<g>
</g>
<g>
</g>
<g>
</g>
<g>
</g>
<g>
</g>
<g>
</g>
<g>
</g>
<g>
</g>
<g>
</g>
<g>
</g>
<g>
</g>
<g>
</g>
<g>
</g>
<g>
</g>
<g>
</g>
</svg>
