<?xml version="1.0" encoding="iso-8859-1"?>
<!-- Generator: Adobe Illustrator 19.0.0, SVG Export Plug-In . SVG Version: 6.00 Build 0)  -->
<svg version="1.1" id="Capa_1" xmlns="http://www.w3.org/2000/svg" xmlns:xlink="http://www.w3.org/1999/xlink" x="0px" y="0px"
	 viewBox="0 0 512 512" style="enable-background:new 0 0 512 512;" xml:space="preserve">
<path style="fill:#775436;" d="M287.132,27.3c-1.727,0-3.433,0.081-5.129,0.199C268.599,10.744,247.993,0,224.868,0
	c-40.395,0-73.143,32.747-73.143,73.143v79.182C151.727,94.734,198.413,73,256,73s104.273,21.734,104.273,79.324v-51.882
	C360.273,60.047,327.526,27.3,287.132,27.3z"/>
<path style="opacity:0.15;fill:#440075;enable-background:new    ;" d="M173.808,73.143c0-36.627,26.923-66.965,62.058-72.307
	C232.277,0.293,228.607,0,224.868,0c-40.395,0-73.143,32.747-73.143,73.143v58.721c0,3.186,0.226,6.317,0.621,9.396
	c2.148-18.675,9.833-32.984,21.46-43.568V73.143H173.808z"/>
<path style="fill:#312F56;" d="M256,321.348c-9.339,0-18.39-1.252-27-3.589V360h54v-42.241
	C274.391,320.096,265.339,321.348,256,321.348z"/>
<rect x="229.001" y="358.25" style="fill:#135693;" width="54" height="153.75"/>
<path style="fill:#E6E9ED;" d="M230.247,358.245H128.92c-8.499,0-15.453,6.954-15.453,15.453v128
	c0,5.666,4.636,10.302,10.302,10.302h106.477V358.245H230.247z"/>
<g style="opacity:0.15;">
	<path style="fill:#440075;" d="M143.342,501.698v-128c0-8.499,6.954-15.453,15.453-15.453H128.92
		c-8.499,0-15.453,6.954-15.453,15.453v128c0,5.666,4.636,10.302,10.302,10.302h29.875C147.979,512,143.342,507.364,143.342,501.698
		z"/>
</g>
<path style="fill:#9EA7AF;" d="M181.37,446.976c2.609,0,5.128,0.396,7.5,1.127V365h-15v83.103
	C176.243,447.371,178.76,446.976,181.37,446.976z"/>
<circle style="fill:#FFFFFF;" cx="181.37" cy="472.48" r="19"/>
<circle style="fill:#9EA7AF;" cx="181.37" cy="472.48" r="19"/>
<path style="fill:#135693;" d="M181.37,498.977c-14.612,0-26.5-11.888-26.5-26.5s11.888-26.501,26.5-26.501
	c14.613,0,26.501,11.889,26.501,26.501S195.982,498.977,181.37,498.977z M181.37,460.976c-6.341,0-11.5,5.159-11.5,11.501
	c0,6.341,5.159,11.5,11.5,11.5c6.342,0,11.501-5.159,11.501-11.5C192.87,466.135,187.712,460.976,181.37,460.976z"/>
<path style="fill:#E6E9ED;" d="M383.081,358.245H281.755V512h106.477c5.666,0,10.302-4.636,10.302-10.302v-128
	C398.534,365.199,391.581,358.245,383.081,358.245z"/>
<path style="fill:#9EA7AF;" d="M349.961,423c2.582,0,5.091,0.313,7.5,0.885v-65.64c0-4.143-3.358-7.5-7.5-7.5
	c-4.142,0-7.5,3.357-7.5,7.5v65.64C344.87,423.313,347.38,423,349.961,423z"/>
<path style="fill:#135693;" d="M374.898,501.007h-8.832c-4.142,0-7.5-3.357-7.5-7.5s3.358-7.5,7.5-7.5h1.332v-31.985
	c0-9.615-7.822-17.438-17.438-17.438c-9.616,0-17.439,7.822-17.439,17.438v31.985h1.333c4.142,0,7.5,3.357,7.5,7.5
	s-3.358,7.5-7.5,7.5h-8.833c-4.142,0-7.5-3.357-7.5-7.5v-39.485c0-17.886,14.552-32.438,32.439-32.438
	c17.886,0,32.438,14.552,32.438,32.438v39.485C382.398,497.649,379.041,501.007,374.898,501.007z"/>
<g>
	<path style="fill:#C5CCD3;" d="M320.919,316.267c-1.67-3.116-5.927-5.667-9.463-5.667h-9.62c-6.354,3.16-13.073,5.691-20.082,7.497
		v151.819c1.197-0.147,2.363-0.852,3.274-2.125l48.205-67.31c2.059-2.874,1.174-6.557-1.966-8.183l-15.283-7.913
		c-3.141-1.626-3.087-4.18,0.119-5.675l24.78-11.552c3.206-1.494,4.462-5.267,2.794-8.384L320.919,316.267z"/>
	<path style="fill:#C5CCD3;" d="M210.165,310.6h-9.62c-3.535,0-7.793,2.551-9.463,5.667l-22.759,42.509
		c-1.668,3.117-0.412,6.89,2.794,8.384l24.78,11.552c3.206,1.495,3.259,4.049,0.119,5.675l-15.283,7.913
		c-3.14,1.626-4.024,5.309-1.966,8.183l48.205,67.31c0.911,1.273,2.077,1.978,3.274,2.125V318.097
		C223.238,316.291,216.519,313.76,210.165,310.6z"/>
</g>
<g>
	<path style="fill:#FFB98A;" d="M145.228,213.099v-28.57c0-4.89,3.137-9.049,7.499-10.602v-1.768h-13.223
		c-13.454,0-24.359,10.906-24.359,24.358v26.478c0,13.452,10.905,24.359,24.359,24.359h17.458c-1.07-3.612-1.941-7.308-2.615-11.07
		C148.693,230.193,145.228,222.045,145.228,213.099z"/>
	<path style="fill:#FFB98A;" d="M372.497,172.159h-13.224v1.768c4.363,1.553,7.5,5.712,7.5,10.602v28.57
		c0,8.946-3.466,17.095-9.12,23.187c-0.674,3.763-1.545,7.458-2.615,11.069h17.458c13.454,0,24.358-10.907,24.358-24.359v-26.478
		C396.856,183.065,385.951,172.159,372.497,172.159z"/>
</g>
<g>
	<path style="fill:#D19546;" d="M145.228,213.099v-11.403h-6.678c-4.142,0-7.5,3.357-7.5,7.5s3.358,7.5,7.5,7.5h6.869
		C145.294,215.513,145.228,214.314,145.228,213.099z"/>
	<path style="fill:#D19546;" d="M373.451,201.695h-6.677v11.403c0,1.215-0.066,2.414-0.191,3.597h6.868c4.142,0,7.5-3.357,7.5-7.5
		C380.951,205.053,377.594,201.695,373.451,201.695z"/>
</g>
<g>
	<path style="fill:#FFC7A9;" d="M275.403,186.267c-0.552,0-1,0.447-1,1v25.832c0,11.645,9.473,21.118,21.116,21.118h37.138
		c11.645,0,21.118-9.474,21.118-21.118v-25.832c0-0.553-0.448-1-1-1H275.403z"/>
	<path style="fill:#FFC7A9;" d="M156.488,173.267h82.848c6.209,0,11.261,5.052,11.261,11.262v17.183c0,0.553,0.448,1,1,1h8.807
		c0.552,0,1-0.447,1-1v-17.183c0-6.21,5.052-11.262,11.263-11.262h82.846c1.704,0,3.314,0.392,4.762,1.071v-23.416
		c0-57.59-46.685-79.324-104.273-79.324s-104.274,21.734-104.274,79.324v23.416C153.174,173.658,154.785,173.267,156.488,173.267z"
		/>
	<path style="fill:#FFC7A9;" d="M332.656,247.217h-37.138c-17.556,0-32.145-13.158-33.936-30.608
		c-0.052-0.51-0.482-0.897-0.995-0.897h-9.177c-0.513,0-0.942,0.388-0.995,0.897c-1.791,17.45-16.38,30.608-33.936,30.608h-37.138
		c-10.555,0-20.005-4.82-26.268-12.373c8.022,49.615,51.046,87.504,102.925,87.504c51.878,0,94.901-37.889,102.924-87.503
		C352.661,242.398,343.211,247.217,332.656,247.217z"/>
	<path style="fill:#FFC7A9;" d="M159.228,186.267c-0.552,0-1,0.447-1,1v25.832c0,11.645,9.473,21.118,21.116,21.118h37.138
		c11.643,0,21.116-9.474,21.116-21.118v-25.832c0-0.553-0.448-1-1-1H159.228z"/>
</g>
<path style="opacity:0.15;fill:#440075;enable-background:new    ;" d="M175.001,218.073v-67.151
	c0-53.647,40.515-76.176,92.613-79.01c-3.814-0.208-7.687-0.314-11.613-0.314c-57.588,0-104.274,21.734-104.274,79.324v67.151
	c0,57.59,46.686,104.274,104.274,104.274c3.927,0,7.799-0.228,11.613-0.652C215.516,315.897,175.001,271.721,175.001,218.073z"/>
<path style="fill:#D2957D;" d="M265.146,246.586h-8.998c-0.458,0-1.499-1.059-1.499-2.801v-28.074h-3.237
	c-0.513,0-0.942,0.388-0.995,0.897c-0.881,8.584-4.863,16.124-10.768,21.576v5.601c0,9.815,7.401,17.801,16.499,17.801h8.998
	c4.142,0,7.5-3.357,7.5-7.5S269.287,246.586,265.146,246.586z"/>
<g>
	<path style="fill:#775436;" d="M219.939,167.67c-1.919,0-3.839-0.732-5.303-2.197c-4.547-4.547-10.587-7.051-17.006-7.051
		c-6.419,0-12.459,2.504-17.005,7.051c-2.93,2.93-7.677,2.929-10.607,0.001c-2.929-2.929-2.929-7.678-0.001-10.606
		c7.38-7.381,17.186-11.445,27.613-11.445s20.233,4.064,27.613,11.445c2.929,2.929,2.929,7.678,0,10.606
		C223.779,166.938,221.859,167.67,219.939,167.67z"/>
	<path style="fill:#775436;" d="M287.826,167.67c-1.919,0-3.838-0.732-5.303-2.196c-2.929-2.929-2.93-7.678-0.001-10.606
		c7.38-7.381,17.186-11.445,27.612-11.445c10.426,0,20.233,4.064,27.613,11.444c2.929,2.93,2.929,7.678,0,10.607
		c-2.929,2.928-7.678,2.928-10.607,0c-4.547-4.548-10.587-7.052-17.007-7.052c-6.419,0-12.458,2.504-17.005,7.051
		C291.666,166.938,289.745,167.67,287.826,167.67z"/>
</g>
<g>
	<path style="fill:#203A74;" d="M203.954,229.144c-11.792,0-21.384-9.617-21.384-21.438c0-11.82,9.593-21.438,21.384-21.438
		c11.79,0,21.382,9.617,21.382,21.438C225.336,219.526,215.743,229.144,203.954,229.144z"/>
	<path style="fill:#203A74;" d="M303.929,229.144c-11.791,0-21.383-9.617-21.383-21.438c0-11.82,9.592-21.438,21.383-21.438
		c11.791,0,21.383,9.617,21.383,21.438C325.312,219.526,315.719,229.144,303.929,229.144z"/>
</g>
<path style="fill:#D2957D;" d="M282.141,289.611h-49.925c-4.142,0-7.5-3.357-7.5-7.5c0-4.142,3.358-7.5,7.5-7.5h49.925
	c4.142,0,7.5,3.358,7.5,7.5C289.641,286.254,286.284,289.611,282.141,289.611z"/>
<path style="fill:#312F56;" d="M355.511,172.267h-82.846c-6.762,0-12.263,5.501-12.263,12.262v17.183h-8.807v-17.183
	c0-6.761-5.5-12.262-12.261-12.262h-82.848c-6.76,0-12.26,5.501-12.26,12.262v28.57c0,19.364,15.753,35.118,35.116,35.118h37.138
	c18.143,0,33.117-13.832,34.931-31.506h9.177c1.814,17.674,16.787,31.506,34.931,31.506h37.138
	c19.364,0,35.118-15.754,35.118-35.118v-28.57C367.773,177.768,362.273,172.267,355.511,172.267z M236.596,213.099
	c0,11.093-9.024,20.118-20.116,20.118h-37.138c-11.092,0-20.116-9.025-20.116-20.118v-25.832h77.369L236.596,213.099
	L236.596,213.099z M352.773,213.099c0,11.093-9.025,20.118-20.118,20.118h-37.138c-11.092,0-20.116-9.025-20.116-20.118v-25.832
	h77.371L352.773,213.099L352.773,213.099z"/>
<g>
</g>
<g>
</g>
<g>
</g>
<g>
</g>
<g>
</g>
<g>
</g>
<g>
</g>
<g>
</g>
<g>
</g>
<g>
</g>
<g>
</g>
<g>
</g>
<g>
</g>
<g>
</g>
<g>
</g>
</svg>
