<?xml version="1.0" encoding="iso-8859-1"?>
<!-- Generator: Adobe Illustrator 19.0.0, SVG Export Plug-In . SVG Version: 6.00 Build 0)  -->
<svg version="1.1" id="Capa_1" xmlns="http://www.w3.org/2000/svg" xmlns:xlink="http://www.w3.org/1999/xlink" x="0px" y="0px"
	 viewBox="0 0 512 512" style="enable-background:new 0 0 512 512;" xml:space="preserve">
<path style="fill:#135693;" d="M423.087,209.02c11.484-5.333,18.44-16.941,17.722-29.573c-0.666-11.76-8.154-22.235-19.074-26.687
	c-1.654-0.674-2.873-2.117-3.258-3.862c-0.386-1.744,0.109-3.566,1.324-4.876c8.609-9.282,10.658-22.659,5.215-34.082
	c-5.061-10.624-15.947-17.487-27.754-17.487c0,0-0.002,0-0.004,0c-1.785,0-3.457-0.875-4.473-2.343
	c-1.017-1.469-1.25-3.345-0.62-5.015c4.463-11.849,1.296-25.006-8.063-33.52c-5.66-5.147-12.985-7.982-20.632-7.982
	c-4.03,0-7.96,0.771-11.672,2.295c-0.664,0.271-1.366,0.405-2.064,0.405c-1.038,0-2.072-0.297-2.968-0.882
	c-1.497-0.974-2.421-2.62-2.471-4.407c-0.354-12.657-8.262-23.639-20.147-27.98c-3.396-1.242-6.936-1.87-10.513-1.87
	c-7.985,0-15.839,3.218-21.545,8.827c-1.026,1.01-2.4,1.561-3.813,1.561c-0.34,0-0.682-0.032-1.023-0.099
	c-1.755-0.334-3.231-1.512-3.956-3.144C278.391,7.184,267.378,0,255.247,0c-0.392,0-0.786,0.008-1.183,0.023
	c-11.771,0.446-22.387,7.734-27.044,18.569c-0.702,1.642-2.171,2.832-3.924,3.184c-0.357,0.073-0.717,0.108-1.074,0.108
	c-1.395,0-2.753-0.538-3.777-1.524c-5.672-5.47-13.448-8.607-21.332-8.607c-4.37,0-8.621,0.925-12.64,2.746
	c-10.725,4.865-17.795,15.628-18.012,27.419c-0.03,1.787-0.938,3.443-2.425,4.433c-0.907,0.601-1.958,0.91-3.014,0.91
	c-0.681,0-1.364-0.127-2.013-0.388c-3.623-1.441-7.448-2.174-11.37-2.174c-8.527,0-16.444,3.41-22.294,9.604
	c-8.09,8.563-10.561,21.197-6.295,32.192c0.646,1.667,0.43,3.543-0.57,5.022c-1.004,1.479-2.67,2.371-4.454,2.388
	c-12.662,0.113-23.793,7.813-28.356,19.613c-4.247,10.986-1.757,23.618,6.353,32.182c1.225,1.298,1.74,3.116,1.37,4.863
	c-0.368,1.748-1.573,3.206-3.22,3.896c-11.678,4.895-19.068,16.23-18.827,28.883c0.222,11.774,7.309,22.524,18.053,27.387
	c1.63,0.735,2.791,2.227,3.11,3.983c0.32,1.758-0.243,3.561-1.509,4.823c-8.956,8.95-11.509,22.237-6.497,33.859
	c4.658,10.815,15.284,18.087,27.07,18.522c1.787,0.066,3.427,1.003,4.387,2.51c0.962,1.506,1.122,3.389,0.429,5.035
	c-4.904,11.673-2.24,24.94,6.79,33.802c5.768,5.66,13.398,8.775,21.481,8.776h0.002c3.63,0,7.193-0.63,10.59-1.873
	c0.605-0.222,1.239-0.332,1.869-0.332c1.108,0,2.209,0.339,3.139,0.997c1.461,1.031,2.322,2.711,2.304,4.499
	c-0.127,12.661,7.358,23.933,19.068,28.719c3.499,1.431,7.164,2.187,10.898,2.271l11.961-31.39c0.174-0.457-0.008-0.973-0.429-1.219
	c-31.542-18.486-51.136-52.65-51.136-89.159v-58.46c0-50.717,37.642-79.805,103.273-79.805c65.633,0,103.275,29.088,103.275,79.805
	v58.46c0,36.374-18.579,69.387-49.698,88.308c-0.4,0.243-0.578,0.731-0.428,1.175l10.7,31.632c0.2,0.004,0.397,0.021,0.599,0.021
	c4.777,0,9.383-1.094,13.692-3.249c10.537-5.267,17.193-16.287,16.96-28.076c-0.034-1.785,0.809-3.476,2.258-4.522
	c0.94-0.676,2.054-1.025,3.183-1.025c0.611,0,1.228,0.103,1.819,0.313c3.298,1.171,6.754,1.765,10.275,1.765
	c8.852,0,17.266-3.814,23.087-10.462c7.762-8.861,9.754-21.581,5.078-32.406c-0.71-1.642-0.567-3.525,0.378-5.04
	c0.946-1.516,2.576-2.47,4.36-2.555c12.648-0.592,23.477-8.706,27.596-20.67c3.831-11.138,0.861-23.666-7.565-31.919
	c-1.275-1.25-1.857-3.049-1.554-4.81C420.318,211.273,421.465,209.773,423.087,209.02z"/>
<path style="fill:#E6E9ED;" d="M344.469,364.169h-21.854c0.368,2.315-0.236,5.303-1.524,7.037l-27.799,37.483
	c-0.628,0.845-1.442,1.31-2.293,1.31c-0.001,0,0,0-0.001,0c-0.843,0-1.653-0.458-2.283-1.289l-30.188-39.91
	c-1.005-1.327-2.354-2.058-3.801-2.058c-1.484,0-2.898,0.803-3.876,2.202l-27.744,39.683c-0.604,0.865-1.392,1.341-2.214,1.341
	c-0.801,0-1.578-0.453-2.191-1.275l-27.887-37.491c-1.298-1.744-1.849-4.747-1.381-7.032h-21.902
	c-17.04,0-30.905,13.864-30.905,30.905V506.85c0,2.845,2.306,5.15,5.15,5.15h228.447c2.845,0,5.15-2.306,5.15-5.15V395.074
	C375.374,378.033,361.509,364.169,344.469,364.169z"/>
<path style="fill:#EF5050;" d="M344.469,364.169h-21.854c0.368,2.315-0.236,5.303-1.524,7.037l-27.799,37.483
	c-0.628,0.845-1.442,1.31-2.293,1.31c-0.001,0,0,0-0.001,0c-0.843,0-1.653-0.458-2.283-1.289l-5.43-7.18
	c-8.109,4.416-17.4,6.935-27.285,6.935c-10.076,0-19.538-2.612-27.756-7.189l-5.138,7.349c-0.604,0.865-1.392,1.341-2.214,1.341
	c-0.801,0-1.578-0.453-2.191-1.275L190.814,371.2c-1.298-1.744-1.849-4.747-1.381-7.032h-21.902
	c-17.04,0-30.905,13.864-30.905,30.905V506.85c0,2.845,2.306,5.15,5.15,5.15h228.447c2.845,0,5.15-2.306,5.15-5.15V395.074
	C375.374,378.033,361.509,364.169,344.469,364.169z"/>
<path style="opacity:0.15;fill:#440075;enable-background:new    ;" d="M189.292,365.294c0.024-0.388,0.067-0.766,0.142-1.125
	h-21.902c-17.04,0-30.905,13.864-30.905,30.905V506.85c0,2.845,2.306,5.15,5.15,5.15h30.002c-2.845,0-5.15-2.306-5.15-5.15V395.074
	C166.628,380.888,176.241,368.91,189.292,365.294z"/>
<path style="fill:#C5CCD3;" d="M309.755,322.707c-15.669,9.59-34.077,15.124-53.755,15.124c-19.06,0-36.926-5.196-52.269-14.237
	l-14.96,39.259c-1.009,2.646-0.45,6.673,1.24,8.945l27.888,37.491c1.691,2.272,4.402,2.233,6.026-0.089l27.744-39.683
	c1.624-2.322,4.351-2.372,6.06-0.114l30.189,39.911c1.71,2.259,4.488,2.245,6.177-0.029l27.799-37.483
	c1.688-2.274,2.325-6.333,1.418-9.016L309.755,322.707z"/>
<path style="opacity:0.15;fill:#440075;enable-background:new    ;" d="M218.387,362.853l10.875-28.539
	c-9.06-2.431-17.629-6.064-25.53-10.72l-14.96,39.259c-1.009,2.646-0.45,6.673,1.24,8.945l27.888,37.491
	c1.691,2.272,4.402,2.233,6.026-0.089l11.397-16.301l-15.696-21.102C217.935,369.525,217.377,365.499,218.387,362.853z"/>
<g>
	<path style="fill:#B2762F;" d="M152.727,234.557v-48.964h-7.938c-12.844,0-23.254,10.412-23.254,23.254v25.276
		c0,12.842,10.41,23.254,23.254,23.254h10.483C153.609,250.033,152.727,242.396,152.727,234.557z"/>
	<path style="fill:#B2762F;" d="M367.213,185.593h-7.938v48.964c0,7.84-0.883,15.477-2.546,22.82h10.483
		c12.844,0,23.254-10.412,23.254-23.254v-25.276C390.467,196.005,380.057,185.593,367.213,185.593z"/>
</g>
<g>
	<circle style="fill:#FFC502;" cx="145.25" cy="262.18" r="15.453"/>
	<circle style="fill:#FFC502;" cx="366.75" cy="262.18" r="15.453"/>
</g>
<g>
	<path style="fill:#775436;" d="M372.714,213.436h-13.439v15h13.439c4.143,0,7.5-3.357,7.5-7.5
		C380.214,216.794,376.856,213.436,372.714,213.436z"/>
	<path style="fill:#775436;" d="M152.727,213.436h-13.439c-4.143,0-7.5,3.357-7.5,7.5s3.357,7.5,7.5,7.5h13.439V213.436z"/>
	<path style="fill:#775436;" d="M151.727,176.097c0-57.59,46.686-80.805,104.273-80.805l0,0c57.59,0,104.275,23.215,104.275,80.805
		v58.46c0,57.589-46.686,104.274-104.275,104.274l0,0c-57.588,0-104.273-46.686-104.273-104.274L151.727,176.097L151.727,176.097z"
		/>
</g>
<g style="opacity:0.15;">
	<path style="fill:#440075;" d="M181.374,234.557v-58.46c0-13.818,2.691-25.654,7.573-35.668c-9.844,2.59-20.449,4.354-31.852,5.024
		c-3.48,8.888-5.369,19.07-5.369,30.644v58.46c0,57.589,46.686,104.274,104.273,104.274c5.033,0,9.98-0.364,14.824-1.054
		C220.259,330.579,181.374,287.112,181.374,234.557z"/>
</g>
<path style="fill:#135693;" d="M263.051,95.425c-15.105,15.373-36.082,31.227-63.73,40.606c-0.309,0.727-2.031,1.446-2.321,2.188
	c43.554-2.282,78.463-18.463,103.198-37.448C288.792,97.604,276.256,95.876,263.051,95.425z"/>
<g>
	<path style="fill:#312F56;" d="M156,145.525c50.913-2.667,86.123-27.087,108.239-50.021c-3.066-0.14-6.169-0.213-9.308-0.213
		C208.886,95.292,169.812,110.137,156,145.525z"/>
	<path style="fill:#312F56;" d="M265.146,250.474h-8.999c-0.458,0-1.499-1.059-1.499-2.802v-22.566c0-0.11-0.012-0.218-0.017-0.327
		h-3.22c-0.513,0-0.942,0.388-0.995,0.898c-0.881,8.584-4.864,16.125-10.769,21.576v0.419c0,9.815,7.401,17.802,16.499,17.802h8.999
		c4.143,0,7.5-3.357,7.5-7.5C272.646,253.831,269.289,250.474,265.146,250.474z"/>
	<path style="fill:#312F56;" d="M219.939,174.904c-1.92,0-3.839-0.732-5.304-2.197c-4.547-4.547-10.586-7.051-17.005-7.051
		s-12.458,2.504-17.005,7.051c-2.93,2.93-7.679,2.929-10.607,0.001c-2.93-2.929-2.93-7.678-0.001-10.606
		c7.38-7.381,17.187-11.445,27.612-11.445c10.426,0,20.232,4.064,27.612,11.445c2.929,2.929,2.929,7.678-0.001,10.606
		C223.778,174.172,221.858,174.904,219.939,174.904z"/>
	<path style="fill:#312F56;" d="M332.444,174.904c-1.92,0-3.839-0.732-5.304-2.197c-4.547-4.547-10.586-7.051-17.005-7.051
		c-6.42,0-12.46,2.504-17.008,7.052c-2.929,2.929-7.678,2.928-10.606-0.001c-2.929-2.929-2.929-7.678,0.001-10.606
		c7.381-7.38,17.188-11.444,27.613-11.444c10.426,0,20.232,4.064,27.612,11.445c2.929,2.929,2.929,7.678-0.001,10.606
		C336.283,174.172,334.363,174.904,332.444,174.904z"/>
</g>
<g>
	<path style="fill:#203A74;" d="M200.863,240.872c-11.792,0-21.386-9.617-21.386-21.438s9.594-21.438,21.386-21.438
		c11.789,0,21.381,9.617,21.381,21.438S212.652,240.872,200.863,240.872z"/>
	<path style="fill:#203A74;" d="M309.03,240.872c-11.791,0-21.384-9.617-21.384-21.438s9.593-21.438,21.384-21.438
		c11.79,0,21.383,9.617,21.383,21.438S320.82,240.872,309.03,240.872z"/>
</g>
<g>
	<path style="fill:#C0272D;" d="M256,439.69c-1.97,0-3.91-0.8-5.3-2.199c-1.4-1.391-2.2-3.33-2.2-5.301c0-1.98,0.8-3.909,2.2-5.3
		c1.39-1.399,3.33-2.2,5.3-2.2s3.91,0.801,5.3,2.2c1.4,1.391,2.2,3.33,2.2,5.3c0,1.971-0.8,3.9-2.2,5.301
		C259.899,438.89,257.97,439.69,256,439.69z"/>
	<path style="fill:#C0272D;" d="M256,467.479c-1.97,0-3.91-0.81-5.3-2.199c-1.4-1.4-2.2-3.33-2.2-5.301c0-1.979,0.8-3.91,2.2-5.31
		c1.39-1.39,3.33-2.19,5.3-2.19s3.91,0.801,5.3,2.19c1.4,1.399,2.2,3.33,2.2,5.31c0,1.971-0.8,3.9-2.2,5.301
		C259.91,466.67,257.97,467.479,256,467.479z"/>
	<path style="fill:#C0272D;" d="M256,495.26c-1.97,0-3.91-0.8-5.3-2.19c-1.4-1.399-2.2-3.329-2.2-5.31c0-1.97,0.8-3.9,2.2-5.3
		c1.39-1.4,3.33-2.2,5.3-2.2s3.91,0.8,5.3,2.2c1.4,1.399,2.2,3.33,2.2,5.3c0,1.98-0.8,3.91-2.2,5.31
		C259.91,494.46,257.97,495.26,256,495.26z"/>
</g>
<path style="fill:#312F56;" d="M355.513,181.335h-82.847c-6.762,0-12.263,5.501-12.263,12.262v17.183h-8.807v-17.183
	c0-6.761-5.5-12.262-12.261-12.262h-82.849c-6.761,0-12.261,5.501-12.261,12.262v28.57c0,19.364,15.753,35.118,35.115,35.118h37.139
	c18.144,0,33.117-13.832,34.932-31.506h9.176c1.814,17.674,16.788,31.506,34.932,31.506h37.139
	c19.363,0,35.117-15.754,35.117-35.118v-28.57C367.775,186.836,362.274,181.335,355.513,181.335z M236.597,222.167
	c0,11.093-9.024,20.118-20.116,20.118h-37.139c-11.092,0-20.115-9.025-20.115-20.118v-25.832h77.37L236.597,222.167L236.597,222.167
	z M352.775,222.167c0,11.093-9.024,20.118-20.117,20.118h-37.139c-11.092,0-20.116-9.025-20.116-20.118v-25.832h77.372V222.167z"/>
<path style="fill:#FB8276;" d="M256,319.237c-21.678,0-39.316-17.637-39.316-39.314c0-2.209,1.791-3.999,3.998-3.999h70.637
	c2.207,0,3.998,1.79,3.998,3.999C295.316,301.601,277.678,319.237,256,319.237z"/>
<path style="fill:#EF5050;" d="M282.586,308.856c-7.005-6.442-16.343-10.382-26.586-10.382c-10.241,0-19.579,3.939-26.584,10.382
	c7.005,6.44,16.343,10.381,26.584,10.381C266.243,319.237,275.581,315.297,282.586,308.856z"/>
<path style="fill:#FFC502;" d="M256,62.326c-57.588,0-104.273,23.215-104.273,80.805v32.966c0-57.59,46.686-80.805,104.273-80.805
	c57.59,0,104.275,23.215,104.275,80.805v-32.966C360.275,85.541,313.59,62.326,256,62.326z"/>
<g style="opacity:0.15;">
	<path style="fill:#440075;" d="M270.824,62.869c-4.844-0.362-9.791-0.543-14.824-0.543c-57.588,0-104.273,23.215-104.273,80.805
		v32.966c0-31.33,13.82-52.484,35.694-65.264C200.219,80.484,232.093,65.766,270.824,62.869z"/>
</g>
<g>
</g>
<g>
</g>
<g>
</g>
<g>
</g>
<g>
</g>
<g>
</g>
<g>
</g>
<g>
</g>
<g>
</g>
<g>
</g>
<g>
</g>
<g>
</g>
<g>
</g>
<g>
</g>
<g>
</g>
</svg>
