<?xml version="1.0" encoding="iso-8859-1"?>
<!-- Generator: Adobe Illustrator 19.0.0, SVG Export Plug-In . SVG Version: 6.00 Build 0)  -->
<svg version="1.1" id="Capa_1" xmlns="http://www.w3.org/2000/svg" xmlns:xlink="http://www.w3.org/1999/xlink" x="0px" y="0px"
	 viewBox="0 0 512 512" style="enable-background:new 0 0 512 512;" xml:space="preserve">
<circle style="fill:#BCBCBC;" cx="272.888" cy="47.18" r="47.18"/>
<circle style="opacity:0.1;enable-background:new    ;" cx="272.888" cy="47.18" r="47.18"/>
<path style="fill:#DF85C6;" d="M378.653,512h25.691c4.362,0,7.899-3.536,7.899-7.899v-19.689c0-32.102-15.511-62.225-41.641-80.872
	l-1.599-1.141l-19.509,27.345l1.59,1.134c17.299,12.342,27.568,32.283,27.568,53.534V512H378.653z"/>
<path style="opacity:0.15;enable-background:new    ;" d="M378.653,512h25.691c4.362,0,7.899-3.536,7.899-7.899v-19.689
	c0-32.102-15.511-62.225-41.641-80.872l-1.599-1.141l-19.509,27.345l1.59,1.134c17.299,12.342,27.568,32.283,27.568,53.534V512
	H378.653z"/>
<path style="fill:#DF85C6;" d="M96.793,322.167l13.9,76.397c1.778,9.77,10.903,16.589,20.778,15.537l42.671-4.57
	c11.459-1.234,21.757,7.071,22.985,18.538c1.228,11.466-7.072,21.757-18.538,22.985l-42.671,4.57
	c-2.16,0.231-4.309,0.344-6.44,0.344c-28.955,0-54.588-20.887-59.871-49.93l-13.9-76.397L96.793,322.167z"/>
<path style="opacity:0.15;enable-background:new    ;" d="M96.793,322.167l13.9,76.397c1.778,9.77,10.903,16.589,20.778,15.537
	l42.671-4.57c11.459-1.234,21.757,7.071,22.985,18.538c1.228,11.466-7.072,21.757-18.538,22.985l-42.671,4.57
	c-2.16,0.231-4.309,0.344-6.44,0.344c-28.955,0-54.588-20.887-59.871-49.93l-13.9-76.397L96.793,322.167z"/>
<path style="fill:#DF85C6;" d="M272.886,330.554L272.886,330.554c60.096,0,108.813,48.717,108.813,108.813V512H171.972
	c-4.362,0-7.899-3.536-7.899-7.899v-64.734C164.073,379.271,212.79,330.554,272.886,330.554z"/>
<g style="opacity:0.1;">
	<path d="M214.096,434.271c-1.718,0-3.445-0.587-4.856-1.788l-8.809-7.494c-3.155-2.684-3.537-7.418-0.852-10.572
		c2.684-3.155,7.418-3.536,10.572-0.852l8.809,7.494c3.155,2.684,3.537,7.417,0.853,10.572
		C218.329,433.375,216.219,434.271,214.096,434.271z"/>
	<path d="M342.455,486.09c-2.371,0-4.704-1.121-6.161-3.214c-2.368-3.399-1.531-8.073,1.868-10.44l10.761-7.494
		c3.399-2.368,8.074-1.531,10.44,1.868c2.368,3.399,1.531,8.073-1.868,10.44l-10.761,7.494
		C345.429,485.654,343.934,486.09,342.455,486.09z"/>
	<path d="M334.307,418.631c-2.585,0-5.101-1.338-6.493-3.736l-6.23-10.73c-2.08-3.582-0.862-8.172,2.72-10.252
		c3.582-2.079,8.171-0.862,10.252,2.721l6.23,10.73c2.08,3.582,0.862,8.172-2.721,10.252
		C336.88,418.304,335.585,418.631,334.307,418.631z"/>
	<path d="M200.389,492.451c-0.98,0-1.975-0.193-2.933-0.601c-3.812-1.622-5.587-6.026-3.965-9.837l4.782-11.241
		c1.622-3.812,6.028-5.585,9.837-3.965c3.812,1.622,5.587,6.026,3.965,9.837l-4.782,11.241
		C206.08,490.739,203.306,492.451,200.389,492.451z"/>
</g>
<path style="opacity:0.1;enable-background:new    ;" d="M326.192,350.46l-34.119,42.709c-9.831,12.307-28.543,12.307-38.374,0
	L219.58,350.46L326.192,350.46L326.192,350.46z"/>
<path style="opacity:0.1;enable-background:new    ;" d="M272.886,330.554L272.886,330.554c-31.184,0-59.301,13.121-79.14,34.14
	c23.373,13.216,50.373,20.768,79.14,20.768s55.767-7.552,79.14-20.768C332.186,343.676,304.07,330.554,272.886,330.554z"/>
<g>
	<circle style="fill:#FFD4B8;" cx="111.858" cy="208.42" r="28.399"/>
	<circle style="fill:#FFD4B8;" cx="433.918" cy="208.42" r="28.399"/>
	<circle style="fill:#FFD4B8;" cx="272.888" cy="208.21" r="161.03"/>
</g>
<path style="fill:#BCBCBC;" d="M272.886,47.183c-71.653,0-132.364,46.804-153.257,111.503
	c33.633,19.039,100.582,35.715,153.257-16.699c52.675,52.414,119.624,35.738,153.257,16.699
	C405.249,93.986,344.538,47.183,272.886,47.183z"/>
<g>
	<path style="fill:#4A5058;" d="M272.886,268.19c-8.497,0-16.705-3.56-22.522-9.769c-2.832-3.023-2.677-7.769,0.345-10.601
		c3.023-2.831,7.769-2.677,10.601,0.345c3.036,3.24,7.147,5.025,11.576,5.025s8.54-1.785,11.576-5.025
		c2.831-3.022,7.578-3.177,10.601-0.345c3.022,2.832,3.177,7.578,0.345,10.601C289.591,264.629,281.382,268.19,272.886,268.19z"/>
	<path style="fill:#4A5058;" d="M205.777,223.489c-4.142,0-7.5-3.358-7.5-7.5c0-3.885-3.161-7.046-7.045-7.046
		c-3.885,0-7.046,3.161-7.046,7.046c0,4.142-3.358,7.5-7.5,7.5s-7.5-3.358-7.5-7.5c0-12.156,9.89-22.046,22.046-22.046
		s22.045,9.89,22.045,22.046C213.277,220.131,209.919,223.489,205.777,223.489z"/>
	<path style="fill:#4A5058;" d="M369.085,223.489c-4.142,0-7.5-3.358-7.5-7.5c0-3.885-3.161-7.046-7.046-7.046
		s-7.046,3.161-7.046,7.046c0,4.142-3.358,7.5-7.5,7.5s-7.5-3.358-7.5-7.5c0-12.156,9.89-22.046,22.046-22.046
		c12.156,0,22.046,9.89,22.046,22.046C376.585,220.131,373.227,223.489,369.085,223.489z"/>
</g>
<path style="opacity:0.1;fill:#513130;enable-background:new    ;" d="M296.75,348.913c-88.934,0-161.029-72.095-161.029-161.029
	c0-43.467,17.229-82.906,45.223-111.877c-41.756,29.094-69.087,77.454-69.087,132.205c0,88.934,72.095,161.029,161.029,161.029
	c45.466,0,86.525-18.849,115.806-49.152C362.622,338.253,330.933,348.913,296.75,348.913z"/>
<path style="fill:#FFD4B8;" d="M76.226,346.789c-9.897,0-18.685-7.064-20.519-17.146l-5.683-31.237
	c-2.064-11.346,5.46-22.216,16.805-24.281c11.348-2.067,22.217,5.46,24.281,16.805l5.683,31.237
	c2.064,11.346-5.46,22.217-16.805,24.281C78.724,346.678,77.466,346.789,76.226,346.789z"/>
<g style="opacity:0.1;">
	<path style="fill:#513130;" d="M181.299,271.658c-4.142,0-7.5-3.358-7.5-7.5s3.358-7.5,7.5-7.5c6.707,0,20.985-7.781,27.777-15.139
		c2.808-3.042,7.554-3.234,10.598-0.423c3.043,2.81,3.233,7.554,0.423,10.598C212.565,259.853,194.415,271.658,181.299,271.658z"/>
	<path style="fill:#513130;" d="M364.473,271.658c-13.115,0-31.266-11.804-38.799-19.964c-2.81-3.043-2.62-7.788,0.423-10.598
		c3.044-2.809,7.789-2.62,10.598,0.423c6.792,7.357,21.07,15.139,27.777,15.139c4.142,0,7.5,3.358,7.5,7.5
		S368.615,271.658,364.473,271.658z"/>
</g>
<g>
	<circle style="fill:#FFFFFF;" cx="272.888" cy="429.28" r="7.494"/>
	<circle style="fill:#FFFFFF;" cx="272.888" cy="484.34" r="7.494"/>
</g>
<g>
</g>
<g>
</g>
<g>
</g>
<g>
</g>
<g>
</g>
<g>
</g>
<g>
</g>
<g>
</g>
<g>
</g>
<g>
</g>
<g>
</g>
<g>
</g>
<g>
</g>
<g>
</g>
<g>
</g>
</svg>
