<?xml version="1.0" encoding="iso-8859-1"?>
<!-- Generator: Adobe Illustrator 19.0.0, SVG Export Plug-In . SVG Version: 6.00 Build 0)  -->
<svg version="1.1" id="Capa_1" xmlns="http://www.w3.org/2000/svg" xmlns:xlink="http://www.w3.org/1999/xlink" x="0px" y="0px"
	 viewBox="0 0 512 512" style="enable-background:new 0 0 512 512;" xml:space="preserve">
<g>
	<path style="fill:#C5CCD3;" d="M429.494,122.592h-18.078c3.066,12.356,4.705,25.271,4.705,38.563
		c0,20.78-4.049,41.277-11.792,60.335h25.165c8.498,0,15.453-6.954,15.453-15.453v-67.992
		C444.947,129.545,437.992,122.592,429.494,122.592z"/>
	<path style="fill:#C5CCD3;" d="M95.811,161.154c0-13.292,1.639-26.206,4.705-38.563h-18.01c-8.5,0-15.453,6.954-15.453,15.453
		v67.992c0,8.499,6.953,15.453,15.453,15.453h25.097C99.859,202.432,95.811,181.935,95.811,161.154z"/>
	<path style="fill:#C5CCD3;" d="M400.328,278.124h-34.983c-8.755,8.191-18.427,15.41-28.835,21.478
		c-0.39,0.227-0.579,0.688-0.462,1.124c0.118,0.436,0.514,0.739,0.966,0.739h16.264c5.13,0,9.303,4.173,9.303,9.302v10.317
		c0,0.552,0.447,1,1,1h6.646c5.129,0,9.301,4.173,9.301,9.302v27.858h28.381c0.918,0,1.825,0.048,2.723,0.129v-70.949
		C410.631,282.76,405.994,278.124,400.328,278.124z"/>
	<path style="fill:#C5CCD3;" d="M132.402,331.387c0-5.129,4.173-9.302,9.303-9.302h6.646c0.553,0,1-0.448,1-1v-10.317
		c0-5.129,4.173-9.302,9.303-9.302h16.264c0.452,0,0.848-0.303,0.966-0.739c0.117-0.436-0.072-0.897-0.462-1.124
		c-10.408-6.068-20.08-13.288-28.835-21.478H111.67c-5.666,0-10.301,4.636-10.301,10.302v70.949
		c0.897-0.082,1.805-0.129,2.723-0.129h28.311v-27.86H132.402z"/>
</g>
<path style="fill:#E6E9ED;" d="M174.918,300.466h-16.264c-5.666,0-10.303,4.636-10.303,10.302v12.199H363.58v-12.199
	c0-5.666-4.637-10.302-10.303-10.302h-16.264c47.906-27.932,80.107-79.858,80.107-139.311C417.121,72.151,344.967,0,255.965,0
	S94.811,72.151,94.811,161.154C94.811,220.607,127.012,272.534,174.918,300.466z"/>
<circle style="fill:#203A74;" cx="255.97" cy="161.15" r="92.91"/>
<path style="fill:#C5CCD3;" d="M196.361,233.165c16.262,13.235,37.006,21.172,59.604,21.172c22.615,0,43.373-7.95,59.639-21.201
	c-8.469-7.115-19.387-11.406-31.314-11.406h-56.578C215.768,221.731,204.836,226.034,196.361,233.165z"/>
<g style="opacity:0.15;">
	<path style="fill:#030005;" d="M192.77,161.154c0-46.255,33.805-84.609,78.053-91.722c-4.838-0.778-9.799-1.188-14.857-1.188
		c-51.311,0-92.908,41.597-92.908,92.91s41.598,92.91,92.908,92.91c5.059,0,10.02-0.411,14.857-1.188
		C226.574,245.764,192.77,207.409,192.77,161.154z"/>
</g>
<path style="fill:#9EA7AF;" d="M380.527,359.245v-27.858c0-5.666-4.635-10.302-10.301-10.302H141.705
	c-5.666,0-10.303,4.636-10.303,10.302v27.858H380.527z"/>
<path style="opacity:0.15;fill:#2F1744;enable-background:new    ;" d="M161.402,359.245v-27.858
	c0-5.666,4.635-10.302,10.301-10.302h-29.998c-5.666,0-10.303,4.636-10.303,10.302v27.858H161.402z"/>
<g>
	<path style="fill:#C5CCD3;" d="M117.643,502v-44.016h-9.101c-7.583,0-14.526-2.856-19.823-7.54V502c0,5.5,4.5,10,10,10h28.924
		C122.143,512,117.643,507.5,117.643,502z"/>
	<path style="fill:#C5CCD3;" d="M403.458,457.984h-9.101V502c0,5.5-4.5,10-10,10h28.924c5.5,0,10-4.5,10-10v-51.556
		C417.984,455.127,411.041,457.984,403.458,457.984z"/>
</g>
<g>
	<path style="fill:#9EA7AF;" d="M407.908,358.245h-10.375V464.08h10.375c16.998,0,30.906-13.907,30.906-30.905V389.15
		C438.815,372.152,424.906,358.245,407.908,358.245z"/>
	<path style="fill:#9EA7AF;" d="M114.467,358.245h-10.375c-16.998,0-30.906,13.907-30.906,30.905v44.024
		c0,16.998,13.908,30.905,30.906,30.905h10.375V358.245z"/>
</g>
<path style="fill:#E6E9ED;" d="M113.467,358.245v143.453c0,5.666,4.635,10.302,10.301,10.302H388.23
	c5.666,0,10.303-4.636,10.303-10.302V358.245H113.467z"/>
<path style="fill:#C5CCD3;" d="M338.09,512v-92.718c0-5.666-4.635-10.302-10.301-10.302H184.211
	c-5.666,0-10.303,4.636-10.303,10.302V512H338.09z"/>
<g style="opacity:0.15;">
	<path style="fill:#2F1744;" d="M213.762,408.98h-29.551c-5.666,0-10.303,4.636-10.303,10.302V512h29.553v-92.718
		C203.461,413.616,208.096,408.98,213.762,408.98z"/>
</g>
<g>
	<path style="fill:#9EA7AF;" d="M262.072,446.63h-56.66c-4.143,0-7.5-3.358-7.5-7.5s3.357-7.5,7.5-7.5h56.66
		c4.143,0,7.5,3.358,7.5,7.5S266.215,446.63,262.072,446.63z"/>
	<path style="fill:#9EA7AF;" d="M262.072,469.536h-56.66c-4.143,0-7.5-3.358-7.5-7.5s3.357-7.5,7.5-7.5h56.66
		c4.143,0,7.5,3.358,7.5,7.5S266.215,469.536,262.072,469.536z"/>
	<path style="fill:#9EA7AF;" d="M262.072,492.442h-56.66c-4.143,0-7.5-3.358-7.5-7.5s3.357-7.5,7.5-7.5h56.66
		c4.143,0,7.5,3.358,7.5,7.5C269.572,489.085,266.215,492.442,262.072,492.442z"/>
</g>
<path style="fill:#6BC1DD;" d="M309.829,488.903c0,2.23-1.827,4.055-4.056,4.055h-19.441c-2.229,0-4.054-1.824-4.054-4.055v-52.704
	c0-2.229,1.824-4.055,4.054-4.055h19.441c2.229,0,4.056,1.825,4.056,4.055V488.903z"/>
<path style="fill:#FFFFFF;" d="M255.965,44.313c-64.527,0-116.84,52.312-116.84,116.841c0,64.53,52.313,116.842,116.84,116.842
	c64.529,0,116.844-52.311,116.844-116.842C372.809,96.625,320.494,44.313,255.965,44.313z M255.965,254.064
	c-51.311,0-92.908-41.597-92.908-92.91s41.598-92.91,92.908-92.91c51.313,0,92.912,41.597,92.912,92.91
	S307.277,254.064,255.965,254.064z"/>
<g>
</g>
<g>
</g>
<g>
</g>
<g>
</g>
<g>
</g>
<g>
</g>
<g>
</g>
<g>
</g>
<g>
</g>
<g>
</g>
<g>
</g>
<g>
</g>
<g>
</g>
<g>
</g>
<g>
</g>
</svg>
