<?xml version="1.0" encoding="iso-8859-1"?>
<!-- Generator: Adobe Illustrator 19.0.0, SVG Export Plug-In . SVG Version: 6.00 Build 0)  -->
<svg version="1.1" id="Capa_1" xmlns="http://www.w3.org/2000/svg" xmlns:xlink="http://www.w3.org/1999/xlink" x="0px" y="0px"
	 viewBox="0 0 512 512" style="enable-background:new 0 0 512 512;" xml:space="preserve">
<path style="fill:#D19546;" d="M440.803,444.054c-1.039-0.93-1.207-2.479-0.389-3.607c5.349-7.379,8.176-16.097,8.176-25.211
	c0-23.755-19.368-43.083-43.176-43.083c-4.045,0-45.846,0-45.846,0c-2.305,0-4.346-1.551-4.963-3.772
	c-6.07-21.846-25.303-39.838-50.877-49.949c-14.458,6.943-30.646,10.836-47.728,10.836s-33.27-3.893-47.727-10.836
	c-25.574,10.111-44.807,28.103-50.877,49.95c-0.617,2.221-2.658,3.771-4.963,3.771c0,0-41.801,0-45.846,0
	c-23.808,0-43.176,19.328-43.176,43.083c0,9.114,2.827,17.832,8.176,25.211c0.818,1.128,0.65,2.677-0.389,3.607
	c-8.77,7.848-13.802,19.065-13.802,30.772v31.948c0,2.886,2.345,5.226,5.238,5.226h386.73c2.894,0,5.238-2.34,5.238-5.226v-31.948
	C454.604,463.119,449.573,451.902,440.803,444.054z"/>
<path style="opacity:0.15;fill:#440075;enable-background:new    ;" d="M85.064,506.774v-31.948
	c0-11.707,5.031-22.924,13.802-30.772c1.039-0.93,1.207-2.479,0.389-3.607c-5.349-7.379-8.176-16.097-8.176-25.211
	c0-23.755,19.368-43.083,43.176-43.083c-11.822,0-25.444,0-27.667,0c-23.808,0-43.176,19.328-43.176,43.083
	c0,9.114,2.827,17.832,8.176,25.211c0.818,1.128,0.65,2.677-0.389,3.607c-8.77,7.848-13.802,19.065-13.802,30.772v31.948
	c0,2.886,2.345,5.226,5.238,5.226h27.667C87.409,512,85.064,509.66,85.064,506.774z"/>
<path style="fill:#5DC647;" d="M454.065,468.217h-37.064v22.664h37.603v-16.055C454.604,472.599,454.421,470.389,454.065,468.217z"
	/>
<g>
	<path style="fill:#B2762F;" d="M418.028,512v-74.688c0-4.142-3.357-7.5-7.5-7.5s-7.5,3.358-7.5,7.5V512H418.028z"/>
	<path style="fill:#B2762F;" d="M108.974,512v-74.688c0-4.142-3.358-7.5-7.5-7.5c-4.143,0-7.5,3.358-7.5,7.5V512H108.974z"/>
	<path style="fill:#B2762F;" d="M288.817,324.299v20.06c0,4.142,3.357,7.5,7.5,7.5s7.5-3.358,7.5-7.5V318.39
		C298.999,320.708,293.989,322.689,288.817,324.299z"/>
	<path style="fill:#B2762F;" d="M208.185,318.39v25.969c0,4.142,3.357,7.5,7.5,7.5s7.5-3.358,7.5-7.5v-20.06
		C218.013,322.689,213.003,320.708,208.185,318.39z"/>
</g>
<path style="fill:#D19546;" d="M144.397,221c1.261,60.561,50.744,109.267,111.604,109.267c60.862,0,110.343-48.707,111.603-109.267
	H144.397z"/>
<g>
	<path style="fill:#960B15;" d="M333.506,221v77.968c20.511-19.792,33.448-47.367,34.087-77.968L333.506,221L333.506,221z"/>
	<path style="fill:#960B15;" d="M144.409,221c0.639,30.601,13.576,58.175,34.087,77.968V221H144.409z"/>
</g>
<g>
	<path style="fill:#B2762F;" d="M242.608,406.695c-4.143,0-7.5-3.358-7.5-7.5c0-4.953-4.029-8.983-8.982-8.983h-46.358
		c-4.143,0-7.5-3.358-7.5-7.5s3.357-7.5,7.5-7.5h46.358c13.224,0,23.982,10.759,23.982,23.983
		C250.108,403.337,246.751,406.695,242.608,406.695z"/>
	<path style="fill:#B2762F;" d="M269.394,406.695c-4.143,0-7.5-3.358-7.5-7.5c0-13.224,10.759-23.983,23.982-23.983h47.389
		c4.143,0,7.5,3.358,7.5,7.5s-3.357,7.5-7.5,7.5h-47.389c-4.953,0-8.982,4.03-8.982,8.983
		C276.894,403.337,273.536,406.695,269.394,406.695z"/>
	<path style="fill:#B2762F;" d="M256.001,491.17c-4.143,0-7.5-3.358-7.5-7.5v-58.72c0-4.142,3.357-7.5,7.5-7.5s7.5,3.358,7.5,7.5
		v58.72C263.501,487.812,260.144,491.17,256.001,491.17z"/>
</g>
<path style="fill:#EF5050;" d="M213.966,296.141c-2.233,0-4.042-1.809-4.042-4.042v-29.101c0-9.361,7.615-16.977,16.976-16.977
	h58.203c9.36,0,16.975,7.616,16.975,16.977v29.101c0,2.233-1.809,4.042-4.042,4.042H213.966z"/>
<path style="fill:#FFFFFF;" d="M285.103,246.021H226.9c-9.36,0-16.976,7.616-16.976,16.977v10.509h92.154v-10.509
	C302.078,253.637,294.463,246.021,285.103,246.021z"/>
<g>
	<rect x="233.221" y="246.02" style="fill:#C5CCD3;" width="15" height="27.485"/>
	<rect x="263.781" y="246.02" style="fill:#C5CCD3;" width="15" height="27.485"/>
</g>
<path style="fill:#C0272D;" d="M135.545,222.849c-2.845,0-5.15-2.306-5.15-5.151v-92.746C130.395,56.053,186.741,0,256.001,0
	s125.606,56.053,125.606,124.952v92.746c0,2.845-2.306,5.151-5.15,5.151H135.545z"/>
<path style="fill:#5DC647;" d="M184.919,76.749c11.947,0,21.633-9.686,21.633-21.634V10.098
	C190,17.177,175.273,27.694,163.284,40.744v14.37C163.284,67.063,172.971,76.749,184.919,76.749z"/>
<path style="opacity:0.15;fill:#440075;enable-background:new    ;" d="M161.225,217.698v-92.746
	c0-63.708,48.178-116.427,110.19-124.011C266.363,0.324,261.22,0,256.001,0c-69.26,0-125.606,56.053-125.606,124.952v92.746
	c0,2.845,2.306,5.151,5.15,5.151h30.83C163.53,222.849,161.225,220.543,161.225,217.698z"/>
<path style="fill:#5DC647;" d="M308.54,11.471v43.644c0,11.948,9.686,21.634,21.634,21.634s21.634-9.686,21.634-21.634v-10.87
	C340.019,30.418,325.271,19.167,308.54,11.471z"/>
<path style="fill:#FFC502;" d="M375.398,112.869c-4.884-5.691-11.981-8.955-19.471-8.955h-31.151
	c-29.665,0-53.881,10.589-68.774,29.935c-14.893-19.345-39.108-29.935-68.774-29.935h-31.151c-7.49,0-14.587,3.264-19.468,8.951
	c-4.88,5.685-7.041,13.199-5.921,20.671c0.391,2.563,2.704,16.062,9.872,30.164c11.938,23.483,31.201,36.417,54.245,36.417h37.262
	l19.651-34.037c1.184-2.051,2.705-3.18,4.284-3.18c1.579,0,3.101,1.129,4.284,3.18l19.65,34.037h37.263
	c23.044,0,42.308-12.934,54.246-36.419c7.168-14.104,9.481-27.601,9.88-30.217C382.436,126.065,380.274,118.55,375.398,112.869z"/>
<path style="fill:#203A74;" d="M359.556,126.525c-0.91-1.06-2.234-1.669-3.629-1.669h-31.151c-17.248,0-40.647,4.249-54.174,24.489
	c-5.261,7.873-7.346,15.74-8.168,20.456l5.41,9.372h49.354c15.001,0,27.32-8.638,35.627-24.98
	c5.966-11.738,7.76-23.334,7.835-23.823C360.867,128.988,360.464,127.584,359.556,126.525z"/>
<path style="opacity:0.15;enable-background:new    ;" d="M324.775,124.856c-17.248,0-40.647,4.249-54.174,24.489
	c-5.261,7.873-7.346,15.74-8.168,20.456l5.41,9.372h28.998c-1.3,0-2.544-0.53-3.446-1.469s-1.386-2.206-1.335-3.509
	c0.017-0.512,0.565-12.679,8.698-24.85c13.525-20.24,36.926-24.489,54.174-24.489L324.775,124.856L324.775,124.856z"/>
<path style="fill:#203A74;" d="M249.568,169.801c-0.822-4.716-2.907-12.583-8.168-20.456c-13.526-20.24-36.926-24.489-54.174-24.489
	h-31.151c-1.395,0-2.719,0.609-3.629,1.669c-0.908,1.059-1.311,2.462-1.104,3.844c0.075,0.489,1.869,12.085,7.835,23.823
	c8.307,16.342,20.626,24.98,35.627,24.98h49.354L249.568,169.801z"/>
<path style="opacity:0.15;enable-background:new    ;" d="M189.716,154.192c-5.965-11.738-7.76-23.334-7.835-23.823
	c-0.207-1.382,0.196-2.786,1.105-3.844c0.91-1.06,2.234-1.669,3.629-1.669h-30.539c-1.395,0-2.719,0.609-3.629,1.669
	c-0.908,1.059-1.311,2.462-1.104,3.844c0.075,0.489,1.869,12.085,7.835,23.823c8.307,16.342,20.626,24.98,35.627,24.98h30.539
	C210.342,179.173,198.024,170.535,189.716,154.192z"/>
<g>
	<path style="fill:#960B15;" d="M365.245,121.638c-2.338-2.721-5.734-4.282-9.318-4.282h-31.151
		c-34.562,0-51.928,15.129-60.409,27.822c-4.241,6.347-6.676,12.654-8.075,17.748c1.474,0.13,2.884,1.229,3.994,3.154l11.889,20.593
		h45.024c17.754,0,32.78-10.328,42.313-29.083c6.342-12.477,8.354-24.725,8.566-26.109
		C368.607,127.942,367.576,124.356,365.245,121.638z M346.14,150.794c-7.042,13.854-16.779,20.879-28.941,20.879H269.73
		c0.616-3.83,2.346-11.034,7.107-18.16c11.686-17.486,32.52-21.156,47.939-21.156h27.862
		C351.757,136.338,349.816,143.56,346.14,150.794z"/>
	<path style="fill:#960B15;" d="M251.717,166.08c1.11-1.924,2.52-3.024,3.994-3.154c-1.4-5.095-3.834-11.401-8.075-17.748
		c-8.481-12.692-25.848-27.821-60.409-27.821h-31.151c-3.584,0-6.98,1.561-9.321,4.286c-2.328,2.714-3.359,6.3-2.825,9.868
		c0.209,1.356,2.222,13.605,8.563,26.08c9.532,18.754,24.56,29.082,42.313,29.082h45.023L251.717,166.08z M165.862,150.794
		c-3.679-7.239-5.62-14.467-6.499-18.438h27.863c15.419,0,36.253,3.671,47.938,21.156c4.763,7.126,6.491,14.33,7.108,18.161h-47.469
		C182.642,171.673,172.904,164.648,165.862,150.794z"/>
</g>
<path style="fill:#5DC647;" d="M294.215,222.849l-33.064-57.269c-2.832-4.907-7.469-4.907-10.301,0l-33.064,57.268L294.215,222.849
	L294.215,222.849z"/>
<path style="fill:#FFC502;" d="M273.983,88.081c-0.491,0-0.985-0.117-1.438-0.355l-16.544-8.699l-16.544,8.698
	c-0.453,0.238-0.947,0.355-1.439,0.355c-0.642,0-1.278-0.199-1.817-0.59c-0.952-0.691-1.428-1.863-1.229-3.023l3.16-18.422
	l-13.386-13.047c-0.843-0.821-1.146-2.049-0.782-3.168s1.331-1.934,2.495-2.103l18.498-2.688l8.272-16.762
	c0.521-1.055,1.596-1.723,2.771-1.723c1.176,0,2.25,0.668,2.772,1.723l8.272,16.762l18.498,2.688
	c1.164,0.169,2.131,0.984,2.495,2.103c0.363,1.119,0.061,2.347-0.782,3.168l-13.386,13.047l3.16,18.422
	c0.198,1.16-0.277,2.332-1.229,3.023C275.262,87.881,274.625,88.081,273.983,88.081z"/>
<g>
</g>
<g>
</g>
<g>
</g>
<g>
</g>
<g>
</g>
<g>
</g>
<g>
</g>
<g>
</g>
<g>
</g>
<g>
</g>
<g>
</g>
<g>
</g>
<g>
</g>
<g>
</g>
<g>
</g>
</svg>
