<?xml version="1.0" encoding="iso-8859-1"?>
<!-- Generator: Adobe Illustrator 19.0.0, SVG Export Plug-In . SVG Version: 6.00 Build 0)  -->
<svg version="1.1" id="Capa_1" xmlns="http://www.w3.org/2000/svg" xmlns:xlink="http://www.w3.org/1999/xlink" x="0px" y="0px"
	 viewBox="0 0 512 512" style="enable-background:new 0 0 512 512;" xml:space="preserve">
<path style="fill:#FDB8A4;" d="M448.8,241h-32.133c-8.284,0-15,6.716-15,15c0,8.242,6.649,14.927,14.876,14.994l-0.548,66.406
	h-0.124c-8.284,0-15,6.716-15,15s6.716,15,15,15H448.8c34.849,0,63.2-28.351,63.2-63.199C512,269.352,483.648,241,448.8,241z"/>
<path style="fill:#FDCDBF;" d="M96.132,337.4h-0.124l-0.551-66.406c8.227-0.068,14.876-6.752,14.876-14.994c0-8.284-6.716-15-15-15
	H63.2C28.352,241,0,269.352,0,304.201S28.352,367.4,63.2,367.4h32.932c8.284,0,15-6.716,15-15S104.416,337.4,96.132,337.4z"/>
<path style="fill:#D9D9D9;" d="M255.999,0c-52.566,0-95.333,42.767-95.333,95.33c-0.002,8.049,1.007,16.059,2.999,23.806
	c2.063,8.024,10.244,12.855,18.263,10.792c6.773-1.742,11.254-7.843,11.25-14.527H318.82c-0.004,6.685,4.477,12.785,11.25,14.527
	c1.253,0.322,2.509,0.477,3.746,0.477c6.682,0,12.775-4.498,14.517-11.269c1.989-7.734,2.999-15.741,3.001-23.802
	C351.333,42.767,308.566,0,255.999,0z"/>
<path style="fill:#BDBDBD;" d="M256.003,0v115.4h62.816c-0.004,6.685,4.477,12.785,11.25,14.527
	c1.253,0.322,2.509,0.477,3.746,0.477c6.682,0,12.775-4.498,14.517-11.269c1.989-7.734,2.999-15.741,3.001-23.802
	C351.333,42.768,308.568,0.002,256.003,0z"/>
<path style="fill:#FEDFD5;" d="M427.272,245.394L266.605,84.728c-5.857-5.857-15.355-5.857-21.213,0L84.727,245.394
	c-2.813,2.813-4.394,6.628-4.394,10.606v80.334C80.333,433.196,159.137,512,255.999,512c96.863,0,175.667-78.804,175.667-175.666
	V256C431.666,252.021,430.086,248.206,427.272,245.394z"/>
<path style="fill:#FDCDBF;" d="M427.272,245.394L266.605,84.728c-2.928-2.928-6.765-4.392-10.603-4.394V512
	c96.861-0.002,175.663-78.805,175.663-175.666V256C431.666,252.021,430.086,248.206,427.272,245.394z"/>
<path style="fill:#FD413C;" d="M255.999,431.667c-22.484,0-43.454-12.099-54.728-31.573c-4.149-7.17-1.702-16.347,5.468-20.497
	c7.169-4.149,16.346-1.702,20.497,5.468c5.927,10.241,16.948,16.602,28.763,16.602s22.839-6.364,28.768-16.608
	c4.15-7.17,13.327-9.616,20.496-5.469c7.17,4.149,9.618,13.325,5.469,20.496C299.458,419.565,278.486,431.667,255.999,431.667z"/>
<path style="fill:#F2F2F2;" d="M255.999,80.334c-96.862,0-175.666,78.804-175.666,175.666c0,8.284,6.716,15,15,15
	c71.611,0,133.343-43.078,160.666-104.677C283.322,227.922,345.054,271,416.666,271c8.284,0,15-6.716,15-15
	C431.666,159.138,352.862,80.334,255.999,80.334z"/>
<path style="fill:#D9D9D9;" d="M256.003,80.334v85.998C283.328,227.926,345.057,271,416.666,271c8.284,0,15-6.716,15-15
	C431.666,159.139,352.864,80.336,256.003,80.334z"/>
<path style="fill:#DA0806;" d="M305.263,379.59c-7.171-4.15-16.347-1.701-20.497,5.469c-5.928,10.243-16.95,16.606-28.765,16.607v30
	c22.485-0.001,43.456-12.101,54.729-31.58C314.881,392.916,312.433,383.74,305.263,379.59z"/>
<circle style="fill:#F2F2F2;" cx="175.67" cy="274" r="80.33"/>
<circle style="fill:#D9D9D9;" cx="336.33" cy="274" r="80.33"/>
<path style="fill:#3B211A;" d="M336.333,178.667c-33.703,0-63.376,17.58-80.334,44.051c-16.957-26.471-46.631-44.051-80.333-44.051
	c-52.566,0-95.333,42.767-95.333,95.333s42.767,95.333,95.333,95.333c33.702,0,63.376-17.58,80.333-44.051
	c16.958,26.471,46.631,44.051,80.334,44.051c52.566,0,95.333-42.767,95.333-95.333S388.9,178.667,336.333,178.667z M175.666,339.333
	c-36.024,0-65.333-29.309-65.333-65.333s29.309-65.333,65.333-65.333s65.333,29.309,65.333,65.333S211.691,339.333,175.666,339.333z
	 M336.333,339.333c-36.025,0-65.334-29.309-65.334-65.333s29.309-65.333,65.334-65.333c36.024,0,65.333,29.309,65.333,65.333
	S372.358,339.333,336.333,339.333z"/>
<path style="fill:#0F0301;" d="M336.333,178.667c-33.703,0-63.376,17.58-80.334,44.051v102.564
	c16.958,26.471,46.631,44.051,80.334,44.051c52.566,0,95.333-42.767,95.333-95.333S388.9,178.667,336.333,178.667z M336.333,339.333
	c-36.025,0-65.334-29.309-65.334-65.333s29.309-65.333,65.334-65.333c36.024,0,65.333,29.309,65.333,65.333
	S372.358,339.333,336.333,339.333z"/>
<g>
</g>
<g>
</g>
<g>
</g>
<g>
</g>
<g>
</g>
<g>
</g>
<g>
</g>
<g>
</g>
<g>
</g>
<g>
</g>
<g>
</g>
<g>
</g>
<g>
</g>
<g>
</g>
<g>
</g>
</svg>
