<?xml version="1.0" encoding="iso-8859-1"?>
<!-- Generator: Adobe Illustrator 19.0.0, SVG Export Plug-In . SVG Version: 6.00 Build 0)  -->
<svg version="1.1" id="Capa_1" xmlns="http://www.w3.org/2000/svg" xmlns:xlink="http://www.w3.org/1999/xlink" x="0px" y="0px"
	 viewBox="0 0 512 512" style="enable-background:new 0 0 512 512;" xml:space="preserve">
<path style="fill:#FDB8A4;" d="M448.801,192.799h-32.93c-8.284,0-15,6.716-15,15s6.716,15,15,15h0.124l0.548,66.408
	c-8.227,0.066-14.876,6.751-14.876,14.993c0,8.284,6.716,15,15,15h32.134C483.649,319.2,512,290.849,512,256
	C512,221.15,483.649,192.799,448.801,192.799z"/>
<path style="fill:#FDCDBF;" d="M95.458,289.207l0.549-66.408h0.124c8.284,0,15-6.716,15-15s-6.716-15-15-15H63.2
	C28.352,192.799,0,221.15,0,256c0,34.849,28.352,63.2,63.2,63.2h32.134c8.284,0,15-6.716,15-15
	C110.334,295.958,103.685,289.273,95.458,289.207z"/>
<path style="fill:#FEDFD5;" d="M407.434,134.785c-15.381-26.096-37.367-47.904-63.583-63.069
	c-7.169-4.146-16.346-1.698-20.495,5.474c-1.37,2.369-2.006,4.957-2.004,7.511H190.647c0.003-2.554-0.634-5.142-2.004-7.511
	c-4.148-7.172-13.326-9.619-20.495-5.474c-26.215,15.165-48.201,36.975-63.581,63.069c-15.854,26.896-24.233,57.7-24.233,89.08
	v112.468C80.334,433.196,159.138,512,256,512c96.863,0,175.667-78.804,175.667-175.667V223.865
	C431.667,192.485,423.287,161.682,407.434,134.785z"/>
<path style="fill:#FDCDBF;" d="M407.434,134.785c-15.381-26.096-37.367-47.904-63.583-63.069
	c-7.169-4.146-16.346-1.698-20.495,5.474c-1.37,2.369-2.006,4.957-2.004,7.511H256V512c96.863,0,175.667-78.804,175.667-175.667
	V223.865C431.667,192.485,423.287,161.682,407.434,134.785z"/>
<path style="fill:#3B211A;" d="M191.735,246.907c-3.949,0-7.819-1.6-10.609-4.39c-2.79-2.8-4.391-6.66-4.391-10.61
	s1.6-7.82,4.391-10.61c2.8-2.79,6.66-4.39,10.609-4.39c3.95,0,7.811,1.6,10.6,4.39c2.8,2.801,4.4,6.66,4.4,10.61
	s-1.6,7.811-4.4,10.61C199.546,245.308,195.685,246.907,191.735,246.907z"/>
<path style="fill:#0F0301;" d="M320.266,246.907c-3.95,0-7.81-1.6-10.61-4.39c-2.789-2.8-4.39-6.67-4.39-10.61
	c0-3.95,1.601-7.809,4.39-10.61c2.801-2.79,6.66-4.39,10.61-4.39s7.811,1.6,10.61,4.39c2.79,2.801,4.39,6.66,4.39,10.61
	s-1.6,7.811-4.39,10.61C328.076,245.308,324.216,246.907,320.266,246.907z"/>
<g>
	<path style="fill:#FD413C;" d="M332.898,492.435c-8.284,0-15-6.716-15-15V362.216c-19.261-9.038-40.483-13.782-61.897-13.782
		c-21.415,0-42.638,4.744-61.899,13.782v115.219c0,8.284-6.716,15-15,15s-15-6.716-15-15V353.011c0-5.486,2.995-10.535,7.811-13.165
		c25.649-14.008,54.727-21.412,84.089-21.412c29.36,0,58.438,7.404,84.087,21.412c4.815,2.63,7.811,7.679,7.811,13.165v124.424
		C347.898,485.719,341.183,492.435,332.898,492.435z"/>
	<path style="fill:#FD413C;" d="M343.846,23.517C317.252,8.132,286.876,0,256,0s-61.252,8.132-87.845,23.517
		c-4.635,2.681-7.488,7.629-7.488,12.983v99.006c0,8.284,6.716,15,15,15h160.667c8.284,0,15-6.716,15-15V36.5
		C351.334,31.146,348.479,26.197,343.846,23.517z"/>
</g>
<path style="fill:#FDCDBF;" d="M272.066,415.601h-32.133c-8.284,0-15-6.716-15-15s6.716-15,15-15h32.133c8.284,0,15,6.716,15,15
	S280.351,415.601,272.066,415.601z"/>
<g>
	<path style="fill:#DA0806;" d="M256.001,348.434c21.414,0,42.637,4.744,61.897,13.782v115.219c0,8.284,6.716,15,15,15
		s15-6.716,15-15V353.011c0-5.486-2.995-10.535-7.811-13.165c-25.649-14.008-54.727-21.412-84.087-21.412l0,0v30H256.001z"/>
	<path style="fill:#DA0806;" d="M351.334,135.506V36.5c0-5.354-2.855-10.303-7.488-12.983C317.252,8.132,286.876,0,256,0v150.506
		h80.334C344.618,150.506,351.334,143.79,351.334,135.506z"/>
</g>
<path style="fill:#FDB8A4;" d="M272.066,415.601c8.284,0,15-6.716,15-15s-6.716-15-15-15H256v30H272.066z"/>
<g>
</g>
<g>
</g>
<g>
</g>
<g>
</g>
<g>
</g>
<g>
</g>
<g>
</g>
<g>
</g>
<g>
</g>
<g>
</g>
<g>
</g>
<g>
</g>
<g>
</g>
<g>
</g>
<g>
</g>
</svg>
