<?xml version="1.0" encoding="iso-8859-1"?>
<!-- Generator: Adobe Illustrator 19.0.0, SVG Export Plug-In . SVG Version: 6.00 Build 0)  -->
<svg version="1.1" id="Capa_1" xmlns="http://www.w3.org/2000/svg" xmlns:xlink="http://www.w3.org/1999/xlink" x="0px" y="0px"
	 viewBox="0 0 512.001 512.001" style="enable-background:new 0 0 512.001 512.001;" xml:space="preserve">
<path style="fill:#FCDB67;" d="M362.462,106.257c0.179,2.114,1.401,3.983,3.268,5c0.924,0.501,1.966,0.767,3.014,0.767
	c1.03,0,2.055-0.256,2.962-0.739c5.983-3.18,12.258-4.86,18.145-4.86c4.039,0,7.939,0.758,11.592,2.252
	c4.869,1.989,9.126,5.27,12.554,9.545c28.05-24.037,39.807-63.846,26.44-100.537c-1.415-3.886-3.151-7.776-5.164-11.575
	c-2.302-4.343-7.115-6.741-11.973-5.962c-0.73,0.118-1.436,0.302-2.111,0.549c-3.826,1.391-6.692,4.74-7.393,8.858
	c-4.838,28.374-29.55,54.606-63.03,66.99C357.177,83.9,361.445,94.306,362.462,106.257z"/>
<path style="fill:#E6E9ED;" d="M435.274,6.109c-2.302-4.343-7.115-6.741-11.973-5.962c-0.73,0.118-1.436,0.302-2.111,0.549
	c-3.826,1.391-6.692,4.74-7.393,8.858c-3.53,20.706-17.647,40.268-38.025,54.145c11.57,10.11,31.517,23.131,60.063,26.823
	c11.191-21.817,13.637-48.038,4.603-72.837C439.023,13.798,437.287,9.907,435.274,6.109z"/>
<path style="fill:#FCDB67;" d="M435.274,6.109c-2.302-4.343-7.115-6.741-11.973-5.962c-0.73,0.118-1.436,0.302-2.111,0.549
	c-3.826,1.391-6.692,4.74-7.393,8.858c-1.777,10.429-6.251,20.565-12.846,29.835c10.761,5.919,25.954,11.941,44.902,13.525
	c0.529-11.656-1.178-23.6-5.415-35.229C439.023,13.798,437.287,9.907,435.274,6.109z"/>
<g>
	<path style="fill:#FFC502;" d="M396.355,45.304c0.308,0.238,0.63,0.462,0.981,0.655c14.823,8.153,30.929,13.006,47.869,14.426
		c0.636-4.94,0.866-9.957,0.675-15.003c-14.438-1.287-28.171-5.428-40.838-12.312C402.569,37.31,399.655,41.402,396.355,45.304z"/>
	<path style="fill:#FFC502;" d="M438.986,83.714c-0.676-0.313-1.411-0.531-2.189-0.632c-25.625-3.315-43.772-14.615-54.811-23.945
		c-3.911,3.091-8.108,5.957-12.551,8.567c0.377,0.597,0.843,1.152,1.402,1.641c12.04,10.521,32.265,23.761,61.007,28.184
		C434.612,93.131,437.002,88.508,438.986,83.714z"/>
</g>
<path style="fill:#FCDB67;" d="M101.116,120.77c3.693-5.527,8.617-9.727,14.411-12.094c3.648-1.493,7.548-2.25,11.59-2.25
	c6.039,0,12.146,1.628,18.148,4.84c0.912,0.487,1.941,0.745,2.976,0.745c1.045,0,2.082-0.263,3.001-0.761
	c1.867-1.006,3.094-2.871,3.28-4.988c0.986-11.236,4.823-21.106,10.592-28.36c-1.094-0.361-2.186-0.732-3.272-1.128
	C128.051,64.485,103.071,38.1,98.203,9.553c-0.701-4.117-3.566-7.467-7.392-8.858c-0.675-0.247-1.381-0.431-2.112-0.549
	c-4.857-0.779-9.671,1.619-11.973,5.962c-2.012,3.799-3.749,7.69-5.164,11.575C57.711,55.704,70.837,97.072,101.116,120.77z"/>
<path style="fill:#E6E9ED;" d="M76.726,6.109c2.302-4.343,7.116-6.741,11.973-5.962c0.73,0.118,1.437,0.302,2.112,0.549
	c3.826,1.391,6.691,4.74,7.392,8.858c3.531,20.706,17.647,40.268,38.026,54.145c-11.571,10.11-31.518,23.131-60.064,26.823
	c-11.191-21.817-13.637-48.038-4.603-72.837C72.976,13.798,74.714,9.907,76.726,6.109z"/>
<path style="fill:#FCDB67;" d="M76.726,6.109c2.302-4.343,7.116-6.741,11.973-5.962c0.73,0.118,1.437,0.302,2.112,0.549
	c3.826,1.391,6.691,4.74,7.392,8.858c1.779,10.429,6.251,20.565,12.846,29.835c-10.761,5.919-25.954,11.941-44.901,13.525
	c-0.53-11.656,1.178-23.6,5.414-35.229C72.976,13.798,74.714,9.907,76.726,6.109z"/>
<path style="opacity:0.15;fill:#440075;enable-background:new    ;" d="M101.116,120.77c3.693-5.527,8.617-9.727,14.411-12.094
	c0.594-0.243,1.196-0.459,1.803-0.663C90.651,83.83,79.723,45.001,92.784,9.148c0.689-1.894,1.458-3.787,2.295-5.671
	c-1.19-1.218-2.633-2.186-4.269-2.781c-0.675-0.247-1.381-0.431-2.112-0.549c-4.857-0.779-9.671,1.619-11.973,5.962
	c-2.012,3.799-3.749,7.69-5.164,11.575C57.711,55.704,70.837,97.072,101.116,120.77z"/>
<g>
	<path style="fill:#FFC502;" d="M114.663,45.959c0.352-0.193,0.674-0.417,0.982-0.655c-3.3-3.902-6.214-7.995-8.688-12.233
		c-12.668,6.885-26.4,11.024-40.838,12.312c-0.191,5.046,0.039,10.063,0.675,15.003C83.735,58.965,99.84,54.112,114.663,45.959z"/>
	<path style="fill:#FFC502;" d="M130.015,59.137c-11.041,9.331-29.189,20.631-54.813,23.945c-0.778,0.1-1.513,0.318-2.189,0.632
		c1.984,4.794,4.374,9.417,7.142,13.814c28.741-4.423,48.968-17.663,61.008-28.184c0.56-0.488,1.025-1.044,1.403-1.641
		C138.123,65.094,133.926,62.228,130.015,59.137z"/>
</g>
<path style="fill:#6BC1DD;" d="M88.348,512.001c-2.925,0-5.305-2.379-5.305-5.3v-24.066c0-2.698-2.031-4.968-4.716-5.268
	c-10.019-1.119-18.247-5.411-23.795-12.415c-12.13-15.312-8.045-39.955,9.714-58.598c1.114-1.169,1.633-2.78,1.413-4.378
	c-0.22-1.6-1.157-3.01-2.545-3.833c-3.313-1.968-6.201-4.489-8.582-7.495c-6.836-8.63-8.743-20.72-5.235-33.177
	c2.93-10.406,9.478-20.649,18.438-28.845c1.325-1.214,1.947-3.015,1.65-4.783c-0.296-1.77-1.47-3.271-3.118-3.987
	c-11.286-4.899-18.97-13.18-21.638-23.311c-3.91-14.851,3.918-31.704,19.943-42.939c1.234-0.865,2.042-2.215,2.22-3.712
	c0.178-1.499-0.29-3-1.287-4.131c-14.929-16.926-18.452-38.688-8.568-52.924c6.538-9.416,17.666-14.602,31.33-14.602
	c1.19,0,2.416,0.045,3.645,0.125c0.121,0.01,0.241,0.014,0.36,0.014c1.67,0,3.251-0.788,4.256-2.139
	c1.077-1.446,1.344-3.34,0.708-5.028c-4.691-12.458-5.736-25.642-2.943-37.118c3.061-12.575,10.661-22.177,20.854-26.342
	c3.773-1.544,7.799-2.324,11.969-2.324c6.205,0,12.47,1.668,18.62,4.958c0.782,0.418,1.643,0.627,2.504,0.627
	c0.868,0,1.736-0.213,2.524-0.64c1.567-0.845,2.605-2.424,2.761-4.197c1.895-21.593,14.171-38.266,30.546-41.48
	c1.967-0.389,3.981-0.586,5.989-0.586c8.225,0,16.439,3.204,23.753,9.268c0.96,0.795,2.162,1.222,3.387,1.222
	c0.369,0,0.739-0.04,1.106-0.118c1.588-0.339,2.935-1.385,3.652-2.84c7.568-15.336,20.289-24.49,34.031-24.49
	c14.592,0,28.149,10.503,35.379,27.41c0.689,1.613,2.131,2.78,3.852,3.118c0.341,0.069,0.684,0.102,1.026,0.102
	c1.379,0,2.72-0.538,3.722-1.523c7.961-7.833,17.527-12.147,26.94-12.147c2.008,0,4.023,0.197,5.99,0.586
	c16.441,3.229,28.722,19.897,30.559,41.479c0.15,1.772,1.184,3.354,2.75,4.206c0.791,0.43,1.664,0.646,2.536,0.646
	c0.856,0,1.713-0.207,2.492-0.622c6.126-3.255,12.562-4.978,18.615-4.978c4.169,0,8.196,0.782,11.971,2.326
	c10.193,4.165,17.794,13.767,20.854,26.342c2.451,10.068,1.987,21.264-1.34,32.376c-0.486,1.622-0.167,3.376,0.857,4.725
	c1.004,1.322,2.568,2.097,4.226,2.097c0.032,0,0.581-0.009,0.823-0.009c6.738,0,12.828,1.759,18.102,5.23
	c9.07,5.972,14.5,16.28,15.291,29.028c0.79,12.751-3.156,26.413-11.109,38.469c-0.396,0.602-0.804,1.199-1.223,1.793
	c-1.644,2.332-1.149,5.543,1.12,7.271c14.823,11.288,21.693,27.182,17.928,41.475c-2.668,10.131-10.352,18.411-21.638,23.311
	c-1.648,0.716-2.822,2.217-3.119,3.987c-0.296,1.771,0.326,3.571,1.651,4.783c8.96,8.192,15.508,18.436,18.438,28.845
	c3.508,12.457,1.6,24.549-5.235,33.175c-2.382,3.008-5.269,5.529-8.582,7.497c-1.387,0.823-2.325,2.233-2.545,3.833
	c-0.221,1.598,0.3,3.209,1.413,4.378c17.76,18.643,21.845,43.284,9.714,58.598c-5.547,7.002-13.774,11.296-23.794,12.415
	c-2.685,0.3-4.716,2.569-4.716,5.268v24.062c0,2.921-2.38,5.3-5.305,5.3H88.348z"/>
<g>
	<path style="fill:#FFFFFF;" d="M100.161,398.906c-4.142,0-7.5-3.357-7.5-7.5v-11.719c0-4.143,3.358-7.5,7.5-7.5s7.5,3.357,7.5,7.5
		v11.719C107.661,395.548,104.304,398.906,100.161,398.906z"/>
	<path style="fill:#FFFFFF;" d="M128.946,428.652c-4.142,0-7.5-3.357-7.5-7.5v-11.718c0-4.143,3.358-7.5,7.5-7.5s7.5,3.357,7.5,7.5
		v11.718C136.446,425.294,133.088,428.652,128.946,428.652z"/>
	<path style="fill:#FFFFFF;" d="M382.295,428.652c-4.142,0-7.5-3.357-7.5-7.5v-11.718c0-4.143,3.358-7.5,7.5-7.5s7.5,3.357,7.5,7.5
		v11.718C389.795,425.294,386.437,428.652,382.295,428.652z"/>
</g>
<g>
	<path style="fill:#046699;" d="M156.685,401.159c-4.142,0-7.5-3.357-7.5-7.5v-11.718c0-4.143,3.358-7.5,7.5-7.5s7.5,3.357,7.5,7.5
		v11.719C164.185,397.802,160.827,401.159,156.685,401.159z"/>
	<path style="fill:#046699;" d="M353.45,401.159c-4.142,0-7.5-3.357-7.5-7.5v-11.718c0-4.143,3.358-7.5,7.5-7.5s7.5,3.357,7.5,7.5
		v11.719C360.95,397.802,357.592,401.159,353.45,401.159z"/>
	<path style="fill:#046699;" d="M411.839,401.159c-4.142,0-7.5-3.357-7.5-7.5v-11.718c0-4.143,3.358-7.5,7.5-7.5s7.5,3.357,7.5,7.5
		v11.719C419.339,397.802,415.981,401.159,411.839,401.159z"/>
	<path style="fill:#046699;" d="M101.154,469.215c-4.142,0-7.5-3.357-7.5-7.5v-11.718c0-4.143,3.358-7.5,7.5-7.5s7.5,3.357,7.5,7.5
		v11.718C108.654,465.858,105.296,469.215,101.154,469.215z"/>
	<path style="fill:#046699;" d="M395.957,469.215c-4.142,0-7.5-3.357-7.5-7.5v-11.718c0-4.143,3.358-7.5,7.5-7.5s7.5,3.357,7.5,7.5
		v11.718C403.457,465.858,400.099,469.215,395.957,469.215z"/>
</g>
<g>
	<path style="fill:#FFFFFF;" d="M146.813,489.046c-4.142,0-7.5-3.357-7.5-7.5v-11.718c0-4.143,3.358-7.5,7.5-7.5s7.5,3.357,7.5,7.5
		v11.718C154.313,485.689,150.955,489.046,146.813,489.046z"/>
	<path style="fill:#FFFFFF;" d="M358.239,489.046c-4.142,0-7.5-3.357-7.5-7.5v-11.718c0-4.143,3.358-7.5,7.5-7.5s7.5,3.357,7.5,7.5
		v11.718C365.739,485.689,362.381,489.046,358.239,489.046z"/>
</g>
<g>
	<path style="fill:#046699;" d="M198.923,469.28c-4.142,0-7.5-3.357-7.5-7.5v-11.718c0-4.143,3.358-7.5,7.5-7.5s7.5,3.357,7.5,7.5
		v11.718C206.423,465.922,203.065,469.28,198.923,469.28z"/>
	<path style="fill:#046699;" d="M301.941,469.28c-4.142,0-7.5-3.357-7.5-7.5v-11.718c0-4.143,3.358-7.5,7.5-7.5s7.5,3.357,7.5,7.5
		v11.718C309.441,465.922,306.083,469.28,301.941,469.28z"/>
</g>
<g>
	<path style="fill:#FFFFFF;" d="M249.402,487.05c-4.142,0-7.5-3.357-7.5-7.5v-11.718c0-4.143,3.358-7.5,7.5-7.5s7.5,3.357,7.5,7.5
		v11.718C256.902,483.693,253.544,487.05,249.402,487.05z"/>
	<path style="fill:#FFFFFF;" d="M307.944,160.933H204.057c-45.9,0-83.11,37.209-83.11,83.11v20.777
		c0,40.625,29.156,74.42,67.68,81.655v-56.118c0-3.921,3.19-7.111,7.111-7.111h120.523c3.921,0,7.111,3.19,7.111,7.111v56.118
		c38.524-7.235,67.68-41.03,67.68-81.655v-20.777C391.054,198.142,353.844,160.933,307.944,160.933z"/>
</g>
<path style="fill:#F7931E;" d="M391.054,264.82v-11.151c-2.188-0.491-4.46-0.759-6.796-0.759c-17.068,0-30.905,13.837-30.905,30.905
	c0,13.971,9.272,25.771,21.996,29.596C385.22,299.743,391.054,282.967,391.054,264.82z"/>
<path style="opacity:0.15;fill:#440075;enable-background:new    ;" d="M150.922,264.82v-20.777c0-45.901,37.209-83.11,83.109-83.11
	h-29.975c-45.9,0-83.11,37.209-83.11,83.11v20.777c0,40.623,29.158,74.408,67.68,81.646v-12.06
	C165.933,319.57,150.922,293.957,150.922,264.82z"/>
<path style="fill:#F7931E;" d="M127.743,252.91c-2.336,0-4.608,0.268-6.796,0.759v11.151c0,18.147,5.834,34.923,15.704,48.591
	c12.726-3.824,21.997-15.625,21.997-29.596C158.648,266.747,144.811,252.91,127.743,252.91z"/>
<path style="fill:#046699;" d="M191.099,261.932c-14.36,0-26.043-11.683-26.043-26.043s11.683-26.044,26.043-26.044
	s26.044,11.684,26.044,26.044C217.142,250.249,205.459,261.932,191.099,261.932z"/>
<path style="fill:#FB8276;" d="M310.754,318.022c-1.251,0-2.387-0.734-2.9-1.877l-15.219-33.898h-0.263l-15.219,33.898
	c-0.513,1.142-1.649,1.877-2.9,1.877c-1.253,0-2.388-0.734-2.901-1.877l-15.219-33.898h-0.263l-15.219,33.898
	c-0.513,1.142-1.649,1.877-2.9,1.877c-1.251,0-2.387-0.734-2.9-1.877l-15.219-33.898h-0.263l-15.219,33.898
	c-0.513,1.142-1.649,1.877-2.9,1.877c-1.252,0-2.388-0.734-2.901-1.877l-10.718-23.876v110.018c0,2.846,2.306,5.151,5.151,5.151
	h126.444c2.844,0,5.151-2.306,5.151-5.151V292.269l-10.719,23.876C313.141,317.287,312.005,318.022,310.754,318.022z"/>
<path style="opacity:0.15;fill:#440075;enable-background:new    ;" d="M208,402.286v-94.724l-3.853,8.582
	c-0.513,1.142-1.649,1.877-2.9,1.877c-1.252,0-2.388-0.734-2.901-1.877l-10.718-23.876v110.018c0,2.846,2.306,5.151,5.151,5.151
	h20.373C210.306,407.438,208,405.132,208,402.286z"/>
<path style="fill:#D5E962;" d="M316.262,282.246H195.739c-4.461,0-8.111,3.65-8.111,8.111v3.156l10.718,23.876
	c0.513,1.143,1.649,1.877,2.901,1.877c1.251,0,2.387-0.734,2.9-1.877l15.351-34.191l15.35,34.191c0.513,1.143,1.649,1.877,2.9,1.877
	c1.251,0,2.387-0.734,2.9-1.877L256,283.199l15.351,34.191c0.513,1.143,1.649,1.877,2.901,1.877c1.251,0,2.387-0.734,2.9-1.877
	l15.35-34.191l15.351,34.191c0.513,1.143,1.649,1.877,2.9,1.877s2.387-0.734,2.9-1.877l10.719-23.876v-3.156
	C324.373,285.897,320.723,282.246,316.262,282.246z"/>
<path style="fill:#EF5050;" d="M298.049,407.438v-11.901c0-12.771-10.354-23.125-23.127-23.125c-7.825,0-14.737,3.89-18.921,9.837
	c-4.185-5.947-11.097-9.837-18.921-9.837c-12.773,0-23.127,10.354-23.127,23.125v11.901H298.049z"/>
<path style="fill:#046699;" d="M320.902,261.932c-14.36,0-26.043-11.683-26.043-26.043s11.683-26.044,26.043-26.044
	s26.043,11.684,26.043,26.044S335.262,261.932,320.902,261.932z"/>
<g>
</g>
<g>
</g>
<g>
</g>
<g>
</g>
<g>
</g>
<g>
</g>
<g>
</g>
<g>
</g>
<g>
</g>
<g>
</g>
<g>
</g>
<g>
</g>
<g>
</g>
<g>
</g>
<g>
</g>
</svg>
