<?xml version="1.0" encoding="iso-8859-1"?>
<!-- Generator: Adobe Illustrator 19.0.0, SVG Export Plug-In . SVG Version: 6.00 Build 0)  -->
<svg version="1.1" id="Capa_1" xmlns="http://www.w3.org/2000/svg" xmlns:xlink="http://www.w3.org/1999/xlink" x="0px" y="0px"
	 viewBox="0 0 481.808 481.808" style="enable-background:new 0 0 481.808 481.808;" xml:space="preserve">
<g transform="matrix(1.25 0 0 -1.25 0 45)">
	<g>
		<g>
			<g>
				<path style="fill:#D5AB88;" d="M310.72-164.169c-3.47,6.963-11.605,9.603-18.079,5.86l-35.283-20.355l-19.547,39.174
					l0.137,0.102c-1.946,3.868-3.823,7.612-5.712,11.071l-0.125,0.262c-0.023,0.034-0.057,0.057-0.068,0.091
					c-5.211,9.478-10.524,16.543-17.647,16.543H100.459h-1.286c-4.164-0.046-7.828-1.9-10.593-5.404l-9.057-11.48
					c-2.844-3.288-5.621-6.793-8.112-10.286L12.247-213.56c-4.836-6.144-3.777-15.132,2.355-19.979
					c6.144-4.847,15.132-3.789,19.979,2.355l66.23,83.945l9.239-78.006l-8.249-45.181h106.792l-7.521,45.181l8.761,81.101
					l30.31-60.757c3.47-6.952,11.605-9.591,18.068-5.86l47.058,27.147C311.733-179.882,314.191-171.132,310.72-164.169"/>
				<path style="fill:#D5AB88;" d="M132.806-77.289V-122.8c0-12.561,10.194-22.756,22.756-22.756
					c12.572,0,22.756,10.194,22.756,22.756v45.511H132.806z"/>
			</g>
			<path style="fill:#CC9B7A;" d="M178.317-65.911l-45.511-0.216v-45.295c0,0,22.756-11.378,45.511,0V-65.911z"/>
			<path style="fill:#D5AB88;" d="M212.451-9.022L98.673,2.436v-56.969v-0.011c0-31.425,25.463-56.878,56.889-56.878
				s56.889,25.452,56.889,56.878v0.011V-9.022z"/>
			<path style="fill:#C1694F;" d="M178.317-88.666h-22.756h-22.756c0,0,0-11.378,22.756-11.378S178.317-88.666,178.317-88.666"/>
			<path id="SVGCleanerId_0" style="fill:#662113;" d="M132.806-48.844c0-3.14-2.549-5.689-5.689-5.689
				c-3.14,0-5.689,2.549-5.689,5.689c0,3.14,2.549,5.689,5.689,5.689C130.258-43.155,132.806-45.704,132.806-48.844"/>
			<g transform="translate(5)">
				<path id="SVGCleanerId_0_1_" style="fill:#662113;" d="M189.695-48.844c0-3.14-2.549-5.689-5.689-5.689
					c-3.14,0-5.689,2.549-5.689,5.689c0,3.14,2.549,5.689,5.689,5.689C187.146-43.155,189.695-45.704,189.695-48.844"/>
			</g>
			<path style="fill:#C1694F;" d="M144.184-65.911h11.378h11.378c0,0,0-11.378-11.378-11.378S144.184-65.911,144.184-65.911"/>
			<path style="fill:#963B22;" d="M155.562,36c39.06,0,63.465-28.82,63.465-52.838c0-24.007-4.881-33.621-9.762-24.007
				c-4.892,9.603-9.774,19.206-9.774,19.206s-29.286,0-39.049,9.614c0,0,14.643-28.82-14.643,0c0,0,4.881-19.217-24.405,4.79
				c0,0-14.655-9.603-19.536-33.61c-1.354-6.667-9.762,0-9.762,24.007C92.096,7.18,111.621,36,155.562,36"/>
			<g>
				<path style="fill:#3B88C3;" d="M87.295-304.844h91.022c18.773,0,34.133,15.36,34.133,34.133v11.378
					c0,12.516-10.24,22.756-22.756,22.756h-102.4c-18.773,0-34.133-15.36-34.133-34.133l0,0
					C53.162-289.484,68.522-304.844,87.295-304.844"/>
				<path style="fill:#3B88C3;" d="M56.325-256.477c-11.867-28.023,2.162-69.143,42.348-82.5
					c22.517-7.498,69.12-14.689,109.932-7.498c48.822,8.624,84.161,39.526,84.161,39.526l-19.627,16.976
					c0,0-25.259-8.693-49.311-9.796c-44.305-2.037-96.575,33.291-125.156,40.437C65.928-251.152,56.325-256.477,56.325-256.477"/>
				<path style="fill:#3B88C3;" d="M266.563-312.513c-7.407,8.442-6.087,32.336,11.014,47.343
					c25.634,22.528,33.132,45.318,41.677,52.816c0,0,10.012-45.375-15.633-67.891c0,0,43.6,28.865,72.613,19.354
					c-42.314-17.988-43.27-46.524-69.12-55.808C285.701-324.391,273.97-320.955,266.563-312.513"/>
			</g>
			<path style="fill:#292F33;" d="M194.781-296.527c-0.262,0-0.558,0.023-0.831,0.08c-25.486,5.074-77.221,28.979-79.406,30.003
				c-2.139,0.978-3.072,3.516-2.082,5.655c0.99,2.15,3.55,3.083,5.666,2.071c0.535-0.239,52.986-24.485,77.483-29.355
				c2.31-0.466,3.812-2.708,3.356-5.018C198.558-295.127,196.783-296.527,194.781-296.527"/>
		</g>
	</g>
</g>
<g>
</g>
<g>
</g>
<g>
</g>
<g>
</g>
<g>
</g>
<g>
</g>
<g>
</g>
<g>
</g>
<g>
</g>
<g>
</g>
<g>
</g>
<g>
</g>
<g>
</g>
<g>
</g>
<g>
</g>
</svg>
