<?xml version="1.0" encoding="iso-8859-1"?>
<!-- Generator: Adobe Illustrator 19.0.0, SVG Export Plug-In . SVG Version: 6.00 Build 0)  -->
<svg version="1.1" id="Capa_1" xmlns="http://www.w3.org/2000/svg" xmlns:xlink="http://www.w3.org/1999/xlink" x="0px" y="0px"
	 viewBox="0 0 512 512" style="enable-background:new 0 0 512 512;" xml:space="preserve">
<path style="fill:#3B211A;" d="M415.871,337.4c-8.284,0-15,6.716-15,15H111.132c0-8.284-6.716-15-15-15s-15,6.716-15,15V497
	c0,8.284,6.716,15,15,15h319.739c8.284,0,15-6.716,15-15V352.4C430.871,344.116,424.155,337.4,415.871,337.4z"/>
<path style="fill:#0F0301;" d="M415.871,337.4c-8.284,0-15,6.716-15,15H256V512h159.871c8.284,0,15-6.716,15-15V352.4
	C430.871,344.116,424.155,337.4,415.871,337.4z"/>
<path style="fill:#DE8447;" d="M448.8,241h-32.133c-8.284,0-15,6.716-15,15c0,8.242,6.649,14.927,14.876,14.994l-0.548,66.406
	h-0.124c-8.284,0-15,6.716-15,15s6.716,15,15,15H448.8c34.849,0,63.2-28.351,63.2-63.199C512,269.352,483.648,241,448.8,241z"/>
<path style="fill:#FCA971;" d="M96.132,337.4h-0.124l-0.551-66.406c8.227-0.068,14.876-6.752,14.876-14.994c0-8.284-6.716-15-15-15
	H63.2C28.352,241,0,269.352,0,304.201S28.352,367.4,63.2,367.4h32.932c8.284,0,15-6.716,15-15S104.416,337.4,96.132,337.4z"/>
<g>
	<path style="fill:#0F0301;" d="M256,0c-52.567,0-95.334,42.767-95.334,95.332c-0.001,8.057,1.008,16.066,3,23.807
		c2.064,8.022,10.242,12.858,18.265,10.788c6.771-1.741,11.25-7.842,11.246-14.526l125.644,0.002
		c-0.004,6.685,4.477,12.785,11.25,14.527c1.253,0.322,2.509,0.477,3.746,0.477c6.682,0,12.775-4.498,14.517-11.269
		c1.989-7.736,2.999-15.744,3-23.804C351.333,42.767,308.566,0,256,0z"/>
	<path style="fill:#0F0301;" d="M256,0v115.401l62.82,0.001c-0.004,6.685,4.477,12.785,11.25,14.527
		c1.253,0.322,2.509,0.477,3.746,0.477c6.682,0,12.775-4.498,14.517-11.269c1.989-7.736,2.999-15.744,3-23.804
		C351.333,42.767,308.566,0,256,0z"/>
</g>
<path style="fill:#FCBA95;" d="M427.272,245.394L266.606,84.728c-5.857-5.857-15.355-5.857-21.213,0L84.727,245.394
	c-2.813,2.813-4.394,6.628-4.394,10.606v80.334C80.333,433.196,159.137,512,256,512c96.862,0,175.666-78.804,175.666-175.666V256
	C431.666,252.021,430.086,248.206,427.272,245.394z"/>
<path style="fill:#FCA971;" d="M427.272,245.394L266.606,84.728c-2.929-2.929-6.768-4.394-10.606-4.394V512
	c96.862,0,175.666-78.804,175.666-175.666V256C431.666,252.021,430.086,248.206,427.272,245.394z"/>
<path style="fill:#FD413C;" d="M256,415.602c-22.486,0-43.457-12.099-54.727-31.575c-4.15-7.171-1.701-16.347,5.469-20.496
	c7.173-4.149,16.347-1.701,20.496,5.469c5.927,10.241,16.947,16.603,28.763,16.603s22.839-6.364,28.768-16.609
	c4.15-7.169,13.328-9.614,20.496-5.469c7.17,4.15,9.618,13.325,5.469,20.496C299.459,403.5,278.486,415.602,256,415.602z"/>
<path style="fill:#3B211A;" d="M191.735,311.177c-3.949,0-7.819-1.6-10.609-4.399c-2.79-2.79-4.391-6.66-4.391-10.601
	c0-3.949,1.601-7.819,4.391-10.609c2.79-2.79,6.66-4.391,10.609-4.391c3.94,0,7.811,1.601,10.601,4.391
	c2.8,2.79,4.399,6.66,4.399,10.609c0,3.95-1.6,7.811-4.399,10.601C199.546,309.577,195.686,311.177,191.735,311.177z"/>
<path style="fill:#0F0301;" d="M320.266,311.177c-3.95,0-7.81-1.6-10.61-4.399c-2.789-2.79-4.39-6.66-4.39-10.601
	c0-3.949,1.601-7.819,4.39-10.609c2.801-2.79,6.66-4.391,10.61-4.391s7.811,1.601,10.61,4.391c2.79,2.79,4.39,6.66,4.39,10.609
	c0,3.95-1.6,7.811-4.39,10.601C328.076,309.577,324.216,311.177,320.266,311.177z"/>
<path style="fill:#3B211A;" d="M256,80.334c-96.863,0-175.667,78.804-175.667,175.666c0,8.284,6.716,15,15,15
	c71.612,0,133.343-43.078,160.667-104.677C283.324,227.922,345.055,271,416.666,271c8.284,0,15-6.716,15-15
	C431.666,159.138,352.862,80.334,256,80.334z"/>
<path style="fill:#0F0301;" d="M416.666,271c8.284,0,15-6.716,15-15c0-96.862-78.804-175.666-175.666-175.666v85.989
	C283.324,227.922,345.055,271,416.666,271z"/>
<path style="fill:#DA0806;" d="M305.264,363.523c-7.171-4.15-16.347-1.701-20.497,5.469c-5.928,10.243-16.95,16.606-28.765,16.607
	v30c22.485-0.001,43.456-12.102,54.729-31.58C314.882,376.85,312.434,367.674,305.264,363.523z"/>
<g>
</g>
<g>
</g>
<g>
</g>
<g>
</g>
<g>
</g>
<g>
</g>
<g>
</g>
<g>
</g>
<g>
</g>
<g>
</g>
<g>
</g>
<g>
</g>
<g>
</g>
<g>
</g>
<g>
</g>
</svg>
