<?xml version="1.0" encoding="iso-8859-1"?>
<!-- Generator: Adobe Illustrator 19.0.0, SVG Export Plug-In . SVG Version: 6.00 Build 0)  -->
<svg version="1.1" id="Capa_1" xmlns="http://www.w3.org/2000/svg" xmlns:xlink="http://www.w3.org/1999/xlink" x="0px" y="0px"
	 viewBox="0 0 512 512" style="enable-background:new 0 0 512 512;" xml:space="preserve">
<path style="fill:#E6E9ED;" d="M383.079,358.245h-67.993c0.193,1.43,0.017,2.923-0.597,4.063l-26.088,48.497
	c-0.509,0.946-1.231,1.489-1.981,1.489c-0.667,0-1.355-0.414-1.936-1.166l-24.544-31.753c-1.03-1.335-2.431-2.07-3.94-2.07
	c-1.51,0-2.91,0.735-3.942,2.07l-24.544,31.753c-0.586,0.758-1.285,1.175-1.967,1.175c-0.774,0-1.492-0.524-2.021-1.476
	l-26.991-48.565c-0.628-1.13-0.808-2.606-0.609-4.017h-67.007c-8.499,0-15.453,6.954-15.453,15.453v128
	c0,5.666,4.636,10.302,10.302,10.302h264.463c5.666,0,10.302-4.636,10.302-10.302v-128
	C398.533,365.199,391.579,358.245,383.079,358.245z"/>
<g style="opacity:0.15;">
	<path style="fill:#440075;" d="M142.974,501.698v-128c0-8.499,6.954-15.453,15.453-15.453H128.92
		c-8.499,0-15.453,6.954-15.453,15.453v128c0,5.666,4.636,10.302,10.302,10.302h29.507C147.61,512,142.974,507.364,142.974,501.698z
		"/>
</g>
<g>
	<rect x="152.98" y="358.25" style="fill:#FFC502;" width="27.815" height="91.75"/>
	<rect x="331.2" y="358.25" style="fill:#FFC502;" width="27.815" height="91.75"/>
</g>
<path style="fill:#C5CCD3;" d="M295.174,331.042c-1.161-1.396-3.141-2.623-5.158-3.328c-10.656,3.729-22.103,5.763-34.016,5.763
	c-11.921,0-23.375-2.037-34.038-5.771c-2.027,0.694-4.025,1.899-5.212,3.271l-20.221,23.372c-1.854,2.144-2.244,5.922-0.868,8.397
	l26.991,48.565c1.376,2.477,3.92,2.668,5.653,0.427l24.544-31.753c1.733-2.242,4.569-2.242,6.3,0l24.544,31.753
	c1.733,2.241,4.247,2.034,5.589-0.461l26.088-48.497c1.342-2.494,0.957-6.317-0.855-8.496L295.174,331.042z"/>
<path style="fill:#B2762F;" d="M256,333.477c-12.61,0-24.698-2.275-35.879-6.432v26.05c0,2.833,1.742,6.68,3.871,8.549
	l28.138,24.706c2.128,1.869,5.612,1.869,7.741,0l28.139-24.706c2.129-1.869,3.87-5.716,3.87-8.549v-26.05
	C280.697,331.201,268.609,333.477,256,333.477z"/>
<path style="opacity:0.15;fill:#440075;enable-background:new    ;" d="M250.173,353.095v-19.786
	c-10.51-0.588-20.605-2.752-30.052-6.264v26.05c0,2.833,1.742,6.68,3.871,8.549l28.138,24.706c2.128,1.869,5.612,1.869,7.741,0
	l11.156-9.795l-16.983-14.911C251.915,359.774,250.173,355.928,250.173,353.095z"/>
<g>
	<path style="fill:#B2762F;" d="M152.726,230.202v-42.218h-13.223c-13.454,0-24.359,10.907-24.359,24.359v26.477
		c0,13.453,10.905,24.359,24.359,24.359h18.622C154.625,252.819,152.726,241.729,152.726,230.202z"/>
	<path style="fill:#B2762F;" d="M372.497,187.984h-13.224v42.218c0,11.526-1.899,22.617-5.399,32.978h18.623
		c13.454,0,24.358-10.906,24.358-24.359v-26.477C396.855,198.892,385.951,187.984,372.497,187.984z"/>
</g>
<g>
	<path style="fill:#775436;" d="M152.726,230.202v-12.681h-14.177c-4.142,0-7.5,3.357-7.5,7.5s3.358,7.5,7.5,7.5h14.207
		C152.738,231.75,152.726,230.977,152.726,230.202z"/>
	<path style="fill:#775436;" d="M373.451,217.521h-14.178v12.681c0,0.775-0.013,1.548-0.029,2.319h14.207c4.143,0,7.5-3.357,7.5-7.5
		S377.594,217.521,373.451,217.521z"/>
</g>
<path style="fill:#D19546;" d="M256,126.482c-27.674,0-66.952,3.723-104.274,20.293v83.427c0,57.59,46.686,104.274,104.274,104.274
	c57.589,0,104.273-46.685,104.273-104.274v-83.428C322.951,130.205,283.674,126.482,256,126.482z"/>
<path style="opacity:0.15;fill:#440075;enable-background:new    ;" d="M171,230.202v-90.846c-6.437,2.13-12.884,4.582-19.274,7.419
	v83.427c0,57.59,46.686,104.274,104.274,104.274c3.25,0,6.463-0.156,9.638-0.447C212.567,329.165,171,284.542,171,230.202z"/>
<path style="fill:#B2762F;" d="M264.997,263.226H256c-9.097,0-16.498-7.986-16.498-17.802v-29.109c0-4.143,3.358-7.5,7.5-7.5
	s7.5,3.357,7.5,7.5v29.109c0,1.743,1.04,2.802,1.498,2.802h8.998c4.143,0,7.5,3.357,7.5,7.5
	C272.497,259.868,269.141,263.226,264.997,263.226z"/>
<g>
	<path style="fill:#775436;" d="M225.415,187.243c-1.919,0-3.839-0.732-5.303-2.196c-4.547-4.548-10.587-7.052-17.006-7.052
		c-6.42,0-12.459,2.504-17.005,7.051c-2.93,2.93-7.677,2.929-10.607,0.001c-2.929-2.929-2.929-7.678,0-10.607
		c7.38-7.381,17.186-11.445,27.613-11.445c10.426,0,20.232,4.064,27.613,11.444c2.929,2.93,2.929,7.678,0,10.607
		C229.254,186.511,227.335,187.243,225.415,187.243z"/>
	<path style="fill:#775436;" d="M331.203,187.243c-1.919,0-3.839-0.732-5.304-2.196c-4.547-4.548-10.587-7.052-17.006-7.052
		c-6.42,0-12.459,2.504-17.006,7.051c-2.93,2.93-7.679,2.929-10.606,0.001c-2.93-2.929-2.93-7.678-0.001-10.607
		c7.38-7.381,17.187-11.445,27.613-11.445s20.232,4.064,27.613,11.444c2.929,2.93,2.929,7.678,0,10.607
		C335.042,186.511,333.122,187.243,331.203,187.243z"/>
</g>
<g>
	<path style="fill:#B2762F;" d="M223.549,226.391c-4.142,0-7.5-3.357-7.5-7.5c0-6.658-5.416-12.074-12.074-12.074
		c-6.657,0-12.073,5.416-12.073,12.074c0,4.143-3.358,7.5-7.5,7.5s-7.5-3.357-7.5-7.5c0-14.929,12.145-27.074,27.073-27.074
		c14.929,0,27.074,12.145,27.074,27.074C231.049,223.033,227.691,226.391,223.549,226.391z"/>
	<path style="fill:#B2762F;" d="M327.598,226.391c-4.143,0-7.5-3.357-7.5-7.5c0-6.658-5.416-12.074-12.073-12.074
		s-12.073,5.416-12.073,12.074c0,4.143-3.357,7.5-7.5,7.5s-7.5-3.357-7.5-7.5c0-14.929,12.145-27.074,27.073-27.074
		c14.929,0,27.073,12.145,27.073,27.074C335.098,223.033,331.74,226.391,327.598,226.391z"/>
	<path style="fill:#B2762F;" d="M256,304.684c-17.377,0-32.222-11.82-36.101-28.746c-0.925-4.037,1.598-8.06,5.635-8.985
		c4.036-0.918,8.061,1.598,8.986,5.636c2.307,10.065,11.139,17.096,21.48,17.096s19.174-7.03,21.48-17.096
		c0.925-4.037,4.949-6.561,8.985-5.636c4.038,0.925,6.561,4.948,5.636,8.985C288.224,292.863,273.378,304.684,256,304.684z"/>
</g>
<path style="fill:#5DC647;" d="M372.318,512v-58.205c0-2.833-2.317-5.151-5.15-5.151H144.832c-2.833,0-5.151,2.318-5.151,5.151V512
	H372.318z"/>
<g>
	<path style="fill:#C5CCD3;" d="M256,419.06c-1.97,0-3.91-0.8-5.3-2.2c-1.4-1.39-2.2-3.319-2.2-5.3c0-1.979,0.8-3.91,2.2-5.31
		c1.39-1.391,3.32-2.19,5.3-2.19c1.979,0,3.91,0.8,5.3,2.19c1.4,1.399,2.2,3.33,2.2,5.31c0,1.97-0.8,3.91-2.2,5.3
		C259.91,418.26,257.979,419.06,256,419.06z"/>
	<path style="fill:#C5CCD3;" d="M256,444.81c-1.97,0-3.91-0.8-5.3-2.2c-1.4-1.39-2.2-3.319-2.2-5.3c0-1.97,0.8-3.91,2.2-5.3
		c1.39-1.4,3.33-2.2,5.3-2.2s3.91,0.8,5.3,2.2c1.4,1.39,2.2,3.32,2.2,5.3c0,1.98-0.8,3.91-2.2,5.3
		C259.91,444.01,257.97,444.81,256,444.81z"/>
</g>
<path style="fill:#FFC502;" d="M322.962,512v-20.089c0-5.666-4.636-10.302-10.302-10.302H199.34
	c-5.666,0-10.302,4.636-10.302,10.302V512H322.962z"/>
<path style="fill:#5DC647;" d="M256,92c48.66,0,86.775,12.839,110.209,36.604V78.836C366.209,35.297,330.897,0,287.335,0h-62.669
	c-43.562,0-78.876,35.297-78.876,78.836v49.768C169.223,104.839,207.339,92,256,92z"/>
<path style="opacity:0.15;fill:#440075;enable-background:new    ;" d="M176.676,107.25V78.836C176.676,35.297,211.99,0,255.552,0
	h-30.886c-43.562,0-78.876,35.297-78.876,78.836v49.768C154.24,120.034,164.599,112.887,176.676,107.25z"/>
<path style="fill:#FFC502;" d="M376.271,155.159c-0.882,0-1.771-0.215-2.585-0.656c-41.078-22.2-86.67-26.861-117.686-26.861
	c-31.015,0-76.608,4.661-117.685,26.861c-0.815,0.441-1.705,0.656-2.587,0.656c-1.411,0-2.805-0.549-3.851-1.596
	c-1.703-1.702-2.084-4.321-0.939-6.44c19.736-36.49,64.151-56.588,125.062-56.588c60.91,0,105.325,20.098,125.063,56.589
	c1.145,2.118,0.764,4.737-0.939,6.44C379.075,154.61,377.682,155.159,376.271,155.159z"/>
<ellipse style="fill:#FFFFFF;" cx="256" cy="47.837" rx="30.2" ry="19.13"/>
<path style="fill:#368C0E;" d="M256,74.464c-21.14,0-37.7-11.696-37.7-26.627S234.86,21.21,256,21.21
	c21.141,0,37.7,11.696,37.7,26.627S277.141,74.464,256,74.464z M256,36.21c-12.992,0-22.7,6.139-22.7,11.627
	s9.707,11.627,22.7,11.627c12.992,0,22.7-6.139,22.7-11.627S268.992,36.21,256,36.21z"/>
<g>
	<path style="fill:#FFC502;" d="M165.35,478.81c-1.98,0-3.91-0.8-5.31-2.2c-1.39-1.399-2.19-3.33-2.19-5.3
		c0-1.979,0.8-3.91,2.19-5.31c1.4-1.391,3.33-2.19,5.31-2.19c1.97,0,3.9,0.8,5.3,2.19c1.39,1.399,2.2,3.34,2.2,5.31
		s-0.81,3.9-2.2,5.3C169.25,478.01,167.32,478.81,165.35,478.81z"/>
	<path style="fill:#FFC502;" d="M344.6,478.81c-1.979,0-3.91-0.8-5.31-2.2c-1.391-1.39-2.19-3.33-2.19-5.3
		c0-1.979,0.8-3.91,2.19-5.31c1.4-1.391,3.33-2.19,5.31-2.19c1.97,0,3.9,0.8,5.3,2.19c1.4,1.399,2.2,3.34,2.2,5.31s-0.8,3.9-2.2,5.3
		C348.5,478.01,346.569,478.81,344.6,478.81z"/>
</g>
<g>
</g>
<g>
</g>
<g>
</g>
<g>
</g>
<g>
</g>
<g>
</g>
<g>
</g>
<g>
</g>
<g>
</g>
<g>
</g>
<g>
</g>
<g>
</g>
<g>
</g>
<g>
</g>
<g>
</g>
</svg>
