<?xml version="1.0" encoding="iso-8859-1"?>
<!-- Generator: Adobe Illustrator 19.0.0, SVG Export Plug-In . SVG Version: 6.00 Build 0)  -->
<svg version="1.1" id="Capa_1" xmlns="http://www.w3.org/2000/svg" xmlns:xlink="http://www.w3.org/1999/xlink" x="0px" y="0px"
	 viewBox="0 0 512 512" style="enable-background:new 0 0 512 512;" xml:space="preserve">
<path style="fill:#FFFFFF;" d="M289.632,411.743c-0.536,0.935-1.254,1.449-2.021,1.449c-0.69,0-1.392-0.426-1.975-1.2
	l-27.066-35.943c-0.995-1.32-2.325-2.047-3.745-2.047c-1.485,0-2.888,0.822-3.85,2.258l-23.845,35.612
	c-0.551,0.823-1.222,1.276-1.89,1.276c-0.698,0-1.372-0.492-1.899-1.386l-19.938-33.823V512h105.196V378.673L289.632,411.743z"/>
<path style="fill:#42238E;" d="M265.135,425.979l12.626-24.446l-19.191-25.484c-0.53-0.703-1.156-1.231-1.84-1.578h-3.786
	c-0.752,0.383-1.431,0.985-1.969,1.789l-16.817,25.116l12.708,24.603h0.676L227.156,512h57.69l-20.384-86.021H265.135z"/>
<path id="SVGCleanerId_0" style="fill:#775436;" d="M203.402,458.429V512h52.598C234.928,512,216.063,491.202,203.402,458.429z"/>
<path id="SVGCleanerId_1" style="fill:#775436;" d="M256.001,512h52.598v-53.569C295.939,491.203,277.074,512,256.001,512z"/>
<path style="fill:#E6E9ED;" d="M316.101,303.669c-16.997,10.198-37.794,15.718-60.1,15.718c-20.647,0-40-4.73-56.247-13.52
	L188.361,347.1c-0.755,2.73-0.195,6.962,1.244,9.402l32.875,55.768c1.438,2.44,3.905,2.513,5.481,0.158l23.845-35.612
	c1.576-2.354,4.26-2.428,5.965-0.166l27.066,35.943c1.704,2.264,4.252,2.103,5.661-0.354l31.951-55.708
	c1.41-2.457,2.144-6.747,1.63-9.533L316.101,303.669z"/>
<path style="fill:#B2762F;" d="M256.001,319.387c-11.516,0-22.622-1.489-33.023-4.31v29.376c0,2.833,1.879,6.508,4.176,8.165
	l24.669,17.809c2.297,1.658,6.056,1.658,8.353,0l24.671-17.809c2.297-1.657,4.177-5.332,4.177-8.165v-29.376
	C278.623,317.897,267.518,319.387,256.001,319.387z"/>
<path style="opacity:0.15;fill:#440075;enable-background:new    ;" d="M248.676,344.452v-25.29
	c-8.907-0.488-17.521-1.868-25.697-4.086v29.376c0,2.833,1.879,6.508,4.176,8.165l24.669,17.809c2.297,1.658,6.056,1.658,8.353,0
	l8.673-6.261l-15.997-11.548C250.555,350.96,248.676,347.285,248.676,344.452z"/>
<g>
	<path id="SVGCleanerId_0_1_" style="fill:#775436;" d="M203.402,458.429V512h52.598C234.928,512,216.063,491.202,203.402,458.429z"
		/>
</g>
<g>
	<path id="SVGCleanerId_1_1_" style="fill:#775436;" d="M256.001,512h52.598v-53.569C295.939,491.203,277.074,512,256.001,512z"/>
</g>
<path style="fill:#312F56;" d="M149.174,400.034l18.611-15.997c1.252-1.075,1.389-2.973,0.305-4.217l-15.227-17.479
	c-0.962-1.104-1.077-2.84-0.343-4.097h-36.808c-8.499,0-15.453,6.954-15.453,15.453v128c0,5.666,4.636,10.302,10.302,10.302h69.083
	l-31.891-107.136C147.283,403.283,147.922,401.109,149.174,400.034z"/>
<g style="opacity:0.15;">
	<path style="fill:#440075;" d="M130.31,501.698v-128c0-8.499,6.954-15.453,15.453-15.453h-30.05
		c-8.499,0-15.453,6.954-15.453,15.453v128c0,5.666,4.636,10.302,10.302,10.302h30.05C134.945,512,130.31,507.364,130.31,501.698z"
		/>
</g>
<path style="fill:#312F56;" d="M396.29,358.245h-36.808c0.732,1.257,0.619,2.992-0.344,4.097l-15.227,17.479
	c-1.084,1.244-0.947,3.142,0.305,4.217l18.611,15.997c1.252,1.075,1.891,3.249,1.42,4.83L332.357,512h69.083
	c5.666,0,10.302-4.636,10.302-10.302v-128C411.742,365.199,404.788,358.245,396.29,358.245z"/>
<g>
	<path style="fill:#D2957D;" d="M364.337,400.034l-18.611-15.997c-1.252-1.075-1.389-2.973-0.305-4.217l15.227-17.479
		c1.084-1.244,1.098-3.291,0.03-4.55l-45.468-53.594c-2.489,1.459-5.059,2.815-7.7,4.072V512h26.356l31.891-107.136
		C366.228,403.283,365.589,401.109,364.337,400.034z"/>
	<path style="fill:#D2957D;" d="M196.792,304.198l-45.468,53.594c-1.067,1.259-1.054,3.306,0.03,4.55l15.227,17.479
		c1.084,1.244,0.947,3.142-0.305,4.217l-18.611,15.997c-1.252,1.075-1.891,3.249-1.42,4.83L178.135,512h26.356V308.27
		C201.851,307.013,199.282,305.656,196.792,304.198z"/>
</g>
<path style="fill:#203A74;" d="M295.787,28.33c-8.274,0-16.176,1.575-23.444,4.414C261.264,13.198,240.286,0,216.215,0
	c-35.615,0-64.488,28.871-64.488,64.488v81.871c0,0.673,0.03,1.338,0.051,2.006C153.433,92.919,199.46,67,256.001,67
	c57.59,0,104.273,26.885,104.273,84.475V92.818C360.274,57.201,331.402,28.33,295.787,28.33z"/>
<path style="opacity:0.15;fill:#440075;enable-background:new    ;" d="M181.624,88.13V64.488c0-30.468,21.136-55.982,49.54-62.728
	c-4.8-1.139-9.801-1.76-14.949-1.76c-35.615,0-64.488,28.871-64.488,64.488v81.871c0,0.673,0.03,1.338,0.051,2.006
	C152.579,121.48,163.816,101.541,181.624,88.13z"/>
<g>
	<path style="fill:#312F56;" d="M231.915,68.687C239.647,67.561,247.71,67,256.001,67c3.594,0,7.145,0.104,10.645,0.315
		c-0.68-0.203-1.399-0.315-2.145-0.315c-17.45,0-31.647-14.197-31.647-31.647c0-4.143-3.358-7.5-7.5-7.5s-7.5,3.357-7.5,7.5
		C217.854,48.403,223.247,60.212,231.915,68.687z"/>
	<path style="fill:#312F56;" d="M205.23,75.394c7.783-2.918,16.177-5.066,25.026-6.457c-16.559-0.997-29.727-14.778-29.727-31.583
		c0-4.143-3.358-7.5-7.5-7.5s-7.5,3.357-7.5,7.5C185.53,53.041,193.322,66.934,205.23,75.394z"/>
	<path style="fill:#312F56;" d="M182.63,87.382c4.314-3.146,9.001-5.919,14.005-8.326c-7.141-4.316-12.583-11.415-14.535-20.183
		c-0.901-4.043-4.908-6.597-8.951-5.69c-4.043,0.899-6.591,4.907-5.691,8.95C169.734,72.355,175.226,81.046,182.63,87.382z"/>
</g>
<g>
	<path style="fill:#B2762F;" d="M152.727,226.64v-56.442h-13.223c-13.453,0-24.359,10.906-24.359,24.359v26.477
		c0,13.453,10.906,24.359,24.359,24.359h14.981C153.322,239.382,152.727,233.122,152.727,226.64z"/>
	<path style="fill:#B2762F;" d="M372.499,170.197h-13.225v56.442c0,6.482-0.596,12.742-1.758,18.753h14.982
		c13.453,0,24.358-10.906,24.358-24.359v-26.477C396.857,181.104,385.952,170.197,372.499,170.197z"/>
</g>
<g>
	<path style="fill:#775436;" d="M373.452,199.733h-14.178v15h14.178c4.143,0,7.5-3.357,7.5-7.5
		C380.952,203.091,377.595,199.733,373.452,199.733z"/>
	<path style="fill:#775436;" d="M152.727,199.733h-14.177c-4.142,0-7.5,3.357-7.5,7.5s3.358,7.5,7.5,7.5h14.177V199.733z"/>
</g>
<path style="fill:#D19546;" d="M151.727,150.406c0-57.59,46.687-84.475,104.274-84.475l0,0c57.59,0,104.273,26.885,104.273,84.475
	v76.233c0,57.59-46.684,93.747-104.273,93.747l0,0c-57.588,0-104.274-36.157-104.274-93.747V150.406z"/>
<g style="opacity:0.15;">
	<path style="fill:#440075;" d="M181.377,226.64v-76.233c0-52.555,38.884-79.535,89.449-83.851
		c-4.844-0.414-9.791-0.624-14.825-0.624c-57.588,0-104.274,26.885-104.274,84.475v76.233c0,57.59,46.687,93.747,104.274,93.747
		c5.034,0,9.981-0.283,14.825-0.825C220.26,313.896,181.377,279.195,181.377,226.64z"/>
</g>
<path style="fill:#B2762F;" d="M265.146,250.412h-8.997c-9.097,0-16.498-7.985-16.498-17.802v-34.589c0-4.143,3.358-7.5,7.5-7.5
	s7.5,3.357,7.5,7.5v34.589c0,1.743,1.041,2.802,1.498,2.802h8.997c4.143,0,7.5,3.357,7.5,7.5
	C272.646,247.055,269.288,250.412,265.146,250.412z"/>
<g>
	<path style="fill:#203A74;" d="M235.759,176.311c-2.417,0-4.79-1.166-6.237-3.325c-4.891-7.296-12.322-12.249-20.925-13.948
		c-8.603-1.695-17.358,0.061-24.654,4.95c-3.441,2.306-8.1,1.387-10.406-2.054c-2.306-3.44-1.387-8.1,2.054-10.405
		c10.624-7.122,23.376-9.68,35.911-7.207c12.534,2.475,23.358,9.688,30.479,20.313c2.306,3.44,1.387,8.1-2.054,10.405
		C238.646,175.898,237.195,176.311,235.759,176.311z"/>
	<path style="fill:#203A74;" d="M276.242,176.311c-1.435,0-2.887-0.412-4.169-1.271c-3.441-2.306-4.36-6.965-2.054-10.405
		c14.691-21.916,44.474-27.796,66.391-13.105c3.44,2.306,4.36,6.965,2.054,10.405s-6.965,4.362-10.405,2.054
		c-15.046-10.086-35.494-6.047-45.58,8.998C281.032,175.144,278.659,176.311,276.242,176.311z"/>
</g>
<g>
	<path style="fill:#775436;" d="M204.332,217.97c-11.792,0-21.384-9.617-21.384-21.438s9.593-21.438,21.384-21.438
		c11.79,0,21.382,9.617,21.382,21.438S216.122,217.97,204.332,217.97z"/>
	<path style="fill:#775436;" d="M307.671,217.97c-11.791,0-21.384-9.617-21.384-21.438s9.593-21.438,21.384-21.438
		c11.79,0,21.383,9.617,21.383,21.438S319.461,217.97,307.671,217.97z"/>
</g>
<path style="fill:#B2762F;" d="M282.142,278.438h-49.925c-4.142,0-7.5-3.357-7.5-7.5s3.358-7.5,7.5-7.5h49.925
	c4.143,0,7.5,3.357,7.5,7.5S286.284,278.438,282.142,278.438z"/>
<g>
</g>
<g>
</g>
<g>
</g>
<g>
</g>
<g>
</g>
<g>
</g>
<g>
</g>
<g>
</g>
<g>
</g>
<g>
</g>
<g>
</g>
<g>
</g>
<g>
</g>
<g>
</g>
<g>
</g>
</svg>
