<?xml version="1.0" encoding="iso-8859-1"?>
<!-- Generator: Adobe Illustrator 19.0.0, SVG Export Plug-In . SVG Version: 6.00 Build 0)  -->
<svg version="1.1" id="Capa_1" xmlns="http://www.w3.org/2000/svg" xmlns:xlink="http://www.w3.org/1999/xlink" x="0px" y="0px"
	 viewBox="0 0 511.999 511.999" style="enable-background:new 0 0 511.999 511.999;" xml:space="preserve">
<circle style="fill:#BCBCBC;" cx="272.388" cy="53.299" r="45.8"/>
<circle style="opacity:0.1;enable-background:new    ;" cx="272.388" cy="53.299" r="45.8"/>
<path style="fill:#DF85C6;" d="M375.059,504.499h24.939c4.235,0,7.668-3.433,7.668-7.667v-19.113
	c0-31.161-15.056-60.402-40.421-78.503l-1.552-1.107l-18.937,26.543l1.544,1.101c16.792,11.981,26.761,31.338,26.761,51.966v26.78
	H375.059z"/>
<path style="opacity:0.15;enable-background:new    ;" d="M375.059,504.499h24.939c4.235,0,7.668-3.433,7.668-7.667v-19.113
	c0-31.161-15.056-60.402-40.421-78.503l-1.552-1.107l-18.937,26.543l1.544,1.101c16.792,11.981,26.761,31.338,26.761,51.966v26.78
	H375.059z"/>
<path style="fill:#DF85C6;" d="M101.457,320.228l13.493,74.159c1.725,9.484,10.584,16.103,20.169,15.082l41.421-4.436
	c11.124-1.198,21.119,6.864,22.312,17.995c1.192,11.13-6.865,21.12-17.995,22.312l-41.421,4.436
	c-2.096,0.225-4.183,0.334-6.251,0.334c-28.107,0-52.989-20.275-58.117-48.467l-13.493-74.158L101.457,320.228z"/>
<path style="opacity:0.15;enable-background:new    ;" d="M101.457,320.228l13.493,74.159c1.725,9.484,10.584,16.103,20.169,15.082
	l41.421-4.436c11.124-1.198,21.119,6.864,22.312,17.995c1.192,11.13-6.865,21.12-17.995,22.312l-41.421,4.436
	c-2.096,0.225-4.183,0.334-6.251,0.334c-28.107,0-52.989-20.275-58.117-48.467l-13.493-74.158L101.457,320.228z"/>
<path style="fill:#DF85C6;" d="M272.39,328.369L272.39,328.369c58.335,0,105.625,47.29,105.625,105.625v70.505H174.433
	c-4.235,0-7.667-3.433-7.667-7.667v-62.838C166.766,375.659,214.055,328.369,272.39,328.369z"/>
<g style="opacity:0.1;">
	<path d="M215.323,429.267c-1.718,0-3.445-0.587-4.857-1.788l-8.551-7.274c-3.155-2.684-3.537-7.418-0.853-10.572
		c2.685-3.155,7.418-3.537,10.572-0.853l8.551,7.275c3.155,2.684,3.537,7.417,0.852,10.572
		C219.555,428.371,217.445,429.267,215.323,429.267z"/>
	<path d="M339.921,479.568c-2.371,0-4.703-1.121-6.161-3.214c-2.367-3.399-1.53-8.073,1.869-10.441l10.445-7.275
		c3.399-2.366,8.073-1.531,10.441,1.869c2.367,3.399,1.53,8.073-1.869,10.441l-10.445,7.274
		C342.895,479.132,341.401,479.568,339.921,479.568z"/>
	<path d="M332.012,414.085c-2.585,0-5.101-1.338-6.493-3.736l-6.047-10.416c-2.08-3.582-0.861-8.172,2.721-10.252
		c3.582-2.08,8.171-0.862,10.252,2.721l6.047,10.416c2.08,3.582,0.862,8.172-2.72,10.252
		C334.586,413.758,333.291,414.085,332.012,414.085z"/>
	<path d="M202.018,485.743c-0.979,0-1.974-0.193-2.932-0.601c-3.812-1.621-5.587-6.025-3.966-9.837l4.642-10.912
		c1.622-3.812,6.027-5.587,9.837-3.966c3.812,1.621,5.587,6.025,3.966,9.837l-4.642,10.912
		C207.708,484.03,204.935,485.743,202.018,485.743z"/>
</g>
<path style="opacity:0.1;enable-background:new    ;" d="M324.135,347.692l-33.119,41.457c-9.543,11.946-27.707,11.946-37.25,0
	l-33.119-41.457H324.135z"/>
<path style="opacity:0.1;enable-background:new    ;" d="M272.391,328.369L272.391,328.369c-30.271,0-57.563,12.737-76.822,33.14
	c22.688,12.829,48.897,20.159,76.822,20.159s54.133-7.33,76.822-20.16C329.954,341.106,302.661,328.369,272.391,328.369z"/>
<g>
	<circle style="fill:#FFD4B8;" cx="116.078" cy="209.819" r="27.567"/>
	<circle style="fill:#FFD4B8;" cx="428.698" cy="209.819" r="27.567"/>
	<circle style="fill:#FFD4B8;" cx="272.388" cy="209.609" r="156.31"/>
</g>
<path style="fill:#BCBCBC;" d="M272.39,53.299c-69.553,0-128.486,45.432-148.767,108.236
	c32.647,18.481,97.635,34.669,148.767-16.209c51.132,50.878,116.12,34.691,148.767,16.209
	C400.876,98.732,341.944,53.299,272.39,53.299z"/>
<path style="opacity:0.1;fill:#513130;enable-background:new    ;" d="M295.555,346.19c-86.329,0-156.312-69.983-156.312-156.312
	c0-42.194,16.724-80.477,43.898-108.599c-40.533,28.242-67.063,75.185-67.063,128.331c0,86.329,69.983,156.312,156.312,156.312
	c44.134,0,83.99-18.297,112.413-47.712C359.498,335.843,328.737,346.19,295.555,346.19z"/>
<path style="fill:#FFD4B8;" d="M81.492,344.128c-9.607,0-18.137-6.857-19.918-16.644l-5.517-30.322
	c-2.004-11.014,5.3-21.566,16.313-23.57c11.016-2.007,21.566,5.3,23.569,16.313l5.517,30.322c2.004,11.013-5.3,21.566-16.313,23.57
	C83.917,344.02,82.696,344.128,81.492,344.128z"/>
<g style="opacity:0.1;">
	<path style="fill:#513130;" d="M183.487,271.418c-4.142,0-7.5-3.358-7.5-7.5s3.358-7.5,7.5-7.5c6.465,0,20.241-7.517,26.801-14.624
		c2.81-3.043,7.555-3.234,10.598-0.424c3.044,2.81,3.234,7.555,0.424,10.598c-4.119,4.462-10.341,9.15-17.073,12.863
		C198.789,267.836,190.766,271.418,183.487,271.418z"/>
	<path style="fill:#513130;" d="M361.294,271.418c-7.279,0-15.302-3.582-20.75-6.587c-6.732-3.713-12.955-8.401-17.073-12.863
		c-2.81-3.044-2.62-7.789,0.424-10.598c3.044-2.81,7.789-2.62,10.598,0.424c6.561,7.107,20.337,14.624,26.802,14.624
		c4.142,0,7.5,3.358,7.5,7.5C368.794,268.06,365.436,271.418,361.294,271.418z"/>
</g>
<g>
	<circle style="fill:#FFFFFF;" cx="272.388" cy="424.199" r="7.274"/>
	<circle style="fill:#FFFFFF;" cx="272.388" cy="477.649" r="7.274"/>
</g>
<path d="M351.652,195.541c-11.921,0-21.62,9.699-21.62,21.62c0,4.142,3.358,7.5,7.5,7.5s7.5-3.358,7.5-7.5
	c0-3.65,2.97-6.62,6.62-6.62s6.62,2.97,6.62,6.62c0,4.142,3.358,7.5,7.5,7.5s7.5-3.358,7.5-7.5
	C373.272,205.239,363.573,195.541,351.652,195.541z M432.51,174.96c-1.121-5.206-2.504-10.344-4.126-15.406
	c-0.056-0.204-0.121-0.407-0.196-0.608c-4.565-14.054-11.023-27.494-19.32-39.965c-2.294-3.448-6.949-4.382-10.399-2.089
	c-3.448,2.294-4.384,6.95-2.089,10.399c6.417,9.644,11.618,19.93,15.587,30.652c-36.833,18.527-91.943,24.2-134.285-17.932
	c-2.926-2.911-7.654-2.911-10.58,0c-42.336,42.125-97.434,36.461-134.269,17.94c16.321-43.949,52.839-78.16,98.22-91.303
	c0.518-0.15,1.037-0.296,1.556-0.439c0.934-0.259,1.869-0.516,2.81-0.757c1.21-0.31,2.424-0.606,3.642-0.885
	c0.687-0.158,1.378-0.303,2.068-0.451c0.94-0.201,1.882-0.394,2.826-0.577c0.588-0.114,1.176-0.232,1.767-0.339
	c1.463-0.265,2.929-0.51,4.4-0.731c0.452-0.068,0.907-0.127,1.36-0.191c1.212-0.171,2.426-0.328,3.643-0.469
	c0.45-0.052,0.9-0.107,1.351-0.155c1.579-0.168,3.161-0.317,4.747-0.435c0.271-0.02,0.543-0.033,0.814-0.052
	c1.378-0.095,2.759-0.17,4.142-0.227c0.438-0.018,0.876-0.036,1.314-0.05c1.631-0.053,3.263-0.089,4.898-0.089
	c1.638,0,3.274,0.036,4.907,0.089c0.376,0.012,0.751,0.025,1.126,0.04c1.636,0.066,3.269,0.15,4.899,0.268
	c0.061,0.004,0.121,0.011,0.182,0.015c1.615,0.12,3.226,0.271,4.834,0.442c0.277,0.029,0.554,0.058,0.831,0.089
	c1.686,0.19,3.37,0.402,5.047,0.649c0.024,0.003,0.047,0.007,0.071,0.011c1.719,0.254,3.431,0.54,5.139,0.854
	c0.104,0.019,0.209,0.037,0.313,0.056c5.328,0.991,10.599,2.271,15.79,3.841c0.025,0.008,0.051,0.011,0.076,0.019
	c22.069,6.676,42.424,18.465,59.5,34.759c2.998,2.859,7.744,2.748,10.604-0.248c2.859-2.997,2.748-7.744-0.248-10.604
	c-17.318-16.525-37.698-28.844-59.795-36.429c0.012-0.451,0.025-0.903,0.025-1.352c0-29.39-23.911-53.3-53.3-53.3
	c-29.39,0-53.3,23.911-53.3,53.3c0,0.465,0.013,0.933,0.026,1.4c-48.317,16.663-86.465,55.331-102.418,103.971
	c-0.152,0.366-0.273,0.739-0.363,1.116c-1.587,4.96-2.942,10.021-4.056,15.172c-17.555,1.901-31.267,16.806-31.267,34.857
	c0,18.083,13.76,33.01,31.359,34.869c10.213,46.632,40.343,85.89,80.995,108.374c-13.184,12.842-22.894,28.496-28.508,45.681
	l-30.534,3.27c-5.695,0.611-10.97-3.332-11.996-8.967l-13.492-74.155c0-0.001,0-0.002,0-0.004l-5.517-30.322
	c-1.328-7.298-5.417-13.642-11.515-17.863c-6.099-4.222-13.478-5.814-20.776-4.486c-15.064,2.741-25.09,17.227-22.349,32.291
	l5.517,30.322c0,0,0,0.001,0,0.002l13.492,74.156c5.758,31.652,33.304,54.625,65.497,54.625c2.342,0,4.714-0.127,7.05-0.377
	l19.031-2.038v41.638c0,8.363,6.804,15.167,15.167,15.167h24.536c4.142,0,7.5-3.358,7.5-7.5s-3.358-7.5-7.5-7.5h-24.536
	c-0.092,0-0.167-0.075-0.167-0.167v-50.001c0-0.009,0-0.018,0-0.027v-12.81c0-8.949,1.207-17.713,3.511-26.108
	c0.024-0.077,0.042-0.155,0.064-0.232c5.062-18.264,15.363-34.754,29.962-47.513c5.999,2.584,12.183,4.817,18.525,6.678
	l21.579,27.012c5.98,7.485,14.904,11.778,24.484,11.778l0,0c9.58,0,18.505-4.294,24.485-11.778l21.579-27.011
	c6.342-1.861,12.525-4.095,18.525-6.679c14.207,12.417,24.347,28.366,29.546,46.047c0.047,0.182,0.102,0.362,0.163,0.541
	c2.516,8.745,3.827,17.905,3.827,27.265v63.005h-137.8c-4.142,0-7.5,3.358-7.5,7.5s3.358,7.5,7.5,7.5h167.28
	c8.363,0,15.168-6.804,15.168-15.167v-19.113c0-29.729-12.657-57.875-34.8-77.596c-5.538-17.728-15.414-33.878-28.951-47.064
	c40.652-22.484,70.782-61.743,80.995-108.375c17.599-1.858,31.359-16.786,31.359-34.869
	C463.769,191.767,450.06,176.864,432.51,174.96z M272.391,14.999c20.102,0,36.636,15.565,38.182,35.277
	c-1.547-0.369-3.101-0.711-4.661-1.034c-0.023-0.005-0.046-0.009-0.069-0.014c-1.484-0.308-2.974-0.595-4.469-0.861
	c-0.117-0.021-0.234-0.043-0.351-0.063c-3.102-0.546-6.224-1.01-9.367-1.378c-0.007-0.001-0.014-0.001-0.021-0.002
	c-1.45-0.17-2.906-0.317-4.364-0.448c-0.392-0.035-0.784-0.065-1.176-0.098c-1.089-0.09-2.181-0.171-3.274-0.239
	c-0.478-0.03-0.957-0.059-1.435-0.085c-1.063-0.058-2.129-0.103-3.195-0.14c-0.444-0.016-0.888-0.035-1.332-0.048
	c-1.487-0.04-2.976-0.065-4.468-0.065c-1.524,0-3.043,0.025-4.558,0.066c-0.484,0.013-0.966,0.038-1.449,0.055
	c-1.035,0.037-2.068,0.079-3.098,0.136c-0.572,0.032-1.144,0.072-1.715,0.109c-0.942,0.062-1.882,0.129-2.82,0.206
	c-0.604,0.05-1.208,0.105-1.811,0.161c-0.905,0.085-1.807,0.178-2.708,0.278c-0.617,0.068-1.235,0.137-1.851,0.212
	c-0.887,0.108-1.771,0.228-2.653,0.351c-0.621,0.086-1.242,0.168-1.862,0.261c-0.886,0.134-1.768,0.282-2.65,0.43
	c-1.225,0.205-2.447,0.425-3.666,0.658c-0.727,0.139-1.457,0.271-2.18,0.42c-0.934,0.191-1.865,0.402-2.796,0.61
	c-0.469,0.105-0.94,0.206-1.408,0.315c-0.318,0.074-0.639,0.138-0.956,0.214C235.752,30.569,252.288,14.999,272.391,14.999z
	 M96.012,209.816c0-8.819,5.727-16.311,13.651-18.996c-0.708,6.168-1.084,12.436-1.084,18.791c0,6.502,0.393,12.913,1.133,19.219
	C101.762,226.16,96.012,218.653,96.012,209.816z M68.954,326.144v-0.002c0-0.001,0-0.001,0-0.002l-5.516-30.32
	c-1.26-6.927,3.35-13.588,10.278-14.849c0.773-0.141,1.546-0.21,2.315-0.21c2.57,0,5.078,0.778,7.237,2.272
	c2.804,1.941,4.685,4.858,5.295,8.215l5.517,30.322c1.26,6.926-3.35,13.587-10.279,14.848c-0.762,0.139-1.538,0.21-2.307,0.21
	C75.333,336.628,70.06,332.219,68.954,326.144z M159.266,433.994v6.114l-20.629,2.21c-1.808,0.194-3.642,0.292-5.452,0.292
	c-24.94,0-46.279-17.793-50.739-42.31l-9.081-49.91c2.582,0.792,5.308,1.238,8.127,1.238c1.669,0,3.35-0.152,4.995-0.452
	c4.528-0.824,8.595-2.715,12.003-5.358l9.081,49.911c2.259,12.413,13.22,21.342,25.606,21.342c0.906,0,1.822-0.048,2.741-0.146
	l25.07-2.685C159.853,420.697,159.266,427.301,159.266,433.994z M400.165,477.719v19.112c0,0.092-0.075,0.167-0.168,0.167h-14.482
	v-63.005c0-1.802-0.052-3.596-0.136-5.384C394.93,443.016,400.165,460.04,400.165,477.719z M285.156,384.468
	c-3.118,3.902-7.771,6.141-12.766,6.141s-9.647-2.238-12.765-6.141l-10.106-12.65c7.477,1.049,15.11,1.604,22.871,1.604
	s15.394-0.555,22.871-1.604L285.156,384.468z M272.391,358.422c-82.055,0-148.812-66.756-148.812-148.811
	c0-12.849,1.638-25.322,4.714-37.223c13.194,6.266,35.749,14.552,62.771,14.552h0.013c30.416-0.003,58.381-10.799,81.314-31.306
	c22.933,20.507,50.898,31.303,81.314,31.306h0.014c27.025-0.001,49.585-8.291,62.779-14.557c3.106,12.064,4.705,24.553,4.705,37.227
	C421.202,291.666,354.445,358.422,272.391,358.422z M435.069,228.83c0.74-6.306,1.133-12.717,1.133-19.219
	c0-6.313-0.37-12.583-1.079-18.789c7.921,2.686,13.645,10.177,13.645,18.994C448.769,218.653,443.019,226.16,435.069,228.83z
	 M283.466,248.244c-2.904,3.101-6.838,4.808-11.075,4.808s-8.171-1.708-11.076-4.809c-2.832-3.022-7.578-3.176-10.601-0.345
	c-3.022,2.832-3.177,7.578-0.345,10.601c5.688,6.071,13.715,9.553,22.022,9.553c8.308,0,16.335-3.482,22.022-9.553
	c2.832-3.023,2.677-7.769-0.346-10.601C291.044,245.066,286.298,245.22,283.466,248.244z M193.128,195.541
	c-11.921,0-21.62,9.699-21.62,21.62c0,4.142,3.358,7.5,7.5,7.5s7.5-3.358,7.5-7.5c0-3.65,2.97-6.62,6.62-6.62s6.62,2.97,6.62,6.62
	c0,4.142,3.358,7.5,7.5,7.5s7.5-3.358,7.5-7.5C214.748,205.239,205.049,195.541,193.128,195.541z"/>
<g>
</g>
<g>
</g>
<g>
</g>
<g>
</g>
<g>
</g>
<g>
</g>
<g>
</g>
<g>
</g>
<g>
</g>
<g>
</g>
<g>
</g>
<g>
</g>
<g>
</g>
<g>
</g>
<g>
</g>
</svg>
