<?xml version="1.0" encoding="iso-8859-1"?>
<!-- Generator: Adobe Illustrator 19.0.0, SVG Export Plug-In . SVG Version: 6.00 Build 0)  -->
<svg version="1.1" id="Capa_1" xmlns="http://www.w3.org/2000/svg" xmlns:xlink="http://www.w3.org/1999/xlink" x="0px" y="0px"
	 viewBox="0 0 512 512" style="enable-background:new 0 0 512 512;" xml:space="preserve">
<path style="fill:#775436;" d="M394.229,358.245h-28.056c-9.228,17.921-35.144,33.021-70.204,39.732
	c-0.211,0.04-0.402,0.147-0.547,0.304l-72.34,78.358c-0.63,0.683-1.384,1.058-2.122,1.058h-0.001c-0.91,0-1.758-0.569-2.326-1.563
	l-57.315-100.176c-0.066-0.115-0.154-0.216-0.26-0.297c-7.02-5.383-12.157-11.262-15.296-17.417h-27.99
	c-8.499,0-15.452,6.954-15.452,15.453v128c0,5.666,4.636,10.302,10.302,10.302H399.38c5.666,0,10.303-4.636,10.303-10.302v-128
	C409.683,365.199,402.729,358.245,394.229,358.245z"/>
<g style="opacity:0.15;">
	<path style="fill:#440075;" d="M132.011,501.698v-128c0-8.499,6.954-15.453,15.453-15.453h-29.691
		c-8.499,0-15.452,6.954-15.452,15.453v128c0,5.666,4.636,10.302,10.302,10.302h29.69C136.646,512,132.011,507.364,132.011,501.698z
		"/>
</g>
<path style="fill:#FFFFFF;" d="M223.083,476.639c-0.63,0.683-1.384,1.058-2.122,1.058h-0.001c-0.155,0-0.305-0.039-0.455-0.071V512
	h70.992V402.533L223.083,476.639z"/>
<polygon style="fill:#FCDB67;" points="240.81,457.438 240.81,512 271.192,512 271.192,424.527 "/>
<path style="fill:#C0272D;" d="M256.001,401.662c-40.869,0-76.771-11.008-96.862-27.499l58.627,102.468
	c1.407,2.459,4.131,2.768,6.052,0.686l73.485-79.6C284.492,400.263,270.562,401.662,256.001,401.662z"/>
<path style="fill:#EF5050;" d="M347.337,318.723c-5.267,26.289-38.668,47.132-80.571,50.217l-7.703,7.266
	c-0.815,0.769-1.911,1.192-3.085,1.192c-1.163,0-2.251-0.417-3.063-1.173l-7.828-7.295c-41.833-3.124-75.16-23.949-80.421-50.207
	c-14.759,4.136-23.532,11.598-23.532,25.03c0,32.534,51.429,58.909,114.868,58.909s114.867-26.375,114.867-58.909
	C370.868,330.321,362.096,322.859,347.337,318.723z"/>
<g>
	<path style="fill:#C0272D;" d="M173.916,302.602c-1.927-1.796-4.112-5.468-4.772-8.018l-0.094-0.36
		c-3.943,4.221-6.11,9.81-6.11,17.218c0,30.453,36.506,55.508,83.327,58.589L173.916,302.602z"/>
	<path style="fill:#C0272D;" d="M342.226,293.481l-0.308,1.109c-0.705,2.544-2.924,6.226-4.846,8.038l-71.471,67.412
		c46.887-3.042,83.462-28.116,83.462-58.599C349.062,303.59,346.63,297.782,342.226,293.481z"/>
</g>
<g>
	<path style="fill:#FFB98A;" d="M159.256,244.099c-4.217-11.251-6.528-23.425-6.528-36.131v-34.375h-13.224
		c-13.452,0-24.359,10.907-24.359,24.359v26.477c0,13.453,10.907,24.358,24.359,24.358h17.797
		C156.821,246.935,157.679,245.039,159.256,244.099z"/>
	<path style="fill:#FFB98A;" d="M372.499,173.594h-13.225v34.375c0,12.706-2.311,24.881-6.529,36.133
		c0.605,0.363,1.121,0.865,1.481,1.5c0.548,0.967,0.688,2.085,0.393,3.148l-0.011,0.039h17.891
		c13.453,0,24.358-10.906,24.358-24.358v-26.477C396.857,184.501,385.952,173.594,372.499,173.594z"/>
</g>
<g>
	<path style="fill:#D2957D;" d="M152.728,207.968v-4.838H138.55c-4.143,0-7.5,3.358-7.5,7.5s3.357,7.5,7.5,7.5h14.678
		C152.899,214.786,152.728,211.397,152.728,207.968z"/>
	<path style="fill:#D2957D;" d="M373.452,203.13h-14.178v4.838c0,3.429-0.172,6.818-0.5,10.162h14.678c4.143,0,7.5-3.358,7.5-7.5
		S377.595,203.13,373.452,203.13z"/>
</g>
<path style="fill:#FFC7A9;" d="M256.001,159c-34.651,0-69.512-1.206-104.273-3.601v52.569c0,12.953,2.368,25.35,6.685,36.792
	c0.503-0.511,1.128-0.912,1.862-1.115l91.028-25.143c1.218-0.336,2.931-0.529,4.698-0.529c1.768,0,3.48,0.193,4.698,0.529
	l91.028,25.143c0.722,0.199,1.35,0.595,1.859,1.124c4.318-11.445,6.688-23.846,6.688-36.801v-52.569
	C325.513,157.794,290.652,159,256.001,159z"/>
<path style="opacity:0.15;fill:#440075;enable-background:new    ;" d="M160.274,243.646l25.117-6.938
	c-2.612-9.13-4.015-18.771-4.015-28.74v-50.827c-9.887-0.488-19.773-1.062-29.649-1.742v52.569c0,12.953,2.368,25.35,6.685,36.792
	C158.915,244.25,159.54,243.849,160.274,243.646z"/>
<path style="fill:#B2762F;" d="M256.001,134.145c35.054,0,70.324-1.266,105.481-3.761c-0.012-0.062-0.015-0.124-0.028-0.186
	L336.186,10.269C334.925,4.284,329.645,0,323.528,0h-46.372c-3.652,0-7.133,1.544-9.586,4.249l-11.567,12.764L244.432,4.248
	C241.981,1.543,238.498,0,234.846,0h-46.37c-6.116,0-11.398,4.284-12.66,10.269l-25.268,119.929
	c-0.013,0.062-0.017,0.124-0.028,0.186C185.677,132.879,220.947,134.145,256.001,134.145z"/>
<path style="fill:#D2957D;" d="M256.001,134.145c35.054,0,70.324-1.266,105.481-3.761c-0.012-0.062-0.015-0.124-0.028-0.186
	l-7.137-33.876H157.685l-7.137,33.876c-0.013,0.062-0.017,0.124-0.028,0.186C185.677,132.879,220.947,134.145,256.001,134.145z"/>
<path style="fill:#775436;" d="M256.001,134.145c17.92,0,35.897-0.337,53.887-0.992c0.011-0.983-0.033-1.975-0.139-2.956
	l-3.638-33.876h-100.22l-3.638,33.876c-0.105,0.981-0.149,1.972-0.138,2.956C220.105,133.808,238.081,134.145,256.001,134.145z"/>
<path style="opacity:0.15;fill:#440075;enable-background:new    ;" d="M179.805,132.174c0.035-0.66,0.103-1.32,0.24-1.977
	l25.268-119.929C206.574,4.284,211.856,0,217.973,0h-29.497c-6.116,0-11.398,4.284-12.66,10.269l-25.268,119.929
	c-0.013,0.062-0.017,0.124-0.028,0.186C160.275,131.076,170.038,131.673,179.805,132.174z"/>
<path style="fill:#D2957D;" d="M251.036,218.565c2.73-0.754,7.199-0.754,9.93,0l2.535,0.7v-20.176c0-4.142-3.357-7.5-7.5-7.5
	s-7.5,3.358-7.5,7.5v20.176L251.036,218.565z"/>
<g>
	<path style="fill:#046699;" d="M206.552,216.111c-11.79,0-21.383-9.617-21.383-21.438c0-11.82,9.593-21.437,21.383-21.437
		c11.791,0,21.384,9.617,21.384,21.437C227.936,206.495,218.343,216.111,206.552,216.111z"/>
	<path style="fill:#046699;" d="M305.45,216.111c-11.791,0-21.384-9.617-21.384-21.438c0-11.82,9.593-21.437,21.384-21.437
		c11.79,0,21.383,9.617,21.383,21.437C326.833,206.495,317.24,216.111,305.45,216.111z"/>
</g>
<path style="fill:#960B15;" d="M261.066,243.369c-2.786-0.769-7.344-0.769-10.129,0l-89.667,24.766l6.905,26.699
	c0.71,2.743,2.986,6.567,5.059,8.499l78.998,73.624c2.072,1.931,5.454,1.921,7.517-0.022l78.01-73.579
	c2.061-1.944,4.366-5.768,5.123-8.498l7.436-26.836L261.066,243.369z"/>
<path style="fill:#C0272D;" d="M161.728,269.9l89.309-24.667c2.73-0.754,7.199-0.754,9.93,0l88.864,24.545l5.753-20.761
	c0.757-2.73-0.858-5.581-3.589-6.335l-91.028-25.143c-2.73-0.754-7.199-0.754-9.93,0l-91.028,25.143
	c-2.73,0.754-4.384,3.615-3.675,6.358L161.728,269.9z"/>
<g style="opacity:0.15;">
	<path style="fill:#440075;" d="M199.536,291.806c-2.072-1.932-4.349-5.756-5.059-8.499l-11.843-45.793
		c-0.09-0.346-0.141-0.693-0.157-1.038l-22.47,6.206c-2.73,0.754-4.384,3.615-3.675,6.358l11.843,45.794
		c0.71,2.743,2.986,6.567,5.059,8.499l78.998,73.624c2.072,1.931,5.454,1.921,7.517-0.022l15.471-14.593L199.536,291.806z"/>
</g>
<path style="fill:#D19546;" d="M256.001,160.623c-61.569,0-123.8-3.809-184.962-11.32c-1.359-0.167-2.596-0.868-3.437-1.949
	c-0.841-1.081-1.217-2.451-1.046-3.81l2.192-17.355c0.329-2.602,2.547-4.505,5.105-4.505c0.209,0,0.42,0.013,0.634,0.039
	c60.019,7.37,121.089,11.106,181.513,11.106s121.494-3.736,181.514-11.106c0.213-0.026,0.424-0.039,0.633-0.039
	c2.559,0,4.776,1.903,5.105,4.505l2.192,17.355c0.171,1.359-0.205,2.73-1.046,3.81c-0.841,1.081-2.077,1.782-3.436,1.949
	C379.801,156.814,317.57,160.623,256.001,160.623z"/>
<path style="fill:#FFC502;" d="M349.798,489.851c-1.131,0-2.157-0.669-2.613-1.704l-8.924-20.242l-21.992,2.392
	c-0.104,0.011-0.207,0.017-0.31,0.017c-1.013,0-1.959-0.539-2.472-1.428c-0.566-0.98-0.5-2.202,0.168-3.115l13.067-17.85
	l-13.067-17.85c-0.668-0.912-0.734-2.135-0.168-3.115c0.513-0.889,1.459-1.427,2.472-1.427c0.102,0,0.206,0.005,0.31,0.017
	l21.992,2.392l8.924-20.242c0.456-1.034,1.482-1.703,2.613-1.703s2.157,0.669,2.613,1.703l8.924,20.242l21.992-2.392
	c0.103-0.011,0.207-0.017,0.31-0.017c1.013,0,1.959,0.538,2.472,1.427c0.566,0.98,0.5,2.203-0.168,3.115l-13.067,17.85l13.067,17.85
	c0.668,0.913,0.734,2.135,0.168,3.115c-0.513,0.889-1.459,1.428-2.472,1.428c-0.103,0-0.206-0.006-0.31-0.017l-21.992-2.392
	l-8.924,20.242C351.955,489.183,350.929,489.851,349.798,489.851z"/>
<g>
</g>
<g>
</g>
<g>
</g>
<g>
</g>
<g>
</g>
<g>
</g>
<g>
</g>
<g>
</g>
<g>
</g>
<g>
</g>
<g>
</g>
<g>
</g>
<g>
</g>
<g>
</g>
<g>
</g>
</svg>
