<?xml version="1.0" encoding="iso-8859-1"?>
<!-- Generator: Adobe Illustrator 19.0.0, SVG Export Plug-In . SVG Version: 6.00 Build 0)  -->
<svg version="1.1" id="Capa_1" xmlns="http://www.w3.org/2000/svg" xmlns:xlink="http://www.w3.org/1999/xlink" x="0px" y="0px"
	 viewBox="0 0 512 512" style="enable-background:new 0 0 512 512;" xml:space="preserve">
<path style="fill:#FCC892;" d="M65.166,437.734C34.747,437.734,10,412.986,10,382.566c0-19.22,9.758-36.75,26.102-46.895
	c7.038-4.373,16.286-2.204,20.654,4.834c4.369,7.038,2.205,16.286-4.834,20.654C44.457,365.795,40,373.797,40,382.566
	c0,13.878,11.289,25.168,25.166,25.168c12.042,0,22.434-8.56,24.71-20.353c1.57-8.134,9.446-13.446,17.571-11.886
	c8.134,1.57,13.455,9.438,11.886,17.571C114.337,418.949,91.557,437.734,65.166,437.734z"/>
<path style="fill:#FCA953;" d="M446.834,437.734c-26.093,0-48.823-18.532-54.047-44.065c-1.661-8.116,3.572-16.042,11.688-17.702
	c8.115-1.666,16.042,3.574,17.702,11.689c2.381,11.635,12.75,20.079,24.656,20.079c13.877,0,25.166-11.29,25.166-25.168
	c0-8.768-4.456-16.768-11.92-21.403c-7.038-4.37-9.2-13.618-4.83-20.656c4.37-7.037,13.617-9.202,20.656-4.83
	C492.245,345.823,502,363.353,502,382.566C502,412.986,477.253,437.734,446.834,437.734z"/>
<path style="fill:#703422;" d="M448.8,241h-32.134c-8.284,0-15,6.716-15,15c0,8.242,6.649,14.927,14.876,14.994l-0.547,66.406
	h-0.124c-8.284,0-15,6.716-15,15s6.716,15,15,15H448.8c34.849,0,63.2-28.351,63.2-63.199C512,269.352,483.648,241,448.8,241z"/>
<path style="fill:#8F5240;" d="M96.132,337.4h-0.124l-0.55-66.406c8.227-0.068,14.876-6.752,14.876-14.994c0-8.284-6.716-15-15-15
	H63.2C28.352,241,0,269.352,0,304.201S28.352,367.4,63.2,367.4h32.932c8.284,0,15-6.716,15-15S104.416,337.4,96.132,337.4z"/>
<path style="fill:#570101;" d="M416.667,0c-41.679,0-78.184,26.66-90.84,66.34c-2.517,7.893,1.841,16.331,9.733,18.849
	c4.634,1.48,9.448,0.573,13.15-2.015l56.145,80.213c-3.868,2.713-6.403,7.197-6.403,12.281c0,8.284,6.716,15,15,15H497
	c8.284,0,15-6.716,15-15V95.334C512,42.767,469.233,0,416.667,0z"/>
<path style="fill:#A46343;" d="M422.932,194.172l-201.414-92.578c-5.069-2.329-11.015-1.654-15.431,1.756L86.168,195.928
	c-3.68,2.84-5.834,7.226-5.834,11.873v128.533C80.334,433.196,159.138,512,256,512c96.863,0,175.667-78.804,175.667-175.666V207.801
	C431.667,201.941,428.255,196.618,422.932,194.172z"/>
<path style="fill:#8F5240;" d="M422.932,194.172l-166.929-76.727V512c96.862-0.002,175.664-78.805,175.664-175.666V207.801
	C431.667,201.941,428.255,196.618,422.932,194.172z"/>
<path style="fill:#8F1711;" d="M256,32.135c-12.005,0-24.006,1.221-35.665,3.629c-12.965,2.675-25.652,6.845-37.706,12.396
	c-30.098,13.854-55.609,35.869-73.776,63.667c-18.657,28.546-28.518,61.733-28.518,95.975v12.85c0,4.501,2.021,8.765,5.507,11.613
	c3.484,2.849,8.066,3.981,12.477,3.087c51.804-10.515,95.956-44.156,120.313-90.247c48.416,59.149,120.656,93.764,198.036,93.764
	c8.284,0,15-6.716,15-15v-16.066C431.667,110.938,352.863,32.135,256,32.135z"/>
<path style="fill:#FD413C;" d="M256,415.602c-22.483,0-43.454-12.098-54.727-31.573c-4.15-7.17-1.703-16.347,5.467-20.496
	c7.166-4.152,16.346-1.703,20.496,5.467c5.929,10.241,16.95,16.603,28.764,16.603c11.815,0,22.839-6.365,28.769-16.611
	c4.15-7.17,13.327-9.615,20.496-5.469c7.17,4.149,9.618,13.326,5.469,20.496C299.459,403.499,278.486,415.602,256,415.602z"/>
<path style="fill:#3B211A;" d="M191.735,295.107c-3.949,0-7.819-1.601-10.609-4.391c-2.79-2.8-4.391-6.659-4.391-10.609
	s1.6-7.81,4.391-10.61c2.79-2.79,6.66-4.39,10.609-4.39c3.95,0,7.811,1.6,10.61,4.39c2.79,2.8,4.39,6.66,4.39,10.61
	c0,3.94-1.6,7.81-4.39,10.609C199.546,293.507,195.685,295.107,191.735,295.107z"/>
<path style="fill:#0F0301;" d="M320.266,295.107c-3.95,0-7.81-1.601-10.61-4.391c-2.789-2.8-4.39-6.659-4.39-10.609
	s1.601-7.81,4.39-10.61c2.801-2.79,6.66-4.39,10.61-4.39s7.82,1.6,10.61,4.39c2.79,2.8,4.39,6.66,4.39,10.61s-1.6,7.81-4.39,10.609
	C328.086,293.507,324.216,295.107,320.266,295.107z"/>
<path style="fill:#DA0806;" d="M305.265,363.522c-7.171-4.15-16.347-1.701-20.497,5.469c-5.928,10.243-16.95,16.607-28.765,16.607
	v30c22.485-0.001,43.456-12.102,54.73-31.58C314.883,376.848,312.435,367.672,305.265,363.522z"/>
<path style="fill:#6B0101;" d="M256.003,32.135v150.068c44.894,36.242,101.257,56.664,160.664,56.664c8.284,0,15-6.716,15-15
	v-16.066C431.667,110.939,352.865,32.137,256.003,32.135z"/>
<g>
</g>
<g>
</g>
<g>
</g>
<g>
</g>
<g>
</g>
<g>
</g>
<g>
</g>
<g>
</g>
<g>
</g>
<g>
</g>
<g>
</g>
<g>
</g>
<g>
</g>
<g>
</g>
<g>
</g>
</svg>
