<?xml version="1.0" encoding="iso-8859-1"?>
<!-- Generator: Adobe Illustrator 19.0.0, SVG Export Plug-In . SVG Version: 6.00 Build 0)  -->
<svg version="1.1" id="Capa_1" xmlns="http://www.w3.org/2000/svg" xmlns:xlink="http://www.w3.org/1999/xlink" x="0px" y="0px"
	 viewBox="0 0 512 512" style="enable-background:new 0 0 512 512;" xml:space="preserve">
<rect x="85.453" y="230.281" transform="matrix(-0.7071 0.7071 -0.7071 -0.7071 386.364 418.6941)" style="fill:#9EA7AF;" width="42.03" height="118.169"/>
<rect x="85.655" y="255.093" transform="matrix(-0.7071 0.7071 -0.7071 -0.7071 386.8539 418.9013)" style="fill:#C5CCD3;" width="42.03" height="68.955"/>
<rect x="85.656" y="278.232" transform="matrix(-0.7071 0.7071 -0.7071 -0.7071 386.8564 418.9024)" style="fill:#9EA7AF;" width="42.03" height="22.679"/>
<polygon style="fill:#775436;" points="177.345,327.346 145.69,359 208.999,359 "/>
<g>
	<path style="fill:#B2762F;" d="M83.477,222.682c2.004,2.004,2.004,5.281,0,7.285l-36.421,36.419c-2.003,2.003-5.281,2.003-7.285,0
		l-10.107-10.107c-2.003-2.004-2.003-5.281,0-7.285l36.42-36.419c2.003-2.003,5.281-2.003,7.285,0L83.477,222.682z"/>
	<path style="fill:#B2762F;" d="M132.385,359h14.513l32.806-32.806c2.004-2.003,2.004-5.281,0-7.284l-6.529-6.529
		c-2.004-2.003-5.281-2.003-7.285,0l-36.419,36.42c-2.003,2.003-2.003,5.281,0,7.285L132.385,359z"/>
</g>
<path style="fill:#046699;" d="M360.723,359v-44.869C341.35,325.484,318.795,332,294.714,332h-2.125
	c-24.081,0-46.635-6.516-66.008-17.869V359H360.723z"/>
<path style="opacity:0.15;fill:#440075;enable-background:new    ;" d="M255.999,359v-32.196
	c-10.401-3.026-20.265-7.309-29.419-12.673V359H255.999z"/>
<path style="fill:#203A74;" d="M108.617,512c-2.845,0-5.151-2.307-5.151-5.151V373.004c0-8.521,6.932-15.453,15.453-15.453h349.466
	c8.52,0,15.453,6.932,15.453,15.453v133.845c0,2.844-2.307,5.151-5.151,5.151H108.617z"/>
<g>
	<rect x="103.469" y="422.89" style="fill:#046699;" width="40.874" height="28.25"/>
	<rect x="442.959" y="422.89" style="fill:#046699;" width="40.874" height="28.25"/>
</g>
<g style="opacity:0.15;">
	<path style="fill:#030005;" d="M123.901,506.849V373.004c0-8.521,6.932-15.453,15.453-15.453h-20.436
		c-8.521,0-15.453,6.932-15.453,15.453v133.845c0,2.844,2.306,5.151,5.151,5.151h20.436
		C126.207,512,123.901,509.693,123.901,506.849z"/>
</g>
<rect x="144.339" y="357.55" style="fill:#368C0E;" width="298.62" height="154.45"/>
<polygon style="fill:#203A74;" points="346.2,357.551 241.587,357.551 293.895,409.857 "/>
<g>
	<polygon style="fill:#368C0E;" points="192.236,357.551 144.34,357.551 144.34,512 191.751,512 269.218,434.533 	"/>
	<path style="fill:#368C0E;" d="M161.896,110.498C161.896,38.363,220.409,0,292.589,0h2.125c72.18,0,130.693,38.363,130.693,110.498
		v92.321c0,72.135-58.513,130.612-130.693,130.612h-2.125c-72.18,0-130.693-58.477-130.693-130.612V110.498z"/>
</g>
<path style="opacity:0.15;fill:#440075;enable-background:new    ;" d="M184.999,202.819v-92.321
	c0-68.604,52.928-106.659,120.201-110.22C301.74,0.095,298.244,0,294.714,0h-2.125c-72.18,0-130.693,38.363-130.693,110.498v92.321
	c0,72.135,58.513,130.612,130.693,130.612h2.125c3.529,0,7.025-0.145,10.484-0.42C237.926,327.669,184.999,271.423,184.999,202.819z
	"/>
<path style="fill:#5DC647;" d="M342.438,225.794c0,0-20.908-20.517-48.787-20.517c-27.878,0-48.786,20.517-48.786,20.517
	c-2.634,2.585-6.373,4.964-10.455,6.831c-3.828,29.625-2.64,59.251,3.558,88.878c16.621,7.652,35.121,11.928,54.621,11.928h2.125
	c19.501,0,38-4.275,54.622-11.928c6.198-29.626,7.386-59.251,3.557-88.877C348.811,230.758,345.072,228.379,342.438,225.794z"/>
<path style="fill:#D19546;" d="M195.241,122c-1.322,2.275-2.093,4.905-2.093,7.712v92.711c0,8.499,6.954,15.453,15.453,15.453h9.782
	c8.499,0,20.416-4.871,26.482-10.824c0,0,20.908-20.517,48.786-20.517c27.878,0,48.787,20.517,48.787,20.517
	c6.066,5.953,17.983,10.823,26.482,10.823h9.782c8.499,0,15.453-6.954,15.453-15.453v-92.711c0-2.807-0.771-5.438-2.093-7.712
	L195.241,122L195.241,122z"/>
<path style="fill:#B2762F;" d="M293.652,176.295c-4.142,0-7.5,3.358-7.5,7.5v22.756c0,0.16,0.014,0.316,0.024,0.474
	c2.427-0.313,4.921-0.488,7.475-0.488c2.555,0,5.05,0.175,7.477,0.489c0.01-0.158,0.024-0.314,0.024-0.474v-22.756
	C301.152,179.653,297.794,176.295,293.652,176.295z"/>
<path style="opacity:0.15;fill:#440075;enable-background:new    ;" d="M216.731,222.424v-92.711c0-2.807,0.77-5.438,2.093-7.712
	h-23.583c-1.322,2.275-2.093,4.905-2.093,7.712v92.711c0,8.499,6.954,15.453,15.453,15.453h9.782c2.459,0,5.205-0.418,8.012-1.142
	C220.745,234.432,216.731,228.877,216.731,222.424z"/>
<path style="fill:#5DC647;" d="M432.727,113.098c0,5.666-4.636,10.302-10.302,10.302H164.879c-5.666,0-10.302-4.636-10.302-10.302
	V98.154c0-5.666,4.636-10.302,10.302-10.302h257.545c5.665,0,10.302,4.636,10.302,10.302L432.727,113.098L432.727,113.098z"/>
<rect x="220.779" y="87.85" style="fill:#9EA7AF;" width="145.75" height="35.547"/>
<g>
	<path style="fill:#368C0E;" d="M319.878,254.857h-52.454c-4.142,0-7.5-3.358-7.5-7.5s3.358-7.5,7.5-7.5h52.454
		c4.142,0,7.5,3.358,7.5,7.5S324.021,254.857,319.878,254.857z"/>
	<path style="fill:#368C0E;" d="M319.878,279.183h-52.454c-4.142,0-7.5-3.358-7.5-7.5s3.358-7.5,7.5-7.5h52.454
		c4.142,0,7.5,3.358,7.5,7.5S324.021,279.183,319.878,279.183z"/>
	<path style="fill:#368C0E;" d="M319.878,303.509h-52.454c-4.142,0-7.5-3.358-7.5-7.5s3.358-7.5,7.5-7.5h52.454
		c4.142,0,7.5,3.358,7.5,7.5S324.021,303.509,319.878,303.509z"/>
</g>
<g style="opacity:0.15;">
	<path style="fill:#440075;" d="M302.585,69.122h-17.867c-4.142,0-7.5-3.358-7.5-7.5s3.358-7.5,7.5-7.5h17.867
		c4.142,0,7.5,3.358,7.5,7.5S306.727,69.122,302.585,69.122z"/>
</g>
<path style="fill:#E6E9ED;" d="M293.651,106.06c-1.614,0-3.098-0.879-3.872-2.294l-13.127-23.987
	c-0.27-0.495-0.674-0.898-1.169-1.169L251.48,65.49c-1.416-0.772-2.295-2.256-2.295-3.868c0-1.611,0.879-3.096,2.295-3.869
	l24.003-13.119c0.496-0.271,0.899-0.673,1.169-1.166l13.127-23.989c0.774-1.414,2.258-2.294,3.872-2.294
	c1.613,0,3.097,0.88,3.871,2.294l13.127,23.987c0.272,0.495,0.676,0.898,1.168,1.167l24.005,13.12
	c1.415,0.774,2.296,2.258,2.296,3.869c0,1.612-0.88,3.096-2.296,3.868l-24.003,13.12c-0.494,0.27-0.899,0.674-1.17,1.169
	l-13.127,23.987C296.748,105.181,295.264,106.06,293.651,106.06L293.651,106.06z"/>
<path style="fill:#C5CCD3;" d="M302.585,69.122h-17.867c-4.142,0-7.5-3.358-7.5-7.5s3.358-7.5,7.5-7.5h17.867
	c4.142,0,7.5,3.358,7.5,7.5S306.727,69.122,302.585,69.122z"/>
<g>
	<path style="fill:#775436;" d="M347.76,202.524c-11.791,0-21.383-9.592-21.383-21.383s9.592-21.384,21.383-21.384
		c11.792,0,21.384,9.593,21.384,21.384S359.551,202.524,347.76,202.524z"/>
	<path style="fill:#775436;" d="M239.543,202.524c-11.791,0-21.383-9.592-21.383-21.383s9.592-21.384,21.383-21.384
		c11.792,0,21.384,9.593,21.384,21.384S251.335,202.524,239.543,202.524z"/>
	<path style="fill:#775436;" d="M311.673,172.844c-1.45,0-2.915-0.419-4.205-1.294c-3.427-2.326-4.32-6.99-1.995-10.418
		c0.915-1.348,22.9-32.902,66.471-23.731c4.053,0.854,6.648,4.831,5.794,8.884c-0.853,4.054-4.83,6.645-8.884,5.794
		c-33.827-7.121-50.801,17.229-50.969,17.476C316.436,171.692,314.076,172.844,311.673,172.844z"/>
	<path style="fill:#775436;" d="M275.63,172.844c-2.392,0-4.742-1.142-6.194-3.262c-0.751-1.078-17.549-24.542-50.988-17.503
		c-4.048,0.851-8.031-1.74-8.884-5.794c-0.853-4.053,1.741-8.031,5.795-8.884c43.569-9.17,65.557,22.384,66.471,23.731
		c2.326,3.428,1.433,8.092-1.995,10.418C278.545,172.425,277.08,172.844,275.63,172.844z"/>
</g>
<polygon style="fill:#C5CCD3;" points="293.47,458.785 318.146,434.108 241.587,357.551 192.236,357.551 "/>
<polygon style="fill:#9EA7AF;" points="191.751,512 241.104,512 395.551,357.551 346.2,357.551 "/>
<path style="fill:#E6E9ED;" d="M360.988,433.386c-0.478-1.631,0.466-2.575,2.097-2.097l21.118,6.186c1.631,0.478,4.3,0.478,5.932,0
	l21.118-6.186c1.631-0.478,2.575,0.466,2.097,2.097l-6.185,21.118c-0.478,1.631-0.478,4.3,0,5.932l6.185,21.118
	c0.478,1.631-0.466,2.575-2.097,2.097l-21.118-6.186c-1.631-0.478-4.3-0.478-5.932,0l-21.118,6.186
	c-1.631,0.478-2.575-0.466-2.097-2.097l6.187-21.118c0.478-1.631,0.478-4.3,0-5.932L360.988,433.386z"/>
<g>
</g>
<g>
</g>
<g>
</g>
<g>
</g>
<g>
</g>
<g>
</g>
<g>
</g>
<g>
</g>
<g>
</g>
<g>
</g>
<g>
</g>
<g>
</g>
<g>
</g>
<g>
</g>
<g>
</g>
</svg>
