<svg xmlns="http://www.w3.org/2000/svg" width="1731.061" height="241.74" viewBox="0 0 1731.061 241.74"><defs><style>.a{fill:#ff0000;}.b{fill:#ff7700;}</style></defs><title>Logo-apps</title><path class="a" d="M208.734,167.931,165.654,97.25l-38.794,60.065L141.117,179.5a13.564,13.564,0,0,0,11.414,6.235l46.224,0A11.7,11.7,0,0,0,208.734,167.931Z"/><path class="b" d="M165.951,97.736l-28.906-47.3a11.448,11.448,0,0,0-19.541.007L93.088,90.456l-4.667,7.784h0L45.7,168.216a11.6,11.6,0,0,0,9.9,17.642l45.542,0A15.164,15.164,0,0,0,113.9,178.89l13.434-20.92h0Z"/><path class="a" d="M254.163,179.047q-8.637-6.612-8.637-18.908,0-12.6,8.4-19.219t24.433-6.614a56.633,56.633,0,0,1,11.672,1.245,47.3,47.3,0,0,1,9.959,3.112v-1.4q0-5.136-5.058-7.781t-14.083-2.646a56.835,56.835,0,0,0-24.9,5.447V111.742a52.4,52.4,0,0,1,13.383-3.969,99.767,99.767,0,0,1,17.586-1.479q21.628,0,32.991,8.248t11.36,23.343v45.441H301.862v-5.913A26.5,26.5,0,0,1,291.59,183.4a44.184,44.184,0,0,1-14.473,2.256Q262.8,185.661,254.163,179.047Zm40.384-12.994a13.16,13.16,0,0,0,5.446-4.047v-5.758a23.5,23.5,0,0,0-13.071-3.734,10.242,10.242,0,0,0-6.77,2.022,6.913,6.913,0,0,0-2.412,5.6,6.838,6.838,0,0,0,2.334,5.447q2.333,2.023,6.691,2.022A19.3,19.3,0,0,0,294.547,166.053Z"/><path class="a" d="M344.5,108.629h30.035v6.847a32.941,32.941,0,0,1,11.2-6.77,39.692,39.692,0,0,1,13.851-2.412,43.015,43.015,0,0,1,20.853,4.9,34.013,34.013,0,0,1,13.929,13.928,43.019,43.019,0,0,1,4.9,20.854,42.672,42.672,0,0,1-4.9,20.7,34.493,34.493,0,0,1-13.929,14.006,45.175,45.175,0,0,1-34.236,2.879,32.819,32.819,0,0,1-10.582-5.524v39.372H344.5Zm58.28,48.786q4.277-4.121,4.279-11.594,0-7.312-4.279-11.359t-11.594-4.047a17.433,17.433,0,0,0-9.415,2.568,15.881,15.881,0,0,0-6.147,6.925v12.139a15.87,15.87,0,0,0,6.147,6.925,17.433,17.433,0,0,0,9.415,2.567Q398.5,161.54,402.78,157.416Z"/><path class="a" d="M450.163,108.629H480.2v6.847a32.941,32.941,0,0,1,11.2-6.77,39.692,39.692,0,0,1,13.851-2.412,43.015,43.015,0,0,1,20.853,4.9,34.013,34.013,0,0,1,13.929,13.928,43.019,43.019,0,0,1,4.9,20.854,42.672,42.672,0,0,1-4.9,20.7,34.493,34.493,0,0,1-13.929,14.006,45.175,45.175,0,0,1-34.236,2.879,32.819,32.819,0,0,1-10.582-5.524v39.372H450.163Zm58.28,48.786q4.277-4.121,4.279-11.594,0-7.312-4.279-11.359t-11.594-4.047a17.433,17.433,0,0,0-9.415,2.568,15.881,15.881,0,0,0-6.147,6.925v12.139a15.87,15.87,0,0,0,6.147,6.925,17.433,17.433,0,0,0,9.415,2.567Q504.162,161.54,508.444,157.416Z"/><path class="a" d="M567.578,183.949q-10.2-1.709-16.106-4.979V157.027a65.786,65.786,0,0,0,15.64,6.3A63.2,63.2,0,0,0,583.84,165.9a27.762,27.762,0,0,0,6.536-.544q2.021-.543,2.023-2.257,0-1.554-1.945-2.334a74.026,74.026,0,0,0-7.236-2.179l-7.158-2.023a70.65,70.65,0,0,1-15.018-5.991,20.908,20.908,0,0,1-8.093-7.781,23.533,23.533,0,0,1-2.567-11.594q0-12.6,9.96-18.752t27.233-6.147a97.458,97.458,0,0,1,17.818,1.79q9.571,1.79,14.239,4.746v21.632a47.74,47.74,0,0,0-12.916-5.369,55.53,55.53,0,0,0-14.784-2.257q-9.185,0-9.182,3.112,0,1.4,2.257,2.335a53.717,53.717,0,0,0,7.858,2.179l6.536,1.556q10.113,2.648,15.562,6.069a19.636,19.636,0,0,1,7.626,8.015,26.643,26.643,0,0,1,2.179,11.438q0,11.052-9.727,17.585t-27.934,6.536A118.042,118.042,0,0,1,567.578,183.949Z"/><path class="b" d="M645.564,176.83a21.64,21.64,0,0,1-6.663-16.16,23.152,23.152,0,0,1,6.663-16.825,21.933,21.933,0,0,1,16.326-6.831,22.49,22.49,0,0,1,16.493,6.831,22.881,22.881,0,0,1,6.83,16.825,21.557,21.557,0,0,1-6.83,15.993,22.75,22.75,0,0,1-16.493,6.664A22.491,22.491,0,0,1,645.564,176.83Z"/><path class="a" d="M710.589,175.39q-12.6-10.271-12.605-29.1,0-18.519,11.36-29.257t32.681-10.738q13.692,0,23.42,5.058a34.774,34.774,0,0,1,14.707,13.929,40,40,0,0,1,4.979,19.919v10.115H727.552q3.734,9.961,22.564,9.96a104.4,104.4,0,0,0,15.328-1.167,59.786,59.786,0,0,0,13.306-3.346v19.452a66.821,66.821,0,0,1-14.783,3.968,110.617,110.617,0,0,1-18.208,1.479Q723.193,185.661,710.589,175.39Zm45.13-38.127a11.482,11.482,0,0,0-4.357-7.7q-3.582-2.722-9.8-2.724t-9.726,2.8a11.769,11.769,0,0,0-4.279,7.625Z"/><path class="a" d="M811.584,180.759a34.1,34.1,0,0,1-13.928-13.851,42.546,42.546,0,0,1-4.9-20.775,43.12,43.12,0,0,1,4.9-20.775,34.361,34.361,0,0,1,13.928-14.083A45.363,45.363,0,0,1,845.9,108.4a31.226,31.226,0,0,1,10.5,5.68V68.324h31.124v115H857.493v-6.848a30.888,30.888,0,0,1-11.127,6.848,40.666,40.666,0,0,1-13.928,2.334A43.005,43.005,0,0,1,811.584,180.759Zm38.672-21.709A15.42,15.42,0,0,0,856.4,152.2V139.909a15.445,15.445,0,0,0-6.146-6.848,17.877,17.877,0,0,0-9.415-2.489q-7.317,0-11.594,4.124t-4.279,11.438q0,7.317,4.279,11.36t11.594,4.046A17.859,17.859,0,0,0,850.256,159.05Z"/><path class="a" d="M908.535,176.946q-7.783-8.713-7.781-23.031V108.629h31.124v41.55q0,11.363,9.96,11.36a15.248,15.248,0,0,0,8.093-2.179,15.935,15.935,0,0,0,5.758-6.225V108.629h31.279v74.7h-30.19v-7.158a30.581,30.581,0,0,1-11.2,7.08,39.26,39.26,0,0,1-13.7,2.412Q916.315,185.661,908.535,176.946Z"/><path class="a" d="M1009.92,175.468q-12.062-10.191-12.061-29.335,0-19.295,12.061-29.567t32.914-10.271a87.362,87.362,0,0,1,17.9,1.79,43.331,43.331,0,0,1,13.851,5.058v24.121a34,34,0,0,0-11.127-5.213,50.2,50.2,0,0,0-13.461-1.79q-9.028,0-14.473,3.969t-5.446,11.9q0,7.937,5.368,11.827t14.4,3.891a49.874,49.874,0,0,0,13.616-1.867,43.157,43.157,0,0,0,12.061-5.447V178.5a45.907,45.907,0,0,1-14.161,5.291,87.626,87.626,0,0,1-18.675,1.867Q1021.98,185.661,1009.92,175.468Z"/><path class="a" d="M1091.154,179.047q-8.637-6.612-8.637-18.908,0-12.6,8.4-19.219t24.433-6.614a56.633,56.633,0,0,1,11.672,1.245,47.3,47.3,0,0,1,9.959,3.112v-1.4q0-5.136-5.058-7.781t-14.083-2.646a56.835,56.835,0,0,0-24.9,5.447V111.742a52.4,52.4,0,0,1,13.383-3.969,99.767,99.767,0,0,1,17.586-1.479q21.628,0,32.991,8.248t11.36,23.343v45.441h-29.412v-5.913a26.5,26.5,0,0,1-10.271,5.991,44.184,44.184,0,0,1-14.473,2.256Q1099.789,185.661,1091.154,179.047Zm40.384-12.994a13.16,13.16,0,0,0,5.446-4.047v-5.758a23.5,23.5,0,0,0-13.071-3.734,10.242,10.242,0,0,0-6.77,2.022,6.913,6.913,0,0,0-2.412,5.6,6.838,6.838,0,0,0,2.334,5.447q2.333,2.023,6.691,2.022A19.3,19.3,0,0,0,1131.537,166.053Z"/><path class="a" d="M1189.116,177.569q-7.469-8.09-7.47-21.942V129.638h-10.271V108.629h10.271V86.22h31.28v22.409h16.651v21.009h-16.651v21.476q0,5.6,2.1,8.014t7.081,2.412a21.212,21.212,0,0,0,10.737-2.956v23.031a45.45,45.45,0,0,1-9.415,3.035,62.924,62.924,0,0,1-12.371,1.011Q1196.586,185.661,1189.116,177.569Z"/><path class="a" d="M1245.293,95.713a15.322,15.322,0,0,1-4.669-11.516,15.394,15.394,0,0,1,4.669-11.438,16.928,16.928,0,0,1,23.265.078,16.059,16.059,0,0,1,0,22.8,17.139,17.139,0,0,1-23.265.078Zm-3.891,12.917h31.124v74.7H1241.4Z"/><path class="a" d="M1306.372,180.6a38.433,38.433,0,0,1-16.418-14.083,39.246,39.246,0,0,1,0-40.929,38.972,38.972,0,0,1,16.418-14.161q10.658-5.136,24.978-5.136t25.055,5.136a38.9,38.9,0,0,1,16.5,14.161,39.24,39.24,0,0,1,0,40.929,38.369,38.369,0,0,1-16.5,14.083q-10.739,5.055-25.055,5.058T1306.372,180.6Zm36.182-23.265q4.2-4.2,4.2-11.36t-4.2-11.282q-4.2-4.122-11.2-4.124t-11.127,4.124q-4.125,4.125-4.124,11.282t4.124,11.36q4.121,4.2,11.127,4.2T1342.554,157.338Z"/><path class="a" d="M1389.549,108.629h30.035v7.313a33.05,33.05,0,0,1,11.36-7.158,38.175,38.175,0,0,1,13.694-2.49q16.027,0,23.576,8.17t7.548,22.487v46.375h-31.28V141.309q0-5.288-2.256-8.015t-7.236-2.723q-9.337,0-14.317,8.4v44.352h-31.124Z"/><path class="b" d="M1496.093,176.83a21.64,21.64,0,0,1-6.663-16.16,23.152,23.152,0,0,1,6.663-16.825,21.933,21.933,0,0,1,16.326-6.831,22.49,22.49,0,0,1,16.493,6.831,22.881,22.881,0,0,1,6.83,16.825,21.557,21.557,0,0,1-6.83,15.993,22.75,22.75,0,0,1-16.493,6.664A22.491,22.491,0,0,1,1496.093,176.83Z"/><path class="a" d="M1554.607,127.615H1544.18V108.629h10.427V99.292q0-15.092,9.57-23.421T1589,67.546a36.925,36.925,0,0,1,14.939,2.8V92.133a21.639,21.639,0,0,0-9.8-2.179q-6.227,0-9.182,2.8T1582,101.627v7h17.273v18.985H1582v55.712h-27.389Z"/><path class="a" d="M1610.006,108.629h30.035v8.092a29.966,29.966,0,0,1,12.061-7.158,51.7,51.7,0,0,1,16.885-2.646v24.121a53.068,53.068,0,0,0-17.43,2.646q-7.626,2.647-10.427,7.781v41.861h-31.124Z"/></svg>