<svg id="Layer_1" data-name="Layer 1" xmlns="http://www.w3.org/2000/svg" viewBox="0 0 425.19 420.47"><defs><style>.cls-1{fill:#ff0000;}.cls-2{fill:#ff7700;}</style></defs><title>test-logo prez (1)</title><path class="cls-1" d="M244.5,168,194.6,86.38a19.76,19.76,0,0,0-33.73,0l-42.15,69.07-8,13.44h0L36.92,289.69A20,20,0,0,0,54,320.15h78.62a26.19,26.19,0,0,0,22-12L177.84,272h0Z"/><circle class="cls-1" cx="335.98" cy="226.38" r="28.09"/><circle class="cls-2" cx="373.85" cy="294.08" r="28.09"/><path class="cls-2" d="M318.6,289.21,244.5,168l-66.81,104,23.86,37.16A23.47,23.47,0,0,0,221.31,320h80A20.25,20.25,0,0,0,318.6,289.21Z"/></svg>